<svg width="71" height="82" viewBox="0 0 71 82" fill="none" xmlns="http://www.w3.org/2000/svg">
<path d="M47.4325 45.2397C47.3035 45.674 47.2 46.1417 47.0376 46.5697C47.0042 46.6572 46.8449 46.6063 46.8401 46.619C46.3082 45.9922 46.1474 45.3065 45.9531 44.5508C46.5503 44.5762 46.9675 44.9374 47.4325 45.2397Z" fill="#BFD1DF"/>
<path d="M28.9927 48.1943C29.4259 48.6493 29.4211 49.4051 29.5851 49.9682C29.4625 51.4669 30.0119 53.3045 30.4721 54.7459C30.7604 55.6464 33.8227 62.7691 34.2686 62.7754L37.6701 59.5235V81.6903C31.2206 81.4962 25.3348 80.0834 19.5255 77.3549C18.7436 72.5534 19.5924 67.604 18.2929 62.8725L17.3072 74.8922L11.8339 62.7245L13.2146 73.7101C8.24925 70.3086 3.94004 66.0289 0.691406 60.9522C0.852245 57.4314 1.31247 53.9425 1.77588 50.4599C4.26172 50.5474 7.8384 50.6794 10.2558 50.4599L11.439 59.9674C11.9772 59.2356 12.068 58.1203 12.4247 57.3073C12.8292 56.3878 13.4566 55.5859 13.9041 54.6966C15.0666 53.6322 16.374 52.8972 17.7993 52.2338C20.8345 50.8194 26.5897 49.6151 28.9911 48.1943H28.9927Z" fill="#DCE6EE"/>
<path d="M69.3241 62.3815C69.6282 63.5604 69.8926 64.9207 70.1123 66.125C67.3621 68.739 65.155 71.7284 61.9764 73.908C61.5226 73.8443 61.1929 65.5634 61.2375 64.795C61.2948 63.8197 61.7678 62.434 61.7806 61.5924C61.7821 61.4699 61.9223 61.3076 61.6325 61.4444C59.8632 66.44 60.298 71.5613 59.9556 76.7637C54.28 79.6529 48.6905 81.1961 42.3047 81.5907V59.3253C42.8222 59.4748 45.8431 62.827 46.2492 62.4292C46.676 62.0108 49.0137 55.892 49.3068 54.9422C49.6953 53.6822 50.025 52.2933 50.2925 51.0014C50.3052 50.9362 50.4677 50.2871 50.1938 50.3602C50.3769 49.6427 50.6874 48.957 50.6874 48.1934C54.2275 49.4152 57.93 50.3968 61.3872 51.8382C66.964 54.1658 67.8606 56.6922 69.3257 62.3799L69.3241 62.3815Z" fill="#DCE6EE"/>
<path d="M40.3306 55.6823C41.1937 56.8103 41.7765 58.0115 42.302 59.3272V81.5926C40.7351 81.6897 39.2365 81.739 37.668 81.6913V59.5245C37.8017 58.5238 38.961 56.4428 39.6394 55.6823C39.7382 55.5726 39.8321 55.3912 39.9356 55.2878C39.9516 55.2719 40.0169 55.3037 40.0344 55.2878C40.0503 55.4819 40.2653 55.5964 40.3306 55.6823Z" fill="#511B72"/>
<path d="M2.95721 45.9293C4.78695 45.9023 6.65173 45.8784 8.47988 45.9293C8.82386 45.9388 10.437 45.8243 10.5501 46.0773L11.0438 50.314C10.9498 50.5494 10.4561 50.4428 10.2555 50.4619C7.83812 50.6815 4.26144 50.5494 1.7756 50.4619C1.4587 50.4508 0.113065 50.5669 0 50.314V45.9786C0.982552 45.8784 1.97466 45.9436 2.9588 45.9293H2.95721Z" fill="#511B72"/>
<path d="M19.5236 77.358C17.2082 76.2698 15.3179 75.1561 13.2127 73.7131L11.832 62.7275L17.3053 74.8952L18.2911 62.8755C19.5905 67.6054 18.7417 72.5565 19.5236 77.358Z" fill="#BFD1DF"/>
<path d="M70.1118 66.1256C70.2997 67.1518 70.467 68.1923 70.6055 69.2296C67.4524 72.2571 63.8455 74.7868 59.9551 76.7659C60.2975 71.5635 59.8627 66.4422 61.6319 61.4466C61.9218 61.3098 61.7816 61.4721 61.78 61.5946C61.7689 62.4346 61.2943 63.8203 61.237 64.7972C61.1924 65.5656 61.5221 73.8465 61.9759 73.9102C65.1529 71.7305 67.36 68.7411 70.1118 66.1272V66.1256Z" fill="#BFD1DF"/>
<path d="M50.6833 48.1953C50.6833 48.9589 50.3743 49.6446 50.1896 50.3621C49.3201 53.7588 47.8136 56.9789 46.097 60.0176L40.3274 55.6823C40.2622 55.5964 40.0472 55.4818 40.0312 55.2877C42.7814 52.5767 44.6924 51.3103 46.5397 47.6034C46.6607 47.3616 46.8295 47.1086 46.9346 46.8652C46.984 46.7491 46.8072 46.6902 46.8359 46.6186C46.8406 46.6059 46.9999 46.6568 47.0333 46.5693C47.1958 46.1413 47.2993 45.6736 47.4283 45.2393C47.8327 45.5034 50.7278 47.6448 50.7804 47.85C50.7708 47.9964 50.6817 48.0171 50.6817 48.1953H50.6833Z" fill="white"/>
<path d="M32.1442 45.4355C32.3894 45.7283 32.6442 46.0942 32.8337 46.4203C34.7447 49.7025 36.8802 52.9544 39.9345 55.2867C39.831 55.3902 39.7371 55.5699 39.6383 55.6813L33.8688 59.8194C32.2063 56.6995 30.5661 53.3776 29.5787 49.9682C29.4163 49.4066 29.4211 48.6493 28.9863 48.1943C29.5803 47.8427 31.332 46.0608 32.1426 45.4355H32.1442Z" fill="white"/>
<path d="M39.6402 55.6809C38.9603 56.4414 37.8009 58.5223 37.6688 59.523L34.2673 62.775C33.8214 62.7686 30.7591 55.6459 30.4708 54.7454C30.0106 53.3024 29.4612 51.4665 29.5838 49.9678C30.5711 53.3772 32.2114 56.6991 33.8739 59.819L39.6434 55.6809H39.6402Z" fill="#BFD1DF"/>
<path d="M42.3074 59.3282C41.7819 58.0125 41.1975 56.8113 40.3359 55.6833L46.1054 60.0187C47.8221 56.9815 49.3286 53.7599 50.1981 50.3632C50.472 50.29 50.3096 50.9391 50.2968 51.0043C50.0293 52.2962 49.6996 53.6851 49.3111 54.9451C49.0181 55.8965 46.6803 62.0153 46.2535 62.4321C45.8268 62.849 42.8266 59.4777 42.309 59.3282H42.3074Z" fill="#BFD1DF"/>
<path d="M8.38036 21.5966C5.62062 21.7335 6.27194 21.9944 6.21142 24.3553C5.6461 24.9504 5.53462 26.1324 5.52188 26.9168C5.23205 27.0361 4.63488 27.5563 4.28931 27.7043C4.13007 27.6136 5.38652 24.7054 5.52188 24.306C5.73368 23.6824 5.74642 22.5878 6.01555 22.0405C6.34519 21.3675 7.87873 20.9809 8.57942 20.168C9.07468 19.5936 9.10812 19.04 9.46642 18.4434C9.61452 19.6811 9.17659 20.6946 8.38195 21.5966H8.38036Z" fill="#F6BE9D"/>
<path d="M11.2379 38.3449C10.8812 39.7227 9.9432 41.0988 9.46228 42.3843C9.08009 42.7391 6.61495 43.8942 6.40474 43.4185C6.21683 42.9937 7.408 42.8123 7.73605 42.5816C9.225 41.5284 9.4798 39.9327 8.67242 38.3449C9.45432 38.426 10.4225 38.3274 11.2363 38.3449H11.2379Z" fill="#F3A579"/>
<path d="M6.21066 24.3545C6.18996 25.1341 6.04664 25.9295 6.11193 26.7187C6.01479 26.7505 5.55138 26.9032 5.51953 26.9159C5.53386 26.1316 5.64374 24.9495 6.20907 24.3545H6.21066Z" fill="white"/>
<path d="M9.46442 18.4418C9.10611 19.0368 9.07267 19.592 8.57741 20.1664C7.87673 20.9794 6.34318 21.366 6.01354 22.0389C5.74442 22.5878 5.73168 23.6808 5.51988 24.3044C5.38452 24.7038 4.12806 27.6136 4.28731 27.7027C4.63288 27.5548 5.23005 27.0345 5.51988 26.9152C5.55014 26.9025 6.01354 26.7497 6.11228 26.7179C6.72697 26.5159 9.97241 25.8668 10.4024 26.029C10.5441 26.9502 13.9679 30.8878 14.0014 31.2012C14.0555 31.696 12.9567 31.7724 12.6207 31.7438C11.5728 31.6499 10.9789 29.8076 10.1062 29.281C9.0233 28.6271 6.70308 28.9023 5.47211 29.1823C5.18228 29.2475 4.07392 29.3939 4.23954 29.8235C4.36534 30.1496 8.50575 28.8721 9.81158 29.6755C10.6508 30.191 11.3658 32.4724 12.721 32.1383C13.0156 32.9895 13.2895 33.8327 13.3134 34.7491L11.7846 34.7984C12.213 37.2214 10.5648 35.9534 9.91031 34.7984L7.29707 34.3545C7.23337 36.0934 6.37981 38.1076 8.67774 38.3446C9.48353 39.9324 9.23033 41.5281 7.74137 42.5813C7.41332 42.8136 6.22216 42.9934 6.41007 43.4182C6.62027 43.8939 9.08541 42.7388 9.4676 42.3841C9.04082 43.5296 8.79877 44.753 8.48187 45.9303C6.65372 45.8794 4.78894 45.9033 2.95919 45.9303C2.98149 44.4443 3.77454 42.7261 3.64873 41.2513C3.43056 38.6708 1.59604 34.7968 1.18359 32.089C3.25539 28.985 1.5833 25.5947 3.2538 22.4335C4.40834 20.2491 7.17127 19.3407 9.21918 18.2461L9.46601 18.4434L9.46442 18.4418Z" fill="#FED8BB"/>
<path d="M12.6202 31.7423C12.6377 31.8648 12.6791 32.0207 12.719 32.1369C11.3638 32.471 10.6487 30.1895 9.80952 29.6741C8.5037 28.8706 4.36328 30.1482 4.23748 29.822C4.07186 29.3941 5.18022 29.2477 5.47005 29.1809C6.70262 28.9009 9.02284 28.6256 10.1041 29.2795C10.9768 29.8061 11.5708 31.6485 12.6186 31.7423H12.6202Z" fill="#F3A579"/>
<path d="M6.65526 31.7421C8.2541 31.6308 10.5966 32.4851 11.5362 33.8597C13.0713 36.1045 10.2351 33.3092 10.1061 33.2185C8.3369 31.9792 6.66322 32.124 4.68219 32.7254C3.59772 32.2958 6.45779 31.7533 6.65367 31.7406L6.65526 31.7421Z" fill="#F3A579"/>
<path d="M45.4577 39.9225C45.4067 41.5055 45.558 43.0328 45.9513 44.5522C46.1472 45.3095 46.3064 45.9936 46.8383 46.6204C46.8097 46.692 46.9864 46.7493 46.9371 46.867C46.8335 47.1104 46.6632 47.365 46.5421 47.6052C42.1023 47.1566 38.0543 45.642 34.3136 43.2699C34.3629 42.6494 34.3964 40.4189 34.2148 39.9209C35.7802 40.6018 37.2389 41.6328 38.997 41.7935C41.1787 41.9923 43.6407 41.1046 45.4561 39.9209L45.4577 39.9225Z" fill="#F3A579"/>
<path d="M38.7512 10.0681C41.7211 13.9946 42.417 15.891 46.7884 18.9345C48.0369 19.8047 50.7839 20.99 51.6693 21.7918L51.7186 22.0877C51.4033 22.2103 49.2997 21.2382 48.8092 21.1029C48.2248 20.2088 46.9986 19.6472 45.9491 19.625L43.0397 17.5567C41.3151 16.0437 38.9264 13.0034 38.5521 10.7092C38.5314 10.5804 38.4534 10.014 38.7496 10.0681H38.7512Z" fill="#F6BE9D"/>
<path d="M53.2462 31.2521C52.6283 31.2807 52.1506 31.443 51.52 31.3507C51.4212 31.2966 51.7604 30.6968 51.7668 30.6618C54.689 30.253 55.9789 25.3974 52.8513 24.3569C52.9038 24.1055 52.9229 23.2369 53.0981 23.1748C57.4997 23.8382 56.8133 29.7152 53.2462 31.2537V31.2521Z" fill="#F6BE9D"/>
<path d="M29.8768 20.316C29.8608 20.3224 29.6729 20.5229 29.5806 20.5133C29.2318 19.9803 29.2605 19.3217 28.4961 19.2326C32.568 17.2566 35.2434 14.0095 37.9633 10.5635C38.1958 10.6621 38.0222 10.8801 37.9633 11.0074C36.1941 14.7668 33.1334 17.8198 29.8768 20.3176V20.316Z" fill="#F6BE9D"/>
<path d="M51.7695 30.6614C51.9017 29.7864 52.0148 28.8875 52.0657 28.0013C52.5116 26.832 52.604 25.5688 52.854 24.3564C55.9816 25.3969 54.6917 30.2525 51.7695 30.6614Z" fill="#F6BE9D"/>
<path d="M30.0757 21.0061C29.5088 20.8932 29.8225 20.8789 29.582 20.5129C29.6744 20.5241 29.8623 20.3236 29.8782 20.3157C31.6522 19.5488 34.2177 19.1145 35.4996 20.9568C35.4535 21.3227 33.8291 20.8216 33.5759 20.8089C32.6635 20.7659 30.649 21.1191 30.0757 21.0061Z" fill="#080C1B"/>
<path d="M46.5419 47.6052C44.6947 51.3138 42.7837 52.5786 40.0335 55.2896C40.0176 55.3055 39.9507 55.2736 39.9348 55.2896C36.882 52.9572 34.7465 49.7053 32.834 46.4232C33.4805 45.9507 34.049 44.934 34.2147 44.1576C34.2943 43.7869 34.2847 43.6247 34.3134 43.2715C38.0541 45.6436 42.1005 47.1582 46.5419 47.6068V47.6052Z" fill="#F6BE9D"/>
<path d="M45.949 19.6266C46.9984 19.6489 48.2246 20.2089 48.809 21.1046C46.8631 20.5652 45.527 20.4602 43.5332 21.0059C43.6813 20.0402 45.0636 19.6075 45.949 19.6266Z" fill="#0F1931"/>
<path d="M38.7521 10.0696C38.4559 10.0155 38.534 10.5819 38.5547 10.7107C38.9289 13.0049 41.316 16.0452 43.0422 17.5582L45.9517 19.6264C45.0663 19.6073 43.684 20.0401 43.5359 21.0058C45.5297 20.4601 46.8657 20.5651 48.8117 21.1044C49.3006 21.2397 51.4059 22.2117 51.7212 22.0892L51.6718 21.7933C51.6845 21.8045 51.9139 21.779 51.968 21.9413C52.019 23.9475 52.1798 25.9918 52.0667 27.9996C52.0174 28.8858 51.9027 29.7847 51.7705 30.6597C51.7658 30.6963 51.4266 31.2945 51.5237 31.3486C52.1527 31.4409 52.6305 31.2786 53.2499 31.25C52.9378 31.3852 52.6767 31.5538 52.3136 31.6445C52.0699 31.705 51.5587 31.53 51.4759 31.5952C51.3804 31.67 51.0062 33.1034 50.8835 33.3691C49.7179 35.9003 47.818 38.3838 45.4596 39.9207C43.6442 41.1043 41.1822 41.9921 39.0006 41.7932C37.2425 41.6325 35.7822 40.6032 34.2184 39.9207C34.0209 39.3766 32.8234 38.9247 32.5415 38.344C33.4954 38.2899 34.1818 38.5349 34.7104 37.5072V24.7L35.0066 24.8973C34.4732 24.1209 34.8952 23.0486 34.7104 22.3358C34.3601 20.9835 31.0334 21.9095 30.1257 21.5976C29.9872 21.5499 29.7483 21.1394 30.0764 21.0058C30.6513 21.1203 32.6641 20.7656 33.5766 20.8085C33.8282 20.8197 35.4541 21.3224 35.5003 20.9565C34.2184 19.1157 31.6545 19.5501 29.8789 20.3153C33.1355 17.8175 36.1946 14.7645 37.9655 11.005C38.0244 10.8778 38.198 10.6598 37.9655 10.5612C38.0674 10.4307 38.4432 9.78319 38.5085 9.77365C38.6821 9.74183 38.6725 9.95979 38.7553 10.0696H38.7521Z" fill="#FED8BB"/>
<path d="M36.334 34.6016L43.4842 34.7495C41.6098 37.6578 38.0029 37.766 36.334 34.6016Z" fill="#D93E52"/>
<path d="M39.3912 27.7061C40.2575 27.7745 38.7176 30.9119 38.7494 31.203C38.8036 31.6851 40.6922 32.4551 39.982 32.7304C39.6555 32.8576 38.329 31.7328 38.2558 31.4003C38.0838 30.6112 39.2431 29.0059 39.044 28.0514C39.0822 27.9591 39.3147 27.7013 39.3896 27.7061H39.3912Z" fill="#F3A579"/>
<path d="M40.6732 31.3513C40.9168 31.2367 41.6255 31.3735 41.4121 31.7951C41.1541 32.3058 40.1174 31.6154 40.6732 31.3513Z" fill="#F3A579"/>
<path d="M49.793 25.3411C49.1289 24.4947 48.2005 23.7803 47.081 23.7644C47.9871 24.676 47.9553 26.1175 47.0316 27.0163C46.7832 27.0545 46.5284 27.22 46.2927 27.2136C46.1319 27.2088 45.7099 26.9559 45.5538 26.9177C44.8898 26.0761 44.8929 25.2281 45.2083 24.2576C44.6461 24.5679 44.256 25.1788 43.9757 25.7356L43.877 25.637C44.1509 23.801 45.979 22.9371 47.6734 23.1742C48.5365 23.2951 50.3296 24.3769 49.793 25.3411Z" fill="#09080C"/>
<path d="M49.7906 25.3403C49.2906 26.2392 47.9959 26.8692 47.0293 27.0156C47.9529 26.1183 47.9848 24.6769 47.0787 23.7637C48.1982 23.7796 49.1266 24.4939 49.7906 25.3403Z" fill="white"/>
<path d="M45.5519 26.9179C45.5391 26.9147 45.5455 27.0961 45.305 27.0165C44.9037 26.8845 44.039 26.3515 43.875 25.9331C43.8893 25.8599 43.9403 25.8026 43.9737 25.7358C44.254 25.179 44.6442 24.568 45.2063 24.2578C44.891 25.2283 44.8878 26.0763 45.5519 26.9179Z" fill="white"/>
<path d="M43.9748 25.7344C43.9413 25.8012 43.8904 25.8585 43.876 25.9317C43.7502 25.6103 43.8601 25.7407 43.876 25.6357L43.9748 25.7344Z" fill="#66483B"/>
<path d="M32.5429 38.3438C32.8232 38.9244 34.0223 39.3763 34.2198 39.9204C34.4013 40.4184 34.3679 42.6489 34.3185 43.2693C34.2898 43.6225 34.2994 43.7848 34.2198 44.1555C33.2929 44.1905 32.7818 44.9478 32.1495 45.4362C31.339 46.0615 29.5873 47.8433 28.9933 48.1949C26.5902 49.6157 20.8367 50.82 17.8014 52.2344C16.3762 52.8978 15.0688 53.6328 13.9062 54.6972C14.4732 53.574 14.9366 52.3823 15.5831 51.2989C18.1645 46.9651 22.211 43.2932 24.063 38.4424C26.7782 38.4281 29.8707 38.4965 32.5429 38.3438Z" fill="#080C1B"/>
<path d="M69.3259 62.3814C67.8608 56.6937 66.9643 54.1673 61.3875 51.8397C57.9302 50.3967 54.2277 49.4167 50.6877 48.1949C50.6877 48.0167 50.7768 47.996 50.7864 47.8496C50.7339 47.6444 47.8387 45.503 47.4343 45.2389C46.9693 44.935 46.552 44.5754 45.9549 44.55C45.5615 43.029 45.4102 41.5017 45.4612 39.9203C47.8196 38.3834 49.7194 35.8999 50.8851 33.3687C51.0062 33.1046 51.382 31.6696 51.4775 31.5948C51.5603 31.5296 52.0731 31.7046 52.3152 31.6441C52.6783 31.555 52.941 31.3848 53.2515 31.2496C56.8187 29.7111 57.505 23.8357 53.1034 23.1707C52.9283 23.2328 52.9092 24.1014 52.8566 24.3528C52.6066 25.5667 52.5142 26.8283 52.0683 27.9977C52.1814 25.9883 52.0206 23.9455 51.9696 21.9393C51.9155 21.777 51.6861 21.8025 51.6734 21.7914C50.788 20.9895 48.041 19.8043 46.7925 18.934C42.4212 15.8905 41.7253 13.9941 38.7553 10.0676C38.6725 9.95942 38.6821 9.73987 38.5085 9.77169C38.4448 9.78124 38.069 10.4303 37.9655 10.5592C35.2471 14.0052 32.5702 17.2524 28.4982 19.2283C27.116 19.0661 24.103 19.3015 22.5329 19.327C22.458 19.327 22.5329 19.1265 22.3848 19.1297C23.4613 12.1884 27.0587 1.64986 35.2535 0.706429C43.1203 -0.198825 49.5236 -0.270417 53.8423 7.35662C59.0354 16.5285 56.4922 28.0661 62.0276 37.3064C63.8494 40.3467 66.5295 43.0577 68.3386 46.0741C71.3643 51.119 71.9789 57.0278 69.3243 62.3782L69.3259 62.3814Z" fill="#0F1931"/>
<path d="M31.7046 3.76138C32.4435 3.73433 32.0167 4.57436 32.0502 4.69686C32.0677 4.7605 32.7461 5.13278 32.8385 5.48439C32.9117 5.76598 32.7174 6.24009 32.7397 6.27191C32.77 6.31805 33.4181 6.41191 33.5774 6.51851C34.0057 6.80647 34.7622 8.53743 34.9087 9.03062C33.8019 10.2047 30.5596 8.76812 31.6537 6.96238C29.4768 7.49535 30.3908 6.41987 30.273 6.17486C30.2348 6.09372 29.2602 6.0094 29.4847 5.19006C29.5006 5.13278 30.1743 4.2864 30.2236 4.25458C30.2889 4.21162 31.625 3.76456 31.703 3.76138H31.7046Z" fill="#40495F"/>
<path d="M39.5946 7.60352C42.7812 13.1782 48.4519 17.5915 54.5352 19.5739C49.2004 18.8309 41.9801 13.3485 39.7427 8.44195C39.6695 8.27967 39.3956 7.75466 39.5946 7.60511V7.60352Z" fill="#40495F"/>
<path d="M38.0159 6.12793C38.1895 6.22975 38.1035 6.41112 38.0653 6.57181C37.9666 6.98227 37.2261 8.39027 36.9808 8.83733C34.6861 13.0215 30.7702 16.3355 26.4785 18.3449C31.4263 15.3937 35.5269 11.3781 38.0159 6.12793Z" fill="#40495F"/>
<path d="M46.5449 10.9538C46.615 10.8949 46.7822 10.8663 46.7424 10.7072L45.7073 9.77169C45.9143 10.1965 46.2472 10.591 46.5449 10.9538C45.3219 11.9879 43.4205 9.59828 43.3887 8.44165C43.5814 8.09164 43.8139 8.68189 43.9317 8.68825C44.8585 8.74075 45.9382 7.9405 46.693 9.37714C46.6277 8.02801 46.8825 7.66686 47.6788 6.71706C47.7902 6.58501 48.104 6.69956 48.1231 6.66774C48.1645 6.59615 48.0785 6.21591 48.2218 5.97886C48.518 5.48725 49.6996 5.96136 50.3414 5.43634C50.5261 5.2852 50.7236 4.67109 50.6869 4.5995C50.429 4.09994 45.2407 2.65853 44.376 2.43262C46.8555 2.67762 50.0149 3.61788 52.0182 5.14201C52.0374 5.15633 52.5183 5.52862 52.2157 5.53657L50.9831 4.89542C52.4466 6.25409 50.6806 7.22139 50.5882 7.55549C50.5675 7.62709 50.9083 8.14574 50.7857 8.54029C50.6073 9.10986 49.5037 9.02235 49.0594 8.78689C49.827 10.3794 48.4129 10.9331 47.1851 10.0676C47.2695 10.3413 46.8395 10.6722 46.8395 10.7088C46.8395 11.4024 53.4005 16.0146 54.5312 16.3248C51.4163 15.4562 48.5913 13.4468 46.5433 10.9554L46.5449 10.9538Z" fill="#40495F"/>
<path d="M46.5447 10.9536C46.2469 10.5908 45.9125 10.1963 45.707 9.77148L46.7421 10.707C46.7819 10.8661 46.6147 10.8947 46.5447 10.9536Z" fill="#626F84"/>
<path d="M34.2206 44.1553C34.055 44.9317 33.4865 45.9483 32.8399 46.4208C32.6504 46.0946 32.3956 45.7287 32.1504 45.436C32.7826 44.9476 33.2938 44.1903 34.2206 44.1553Z" fill="#BFD1DF"/>
<path d="M15.1826 21.3974L15.0345 21.5947C13.3751 21.6185 11.7126 21.5628 10.0548 21.5947C10.0915 21.259 9.91311 20.5637 10.3017 20.4126C10.5628 20.3108 14.931 20.3744 15.0838 20.5605C15.1364 20.6242 15.224 21.3099 15.1826 21.3974Z" fill="#080C1B"/>
<path d="M28.4989 19.2301C29.2648 19.3192 29.2346 19.9779 29.5833 20.5109C29.8238 20.8768 29.5101 20.8911 30.077 21.0041C29.749 21.1361 29.9878 21.5482 30.1264 21.5959C31.0357 21.9093 34.3607 20.9834 34.7111 22.3341C34.8958 23.0468 34.4738 24.1192 35.0073 24.8955L34.7111 24.6983V37.5054C34.1824 38.5332 33.4944 38.2882 32.5421 38.3423C29.87 38.495 26.7758 38.4266 24.0623 38.4409C19.8151 38.4616 15.49 38.433 11.2429 38.3423C10.4291 38.3248 9.46093 38.4234 8.67903 38.3423C6.3811 38.1052 7.23466 36.0911 7.29836 34.3522L9.9116 34.7961C10.5645 35.9511 12.2127 37.2191 11.7859 34.7961L13.3147 34.7467C13.2924 33.8303 13.0169 32.9871 12.7223 32.136C12.6825 32.0214 12.6427 31.8655 12.6236 31.7414C12.9596 31.7716 14.0584 31.6953 14.0042 31.1989C13.9708 30.8855 10.547 26.9479 10.4053 26.0267C9.9753 25.866 6.72985 26.5151 6.11516 26.7156C6.04827 25.9265 6.19319 25.131 6.21389 24.3514C6.2744 21.9905 5.62309 21.7295 8.38283 21.5927C8.93701 21.5657 9.50393 21.6039 10.0597 21.5927C11.7175 21.5609 13.38 21.6166 15.0393 21.5927L15.1874 21.3954C15.1444 21.6914 15.4502 21.5864 15.6317 21.5927C16.1127 21.6086 18.5316 21.6818 18.788 21.5927C18.9648 21.5307 20.1241 19.3829 20.2674 19.3272C20.4633 19.2492 21.8631 19.3399 22.2389 19.3272C22.3121 19.3256 22.3742 19.1299 22.387 19.1299C22.5351 19.1267 22.4602 19.3288 22.5351 19.3272C24.1052 19.3017 27.1182 19.0679 28.5005 19.2286L28.4989 19.2301Z" fill="#14264F"/>
<path d="M21.0532 19.8213H28.4486C28.6429 19.8913 28.6509 21.3232 28.5967 21.4472C28.4439 21.7909 21.3606 21.8132 21.0532 21.5952C20.9816 21.5443 20.9338 19.869 21.0532 19.8213Z" fill="#486B90"/>
<path d="M10.2064 23.9582C10.388 23.8962 13.8786 23.8771 14.0522 23.9582L14.2003 24.4021C14.1143 24.5819 10.4628 24.636 10.2064 24.5501C9.92137 24.4546 9.915 24.0569 10.2064 23.9582Z" fill="white"/>
<path d="M8.13629 22.6799C9.61888 22.3935 9.33064 24.9279 7.93883 24.2565C7.24611 23.9224 7.47542 22.8072 8.13629 22.6799Z" fill="#EB5B54"/>
<path d="M23.4209 23.0731C32.7384 22.2936 33.514 35.9614 24.999 36.7665C15.5048 37.6654 14.6448 23.8066 23.4209 23.0731Z" fill="#486B90"/>
<path d="M23.8157 23.8624C31.7128 23.5283 32.3737 35.3062 24.8015 35.9807C16.449 36.7253 15.7579 24.2045 23.8157 23.8624Z" fill="#0F1931"/>
<path d="M23.4201 24.3556C31.6309 23.4742 32.0322 36.4055 23.2226 35.4875C17.0072 34.84 16.977 25.0477 23.4201 24.3556Z" fill="#14264F"/>
<path d="M23.3236 24.9458C30.9929 24.0373 31.1617 36.0029 23.2249 34.8956C17.7531 34.1319 17.7675 25.6044 23.3236 24.9458Z" fill="#0F1931"/>
<path d="M23.3214 25.5382C29.454 24.7428 30.4238 33.3387 25.097 34.306C18.7749 35.4531 17.7876 26.2558 23.3214 25.5382Z" fill="#A7D0E6"/>
<path d="M24.3061 26.4242C28.2762 26.5722 28.8447 32.8151 24.8985 33.4196C19.4635 34.2517 19.2294 26.2349 24.3061 26.4242Z" fill="#45ADD7"/>
<path d="M23.8152 28.8869C25.6513 28.4955 25.7755 31.0172 24.4076 31.251C22.8533 31.5167 22.3612 29.1971 23.8152 28.8869Z" fill="#2F8AC1"/>
</svg>
