<svg width="292" height="428" viewBox="0 0 292 428" fill="none" xmlns="http://www.w3.org/2000/svg">
<rect x="0.5" y="0.5" width="291" height="427" rx="4.5" stroke="#9747FF" stroke-dasharray="10 5"/>
<path d="M43.0489 22.9271C43.3483 22.0057 44.6517 22.0057 44.9511 22.9271L49.1638 35.8926C49.2977 36.3046 49.6817 36.5836 50.1149 36.5836H63.7477C64.7164 36.5836 65.1192 37.8232 64.3355 38.3926L53.3063 46.4058C52.9558 46.6604 52.8092 47.1118 52.943 47.5238L57.1558 60.4894C57.4551 61.4107 56.4007 62.1768 55.6169 61.6074L44.5878 53.5942C44.2373 53.3396 43.7627 53.3396 43.4122 53.5942L32.3831 61.6074C31.5993 62.1768 30.5449 61.4107 30.8442 60.4894L35.057 47.5238C35.1909 47.1118 35.0442 46.6604 34.6937 46.4058L23.6645 38.3926C22.8808 37.8232 23.2836 36.5836 24.2523 36.5836H37.8851C38.3183 36.5836 38.7023 36.3046 38.8362 35.8926L43.0489 22.9271Z" fill="#D1D1D1"/>
<path d="M94.0489 22.9271C94.3483 22.0057 95.6517 22.0057 95.9511 22.9271L100.164 35.8926C100.298 36.3046 100.682 36.5836 101.115 36.5836H114.748C115.716 36.5836 116.119 37.8232 115.335 38.3926L104.306 46.4058C103.956 46.6604 103.809 47.1118 103.943 47.5238L108.156 60.4894C108.455 61.4107 107.401 62.1768 106.617 61.6074L95.5878 53.5942C95.2373 53.3396 94.7627 53.3396 94.4122 53.5942L83.3831 61.6074C82.5993 62.1768 81.5449 61.4107 81.8442 60.4894L86.057 47.5238C86.1909 47.1118 86.0442 46.6604 85.6937 46.4058L74.6645 38.3926C73.8808 37.8232 74.2836 36.5836 75.2523 36.5836H88.8851C89.3183 36.5836 89.7023 36.3046 89.8362 35.8926L94.0489 22.9271Z" fill="#D1D1D1"/>
<path d="M145.049 22.9271C145.348 22.0057 146.652 22.0057 146.951 22.9271L151.164 35.8926C151.298 36.3046 151.682 36.5836 152.115 36.5836H165.748C166.716 36.5836 167.119 37.8232 166.335 38.3926L155.306 46.4058C154.956 46.6604 154.809 47.1118 154.943 47.5238L159.156 60.4894C159.455 61.4107 158.401 62.1768 157.617 61.6074L146.588 53.5942C146.237 53.3396 145.763 53.3396 145.412 53.5942L134.383 61.6074C133.599 62.1768 132.545 61.4107 132.844 60.4894L137.057 47.5238C137.191 47.1118 137.044 46.6604 136.694 46.4058L125.665 38.3926C124.881 37.8232 125.284 36.5836 126.252 36.5836H139.885C140.318 36.5836 140.702 36.3046 140.836 35.8926L145.049 22.9271Z" fill="#D1D1D1"/>
<path d="M196.049 22.9271C196.348 22.0057 197.652 22.0057 197.951 22.9271L202.164 35.8926C202.298 36.3046 202.682 36.5836 203.115 36.5836H216.748C217.716 36.5836 218.119 37.8232 217.335 38.3926L206.306 46.4058C205.956 46.6604 205.809 47.1118 205.943 47.5238L210.156 60.4894C210.455 61.4107 209.401 62.1768 208.617 61.6074L197.588 53.5942C197.237 53.3396 196.763 53.3396 196.412 53.5942L185.383 61.6074C184.599 62.1768 183.545 61.4107 183.844 60.4894L188.057 47.5238C188.191 47.1118 188.044 46.6604 187.694 46.4058L176.665 38.3926C175.881 37.8232 176.284 36.5836 177.252 36.5836H190.885C191.318 36.5836 191.702 36.3046 191.836 35.8926L196.049 22.9271Z" fill="#D1D1D1"/>
<path d="M247.049 22.9271C247.348 22.0057 248.652 22.0057 248.951 22.9271L253.164 35.8926C253.298 36.3046 253.682 36.5836 254.115 36.5836H267.748C268.716 36.5836 269.119 37.8232 268.335 38.3926L257.306 46.4058C256.956 46.6604 256.809 47.1118 256.943 47.5238L261.156 60.4894C261.455 61.4107 260.401 62.1768 259.617 61.6074L248.588 53.5942C248.237 53.3396 247.763 53.3396 247.412 53.5942L236.383 61.6074C235.599 62.1768 234.545 61.4107 234.844 60.4894L239.057 47.5238C239.191 47.1118 239.044 46.6604 238.694 46.4058L227.665 38.3926C226.881 37.8232 227.284 36.5836 228.252 36.5836H241.885C242.318 36.5836 242.702 36.3046 242.836 35.8926L247.049 22.9271Z" fill="#D1D1D1"/>
<path d="M43.0489 90.9271C43.3483 90.0057 44.6517 90.0057 44.9511 90.9271L49.1638 103.893C49.2977 104.305 49.6817 104.584 50.1149 104.584H63.7477C64.7164 104.584 65.1192 105.823 64.3355 106.393L53.3063 114.406C52.9558 114.66 52.8092 115.112 52.943 115.524L57.1558 128.489C57.4551 129.411 56.4007 130.177 55.6169 129.607L44.5878 121.594C44.2373 121.34 43.7627 121.34 43.4122 121.594L32.3831 129.607C31.5993 130.177 30.5449 129.411 30.8442 128.489L35.057 115.524C35.1909 115.112 35.0442 114.66 34.6937 114.406L23.6645 106.393C22.8808 105.823 23.2836 104.584 24.2523 104.584H37.8851C38.3183 104.584 38.7023 104.305 38.8362 103.893L43.0489 90.9271Z" fill="#FFCE4F"/>
<path d="M94.0489 90.9271C94.3483 90.0057 95.6517 90.0057 95.9511 90.9271L100.164 103.893C100.298 104.305 100.682 104.584 101.115 104.584H114.748C115.716 104.584 116.119 105.823 115.335 106.393L104.306 114.406C103.956 114.66 103.809 115.112 103.943 115.524L108.156 128.489C108.455 129.411 107.401 130.177 106.617 129.607L95.5878 121.594C95.2373 121.34 94.7627 121.34 94.4122 121.594L83.3831 129.607C82.5993 130.177 81.5449 129.411 81.8442 128.489L86.057 115.524C86.1909 115.112 86.0442 114.66 85.6937 114.406L74.6645 106.393C73.8808 105.823 74.2836 104.584 75.2523 104.584H88.8851C89.3183 104.584 89.7023 104.305 89.8362 103.893L94.0489 90.9271Z" fill="#D1D1D1"/>
<path d="M145.049 90.9271C145.348 90.0057 146.652 90.0057 146.951 90.9271L151.164 103.893C151.298 104.305 151.682 104.584 152.115 104.584H165.748C166.716 104.584 167.119 105.823 166.335 106.393L155.306 114.406C154.956 114.66 154.809 115.112 154.943 115.524L159.156 128.489C159.455 129.411 158.401 130.177 157.617 129.607L146.588 121.594C146.237 121.34 145.763 121.34 145.412 121.594L134.383 129.607C133.599 130.177 132.545 129.411 132.844 128.489L137.057 115.524C137.191 115.112 137.044 114.66 136.694 114.406L125.665 106.393C124.881 105.823 125.284 104.584 126.252 104.584H139.885C140.318 104.584 140.702 104.305 140.836 103.893L145.049 90.9271Z" fill="#D1D1D1"/>
<path d="M196.049 90.9271C196.348 90.0057 197.652 90.0057 197.951 90.9271L202.164 103.893C202.298 104.305 202.682 104.584 203.115 104.584H216.748C217.716 104.584 218.119 105.823 217.335 106.393L206.306 114.406C205.956 114.66 205.809 115.112 205.943 115.524L210.156 128.489C210.455 129.411 209.401 130.177 208.617 129.607L197.588 121.594C197.237 121.34 196.763 121.34 196.412 121.594L185.383 129.607C184.599 130.177 183.545 129.411 183.844 128.489L188.057 115.524C188.191 115.112 188.044 114.66 187.694 114.406L176.665 106.393C175.881 105.823 176.284 104.584 177.252 104.584H190.885C191.318 104.584 191.702 104.305 191.836 103.893L196.049 90.9271Z" fill="#D1D1D1"/>
<path d="M247.049 90.9271C247.348 90.0057 248.652 90.0057 248.951 90.9271L253.164 103.893C253.298 104.305 253.682 104.584 254.115 104.584H267.748C268.716 104.584 269.119 105.823 268.335 106.393L257.306 114.406C256.956 114.66 256.809 115.112 256.943 115.524L261.156 128.489C261.455 129.411 260.401 130.177 259.617 129.607L248.588 121.594C248.237 121.34 247.763 121.34 247.412 121.594L236.383 129.607C235.599 130.177 234.545 129.411 234.844 128.489L239.057 115.524C239.191 115.112 239.044 114.66 238.694 114.406L227.665 106.393C226.881 105.823 227.284 104.584 228.252 104.584H241.885C242.318 104.584 242.702 104.305 242.836 103.893L247.049 90.9271Z" fill="#D1D1D1"/>
<path d="M43.0489 158.927C43.3483 158.006 44.6517 158.006 44.9511 158.927L49.1638 171.893C49.2977 172.305 49.6817 172.584 50.1149 172.584H63.7477C64.7164 172.584 65.1192 173.823 64.3355 174.393L53.3063 182.406C52.9558 182.66 52.8092 183.112 52.943 183.524L57.1558 196.489C57.4551 197.411 56.4007 198.177 55.6169 197.607L44.5878 189.594C44.2373 189.34 43.7627 189.34 43.4122 189.594L32.3831 197.607C31.5993 198.177 30.5449 197.411 30.8442 196.489L35.057 183.524C35.1909 183.112 35.0442 182.66 34.6937 182.406L23.6645 174.393C22.8808 173.823 23.2836 172.584 24.2523 172.584H37.8851C38.3183 172.584 38.7023 172.305 38.8362 171.893L43.0489 158.927Z" fill="#FFCE4F"/>
<path d="M94.0489 158.927C94.3483 158.006 95.6517 158.006 95.9511 158.927L100.164 171.893C100.298 172.305 100.682 172.584 101.115 172.584H114.748C115.716 172.584 116.119 173.823 115.335 174.393L104.306 182.406C103.956 182.66 103.809 183.112 103.943 183.524L108.156 196.489C108.455 197.411 107.401 198.177 106.617 197.607L95.5878 189.594C95.2373 189.34 94.7627 189.34 94.4122 189.594L83.3831 197.607C82.5993 198.177 81.5449 197.411 81.8442 196.489L86.057 183.524C86.1909 183.112 86.0442 182.66 85.6937 182.406L74.6645 174.393C73.8808 173.823 74.2836 172.584 75.2523 172.584H88.8851C89.3183 172.584 89.7023 172.305 89.8362 171.893L94.0489 158.927Z" fill="#FFCE4F"/>
<path d="M145.049 158.927C145.348 158.006 146.652 158.006 146.951 158.927L151.164 171.893C151.298 172.305 151.682 172.584 152.115 172.584H165.748C166.716 172.584 167.119 173.823 166.335 174.393L155.306 182.406C154.956 182.66 154.809 183.112 154.943 183.524L159.156 196.489C159.455 197.411 158.401 198.177 157.617 197.607L146.588 189.594C146.237 189.34 145.763 189.34 145.412 189.594L134.383 197.607C133.599 198.177 132.545 197.411 132.844 196.489L137.057 183.524C137.191 183.112 137.044 182.66 136.694 182.406L125.665 174.393C124.881 173.823 125.284 172.584 126.252 172.584H139.885C140.318 172.584 140.702 172.305 140.836 171.893L145.049 158.927Z" fill="#D1D1D1"/>
<path d="M196.049 158.927C196.348 158.006 197.652 158.006 197.951 158.927L202.164 171.893C202.298 172.305 202.682 172.584 203.115 172.584H216.748C217.716 172.584 218.119 173.823 217.335 174.393L206.306 182.406C205.956 182.66 205.809 183.112 205.943 183.524L210.156 196.489C210.455 197.411 209.401 198.177 208.617 197.607L197.588 189.594C197.237 189.34 196.763 189.34 196.412 189.594L185.383 197.607C184.599 198.177 183.545 197.411 183.844 196.489L188.057 183.524C188.191 183.112 188.044 182.66 187.694 182.406L176.665 174.393C175.881 173.823 176.284 172.584 177.252 172.584H190.885C191.318 172.584 191.702 172.305 191.836 171.893L196.049 158.927Z" fill="#D1D1D1"/>
<path d="M247.049 158.927C247.348 158.006 248.652 158.006 248.951 158.927L253.164 171.893C253.298 172.305 253.682 172.584 254.115 172.584H267.748C268.716 172.584 269.119 173.823 268.335 174.393L257.306 182.406C256.956 182.66 256.809 183.112 256.943 183.524L261.156 196.489C261.455 197.411 260.401 198.177 259.617 197.607L248.588 189.594C248.237 189.34 247.763 189.34 247.412 189.594L236.383 197.607C235.599 198.177 234.545 197.411 234.844 196.489L239.057 183.524C239.191 183.112 239.044 182.66 238.694 182.406L227.665 174.393C226.881 173.823 227.284 172.584 228.252 172.584H241.885C242.318 172.584 242.702 172.305 242.836 171.893L247.049 158.927Z" fill="#D1D1D1"/>
<path d="M43.0489 226.927C43.3483 226.006 44.6517 226.006 44.9511 226.927L49.1638 239.893C49.2977 240.305 49.6817 240.584 50.1149 240.584H63.7477C64.7164 240.584 65.1192 241.823 64.3355 242.393L53.3063 250.406C52.9558 250.66 52.8092 251.112 52.943 251.524L57.1558 264.489C57.4551 265.411 56.4007 266.177 55.6169 265.607L44.5878 257.594C44.2373 257.34 43.7627 257.34 43.4122 257.594L32.3831 265.607C31.5993 266.177 30.5449 265.411 30.8442 264.489L35.057 251.524C35.1909 251.112 35.0442 250.66 34.6937 250.406L23.6645 242.393C22.8808 241.823 23.2836 240.584 24.2523 240.584H37.8851C38.3183 240.584 38.7023 240.305 38.8362 239.893L43.0489 226.927Z" fill="#FFCE4F"/>
<path d="M94.0489 226.927C94.3483 226.006 95.6517 226.006 95.9511 226.927L100.164 239.893C100.298 240.305 100.682 240.584 101.115 240.584H114.748C115.716 240.584 116.119 241.823 115.335 242.393L104.306 250.406C103.956 250.66 103.809 251.112 103.943 251.524L108.156 264.489C108.455 265.411 107.401 266.177 106.617 265.607L95.5878 257.594C95.2373 257.34 94.7627 257.34 94.4122 257.594L83.3831 265.607C82.5993 266.177 81.5449 265.411 81.8442 264.489L86.057 251.524C86.1909 251.112 86.0442 250.66 85.6937 250.406L74.6645 242.393C73.8808 241.823 74.2836 240.584 75.2523 240.584H88.8851C89.3183 240.584 89.7023 240.305 89.8362 239.893L94.0489 226.927Z" fill="#FFCE4F"/>
<path d="M145.049 226.927C145.348 226.006 146.652 226.006 146.951 226.927L151.164 239.893C151.298 240.305 151.682 240.584 152.115 240.584H165.748C166.716 240.584 167.119 241.823 166.335 242.393L155.306 250.406C154.956 250.66 154.809 251.112 154.943 251.524L159.156 264.489C159.455 265.411 158.401 266.177 157.617 265.607L146.588 257.594C146.237 257.34 145.763 257.34 145.412 257.594L134.383 265.607C133.599 266.177 132.545 265.411 132.844 264.489L137.057 251.524C137.191 251.112 137.044 250.66 136.694 250.406L125.665 242.393C124.881 241.823 125.284 240.584 126.252 240.584H139.885C140.318 240.584 140.702 240.305 140.836 239.893L145.049 226.927Z" fill="#FFCE4F"/>
<path d="M196.049 226.927C196.348 226.006 197.652 226.006 197.951 226.927L202.164 239.893C202.298 240.305 202.682 240.584 203.115 240.584H216.748C217.716 240.584 218.119 241.823 217.335 242.393L206.306 250.406C205.956 250.66 205.809 251.112 205.943 251.524L210.156 264.489C210.455 265.411 209.401 266.177 208.617 265.607L197.588 257.594C197.237 257.34 196.763 257.34 196.412 257.594L185.383 265.607C184.599 266.177 183.545 265.411 183.844 264.489L188.057 251.524C188.191 251.112 188.044 250.66 187.694 250.406L176.665 242.393C175.881 241.823 176.284 240.584 177.252 240.584H190.885C191.318 240.584 191.702 240.305 191.836 239.893L196.049 226.927Z" fill="#D1D1D1"/>
<path d="M247.049 226.927C247.348 226.006 248.652 226.006 248.951 226.927L253.164 239.893C253.298 240.305 253.682 240.584 254.115 240.584H267.748C268.716 240.584 269.119 241.823 268.335 242.393L257.306 250.406C256.956 250.66 256.809 251.112 256.943 251.524L261.156 264.489C261.455 265.411 260.401 266.177 259.617 265.607L248.588 257.594C248.237 257.34 247.763 257.34 247.412 257.594L236.383 265.607C235.599 266.177 234.545 265.411 234.844 264.489L239.057 251.524C239.191 251.112 239.044 250.66 238.694 250.406L227.665 242.393C226.881 241.823 227.284 240.584 228.252 240.584H241.885C242.318 240.584 242.702 240.305 242.836 239.893L247.049 226.927Z" fill="#D1D1D1"/>
<path d="M43.0489 294.927C43.3483 294.006 44.6517 294.006 44.9511 294.927L49.1638 307.893C49.2977 308.305 49.6817 308.584 50.1149 308.584H63.7477C64.7164 308.584 65.1192 309.823 64.3355 310.393L53.3063 318.406C52.9558 318.66 52.8092 319.112 52.943 319.524L57.1558 332.489C57.4551 333.411 56.4007 334.177 55.6169 333.607L44.5878 325.594C44.2373 325.34 43.7627 325.34 43.4122 325.594L32.3831 333.607C31.5993 334.177 30.5449 333.411 30.8442 332.489L35.057 319.524C35.1909 319.112 35.0442 318.66 34.6937 318.406L23.6645 310.393C22.8808 309.823 23.2836 308.584 24.2523 308.584H37.8851C38.3183 308.584 38.7023 308.305 38.8362 307.893L43.0489 294.927Z" fill="#FFCE4F"/>
<path d="M94.0489 294.927C94.3483 294.006 95.6517 294.006 95.9511 294.927L100.164 307.893C100.298 308.305 100.682 308.584 101.115 308.584H114.748C115.716 308.584 116.119 309.823 115.335 310.393L104.306 318.406C103.956 318.66 103.809 319.112 103.943 319.524L108.156 332.489C108.455 333.411 107.401 334.177 106.617 333.607L95.5878 325.594C95.2373 325.34 94.7627 325.34 94.4122 325.594L83.3831 333.607C82.5993 334.177 81.5449 333.411 81.8442 332.489L86.057 319.524C86.1909 319.112 86.0442 318.66 85.6937 318.406L74.6645 310.393C73.8808 309.823 74.2836 308.584 75.2523 308.584H88.8851C89.3183 308.584 89.7023 308.305 89.8362 307.893L94.0489 294.927Z" fill="#FFCE4F"/>
<path d="M145.049 294.927C145.348 294.006 146.652 294.006 146.951 294.927L151.164 307.893C151.298 308.305 151.682 308.584 152.115 308.584H165.748C166.716 308.584 167.119 309.823 166.335 310.393L155.306 318.406C154.956 318.66 154.809 319.112 154.943 319.524L159.156 332.489C159.455 333.411 158.401 334.177 157.617 333.607L146.588 325.594C146.237 325.34 145.763 325.34 145.412 325.594L134.383 333.607C133.599 334.177 132.545 333.411 132.844 332.489L137.057 319.524C137.191 319.112 137.044 318.66 136.694 318.406L125.665 310.393C124.881 309.823 125.284 308.584 126.252 308.584H139.885C140.318 308.584 140.702 308.305 140.836 307.893L145.049 294.927Z" fill="#FFCE4F"/>
<path d="M196.049 294.927C196.348 294.006 197.652 294.006 197.951 294.927L202.164 307.893C202.298 308.305 202.682 308.584 203.115 308.584H216.748C217.716 308.584 218.119 309.823 217.335 310.393L206.306 318.406C205.956 318.66 205.809 319.112 205.943 319.524L210.156 332.489C210.455 333.411 209.401 334.177 208.617 333.607L197.588 325.594C197.237 325.34 196.763 325.34 196.412 325.594L185.383 333.607C184.599 334.177 183.545 333.411 183.844 332.489L188.057 319.524C188.191 319.112 188.044 318.66 187.694 318.406L176.665 310.393C175.881 309.823 176.284 308.584 177.252 308.584H190.885C191.318 308.584 191.702 308.305 191.836 307.893L196.049 294.927Z" fill="#FFCE4F"/>
<path d="M247.049 294.927C247.348 294.006 248.652 294.006 248.951 294.927L253.164 307.893C253.298 308.305 253.682 308.584 254.115 308.584H267.748C268.716 308.584 269.119 309.823 268.335 310.393L257.306 318.406C256.956 318.66 256.809 319.112 256.943 319.524L261.156 332.489C261.455 333.411 260.401 334.177 259.617 333.607L248.588 325.594C248.237 325.34 247.763 325.34 247.412 325.594L236.383 333.607C235.599 334.177 234.545 333.411 234.844 332.489L239.057 319.524C239.191 319.112 239.044 318.66 238.694 318.406L227.665 310.393C226.881 309.823 227.284 308.584 228.252 308.584H241.885C242.318 308.584 242.702 308.305 242.836 307.893L247.049 294.927Z" fill="#D1D1D1"/>
<path d="M43.0489 362.927C43.3483 362.006 44.6517 362.006 44.9511 362.927L49.1638 375.893C49.2977 376.305 49.6817 376.584 50.1149 376.584H63.7477C64.7164 376.584 65.1192 377.823 64.3355 378.393L53.3063 386.406C52.9558 386.66 52.8092 387.112 52.943 387.524L57.1558 400.489C57.4551 401.411 56.4007 402.177 55.6169 401.607L44.5878 393.594C44.2373 393.34 43.7627 393.34 43.4122 393.594L32.3831 401.607C31.5993 402.177 30.5449 401.411 30.8442 400.489L35.057 387.524C35.1909 387.112 35.0442 386.66 34.6937 386.406L23.6645 378.393C22.8808 377.823 23.2836 376.584 24.2523 376.584H37.8851C38.3183 376.584 38.7023 376.305 38.8362 375.893L43.0489 362.927Z" fill="#FFCE4F"/>
<path d="M94.0489 362.927C94.3483 362.006 95.6517 362.006 95.9511 362.927L100.164 375.893C100.298 376.305 100.682 376.584 101.115 376.584H114.748C115.716 376.584 116.119 377.823 115.335 378.393L104.306 386.406C103.956 386.66 103.809 387.112 103.943 387.524L108.156 400.489C108.455 401.411 107.401 402.177 106.617 401.607L95.5878 393.594C95.2373 393.34 94.7627 393.34 94.4122 393.594L83.3831 401.607C82.5993 402.177 81.5449 401.411 81.8442 400.489L86.057 387.524C86.1909 387.112 86.0442 386.66 85.6937 386.406L74.6645 378.393C73.8808 377.823 74.2836 376.584 75.2523 376.584H88.8851C89.3183 376.584 89.7023 376.305 89.8362 375.893L94.0489 362.927Z" fill="#FFCE4F"/>
<path d="M145.049 362.927C145.348 362.006 146.652 362.006 146.951 362.927L151.164 375.893C151.298 376.305 151.682 376.584 152.115 376.584H165.748C166.716 376.584 167.119 377.823 166.335 378.393L155.306 386.406C154.956 386.66 154.809 387.112 154.943 387.524L159.156 400.489C159.455 401.411 158.401 402.177 157.617 401.607L146.588 393.594C146.237 393.34 145.763 393.34 145.412 393.594L134.383 401.607C133.599 402.177 132.545 401.411 132.844 400.489L137.057 387.524C137.191 387.112 137.044 386.66 136.694 386.406L125.665 378.393C124.881 377.823 125.284 376.584 126.252 376.584H139.885C140.318 376.584 140.702 376.305 140.836 375.893L145.049 362.927Z" fill="#FFCE4F"/>
<path d="M196.049 362.927C196.348 362.006 197.652 362.006 197.951 362.927L202.164 375.893C202.298 376.305 202.682 376.584 203.115 376.584H216.748C217.716 376.584 218.119 377.823 217.335 378.393L206.306 386.406C205.956 386.66 205.809 387.112 205.943 387.524L210.156 400.489C210.455 401.411 209.401 402.177 208.617 401.607L197.588 393.594C197.237 393.34 196.763 393.34 196.412 393.594L185.383 401.607C184.599 402.177 183.545 401.411 183.844 400.489L188.057 387.524C188.191 387.112 188.044 386.66 187.694 386.406L176.665 378.393C175.881 377.823 176.284 376.584 177.252 376.584H190.885C191.318 376.584 191.702 376.305 191.836 375.893L196.049 362.927Z" fill="#FFCE4F"/>
<path d="M247.049 362.927C247.348 362.006 248.652 362.006 248.951 362.927L253.164 375.893C253.298 376.305 253.682 376.584 254.115 376.584H267.748C268.716 376.584 269.119 377.823 268.335 378.393L257.306 386.406C256.956 386.66 256.809 387.112 256.943 387.524L261.156 400.489C261.455 401.411 260.401 402.177 259.617 401.607L248.588 393.594C248.237 393.34 247.763 393.34 247.412 393.594L236.383 401.607C235.599 402.177 234.545 401.411 234.844 400.489L239.057 387.524C239.191 387.112 239.044 386.66 238.694 386.406L227.665 378.393C226.881 377.823 227.284 376.584 228.252 376.584H241.885C242.318 376.584 242.702 376.305 242.836 375.893L247.049 362.927Z" fill="#FFCE4F"/>
</svg>
