<svg xmlns="http://www.w3.org/2000/svg" viewBox="0 0 24 24" fill="white">
  <path d="M12 2C6.48 2 2 6.48 2 12C2 17.52 6.48 22 12 22C17.52 22 22 17.52 22 12C22 6.48 17.52 2 12 2ZM16.64 15.85C16.46 16.32 15.62 16.78 15.08 16.88C14.54 16.98 13.86 17.03 13.12 16.78C12.67 16.63 12.06 16.43 11.26 16.03C9.32 15.02 8.07 13.11 7.97 12.96C7.87 12.81 6.87 11.49 6.87 10.12C6.87 8.75 7.57 8.09 7.82 7.82C8.07 7.55 8.37 7.47 8.57 7.47C8.77 7.47 8.97 7.47 9.14 7.48C9.32 7.49 9.57 7.41 9.82 8.02C10.07 8.63 10.67 10 10.72 10.1C10.77 10.2 10.82 10.33 10.74 10.48C10.67 10.63 10.62 10.71 10.52 10.83C10.42 10.95 10.31 11.1 10.22 11.19C10.12 11.28 10.02 11.38 10.14 11.61C10.26 11.84 10.87 12.82 11.77 13.63C12.91 14.65 13.88 14.99 14.11 15.09C14.34 15.19 14.47 15.16 14.59 15.02C14.71 14.88 15.29 14.2 15.44 13.97C15.59 13.74 15.74 13.77 15.94 13.84C16.14 13.91 17.52 14.59 17.74 14.69C17.96 14.79 18.11 14.84 18.16 14.94C18.21 15.04 18.21 15.46 18.03 15.93L16.64 15.85Z"/>
</svg> 