<svg width="397" height="397" viewBox="0 0 397 397" fill="none" xmlns="http://www.w3.org/2000/svg">
<g opacity="0.5">
<path d="M180.189 331.59C176.567 338.175 201.453 344.211 214.349 346.406H370.742L238.218 323.77C220.384 323.633 183.811 325.005 180.189 331.59Z" fill="#50128C"/>
<path d="M184.303 292.081L168.664 311.424H188.008L204.058 292.081H184.303Z" fill="#50128C"/>
<path d="M193.769 285.084H211.467L238.218 287.965L217.229 292.081L193.769 285.084Z" fill="#50128C"/>
<path d="M202.001 311.424L214.349 305.662L230.81 311.424H202.001Z" fill="#50128C"/>
</g>
<path d="M259.663 340.904C260.909 343.245 261.866 343.955 259.837 346.448H223.458C221.544 344.317 222.211 343.049 223.979 341.252C235.857 340.556 247.771 340.955 259.663 340.904Z" fill="#86462D"/>
<path d="M352.85 233.516C354.278 235.647 348.538 235.016 347.654 234.552C347.473 233.052 351.734 233.349 352.85 233.516Z" fill="#F0E6E0"/>
<path d="M275.934 233.864C276.268 235.386 271.318 235.038 270.912 234.901C270.311 234.705 270.449 233.872 270.391 233.864C272.065 232.886 274.413 233.864 275.934 233.864Z" fill="#F0E6E0"/>
<path d="M281.833 227.28C282.064 227.28 281.869 227.939 284.26 227.975C284.731 227.975 285.195 227.975 285.644 227.975C286.463 227.983 287.282 227.968 288.072 227.975C288.543 227.975 289.007 227.975 289.456 227.975C296.131 228.055 302.856 228.258 309.552 228.323C312.545 228.352 315.559 228.323 318.559 228.323C319.48 228.323 320.407 228.323 321.328 228.323C324.212 228.316 327.103 228.345 329.988 228.323C336.698 228.273 343.38 228.12 350.083 227.975C350.641 227.961 351.214 227.99 351.815 227.975C351.924 227.975 353.069 228.345 353.895 228.323C354.583 228.302 355.286 228.345 355.975 228.323C358.221 228.244 357.591 227.635 357.707 227.628C362.258 227.425 370.86 225.512 372.947 230.396C374.99 240.527 372.135 254.97 373.295 265.557C373.7 266.478 379.447 266.202 380.57 268.847C380.454 268.594 375.172 268.76 375.027 269.369C376.215 271.268 378.78 270.572 380.57 270.065C380.498 269.717 380.679 269.079 380.57 268.855C381.208 270.362 381.273 296.697 380.918 299.683C379.078 299.958 376.186 299.306 374.512 299.683C373.353 299.944 373.374 300.69 373.302 300.719C371.526 299.291 368.439 300.69 366.374 300.719C366.338 300.719 366.483 300.023 366.2 300.023C364.881 300.045 365.388 300.712 365.33 300.719C365.004 300.733 364.961 300.364 364.635 300.371C365.323 299.371 364.403 299.697 363.765 299.675C360.859 299.588 359.446 300.088 357.011 300.371C355.67 300.523 352.627 299.777 352.511 301.067C352.047 300.871 352.373 300.001 350.953 299.683C348.271 299.081 345.133 300.197 342.814 300.378C340.872 300.523 336.321 299.523 335.539 301.415C334.879 301.168 335.705 300.842 334.502 300.378C330.335 298.777 325.922 296.922 324.11 292.414C325.132 292.718 325.198 294.733 326.19 293.624C323.168 289.595 322.987 283.573 324.806 279.073C324.335 278.841 323.973 278.558 323.422 278.551C323.031 275.268 331.959 271.674 332.082 271.101C332.234 270.413 331.096 269.768 330.35 269.891C327.669 270.094 322.11 273.391 321.342 276.297C321.299 276.449 322.031 276.007 321.69 277.507C316.711 284.001 317.422 292.016 322.386 299.161C331.973 312.973 351.996 306.292 366.381 307.299C366.954 310.082 367.628 307.676 367.765 307.647C369.649 307.198 371.403 307.263 373.309 307.299C372.541 319.126 373.882 331.757 373.309 343.671C372.867 344.801 372.135 345.635 371.229 346.439L214.821 347.135C212.944 345.903 212.785 343.874 212.22 341.939C212.973 341.258 212.039 341.12 213.43 340.902C216.307 340.453 221.01 340.96 223.996 341.25C222.228 343.055 221.568 344.316 223.474 346.446H259.846C261.875 343.953 260.918 343.25 259.672 340.902C291.29 340.765 322.85 341.613 354.417 341.25C356.018 341.229 365.577 341.105 366.193 340.902C366.859 340.685 366.809 340.084 366.367 339.518C365.598 338.533 363.743 338.794 362.555 338.823C358.975 338.917 361.272 339.671 360.127 340.207C360.258 339.873 359.946 338.881 359.779 338.823C357.062 338.823 350.887 337.895 348.518 338.475C347.481 338.728 347.8 339.7 347.308 339.859C347.423 339.613 347.01 338.837 346.96 338.823C345.684 338.424 343.199 338.163 341.938 338.475C340.901 338.728 341.22 339.7 340.727 339.859C340.843 339.613 340.43 338.837 340.38 338.823H329.64C328.937 338.931 328.524 339.011 328.603 339.859C328.089 339.598 328.422 338.757 327.393 338.475C326.828 338.315 316.175 338.286 315.617 338.475C314.269 338.924 315.081 339.91 314.407 340.207C314.479 337.272 309.842 339.41 309.211 339.511C308.327 339.656 308.124 339.808 307.827 339.859C307.885 339.518 307.689 339.047 307.479 338.823C306.479 337.757 303.232 338.917 302.109 338.823C296.732 338.373 294.428 337.663 288.775 338.475L271.977 338.127C255.875 305.473 241.461 271.253 232.315 235.759L365.512 235.585C366.019 238.433 365.28 241.223 365.338 244.071C365.338 244.411 366.374 244.65 366.374 244.766C366.439 247.071 364.098 250.919 366.548 253.252C367.867 253.615 367.28 252.433 367.417 252.216C367.664 251.817 367.758 251.89 367.765 251.868C368.983 248.578 368.635 248.093 367.417 244.592C368.084 242.991 367.671 241.092 367.765 239.396C367.859 237.548 368.628 235.585 367.765 233.679C367.033 233.106 365.098 233.541 364.301 233.505C362.997 233.447 362.105 233.606 360.837 233.853C360.547 233.911 360.468 233.418 359.968 233.505C359.678 233.555 360.011 234.085 359.446 234.2C358.808 233.128 354.199 232.932 354.25 234.548C353.569 234.396 354.562 233.751 352.866 233.512C351.75 233.353 347.489 233.055 347.67 234.548C346.779 234.092 348.155 233.7 346.286 233.512C344.778 233.36 342.546 233.367 341.09 233.86C340.633 233.773 340.278 233.592 339.706 233.512C337.959 233.28 336.227 233.599 334.51 233.86C333.488 234.012 333.785 234.15 333.473 234.208C332.836 233.135 328.227 232.94 328.277 234.556C327.596 234.403 328.589 233.758 326.893 233.519C325.321 233.295 323.596 233.534 322.045 233.867C321.763 233.925 321.676 233.432 321.176 233.519C320.886 233.57 321.219 234.106 320.654 234.215C320.248 233.048 315.262 233.026 315.458 234.563C315.139 234.512 315.4 234.36 314.421 234.215C314.378 234.215 314.19 233.57 313.9 233.519C312.226 233.244 310.515 233.664 308.878 233.867C308.841 233.867 309.001 233.295 308.704 233.171C308.233 233.432 308.312 233.983 307.834 234.208C307.146 233.026 304.464 233.548 302.986 233.512C302.312 233.498 301.935 233.49 301.254 233.512C299.812 233.556 296.442 232.882 296.406 234.548C295.717 234.396 296.718 233.758 295.022 233.512C293.616 233.309 291.217 233.411 289.826 233.86C289.369 233.773 289.014 233.592 288.442 233.512C287.007 233.324 284.652 233.396 283.246 233.86C282.796 233.773 282.427 233.592 281.862 233.512C280.151 233.28 278.376 233.867 277.013 233.86C276.658 233.86 276.332 233.86 275.977 233.86C274.455 233.86 272.107 232.882 270.433 233.86C269.912 233.737 270.086 233.621 269.049 233.512C267.81 233.382 264.708 233.164 264.201 234.208C263.947 234.157 264.027 234.041 263.165 233.86C261.404 233.498 259.143 232.961 257.621 234.208C257.578 234.193 257.853 233.389 257.099 233.512C256.831 233.556 257.143 233.969 256.577 234.208C255.853 232.997 252.766 233.418 251.381 233.86C251.266 233.795 250.708 232.976 250.171 232.824L231.808 233.171V227.28C248.483 227.468 265.208 227.033 281.869 227.28H281.833Z" fill="#86462D"/>
<path d="M366.536 317.351C368.065 316.061 368.203 322.801 367.232 323.583C365.87 323.946 366.29 317.561 366.536 317.351Z" fill="#F0E6E0"/>
<path d="M366.882 260.878C368.165 260.537 368.056 266.277 367.23 267.11C365.875 267.472 366.136 261.074 366.882 260.878Z" fill="#F0E6E0"/>
<path d="M354.419 268.857C354.854 268.683 363.34 268.683 363.775 268.857C369.645 271.241 348.702 271.19 354.419 268.857Z" fill="#F0E6E0"/>
<path d="M338.482 268.859C339.018 268.859 345.953 269.099 342.294 270.591C341.866 270.765 333.192 270.867 333.112 270.417C332.88 269.091 337.424 268.867 338.482 268.859Z" fill="#F0E6E0"/>
<path d="M345.229 287.915C342.395 288.045 334.076 286.734 331.895 287.219C330.677 287.495 333.177 289.292 331.025 289.647C329.373 286.183 329.554 283.531 331.721 280.291C332.554 280.502 332.88 279.987 333.453 279.596C337.888 279.219 344.895 283.089 345.229 287.908V287.915Z" fill="#FEEA8E"/>
<path d="M345.231 287.92C345.405 290.413 343.854 290.311 343.325 292.42L346.963 289.304C343.869 296.014 334.143 296.181 331.027 289.652C333.172 289.297 330.679 287.499 331.897 287.224C334.078 286.738 342.405 288.043 345.231 287.92Z" fill="#FEEA8E"/>
<path d="M347.308 288.612C344.924 290.097 346.678 285.902 346.272 284.974C346.171 284.735 342.96 281.575 342.634 281.336C341.033 280.14 337.532 278.553 335.532 278.568C339.54 276.278 343.098 279.437 345.924 281.858C345.504 281.293 342.859 277.995 342.634 277.872C342.054 277.568 337.735 277.778 336.916 276.488C344.272 274.901 349.591 281.582 347.308 288.612Z" fill="#FEEA8E"/>
<path d="M335.528 278.557C337.528 278.542 341.028 280.129 342.63 281.325C342.956 281.564 346.166 284.724 346.268 284.963C346.674 285.891 344.927 290.086 347.304 288.601C347.13 289.137 347.014 289.173 346.956 289.297L343.318 292.413C343.847 290.297 345.398 290.405 345.224 287.912C344.891 283.093 337.883 279.223 333.448 279.6C334.296 279.028 333.571 278.571 335.528 278.564V278.557Z" fill="#FDF5CD"/>
<path d="M336.915 276.49C337.734 277.78 342.053 277.57 342.632 277.874C342.864 277.998 345.502 281.295 345.923 281.86C343.096 279.44 339.538 276.28 335.531 278.57C333.574 278.585 334.299 279.034 333.451 279.606C332.878 279.998 332.552 280.505 331.719 280.302C332.965 278.44 334.69 276.976 336.915 276.49Z" fill="#E0B548"/>
<path d="M349.218 268.856C349.848 268.87 354.638 269.363 351.645 270.588C348.007 272.073 338.978 268.617 349.218 268.856Z" fill="#F0E6E0"/>
<path d="M330.335 269.891C328.292 270.217 323.067 275.695 321.675 277.514C322.023 276.014 321.291 276.456 321.327 276.304C322.096 273.398 327.654 270.101 330.335 269.898V269.891Z" fill="#5C2D1C"/>
<path d="M366.195 268.856C366.956 268.979 375.173 268.247 373.644 270.066C373.34 270.421 363.673 271.109 366.195 268.856Z" fill="#F0E6E0"/>
<path d="M380.568 268.855C380.677 269.08 380.496 269.725 380.568 270.065C378.778 270.58 376.213 271.276 375.024 269.37C375.169 268.768 380.445 268.602 380.568 268.848V268.855Z" fill="#F0E6E0"/>
<path d="M366.888 332.249C368.315 331.879 368.011 338.641 366.888 338.481V332.249Z" fill="#F0E6E0"/>
<path d="M366.538 310.076C368.118 308.743 368.154 315.678 367.234 315.968C365.806 316.417 366.299 310.287 366.538 310.076Z" fill="#F0E6E0"/>
<path d="M366.535 324.976C368.036 323.715 368.217 330.129 367.231 330.868C365.869 331.23 366.296 325.179 366.535 324.976Z" fill="#F0E6E0"/>
<path d="M366.535 253.617C368.036 252.356 368.217 258.769 367.231 259.509C365.869 259.871 366.296 253.82 366.535 253.617Z" fill="#F0E6E0"/>
<path d="M320.633 234.215C320.633 234.215 320.764 234.816 320.459 234.91C319.155 235.294 316.792 234.794 315.437 234.562C315.242 233.026 320.227 233.048 320.633 234.215Z" fill="#F0E6E0"/>
<path d="M333.456 234.218C333.456 234.218 333.579 234.848 333.282 234.914C331.847 235.225 329.702 234.885 328.26 234.566C328.209 232.95 332.818 233.145 333.456 234.218Z" fill="#F0E6E0"/>
<path d="M359.433 234.218C359.433 234.218 359.563 234.819 359.259 234.914C358.02 235.276 355.534 234.848 354.237 234.566C354.186 232.95 358.795 233.145 359.433 234.218Z" fill="#F0E6E0"/>
<path d="M314.395 340.217C314.091 340.348 308.736 340.55 309.199 339.521C309.83 339.42 314.468 337.275 314.395 340.217Z" fill="#F0E6E0"/>
<path d="M256.538 234.214C256.501 234.229 256.668 234.823 256.364 234.91C256.03 235.004 251.733 235.011 251.516 234.91C251.168 234.743 251.421 233.917 251.342 233.874C252.726 233.432 255.813 233.011 256.538 234.222V234.214Z" fill="#F0E6E0"/>
<path d="M269.005 233.518C270.534 235.402 265.128 235.076 264.33 234.902C264.033 234.837 264.193 234.214 264.156 234.207C264.671 233.163 267.765 233.38 269.005 233.511V233.518Z" fill="#F0E6E0"/>
<path d="M281.481 224.856C281.648 225.624 282.061 226.335 281.829 227.284C265.176 227.038 248.45 227.472 231.768 227.284V233.176L250.131 232.828C250.675 232.98 251.233 233.799 251.342 233.864C251.421 233.908 251.168 234.734 251.515 234.9C251.733 235.002 256.03 234.995 256.364 234.9C256.668 234.813 256.494 234.226 256.537 234.205C257.103 233.973 256.784 233.56 257.059 233.509C257.813 233.386 257.538 234.183 257.581 234.205C258.646 234.625 262.458 236.067 263.125 233.857C263.987 234.031 263.907 234.154 264.161 234.205C264.197 234.205 264.038 234.835 264.335 234.9C265.132 235.074 270.546 235.4 269.009 233.516C270.053 233.625 269.872 233.741 270.393 233.864C270.451 233.879 270.314 234.705 270.915 234.9C271.328 235.038 276.278 235.379 275.937 233.864C276.292 233.864 276.618 233.864 276.973 233.864C276.597 235.661 283.561 235.364 281.822 233.516C282.394 233.596 282.756 233.777 283.206 233.864C283.264 233.871 283.126 234.712 283.728 234.9C284.286 235.082 290.032 235.393 288.402 233.516C288.974 233.596 289.337 233.777 289.786 233.864C289.844 233.871 289.706 234.712 290.308 234.9C290.866 235.082 296.612 235.393 294.982 233.516C296.685 233.763 295.685 234.4 296.366 234.553C297.504 234.806 302.366 235.842 301.214 233.516C301.895 233.494 302.272 233.502 302.946 233.516C301.279 235.4 307.164 235.074 307.62 234.9C307.932 234.784 307.751 234.226 307.794 234.205C308.265 233.98 308.193 233.422 308.664 233.168C308.961 233.292 308.801 233.864 308.838 233.864C308.838 235.502 313.671 235.277 314.382 234.212C315.36 234.35 315.099 234.502 315.418 234.56C316.773 234.784 319.135 235.292 320.44 234.908C320.744 234.821 320.578 234.219 320.614 234.212C321.179 234.11 320.846 233.574 321.136 233.516C321.636 233.429 321.715 233.922 322.005 233.864C320.983 235.567 328.701 235.451 326.853 233.516C328.556 233.763 327.556 234.408 328.237 234.553C329.68 234.864 331.825 235.212 333.259 234.9C333.557 234.835 333.397 234.212 333.433 234.205C333.752 234.147 333.448 234.009 334.47 233.857C334.346 235.56 341.311 235.451 339.666 233.509C340.238 233.589 340.6 233.77 341.05 233.857C341.108 233.864 340.97 234.705 341.572 234.893C342.13 235.074 347.876 235.386 346.246 233.509C348.123 233.705 346.739 234.089 347.63 234.545C348.521 235.002 354.253 235.632 352.826 233.509C354.529 233.755 353.529 234.4 354.21 234.545C355.507 234.828 357.993 235.255 359.232 234.893C359.536 234.806 359.37 234.205 359.406 234.197C359.971 234.081 359.638 233.56 359.928 233.502C360.428 233.415 360.5 233.908 360.797 233.85C359.978 235.719 364.269 234.589 365.131 234.886L364.261 233.502C365.058 233.538 366.993 233.096 367.725 233.676C368.588 235.582 367.819 237.538 367.725 239.393C365.848 237.777 366.16 243.466 366.341 244.068C366.522 244.669 367.363 244.531 367.377 244.589C368.595 248.09 368.935 248.568 367.725 251.865C367.348 250.242 368.617 246.72 366.856 245.973C366.276 246.126 365.558 252.256 367.377 252.206C367.24 252.423 367.827 253.604 366.508 253.242C364.058 250.909 366.399 247.053 366.334 244.756C366.334 244.64 365.305 244.401 365.298 244.06C365.24 241.205 365.979 238.422 365.472 235.574L232.275 235.748C241.421 271.243 255.835 305.463 271.937 338.117L288.735 338.464C287.916 338.58 286.547 338.109 285.967 338.812C285.438 338.725 284.793 338.87 284.235 338.812C282.459 338.624 280.437 338.066 278.691 338.812C277.93 338.834 277.292 338.66 276.611 339.16C271.524 337.892 267.669 338.907 262.581 338.812C259.335 338.754 255.081 338.015 251.842 338.117C250.646 338.153 243.921 338.334 243.529 338.464C242.848 338.689 243.24 339.646 242.66 339.849C242.74 339.436 242.515 339.124 242.312 338.812C241.609 337.704 220.535 338.899 217.542 338.812C216.803 338.791 212.238 338.602 211.999 338.464C211.484 338.167 212.339 335.805 211.129 337.428C205.687 308.76 205.832 272.968 209.745 244.068C210.093 241.517 212.346 225.748 213.557 225.016L281.452 224.842L281.481 224.856Z" fill="#703720"/>
<path d="M367.735 251.884C367.735 251.884 367.634 251.834 367.387 252.232C365.569 252.283 366.286 246.152 366.866 246C368.619 246.739 367.358 250.268 367.735 251.892V251.884Z" fill="#F0E6E0"/>
<path d="M367.737 239.416C367.65 241.112 368.063 243.011 367.389 244.612C367.367 244.554 366.527 244.685 366.353 244.091C366.179 243.496 365.867 237.8 367.737 239.416Z" fill="#F0E6E0"/>
<path d="M346.261 233.523C347.892 235.4 342.145 235.088 341.587 234.907C340.986 234.711 341.123 233.878 341.065 233.871C342.522 233.385 344.754 233.371 346.261 233.523Z" fill="#F0E6E0"/>
<path d="M339.678 233.518C341.323 235.46 334.359 235.569 334.482 233.866C336.2 233.605 337.932 233.286 339.678 233.518Z" fill="#F0E6E0"/>
<path d="M314.39 234.22C313.688 235.285 308.847 235.517 308.847 233.872C310.484 233.669 312.195 233.249 313.869 233.524C314.159 233.575 314.347 234.213 314.39 234.22Z" fill="#F0E6E0"/>
<path d="M288.404 233.522C290.034 235.399 284.288 235.088 283.73 234.907C283.128 234.711 283.266 233.877 283.208 233.87C284.614 233.406 286.969 233.334 288.404 233.522Z" fill="#F0E6E0"/>
<path d="M294.986 233.524C296.617 235.401 290.87 235.089 290.312 234.908C289.71 234.712 289.848 233.879 289.79 233.872C291.181 233.422 293.58 233.321 294.986 233.524Z" fill="#F0E6E0"/>
<path d="M326.856 233.523C328.704 235.451 320.979 235.574 322.008 233.871C323.559 233.538 325.291 233.299 326.856 233.523Z" fill="#F0E6E0"/>
<path d="M263.122 233.866C262.455 236.076 258.643 234.634 257.578 234.214C259.1 232.975 261.354 233.504 263.122 233.866Z" fill="#F0E6E0"/>
<path d="M307.803 234.218C307.76 234.24 307.941 234.798 307.629 234.914C307.165 235.08 301.281 235.414 302.955 233.529C304.433 233.566 307.115 233.044 307.803 234.225V234.218Z" fill="#F0E6E0"/>
<path d="M281.825 233.521C283.565 235.369 276.593 235.666 276.977 233.869C278.34 233.876 280.122 233.289 281.825 233.521Z" fill="#F0E6E0"/>
<path d="M301.224 233.523C302.376 235.856 297.514 234.813 296.376 234.559C296.412 232.892 299.782 233.566 301.224 233.523Z" fill="#F0E6E0"/>
<path d="M364.279 233.521L365.148 234.906C364.286 234.608 360.003 235.732 360.815 233.869C362.083 233.623 362.974 233.471 364.279 233.521Z" fill="#ECF1ED"/>
<path d="M213.061 233.521C213.735 233.282 218.924 233.347 218.779 234.391C218.264 235.818 210.017 234.586 213.061 233.521Z" fill="#F0E6E0"/>
<path d="M245.282 233.52C245.732 233.361 250.435 233.136 250.304 234.39C249.92 235.825 242.311 234.556 245.282 233.52Z" fill="#F0E6E0"/>
<path d="M232.806 233.524C233.408 233.271 238.676 233.322 237.48 234.735C236.893 235.43 229.646 234.858 232.806 233.524Z" fill="#F0E6E0"/>
<path d="M226.574 233.519C226.878 233.389 231.458 233.135 231.248 234.389C230.915 235.65 223.472 234.831 226.574 233.519Z" fill="#F0E6E0"/>
<path d="M220.337 233.519C220.642 233.389 225.222 233.135 225.012 234.389C224.678 235.65 217.236 234.831 220.337 233.519Z" fill="#F0E6E0"/>
<path d="M239.389 233.519C240.113 233.316 244.889 233.345 243.722 234.73C242.932 235.664 236.084 234.44 239.389 233.519Z" fill="#F0E6E0"/>
<path d="M366.524 234.221C367.828 234.178 368.256 237.605 367.219 238.381C366.031 238.7 366.053 234.236 366.524 234.221Z" fill="#F0E6E0"/>
<path d="M324.093 292.407C319.752 291.102 325.231 296.943 326.173 297.95C327.506 299.371 328.651 300.704 330.673 301.241L330.151 302.451C323.738 300.313 319.469 294.856 318.89 288.073L320.969 287.551C321.027 287.863 321.926 292.327 322.701 290.153C322.846 289.747 322.723 282.623 322.701 281.493C322.687 280.718 322.586 280.232 321.665 280.283C321.774 279.341 321.941 279.268 322.013 278.899C322.643 279.152 323.115 278.551 323.397 278.551C323.948 278.551 324.31 278.833 324.781 279.073C322.962 283.573 323.151 289.595 326.165 293.624C325.18 294.733 325.107 292.718 324.086 292.414L324.093 292.407Z" fill="#5C2D1C"/>
<path d="M324.095 292.401C325.907 296.909 330.32 298.764 334.487 300.365C332.835 303.279 328.067 298.728 326.175 297.938C325.233 296.938 319.755 291.089 324.095 292.394V292.401Z" fill="#F0E6E0"/>
<path d="M323.392 278.551C323.102 278.551 322.631 279.152 322.008 278.898C322.044 278.703 321.479 278.297 321.66 277.514C323.051 275.703 328.276 270.217 330.32 269.891C331.066 269.775 332.204 270.412 332.052 271.101C331.929 271.673 323.001 275.268 323.392 278.551Z" fill="#F0E6E0"/>
<path d="M373.285 300.725C373.22 300.747 372.756 301.667 372.415 301.761C371.531 302.015 366.639 302.138 366.35 300.725C368.415 300.696 371.509 299.297 373.278 300.725H373.285Z" fill="#F0E6E0"/>
<path d="M320.977 287.553C320.202 283.371 321.332 283.248 321.673 280.277C322.593 280.226 322.702 280.719 322.709 281.487C322.731 282.618 322.854 289.741 322.709 290.147C321.934 292.328 321.035 287.864 320.977 287.546V287.553Z" fill="#F0E6E0"/>
<path d="M321.668 277.512C321.487 278.294 322.052 278.707 322.016 278.896C321.943 279.265 321.777 279.338 321.668 280.28C321.335 283.251 320.197 283.367 320.972 287.556L318.892 288.078C319.472 294.861 323.741 300.31 330.154 302.455L330.676 301.245C328.654 300.709 327.509 299.375 326.176 297.955C328.067 298.745 332.835 303.296 334.488 300.383C335.698 300.846 334.872 301.173 335.524 301.419C336.611 301.832 343.256 302.665 342.8 300.383C345.119 300.209 348.257 299.085 350.938 299.687C352.358 300.006 352.032 300.875 352.496 301.071C353.54 301.506 356.967 303.042 356.996 300.375C359.431 300.093 360.844 299.593 363.75 299.68C364.381 299.701 365.301 299.375 364.62 300.375C363.671 300.404 358.83 300.216 358.554 300.375C356.156 301.745 365.547 302.825 365.308 300.723C365.366 300.723 364.859 300.049 366.178 300.028C366.461 300.028 366.316 300.723 366.352 300.723C366.642 302.136 371.533 302.02 372.417 301.76C372.758 301.665 373.222 300.745 373.287 300.723C373.36 300.694 373.338 299.948 374.497 299.687C376.179 299.31 379.07 299.962 380.903 299.687C380.135 306.108 374.222 301.542 373.28 303.673C373.099 304.079 373.331 306.506 373.28 307.311C371.374 307.274 369.62 307.209 367.736 307.658L367.214 303.158C366.033 302.847 366.221 306.702 366.345 307.318C351.96 306.303 331.937 312.992 322.349 299.18C317.392 292.034 316.675 284.019 321.654 277.526L321.668 277.512Z" fill="#5C2D1C"/>
<path d="M367.74 307.65C367.602 307.679 366.928 310.085 366.356 307.303C366.232 306.694 366.044 302.831 367.225 303.143L367.747 307.643L367.74 307.65Z" fill="#F0E6E0"/>
<path d="M342.796 300.382C343.26 302.664 336.608 301.831 335.521 301.418C336.303 299.519 340.854 300.527 342.796 300.382Z" fill="#F0E6E0"/>
<path d="M364.626 300.381C364.952 300.374 364.995 300.736 365.321 300.729C365.56 302.831 356.161 301.751 358.567 300.381C358.843 300.222 363.676 300.41 364.633 300.381H364.626Z" fill="#F0E6E0"/>
<path d="M356.995 300.38C356.959 303.04 353.531 301.503 352.495 301.076C352.618 299.793 355.662 300.54 356.995 300.38Z" fill="#F0E6E0"/>
<path d="M375.538 300.033C376.386 299.823 380.901 299.656 380.213 301.243C379.524 302.83 370.799 301.221 375.538 300.033Z" fill="#F0E6E0"/>
<path d="M344.7 300.378C344.953 300.233 350.309 300.284 350.591 300.378C355.113 301.914 340.989 302.487 344.7 300.378Z" fill="#F0E6E0"/>
<path d="M242.339 338.824C241.585 339.006 236.766 338.245 237.143 339.694C238.498 340.6 241.259 340.375 242.687 339.868C243.266 339.665 242.875 338.708 243.556 338.484C243.948 338.353 250.673 338.179 251.868 338.136C255.108 338.027 259.362 338.774 262.608 338.832C267.695 338.919 271.551 337.911 276.638 339.18C276.696 339.194 276.558 340.027 277.16 340.216C280.421 341.267 285.798 338.622 278.718 338.832C280.464 338.085 282.486 338.643 284.262 338.832L283.392 340.216C285.501 340.564 291.885 339.817 285.994 338.832C286.581 338.129 287.943 338.6 288.762 338.484C294.422 337.672 296.719 338.382 302.096 338.832C303.219 338.926 306.466 337.766 307.466 338.832C305.756 339.071 303.415 338.129 302.27 339.701C302.422 340.825 307.067 339.998 307.814 339.875C308.111 339.824 308.314 339.672 309.198 339.527C308.734 340.549 314.097 340.353 314.394 340.223C315.068 339.926 314.263 338.94 315.604 338.491C316.162 338.303 326.815 338.332 327.38 338.491C328.416 338.774 328.083 339.622 328.59 339.875C328.627 339.897 328.822 340.506 329.112 340.571C333.837 341.585 337.076 337.658 329.634 338.839H340.374C339.692 338.578 335.598 338.593 335.178 339.709C335.315 340.716 339.866 340.151 340.722 339.882C341.222 339.723 340.895 338.752 341.932 338.498C343.193 338.187 345.686 338.448 346.954 338.846C346.57 338.701 341.606 338.448 341.758 339.716C342.026 340.73 346.418 340.172 347.302 339.89C347.802 339.73 347.476 338.759 348.512 338.506C350.882 337.926 357.056 338.853 359.773 338.853C359.121 338.614 353.715 338.629 354.925 340.064C355.092 340.267 359.824 340.375 360.121 340.238C361.266 339.701 358.962 338.948 362.549 338.853L361.679 340.238L366.354 339.542C366.796 340.114 366.846 340.716 366.18 340.926C365.564 341.122 356.005 341.252 354.404 341.274C322.836 341.643 291.277 340.788 259.659 340.926C247.767 340.977 235.853 340.578 223.975 341.274C220.99 340.984 216.287 340.477 213.41 340.926C212.018 341.143 212.953 341.288 212.199 341.962C211.765 340.469 211.453 338.984 211.163 337.462C212.366 335.846 211.511 338.201 212.033 338.498C212.272 338.636 216.837 338.824 217.577 338.846C220.569 338.933 241.636 337.737 242.346 338.846L242.339 338.824Z" fill="#5C2D1C"/>
<path d="M329.63 338.823C337.072 337.642 333.84 341.57 329.108 340.555C328.818 340.497 328.63 339.881 328.586 339.86C328.514 339.012 328.92 338.932 329.623 338.823H329.63Z" fill="#F0E6E0"/>
<path d="M346.952 338.822C347.003 338.843 347.416 339.619 347.3 339.858C346.416 340.141 342.024 340.699 341.756 339.684C341.604 338.423 346.568 338.669 346.952 338.814V338.822Z" fill="#F0E6E0"/>
<path d="M307.459 338.823C307.669 339.048 307.864 339.519 307.807 339.86C307.06 339.983 302.422 340.809 302.263 339.686C303.408 338.12 305.748 339.062 307.459 338.816V338.823Z" fill="#F0E6E0"/>
<path d="M340.373 338.824C340.423 338.846 340.837 339.622 340.721 339.861C339.865 340.129 335.314 340.694 335.177 339.687C335.597 338.571 339.692 338.564 340.373 338.817V338.824Z" fill="#ECF1ED"/>
<path d="M359.777 338.821C359.944 338.879 360.255 339.872 360.125 340.205C359.828 340.343 355.096 340.234 354.929 340.031C353.719 338.596 359.125 338.582 359.777 338.821Z" fill="#F0E6E0"/>
<path d="M362.536 338.818C363.725 338.789 365.58 338.528 366.348 339.514L361.674 340.21L362.543 338.825L362.536 338.818Z" fill="#F0E6E0"/>
<path d="M242.33 338.818C242.533 339.129 242.751 339.441 242.678 339.854C241.25 340.361 238.489 340.586 237.134 339.68C236.757 338.238 241.577 338.992 242.33 338.811V338.818Z" fill="#F0E6E0"/>
<path d="M278.715 338.817C285.795 338.607 280.418 341.259 277.157 340.201C276.555 340.005 276.693 339.179 276.635 339.165C277.309 338.665 277.954 338.839 278.715 338.817Z" fill="#F0E6E0"/>
<path d="M284.255 338.823C284.813 338.881 285.458 338.737 285.987 338.823C291.879 339.809 285.502 340.555 283.386 340.208L284.255 338.823Z" fill="#F0E6E0"/>
<path d="M270.561 338.822C271.199 338.641 275.902 338.504 275.583 339.692C274.866 341.185 267.191 339.765 270.561 338.822Z" fill="#F0E6E0"/>
<path d="M322.528 338.822C322.825 338.699 327.753 338.424 327.55 339.692C327.216 340.938 319.354 340.163 322.528 338.822Z" fill="#F0E6E0"/>
<path d="M244.233 338.824C244.892 338.592 250.48 338.585 249.255 340.034C248.523 340.904 241.24 339.868 244.233 338.824Z" fill="#ECF1ED"/>
<path d="M250.822 338.823C251.272 338.663 255.975 338.439 255.844 339.692C255.46 341.127 247.851 339.859 250.822 338.823Z" fill="#F0E6E0"/>
<path d="M348.857 338.823C349.306 338.663 354.009 338.439 353.879 339.692C353.495 341.127 345.885 339.859 348.857 338.823Z" fill="#F0E6E0"/>
<path d="M315.949 338.823C316.399 338.663 321.102 338.439 320.971 339.692C320.587 341.127 312.978 339.859 315.949 338.823Z" fill="#F0E6E0"/>
<path d="M296.204 338.823C296.508 338.62 302.502 338.519 301.226 340.034C300.784 340.563 293.776 340.418 296.204 338.823Z" fill="#F0E6E0"/>
<path d="M289.96 338.821C290.62 338.589 295.127 338.69 294.982 339.69C294.395 341.147 287.105 339.821 289.96 338.821Z" fill="#F0E6E0"/>
<path d="M257.403 338.823C258.004 338.57 263.273 338.62 262.077 340.034C261.49 340.729 254.243 340.157 257.403 338.823Z" fill="#F0E6E0"/>
<path d="M231.426 338.823C232.028 338.57 237.296 338.62 236.1 340.034C235.513 340.729 228.267 340.157 231.426 338.823Z" fill="#F0E6E0"/>
<path d="M263.981 338.823C264.582 338.57 269.851 338.62 268.655 340.034C268.068 340.729 260.821 340.157 263.981 338.823Z" fill="#F0E6E0"/>
<path d="M212.712 338.822C213.017 338.691 217.597 338.438 217.387 339.691C217.053 340.952 209.611 340.133 212.712 338.822Z" fill="#F0E6E0"/>
<path d="M218.949 338.822C219.253 338.691 223.833 338.438 223.623 339.691C223.29 340.952 215.847 340.133 218.949 338.822Z" fill="#F0E6E0"/>
<path d="M225.187 338.822C225.491 338.691 230.071 338.438 229.861 339.691C229.528 340.952 222.085 340.133 225.187 338.822Z" fill="#F0E6E0"/>
<path d="M357.344 224.858C357.511 225.721 357.431 226.757 357.692 227.626C357.576 227.626 358.206 228.235 355.96 228.322L349.554 202.342L282.695 218.974C281.658 220.104 284.485 226.206 284.253 227.982C281.861 227.953 282.064 227.293 281.825 227.286C282.057 226.336 281.644 225.626 281.477 224.858C281.006 222.706 280.506 220.525 279.745 218.452L351.278 199.922C353.336 208.176 355.742 216.51 357.344 224.865V224.858Z" fill="#4E964E"/>
<path d="M355.958 228.325C355.27 228.347 354.567 228.303 353.879 228.325L348.161 204.766L283.729 220.701L285.635 227.977C285.186 227.977 284.722 227.977 284.251 227.977C284.483 226.202 281.657 220.1 282.693 218.969L349.552 202.338L355.958 228.318V228.325Z" fill="#92CD8B"/>
<path d="M351.801 227.974C351.2 227.988 350.627 227.959 350.069 227.974L345.395 209.269L289.276 223.125C287.602 223.828 289.305 226.568 289.45 227.974C289 227.974 288.537 227.974 288.066 227.974C288.029 226.517 285.863 222.705 287.196 221.741L346.431 206.842L351.801 227.974Z" fill="#92CD8B"/>
<path d="M353.88 228.317C353.053 228.346 351.908 227.969 351.8 227.969L346.43 206.838L287.194 221.737C285.854 222.701 288.028 226.513 288.064 227.969C287.274 227.962 286.455 227.977 285.636 227.969L283.73 220.694L348.162 204.758L353.88 228.317Z" fill="#4E964E"/>
<path d="M350.073 227.972C343.377 228.117 336.688 228.269 329.978 228.319C327.876 215.036 310.73 213.543 309.542 228.319C302.846 228.254 296.128 228.051 289.446 227.972C289.301 226.566 287.598 223.826 289.272 223.123L345.392 209.268L350.066 227.972H350.073Z" fill="#4E964E"/>
<path d="M339.509 220.35C342.966 219.951 344.053 225.14 340.893 225.894C336.502 226.945 336.125 220.741 339.509 220.35Z" fill="#92CD8B"/>
<path d="M329.978 228.32C327.094 228.342 324.202 228.313 321.318 228.32C318.963 226.603 320.079 222.95 318.028 220.697L318.898 226.414C315.202 226.103 317.934 223.965 316.296 222.081C311.361 224.182 315.064 227.378 318.55 228.313C315.55 228.313 312.542 228.342 309.542 228.313C310.738 213.537 327.876 215.03 329.978 228.313V228.32Z" fill="#92CD8B"/>
<path d="M321.31 228.321C320.389 228.321 319.462 228.321 318.541 228.321C315.056 227.379 311.352 224.184 316.287 222.089C317.918 223.973 315.193 226.111 318.889 226.423L318.019 220.705C320.07 222.952 318.954 226.611 321.31 228.329V228.321Z" fill="#4E964E"/>
<path d="M320.448 221.74C321.071 221.269 322.839 222.66 322.702 223.298C322.238 225.407 319.071 222.791 320.448 221.74Z" fill="#4E964E"/>
<path d="M284.426 153.488L305.731 188.309L242.858 222.775L222.248 188.998L284.426 153.488Z" fill="#4E964E"/>
<path d="M283.388 156.266L302.614 187.615L243.553 220.009L225.363 189.347L283.388 156.266Z" fill="#92CD8B"/>
<path d="M282.691 158.689L300.533 186.916L243.892 217.925L227.094 190.38L282.691 158.689Z" fill="#4E964E"/>
<path d="M282.001 161.457L297.415 186.227L244.934 215.149L230.208 190.727L282.001 161.457Z" fill="#92CD8B"/>
<path d="M281.306 163.889L295.336 185.535L245.623 213.08L232.289 191.427L281.306 163.889Z" fill="#4E964E"/>
<path d="M279.229 173.933C283.063 173.215 284.099 178.984 281.309 179.824C276.744 181.187 276.157 174.512 279.229 173.933Z" fill="#92CD8B"/>
<path d="M244.591 192.986C248.432 192.29 248.961 198.03 245.976 198.53C242.185 199.16 241.555 193.537 244.591 192.986Z" fill="#92CD8B"/>
<path d="M259.825 177.395C275.993 174.692 279.297 201.462 262.593 199.223C250.962 197.664 250.209 179.004 259.825 177.395Z" fill="#92CD8B"/>
<path d="M259.139 181.205C260.603 181.973 262.82 187.053 263.639 187.437C264.205 187.705 267.074 187.655 268.14 188.133C273.133 190.358 268.328 197.583 267.103 189.865L264.85 189.691L267.451 195.061C265.545 194.431 264.168 189.466 262.951 188.829C261.002 187.807 252.747 188.626 257.755 182.937L259.487 186.749C264.313 187.488 258.972 183.626 259.139 181.205Z" fill="#4E964E"/>
<path d="M262.952 192.636C263.517 192.585 265.234 195.013 265.032 195.752C262.147 196.969 261.299 192.773 262.952 192.636Z" fill="#4E964E"/>
<path d="M261.557 181.206C263.789 179.887 264.499 183.59 262.941 183.633C262.542 183.641 260.832 181.633 261.557 181.206Z" fill="#4E964E"/>
<path d="M368.953 121.279L386.794 151.933L329.465 184.327L311.623 153.325L368.953 121.279Z" fill="#3F7F40"/>
<path d="M367.918 123.697L384.376 151.242L330.503 181.896L314.053 153.663L367.918 123.697Z" fill="#92CD8B"/>
<path d="M367.223 126.121L382.297 150.543L330.851 179.813L316.126 154.355L367.223 126.121Z" fill="#4E964E"/>
<path d="M366.188 128.203C367.667 128.188 378.298 147.863 380.218 150.197L331.889 177.046L318.896 155.393L366.181 128.195L366.188 128.203Z" fill="#92CD8B"/>
<path d="M343.843 142.753L344.538 143.449C337.045 146.268 339.466 160.943 349.039 162.153L349.56 163.537C344.734 163.24 339.922 162.139 335.183 161.11C336.784 157.696 332.03 155.986 330.682 158.508C329.334 161.03 332.509 163.247 334.842 161.798L349.394 165.61C347.263 166.776 333.32 175.292 332.248 174.965L321.334 156.435L321.508 155.566C328.965 151.312 336.393 147.007 343.85 142.746L343.843 142.753Z" fill="#4E964E"/>
<path d="M335.183 161.11C335.118 161.255 334.871 161.784 334.835 161.806C332.502 163.255 329.328 161.037 330.675 158.515C332.023 155.994 336.777 157.704 335.176 161.117L335.183 161.11Z" fill="#92CD8B"/>
<path d="M349.386 165.619L334.834 161.807C334.834 161.807 335.117 161.256 335.182 161.111C339.914 162.133 344.733 163.242 349.56 163.539L349.038 162.155C364.459 164.104 358.959 138.023 344.537 143.451L343.842 142.755C351.248 138.523 358.466 133.965 366.184 130.283L378.134 149.509C368.735 155.219 359.024 160.35 349.378 165.619H349.386Z" fill="#4E964E"/>
<path d="M363.757 140.327C368.8 138.885 367.453 147.023 363.409 144.827C361.583 143.841 362.097 140.798 363.757 140.327Z" fill="#92CD8B"/>
<path d="M349.039 162.146C339.466 160.936 337.039 146.261 344.539 143.442C358.96 138.014 364.461 164.103 349.039 162.146Z" fill="#92CD8B"/>
<path d="M345.754 146.213C346.659 145.8 348.37 150.924 349.218 151.409C350.674 152.25 356.16 151.858 355.283 155.743C354.298 160.084 352.566 154.003 352.341 153.837C348.805 151.286 352.986 158.207 352.689 158.337C350.87 157.656 350.225 153.438 348.877 152.793C347.457 152.112 341.724 152.692 343.159 148.46C344.283 145.141 345.442 152.047 347.66 150.887L345.754 146.213Z" fill="#4E964E"/>
<path d="M348.517 156.607C349.206 156.034 351.148 158.73 350.597 159.035C349.329 159.723 347.619 157.926 348.517 156.607Z" fill="#4E964E"/>
<path d="M347.824 146.55C350.737 145.789 350.194 148.521 348.86 148.282C348.628 148.239 347.607 147 347.824 146.55Z" fill="#4E964E"/>
<path d="M247.702 97.0352L269.704 123.189L222.418 159.387L200.765 132.537L247.702 97.0352Z" fill="#4E964E"/>
<path d="M247.702 99.1074L267.276 123.189L222.418 156.618L203.192 132.885L247.702 99.1074Z" fill="#92CD8B"/>
<path d="M247.024 101.537L264.866 122.843L222.429 154.888L205.275 133.235L247.024 101.537Z" fill="#4E964E"/>
<path d="M246.675 103.623L262.784 122.849L222.767 152.119L207.701 133.589L246.675 103.623Z" fill="#92CD8B"/>
<path d="M240.612 137.22L239.916 136.184C249.612 131.466 238.981 113.885 229.176 120.248L228.48 119.552C230.698 117.857 246.039 105.305 247.358 105.696L261.04 122.154C254.67 127.777 247.445 132.249 240.604 137.22H240.612Z" fill="#4E964E"/>
<path d="M246.334 115.04C249.95 113.844 250.798 119.084 248.066 119.54C245.175 120.033 244.03 115.801 246.334 115.04Z" fill="#92CD8B"/>
<path d="M229.183 120.241C220.965 125.575 229.56 141.213 239.923 136.177L240.618 137.213C234.741 141.489 229.139 146.264 223.124 150.381L210.131 134.967C209.66 133.894 209.754 134.213 210.305 133.409C211.624 131.481 225.523 121.821 228.494 119.553L229.19 120.248L229.183 120.241Z" fill="#4E964E"/>
<path d="M220.003 134.441C223.308 133.796 224.41 138.362 221.735 138.941C218.503 139.652 217.09 135.006 220.003 134.441Z" fill="#92CD8B"/>
<path d="M239.919 136.172C229.556 141.209 220.961 125.57 229.179 120.236C238.984 113.874 249.615 131.455 239.919 136.172Z" fill="#92CD8B"/>
<path d="M231.083 122.316C232.271 122.656 234.271 127.048 234.547 127.164C235.568 127.621 239.945 126.867 240.612 128.722C240.779 129.179 240.75 131.382 240.09 131.664C238.59 132.309 238.38 128.171 236.105 129.063L238.358 133.396C237.112 132.773 235.605 128.881 234.547 128.548C233.278 128.15 228.423 129.266 228.481 125.946C228.575 121.2 232.923 129.476 233.677 126.642L231.075 122.309L231.083 122.316Z" fill="#4E964E"/>
<path d="M234.549 132.022C235.578 131.616 236.064 133.587 236.803 133.927C235.433 134.906 234.991 134.304 234.035 133.232C233.933 132.79 234.136 132.188 234.556 132.022H234.549Z" fill="#4E964E"/>
<path d="M233.168 122.32C235.313 121.748 234.958 124.371 233.516 124.052C233.429 124.031 232.298 122.552 233.168 122.32Z" fill="#5BA759"/>
<path d="M281.829 50.9648C300.49 62.3496 317.802 76.0678 336.216 87.8584L313.874 118.86C294.67 105.714 274.8 93.0978 256.545 78.8506L258.973 75.9084C258.436 76.8722 258.233 78.1186 257.241 78.8506L259.147 80.0608C257.9 78.1839 259.458 78.6114 259.668 78.3288C258.994 79.1984 259.574 79.5173 260.19 80.0608C265.756 84.9524 275.003 90.902 281.322 95.3008C291.772 102.577 302.656 109.28 313.193 116.433L333.455 88.199L281.481 52.349L280.785 51.1388L281.822 50.9648H281.829Z" fill="#4E964E"/>
<path d="M281.829 50.9602L280.793 51.1341L281.488 52.3444L279.583 51.3081C272.944 60.1202 266.205 69.2947 259.661 78.3314C259.458 78.614 257.893 78.1865 259.139 80.0634L257.233 78.8532C258.226 78.1213 258.429 76.8748 258.965 75.911C260.509 73.121 276.466 50.6341 278.017 49.4094C278.43 49.0833 278.51 48.721 279.227 48.8876C279.481 48.9166 281.452 50.7428 281.829 50.9675V50.9602Z" fill="#3F7F40"/>
<path d="M281.478 52.3488L333.437 88.206L313.175 116.44C302.638 109.287 291.761 102.584 281.304 95.3079C274.985 90.9091 265.738 84.9594 260.172 80.0678C259.556 79.5243 258.976 79.2055 259.65 78.3359C266.194 69.2991 272.934 60.1246 279.572 51.3125L281.478 52.3488Z" fill="#92CD8B"/>
<path d="M279.57 53.3828L331.015 88.5443L312.826 113.662L261.388 78.5003L279.57 53.3828Z" fill="#4E964E"/>
<path d="M280.614 55.8184L328.587 88.9L312.137 111.59L264.504 78.5081L280.614 55.8184Z" fill="#92CD8B"/>
<path d="M282.17 73.8381C281.801 78.2586 283.656 84.0126 286.33 87.694C286.692 89.339 287.671 91.5783 289.098 92.5421V94.2741C287.41 93.1073 285.808 91.5638 284.25 90.4623C283.431 85.9475 280.938 81.5269 280.091 76.7803C279.88 75.5846 280.149 74.3309 280.091 73.4902C280.88 73.9468 281.279 74.07 282.17 73.8381Z" fill="#3F7F40"/>
<path d="M289.097 94.2636V92.5316C295.626 96.9304 306.468 91.0677 305.729 82.3136C304.526 68.1823 282.901 72.1825 286.329 87.6835C283.655 84.0021 281.8 78.2481 282.169 73.8276C286.198 72.7768 283.952 67.8562 280.959 68.6316C278.336 69.3055 280.017 72.4362 280.089 73.4797C280.147 74.3276 279.879 75.574 280.089 76.7698C280.937 81.5164 283.43 85.937 284.249 90.4517C278.278 86.2196 271.842 82.5672 266.233 77.8061L280.611 58.2324L325.991 89.0604L311.787 109.496C304.192 104.46 296.598 99.416 289.097 94.2563V94.2636Z" fill="#4E964E"/>
<path d="M312.132 92.1877C317.458 90.6658 316.125 99.3692 311.784 97.0358C309.936 96.043 310.4 92.6804 312.132 92.1877Z" fill="#92CD8B"/>
<path d="M282.167 73.8292C281.276 74.0611 280.877 73.9379 280.087 73.4814C280.015 72.4378 278.326 69.3072 280.957 68.6333C283.957 67.8579 286.204 72.7784 282.167 73.8292Z" fill="#92CD8B"/>
<path d="M289.097 92.5389C287.662 91.575 286.691 89.3358 286.329 87.6907C282.901 72.1898 304.526 68.1896 305.729 82.3209C306.475 91.075 295.626 96.9377 289.097 92.5389Z" fill="#92CD8B"/>
<path d="M295.849 76.6043C299.233 76.1985 294.711 79.9959 296.885 81.8003L300.175 78.8581C299.769 79.8219 296.776 82.7786 296.711 83.3584C296.566 84.6193 299.458 88.8225 296.537 90.4602C291.102 93.5111 296.008 87.5035 296.016 87.1702C296.139 84.0033 292.262 89.0761 291.682 89.7718C290.638 89.2065 295.182 85.0759 295.32 84.4019C295.588 83.0685 292.341 77.0247 295.842 76.6043H295.849Z" fill="#4E964E"/>
<path d="M290.658 84.5697C291.02 84.5117 291.477 84.9537 291.868 85.0914C290.708 90.8671 288.643 84.8813 290.658 84.5697Z" fill="#4E964E"/>
<path d="M301.044 79.7188C302.465 79.7115 302.044 83.9509 299.486 81.9725C299.856 81.5957 300.573 79.726 301.044 79.7188Z" fill="#4E964E"/>
<path d="M25.4917 88.7117C20.4879 88.7117 16.2461 85.0823 16.2461 79.5121C16.2461 73.9419 20.5133 70.3125 25.5933 70.3125C28.0063 70.3125 30.9781 71.1694 32.8831 74.194L30.3685 75.9331C29.1747 74.2696 27.4729 73.5891 25.6441 73.5891C22.4183 73.5891 19.8021 75.8323 19.8021 79.5121C19.8021 83.1668 22.3675 85.536 25.6441 85.536C27.8539 85.536 29.8605 84.5026 30.3939 81.7301H26.0759V78.8316H33.7721C34.5849 85.0319 30.4701 88.7117 25.4917 88.7117Z" fill="white"/>
<path d="M48.6411 75.3534V88.4597H45.2374V86.6702C44.5008 87.8296 43.18 88.7117 41.1988 88.7117C38.481 88.7117 36.195 87.0482 36.195 83.0659V75.3534H39.5986V82.5114C39.5986 84.427 40.64 85.6872 42.418 85.6872C44.1706 85.6872 45.2374 84.427 45.2374 82.5114V75.3534H48.6411Z" fill="white"/>
<path d="M56.9417 88.7117C53.8683 88.7117 50.5917 86.4433 50.5917 81.9065C50.5917 77.3697 53.8683 75.1013 56.9417 75.1013C59.3039 75.1013 60.8279 76.3868 61.1581 77.1177H61.2343V75.3534H64.6379V88.4597H61.2343V86.6954H61.1581C60.8279 87.4263 59.3039 88.7117 56.9417 88.7117ZM53.9445 81.9065C53.9445 84.3514 55.7225 85.6872 57.6275 85.6872C59.5325 85.6872 61.3105 84.3766 61.3105 81.9065C61.3105 79.4365 59.5325 78.1259 57.6275 78.1259C55.7225 78.1259 53.9445 79.4617 53.9445 81.9065Z" fill="white"/>
<path d="M67.2257 88.4597V75.3534H70.6293V78.756C71.0865 76.7396 72.3819 75.1013 74.7695 75.1013C75.0743 75.1013 75.3537 75.1265 75.6585 75.2022V78.4283C75.3537 78.3779 75.0997 78.3527 74.7949 78.3527C72.2295 78.3527 70.6293 80.117 70.6293 82.7383V88.4597H67.2257Z" fill="white"/>
<path d="M82.937 88.7117C79.8636 88.7117 76.587 86.4433 76.587 81.9065C76.587 77.3697 79.8636 75.1013 82.937 75.1013C85.2992 75.1013 86.8232 76.3868 87.1535 77.1177H87.2297V75.3534H90.6333V88.4597H87.2297V86.6954H87.1535C86.8232 87.4263 85.2992 88.7117 82.937 88.7117ZM79.9398 81.9065C79.9398 84.3514 81.7178 85.6872 83.6228 85.6872C85.5278 85.6872 87.3058 84.3766 87.3058 81.9065C87.3058 79.4365 85.5278 78.1259 83.6228 78.1259C81.7178 78.1259 79.9398 79.4617 79.9398 81.9065Z" fill="white"/>
<path d="M93.2211 88.4597V75.3534H96.6247V77.1429C97.3613 75.9835 98.6821 75.1013 100.663 75.1013C103.381 75.1013 105.667 76.7648 105.667 80.7471V88.4597H102.263V81.3016C102.263 79.3861 101.222 78.1259 99.4441 78.1259C97.6915 78.1259 96.6247 79.3861 96.6247 81.3016V88.4597H93.2211Z" fill="white"/>
<path d="M112.986 88.6109C110.751 88.6109 109.125 87.5271 109.125 84.8302V78.0503H107.246V75.3534H109.125V72.0012H112.554V75.3534H115.272V78.0503H112.554V84.2758C112.554 84.9563 112.935 85.6116 114.053 85.6116C114.358 85.6116 114.815 85.5612 115.297 85.4099V88.006C114.789 88.4597 113.824 88.6109 112.986 88.6109Z" fill="white"/>
<path d="M123.48 88.7117C119.848 88.7117 116.597 86.2669 116.597 81.9065C116.597 77.4958 119.899 75.1013 123.277 75.1013C126.63 75.1013 130.44 77.4454 129.703 83.2172H119.823C120.305 85.0067 121.88 85.9392 123.861 85.9392C125.157 85.9392 126.3 85.5864 127.265 84.7546L128.814 86.3929C127.722 87.754 125.817 88.7117 123.48 88.7117ZM119.772 80.7471H126.681C126.478 78.882 124.903 77.9494 123.303 77.9494C121.728 77.9494 120.204 78.8568 119.772 80.7471Z" fill="white"/>
<path d="M137.991 88.7117C134.359 88.7117 131.108 86.2669 131.108 81.9065C131.108 77.4958 134.41 75.1013 137.788 75.1013C141.141 75.1013 144.951 77.4454 144.214 83.2172H134.334C134.816 85.0067 136.391 85.9392 138.372 85.9392C139.668 85.9392 140.811 85.5864 141.776 84.7546L143.325 86.3929C142.233 87.754 140.328 88.7117 137.991 88.7117ZM134.283 80.7471H141.192C140.988 78.882 139.414 77.9494 137.813 77.9494C136.239 77.9494 134.715 78.8568 134.283 80.7471Z" fill="white"/>
<path d="M159.665 88.4597H156.261V86.6954H156.185C155.855 87.4263 154.331 88.7117 151.969 88.7117C148.895 88.7117 145.619 86.4433 145.619 81.9065C145.619 77.3697 148.895 75.1013 151.969 75.1013C154.331 75.1013 155.855 76.3868 156.185 77.1177H156.261V70.5645H159.665V88.4597ZM148.971 81.9065C148.971 84.3514 150.749 85.6872 152.654 85.6872C154.559 85.6872 156.337 84.3766 156.337 81.9065C156.337 79.4365 154.559 78.1259 152.654 78.1259C150.749 78.1259 148.971 79.4617 148.971 81.9065Z" fill="white"/>
<path d="M35.2277 118.453V100.558H38.6313V102.322H38.7075C39.0377 101.591 40.5617 100.306 42.9239 100.306C45.9973 100.306 49.2739 102.574 49.2739 107.111C49.2739 111.648 45.9973 113.916 42.9239 113.916C40.5617 113.916 39.0377 112.631 38.7075 111.9H38.6313V118.453H35.2277ZM38.5551 107.111C38.5551 109.581 40.3331 110.892 42.2381 110.892C44.1431 110.892 45.9211 109.556 45.9211 107.111C45.9211 104.666 44.1431 103.33 42.2381 103.33C40.3331 103.33 38.5551 104.641 38.5551 107.111Z" fill="white"/>
<path d="M56.9417 113.916C53.8683 113.916 50.5917 111.648 50.5917 107.111C50.5917 102.574 53.8683 100.306 56.9417 100.306C59.3039 100.306 60.8279 101.591 61.1581 102.322H61.2343V100.558H64.6379V113.664H61.2343V111.9H61.1581C60.8279 112.631 59.3039 113.916 56.9417 113.916ZM53.9445 107.111C53.9445 109.556 55.7225 110.892 57.6275 110.892C59.5325 110.892 61.3105 109.581 61.3105 107.111C61.3105 104.641 59.5325 103.33 57.6275 103.33C55.7225 103.33 53.9445 104.666 53.9445 107.111Z" fill="white"/>
<path d="M69.4161 118.453L71.5751 113.538L66.0887 100.558H69.5685L73.2261 109.657L76.8583 100.558H80.3635L74.8009 113.664L72.7435 118.453H69.4161Z" fill="white"/>
<path d="M90.4664 113.664V106.204C90.4664 104.338 89.4758 103.33 88.028 103.33C86.5294 103.33 85.4626 104.338 85.4626 106.204V113.664H82.059V100.558H85.4626V102.247C86.1738 101.138 87.393 100.306 89.2472 100.306C90.8728 100.306 92.2952 100.986 93.108 102.499C93.87 101.289 95.3178 100.306 97.4768 100.306C100.271 100.306 102.303 102.045 102.303 106.052V113.664H98.8738V106.204C98.8738 104.338 97.9086 103.33 96.4354 103.33C94.9368 103.33 93.87 104.338 93.87 106.204V113.664H90.4664Z" fill="white"/>
<path d="M111.128 113.916C107.495 113.916 104.244 111.471 104.244 107.111C104.244 102.7 107.546 100.306 110.924 100.306C114.277 100.306 118.087 102.65 117.351 108.422H107.47C107.953 110.211 109.527 111.144 111.509 111.144C112.804 111.144 113.947 110.791 114.912 109.959L116.462 111.597C115.37 112.958 113.465 113.916 111.128 113.916ZM107.419 105.952H114.328C114.125 104.086 112.55 103.154 110.95 103.154C109.375 103.154 107.851 104.061 107.419 105.952Z" fill="white"/>
<path d="M119.39 113.664V100.558H122.794V102.347C123.53 101.188 124.851 100.306 126.832 100.306C129.55 100.306 131.836 101.969 131.836 105.952V113.664H128.432V106.506C128.432 104.591 127.391 103.33 125.613 103.33C123.86 103.33 122.794 104.591 122.794 106.506V113.664H119.39Z" fill="white"/>
<path d="M139.155 113.815C136.92 113.815 135.294 112.732 135.294 110.035V103.255H133.415V100.558H135.294V97.2056H138.723V100.558H141.441V103.255H138.723V109.48C138.723 110.161 139.104 110.816 140.222 110.816C140.527 110.816 140.984 110.766 141.466 110.614V113.21C140.958 113.664 139.993 113.815 139.155 113.815Z" fill="white"/>
<path d="M15.1726 294.524H18.8646L25.841 312.51H22.0727L20.876 309.267H13.1867L11.99 312.51H8.22168L15.1726 294.524ZM14.3579 306.076H19.7048L17.0313 298.856L14.3579 306.076Z" fill="white"/>
<path d="M28.2055 298.476C28.2055 294.6 30.9044 293.967 32.6613 293.967C33.3487 293.967 34.2908 294.043 35.0292 294.473V297.133C34.3926 296.829 33.7816 296.855 33.5524 296.855C32.2539 296.855 31.6173 297.564 31.6173 298.856V299.337H35.0292V302.048H31.6173V312.51H28.2055V302.048H26.5251V299.337H28.2055V298.476Z" fill="white"/>
<path d="M41.8582 312.662C39.6176 312.662 37.9881 311.573 37.9881 308.862V302.048H36.1039V299.337H37.9881V295.968H41.4254V299.337H44.1497V302.048H41.4254V308.305C41.4254 308.989 41.8073 309.647 42.9276 309.647C43.2331 309.647 43.6914 309.597 44.1752 309.445V312.054C43.666 312.51 42.6984 312.662 41.8582 312.662Z" fill="white"/>
<path d="M52.378 312.763C48.737 312.763 45.4779 310.306 45.4779 305.924C45.4779 301.49 48.7879 299.084 52.1743 299.084C55.5352 299.084 59.3544 301.44 58.616 307.241H48.7115C49.1953 309.039 50.7739 309.977 52.7599 309.977C54.0584 309.977 55.2042 309.622 56.1717 308.786L57.7249 310.433C56.63 311.801 54.7204 312.763 52.378 312.763ZM48.6606 304.758H55.5861C55.3824 302.884 53.8038 301.946 52.1997 301.946C50.6211 301.946 49.0934 302.858 48.6606 304.758Z" fill="white"/>
<path d="M60.6603 312.51V299.337H64.0721V302.757C64.5304 300.731 65.8289 299.084 68.2223 299.084C68.5279 299.084 68.8079 299.109 69.1135 299.185V302.428C68.8079 302.377 68.5533 302.352 68.2478 302.352C65.6762 302.352 64.0721 304.125 64.0721 306.76V312.51H60.6603Z" fill="white"/>
<path d="M80.9206 312.662C78.68 312.662 77.0505 311.573 77.0505 308.862V302.048H75.1663V299.337H77.0505V295.968H80.4878V299.337H83.2121V302.048H80.4878V308.305C80.4878 308.989 80.8697 309.647 81.99 309.647C82.2955 309.647 82.7538 309.597 83.2376 309.445V312.054C82.7284 312.51 81.7608 312.662 80.9206 312.662Z" fill="white"/>
<path d="M91.4404 312.763C87.7994 312.763 84.5403 310.306 84.5403 305.924C84.5403 301.49 87.8503 299.084 91.2367 299.084C94.5976 299.084 98.4168 301.44 97.6784 307.241H87.7739C88.2577 309.039 89.8363 309.977 91.8223 309.977C93.1208 309.977 94.2666 309.622 95.2341 308.786L96.7872 310.433C95.6924 311.801 93.7828 312.763 91.4404 312.763ZM87.723 304.758H94.6485C94.4448 302.884 92.8662 301.946 91.2621 301.946C89.6835 301.946 88.1558 302.858 87.723 304.758Z" fill="white"/>
<path d="M99.7227 312.51V299.337H103.135V301.136C103.873 299.971 105.197 299.084 107.183 299.084C109.907 299.084 112.199 300.756 112.199 304.758V312.51H108.787V305.316C108.787 303.39 107.743 302.124 105.961 302.124C104.204 302.124 103.135 303.39 103.135 305.316V312.51H99.7227Z" fill="white"/>
<path d="M120.519 312.763C117.439 312.763 114.154 310.483 114.154 305.924C114.154 301.364 117.439 299.084 120.519 299.084C122.887 299.084 124.415 300.376 124.746 301.11H124.822V299.337H128.234V312.51H124.822V310.737H124.746C124.415 311.471 122.887 312.763 120.519 312.763ZM117.515 305.924C117.515 308.381 119.297 309.723 121.207 309.723C123.117 309.723 124.899 308.406 124.899 305.924C124.899 303.441 123.117 302.124 121.207 302.124C119.297 302.124 117.515 303.466 117.515 305.924Z" fill="white"/>
<path d="M130.828 312.51V299.337H134.24V301.136C134.979 299.971 136.303 299.084 138.289 299.084C141.013 299.084 143.304 300.756 143.304 304.758V312.51H139.893V305.316C139.893 303.39 138.849 302.124 137.066 302.124C135.31 302.124 134.24 303.39 134.24 305.316V312.51H130.828Z" fill="white"/>
<path d="M150.641 312.662C148.401 312.662 146.771 311.573 146.771 308.862V302.048H144.887V299.337H146.771V295.968H150.208V299.337H152.933V302.048H150.208V308.305C150.208 308.989 150.59 309.647 151.711 309.647C152.016 309.647 152.474 309.597 152.958 309.445V312.054C152.449 312.51 151.481 312.662 150.641 312.662Z" fill="white"/>
<path d="M154.309 301.136L156.651 294.524H159.605L157.237 301.136H154.309Z" fill="white"/>
<path d="M163.649 312.763C161.026 312.763 159.091 311.497 158.684 309.065L161.408 308.33C161.663 309.191 162.299 310.078 163.598 310.078C164.464 310.078 165.304 309.647 165.304 308.71C165.304 308.077 164.896 307.621 163.852 307.241L162.223 306.633C160.033 305.848 159.117 304.454 159.117 302.858C159.117 300.503 161.204 299.084 163.7 299.084C166.093 299.084 167.85 300.427 168.283 302.453L165.609 303.137C165.253 302.073 164.565 301.744 163.852 301.744C162.961 301.744 162.427 302.25 162.427 302.884C162.427 303.441 162.758 303.922 163.802 304.277L165.278 304.834C166.908 305.417 168.69 306.38 168.69 308.71C168.69 311.345 166.424 312.763 163.649 312.763Z" fill="white"/>
<path d="M49.5941 337.842V330.344C49.5941 328.469 48.6011 327.456 47.1498 327.456C45.6476 327.456 44.5782 328.469 44.5782 330.344V337.842H41.1664V324.669H44.5782V326.367C45.2911 325.252 46.5133 324.416 48.372 324.416C50.0015 324.416 51.4273 325.1 52.2421 326.62C53.0059 325.404 54.4572 324.416 56.6215 324.416C59.4222 324.416 61.4591 326.164 61.4591 330.192V337.842H58.0218V330.344C58.0218 328.469 57.0543 327.456 55.5775 327.456C54.0753 327.456 53.0059 328.469 53.0059 330.344V337.842H49.5941Z" fill="white"/>
<path d="M70.3818 338.096C66.919 338.096 63.4053 335.714 63.4053 331.256C63.4053 326.797 66.919 324.416 70.3818 324.416C73.8191 324.416 77.3582 326.797 77.3582 331.256C77.3582 335.714 73.8191 338.096 70.3818 338.096ZM66.7662 331.256C66.7662 333.612 68.4722 335.03 70.3818 335.03C72.2914 335.03 73.9718 333.612 73.9718 331.256C73.9718 328.9 72.2914 327.481 70.3818 327.481C68.4722 327.481 66.7662 328.9 66.7662 331.256Z" fill="white"/>
<path d="M83.1974 337.842L77.6468 324.669H81.135L84.8015 333.814L88.4425 324.669H91.9562L86.3801 337.842H83.1974Z" fill="white"/>
<path d="M99.1484 338.096C95.5074 338.096 92.2484 335.638 92.2484 331.256C92.2484 326.823 95.5583 324.416 98.9447 324.416C102.306 324.416 106.125 326.772 105.386 332.573H95.482C95.9657 334.372 97.5443 335.309 99.5303 335.309C100.829 335.309 101.975 334.954 102.942 334.118L104.495 335.765C103.4 337.133 101.491 338.096 99.1484 338.096ZM95.431 330.091H102.357C102.153 328.216 100.574 327.279 98.9702 327.279C97.3916 327.279 95.8639 328.191 95.431 330.091Z" fill="white"/>
<path d="M107.278 332.294V329.457H115.171V332.294H107.278Z" fill="white"/>
<path d="M117.625 337.842V324.669H121.037V337.842H117.625ZM117.625 322.846V319.856H121.037V322.846H117.625Z" fill="white"/>
<path d="M123.642 337.842V324.669H127.054V326.468C127.793 325.303 129.117 324.416 131.103 324.416C133.827 324.416 136.119 326.088 136.119 330.091V337.842H132.707V330.648C132.707 328.723 131.663 327.456 129.881 327.456C128.124 327.456 127.054 328.723 127.054 330.648V337.842H123.642Z" fill="white"/>
<path d="M54.4543 239.306V213.924H11.2314V193.051L54.4543 134.888H78.9444V193.051H89.3805V213.924H78.9444V239.306H54.4543ZM37.6174 193.051H54.4543V167.17L37.6174 193.051Z" fill="white"/>
<path d="M130.152 235.074C111.924 235.074 94.5301 223.664 94.5301 203.348C94.5301 190.686 101.348 181.502 108.862 177.606C105.105 174.266 100.513 168.283 100.513 159.517C100.513 145.88 111.784 133.496 130.152 133.496C148.52 133.496 159.651 145.88 159.651 159.517C159.651 168.283 155.06 174.266 151.442 177.606C158.956 181.502 165.635 190.686 165.635 203.348C165.635 223.664 148.241 235.074 130.152 235.074ZM118.603 201.818C118.603 208.358 123.612 213.367 130.152 213.367C136.692 213.367 141.562 208.219 141.562 201.818C141.562 194.582 135.857 190.408 130.152 190.408C124.308 190.408 118.603 194.582 118.603 201.818ZM122.36 161.326C122.36 165.222 124.864 168.979 130.152 168.979C135.301 168.979 137.805 165.222 137.805 161.326C137.805 156.456 133.77 153.812 130.152 153.812C126.395 153.812 122.36 156.456 122.36 161.326Z" fill="white"/>
<path d="M35.6224 278.581V255.225H21.3799V278.581H11.2314V223.361H21.3799V245.826H35.6224V223.361H45.7709V278.581H35.6224Z" fill="white"/>
<path d="M65.4061 279.164C57.5064 279.164 49.3761 273.735 49.3761 263.402C49.3761 253.068 57.5064 247.639 65.4061 247.639C73.2481 247.639 81.3784 253.068 81.3784 263.402C81.3784 273.735 73.2481 279.164 65.4061 279.164ZM59.1786 263.402C59.1786 267.43 61.9464 270.115 65.4061 270.115C68.8081 270.115 71.5759 267.43 71.5759 263.402C71.5759 259.373 68.8081 256.688 65.4061 256.688C61.9464 256.688 59.1786 259.373 59.1786 263.402Z" fill="white"/>
<path d="M114.636 248.223L114.579 278.581H104.603V275.019C102.873 277.471 100.048 279.164 96.0691 279.164C90.0146 279.164 84.9404 275.37 84.9404 266.087L84.998 248.223H94.9735L94.9158 264.336C94.9158 267.488 96.4151 270.232 99.8171 270.232C103.161 270.232 104.603 267.488 104.603 264.336L104.661 248.223H114.636Z" fill="white"/>
<path d="M119.685 278.581V248.223H129.661V256.513C130.641 251.492 133.524 247.639 138.829 247.639C139.521 247.639 140.27 247.697 141.078 247.931V257.564C140.328 257.388 139.694 257.33 138.887 257.33C132.89 257.33 129.661 261.3 129.661 266.788V278.581H119.685Z" fill="white"/>
<path d="M154.157 279.164C147.987 279.164 143.317 276.362 142.394 270.407L150.236 268.247C150.64 269.298 151.332 271.341 153.984 271.341C155.368 271.341 156.521 270.699 156.521 269.415C156.521 268.773 156.175 267.955 154.618 267.488L150.236 265.854C145.277 264.102 143.144 260.775 143.144 256.863C143.144 251.025 148.391 247.639 154.445 247.639C160.327 247.639 164.594 251.025 165.574 256.104L157.79 258.031C157.155 255.695 155.714 255.345 154.849 255.345C153.292 255.345 152.773 256.396 152.773 257.038C152.773 257.739 153.177 258.556 154.907 259.023L159.001 260.541C161.884 261.475 166.324 263.752 166.324 269.415C166.324 275.545 161.134 279.164 154.157 279.164Z" fill="white"/>
</svg>
