<svg width="392" height="537" viewBox="0 0 392 537" fill="none" xmlns="http://www.w3.org/2000/svg">
<g opacity="0.5">
<path d="M20.7109 508.114C14.2023 519.948 58.9244 530.796 82.099 534.741H363.151L124.995 494.062C92.9455 493.815 27.2195 496.281 20.7109 508.114Z" fill="#50128C"/>
<path d="M28.1054 437.113L0 471.874H34.7619L63.6069 437.113H28.1054Z" fill="#50128C"/>
<path d="M45.1165 424.539H76.9199L124.995 429.716L87.2745 437.113L45.1165 424.539Z" fill="#50128C"/>
<path d="M59.9088 471.874L82.099 461.52L111.682 471.874H59.9088Z" fill="#50128C"/>
</g>
<path d="M163.533 524.856C165.773 529.062 167.492 530.338 163.846 534.818H98.4694C95.0313 530.99 96.2294 528.71 99.4071 525.481C120.752 524.231 142.162 524.947 163.533 524.856Z" fill="#86462D"/>
<path d="M330.997 331.866C333.563 335.694 323.248 334.561 321.659 333.728C321.334 331.032 328.992 331.566 330.997 331.866Z" fill="#F0E6E0"/>
<path d="M192.776 332.496C193.375 335.231 184.48 334.606 183.751 334.359C182.67 334.007 182.918 332.509 182.813 332.496C185.822 330.738 190.041 332.496 192.776 332.496Z" fill="#F0E6E0"/>
<path d="M203.379 320.665C203.795 320.665 203.444 321.85 207.741 321.915C208.588 321.915 209.421 321.915 210.229 321.915C211.7 321.928 213.172 321.902 214.592 321.915C215.438 321.915 216.272 321.915 217.079 321.915C229.073 322.059 241.159 322.423 253.192 322.54C258.571 322.592 263.988 322.54 269.38 322.54C271.034 322.54 272.701 322.54 274.355 322.54C279.538 322.527 284.734 322.579 289.918 322.54C301.977 322.449 313.984 322.176 326.031 321.915C327.033 321.889 328.062 321.941 329.143 321.915C329.339 321.915 331.396 322.579 332.881 322.54C334.118 322.501 335.381 322.579 336.619 322.54C340.656 322.397 339.523 321.303 339.731 321.29C347.91 320.925 363.368 317.487 367.119 326.265C370.791 344.471 365.66 370.426 367.744 389.453C368.473 391.107 378.801 390.612 380.819 395.366C380.611 394.91 371.117 395.21 370.856 396.303C372.992 399.716 377.602 398.465 380.819 397.554C380.689 396.929 381.014 395.783 380.819 395.379C381.965 398.088 382.082 445.414 381.444 450.779C378.136 451.274 372.94 450.102 369.932 450.779C367.848 451.248 367.887 452.59 367.757 452.642C364.566 450.076 359.018 452.59 355.307 452.642C355.242 452.642 355.502 451.391 354.994 451.391C352.624 451.43 353.536 452.629 353.431 452.642C352.845 452.668 352.767 452.003 352.181 452.016C353.418 450.219 351.764 450.805 350.618 450.766C345.396 450.61 342.857 451.509 338.481 452.016C336.072 452.29 330.602 450.949 330.393 453.267C329.56 452.915 330.146 451.352 327.593 450.779C322.775 449.698 317.136 451.704 312.968 452.03C309.478 452.29 301.3 450.493 299.893 453.892C298.708 453.449 300.193 452.863 298.031 452.03C290.543 449.151 282.612 445.817 279.356 437.717C281.192 438.264 281.309 441.884 283.093 439.892C277.663 432.651 277.337 421.829 280.606 413.741C279.759 413.325 279.108 412.817 278.119 412.804C277.415 406.904 293.46 400.445 293.681 399.416C293.955 398.179 291.91 397.02 290.569 397.241C285.75 397.606 275.761 403.531 274.381 408.754C274.303 409.027 275.618 408.233 275.006 410.928C266.059 422.597 267.335 437.001 276.256 449.842C293.486 474.664 329.469 462.656 355.32 464.467C356.349 469.468 357.56 465.144 357.807 465.092C361.193 464.284 364.345 464.402 367.77 464.467C366.389 485.72 368.799 508.42 367.77 529.83C366.975 531.861 365.66 533.359 364.032 534.805L82.9536 536.055C79.5806 533.841 79.2941 530.194 78.2783 526.717C79.6327 525.493 77.9527 525.246 80.4532 524.855C85.6234 524.048 94.0754 524.959 99.4409 525.48C96.2633 528.723 95.0782 530.989 98.5033 534.818H163.866C167.513 530.338 165.794 529.074 163.554 524.855C220.374 524.608 277.09 526.131 333.819 525.48C336.697 525.441 353.874 525.22 354.981 524.855C356.179 524.464 356.088 523.383 355.294 522.368C353.913 520.596 350.579 521.065 348.444 521.117C342.01 521.287 346.138 522.641 344.081 523.605C344.315 523.006 343.755 521.221 343.456 521.117C338.572 521.117 327.476 519.45 323.218 520.492C321.355 520.948 321.928 522.693 321.043 522.98C321.251 522.537 320.509 521.143 320.418 521.117C318.126 520.401 313.659 519.932 311.393 520.492C309.53 520.948 310.103 522.693 309.218 522.98C309.426 522.537 308.684 521.143 308.593 521.117H289.292C288.029 521.313 287.287 521.456 287.43 522.98C286.505 522.511 287.105 521 285.255 520.492C284.239 520.206 265.095 520.154 264.093 520.492C261.67 521.3 263.129 523.071 261.918 523.605C262.048 518.33 253.713 522.172 252.58 522.354C250.991 522.615 250.627 522.888 250.093 522.98C250.197 522.368 249.845 521.521 249.468 521.117C247.67 519.203 241.836 521.287 239.817 521.117C230.154 520.31 226.013 519.034 215.855 520.492L185.667 519.867C156.73 461.185 130.827 399.689 114.392 335.902L353.757 335.59C354.669 340.708 353.34 345.722 353.444 350.84C353.444 351.452 355.307 351.882 355.307 352.09C355.424 356.231 351.217 363.147 355.619 367.34C357.99 367.991 356.935 365.868 357.182 365.478C357.625 364.761 357.794 364.892 357.807 364.853C359.995 358.94 359.37 358.068 357.182 351.777C358.38 348.899 357.638 345.487 357.807 342.44C357.976 339.119 359.357 335.59 357.807 332.164C356.492 331.136 353.015 331.917 351.582 331.852C349.238 331.748 347.636 332.034 345.357 332.477C344.836 332.581 344.693 331.696 343.794 331.852C343.273 331.943 343.872 332.894 342.857 333.102C341.711 331.175 333.428 330.823 333.519 333.727C332.295 333.454 334.079 332.295 331.032 331.865C329.026 331.578 321.368 331.044 321.694 333.727C320.092 332.907 322.567 332.204 319.207 331.865C316.498 331.591 312.487 331.604 309.869 332.49C309.049 332.334 308.41 332.008 307.382 331.865C304.243 331.448 301.13 332.021 298.044 332.49C296.208 332.764 296.742 333.011 296.182 333.115C295.036 331.188 286.753 330.836 286.844 333.74C285.62 333.467 287.404 332.308 284.357 331.878C281.531 331.474 278.431 331.904 275.644 332.503C275.136 332.607 274.98 331.722 274.081 331.878C273.56 331.969 274.159 332.933 273.144 333.128C272.414 331.031 263.454 330.992 263.806 333.753C263.233 333.662 263.702 333.389 261.944 333.128C261.866 333.128 261.527 331.969 261.006 331.878C257.998 331.383 254.924 332.138 251.981 332.503C251.916 332.503 252.202 331.474 251.669 331.253C250.822 331.722 250.965 332.711 250.106 333.115C248.869 330.992 244.05 331.93 241.393 331.865C240.182 331.839 239.505 331.826 238.281 331.865C235.689 331.943 229.633 330.732 229.568 333.727C228.331 333.454 230.128 332.308 227.081 331.865C224.554 331.5 220.244 331.683 217.743 332.49C216.923 332.334 216.285 332.008 215.256 331.865C212.677 331.526 208.445 331.657 205.918 332.49C205.111 332.334 204.447 332.008 203.431 331.865C200.357 331.448 197.167 332.503 194.718 332.49C194.08 332.49 193.494 332.49 192.856 332.49C190.121 332.49 185.902 330.732 182.893 332.49C181.956 332.269 182.268 332.06 180.406 331.865C178.179 331.631 172.605 331.24 171.693 333.115C171.238 333.024 171.381 332.816 169.831 332.49C166.666 331.839 162.603 330.875 159.868 333.115C159.79 333.089 160.285 331.644 158.931 331.865C158.449 331.943 159.009 332.685 157.993 333.115C156.691 330.94 151.143 331.696 148.655 332.49C148.447 332.373 147.444 330.901 146.481 330.628L113.48 331.253V320.665C143.446 321.004 173.504 320.222 203.444 320.665H203.379Z" fill="#86462D"/>
<path d="M355.593 482.527C358.341 480.209 358.589 492.32 356.843 493.727C354.395 494.378 355.151 482.905 355.593 482.527Z" fill="#F0E6E0"/>
<path d="M356.215 381.041C358.52 380.429 358.325 390.744 356.84 392.241C354.405 392.892 354.874 381.393 356.215 381.041Z" fill="#F0E6E0"/>
<path d="M333.819 395.378C334.6 395.065 349.85 395.065 350.632 395.378C361.18 399.663 323.544 399.571 333.819 395.378Z" fill="#F0E6E0"/>
<path d="M305.18 395.382C306.143 395.382 318.607 395.812 312.03 398.495C311.262 398.807 295.673 398.99 295.53 398.182C295.113 395.799 303.278 395.395 305.18 395.382Z" fill="#F0E6E0"/>
<path d="M317.302 429.634C312.21 429.868 297.26 427.511 293.34 428.384C291.152 428.879 295.645 432.108 291.777 432.746C288.808 426.521 289.133 421.755 293.027 415.934C294.525 416.311 295.111 415.387 296.14 414.683C304.11 414.006 316.703 420.96 317.302 429.621V429.634Z" fill="#FEEA8E"/>
<path d="M317.303 429.64C317.615 434.12 314.828 433.937 313.878 437.727L320.415 432.127C314.854 444.186 297.377 444.486 291.777 432.752C295.632 432.114 291.152 428.884 293.34 428.389C297.26 427.517 312.224 429.861 317.303 429.64Z" fill="#FEEA8E"/>
<path d="M321.038 430.882C316.753 433.551 319.905 426.011 319.175 424.344C318.993 423.914 313.224 418.236 312.638 417.807C309.76 415.658 303.469 412.806 299.875 412.832C307.077 408.716 313.471 414.394 318.55 418.744C317.795 417.728 313.041 411.803 312.638 411.581C311.596 411.034 303.834 411.412 302.362 409.094C315.581 406.242 325.14 418.249 321.038 430.882Z" fill="#FEEA8E"/>
<path d="M299.868 412.817C303.463 412.791 309.753 415.643 312.631 417.791C313.217 418.221 318.986 423.899 319.169 424.329C319.898 425.996 316.76 433.536 321.031 430.867C320.719 431.83 320.51 431.896 320.406 432.117L313.868 437.717C314.819 433.914 317.606 434.109 317.293 429.629C316.694 420.969 304.101 414.015 296.131 414.692C297.655 413.663 296.352 412.843 299.868 412.83V412.817Z" fill="#FDF5CD"/>
<path d="M302.363 409.1C303.835 411.418 311.597 411.041 312.639 411.588C313.055 411.809 317.796 417.734 318.551 418.75C313.472 414.401 307.078 408.722 299.876 412.838C296.36 412.864 297.662 413.671 296.138 414.7C295.11 415.403 294.524 416.315 293.026 415.95C295.266 412.603 298.365 409.973 302.363 409.1Z" fill="#E0B548"/>
<path d="M324.476 395.38C325.609 395.406 334.217 396.291 328.839 398.492C322.301 401.162 306.074 394.95 324.476 395.38Z" fill="#F0E6E0"/>
<path d="M290.538 397.234C286.866 397.82 277.476 407.666 274.976 410.935C275.601 408.239 274.285 409.033 274.35 408.76C275.731 403.538 285.72 397.612 290.538 397.247V397.234Z" fill="#5C2D1C"/>
<path d="M354.98 395.374C356.347 395.595 371.116 394.28 368.368 397.549C367.821 398.187 350.448 399.424 354.98 395.374Z" fill="#F0E6E0"/>
<path d="M380.813 395.376C381.009 395.78 380.683 396.939 380.813 397.551C377.597 398.476 372.986 399.726 370.851 396.301C371.111 395.22 380.592 394.92 380.813 395.363V395.376Z" fill="#F0E6E0"/>
<path d="M356.224 509.3C358.789 508.636 358.242 520.786 356.224 520.5V509.3Z" fill="#F0E6E0"/>
<path d="M355.595 469.448C358.434 467.052 358.499 479.515 356.845 480.036C354.28 480.844 355.165 469.826 355.595 469.448Z" fill="#F0E6E0"/>
<path d="M355.593 496.229C358.289 493.963 358.614 505.489 356.843 506.817C354.395 507.468 355.163 496.594 355.593 496.229Z" fill="#F0E6E0"/>
<path d="M355.593 367.99C358.289 365.723 358.614 377.249 356.843 378.577C354.395 379.229 355.163 368.354 355.593 367.99Z" fill="#F0E6E0"/>
<path d="M273.103 333.124C273.103 333.124 273.337 334.205 272.791 334.374C270.446 335.065 266.201 334.166 263.765 333.749C263.414 330.988 272.374 331.027 273.103 333.124Z" fill="#F0E6E0"/>
<path d="M296.145 333.128C296.145 333.128 296.367 334.261 295.833 334.378C293.254 334.938 289.399 334.326 286.808 333.753C286.717 330.849 294.999 331.2 296.145 333.128Z" fill="#F0E6E0"/>
<path d="M342.83 333.128C342.83 333.128 343.064 334.209 342.517 334.378C340.29 335.029 335.823 334.261 333.492 333.753C333.401 330.849 341.684 331.2 342.83 333.128Z" fill="#F0E6E0"/>
<path d="M261.892 523.618C261.345 523.852 251.721 524.217 252.554 522.367C253.687 522.185 262.022 518.33 261.892 523.618Z" fill="#F0E6E0"/>
<path d="M157.923 333.119C157.858 333.145 158.158 334.213 157.611 334.369C157.011 334.539 149.289 334.552 148.898 334.369C148.273 334.07 148.729 332.585 148.586 332.507C151.073 331.713 156.621 330.957 157.923 333.132V333.119Z" fill="#F0E6E0"/>
<path d="M180.322 331.874C183.07 335.26 173.355 334.674 171.923 334.361C171.389 334.244 171.675 333.124 171.61 333.111C172.535 331.236 178.096 331.626 180.322 331.861V331.874Z" fill="#F0E6E0"/>
<path d="M202.739 316.307C203.038 317.688 203.781 318.964 203.364 320.67C173.437 320.227 143.379 321.009 113.4 320.67V331.258L146.401 330.633C147.378 330.906 148.38 332.378 148.576 332.495C148.719 332.573 148.263 334.058 148.888 334.357C149.279 334.54 157.002 334.527 157.601 334.357C158.148 334.201 157.835 333.146 157.913 333.107C158.929 332.69 158.356 331.948 158.851 331.857C160.205 331.636 159.71 333.068 159.789 333.107C161.703 333.862 168.553 336.454 169.751 332.482C171.301 332.795 171.158 333.016 171.614 333.107C171.679 333.107 171.392 334.24 171.926 334.357C173.359 334.67 183.087 335.256 180.326 331.87C182.201 332.065 181.876 332.274 182.814 332.495C182.918 332.521 182.67 334.006 183.751 334.357C184.493 334.605 193.388 335.217 192.776 332.495C193.414 332.495 194 332.495 194.639 332.495C193.961 335.725 206.477 335.191 203.351 331.87C204.38 332.013 205.031 332.339 205.838 332.495C205.943 332.508 205.695 334.019 206.776 334.357C207.779 334.683 218.106 335.243 215.176 331.87C216.205 332.013 216.856 332.339 217.663 332.495C217.768 332.508 217.52 334.019 218.601 334.357C219.604 334.683 229.931 335.243 227.001 331.87C230.061 332.313 228.264 333.459 229.488 333.732C231.533 334.188 240.272 336.05 238.201 331.87C239.425 331.831 240.102 331.844 241.313 331.87C238.318 335.256 248.893 334.67 249.713 334.357C250.273 334.149 249.948 333.146 250.026 333.107C250.872 332.703 250.742 331.701 251.589 331.245C252.123 331.466 251.836 332.495 251.901 332.495C251.901 335.438 260.588 335.035 261.864 333.12C263.622 333.368 263.153 333.641 263.726 333.745C266.162 334.149 270.407 335.061 272.751 334.37C273.298 334.214 272.999 333.133 273.064 333.12C274.08 332.938 273.481 331.974 274.002 331.87C274.9 331.714 275.043 332.599 275.564 332.495C273.728 335.556 287.598 335.347 284.277 331.87C287.337 332.313 285.54 333.472 286.764 333.732C289.356 334.292 293.211 334.917 295.789 334.357C296.323 334.24 296.037 333.12 296.102 333.107C296.675 333.003 296.128 332.756 297.964 332.482C297.743 335.542 310.258 335.347 307.302 331.857C308.331 332 308.982 332.326 309.789 332.482C309.893 332.495 309.646 334.006 310.727 334.344C311.73 334.67 322.057 335.23 319.127 331.857C322.5 332.209 320.012 332.899 321.614 333.719C323.216 334.54 333.517 335.673 330.952 331.857C334.012 332.3 332.215 333.459 333.439 333.719C335.77 334.227 340.237 334.996 342.464 334.344C343.011 334.188 342.712 333.107 342.777 333.094C343.793 332.886 343.194 331.948 343.715 331.844C344.613 331.688 344.743 332.573 345.277 332.469C343.806 335.829 351.515 333.797 353.065 334.331L351.502 331.844C352.935 331.909 356.412 331.115 357.727 332.156C359.277 335.582 357.897 339.098 357.727 342.432C354.354 339.528 354.914 349.751 355.24 350.832C355.566 351.913 357.076 351.665 357.102 351.769C359.29 358.06 359.902 358.919 357.727 364.845C357.05 361.927 359.329 355.598 356.165 354.257C355.123 354.53 353.833 365.548 357.102 365.457C356.855 365.847 357.91 367.97 355.54 367.319C351.138 363.126 355.344 356.197 355.227 352.069C355.227 351.86 353.378 351.431 353.365 350.819C353.26 345.688 354.589 340.687 353.677 335.569L114.312 335.881C130.747 399.668 156.65 461.164 185.587 519.846L215.775 520.471C214.303 520.68 211.842 519.833 210.8 521.096C209.85 520.94 208.691 521.2 207.688 521.096C204.497 520.758 200.864 519.755 197.725 521.096C196.358 521.135 195.212 520.823 193.987 521.721C184.845 519.442 177.917 521.266 168.775 521.096C162.94 520.992 155.296 519.664 149.474 519.846C147.325 519.911 135.24 520.237 134.537 520.471C133.313 520.875 134.016 522.594 132.974 522.959C133.117 522.216 132.713 521.656 132.349 521.096C131.086 519.104 93.2142 521.253 87.8357 521.096C86.5073 521.057 78.3027 520.719 77.873 520.471C76.9483 519.937 78.4851 515.692 76.3102 518.609C66.5298 467.089 66.7903 402.768 73.8228 350.832C74.4479 346.248 78.4981 317.909 80.673 316.594L202.687 316.281L202.739 316.307Z" fill="#703720"/>
<path d="M357.747 364.875C357.747 364.875 357.564 364.784 357.122 365.5C353.853 365.591 355.142 354.574 356.184 354.3C359.336 355.629 357.07 361.971 357.747 364.888V364.875Z" fill="#F0E6E0"/>
<path d="M357.753 342.469C357.596 345.516 358.339 348.928 357.128 351.806C357.088 351.702 355.578 351.937 355.265 350.869C354.953 349.801 354.393 339.565 357.753 342.469Z" fill="#F0E6E0"/>
<path d="M319.152 331.877C322.082 335.25 311.754 334.69 310.752 334.364C309.671 334.013 309.918 332.515 309.814 332.502C312.432 331.629 316.443 331.603 319.152 331.877Z" fill="#F0E6E0"/>
<path d="M307.324 331.867C310.28 335.358 297.765 335.553 297.986 332.492C301.073 332.024 304.185 331.451 307.324 331.867Z" fill="#F0E6E0"/>
<path d="M261.878 333.128C260.615 335.042 251.916 335.459 251.916 332.503C254.859 332.138 257.932 331.383 260.941 331.877C261.462 331.969 261.8 333.115 261.878 333.128Z" fill="#F0E6E0"/>
<path d="M215.181 331.874C218.111 335.247 207.784 334.687 206.781 334.361C205.7 334.01 205.947 332.512 205.843 332.499C208.37 331.665 212.602 331.535 215.181 331.874Z" fill="#F0E6E0"/>
<path d="M227.009 331.875C229.94 335.248 219.612 334.688 218.61 334.363C217.529 334.011 217.776 332.513 217.672 332.5C220.172 331.693 224.483 331.511 227.009 331.875Z" fill="#F0E6E0"/>
<path d="M284.281 331.877C287.602 335.341 273.72 335.562 275.569 332.502C278.356 331.903 281.468 331.473 284.281 331.877Z" fill="#F0E6E0"/>
<path d="M169.748 332.493C168.55 336.465 161.7 333.874 159.785 333.118C162.52 330.891 166.57 331.842 169.748 332.493Z" fill="#F0E6E0"/>
<path d="M250.046 333.126C249.968 333.165 250.293 334.168 249.733 334.376C248.9 334.676 238.325 335.275 241.333 331.889C243.99 331.954 248.809 331.016 250.046 333.139V333.126Z" fill="#F0E6E0"/>
<path d="M203.359 331.872C206.485 335.193 193.956 335.727 194.647 332.498C197.095 332.511 200.299 331.456 203.359 331.872Z" fill="#F0E6E0"/>
<path d="M238.219 331.873C240.29 336.067 231.551 334.191 229.507 333.736C229.572 330.74 235.628 331.952 238.219 331.873Z" fill="#F0E6E0"/>
<path d="M351.53 331.877L353.093 334.364C351.543 333.83 343.846 335.849 345.305 332.502C347.584 332.059 349.186 331.786 351.53 331.877Z" fill="#ECF1ED"/>
<path d="M79.7835 331.873C80.9947 331.444 90.3192 331.561 90.0588 333.436C89.1341 336.002 74.3138 333.788 79.7835 331.873Z" fill="#F0E6E0"/>
<path d="M137.689 331.875C138.497 331.588 146.949 331.184 146.714 333.437C146.024 336.016 132.35 333.737 137.689 331.875Z" fill="#F0E6E0"/>
<path d="M115.268 331.879C116.349 331.424 125.817 331.515 123.668 334.054C122.613 335.305 109.59 334.276 115.268 331.879Z" fill="#F0E6E0"/>
<path d="M104.066 331.87C104.613 331.635 112.844 331.179 112.466 333.432C111.867 335.698 98.4924 334.227 104.066 331.87Z" fill="#F0E6E0"/>
<path d="M92.8588 331.87C93.4057 331.635 101.636 331.179 101.259 333.432C100.66 335.698 87.2849 334.227 92.8588 331.87Z" fill="#F0E6E0"/>
<path d="M127.098 331.87C128.4 331.505 136.982 331.557 134.886 334.044C133.466 335.724 121.159 333.524 127.098 331.87Z" fill="#F0E6E0"/>
<path d="M355.57 333.129C357.914 333.051 358.682 339.211 356.82 340.604C354.684 341.177 354.723 333.155 355.57 333.129Z" fill="#F0E6E0"/>
<path d="M279.322 437.696C271.521 435.351 281.366 445.848 283.059 447.658C285.456 450.211 287.513 452.607 291.147 453.571L290.209 455.746C278.684 451.904 271.013 442.098 269.971 429.908L273.709 428.97C273.813 429.53 275.428 437.552 276.821 433.645C277.082 432.916 276.86 420.114 276.821 418.083C276.795 416.689 276.613 415.817 274.959 415.908C275.154 414.215 275.454 414.085 275.584 413.421C276.717 413.876 277.564 412.795 278.072 412.795C279.061 412.795 279.713 413.303 280.559 413.733C277.29 421.82 277.629 432.643 283.046 439.884C281.275 441.876 281.145 438.256 279.309 437.709L279.322 437.696Z" fill="#5C2D1C"/>
<path d="M279.322 437.691C282.578 445.791 290.509 449.125 297.998 452.003C295.028 457.238 286.459 449.06 283.06 447.64C281.367 445.843 271.522 435.333 279.322 437.678V437.691Z" fill="#F0E6E0"/>
<path d="M278.062 412.795C277.541 412.795 276.695 413.876 275.575 413.42C275.64 413.069 274.624 412.339 274.95 410.933C277.45 407.677 286.84 397.819 290.512 397.233C291.854 397.024 293.898 398.17 293.625 399.408C293.404 400.436 277.359 406.896 278.062 412.795Z" fill="#F0E6E0"/>
<path d="M367.724 452.645C367.607 452.684 366.773 454.338 366.161 454.507C364.572 454.963 355.782 455.184 355.261 452.645C358.972 452.592 364.533 450.079 367.711 452.645H367.724Z" fill="#F0E6E0"/>
<path d="M273.722 428.977C272.329 421.463 274.36 421.241 274.973 415.902C276.626 415.811 276.822 416.696 276.835 418.077C276.874 420.108 277.095 432.91 276.835 433.639C275.441 437.559 273.827 429.537 273.722 428.964V428.977Z" fill="#F0E6E0"/>
<path d="M274.963 410.929C274.637 412.335 275.653 413.078 275.588 413.416C275.458 414.08 275.158 414.211 274.963 415.904C274.364 421.243 272.319 421.451 273.712 428.979L269.975 429.916C271.017 442.106 278.687 451.9 290.213 455.754L291.15 453.58C287.517 452.616 285.459 450.22 283.063 447.667C286.462 449.087 295.031 457.265 298.001 452.03C300.176 452.863 298.691 453.449 299.863 453.892C301.816 454.634 313.759 456.132 312.938 452.03C317.106 451.717 322.745 449.699 327.563 450.78C330.116 451.353 329.53 452.915 330.363 453.267C332.239 454.048 338.398 456.809 338.451 452.017C342.826 451.509 345.366 450.61 350.588 450.767C351.721 450.806 353.375 450.22 352.151 452.017C350.445 452.069 341.745 451.73 341.251 452.017C336.94 454.478 353.818 456.419 353.388 452.642C353.492 452.642 352.581 451.431 354.951 451.392C355.459 451.392 355.198 452.642 355.263 452.642C355.784 455.181 364.575 454.973 366.164 454.504C366.776 454.335 367.609 452.681 367.727 452.642C367.857 452.59 367.818 451.248 369.901 450.78C372.923 450.102 378.119 451.274 381.414 450.78C380.033 462.318 369.407 454.113 367.714 457.942C367.388 458.672 367.805 463.034 367.714 464.48C364.288 464.415 361.137 464.298 357.751 465.105L356.813 457.018C354.69 456.458 355.029 463.386 355.25 464.493C329.399 462.67 293.417 474.69 276.187 449.868C267.279 437.027 265.99 422.623 274.937 410.955L274.963 410.929Z" fill="#5C2D1C"/>
<path d="M357.759 465.094C357.512 465.146 356.301 469.47 355.272 464.469C355.051 463.375 354.712 456.434 356.835 456.994L357.773 465.081L357.759 465.094Z" fill="#F0E6E0"/>
<path d="M312.929 452.028C313.762 456.13 301.807 454.632 299.854 453.89C301.26 450.478 309.439 452.288 312.929 452.028Z" fill="#F0E6E0"/>
<path d="M352.16 452.024C352.746 452.011 352.824 452.662 353.41 452.649C353.84 456.426 336.948 454.486 341.272 452.024C341.767 451.738 350.453 452.076 352.173 452.024H352.16Z" fill="#F0E6E0"/>
<path d="M338.449 452.027C338.384 456.806 332.224 454.045 330.361 453.277C330.583 450.972 336.052 452.313 338.449 452.027Z" fill="#F0E6E0"/>
<path d="M371.769 451.399C373.292 451.021 381.406 450.722 380.169 453.574C378.931 456.426 363.251 453.535 371.769 451.399Z" fill="#F0E6E0"/>
<path d="M316.351 452.019C316.807 451.759 326.431 451.85 326.939 452.019C335.065 454.78 309.683 455.809 316.351 452.019Z" fill="#F0E6E0"/>
<path d="M132.398 521.117C131.043 521.443 122.383 520.075 123.06 522.68C125.495 524.308 130.457 523.904 133.023 522.993C134.065 522.628 133.361 520.909 134.586 520.505C135.289 520.271 147.374 519.958 149.523 519.88C155.344 519.685 162.989 521.026 168.823 521.13C177.966 521.287 184.894 519.476 194.036 521.755C194.14 521.782 193.893 523.279 194.974 523.618C200.834 525.506 210.497 520.753 197.774 521.13C200.912 519.789 204.546 520.792 207.737 521.13L206.174 523.618C209.964 524.243 221.437 522.901 210.849 521.13C211.904 519.867 214.352 520.714 215.824 520.505C225.995 519.047 230.123 520.323 239.787 521.13C241.805 521.3 247.639 519.216 249.437 521.13C246.363 521.56 242.157 519.867 240.099 522.693C240.373 524.712 248.72 523.227 250.062 523.006C250.596 522.915 250.96 522.641 252.549 522.381C251.716 524.217 261.353 523.865 261.887 523.631C263.098 523.097 261.652 521.326 264.062 520.518C265.064 520.18 284.208 520.232 285.224 520.518C287.087 521.026 286.488 522.55 287.399 523.006C287.464 523.045 287.816 524.139 288.337 524.256C296.828 526.079 302.649 519.021 289.275 521.143H308.575C307.351 520.675 299.993 520.701 299.237 522.706C299.485 524.516 307.663 523.501 309.2 523.019C310.098 522.732 309.512 520.987 311.375 520.531C313.641 519.971 318.121 520.44 320.4 521.156C319.71 520.896 310.789 520.44 311.062 522.719C311.544 524.542 319.436 523.54 321.025 523.032C321.924 522.745 321.337 521 323.2 520.544C327.458 519.502 338.554 521.169 343.438 521.169C342.266 520.74 332.55 520.766 334.725 523.344C335.025 523.709 343.529 523.904 344.063 523.657C346.121 522.693 341.979 521.339 348.426 521.169L346.863 523.657L355.263 522.407C356.057 523.435 356.148 524.516 354.95 524.894C353.843 525.246 336.666 525.48 333.788 525.519C277.059 526.183 220.343 524.647 163.523 524.894C142.152 524.985 120.742 524.269 99.397 525.519C94.0315 524.998 85.5794 524.087 80.4092 524.894C77.9088 525.285 79.5888 525.545 78.2344 526.756C77.453 524.074 76.893 521.404 76.3721 518.669C78.5339 515.765 76.9972 519.997 77.9348 520.531C78.3646 520.779 86.5692 521.117 87.8976 521.156C93.2761 521.313 131.134 519.164 132.411 521.156L132.398 521.117Z" fill="#5C2D1C"/>
<path d="M289.268 521.112C302.643 518.989 296.835 526.048 288.331 524.225C287.81 524.121 287.471 523.014 287.393 522.975C287.263 521.451 287.992 521.308 289.255 521.112H289.268Z" fill="#F0E6E0"/>
<path d="M320.395 521.114C320.486 521.153 321.229 522.546 321.02 522.976C319.431 523.484 311.539 524.487 311.057 522.664C310.784 520.398 319.705 520.84 320.395 521.101V521.114Z" fill="#F0E6E0"/>
<path d="M249.422 521.116C249.799 521.519 250.151 522.366 250.047 522.978C248.705 523.199 240.37 524.684 240.084 522.665C242.142 519.852 246.348 521.546 249.422 521.103V521.116Z" fill="#F0E6E0"/>
<path d="M308.571 521.116C308.663 521.155 309.405 522.549 309.197 522.978C307.66 523.46 299.481 524.476 299.234 522.666C299.989 520.66 307.347 520.647 308.571 521.103V521.116Z" fill="#ECF1ED"/>
<path d="M343.439 521.115C343.738 521.219 344.298 523.003 344.064 523.602C343.53 523.849 335.026 523.654 334.726 523.289C332.551 520.711 342.267 520.685 343.439 521.115Z" fill="#F0E6E0"/>
<path d="M348.401 521.109C350.537 521.056 353.871 520.588 355.251 522.359L346.852 523.609L348.414 521.122L348.401 521.109Z" fill="#F0E6E0"/>
<path d="M132.378 521.106C132.742 521.666 133.133 522.226 133.003 522.969C130.437 523.88 125.475 524.284 123.04 522.656C122.363 520.064 131.023 521.419 132.378 521.093V521.106Z" fill="#F0E6E0"/>
<path d="M197.763 521.106C210.487 520.728 200.823 525.494 194.963 523.593C193.882 523.241 194.13 521.757 194.025 521.731C195.237 520.832 196.396 521.145 197.763 521.106Z" fill="#F0E6E0"/>
<path d="M207.721 521.116C208.724 521.22 209.883 520.959 210.834 521.116C221.422 522.887 209.961 524.228 206.159 523.603L207.721 521.116Z" fill="#F0E6E0"/>
<path d="M183.112 521.116C184.258 520.791 192.71 520.543 192.137 522.679C190.848 525.362 177.056 522.809 183.112 521.116Z" fill="#F0E6E0"/>
<path d="M276.504 521.115C277.038 520.894 285.893 520.399 285.529 522.678C284.93 524.918 270.799 523.525 276.504 521.115Z" fill="#F0E6E0"/>
<path d="M135.801 521.118C136.986 520.702 147.027 520.689 144.826 523.293C143.511 524.856 130.423 522.994 135.801 521.118Z" fill="#ECF1ED"/>
<path d="M147.641 521.113C148.448 520.826 156.9 520.423 156.666 522.676C155.976 525.254 142.301 522.975 147.641 521.113Z" fill="#F0E6E0"/>
<path d="M323.82 521.113C324.628 520.826 333.08 520.423 332.846 522.676C332.155 525.254 318.481 522.975 323.82 521.113Z" fill="#F0E6E0"/>
<path d="M264.68 521.113C265.487 520.826 273.939 520.423 273.705 522.676C273.015 525.254 259.34 522.975 264.68 521.113Z" fill="#F0E6E0"/>
<path d="M229.194 521.117C229.741 520.753 240.511 520.57 238.219 523.292C237.425 524.243 224.831 523.982 229.194 521.117Z" fill="#F0E6E0"/>
<path d="M217.975 521.111C219.16 520.694 227.261 520.877 227 522.674C225.945 525.292 212.844 522.908 217.975 521.111Z" fill="#F0E6E0"/>
<path d="M159.468 521.119C160.549 520.663 170.017 520.755 167.868 523.294C166.814 524.544 153.79 523.515 159.468 521.119Z" fill="#F0E6E0"/>
<path d="M112.783 521.119C113.864 520.663 123.332 520.755 121.183 523.294C120.128 524.544 107.105 523.515 112.783 521.119Z" fill="#F0E6E0"/>
<path d="M171.289 521.119C172.37 520.663 181.838 520.755 179.689 523.294C178.634 524.544 165.611 523.515 171.289 521.119Z" fill="#F0E6E0"/>
<path d="M79.1547 521.114C79.7016 520.879 87.9323 520.424 87.5546 522.677C86.9555 524.943 73.5808 523.471 79.1547 521.114Z" fill="#F0E6E0"/>
<path d="M90.3578 521.114C90.9048 520.88 99.1354 520.424 98.7577 522.677C98.1587 524.943 84.7839 523.472 90.3578 521.114Z" fill="#F0E6E0"/>
<path d="M101.571 521.114C102.118 520.88 110.348 520.424 109.971 522.677C109.372 524.943 95.9968 523.472 101.571 521.114Z" fill="#F0E6E0"/>
<path d="M339.081 316.309C339.381 317.859 339.238 319.721 339.706 321.284C339.498 321.284 340.631 322.378 336.594 322.534L325.081 275.846L204.93 305.734C203.068 307.766 208.147 318.732 207.73 321.922C203.432 321.87 203.797 320.685 203.367 320.672C203.784 318.966 203.041 317.69 202.742 316.309C201.895 312.441 200.997 308.521 199.629 304.797L328.181 271.497C331.879 286.33 336.203 301.307 339.081 316.322V316.309Z" fill="#4E964E"/>
<path d="M336.589 322.538C335.352 322.577 334.088 322.499 332.851 322.538L322.576 280.2L206.787 308.838L210.212 321.913C209.405 321.913 208.571 321.913 207.725 321.913C208.141 318.723 203.062 307.757 204.925 305.726L325.076 275.837L336.589 322.525V322.538Z" fill="#92CD8B"/>
<path d="M329.119 321.909C328.038 321.935 327.009 321.883 326.006 321.909L317.606 288.296L216.755 313.196C213.747 314.459 216.807 319.382 217.068 321.909C216.26 321.909 215.427 321.909 214.58 321.909C214.515 319.291 210.621 312.441 213.017 310.709L319.469 283.933L329.119 321.909Z" fill="#92CD8B"/>
<path d="M332.856 322.528C331.371 322.58 329.313 321.903 329.118 321.903L319.468 283.927L213.017 310.703C210.607 312.435 214.514 319.285 214.579 321.903C213.16 321.89 211.688 321.916 210.217 321.903L206.792 308.827L322.58 280.189L332.856 322.528Z" fill="#4E964E"/>
<path d="M326.017 321.907C313.983 322.168 301.963 322.441 289.904 322.532C286.127 298.661 255.314 295.978 253.178 322.532C241.145 322.415 229.072 322.05 217.065 321.907C216.805 319.381 213.744 314.458 216.753 313.195L317.604 288.294L326.004 321.907H326.017Z" fill="#4E964E"/>
<path d="M307.031 308.207C313.243 307.49 315.197 316.815 309.518 318.169C301.626 320.058 300.949 308.91 307.031 308.207Z" fill="#92CD8B"/>
<path d="M289.9 322.534C284.716 322.573 279.52 322.521 274.337 322.534C270.104 319.447 272.11 312.884 268.424 308.833L269.987 319.109C263.345 318.549 268.255 314.707 265.312 311.321C256.443 315.097 263.098 320.841 269.362 322.521C263.97 322.521 258.566 322.573 253.174 322.521C255.323 295.966 286.123 298.649 289.9 322.521V322.534Z" fill="#92CD8B"/>
<path d="M274.323 322.536C272.669 322.536 271.002 322.536 269.348 322.536C263.084 320.843 256.429 315.1 265.298 311.336C268.228 314.722 263.331 318.564 269.973 319.124L268.41 308.849C272.096 312.886 270.09 319.463 274.323 322.549V322.536Z" fill="#4E964E"/>
<path d="M272.77 310.707C273.89 309.86 277.067 312.361 276.82 313.507C275.986 317.296 270.295 312.595 272.77 310.707Z" fill="#4E964E"/>
<path d="M208.037 188.051L246.326 250.627L133.337 312.565L96.2988 251.864L208.037 188.051Z" fill="#4E964E"/>
<path d="M206.173 193.046L240.724 249.384L134.585 307.598L101.897 252.497L206.173 193.046Z" fill="#92CD8B"/>
<path d="M204.92 197.396L236.983 248.122L135.194 303.848L105.007 254.347L204.92 197.396Z" fill="#4E964E"/>
<path d="M203.681 202.373L231.381 246.886L137.068 298.862L110.604 254.974L203.681 202.373Z" fill="#92CD8B"/>
<path d="M202.432 206.739L227.645 245.639L138.306 295.14L114.343 256.227L202.432 206.739Z" fill="#4E964E"/>
<path d="M198.698 224.792C205.587 223.503 207.449 233.869 202.435 235.38C194.231 237.828 193.176 225.834 198.698 224.792Z" fill="#92CD8B"/>
<path d="M136.453 259.029C143.355 257.779 144.306 268.093 138.941 268.992C132.129 270.125 130.996 260.019 136.453 259.029Z" fill="#92CD8B"/>
<path d="M163.825 231.013C192.88 226.156 198.819 274.263 168.8 270.239C147.898 267.439 146.544 233.905 163.825 231.013Z" fill="#92CD8B"/>
<path d="M162.593 237.862C165.224 239.242 169.209 248.372 170.68 249.062C171.696 249.544 176.853 249.452 178.768 250.312C187.741 254.31 179.106 267.294 176.905 253.424L172.855 253.112L177.53 262.762C174.105 261.629 171.631 252.708 169.443 251.562C165.94 249.726 151.106 251.198 160.105 240.974L163.218 247.825C171.891 249.153 162.293 242.212 162.593 237.862Z" fill="#4E964E"/>
<path d="M169.444 258.406C170.46 258.315 173.546 262.678 173.181 264.006C167.998 266.194 166.474 258.654 169.444 258.406Z" fill="#4E964E"/>
<path d="M166.938 237.863C170.949 235.493 172.225 242.148 169.425 242.226C168.709 242.239 165.635 238.631 166.938 237.863Z" fill="#4E964E"/>
<path d="M359.937 130.169L392 185.257L288.974 243.47L256.911 187.757L359.937 130.169Z" fill="#3F7F40"/>
<path d="M358.075 134.519L387.651 184.02L290.836 239.108L261.274 188.37L358.075 134.519Z" fill="#92CD8B"/>
<path d="M356.83 138.872L383.918 182.76L291.466 235.36L265.003 189.61L356.83 138.872Z" fill="#4E964E"/>
<path d="M354.968 142.61C357.625 142.584 376.73 177.942 380.181 182.135L293.33 230.386L269.979 191.473L354.955 142.597L354.968 142.61Z" fill="#92CD8B"/>
<path d="M314.813 168.759L316.063 170.009C302.597 175.075 306.947 201.447 324.151 203.622L325.088 206.109C316.415 205.575 307.768 203.596 299.251 201.746C302.129 195.612 293.585 192.539 291.163 197.071C288.741 201.603 294.445 205.588 298.638 202.983L324.789 209.834C320.96 211.93 295.904 227.233 293.976 226.647L274.363 193.346L274.676 191.784C288.077 184.139 301.425 176.403 314.826 168.746L314.813 168.759Z" fill="#4E964E"/>
<path d="M299.253 201.749C299.136 202.009 298.693 202.96 298.628 202.999C294.434 205.604 288.73 201.619 291.152 197.087C293.575 192.555 302.118 195.628 299.24 201.762L299.253 201.749Z" fill="#92CD8B"/>
<path d="M324.773 209.849L298.622 202.999C298.622 202.999 299.13 202.01 299.247 201.749C307.751 203.585 316.412 205.578 325.085 206.112L324.147 203.624C351.861 207.128 341.976 160.257 316.06 170.012L314.81 168.761C328.119 161.156 341.091 152.964 354.96 146.349L376.435 180.899C359.544 191.161 342.093 200.382 324.76 209.849H324.773Z" fill="#4E964E"/>
<path d="M350.599 164.4C359.663 161.809 357.241 176.434 349.974 172.488C346.692 170.717 347.617 165.247 350.599 164.4Z" fill="#92CD8B"/>
<path d="M324.152 203.613C306.948 201.438 302.586 175.066 316.065 170C341.981 160.246 351.865 207.129 324.152 203.613Z" fill="#92CD8B"/>
<path d="M318.245 174.98C319.873 174.237 322.946 183.445 324.47 184.317C327.088 185.828 336.946 185.125 335.37 192.105C333.599 199.906 330.487 188.979 330.083 188.68C323.728 184.096 331.242 196.533 330.708 196.767C327.439 195.543 326.28 187.964 323.858 186.805C321.305 185.58 311.004 186.622 313.583 179.017C315.601 173.052 317.685 185.463 321.67 183.379L318.245 174.98Z" fill="#4E964E"/>
<path d="M323.215 193.659C324.452 192.63 327.943 197.475 326.953 198.022C324.674 199.259 321.6 196.029 323.215 193.659Z" fill="#4E964E"/>
<path d="M321.966 175.588C327.201 174.221 326.224 179.131 323.828 178.701C323.411 178.623 321.575 176.396 321.966 175.588Z" fill="#4E964E"/>
<path d="M142.041 86.5991L181.579 133.6L96.6031 198.65L57.6899 150.4L142.041 86.5991Z" fill="#4E964E"/>
<path d="M142.039 90.3242L177.214 133.6L96.6012 193.676L62.0508 151.025L142.039 90.3242Z" fill="#92CD8B"/>
<path d="M140.819 94.6904L172.882 132.978L96.6188 190.567L65.793 151.654L140.819 94.6904Z" fill="#4E964E"/>
<path d="M140.192 98.4346L169.143 132.985L97.2289 185.585L70.1538 152.285L140.192 98.4346Z" fill="#92CD8B"/>
<path d="M129.299 158.812L128.049 156.949C145.474 148.471 126.369 116.877 108.748 128.312L107.498 127.061C111.483 124.014 139.053 101.458 141.423 102.161L166.011 131.737C154.564 141.843 141.58 149.878 129.286 158.812H129.299Z" fill="#4E964E"/>
<path d="M139.578 118.952C146.076 116.803 147.6 126.219 142.69 127.04C137.494 127.925 135.436 120.32 139.578 118.952Z" fill="#92CD8B"/>
<path d="M108.76 128.297C93.9913 137.882 109.437 165.986 128.06 156.935L129.31 158.797C118.748 166.481 108.681 175.063 97.8722 182.46L74.5217 154.76C73.6752 152.832 73.8445 153.405 74.8342 151.96C77.2044 148.496 102.183 131.136 107.522 127.06L108.773 128.31L108.76 128.297Z" fill="#4E964E"/>
<path d="M92.2621 153.819C98.2006 152.66 100.18 160.864 95.3746 161.906C89.5663 163.183 87.0268 154.835 92.2621 153.819Z" fill="#92CD8B"/>
<path d="M128.053 156.937C109.43 165.988 93.9842 137.884 108.752 128.299C126.373 116.864 145.478 148.459 128.053 156.937Z" fill="#92CD8B"/>
<path d="M112.172 132.033C114.308 132.645 117.903 140.537 118.397 140.746C120.234 141.566 128.1 140.212 129.298 143.546C129.597 144.366 129.545 148.325 128.36 148.833C125.664 149.992 125.287 142.556 121.197 144.158L125.248 151.945C123.008 150.825 120.299 143.832 118.397 143.233C116.118 142.517 107.393 144.522 107.497 138.558C107.666 130.027 115.48 144.9 116.835 139.808L112.159 132.02L112.172 132.033Z" fill="#4E964E"/>
<path d="M118.402 149.471C120.251 148.742 121.124 152.284 122.452 152.896C119.991 154.654 119.197 153.573 117.477 151.646C117.295 150.851 117.66 149.771 118.415 149.471H118.402Z" fill="#4E964E"/>
<path d="M115.916 132.037C119.771 131.008 119.133 135.723 116.541 135.15C116.385 135.111 114.353 132.454 115.916 132.037Z" fill="#5BA759"/>
<path d="M203.364 3.80469C236.898 24.2641 268.01 48.9169 301.102 70.1055L260.952 125.819C226.441 102.195 190.731 79.5213 157.926 53.9178L162.289 48.6304C161.325 50.3624 160.96 52.6024 159.176 53.9178L162.601 56.0926C160.361 52.7196 163.161 53.488 163.539 52.9801C162.328 54.5429 163.369 55.1159 164.476 56.0926C174.478 64.8833 191.096 75.5753 202.452 83.4803C221.231 96.5555 240.792 108.602 259.728 121.456L296.14 70.7176L202.738 6.29211L201.488 4.11724L203.351 3.80469H203.364Z" fill="#4E964E"/>
<path d="M203.367 3.79998L201.505 4.11253L202.755 6.2874L199.33 4.42509C187.401 20.2612 175.289 36.7485 163.529 52.9884C163.165 53.4963 160.352 52.7279 162.592 56.1009L159.167 53.9261C160.951 52.6107 161.315 50.3708 162.279 48.6387C165.053 43.6248 193.73 3.21394 196.517 1.01302C197.259 0.426983 197.402 -0.224174 198.692 0.0753582C199.148 0.127451 202.69 3.40928 203.367 3.813V3.79998Z" fill="#3F7F40"/>
<path d="M202.738 6.292L296.114 70.7305L259.701 121.469C240.766 108.615 221.218 96.5685 202.426 83.4932C191.069 75.5882 174.452 64.8962 164.45 56.1055C163.343 55.1288 162.301 54.5558 163.513 52.993C175.272 36.7531 187.384 20.2658 199.313 4.42969L202.738 6.292Z" fill="#92CD8B"/>
<path d="M199.309 8.15527L291.761 71.3436L259.073 116.482L166.634 53.2935L199.309 8.15527Z" fill="#4E964E"/>
<path d="M201.182 12.5293L287.396 71.98L257.833 112.755L172.232 53.3048L201.182 12.5293Z" fill="#92CD8B"/>
<path d="M203.985 44.9093C203.321 52.8534 206.654 63.1938 211.46 69.8095C212.111 72.7658 213.869 76.79 216.435 78.522V81.6346C213.4 79.5378 210.522 76.7639 207.722 74.7844C206.251 66.671 201.771 58.7268 200.247 50.1967C199.869 48.0479 200.351 45.7949 200.247 44.2842C201.667 45.1046 202.383 45.326 203.985 44.9093Z" fill="#3F7F40"/>
<path d="M216.429 81.6217V78.5092C228.163 86.4142 247.646 75.8785 246.317 60.1465C244.156 34.7514 205.295 41.9402 211.455 69.7967C206.649 63.1809 203.315 52.8405 203.979 44.8964C211.22 43.0081 207.183 34.1653 201.804 35.5588C197.09 36.77 200.111 42.396 200.242 44.2713C200.346 45.795 199.864 48.035 200.242 50.1838C201.765 58.714 206.245 66.6581 207.717 74.7715C196.986 67.166 185.421 60.6023 175.341 52.0461L201.179 16.8706L282.73 72.2711L257.205 108.996C243.557 99.9453 229.908 90.8811 216.429 81.6087V81.6217Z" fill="#4E964E"/>
<path d="M257.826 77.8886C267.398 75.1538 265.001 90.7946 257.2 86.6011C253.88 84.8169 254.713 78.7742 257.826 77.8886Z" fill="#92CD8B"/>
<path d="M203.977 44.8955C202.375 45.3122 201.658 45.0908 200.239 44.2704C200.109 42.395 197.074 36.769 201.802 35.5579C207.193 34.1644 211.23 43.0071 203.977 44.8955Z" fill="#92CD8B"/>
<path d="M216.429 78.5136C213.851 76.7815 212.106 72.7573 211.455 69.8011C205.295 41.9446 244.156 34.7558 246.318 60.1509C247.659 75.8829 228.163 86.4186 216.429 78.5136Z" fill="#92CD8B"/>
<path d="M228.566 49.8808C234.648 49.1515 226.522 55.9756 230.428 59.2184L236.341 53.931C235.612 55.6631 230.233 60.9765 230.116 62.0184C229.855 64.2844 235.052 71.8378 229.803 74.7811C220.036 80.2638 228.853 69.4676 228.866 68.8685C229.087 63.1774 222.12 72.2936 221.078 73.5439C219.203 72.5281 227.368 65.1049 227.615 63.8937C228.097 61.4974 222.263 50.6361 228.553 49.8808H228.566Z" fill="#4E964E"/>
<path d="M219.234 64.1949C219.885 64.0907 220.706 64.8851 221.409 65.1326C219.325 75.512 215.614 64.7549 219.234 64.1949Z" fill="#4E964E"/>
<path d="M237.901 55.4746C240.454 55.4616 239.698 63.0801 235.101 59.5248C235.765 58.8476 237.055 55.4876 237.901 55.4746Z" fill="#4E964E"/>
</svg>
