<svg width="401" height="414" viewBox="0 0 401 414" fill="none" xmlns="http://www.w3.org/2000/svg">
<path opacity="0.997" fill-rule="evenodd" clip-rule="evenodd" d="M214.837 19.9671C214.487 19.9621 214.145 20.02 213.81 20.1409C212.881 20.4353 211.957 20.7444 211.036 21.0679C210.271 21.3535 209.603 21.7977 209.033 22.4006C208.863 23.4049 209.222 23.8492 210.112 23.7333C212.069 22.5573 214.157 21.862 216.378 21.6474C217.199 21.5894 218.02 21.5702 218.843 21.5894C219.331 21.7296 219.776 21.9614 220.179 22.2847C220.051 22.3206 220.051 22.3786 220.179 22.4586C226.391 27.5304 229.627 34.4255 229.886 43.1438C230.093 51.377 227.234 57.8472 221.308 62.5543C220.24 63.2652 219.093 63.7481 217.867 64.0028C217.713 63.9642 217.559 63.9255 217.405 63.8869C217.314 63.5875 217.279 63.2784 217.302 62.9599C218.559 62.7683 219.791 62.44 221 61.9749C221.308 61.5701 221.241 61.2804 220.795 61.1057C219.789 61.4424 218.779 61.7514 217.765 62.0328C217.635 61.9922 217.601 61.9149 217.662 61.801C217.896 61.6229 218.153 61.4878 218.432 61.3954C219.734 61.0478 221.035 60.7001 222.336 60.3525C222.61 60.0821 222.61 59.8117 222.336 59.5413C221.067 59.7926 219.801 60.0631 218.535 60.3525C218.672 60.198 218.809 60.0434 218.946 59.889C223.125 58.844 225.813 56.0049 227.009 51.3715C227.246 50.0704 227.315 48.7571 227.215 47.4315C227.112 47.3156 227.009 47.1997 226.907 47.0838C226.388 44.431 224.932 43.0018 222.541 42.7961C221.651 42.9099 220.761 43.0452 219.87 43.2017C219.178 43.4959 218.527 43.8822 217.919 44.3605C217.061 44.6219 216.358 44.3709 215.813 43.6073C213.107 39.5631 209.769 36.3763 205.798 34.0469C203.598 33.0984 201.338 32.4031 199.018 31.961C196.219 31.7415 193.445 31.9347 190.698 32.5404C189.739 32.6177 188.78 32.6177 187.821 32.5404C186.183 32.0726 185.55 30.8945 185.921 29.006C186.183 27.9834 186.475 26.9791 186.794 25.993C188.421 24.146 190.304 22.6975 192.444 21.6474C199.743 18.1301 207.208 17.57 214.837 19.9671Z" fill="#522409"/>
<path opacity="0.982" fill-rule="evenodd" clip-rule="evenodd" d="M214.837 19.9671C216.232 20.35 217.567 20.8908 218.843 21.5895C218.02 21.5702 217.199 21.5895 216.378 21.6474C214.157 21.862 212.069 22.5573 210.112 23.7333C209.222 23.8492 208.863 23.4049 209.033 22.4006C209.603 21.7977 210.271 21.3535 211.036 21.068C211.957 20.7444 212.881 20.4354 213.81 20.1409C214.145 20.0201 214.487 19.9621 214.837 19.9671Z" fill="#7A3F1B"/>
<path fill-rule="evenodd" clip-rule="evenodd" d="M194.807 21.2403C195.475 21.1984 195.646 21.4881 195.321 22.1094C193.181 22.8335 191.229 23.9537 189.466 25.4701C188.841 26.0964 188.294 26.7917 187.822 27.556C187.291 27.7298 187.103 27.5174 187.257 26.9186C188.625 24.8806 190.355 23.3547 192.445 22.3412C193.255 22.0051 194.042 21.6383 194.807 21.2403Z" fill="#793E1B"/>
<path fill-rule="evenodd" clip-rule="evenodd" d="M195.938 22.5137C196.606 22.4718 196.777 22.7615 196.452 23.3829C195.15 23.769 193.918 24.3484 192.754 25.1211C192.223 25.295 192.035 25.0825 192.189 24.4838C193.376 23.6494 194.626 22.9927 195.938 22.5137Z" fill="#793E1B"/>
<path opacity="0.99" fill-rule="evenodd" clip-rule="evenodd" d="M220.179 22.2852C223.556 23.9698 226.312 26.5192 228.448 29.9335C230.756 34.7078 231.732 39.8066 231.376 45.2301C231.16 46.6768 230.972 48.1447 230.811 49.6337C230.689 50.2952 230.553 50.9517 230.4 51.6037C229.795 53.3927 229.162 55.1696 228.499 56.9344C228.075 58.0466 227.544 59.0896 226.907 60.0632C224.981 62.5282 222.773 64.5947 220.282 66.263C219.719 66.8315 219.136 67.3722 218.535 67.8854C217.99 68.2177 217.408 68.3529 216.789 68.291C216.383 68.2069 216.024 68.0139 215.711 67.7115C214.765 65.7552 214.697 63.7466 215.505 61.6856C216.185 59.991 217.23 58.6584 218.638 57.6876C220.97 57.5796 222.836 56.4787 224.236 54.3849C225.699 52.2277 226.316 49.7942 226.085 47.0842C225.999 46.8396 225.913 46.6079 225.829 46.3889C225.303 44.58 224.189 43.6916 222.49 43.7236C221.669 43.6974 220.899 43.9098 220.179 44.361C219.206 45.0926 218.282 45.8844 217.406 46.7366C216.506 47.0101 215.684 46.8363 214.94 46.2151C214.65 45.8868 214.358 45.5584 214.067 45.2301C209.949 36.8104 203.632 33.16 195.115 34.2791C192.211 35.0099 189.54 36.3232 187.103 38.2192C186.627 38.64 186.181 39.1036 185.767 39.6098C185.547 39.7733 185.307 39.8699 185.048 39.8995C184.846 39.9272 184.658 39.8886 184.483 39.7836C182.56 35.1563 183.038 30.8687 185.922 26.9205C186.199 26.5878 186.491 26.2787 186.795 25.9934C186.475 26.9795 186.184 27.9838 185.922 29.0064C185.551 30.895 186.184 32.073 187.822 32.5409C188.78 32.6181 189.74 32.6181 190.698 32.5409C193.446 31.9351 196.219 31.742 199.018 31.9614C201.339 32.4035 203.599 33.0988 205.798 34.0473C209.769 36.3767 213.108 39.5635 215.813 43.6077C216.359 44.3713 217.061 44.6223 217.919 44.361C218.527 43.8826 219.178 43.4964 219.871 43.2021C220.761 43.0456 221.651 42.9104 222.542 42.7966C224.933 43.0022 226.388 44.4314 226.907 47.0842C227.01 47.2001 227.113 47.316 227.215 47.4319C227.315 48.7575 227.246 50.0708 227.01 51.3719C225.813 56.0053 223.125 58.8445 218.946 59.8894C218.81 60.0439 218.672 60.1984 218.535 60.3529C219.801 60.0636 221.067 59.7931 222.336 59.5417C222.61 59.8121 222.61 60.0826 222.336 60.3529C221.036 60.7006 219.734 61.0482 218.433 61.3959C218.153 61.4882 217.897 61.6234 217.662 61.8015C217.602 61.9154 217.636 61.9927 217.765 62.0332C218.78 61.7519 219.79 61.4428 220.795 61.1062C221.241 61.2808 221.309 61.5705 221.001 61.9753C219.792 62.4404 218.559 62.7687 217.303 62.9603C217.279 63.2789 217.314 63.5879 217.406 63.8874C217.56 63.926 217.714 63.9647 217.868 64.0033C219.093 63.7485 220.241 63.2657 221.309 62.5547C227.235 57.8476 230.094 51.3774 229.886 43.1442C229.627 34.4259 226.392 27.5309 220.179 22.459C220.052 22.379 220.052 22.3211 220.179 22.2852Z" fill="#3A1905"/>
<path fill-rule="evenodd" clip-rule="evenodd" d="M207.031 23.3252C207.417 23.2754 207.777 23.3526 208.11 23.5569C208.474 24.7243 208.115 25.2458 207.031 25.1213C206.49 24.5121 206.49 23.9135 207.031 23.3252Z" fill="#7A3F1B"/>
<path fill-rule="evenodd" clip-rule="evenodd" d="M190.801 25.4107C191.377 25.246 191.6 25.4778 191.469 26.106C190.745 26.5739 190.112 27.1726 189.568 27.9022C189.037 28.076 188.849 27.8636 189.003 27.2648C189.561 26.5768 190.16 25.9588 190.801 25.4107Z" fill="#793E1B"/>
<path fill-rule="evenodd" clip-rule="evenodd" d="M195.732 27.0328C196.291 26.9171 196.496 27.1489 196.348 27.7281C195.386 28.5419 194.461 29.4111 193.575 30.3355C193.078 30.4706 192.889 30.2582 193.01 29.6981C193.895 28.7666 194.803 27.8782 195.732 27.0328Z" fill="#3B1905"/>
<path fill-rule="evenodd" clip-rule="evenodd" d="M193.265 27.4974C193.797 27.3823 193.985 27.6141 193.83 28.1927C192.58 29.2936 191.467 30.5489 190.492 31.9589C189.957 32.1331 189.735 31.9207 189.824 31.3215C190.892 29.9426 192.039 28.6679 193.265 27.4974Z" fill="#3B1905"/>
<path fill-rule="evenodd" clip-rule="evenodd" d="M190.389 28.6586C190.919 28.6164 191.107 28.8869 190.954 29.4698C190.188 30.0638 189.52 30.7784 188.951 31.6136C188.42 31.7874 188.232 31.575 188.386 30.9762C189.011 30.1367 189.678 29.3641 190.389 28.6586Z" fill="#3B1905"/>
<path fill-rule="evenodd" clip-rule="evenodd" d="M225.109 30.2803C225.446 30.2535 225.702 30.4081 225.879 30.7438C226.351 31.6913 226.795 32.657 227.214 33.6409C227.285 34.2185 227.08 34.4116 226.598 34.2203C226.102 33.101 225.554 32.0195 224.955 30.9756C224.878 30.7044 224.929 30.4727 225.109 30.2803Z" fill="#793E1A"/>
<path fill-rule="evenodd" clip-rule="evenodd" d="M224.597 32.0184C224.799 31.9907 224.987 32.0293 225.162 32.1343C225.806 33.4246 226.268 34.7958 226.549 36.2482C226.427 36.7992 226.17 36.8959 225.778 36.5379C225.529 35.2305 225.118 33.9944 224.546 32.8296C224.474 32.5481 224.49 32.2778 224.597 32.0184Z" fill="#793E1A"/>
<path opacity="0.996" fill-rule="evenodd" clip-rule="evenodd" d="M217.405 46.7365C217.187 47.2327 216.827 47.4644 216.327 47.4318C215.787 47.4218 215.29 47.248 214.837 46.9103C213.346 45.3739 212.062 43.6549 210.985 41.7535C205.125 35.178 198.328 33.575 190.595 36.9443C188.973 37.7324 187.587 38.8719 186.435 40.3629C185.867 41.4132 185.302 42.4562 184.74 43.4917C184.757 42.2844 184.859 41.0869 185.048 39.8993C185.307 39.8698 185.547 39.7731 185.767 39.6096C186.181 39.1034 186.627 38.6399 187.103 38.219C189.54 36.323 192.211 35.0097 195.115 34.279C203.632 33.1599 209.949 36.8102 214.067 45.23C214.358 45.5583 214.649 45.8867 214.94 46.215C215.684 46.8361 216.506 47.0099 217.405 46.7365Z" fill="#DE9B78"/>
<path fill-rule="evenodd" clip-rule="evenodd" d="M227.061 34.6817C227.495 34.5731 227.752 34.7661 227.831 35.2611C227.977 35.7471 227.993 36.23 227.882 36.7096C227.683 36.7957 227.495 36.7764 227.317 36.6517C227.063 36.0084 226.976 35.3518 227.061 34.6817Z" fill="#7A3E1B"/>
<path opacity="0.998" fill-rule="evenodd" clip-rule="evenodd" d="M217.407 46.7369C218.284 45.8847 219.208 45.0929 220.181 44.3613C220.901 43.9102 221.671 43.6977 222.492 43.7239C224.191 43.6919 225.305 44.5803 225.83 46.3892C225.965 49.2116 225.297 51.761 223.827 54.0376C222.414 55.7135 220.685 56.6985 218.64 56.9926C215.264 59.3002 213.98 62.6415 214.788 67.0165C214.96 67.3256 215.13 67.6345 215.302 67.9436C215.369 69.4131 215.352 70.881 215.25 72.3472C211.179 72.8297 207.104 73.2933 203.026 73.7378C204.108 72.4948 205.016 71.1042 205.749 69.566C206.057 68.446 205.697 67.8086 204.67 67.6539C204.447 67.6345 204.225 67.6153 204.002 67.5959C201.347 67.9169 198.694 67.8977 196.041 67.538C195.269 67.3375 194.515 67.0672 193.782 66.7268C192.917 66.2391 192.061 65.7563 191.214 65.2783C191.092 65.1619 190.955 65.0653 190.803 64.9886C190.235 64.2512 189.652 63.5367 189.056 62.8447C189.056 62.8061 189.056 62.7674 189.056 62.7288C189.056 62.6902 189.056 62.6515 189.056 62.613C188.807 62.3208 188.635 61.9732 188.543 61.57C188.474 61.4155 188.406 61.4155 188.337 61.57C189.284 65.5738 190.021 69.6297 190.546 73.7378C191.19 79.9445 191.67 86.1628 191.984 92.395C187.993 97.0698 184.072 101.783 180.222 106.533C179.958 105.471 179.719 104.389 179.503 103.288C179.077 101.557 178.666 99.8185 178.271 98.0733C177.913 96.2667 177.485 94.4902 176.987 92.7427C176.82 92.6732 176.666 92.5955 176.524 92.5109C176.635 92.3846 176.704 92.2293 176.73 92.0474C175.72 87.6438 174.709 83.2402 173.7 78.8367C173.401 77.9698 173.076 77.1204 172.724 76.2872C172.856 76.1076 172.925 75.8758 172.929 75.5919C172.813 73.2474 172.213 71.0842 171.132 69.1024C170.772 68.6968 170.413 68.2913 170.053 67.8857C169.76 67.6338 169.436 67.46 169.077 67.3642C167.654 67.7722 166.232 67.7914 164.814 67.4221C164.397 67.1489 164.021 66.8205 163.684 66.4371C163.684 65.935 163.684 65.4328 163.684 64.9306C164.606 63.6361 165.702 62.5544 166.971 61.6859C167.077 61.0543 166.837 60.8418 166.252 61.0485C165.457 61.9048 164.533 62.5228 163.479 62.9027C163.034 62.98 162.589 62.98 162.144 62.9027C161.982 62.7408 161.845 62.5669 161.733 62.3812C161.606 61.6252 161.606 60.8526 161.733 60.0635C162.28 58.1901 163.376 56.8962 165.02 56.1814C165.159 55.9568 165.126 55.7638 164.917 55.602C164.643 55.5247 164.369 55.5247 164.095 55.602C163.281 56.1964 162.425 56.6985 161.527 57.1085C160.837 57.3157 160.289 57.1033 159.884 56.4711C159.787 55.9027 159.752 55.3233 159.781 54.7329C159.955 54.2273 160.212 53.7637 160.551 53.3423C161.491 52.1264 162.553 51.0835 163.736 50.2134C163.821 49.6919 163.633 49.4795 163.171 49.576C162.212 50.3486 161.253 51.1211 160.295 51.8937C158.641 52.9676 157.785 52.4461 157.727 50.3293C157.732 49.6634 157.886 49.0453 158.189 48.4752C159.082 47.1777 160.092 46.0189 161.219 44.9986C165.745 42.709 170.367 42.4193 175.086 44.1295C177.366 44.998 179.489 46.1955 181.455 47.7219C183.087 49.4868 184.405 51.5148 185.41 53.8058C185.06 51.8578 184.785 49.8878 184.588 47.8957C184.519 46.6596 184.519 45.4236 184.588 44.1875C184.621 43.9457 184.672 43.714 184.742 43.4922C185.304 42.4566 185.869 41.4137 186.437 40.3633C187.589 38.8723 188.975 37.7329 190.597 36.9447C198.33 33.5754 205.127 35.1784 210.987 41.7539C212.064 43.6553 213.348 45.3743 214.839 46.9107C215.292 47.2484 215.788 47.4222 216.329 47.4322C216.829 47.4649 217.189 47.2331 217.407 46.7369Z" fill="#EFC49F"/>
<path fill-rule="evenodd" clip-rule="evenodd" d="M212.477 38.2765C212.685 38.2577 212.891 38.277 213.093 38.3344C214.413 39.3105 215.851 39.9672 217.407 40.3044C217.619 40.4774 217.653 40.6899 217.51 40.9418C217.174 41.0675 216.831 41.0869 216.483 40.9997C215.059 40.6325 213.758 39.9758 212.579 39.0297C212.355 38.8098 212.321 38.5588 212.477 38.2765Z" fill="#3B1905"/>
<path opacity="0.063" fill-rule="evenodd" clip-rule="evenodd" d="M184.74 40.1289C184.85 40.2159 184.867 40.3318 184.791 40.4766C184.742 40.3667 184.724 40.2508 184.74 40.1289Z" fill="#F29D77"/>
<path fill-rule="evenodd" clip-rule="evenodd" d="M220.795 40.5938C222.009 40.6271 223.173 40.9168 224.288 41.4629C224.469 41.8597 224.367 42.1107 223.979 42.2161C222.983 41.7905 221.956 41.5008 220.898 41.347C220.674 41.127 220.639 40.876 220.795 40.5938Z" fill="#3B1905"/>
<path fill-rule="evenodd" clip-rule="evenodd" d="M226.753 40.8273C227.014 40.7814 227.237 40.8587 227.421 41.059C227.88 42.8844 228.103 44.7386 228.088 46.6215C227.835 46.7961 227.612 46.7574 227.421 46.5056C227.32 44.7575 227.063 43.0386 226.65 41.3488C226.678 41.1711 226.713 40.9973 226.753 40.8273Z" fill="#3B1905"/>
<path fill-rule="evenodd" clip-rule="evenodd" d="M215.043 41.171C215.252 41.1522 215.457 41.1716 215.66 41.2289C216.234 41.5995 216.85 41.8313 217.509 41.9242C218.437 41.9509 219.362 41.9123 220.282 41.8084C220.419 42.0401 220.419 42.2719 220.282 42.5037C218.509 43.1499 216.797 42.9955 215.146 42.0401C214.919 41.7803 214.884 41.4906 215.043 41.171Z" fill="#3B1905"/>
<path fill-rule="evenodd" clip-rule="evenodd" d="M228.191 41.2907C228.374 41.2577 228.545 41.2963 228.704 41.4066C229.161 42.829 229.349 44.2969 229.269 45.8102C229.03 46.1192 228.789 46.1192 228.55 45.8102C228.549 44.4913 228.395 43.1972 228.088 41.9281C228.108 41.7104 228.142 41.4979 228.191 41.2907Z" fill="#3B1905"/>
<path opacity="0.993" fill-rule="evenodd" clip-rule="evenodd" d="M145.81 43.7229C145.5 44.055 145.243 44.4414 145.039 44.8817C144.191 47.2498 143.404 49.6448 142.677 52.0665C142.069 54.7985 141.624 57.5411 141.341 60.2942C141.445 60.3912 141.565 60.4298 141.701 60.4101C142.1 58.8927 142.716 57.5021 143.55 56.2383C143.986 56.0287 144.432 55.8742 144.885 55.7748C145.296 55.7748 145.707 55.7748 146.118 55.7748C146.369 55.8875 146.643 55.9261 146.94 55.8907C148.003 56.0271 148.894 56.5292 149.611 57.3971C149.071 58.0829 148.66 58.8555 148.378 59.7148C148.339 59.9695 148.271 60.2013 148.172 60.4101C146.194 61.6216 144.739 63.4371 143.807 65.8566C143.738 66.2429 143.738 66.6292 143.807 67.0155C143.928 67.1581 144.048 67.1581 144.166 67.0155C144.857 65.8242 145.61 64.6847 146.426 63.5969C146.785 63.2976 147.162 63.0272 147.556 62.7857C147.724 62.7285 147.895 62.7092 148.07 62.7278C148.037 62.0874 148.071 61.4693 148.172 60.8737C147.957 63.0196 148.368 64.9896 149.405 66.7837C148.514 68.7209 148.275 70.7683 148.686 72.9255C148.789 73.08 148.891 73.08 148.994 72.9255C149.131 72.5713 149.336 72.3009 149.611 72.1144C150.185 71.679 150.801 71.3313 151.459 71.0714C152.246 70.7699 153.033 70.7699 153.822 71.0714C153.822 71.11 153.822 71.1487 153.822 71.1873C153.839 71.614 153.822 72.0388 153.771 72.462C153.355 73.9795 152.91 75.486 152.435 76.9815C152.119 77.9955 152.341 78.8263 153.103 79.473C153.828 79.8322 154.547 79.8322 155.26 79.473C155.841 78.8402 156.32 78.2029 156.698 77.5609C157.012 77.3465 157.354 77.1912 157.725 77.0974C159.144 82.8579 160.343 88.6903 161.321 94.5958C161.286 94.7499 161.252 94.9052 161.218 95.0593C159.306 97.275 157.251 99.303 155.055 101.143C152.522 103.344 149.886 105.372 147.145 107.227C147.037 107.1 146.951 106.945 146.888 106.764C146.819 106.677 146.734 106.637 146.632 106.648C143.771 98.3365 141.288 89.877 139.184 81.2692C137.542 74.7106 136.635 68.028 136.462 61.2213C136.388 57.15 136.885 53.1713 137.952 49.2853C138.547 47.109 139.591 45.2742 141.085 43.7808C142.312 42.865 143.647 42.5559 145.091 42.8538C145.497 42.9833 145.737 43.273 145.81 43.7229Z" fill="#EFC4A0"/>
<path opacity="0.996" fill-rule="evenodd" clip-rule="evenodd" d="M161.219 44.9967C160.092 46.017 159.082 47.1758 158.189 48.4732C157.886 49.0434 157.732 49.6615 157.727 50.3274C157.448 51.9529 157.893 53.2855 159.062 54.3253C159.275 54.5229 159.515 54.6582 159.781 54.7309C159.752 55.3214 159.787 55.9008 159.884 56.4692C159.97 57.63 160.364 58.6344 161.065 59.4822C161.246 59.7446 161.468 59.9378 161.733 60.0616C161.606 60.8506 161.606 61.6232 161.733 62.3793C161.946 63.662 162.596 64.5117 163.684 64.9287C163.684 65.4308 163.684 65.9331 163.684 66.4352C163.74 66.9709 163.877 67.4732 164.095 67.9417C164.528 69.0863 165.282 69.8203 166.355 70.1435C162.557 72.2089 158.79 74.3333 155.056 76.5171C155.206 75.5913 155.343 74.6642 155.467 73.7359C155.584 72.5916 155.241 71.6839 154.44 71.0126C154.212 70.9212 154.007 70.9405 153.823 71.0705C153.035 70.769 152.247 70.769 151.461 71.0705C151.558 70.4718 151.695 69.8923 151.872 69.3323C153.398 70.0445 154.87 69.9286 156.289 68.9846C157.452 68.4766 158.599 67.9359 159.73 67.3623C160.564 65.7043 160.838 63.9275 160.551 62.0316C160.242 59.3797 159.095 57.3518 157.11 55.9477C156.64 55.7767 156.161 55.738 155.672 55.8318C157.341 56.7046 158.488 58.1145 159.113 60.0616C159.224 60.5564 159.275 61.0585 159.267 61.5681C158.958 61.5914 158.65 61.63 158.343 61.684C158.155 61.6938 158.018 61.7711 157.932 61.9157C157.337 59.7173 156.173 57.9983 154.44 56.7589C154.063 56.6108 153.686 56.4757 153.31 56.3533C152.066 56.0185 150.936 56.2889 149.92 57.1645C149.675 56.8295 149.401 56.5012 149.098 56.1795C150.054 55.8238 150.927 55.3024 151.717 54.6151C151.895 53.9682 151.912 53.3115 151.769 52.645C151.801 52.242 151.75 51.8556 151.615 51.4862C151.419 51.3205 151.196 51.2433 150.947 51.2544C149.902 51.5056 148.909 51.8918 147.968 52.4133C147.618 52.4799 147.31 52.6344 147.044 52.8768C146.733 53.0234 146.442 53.2166 146.171 53.4562C146.086 54.2522 146.206 55.0055 146.53 55.716C146.397 55.7727 146.26 55.7921 146.119 55.7739C145.708 55.7739 145.297 55.7739 144.887 55.7739C144.861 54.6042 144.861 53.4453 144.887 52.2974C145.756 51.8996 146.629 51.5133 147.506 51.1385C147.612 51.0996 147.663 51.0223 147.66 50.9068C147.958 50.758 148.266 50.6421 148.584 50.5591C148.674 49.1033 148.897 47.6741 149.252 46.2714C151.372 44.7957 153.649 43.7527 156.083 43.1426C156.476 43.1551 156.853 43.2517 157.213 43.4323C158.172 44.0503 159.131 44.6684 160.089 45.2864C160.484 45.2993 160.861 45.2026 161.219 44.9967Z" fill="#6658A0"/>
<path fill-rule="evenodd" clip-rule="evenodd" d="M142.213 43.6027C142.455 43.5838 142.695 43.6031 142.932 43.6607C143.043 43.8607 143.06 44.0731 142.983 44.298C141.562 45.051 140.467 46.2099 139.696 47.7745C139.491 48.0836 139.286 48.0836 139.08 47.7745C139.082 47.1126 139.287 46.5332 139.696 46.0363C140.434 45.0671 141.273 44.256 142.213 43.6027Z" fill="#F8D8BB"/>
<path fill-rule="evenodd" clip-rule="evenodd" d="M167.69 43.4896C168.649 43.4704 169.607 43.4896 170.566 43.5476C171.042 43.6392 171.179 43.9289 170.977 44.4167C169.784 44.4173 168.585 44.4366 167.381 44.4746C166.275 44.593 165.213 44.9019 164.197 45.4017C163.666 45.5755 163.478 45.3631 163.632 44.7644C164.241 44.3162 164.909 44.0265 165.635 43.8952C166.333 43.7449 167.018 43.6097 167.69 43.4896Z" fill="#F8D8BB"/>
<path opacity="0.972" fill-rule="evenodd" clip-rule="evenodd" d="M145.81 43.7227C146.062 44.2763 146.079 44.8558 145.862 45.4609C145.278 47.4155 144.748 49.3855 144.269 51.371C144.203 51.5952 144.168 51.827 144.167 52.0663C144.081 52.1059 144.046 52.1831 144.064 52.298C143.896 52.4749 143.811 52.7066 143.807 52.9933C143.62 54.065 143.534 55.1467 143.55 56.2381C142.716 57.5019 142.1 58.8925 141.701 60.4099C141.566 60.4296 141.446 60.391 141.342 60.294C141.624 57.5408 142.069 54.7982 142.677 52.0663C143.404 49.6445 144.192 47.2496 145.04 44.8815C145.243 44.4411 145.5 44.0548 145.81 43.7227Z" fill="#E29E7A"/>
<path fill-rule="evenodd" clip-rule="evenodd" d="M185.15 44.1847C185.383 44.1431 185.571 44.2204 185.715 44.4165C185.722 46.1032 185.808 47.7835 185.971 49.4574C186.034 50.2405 185.777 50.4529 185.201 50.0948C185.012 48.2066 184.943 46.3139 184.996 44.4165C185.069 44.3535 185.121 44.2762 185.15 44.1847Z" fill="#F8D8BB"/>
<path fill-rule="evenodd" clip-rule="evenodd" d="M199.842 45.1131C200.377 45.0217 200.583 45.2535 200.458 45.8085C199.739 46.4072 199.02 47.0059 198.301 47.6046C199.152 47.4834 200.007 47.4448 200.869 47.4888C201.144 47.7591 201.144 48.0296 200.869 48.2999C199.49 48.3706 198.119 48.5445 196.76 48.8214C196.291 48.868 196.137 48.6362 196.298 48.1261C197.496 47.1335 198.677 46.1292 199.842 45.1131Z" fill="#2E140C"/>
<path fill-rule="evenodd" clip-rule="evenodd" d="M155.053 45.344C156.229 45.2135 157.256 45.5805 158.134 46.4449C155.438 47.6583 152.733 48.8365 150.02 49.9794C150.177 49.1982 150.366 48.4257 150.584 47.6617C151.284 47.045 152.054 46.5621 152.896 46.2132C153.618 45.9097 154.337 45.6199 155.053 45.344Z" fill="#363353"/>
<path opacity="0.999" fill-rule="evenodd" clip-rule="evenodd" d="M189.876 45.5759C190.261 45.5634 190.637 45.6213 191.005 45.7497C192.043 46.866 192.471 48.2373 192.289 49.8636C192.113 50.5566 191.753 51.078 191.211 51.428C190.772 51.5448 190.361 51.4869 189.978 51.2542C188.679 49.7012 188.422 47.963 189.208 46.0394C189.392 45.7928 189.615 45.6383 189.876 45.5759Z" fill="#2C120A"/>
<path opacity="0.997" fill-rule="evenodd" clip-rule="evenodd" d="M233.841 46.0407C237.379 45.6523 240.34 46.9271 242.726 49.8648C243.751 51.5918 244.436 53.4847 244.781 55.5431C245.304 58.4518 245.475 61.3875 245.294 64.3503C245.224 65.8008 245.137 67.2493 245.038 68.6959C245.088 70.2166 245.311 71.7039 245.705 73.1574C246.196 74.2274 246.659 75.309 247.092 76.4022C244.92 77.6653 243.225 77.0859 242.007 74.6639C241.861 74.2859 241.706 73.9189 241.545 73.563C241.2 73.3131 240.874 73.3323 240.569 73.621C240.405 74.8485 240.371 76.0846 240.467 77.3292C240.918 80.0664 242.031 82.4038 243.805 84.3402C243.866 84.3935 243.934 84.4132 244.01 84.3981C244.722 85.5686 245.595 86.5721 246.63 87.4111C246.717 87.6069 246.802 87.8005 246.887 87.9905C246.422 88.5247 245.909 89.008 245.346 89.4391C243.942 89.5167 242.538 89.5167 241.134 89.4391C235.739 87.447 232.538 83.2938 231.53 76.9816C231.355 76.2979 230.996 75.7764 230.451 75.4172C229.442 75.2448 228.808 75.7277 228.551 76.8657C228.378 78.2111 228.55 79.4858 229.065 80.6899C229.373 82.0619 229.767 83.376 230.246 84.6299C230.16 84.8234 230.022 84.959 229.835 85.0355C229.496 85.1549 229.153 85.251 228.808 85.3252C227.102 83.6379 226.091 81.5138 225.778 78.9516C225.537 76.5227 225.879 74.2051 226.805 71.9986C228.914 66.9682 231.208 62.0625 233.687 57.2814C234.835 55.051 235.383 52.656 235.331 50.0966C235.003 48.6502 234.507 47.2982 233.841 46.0407Z" fill="#532509"/>
<path fill-rule="evenodd" clip-rule="evenodd" d="M160.602 46.1568C161.179 45.9921 161.401 46.2239 161.27 46.8521C160.429 47.4535 159.761 48.2453 159.267 49.2277C158.922 49.3599 158.716 49.2248 158.65 48.8221C158.691 48.6254 158.743 48.4324 158.804 48.2427C159.356 47.4858 159.955 46.7905 160.602 46.1568Z" fill="#F8D7BB"/>
<path opacity="0.987" fill-rule="evenodd" clip-rule="evenodd" d="M232.299 45.9238C232.404 46.0229 232.525 46.1002 232.658 46.1556C233.046 46.052 233.44 46.0133 233.839 46.0397C234.505 47.2973 235.001 48.6493 235.329 50.0956C235.381 52.655 234.834 55.05 233.685 57.2804C231.207 62.0615 228.912 66.9672 226.803 71.9976C225.877 74.2042 225.535 76.5217 225.776 78.9506C226.089 81.5128 227.1 83.637 228.806 85.3242C227.671 85.2733 226.729 84.7703 225.981 83.8178C224.462 81.5059 223.76 78.8985 223.875 75.9956C223.86 73.8372 224.152 71.7319 224.749 69.68C225.838 66.5324 226.968 63.4036 228.138 60.2934C228.546 59.0323 228.906 57.7576 229.217 56.4692C229.992 56.3407 230.609 55.9158 231.066 55.1945C232.035 53.9736 232.651 52.5443 232.915 50.9068C233.015 50.6231 233.049 50.3141 233.018 49.9798C233.356 48.9219 233.253 47.9175 232.709 46.9668C232.727 46.8518 232.693 46.7746 232.607 46.735C232.477 46.4816 232.375 46.2112 232.299 45.9238Z" fill="#3A1904"/>
<path fill-rule="evenodd" clip-rule="evenodd" d="M232.606 46.7345C232.693 46.7741 232.727 46.8513 232.709 46.9663C232.73 47.5441 232.507 47.7371 232.041 47.5457C231.846 46.9184 232.034 46.6479 232.606 46.7345Z" fill="#FECA65"/>
<path fill-rule="evenodd" clip-rule="evenodd" d="M222.232 47.429C222.764 47.314 222.952 47.5457 222.797 48.1243C222.27 48.6033 221.773 49.1247 221.308 49.6888C222.027 50.5179 222.42 51.5029 222.489 52.6438C222.284 52.7983 222.078 52.7983 221.873 52.6438C221.627 51.8188 221.25 51.0848 220.743 50.442C220.19 51.1682 219.728 51.9602 219.356 52.8176C218.843 52.8946 218.655 52.6436 218.791 52.0644C219.663 50.2511 220.81 48.7061 222.232 47.429Z" fill="#E29F7C"/>
<path fill-rule="evenodd" clip-rule="evenodd" d="M233.017 49.9814C233.049 50.3157 233.014 50.6248 232.914 50.9085C232.706 51.4777 232.466 52.0378 232.195 52.5888C231.812 52.7362 231.641 52.5817 231.682 52.1252C231.87 51.413 232.058 50.6985 232.247 49.9814C232.294 49.3204 232.294 48.6638 232.247 48.0114C232.513 47.8396 232.753 47.8783 232.966 48.1273C233.017 48.7441 233.035 49.3621 233.017 49.9814Z" fill="#FECB67"/>
<path fill-rule="evenodd" clip-rule="evenodd" d="M159.779 54.7302C159.513 54.6574 159.274 54.5222 159.06 54.3246C157.892 53.2848 157.447 51.9521 157.725 50.3266C157.783 52.4435 158.639 52.965 160.293 51.8911C161.252 51.1185 162.21 50.346 163.169 49.5734C163.631 49.4769 163.82 49.6893 163.734 50.2108C162.551 51.0808 161.49 52.1238 160.55 53.3396C160.21 53.7611 159.953 54.2246 159.779 54.7302Z" fill="#E09E7B"/>
<path fill-rule="evenodd" clip-rule="evenodd" d="M240.211 50.0957C241.723 50.356 242.614 51.341 242.882 53.0507C242.742 54.2213 242.161 54.6076 241.136 54.2096C239.989 53.3845 239.493 52.2063 239.646 50.6751C239.824 50.4547 240.012 50.2615 240.211 50.0957Z" fill="#7A3F1B"/>
<path opacity="0.931" fill-rule="evenodd" clip-rule="evenodd" d="M147.659 50.9062C147.662 51.0218 147.61 51.0991 147.504 51.138C146.628 51.5128 145.755 51.899 144.885 52.2968C144.641 52.3657 144.401 52.4043 144.166 52.4127C144.166 52.2968 144.166 52.181 144.166 52.0651C144.168 51.8258 144.202 51.594 144.269 51.3698C145.261 50.7328 146.323 50.4043 147.453 50.3848C147.564 50.5389 147.633 50.7127 147.659 50.9062Z" fill="#353352"/>
<path fill-rule="evenodd" clip-rule="evenodd" d="M231.48 45.4609C231.807 45.5129 232.081 45.6674 232.302 45.9245C232.378 46.2119 232.481 46.4822 232.61 46.7357C232.038 46.6491 231.85 46.9196 232.045 47.5468C232.511 47.7383 232.734 47.5452 232.713 46.9674C233.256 47.9181 233.359 48.9225 233.021 49.9804C233.039 49.3611 233.021 48.7431 232.97 48.1263C232.757 47.8773 232.517 47.8386 232.251 48.0104C232.298 48.6628 232.298 49.3194 232.251 49.9804C232.062 50.6975 231.874 51.412 231.686 52.1242C231.645 52.5807 231.816 52.7352 232.199 52.5878C232.47 52.0368 232.71 51.4767 232.918 50.9075C232.654 52.5449 232.038 53.9742 231.069 55.1952C230.573 55.2917 230.334 55.0599 230.35 54.4999C230.61 53.448 230.901 52.405 231.224 51.371C231.704 49.4195 231.79 47.4495 231.48 45.4609Z" fill="#FAA505"/>
<path fill-rule="evenodd" clip-rule="evenodd" d="M151.766 52.6417C151.701 53.2212 151.581 53.8006 151.406 54.3799C151.213 54.6724 150.956 54.827 150.636 54.8434C149.863 53.867 148.973 53.0558 147.965 52.4099C148.906 51.8884 149.899 51.5022 150.944 51.2511C151.193 51.2399 151.416 51.3171 151.611 51.4828C151.747 51.8523 151.798 52.2386 151.766 52.6417Z" fill="#81B2CD"/>
<path opacity="0.989" fill-rule="evenodd" clip-rule="evenodd" d="M144.062 52.2949C144.062 52.3722 144.097 52.4108 144.165 52.4108C144.4 52.4023 144.64 52.3638 144.884 52.2949C144.858 53.4429 144.858 54.6017 144.884 55.7714C144.43 55.8709 143.985 56.0253 143.549 56.235C143.533 55.1436 143.618 54.0619 143.806 52.9902C143.809 52.7035 143.895 52.4718 144.062 52.2949Z" fill="#514381"/>
<path fill-rule="evenodd" clip-rule="evenodd" d="M147.965 52.4121C148.973 53.058 149.864 53.8692 150.636 54.8457C150.188 55.1083 149.708 55.3014 149.198 55.4251C148.766 55.1897 148.372 54.8807 148.017 54.498C147.712 54.0384 147.37 53.6135 146.99 53.2233C146.941 53.0985 146.958 52.9826 147.041 52.8756C147.307 52.6332 147.615 52.4787 147.965 52.4121Z" fill="#BBD5E3"/>
<path fill-rule="evenodd" clip-rule="evenodd" d="M147.04 52.877C146.957 52.9839 146.94 53.0998 146.988 53.2246C147.369 53.6148 147.711 54.0397 148.016 54.4993C148.371 54.882 148.764 55.191 149.197 55.4264C149.003 55.5217 148.797 55.6182 148.581 55.7161C148.014 55.7362 147.466 55.7941 146.937 55.8899C146.641 55.9254 146.367 55.8868 146.115 55.774C146.256 55.7922 146.393 55.7729 146.526 55.7161C146.202 55.0056 146.082 54.2524 146.167 53.4564C146.438 53.2167 146.729 53.0235 147.04 52.877Z" fill="#81B3CD"/>
<path fill-rule="evenodd" clip-rule="evenodd" d="M151.769 52.6465C151.912 53.3129 151.895 53.9696 151.718 54.6165C150.928 55.3038 150.055 55.8253 149.099 56.1809C149.401 56.5026 149.675 56.8309 149.92 57.1659C149.872 57.3289 149.769 57.4062 149.612 57.3977C148.895 56.5297 148.005 56.0276 146.941 55.8912C147.471 55.7954 148.018 55.7374 148.585 55.7174C148.802 55.6195 149.007 55.5229 149.201 55.4277C149.711 55.304 150.191 55.1109 150.639 54.8483C150.96 54.8318 151.216 54.6772 151.41 54.3847C151.585 53.8054 151.705 53.226 151.769 52.6465Z" fill="#554B87"/>
<path opacity="0.998" fill-rule="evenodd" clip-rule="evenodd" d="M231.376 45.2285C231.359 45.3435 231.393 45.4207 231.479 45.4603C231.788 47.4488 231.703 49.4189 231.222 51.3703C230.9 52.4044 230.609 53.4473 230.349 54.4992C230.333 55.0593 230.572 55.291 231.068 55.1945C230.611 55.9158 229.995 56.3407 229.219 56.4692C228.876 56.433 228.637 56.5874 228.5 56.9328C229.163 55.168 229.795 53.3911 230.4 51.6021C230.553 50.9502 230.69 50.2936 230.811 49.6321C230.972 48.1431 231.16 46.6752 231.376 45.2285Z" fill="#BD6C04"/>
<path fill-rule="evenodd" clip-rule="evenodd" d="M200.866 54.7327C200.279 56.4003 199.286 57.675 197.887 58.5569C197.51 58.8338 197.1 58.9305 196.655 58.8466C196.544 58.6465 196.527 58.4341 196.603 58.2092C198.357 57.5441 199.572 56.2501 200.25 54.3271C200.596 54.1971 200.802 54.3323 200.866 54.7327Z" fill="#2D130A"/>
<path fill-rule="evenodd" clip-rule="evenodd" d="M200.868 54.7324C202.518 55.405 203.015 56.641 202.357 58.4407C201.533 59.3187 200.557 59.6085 199.429 59.3098C198.882 59.1164 198.368 58.8653 197.889 58.5566C199.288 57.6747 200.28 56.4 200.868 54.7324Z" fill="#651D0C"/>
<path fill-rule="evenodd" clip-rule="evenodd" d="M161.732 60.0644C161.467 59.9406 161.245 59.7475 161.064 59.485C160.363 58.6372 159.969 57.6328 159.883 56.472C160.288 57.1042 160.836 57.3166 161.526 57.1094C162.424 56.6994 163.28 56.1973 164.094 55.6029C164.368 55.5256 164.642 55.5256 164.916 55.6029C165.125 55.7647 165.159 55.9577 165.019 56.1823C163.375 56.8971 162.279 58.191 161.732 60.0644Z" fill="#E19E7B"/>
<path fill-rule="evenodd" clip-rule="evenodd" d="M156.286 68.9839C157.552 67.6183 158.168 65.938 158.135 63.943C158.106 63.2609 158.037 62.5849 157.93 61.915C158.015 61.7704 158.152 61.6931 158.341 61.6832C158.648 61.6292 158.956 61.5906 159.265 61.5673C159.273 61.0578 159.221 60.5557 159.111 60.0609C158.485 58.1138 157.338 56.7038 155.67 55.8311C156.159 55.7372 156.638 55.7759 157.108 55.947C159.093 57.351 160.24 59.379 160.549 62.0309C160.836 63.9267 160.562 65.7036 159.727 67.3615C158.597 67.9351 157.45 68.4759 156.286 68.9839Z" fill="#4D4182"/>
<path fill-rule="evenodd" clip-rule="evenodd" d="M243.192 56.0032C243.532 55.9422 243.754 56.0967 243.859 56.4667C244.337 58.714 244.508 60.9931 244.373 63.3038C244.134 63.6129 243.893 63.6129 243.654 63.3038C243.628 61.756 243.56 60.2109 243.449 58.6685C243.392 57.9067 243.238 57.1728 242.986 56.4667C243.012 56.2844 243.081 56.1299 243.192 56.0032Z" fill="#793E1A"/>
<path fill-rule="evenodd" clip-rule="evenodd" d="M153.308 56.3518C153.334 56.7849 153.163 57.0552 152.794 57.163C150.981 57.1239 149.749 58.051 149.096 59.9442C148.856 59.8669 148.617 59.7897 148.377 59.7124C148.659 58.8532 149.07 58.0806 149.61 57.3948C149.766 57.4032 149.869 57.3259 149.918 57.163C150.934 56.2874 152.064 56.017 153.308 56.3518Z" fill="#F3F0F2"/>
<path fill-rule="evenodd" clip-rule="evenodd" d="M242.058 56.3544C242.26 56.3267 242.448 56.3653 242.623 56.4703C242.875 58.0799 242.943 59.7023 242.828 61.3374C242.589 61.6464 242.348 61.6464 242.109 61.3374C242.083 59.8679 242.032 58.4 241.955 56.9338C241.964 56.7301 241.998 56.537 242.058 56.3544Z" fill="#793E1A"/>
<path fill-rule="evenodd" clip-rule="evenodd" d="M153.307 56.3574C153.684 56.4798 154.06 56.6149 154.437 56.763C156.17 58.0024 157.335 59.7214 157.929 61.9198C158.037 62.5898 158.105 63.2657 158.135 63.9478C158.168 65.9429 157.552 67.6232 156.286 68.9887C154.868 69.9327 153.395 70.0486 151.869 69.3364C151.488 69.0058 151.077 68.7354 150.636 68.5252C150.225 67.9452 149.814 67.3658 149.404 66.7869C148.366 64.9928 147.955 63.0228 148.171 60.8769C148.171 60.7224 148.171 60.5678 148.171 60.4133C148.269 60.2045 148.338 59.9728 148.376 59.718C148.616 59.7953 148.856 59.8725 149.095 59.9498C148.801 61.2891 148.835 62.6025 149.198 63.8899C149.482 65.3823 150.133 66.6185 151.15 67.5981C152.515 69.0207 154.021 69.2333 155.67 68.2355C156.002 68.0343 156.242 67.7446 156.389 67.3664C156.888 66.6639 157.179 65.8527 157.262 64.9328C157.446 62.0076 156.504 59.6705 154.437 57.9219C154.148 57.7201 153.84 57.5849 153.512 57.5163C153.278 57.3829 153.039 57.267 152.793 57.1686C153.162 57.0608 153.334 56.7905 153.307 56.3574Z" fill="#D7D3D4"/>
<path fill-rule="evenodd" clip-rule="evenodd" d="M152.792 57.1672C153.038 57.2656 153.277 57.3815 153.511 57.5149C153.409 57.5149 153.306 57.5149 153.203 57.5149C153.181 57.651 153.215 57.7669 153.306 57.8625C154.623 58.5563 155.53 59.6765 156.028 61.2231C156.206 61.7497 156.343 62.2904 156.439 62.8455C156.512 64.088 156.46 65.3241 156.285 66.5538C156.285 66.8464 156.319 67.1168 156.387 67.365C156.241 67.7432 156.001 68.0329 155.668 68.2341C154.02 69.2318 152.514 69.0193 151.149 67.5967C151.329 67.6404 151.5 67.7177 151.662 67.8285C151.745 67.7928 151.814 67.7349 151.868 67.6547C151.731 67.5388 151.731 67.4229 151.868 67.307C150.23 65.3849 149.545 63.0865 149.813 60.4119C149.555 60.435 149.333 60.4736 149.146 60.5278C148.952 61.6513 148.969 62.7716 149.197 63.8884C148.834 62.6011 148.8 61.2877 149.094 59.9484C149.747 58.0552 150.98 57.1281 152.792 57.1672Z" fill="#5D67B1"/>
<path fill-rule="evenodd" clip-rule="evenodd" d="M233.738 57.8604C234.251 57.8406 234.44 58.1109 234.303 58.6716C233.653 60.3286 233.003 61.9896 232.351 63.6546C231.967 63.8834 231.744 63.7676 231.684 63.3069C231.703 63.0662 231.754 62.8345 231.838 62.6116C232.501 61.043 233.134 59.4594 233.738 57.8604Z" fill="#3B1905"/>
<path fill-rule="evenodd" clip-rule="evenodd" d="M152.077 58.5547C153.357 58.6502 154.299 59.3455 154.902 60.6406C155.998 62.6801 156.032 64.7275 155.004 66.7824C154.221 67.5347 153.416 67.554 152.59 66.8404C151.037 65.0977 150.403 62.9925 150.69 60.5247C150.913 59.6255 151.375 58.9689 152.077 58.5547Z" fill="#433295"/>
<path fill-rule="evenodd" clip-rule="evenodd" d="M234.355 59.3665C234.887 59.2515 235.075 59.4832 234.92 60.0618C234.6 61.0166 234.223 61.9437 233.79 62.843C233.243 63.1134 233.037 62.9203 233.174 62.2636C233.579 61.2901 233.974 60.3243 234.355 59.3665Z" fill="#3A1905"/>
<path fill-rule="evenodd" clip-rule="evenodd" d="M151.767 59.5988C152.028 59.5529 152.251 59.6302 152.435 59.8305C152.642 61.2649 152.607 62.6941 152.332 64.1182C151.817 64.5099 151.475 64.3554 151.305 63.6547C151.107 62.5714 151.107 61.4899 151.305 60.4099C151.482 60.153 151.636 59.8827 151.767 59.5988Z" fill="#8182C2"/>
<path opacity="0.99" fill-rule="evenodd" clip-rule="evenodd" d="M225.829 46.3887C225.914 46.6076 226 46.8393 226.086 47.084C226.316 49.7939 225.7 52.2275 224.237 54.3846C222.837 56.4784 220.971 57.5793 218.639 57.6873C217.231 58.6581 216.186 59.9907 215.506 61.6853C214.698 63.7463 214.765 65.7549 215.711 67.7113C216.025 68.0136 216.384 68.2067 216.79 68.2907C216.796 69.5543 216.899 70.7903 217.098 71.9989C216.515 72.2423 215.898 72.3582 215.249 72.3466C215.351 70.8804 215.368 69.4125 215.301 67.943C215.129 67.634 214.959 67.325 214.787 67.016C213.979 62.6409 215.263 59.2996 218.639 56.992C220.684 56.6979 222.413 55.7129 223.826 54.037C225.296 51.7605 225.964 49.211 225.829 46.3887Z" fill="#DE9A78"/>
<path fill-rule="evenodd" clip-rule="evenodd" d="M148.173 60.4102C148.173 60.5646 148.173 60.7192 148.173 60.8737C148.071 61.4693 148.037 62.0875 148.07 62.7278C147.896 62.7093 147.724 62.7285 147.557 62.7858C147.163 63.0273 146.786 63.2976 146.427 63.597C145.611 64.6848 144.857 65.8242 144.167 67.0155C144.049 67.1582 143.929 67.1582 143.807 67.0155C143.739 66.6293 143.739 66.2429 143.807 65.8567C144.739 63.4372 146.195 61.6216 148.173 60.4102Z" fill="#E29F7B"/>
<path fill-rule="evenodd" clip-rule="evenodd" d="M163.684 64.9293C162.596 64.5123 161.945 63.6625 161.732 62.3798C161.845 62.5656 161.982 62.7394 162.143 62.9013C162.588 62.9786 163.034 62.9786 163.479 62.9013C164.533 62.5214 165.457 61.9034 166.252 61.0472C166.837 60.8404 167.077 61.053 166.971 61.6845C165.702 62.5531 164.606 63.6347 163.684 64.9293Z" fill="#E19E7B"/>
<path opacity="0.993" fill-rule="evenodd" clip-rule="evenodd" d="M189.057 62.61C188.92 62.6486 188.92 62.6873 189.057 62.7259C189.057 62.7645 189.057 62.8032 189.057 62.8417C189.76 64.8946 190.394 66.9805 190.957 69.0995C191.563 72.1121 192.162 75.1251 192.755 78.1384C192.639 78.3852 192.621 78.6552 192.703 78.9496C193.167 81.0378 193.594 83.1237 193.987 85.2073C194.126 86.3684 194.365 87.489 194.706 88.5679C194.751 89.4382 194.888 90.2876 195.117 91.1173C195.117 91.195 195.117 91.2715 195.117 91.3491C195.041 91.334 194.972 91.3537 194.912 91.407C190.127 96.8443 185.317 102.233 180.479 107.573C180.378 107.229 180.291 106.881 180.223 106.53C184.073 101.78 187.993 97.0668 191.984 92.3921C191.67 86.1598 191.19 79.9415 190.546 73.7348C190.021 69.6267 189.285 65.5708 188.338 61.567C188.406 61.4126 188.474 61.4126 188.543 61.567C188.635 61.9702 188.807 62.3178 189.057 62.61Z" fill="#E29E7B"/>
<path fill-rule="evenodd" clip-rule="evenodd" d="M153.512 57.5117C153.84 57.5803 154.148 57.7156 154.437 57.9173C156.504 59.666 157.446 62.003 157.261 64.9283C157.179 65.8482 156.888 66.6593 156.388 67.3618C156.32 67.1137 156.286 66.8432 156.286 66.5506C156.461 65.321 156.512 64.0849 156.44 62.8424C156.344 62.2873 156.207 61.7466 156.029 61.22C155.531 59.6734 154.623 58.5532 153.307 57.8594C153.216 57.7638 153.181 57.6479 153.204 57.5117C153.307 57.5117 153.409 57.5117 153.512 57.5117Z" fill="#515AA5"/>
<path fill-rule="evenodd" clip-rule="evenodd" d="M243.702 64.119C244.047 64.0463 244.253 64.2008 244.318 64.5825C244.239 65.4676 244.188 66.3561 244.164 67.2479C244.002 67.6016 243.763 67.6789 243.445 67.4796C243.456 66.4385 243.489 65.3956 243.548 64.3508C243.622 64.2877 243.673 64.2104 243.702 64.119Z" fill="#7A3F1B"/>
<path fill-rule="evenodd" clip-rule="evenodd" d="M151.148 67.5949C150.131 66.6153 149.481 65.3791 149.197 63.8867C148.969 62.7698 148.951 61.6495 149.145 60.526C149.332 60.4718 149.555 60.4332 149.813 60.4102C149.544 63.0848 150.229 65.3831 151.867 67.3052C151.73 67.4211 151.73 67.537 151.867 67.6529C151.813 67.7331 151.745 67.791 151.662 67.8267C151.5 67.7159 151.329 67.6386 151.148 67.5949Z" fill="#5059A5"/>
<path opacity="0.974" fill-rule="evenodd" clip-rule="evenodd" d="M191.213 65.2754C192.06 65.7534 192.916 66.2362 193.781 66.7239C194.514 67.0643 195.268 67.3346 196.041 67.5351C198.693 67.8948 201.346 67.9141 204.002 67.5931C204.225 67.6124 204.446 67.6317 204.669 67.651C205.697 67.8057 206.056 68.4431 205.748 69.5631C205.015 71.1013 204.107 72.4919 203.026 73.7349C202.166 73.8441 201.31 73.9599 200.458 74.0825C200.389 73.6963 200.321 73.3099 200.252 72.9237C200.252 72.8464 200.218 72.8078 200.15 72.8078C200.163 71.4923 200.128 70.179 200.047 68.8678C196.671 68.9509 193.726 67.7533 191.213 65.2754Z" fill="#E29E7A"/>
<path opacity="0.983" fill-rule="evenodd" clip-rule="evenodd" d="M163.682 66.4355C164.018 66.8189 164.395 67.1473 164.812 67.4206C166.229 67.7899 167.651 67.7706 169.074 67.3626C169.433 67.4585 169.758 67.6323 170.05 67.8841C170.41 68.2897 170.769 68.6953 171.129 69.1009C172.211 71.0826 172.81 73.2458 172.927 75.5904C172.922 75.8743 172.854 76.106 172.721 76.2857C172.032 74.5445 171.176 72.9221 170.153 71.4185C169.878 70.779 169.467 70.2575 168.92 69.8541C168.488 69.5906 168.042 69.3588 167.585 69.1588C166.236 69.3589 165.072 68.9533 164.093 67.942C163.874 67.4735 163.737 66.9713 163.682 66.4355Z" fill="#E19E7A"/>
<path fill-rule="evenodd" clip-rule="evenodd" d="M149.404 66.7832C149.814 67.362 150.225 67.9415 150.637 68.5215C150.049 69.5044 149.638 70.5859 149.404 71.7662C149.418 71.9435 149.487 72.0594 149.61 72.1138C149.335 72.3004 149.13 72.5708 148.993 72.925C148.891 73.0795 148.788 73.0795 148.685 72.925C148.274 70.7677 148.514 68.7204 149.404 66.7832Z" fill="#E19E7B"/>
<path fill-rule="evenodd" clip-rule="evenodd" d="M150.637 68.5215C151.078 68.7317 151.489 69.0021 151.87 69.3327C151.693 69.8927 151.556 70.4722 151.459 71.0709C150.8 71.3309 150.184 71.6785 149.61 72.1139C149.487 72.0594 149.419 71.9435 149.404 71.7662C149.638 70.586 150.049 69.5044 150.637 68.5215Z" fill="#514381"/>
<path opacity="0.991" fill-rule="evenodd" clip-rule="evenodd" d="M164.095 67.9414C165.075 68.9527 166.239 69.3583 167.587 69.1582C168.044 69.3582 168.49 69.59 168.923 69.8535C169.469 70.2569 169.88 70.7784 170.155 71.4179C170.055 71.3436 169.952 71.2665 169.847 71.1861C166.582 72.8736 163.295 74.496 159.986 76.0533C159.812 76.0347 159.64 76.0544 159.472 76.1112C158.857 76.3858 158.275 76.715 157.726 77.0962C157.355 77.1901 157.012 77.3454 156.699 77.5597C156.21 77.7776 155.73 78.0291 155.261 78.313C154.79 78.4555 154.311 78.5135 153.823 78.4868C153.806 77.9827 153.823 77.4809 153.874 76.9803C154.183 75.6463 154.405 74.2944 154.542 72.9244C154.536 72.53 154.484 72.1438 154.388 71.7656C154.277 71.4667 154.089 71.2735 153.823 71.1861C153.823 71.1476 153.823 71.1089 153.823 71.0703C154.006 70.9402 154.212 70.9209 154.439 71.0123C155.241 71.6836 155.583 72.5914 155.466 73.7356C155.343 74.6639 155.206 75.591 155.055 76.5168C158.79 74.3331 162.556 72.2086 166.355 70.1432C165.281 69.82 164.528 69.086 164.095 67.9414Z" fill="#4E4183"/>
<path fill-rule="evenodd" clip-rule="evenodd" d="M231.683 68.7538C232.029 68.6811 232.234 68.8356 232.3 69.2173C231.927 70.1524 231.584 71.0987 231.273 72.0564C230.927 72.1759 230.722 72.0407 230.656 71.6509C230.859 70.6168 231.201 69.651 231.683 68.7538Z" fill="#3B1905"/>
<path fill-rule="evenodd" clip-rule="evenodd" d="M228.394 69.2191C228.924 69.1769 229.112 69.4474 228.959 70.0303C227.945 72.3429 227.243 74.7571 226.853 77.273C226.358 77.3518 226.153 77.1004 226.237 76.5198C226.285 75.7318 226.406 74.9598 226.597 74.2021C227.168 72.5173 227.768 70.8563 228.394 69.2191Z" fill="#3B1905"/>
<path fill-rule="evenodd" clip-rule="evenodd" d="M153.821 71.1875C154.087 71.2749 154.276 71.4681 154.386 71.7669C154.482 72.1452 154.534 72.5314 154.54 72.9258C154.403 74.2957 154.181 75.6476 153.872 76.9817C153.821 77.4823 153.804 77.9841 153.821 78.4882C154.309 78.5148 154.788 78.4569 155.259 78.3143C155.728 78.0304 156.208 77.779 156.697 77.5611C156.319 78.2031 155.84 78.8405 155.259 79.4732C154.546 79.8324 153.827 79.8324 153.102 79.4732C152.34 78.8265 152.118 77.9957 152.434 76.9817C152.909 75.4862 153.354 73.9797 153.77 72.4622C153.821 72.039 153.838 71.6142 153.821 71.1875Z" fill="#DF9C7B"/>
<path opacity="0.997" fill-rule="evenodd" clip-rule="evenodd" d="M217.097 71.9993C217.441 71.9802 217.783 71.9995 218.124 72.0573C219.13 74.0355 220.071 76.0634 220.949 78.1411C221.293 78.8793 221.55 79.6523 221.719 80.4588C215.524 83.1323 209.31 85.7582 203.076 88.3389C202.871 88.2636 202.735 88.1083 202.665 87.8754C201.983 83.4104 201.212 78.9686 200.354 74.5488C200.389 74.3924 200.423 74.2378 200.456 74.0852C201.309 73.9626 202.164 73.8467 203.024 73.7376C207.102 73.293 211.177 72.8295 215.248 72.347C215.897 72.3586 216.514 72.2427 217.097 71.9993Z" fill="#F0F0F0"/>
<path fill-rule="evenodd" clip-rule="evenodd" d="M244.008 72.1151C244.243 72.0855 244.466 72.1241 244.676 72.231C244.796 72.9465 245.035 73.6031 245.395 74.201C245.549 74.7998 245.361 75.0122 244.83 74.8384C244.744 74.7419 244.658 74.6452 244.573 74.5487C244.199 73.7693 244.01 72.9581 244.008 72.1151Z" fill="#793E1B"/>
<path opacity="0.947" fill-rule="evenodd" clip-rule="evenodd" d="M200.151 72.8086C200.22 72.8086 200.254 72.8472 200.254 72.9245C200.254 73.3107 200.254 73.6971 200.254 74.0833C199.501 74.1743 198.748 74.2708 197.994 74.373C197.911 74.4087 197.843 74.4667 197.789 74.5468C197.352 77.0696 196.855 79.5808 196.299 82.0793C195.916 82.982 195.505 83.8708 195.066 84.7446C195.583 82.0573 196.045 79.3537 196.453 76.6328C196.659 75.5903 196.864 74.5473 197.069 73.5039C197.992 73.3594 198.916 73.2242 199.843 73.0983C200.009 73.071 200.112 72.9744 200.151 72.8086Z" fill="#EFEEEE"/>
<path opacity="0.965" fill-rule="evenodd" clip-rule="evenodd" d="M247.09 76.3999C247.134 77.2123 246.825 77.772 246.166 78.0802C244.759 78.7616 243.475 78.5496 242.314 77.4429C242.098 78.5693 242.133 79.6898 242.417 80.8035C242.841 82.0689 243.371 83.266 244.009 84.3959C243.933 84.4109 243.864 84.3912 243.803 84.3379C242.029 82.4015 240.916 80.0642 240.465 77.327C240.369 76.0824 240.403 74.8463 240.568 73.6187C240.873 73.33 241.198 73.3108 241.544 73.5608C241.705 73.9166 241.859 74.2837 242.006 74.6617C243.223 77.0836 244.918 77.663 247.09 76.3999Z" fill="#3A1904"/>
<path fill-rule="evenodd" clip-rule="evenodd" d="M239.285 73.3861C239.513 73.3488 239.702 73.426 239.85 73.6178C239.497 76.5451 239.908 79.3263 241.083 81.9615C241.237 82.5606 241.049 82.7726 240.518 82.5988C239.13 79.7944 238.668 76.8 239.131 73.6178C239.205 73.5548 239.256 73.4775 239.285 73.3861Z" fill="#7A3E1B"/>
<path fill-rule="evenodd" clip-rule="evenodd" d="M200.254 72.9219C200.323 73.3081 200.391 73.6945 200.46 74.0807C200.427 74.2333 200.393 74.3879 200.357 74.5442C201.216 78.964 201.986 83.4059 202.668 87.8709C202.738 88.1038 202.875 88.2591 203.079 88.3344C209.313 85.7537 215.528 83.1277 221.723 80.4543C221.771 80.6177 221.874 80.6942 222.031 80.6861C221.626 81.0314 221.181 81.3211 220.696 81.5552C214.645 84.1858 208.602 86.8325 202.565 89.4932C202.39 89.5002 202.253 89.4225 202.155 89.2615C201.949 88.5673 201.744 87.872 201.538 87.1756C200.957 83.9725 200.392 80.766 199.843 77.5572C198.593 80.0684 197.344 82.5785 196.094 85.0896C195.562 86.2172 195.1 87.376 194.707 88.5662C194.366 87.4873 194.127 86.3667 193.988 85.2055C194.656 82.3664 195.238 79.5075 195.735 76.6301C195.974 76.6301 196.214 76.6301 196.454 76.6301C196.046 79.3511 195.584 82.0547 195.067 84.742C195.505 83.8682 195.916 82.9794 196.299 82.0767C196.855 79.5782 197.352 77.067 197.789 74.5442C197.843 74.4641 197.911 74.4061 197.994 74.3704C198.748 74.2682 199.501 74.1717 200.254 74.0807C200.254 73.6945 200.254 73.3081 200.254 72.9219Z" fill="#B6B6B6"/>
<path opacity="0.988" fill-rule="evenodd" clip-rule="evenodd" d="M246.887 87.9882C247.207 89.1586 246.968 90.1437 246.168 90.9433C244.011 92.4776 241.682 92.9028 239.183 92.218C236.36 91.6026 234.015 90.0764 232.146 87.6406C231.486 86.6486 230.852 85.6451 230.246 84.6276C229.767 83.3737 229.373 82.0596 229.065 80.6876C228.55 79.4835 228.379 78.2088 228.551 76.8634C228.808 75.7254 229.442 75.2425 230.452 75.4148C230.996 75.7741 231.356 76.2956 231.53 76.9793C232.538 83.2915 235.74 87.4447 241.135 89.4368C242.539 89.5144 243.942 89.5144 245.346 89.4368C245.909 89.0057 246.423 88.5224 246.887 87.9882Z" fill="#3A1804"/>
<path opacity="0.98" fill-rule="evenodd" clip-rule="evenodd" d="M159.984 76.0517C159.837 76.1363 159.734 76.2719 159.675 76.4573C161.227 81.5538 162.819 86.6342 164.452 91.696C164.521 91.7829 164.606 91.8223 164.709 91.8119C164.444 92.2928 164.153 92.7563 163.836 93.2025C159.956 97.8123 155.83 102.08 151.458 106.008C150.34 106.966 149.176 107.835 147.965 108.615C147.809 108.614 147.69 108.536 147.606 108.383C147.509 108.125 147.389 107.893 147.246 107.688C147.171 107.548 147.137 107.394 147.143 107.224C149.884 105.369 152.52 103.341 155.053 101.14C157.249 99.3003 159.304 97.2723 161.216 95.0566C161.25 94.9025 161.285 94.7472 161.319 94.5931C160.341 88.6876 159.143 82.8552 157.724 77.0946C158.273 76.7134 158.855 76.3843 159.47 76.1096C159.638 76.0528 159.809 76.0331 159.984 76.0517Z" fill="#E29E7A"/>
<path opacity="0.971" fill-rule="evenodd" clip-rule="evenodd" d="M195.73 76.6348C195.233 79.5122 194.651 82.371 193.983 85.2101C193.59 83.1266 193.163 81.0407 192.699 78.9524C192.617 78.6581 192.635 78.3881 192.751 78.1413C192.737 78.227 192.755 78.3046 192.802 78.373C193.585 77.3811 194.561 76.8016 195.73 76.6348Z" fill="#F0EFEF"/>
<path opacity="0.998" fill-rule="evenodd" clip-rule="evenodd" d="M222.028 80.6875C224.985 82.5219 226.885 85.3031 227.729 89.0311C228.328 91.5759 228.551 94.1647 228.396 96.7953C228.05 97.9645 227.588 99.084 227.01 100.156C226.17 101.025 225.332 101.894 224.493 102.763C213.463 112.696 202.403 122.585 191.314 132.429C190.959 132.55 190.667 132.453 190.441 132.14C186.253 124.969 182.041 117.824 177.806 110.701C177.658 110.867 177.624 111.061 177.704 111.281C179.065 113.928 180.4 116.593 181.71 119.277C181.749 121.217 181.646 123.147 181.402 125.071C180.865 128.775 180.352 132.483 179.861 136.196C179.78 137.84 179.797 139.482 179.912 141.121C179.878 141.217 179.843 141.314 179.809 141.41C178.197 140.517 176.725 139.396 175.392 138.05C174.544 136.753 173.859 135.362 173.338 133.878C172.934 130.749 172.934 127.62 173.338 124.491C174.368 117.044 176.371 109.936 179.347 103.169C179.386 103.234 179.437 103.272 179.501 103.285C179.717 104.386 179.956 105.468 180.22 106.529C180.289 106.881 180.375 107.228 180.477 107.572C185.314 102.233 190.125 96.8439 194.909 91.4067C194.97 91.3534 195.039 91.3337 195.115 91.3487C195.677 94.0778 196.19 96.8208 196.656 99.5765C196.763 99.5939 196.866 99.5742 196.964 99.5185C201.89 94.4649 207.301 90.1772 213.194 86.6555C214.716 85.8385 216.291 85.1814 217.919 84.6854C215.119 85.1721 212.482 86.2151 210.009 87.8143C205.478 90.7554 201.199 94.0963 197.169 97.8382C196.609 95.7755 196.113 93.6896 195.68 91.5805C195.59 91.2665 195.401 91.1112 195.115 91.117C194.886 90.2872 194.749 89.4378 194.704 88.5675C195.096 87.3774 195.558 86.2186 196.091 85.091C197.341 82.5798 198.59 80.0698 199.84 77.5586C200.388 80.7674 200.953 83.9739 201.535 87.1769C201.74 87.8734 201.946 88.5687 202.151 89.2628C202.25 89.4239 202.386 89.5016 202.562 89.4946C208.599 86.8339 214.642 84.1871 220.692 81.5566C221.177 81.3225 221.623 81.0328 222.028 80.6875Z" fill="#F0F0F0"/>
<path fill-rule="evenodd" clip-rule="evenodd" d="M227.78 80.6868C228.008 80.6497 228.197 80.7262 228.345 80.9186C228.496 81.4679 228.667 82.009 228.858 82.5409C228.956 83.2165 228.715 83.4101 228.139 83.1204C227.904 82.483 227.715 81.8259 227.574 81.1503C227.6 80.9684 227.669 80.8131 227.78 80.6868Z" fill="#793E1A"/>
<path fill-rule="evenodd" clip-rule="evenodd" d="M241.751 83.7021C241.926 83.6835 242.098 83.7032 242.265 83.76C242.929 84.9328 243.767 85.9178 244.782 86.715C244.911 87.3617 244.688 87.5737 244.114 87.3524C243.203 86.518 242.399 85.5713 241.7 84.5133C241.628 84.2317 241.645 83.9617 241.751 83.7021Z" fill="#793E1B"/>
<path fill-rule="evenodd" clip-rule="evenodd" d="M195.115 91.3508C195.115 91.2732 195.115 91.1967 195.115 91.119C195.402 91.1132 195.591 91.2685 195.68 91.5826C196.114 93.6917 196.61 95.7776 197.17 97.8403C201.199 94.0984 205.479 90.7575 210.01 87.8164C212.482 86.2172 215.119 85.1742 217.919 84.6875C216.291 85.1835 214.716 85.8405 213.194 86.6575C207.301 90.1792 201.891 94.4669 196.964 99.5206C196.867 99.5762 196.764 99.5959 196.656 99.5785C196.191 96.8228 195.677 94.0799 195.115 91.3508Z" fill="#B7B7B7"/>
<path fill-rule="evenodd" clip-rule="evenodd" d="M241.239 85.5585C241.423 85.5249 241.593 85.5643 241.752 85.6744C242.371 86.6235 243.107 87.4347 243.961 88.1079C244.046 88.6294 243.858 88.8415 243.396 88.7453C242.449 88.006 241.662 87.0974 241.033 86.022C241.059 85.8401 241.128 85.6848 241.239 85.5585Z" fill="#793E1A"/>
<path opacity="0.993" fill-rule="evenodd" clip-rule="evenodd" d="M176.521 92.5071C176.663 92.5917 176.817 92.6694 176.984 92.7389C177.482 94.4864 177.91 96.2629 178.268 98.0696C176.389 100.53 174.556 103.04 172.772 105.602C169.218 110.848 165.742 116.159 162.346 121.536C162.115 121.513 161.927 121.378 161.781 121.13C160.255 119.135 158.766 117.107 157.313 115.047C158.094 114.257 158.916 113.524 159.778 112.845C161.262 111.17 162.751 109.49 164.246 107.804C165.934 105.483 167.458 103.029 168.817 100.445C168.783 100.425 168.749 100.407 168.715 100.387C167.564 101.86 166.486 103.405 165.479 105.023C162.301 109.464 158.586 113.192 154.334 116.205C153.02 117.101 151.616 117.738 150.122 118.117C148.277 115.735 146.48 113.301 144.729 110.817C144.63 110.316 144.699 109.853 144.935 109.426C145.517 108.615 146.099 107.804 146.681 106.993C146.729 106.867 146.712 106.752 146.63 106.645C146.732 106.635 146.818 106.674 146.886 106.761C146.949 106.943 147.035 107.097 147.143 107.224C147.136 107.394 147.171 107.548 147.246 107.688C147.262 107.847 147.245 108.002 147.195 108.151C146.821 108.533 146.495 108.958 146.219 109.426C146.308 109.551 146.41 109.571 146.527 109.484C147.029 109.221 147.508 108.931 147.965 108.615C149.176 107.835 150.34 106.966 151.458 106.008C155.83 102.08 159.956 97.8123 163.835 93.2024C164.153 92.7563 164.444 92.2928 164.709 91.8118C164.919 91.7585 165.125 91.6809 165.325 91.5801C165.385 91.6044 165.437 91.6427 165.479 91.696C166.514 94.1469 167.575 96.5805 168.663 98.9966C171.27 96.8087 173.89 94.6452 176.521 92.5071Z" fill="#F0F0F0"/>
<path opacity="0.988" fill-rule="evenodd" clip-rule="evenodd" d="M228.396 96.7969C228.369 97.6521 228.3 98.5015 228.191 99.3463C227.834 100.149 227.423 100.922 226.958 101.664C225.23 103.4 223.519 105.158 221.822 106.937C217.9 110.511 214.1 114.258 210.42 118.177C204.219 124.208 197.987 130.196 191.725 136.139C191.348 136.217 190.972 136.217 190.595 136.139C187.92 131.205 185.232 126.28 182.531 121.364C182.435 122.837 182.298 124.305 182.121 125.768C181.54 129.464 181.027 133.173 180.58 136.893C180.51 138.325 180.544 139.754 180.682 141.18C180.692 141.471 180.778 141.721 180.939 141.934C188.798 145.283 196.879 146.21 205.181 144.715C206.467 144.455 207.735 144.108 208.982 143.672C212.743 140.537 215.534 136.539 217.354 131.678C217.599 130.854 217.874 130.043 218.176 129.244C219.459 124.576 220.725 119.902 221.976 115.222C223.083 112.339 224.349 109.558 225.777 106.879C226.122 106.317 226.482 105.776 226.855 105.256C225.978 107.969 225.071 110.674 224.133 113.368C222.242 121.012 220.496 128.698 218.895 136.429C218.327 138.974 217.402 141.33 216.121 143.498C214.714 145.403 212.95 146.717 210.831 147.438C209.646 147.756 208.447 147.987 207.236 148.133C199.391 148.229 191.618 147.438 183.918 145.758C182.087 145.262 180.306 144.606 178.577 143.788C178.073 143.447 177.595 143.08 177.139 142.687C176.031 141.701 175.192 140.464 174.622 138.979C173.975 137.348 173.546 135.649 173.338 133.88C173.859 135.364 174.544 136.755 175.392 138.051C176.725 139.398 178.197 140.519 179.809 141.412C179.843 141.316 179.878 141.219 179.912 141.122C179.797 139.484 179.78 137.842 179.861 136.197C180.352 132.484 180.865 128.776 181.401 125.072C181.646 123.149 181.749 121.218 181.71 119.278C180.4 116.594 179.065 113.929 177.704 111.282C177.624 111.062 177.658 110.869 177.806 110.703C182.041 117.825 186.253 124.97 190.441 132.141C190.667 132.454 190.959 132.552 191.314 132.431C202.403 122.587 213.463 112.697 224.493 102.765C225.332 101.896 226.17 101.027 227.01 100.157C227.588 99.0856 228.05 97.9661 228.396 96.7969Z" fill="#B4B4B4"/>
<path opacity="0.991" fill-rule="evenodd" clip-rule="evenodd" d="M178.267 98.0723C178.662 99.8175 179.073 101.556 179.499 103.287C179.436 103.274 179.384 103.236 179.345 103.171C176.369 109.939 174.366 117.046 173.336 124.494C173.352 124.258 173.336 124.027 173.285 123.798C168.732 125.758 164.161 127.67 159.571 129.535C159.195 129.612 158.818 129.612 158.441 129.535C155.607 125.778 152.834 121.973 150.121 118.12C151.615 117.741 153.019 117.104 154.333 116.208C158.585 113.195 162.3 109.467 165.478 105.025C166.485 103.408 167.563 101.863 168.714 100.39C168.747 100.41 168.782 100.428 168.816 100.448C167.457 103.032 165.933 105.485 164.245 107.806C162.75 109.493 161.261 111.173 159.777 112.847C158.915 113.527 158.093 114.26 157.312 115.049C158.764 117.11 160.254 119.138 161.78 121.133C161.926 121.381 162.114 121.516 162.345 121.539C165.741 116.162 169.217 110.851 172.771 105.605C174.555 103.043 176.388 100.532 178.267 98.0723Z" fill="#B4B4B4"/>
<path fill-rule="evenodd" clip-rule="evenodd" d="M228.191 99.3477C227.992 101.402 227.547 103.372 226.856 105.258C226.482 105.777 226.122 106.318 225.777 106.88C224.349 109.559 223.083 112.341 221.977 115.224C220.726 119.903 219.459 124.578 218.176 129.246C217.874 130.044 217.6 130.855 217.354 131.679C215.534 136.54 212.743 140.538 208.982 143.673C207.735 144.109 206.468 144.457 205.182 144.716C196.88 146.211 188.799 145.284 180.94 141.935C180.778 141.723 180.692 141.472 180.683 141.182C180.544 139.755 180.51 138.326 180.58 136.894C181.027 133.174 181.541 129.466 182.121 125.769C182.299 124.307 182.435 122.838 182.532 121.366C185.232 126.281 187.921 131.206 190.595 136.141C190.972 136.218 191.348 136.218 191.725 136.141C197.987 130.197 204.219 124.209 210.421 118.179C214.1 114.26 217.901 110.512 221.823 106.938C223.52 105.159 225.231 103.401 226.959 101.665C227.424 100.924 227.835 100.151 228.191 99.3477Z" fill="#F0F0F0"/>
<path fill-rule="evenodd" clip-rule="evenodd" d="M197.478 100.04C197.554 100.025 197.623 100.045 197.683 100.098C194.853 104.977 192.285 110.037 189.979 115.279C190.759 117.213 191.735 119.009 192.907 120.667C193.251 121.075 193.611 121.461 193.985 121.826C201.022 116.834 208.076 111.869 215.146 106.935C218.693 104.665 222.253 102.463 225.829 100.33C215.829 109.409 205.796 118.448 195.732 127.447C194.201 128.827 192.643 130.159 191.058 131.445C188.82 127.803 186.645 124.115 184.535 120.378C188.454 114.101 192.375 107.825 196.297 101.547C196.674 101.025 197.067 100.523 197.478 100.04Z" fill="#B4B4B4"/>
<path fill-rule="evenodd" clip-rule="evenodd" d="M184.228 104.56C184.331 104.55 184.416 104.589 184.485 104.676C185.362 107.534 186.749 110.006 188.645 112.093C187.144 114.559 185.604 116.992 184.023 119.393C182.248 116.568 180.535 113.69 178.887 110.76C180.649 108.675 182.43 106.608 184.228 104.56Z" fill="#B4B4B4"/>
<path fill-rule="evenodd" clip-rule="evenodd" d="M151.458 107.111C151.614 107.112 151.734 107.19 151.817 107.343C153.253 109.445 154.708 111.531 156.183 113.601C154.545 115.085 152.73 116.244 150.739 117.077C149.093 115.026 147.518 112.902 146.014 110.704C148.011 109.83 149.825 108.632 151.458 107.111Z" fill="#B4B4B4"/>
<path fill-rule="evenodd" clip-rule="evenodd" d="M147.246 107.689C147.389 107.895 147.509 108.126 147.605 108.385C147.689 108.538 147.809 108.615 147.965 108.617C147.508 108.933 147.029 109.223 146.527 109.486C146.41 109.573 146.308 109.553 146.219 109.428C146.495 108.96 146.821 108.534 147.195 108.153C147.245 108.003 147.262 107.848 147.246 107.689Z" fill="#BCB8B7"/>
<path fill-rule="evenodd" clip-rule="evenodd" d="M183.507 109.195C185.221 109.257 185.855 110.222 185.407 112.092C184.862 113.119 184.091 113.409 183.096 112.962C182.179 112.304 181.922 111.397 182.326 110.238C182.655 109.765 183.05 109.418 183.507 109.195Z" fill="#9F9F9F"/>
<path fill-rule="evenodd" clip-rule="evenodd" d="M215.352 139.673C215.978 139.649 216.132 139.957 215.815 140.6C215.208 141.599 214.541 142.546 213.811 143.439C213.349 143.536 213.161 143.324 213.247 142.802C214.05 141.839 214.751 140.796 215.352 139.673Z" fill="#EDEDED"/>
<path fill-rule="evenodd" clip-rule="evenodd" d="M177.141 142.686C177.597 143.078 178.075 143.446 178.579 143.786C180.309 144.605 182.089 145.26 183.92 145.756C191.62 147.437 199.393 148.228 207.238 148.132C206.572 148.247 205.887 148.285 205.183 148.248C213.133 209.845 221.008 271.437 228.809 333.024C228.83 333.277 228.932 333.451 229.117 333.546C228.444 333.845 227.758 334.115 227.063 334.357C225.237 334.766 223.423 335.191 221.619 335.632C219.786 335.949 217.971 336.297 216.175 336.675C215.066 336.756 213.97 336.91 212.887 337.138C211.056 337.305 209.241 337.499 207.443 337.718C207.307 337.718 207.238 337.795 207.238 337.949C203.008 338.294 198.796 338.255 194.603 337.834C194.744 337.852 194.882 337.832 195.014 337.776C190.768 282.609 186.471 227.43 182.123 172.236C181.671 170.992 180.866 170.201 179.709 169.86C179.334 169.777 178.958 169.719 178.579 169.686C178.06 160.695 177.58 151.695 177.141 142.686Z" fill="#1E1F26"/>
<path fill-rule="evenodd" clip-rule="evenodd" d="M212.268 143.613C212.944 143.707 213.046 144.035 212.576 144.598C212.045 144.772 211.857 144.56 212.011 143.961C212.118 143.86 212.204 143.744 212.268 143.613Z" fill="#ECEBEB"/>
<path fill-rule="evenodd" clip-rule="evenodd" d="M210.936 144.54C211.468 144.425 211.656 144.657 211.5 145.236C210.327 145.999 209.077 146.559 207.751 146.916C207.199 147.029 206.651 147.164 206.108 147.321C205.662 147.146 205.594 146.857 205.902 146.452C207.168 146.202 208.4 145.815 209.6 145.293C210.08 145.1 210.526 144.848 210.936 144.54Z" fill="#EEEEEE"/>
<path opacity="0.997" fill-rule="evenodd" clip-rule="evenodd" d="M210.831 147.438C210.74 147.526 210.671 147.641 210.626 147.785C211.921 156.126 213.205 164.47 214.478 172.816C215.344 177.163 216.132 181.527 216.84 185.911C216.983 186.58 217.155 187.237 217.354 187.881C219.369 200.599 221.407 213.308 223.466 226.007C223.338 226.103 223.27 226.258 223.261 226.47C226.884 249.789 230.634 273.082 234.508 296.348C234.622 296.838 234.794 297.302 235.022 297.739C238.799 304.141 242.548 310.553 246.27 316.975C243.998 318.745 241.892 320.754 239.953 323.001C239.884 323.117 239.884 323.233 239.953 323.349C240.838 324.442 241.575 325.64 242.161 326.941C241.916 326.662 241.694 326.353 241.493 326.014C240.972 326.492 240.407 326.897 239.799 327.231C239.663 327.679 239.509 328.123 239.336 328.564C238.881 329.058 238.385 329.483 237.847 329.838C237.638 329.82 237.433 329.838 237.231 329.896C236.614 330.282 235.998 330.669 235.382 331.055C234.391 331.509 233.433 331.991 232.505 332.504C231.372 332.836 230.242 333.184 229.116 333.547C228.931 333.452 228.828 333.278 228.807 333.025C221.006 271.438 213.131 209.845 205.182 148.249C205.885 148.286 206.57 148.248 207.236 148.133C208.447 147.987 209.646 147.755 210.831 147.438Z" fill="#17181D"/>
<path opacity="0.991" fill-rule="evenodd" clip-rule="evenodd" d="M178.576 169.688C178.955 169.72 179.331 169.778 179.706 169.861C180.864 170.202 181.668 170.994 182.12 172.237C186.468 227.431 190.765 282.61 195.011 337.777C194.879 337.833 194.741 337.853 194.601 337.835C192.34 337.681 190.114 337.275 187.924 336.618C187.736 336.56 187.616 336.424 187.564 336.212C184.563 280.691 181.567 225.183 178.576 169.688Z" fill="#2A2B32"/>
<path opacity="0.996" fill-rule="evenodd" clip-rule="evenodd" d="M223.467 226.01C223.436 226.583 223.608 227.047 223.981 227.4C237.891 253.321 251.759 279.259 265.583 305.216C265.351 306.249 264.94 307.176 264.35 307.997C264.477 308.198 264.58 308.41 264.658 308.635C264.533 308.573 264.413 308.497 264.299 308.403C263.909 307.77 263.482 307.172 263.015 306.607C262.487 306.669 261.973 306.824 261.474 307.07C256.131 309.87 251.064 313.173 246.271 316.978C242.55 310.556 238.8 304.144 235.023 297.742C234.795 297.305 234.624 296.841 234.51 296.351C230.635 273.085 226.886 249.793 223.262 226.473C223.271 226.261 223.339 226.106 223.467 226.01Z" fill="#1D1E25"/>
<path opacity="0.991" fill-rule="evenodd" clip-rule="evenodd" d="M264.656 308.631C264.817 308.798 264.954 308.992 265.067 309.211C262.206 309.881 259.433 310.943 256.747 312.398C253.506 314.593 250.391 316.987 247.399 319.582C246.632 320.293 245.896 321.046 245.191 321.842C245.114 321.974 245.131 322.09 245.242 322.19C247.872 326.471 250.543 330.719 253.254 334.937C252.261 336.949 251.491 339.073 250.943 341.311C250.859 341.464 250.74 341.541 250.584 341.542C250.748 341.211 250.885 340.863 250.995 340.499C250.972 340.333 250.921 340.178 250.84 340.036C247.922 335.683 245.03 331.318 242.161 326.941C241.574 325.64 240.837 324.441 239.952 323.349C239.883 323.233 239.883 323.117 239.952 323.001C241.891 320.754 243.997 318.745 246.269 316.975C251.062 313.169 256.13 309.867 261.472 307.067C261.971 306.82 262.485 306.666 263.013 306.604C263.48 307.169 263.908 307.767 264.297 308.4C264.411 308.494 264.531 308.57 264.656 308.631Z" fill="#E09C79"/>
<path opacity="0.996" fill-rule="evenodd" clip-rule="evenodd" d="M265.066 309.211C267.739 312.999 270.375 316.823 272.976 320.683C271.686 320.597 270.419 320.731 269.175 321.089C262.483 323.676 257.175 328.291 253.253 334.937C250.542 330.719 247.871 326.471 245.241 322.19C245.13 322.09 245.113 321.974 245.19 321.842C245.895 321.046 246.631 320.293 247.398 319.583C250.389 316.987 253.505 314.593 256.746 312.398C259.432 310.943 262.205 309.881 265.066 309.211Z" fill="#EFC49F"/>
<path opacity="0.998" fill-rule="evenodd" clip-rule="evenodd" d="M272.978 320.684C278.328 328.464 283.703 336.228 289.105 343.976C289.099 344.039 289.065 344.078 289.002 344.092C288.677 343.951 288.369 343.777 288.078 343.571C286.914 343.358 285.784 343.513 284.688 344.034C282.626 345.1 280.674 346.375 278.833 347.858C271.91 353.852 266.021 360.921 261.165 369.065C255.593 370.467 249.943 370.777 244.216 369.992C241.726 366.98 240.306 363.408 239.953 359.273C239.806 356.647 239.687 354.021 239.594 351.393C240.763 350.172 242.063 349.148 243.497 348.322C245.62 346.785 247.623 345.067 249.506 343.165C249.892 342.641 250.251 342.101 250.585 341.543C250.741 341.542 250.86 341.464 250.944 341.311C251.492 339.073 252.262 336.949 253.256 334.937C257.178 328.292 262.485 323.676 269.177 321.089C270.421 320.731 271.688 320.597 272.978 320.684Z" fill="#1E1F26"/>
<path fill-rule="evenodd" clip-rule="evenodd" d="M271.127 321.611C271.608 321.591 272.088 321.611 272.566 321.669C272.786 321.909 272.82 322.18 272.668 322.48C271.086 322.553 269.546 322.882 268.046 323.465C267.5 323.156 267.5 322.828 268.046 322.48C269.092 322.21 270.119 321.92 271.127 321.611Z" fill="#E4E3E4"/>
<path fill-rule="evenodd" clip-rule="evenodd" d="M266.301 323.235C266.831 323.193 267.019 323.463 266.866 324.046C266.547 324.521 266.29 324.482 266.096 323.93C266.145 323.687 266.213 323.455 266.301 323.235Z" fill="#DFDEDE"/>
<path fill-rule="evenodd" clip-rule="evenodd" d="M273.081 323.699C273.264 323.666 273.435 323.705 273.594 323.815C274.365 325.012 275.135 326.21 275.905 327.407C276.026 327.967 275.837 328.18 275.34 328.045C274.57 326.866 273.8 325.689 273.029 324.51C272.972 324.235 272.989 323.963 273.081 323.699Z" fill="#E6E6E6"/>
<path fill-rule="evenodd" clip-rule="evenodd" d="M232.505 332.504C231.717 332.901 230.895 333.229 230.039 333.489C229.059 333.838 228.066 334.127 227.061 334.358C227.756 334.116 228.441 333.846 229.115 333.547C230.242 333.184 231.372 332.836 232.505 332.504Z" fill="#986C59"/>
<path opacity="0.995" fill-rule="evenodd" clip-rule="evenodd" d="M237.847 329.837C237.728 329.926 237.625 330.042 237.539 330.185C237.779 333.665 238.019 337.141 238.258 340.614C238.157 340.65 238.09 340.728 238.053 340.846C238.183 342.099 238.268 343.373 238.309 344.67C238.348 344.735 238.4 344.773 238.463 344.786C238.575 346.485 238.678 348.184 238.772 349.885C238.123 350.518 237.404 351.039 236.614 351.449C235.529 351.98 234.399 352.386 233.225 352.666C232.743 348.418 232.316 344.168 231.941 339.919C231.684 338.546 231.427 337.175 231.17 335.805C227.666 336.858 224.105 337.708 220.487 338.354C216.281 338.932 212.069 339.375 207.853 339.687C207.784 339.183 207.699 338.681 207.596 338.181C207.523 338.01 207.403 337.933 207.236 337.949C207.236 337.795 207.305 337.717 207.442 337.717C209.156 337.642 210.868 337.526 212.578 337.369C212.691 337.291 212.794 337.214 212.886 337.138C213.969 336.909 215.065 336.755 216.173 336.674C217.756 336.493 219.331 336.242 220.898 335.921C221.175 335.902 221.414 335.806 221.617 335.631C223.421 335.191 225.235 334.766 227.061 334.356C228.067 334.126 229.06 333.836 230.04 333.487C230.896 333.228 231.718 332.9 232.506 332.502C233.433 331.99 234.392 331.508 235.382 331.054C235.998 330.668 236.614 330.281 237.231 329.895C237.433 329.837 237.639 329.818 237.847 329.837Z" fill="#E19C79"/>
<path opacity="0.997" fill-rule="evenodd" clip-rule="evenodd" d="M233.224 352.668C232.921 352.769 232.612 352.884 232.299 353.015C230.636 353.399 228.959 353.669 227.266 353.827C224.594 353.845 221.923 353.807 219.254 353.711C216.645 353.458 214.18 352.667 211.858 351.335C211.499 350.998 211.122 350.688 210.728 350.408C210.36 349.936 210.018 349.454 209.701 348.959C209.116 345.858 208.5 342.768 207.852 339.689C212.068 339.377 216.28 338.933 220.486 338.356C224.104 337.709 227.665 336.86 231.169 335.807C231.426 337.176 231.683 338.547 231.94 339.921C232.315 344.17 232.742 348.419 233.224 352.668Z" fill="#EFC49F"/>
<path fill-rule="evenodd" clip-rule="evenodd" d="M221.616 335.633C221.413 335.808 221.173 335.904 220.897 335.923C219.33 336.244 217.755 336.495 216.172 336.676C217.968 336.298 219.784 335.95 221.616 335.633Z" fill="#866152"/>
<path fill-rule="evenodd" clip-rule="evenodd" d="M212.884 337.139C212.791 337.215 212.688 337.292 212.576 337.37C210.865 337.527 209.154 337.643 207.439 337.718C209.237 337.499 211.052 337.306 212.884 337.139Z" fill="#AE7A63"/>
<path opacity="0.127" fill-rule="evenodd" clip-rule="evenodd" d="M238.258 340.617C238.304 342.009 238.372 343.4 238.464 344.789C238.4 344.776 238.349 344.738 238.31 344.673C238.268 343.376 238.183 342.102 238.053 340.849C238.09 340.731 238.158 340.653 238.258 340.617Z" fill="#956851"/>
<path opacity="0.991" fill-rule="evenodd" clip-rule="evenodd" d="M289.104 343.977C289.437 344.306 289.625 344.731 289.669 345.251C289.769 347.042 289.461 348.741 288.745 350.35C287.651 352.975 286.349 355.448 284.841 357.767C283.002 360.599 281.016 363.303 278.883 365.879C277.423 367.527 275.967 369.169 274.518 370.804C270.041 371.93 265.556 373.011 261.061 374.048C257.376 374.789 253.661 375.234 249.916 375.381C247.5 375.372 245.121 375.044 242.777 374.396C241.891 374.108 241.034 373.741 240.209 373.295C239.987 372.33 239.85 371.345 239.798 370.34C239.554 365.202 239.229 360.045 238.822 354.87C238.738 353.884 238.754 352.918 238.874 351.973C238.866 352.024 238.884 352.062 238.925 352.089C239.135 351.832 239.356 351.601 239.593 351.393C239.686 354.021 239.805 356.647 239.952 359.273C240.305 363.408 241.725 366.981 244.215 369.993C249.942 370.777 255.591 370.468 261.164 369.065C266.02 360.921 271.909 353.852 278.832 347.859C280.673 346.375 282.624 345.101 284.687 344.035C285.783 343.513 286.913 343.358 288.077 343.571C288.368 343.777 288.676 343.951 289.001 344.093C289.064 344.079 289.098 344.039 289.104 343.977Z" fill="#16171C"/>
<path opacity="0.998" fill-rule="evenodd" clip-rule="evenodd" d="M209.7 348.959C210.017 349.454 210.359 349.936 210.727 350.408C211.121 350.688 211.498 350.997 211.857 351.335C214.179 352.666 216.645 353.458 219.253 353.71C219.984 353.877 220.737 353.974 221.513 354C223.053 354.058 224.594 354.078 226.135 354.058C228.179 353.987 230.2 353.697 232.196 353.189C232.253 353.145 232.287 353.087 232.298 353.015C232.612 352.884 232.92 352.768 233.223 352.667C234.397 352.387 235.527 351.981 236.613 351.45C237.403 351.04 238.122 350.519 238.77 349.886C238.838 350.579 238.872 351.274 238.872 351.972C238.753 352.918 238.737 353.883 238.821 354.869C239.228 360.044 239.552 365.201 239.797 370.34C239.849 371.344 239.986 372.329 240.208 373.295C240.242 374.222 240.277 375.149 240.311 376.076C240.311 376.192 240.311 376.308 240.311 376.423C233.186 378.923 225.909 380.585 218.482 381.406C212.602 381.919 206.713 382.227 200.814 382.333C194.583 382.27 188.369 381.632 182.171 380.421C180.991 380.185 179.826 379.877 178.678 379.494C177.52 379.013 176.356 378.57 175.186 378.162C175.308 372.481 177.072 367.576 180.476 363.444C185.669 357.085 192.055 353.087 199.633 351.45C203.021 350.637 206.377 349.806 209.7 348.959Z" fill="#1E1F26"/>
<path fill-rule="evenodd" clip-rule="evenodd" d="M232.298 353.014C232.287 353.086 232.253 353.143 232.195 353.187C230.199 353.696 228.179 353.986 226.135 354.057C226.512 353.979 226.888 353.902 227.265 353.825C228.958 353.667 230.635 353.397 232.298 353.014Z" fill="#524844"/>
<path opacity="0.996" fill-rule="evenodd" clip-rule="evenodd" d="M219.252 353.711C221.922 353.807 224.592 353.845 227.264 353.827C226.887 353.904 226.511 353.981 226.134 354.059C224.593 354.078 223.053 354.059 221.512 354.001C220.736 353.975 219.983 353.878 219.252 353.711Z" fill="#C5A286"/>
<path fill-rule="evenodd" clip-rule="evenodd" d="M180.634 366.344C181.249 366.362 181.386 366.652 181.045 367.213C180.418 367.23 180.281 366.941 180.634 366.344Z" fill="#DCDCDD"/>
<path fill-rule="evenodd" clip-rule="evenodd" d="M179.811 367.618C180.324 367.598 180.513 367.869 180.376 368.429C179.036 370.963 178.283 373.706 178.116 376.657C177.596 377.041 177.34 376.867 177.346 376.136C177.583 373.073 178.405 370.234 179.811 367.618Z" fill="#E5E5E5"/>
<path opacity="0.985" fill-rule="evenodd" clip-rule="evenodd" d="M240.311 376.074C240.447 377.424 240.549 378.796 240.619 380.188C240.614 380.485 240.579 380.774 240.516 381.057C237.477 382.386 234.361 383.449 231.169 384.244C217.425 387.722 203.557 388.533 189.567 386.678C184.689 385.959 180.032 384.413 175.597 382.042C175.447 381.779 175.362 381.489 175.34 381.173C175.223 380.173 175.172 379.168 175.186 378.16C176.356 378.568 177.521 379.012 178.678 379.493C179.827 379.875 180.992 380.183 182.171 380.42C188.369 381.631 194.584 382.268 200.815 382.332C206.713 382.225 212.602 381.917 218.483 381.405C225.909 380.583 233.186 378.921 240.311 376.422C240.311 376.306 240.311 376.19 240.311 376.074Z" fill="#16171C"/>
<path d="M176.329 383.596C241.155 393.946 319.645 397.239 342.285 396.534C364.924 395.829 401.715 398.857 401.715 378.738C401.715 358.619 282.903 368.613 278.866 368.613C277.116 368.613 266.851 373.292 236.192 373.901C221.707 388.125 176.329 372.203 176.329 383.596Z" fill="#1C0036" fill-opacity="0.25"/>
<path d="M209.39 393.946C209.39 397.84 190.815 403.073 173.515 403.073C156.215 403.073 97.2402 394.821 97.2402 390.927C97.2402 387.033 119.154 385.051 135.301 385.639C151.448 386.226 209.39 390.053 209.39 393.946Z" fill="#1C0036" fill-opacity="0.25"/>
<path d="M109.372 202.258L111.912 203.123C110.645 209.077 112.563 214.226 112.42 220.449C112.175 231.2 110.777 246.933 109.881 257.983C109.598 261.485 107.677 265.127 107.341 268.667C102.37 273.062 102.122 269.444 98.4499 265.781C98.7324 267.94 100.346 269.429 101.245 271.557C99.2623 271.961 102.84 273.817 101.753 275.887C100.443 278.379 96.1282 266.353 95.6574 265.493C94.6701 263.695 92.2354 261.194 91.5925 260.008C83.893 245.777 76.2286 230.91 67.714 216.984C66.9015 215.657 65.091 212.281 63.6491 212.076C63.7459 211.762 63.4419 211.184 63.9019 210.921C74.1302 213.07 80.8719 215.929 80.6675 229.399L83.7155 221.314C87.2639 225.02 93.0936 232.714 93.6236 238.349C94.0271 242.658 91.883 245.829 92.8623 249.611C96.8142 239.288 95.4234 244.969 103.276 244.703C103.126 242.661 96.8411 239.551 96.6716 238.927C96.4134 237.97 98.5198 221.192 99.4668 220.736C100.659 220.161 102.044 222.929 103.023 223.045C106.857 223.51 100.952 217.559 101.245 214.673C101.479 212.376 106.521 203.132 109.375 202.258H109.372Z" fill="#6BA638"/>
<path d="M131.22 243.256C130.714 242.944 129.242 242.048 128.68 242.39C128.217 242.669 123.711 252.203 123.598 252.784C123.197 254.875 123.601 266.804 125.885 267.51C127.564 268.03 130.504 264.034 132.237 263.468C132.42 266.41 128.403 268.266 127.663 269.532C127.332 270.097 128.495 270.684 128.172 271.265C126.48 274.283 120.892 285.643 119.536 286.57C108.094 294.364 106.529 277.228 107.344 268.669C107.68 265.131 109.601 261.486 109.883 257.985C110.779 246.934 112.178 231.199 112.423 220.451C112.566 214.228 110.648 209.082 111.915 203.125L109.375 202.26C111.151 201.715 111.807 201.235 113.693 202.26C114.395 202.642 123.617 214.947 123.601 215.83C123.588 216.469 117.51 224.187 118.013 226.802C120.279 228.395 124.193 218.888 125.635 220.451C126.66 225.114 126.848 230.969 128.174 235.464C129.294 239.259 131.389 239.042 131.222 243.262L131.22 243.256Z" fill="#5D8B2D"/>
<path d="M86.51 284.834C90.3678 286.272 90.3033 290.179 91.3363 291.763C91.3632 291.806 91.9335 290.907 92.0976 291.185C94.2014 294.748 96.3697 299.041 95.6541 303.6C95.1833 306.594 91.1103 308.988 91.0807 309.376C91.0242 310.113 97.9274 318.382 99.2106 320.926C102.033 326.528 103.733 332.946 105.307 339.117C104.634 339.132 103.948 339.101 103.276 339.117C101.126 328.436 96.0873 318.969 89.8109 310.82C86.3217 321.299 74.326 325.83 68.2192 315.727C71.9801 313.416 74.1538 311.352 75.3321 306.487C71.5954 307.909 69.462 311.988 64.9182 310.817C61.5393 309.948 54.6981 295.904 57.2968 294.647C65.7684 293.668 73.8982 296.781 81.1753 301.576C82.2353 297.585 83.0558 293.479 83.9705 289.449C84.2825 288.076 83.5696 286.122 84.4789 284.541C85.1676 283.678 85.8994 284.602 86.51 284.828V284.834Z" fill="#5D8B2D"/>
<path d="M165.766 240.368L156.367 250.761C153.8 251.939 151.072 253.914 149.001 255.96C148.538 255.342 148.64 254.666 148.492 254.226L149.001 252.205L147.984 252.492C147.583 250.966 146.469 245.328 144.68 245.563C143.747 245.685 132.892 260.968 132.741 262.02C132.625 262.828 133.236 262.886 133.249 263.464C132.924 263.506 132.494 263.378 132.233 263.464C130.5 264.029 127.56 268.026 125.881 267.506C123.597 266.8 123.196 254.874 123.594 252.78C123.705 252.199 128.213 242.664 128.676 242.386C129.238 242.047 130.71 242.94 131.216 243.251C131.721 243.563 131.504 245.817 132.233 245.273C134.253 238.487 133.231 236.124 138.584 231.702C141.982 228.895 146.55 225.44 147.475 231.702C148.274 237.108 143.176 241.93 142.141 247.294C149.006 237.24 158.46 230.347 167.797 223.617C169.067 224.883 162.745 240.772 160.684 242.386C161.056 243.319 165.113 240.649 165.766 240.365V240.368Z" fill="#6BA638"/>
<path d="M91.5873 260.004C90.2691 262.575 92.5073 265.966 93.6184 268.666C90.6161 270.198 86.9924 265.217 84.2187 264.624C79.9278 263.703 77.2403 266.251 73.0408 262.89C71.4832 261.643 70.1542 258.251 68.723 257.114L63.1354 237.192L73.8048 241.813C71.3863 240.391 63.1919 232.881 62.6269 230.263C62.4359 229.379 63.3775 212.932 63.6438 212.072C65.0858 212.28 66.8963 215.653 67.7088 216.98C76.2234 230.905 83.8878 245.772 91.5873 260.004Z" fill="#6BA638"/>
<path d="M86.5089 284.836C85.8982 284.606 85.1665 283.683 84.4778 284.548C83.5685 286.129 84.2814 288.083 83.9693 289.456C75.2099 303.418 65.7 292.492 60.0908 281.658L69.2349 275.307C68.9202 274.616 59.3241 278.552 56.0259 274.152C53.5482 270.849 49.8572 253.93 55.5175 252.496C60.2496 270.302 79.6677 269.293 86.5089 284.836Z" fill="#86B93B"/>
<path d="M68.7266 257.116C70.1578 258.254 71.4868 261.645 73.0444 262.892C77.2412 266.253 79.9314 263.706 84.2223 264.626C86.996 265.219 90.617 270.2 93.622 268.669C95.5832 273.433 98.1631 278.087 99.7181 283.104C98.7065 284.991 98.5801 289.755 96.4145 290.611C95.2308 291.079 92.3388 289.434 92.0966 291.189C91.9325 290.911 91.3622 291.81 91.3353 291.767C90.3023 290.183 90.3668 286.275 86.509 284.838C79.6678 269.295 60.2497 270.304 55.5176 252.499C57.8123 251.918 66.6767 255.489 68.7266 257.119V257.116Z" fill="#6BA638"/>
<path d="M130.708 348.357L124.103 383.006C120.374 385.249 111.637 385.079 104.798 384.739C107.152 381.691 111.381 381.07 112.928 376.942C114.432 372.927 114.23 361.94 112.928 357.886C109.708 347.853 99.4551 352.669 92.6058 350.666C92.5816 350.55 91.6104 349.4 92.0974 348.357C103.953 348.642 118.946 348.789 130.71 348.357H130.708Z" fill="#E34141"/>
<path d="M104.8 384.737C101.889 384.59 99.0774 383.022 98.7035 383.004C96.3684 372.329 94.8376 361.357 92.6074 350.664C99.4567 352.664 109.709 347.848 112.929 357.884C114.231 361.938 114.433 372.925 112.929 376.94C111.383 381.065 107.153 381.686 104.8 384.737Z" fill="#E95958"/>
<path d="M117.503 339.119C118.667 339.143 119.216 338.535 119.534 338.541C124.293 338.648 129.192 339.657 134.012 339.119C135.358 344.745 136.353 348.152 130.709 348.36C118.947 348.791 103.952 348.644 92.096 348.36C91.0441 348.335 88.5476 348.818 88.031 347.494C88.3189 345.852 87.3235 339.862 88.7924 339.122C89.7017 338.663 101.011 339.174 103.271 339.122C103.944 339.107 104.63 339.137 105.302 339.122C106.144 339.104 107 339.137 107.842 339.122C108.684 339.107 109.539 339.134 110.381 339.122C111.56 339.107 112.76 339.107 113.938 339.122C115.221 339.137 115.864 338.544 115.969 338.544C116.373 338.55 116.521 339.101 117.494 339.122L117.503 339.119Z" fill="#E95958"/>
<path d="M147.985 252.498C148.165 253.176 148.268 253.559 148.494 254.231C148.642 254.669 148.537 255.344 149.002 255.965C143.377 261.515 139.307 268.753 135.032 275.599C134.513 275.428 133.278 264.53 133.253 263.472C133.24 262.894 132.629 262.836 132.745 262.029C132.896 260.977 143.751 245.694 144.684 245.572C146.473 245.336 147.584 250.975 147.988 252.501L147.985 252.498Z" fill="#86B93B"/>
<path d="M162.716 292.341C162.708 292.399 162.907 292.405 162.716 293.497C161.756 298.992 158.576 308.762 152.808 307.933C151.344 307.722 146.09 302.481 145.948 304.178C147.234 308.175 149.222 310.862 152.552 312.841C147.344 321.874 134.124 317.443 131.469 307.933C125.507 316.859 120.99 327.362 119.53 338.539C119.212 338.533 118.663 339.141 117.499 339.117C118.887 330.338 121.319 321.776 125.12 313.997C125.833 312.535 130.283 306.955 130.202 306.49C130.121 306.025 125.741 304.689 125.12 300.139C124.499 295.589 126.68 292.219 127.915 288.302C120.824 285.816 120.218 291.216 118.515 297.83C115.107 311.067 116.081 324.895 115.976 338.542C115.871 338.542 115.228 339.135 113.945 339.12C112.078 321.112 114.128 303.435 119.532 286.568C120.888 285.645 126.479 274.282 128.168 271.264C128.491 270.686 127.329 270.099 127.66 269.53C128.399 268.264 132.416 266.408 132.233 263.466C132.491 263.381 132.924 263.509 133.25 263.466C133.274 264.521 134.509 275.422 135.028 275.594C139.303 268.747 143.376 261.509 148.998 255.959C151.07 253.914 153.798 251.938 156.364 250.761L165.764 240.368C168.131 239.34 175.005 235.57 176.433 240.08C176.692 240.897 174.265 255.507 173.894 256.25C173.56 256.919 161.925 263.561 162.716 264.913L172.369 262.026C162.417 268.637 158.874 284.11 149.76 290.61C148.321 291.638 138.566 295.634 138.329 296.674C137.366 300.879 144.799 294.635 146.203 294.075C151.371 292.011 157.276 290.831 162.716 292.341Z" fill="#5D8B2D"/>
<path d="M101.241 271.553C104.649 279.617 100.746 275.99 100.224 278.195C100.022 279.051 104.738 292.184 105.306 294.943C108.276 309.375 109.721 324.298 110.388 339.119C109.546 339.131 108.69 339.103 107.848 339.119C107.321 320.741 105.101 300.465 99.7183 283.103C98.1633 278.082 95.5807 273.431 93.6222 268.667C92.5112 265.967 90.2729 262.576 91.5911 260.004C92.2341 261.19 94.6687 263.692 95.656 265.49C96.1268 266.349 100.445 278.375 101.752 275.883C102.842 273.813 99.261 271.954 101.244 271.553H101.241Z" fill="#4D7627"/>
<path d="M167.797 223.622C158.46 230.352 149.006 237.244 142.141 247.298C143.176 241.935 148.274 237.113 147.475 231.707C149.216 231.554 148.481 227.352 149.001 226.221C150.744 222.42 164.209 222.481 167.8 223.622H167.797Z" fill="#86B93B"/>
<path d="M148.493 254.226C148.267 253.554 148.165 253.174 147.984 252.493L149.001 252.205L148.493 254.226Z" fill="#CBDA99"/>
</svg>
