<svg width="32" height="32" viewBox="0 0 32 32" fill="none" xmlns="http://www.w3.org/2000/svg">
<path d="M18.63 6.62567C18.63 5.18413 17.4544 4 16.0043 4C14.5542 4 13.37 5.18413 13.3786 6.62567V13.3786H6.62567C5.18413 13.3786 4 14.5542 4 16.0043C4 17.4458 5.18413 18.63 6.62567 18.63H13.3786V25.3743C13.3786 26.8159 14.5542 28 16.0043 28C17.4458 28 18.63 26.8245 18.63 25.3743V18.63H25.3743C26.8159 18.63 28 17.4544 28 16.0043C28 14.5627 26.8245 13.3786 25.3743 13.3786H18.63V6.62567Z" fill="#511B72"/>
</svg>
