<svg width="32" height="32" viewBox="0 0 32 32" fill="none" xmlns="http://www.w3.org/2000/svg">
<path d="M5 24.5556C5 25.2039 5.25754 25.8256 5.71596 26.284C6.17438 26.7425 6.79614 27 7.44444 27H24.5556C25.2039 27 25.8256 26.7425 26.284 26.284C26.7425 25.8256 27 25.2039 27 24.5556V7.44444C27 6.79614 26.7425 6.17438 26.284 5.71596C25.8256 5.25754 25.2039 5 24.5556 5H7.44444C6.79614 5 6.17438 5.25754 5.71596 5.71596C5.25754 6.17438 5 6.79614 5 7.44444V24.5556ZM16 8.66667H23.3333V16H20.8889V11.1111H16V8.66667ZM8.66667 16H11.1111V20.8889H16V23.3333H8.66667V16Z" fill="white"/>
</svg>
