<svg width="32" height="32" viewBox="0 0 32 32" fill="none" xmlns="http://www.w3.org/2000/svg">
<path d="M15.2499 5C15.2499 4.58579 15.5857 4.25 15.9999 4.25H22.111C23.5939 4.25 25.0236 4.80767 26.0838 5.81209C27.1454 6.81782 27.7499 8.19081 27.7499 9.63158V16.5687L27.75 16.5789V20.0525C27.75 21.4933 27.1455 22.8663 26.0839 23.872C25.0288 24.8716 23.6078 25.4287 22.1326 25.4341L22.7743 26.6499C22.9677 27.0163 22.8274 27.47 22.4611 27.6633C22.0948 27.8566 21.6411 27.7164 21.4478 27.3501L20.4366 25.4341H11.5633L10.5521 27.3501C10.3588 27.7164 9.90508 27.8566 9.53875 27.6633C9.17243 27.47 9.0322 27.0163 9.22553 26.6499L9.86723 25.4341C8.39214 25.4287 6.97117 24.8716 5.91611 23.872C4.85451 22.8663 4.25 21.4933 4.25 20.0525V17.2736C4.25 16.8769 4.4167 16.5053 4.69898 16.2379C4.97989 15.9718 5.35262 15.8289 5.73333 15.8289H26.2499V9.63158C26.2499 8.61561 25.8243 7.63248 25.0522 6.90102C24.2787 6.16826 23.2214 5.75 22.111 5.75H18.6171C20.2562 6.87977 20.7129 9.00222 20.84 10.0971C20.884 10.4792 20.5601 10.7895 20.1556 10.7895H11.8445C11.4399 10.7895 11.116 10.4792 11.16 10.0971C11.3262 8.6661 12.0553 5.47975 15.2515 5.04862C15.2505 5.03255 15.2499 5.01633 15.2499 5Z" fill="white"/>
</svg>
