<svg width="32" height="32" viewBox="0 0 32 32" fill="none" xmlns="http://www.w3.org/2000/svg">
<path d="M3 25V17.2857C3 16.7071 3.11917 16.1821 3.3575 15.7107C3.59583 15.2393 3.91 14.8214 4.3 14.4571V10.8571C4.3 9.78571 4.67917 8.875 5.4375 8.125C6.19583 7.375 7.11667 7 8.2 7H13.4C13.8983 7 14.3642 7.09129 14.7975 7.27386C15.2308 7.45643 15.6317 7.708 16 8.02857C16.3683 7.70714 16.7692 7.45557 17.2025 7.27386C17.6358 7.09214 18.1017 7.00086 18.6 7H23.8C24.8833 7 25.8042 7.375 26.5625 8.125C27.3208 8.875 27.7 9.78571 27.7 10.8571V14.4571C28.09 14.8214 28.4042 15.2393 28.6425 15.7107C28.8808 16.1821 29 16.7071 29 17.2857V25H26.4V22.4286H5.6V25H3ZM17.3 13.4286H25.1V10.8571C25.1 10.4929 24.9752 10.1877 24.7256 9.94171C24.476 9.69571 24.1675 9.57229 23.8 9.57143H18.6C18.2317 9.57143 17.9231 9.69486 17.6744 9.94171C17.4257 10.1886 17.3009 10.4937 17.3 10.8571V13.4286ZM6.9 13.4286H14.7V10.8571C14.7 10.4929 14.5752 10.1877 14.3256 9.94171C14.076 9.69571 13.7675 9.57229 13.4 9.57143H8.2C7.83167 9.57143 7.52313 9.69486 7.2744 9.94171C7.02567 10.1886 6.90087 10.4937 6.9 10.8571V13.4286Z" fill="white"/>
</svg>
