<svg width="32" height="32" viewBox="0 0 32 32" fill="none" xmlns="http://www.w3.org/2000/svg">
<circle cx="16" cy="16.0001" r="16" fill="white"/>
<path fill-rule="evenodd" clip-rule="evenodd" d="M7.58579 15.5858C7.96086 15.2107 8.46957 15 9 15C9.53043 15 10.0391 15.2107 10.4142 15.5858C10.7893 15.9609 11 16.4696 11 17C11 17.5304 10.7893 18.0391 10.4142 18.4142C10.0391 18.7893 9.53043 19 9 19C8.46957 19 7.96086 18.7893 7.58579 18.4142C7.21071 18.0391 7 17.5304 7 17C7 16.4696 7.21071 15.9609 7.58579 15.5858ZM14.5858 15.5858C14.9609 15.2107 15.4696 15 16 15C16.5304 15 17.0391 15.2107 17.4142 15.5858C17.7893 15.9609 18 16.4696 18 17C18 17.5304 17.7893 18.0391 17.4142 18.4142C17.0391 18.7893 16.5304 19 16 19C15.4696 19 14.9609 18.7893 14.5858 18.4142C14.2107 18.0391 14 17.5304 14 17C14 16.4696 14.2107 15.9609 14.5858 15.5858ZM21.5858 15.5858C21.9609 15.2107 22.4696 15 23 15C23.5304 15 24.0391 15.2107 24.4142 15.5858C24.7893 15.9609 25 16.4696 25 17C25 17.5304 24.7893 18.0391 24.4142 18.4142C24.0391 18.7893 23.5304 19 23 19C22.4696 19 21.9609 18.7893 21.5858 18.4142C21.2107 18.0391 21 17.5304 21 17C21 16.4696 21.2107 15.9609 21.5858 15.5858Z" fill="#252525"/>
</svg>
