<svg width="20" height="16" viewBox="0 0 20 16" fill="none" xmlns="http://www.w3.org/2000/svg">
<path fill-rule="evenodd" clip-rule="evenodd" d="M20 1.37931C20 0.617538 19.2281 0 18.2759 0H1.72414C0.771921 0 0 0.617538 0 1.37931C0 2.14108 0.771921 2.75862 1.72414 2.75862H18.2759C19.2281 2.75862 20 2.14108 20 1.37931ZM20 8C20 7.23823 19.2281 6.62069 18.2759 6.62069H1.72414C0.771921 6.62069 0 7.23823 0 8C0 8.76177 0.771921 9.37931 1.72414 9.37931H18.2759C19.2281 9.37931 20 8.76177 20 8ZM20 14.6207C20 13.8589 19.2281 13.2414 18.2759 13.2414H1.72414C0.771921 13.2414 0 13.8589 0 14.6207C0 15.3825 0.771921 16 1.72414 16H18.2759C19.2281 16 20 15.3825 20 14.6207Z" fill="#252525"/>
</svg>
