<svg width="20" height="20" viewBox="0 0 20 20" fill="none" xmlns="http://www.w3.org/2000/svg">
<path fill-rule="evenodd" clip-rule="evenodd" d="M1.58579 8.58579C1.96086 8.21071 2.46957 8 3 8C3.53043 8 4.03914 8.21071 4.41421 8.58579C4.78929 8.96086 5 9.46957 5 10C5 10.5304 4.78929 11.0391 4.41421 11.4142C4.03914 11.7893 3.53043 12 3 12C2.46957 12 1.96086 11.7893 1.58579 11.4142C1.21071 11.0391 1 10.5304 1 10C1 9.46957 1.21071 8.96086 1.58579 8.58579ZM8.58579 8.58579C8.96086 8.21071 9.46957 8 10 8C10.5304 8 11.0391 8.21071 11.4142 8.58579C11.7893 8.96086 12 9.46957 12 10C12 10.5304 11.7893 11.0391 11.4142 11.4142C11.0391 11.7893 10.5304 12 10 12C9.46957 12 8.96086 11.7893 8.58579 11.4142C8.21071 11.0391 8 10.5304 8 10C8 9.46957 8.21071 8.96086 8.58579 8.58579ZM15.5858 8.58579C15.9609 8.21071 16.4696 8 17 8C17.5304 8 18.0391 8.21071 18.4142 8.58579C18.7893 8.96086 19 9.46957 19 10C19 10.5304 18.7893 11.0391 18.4142 11.4142C18.0391 11.7893 17.5304 12 17 12C16.4696 12 15.9609 11.7893 15.5858 11.4142C15.2107 11.0391 15 10.5304 15 10C15 9.46957 15.2107 8.96086 15.5858 8.58579Z" fill="#511B72"/>
</svg>
