<svg width="32" height="32" viewBox="0 0 32 32" fill="none" xmlns="http://www.w3.org/2000/svg">
<path d="M17.9334 20.8788V17.8472C17.9334 17.6024 17.8316 17.3676 17.6504 17.1945C17.4691 17.0213 17.2233 16.9241 16.967 16.9241H15.034C14.7777 16.9241 14.5318 17.0213 14.3506 17.1945C14.1693 17.3676 14.0675 17.6024 14.0675 17.8472V20.877C12.5986 21.2358 11.273 22.0002 10.2564 23.0747C9.23978 24.1491 8.5773 25.486 8.35174 26.9181C8.32969 27.0516 8.33817 27.188 8.37658 27.3181C8.41499 27.4481 8.48243 27.5687 8.57426 27.6715C8.66609 27.7743 8.78014 27.8569 8.90856 27.9136C9.03698 27.9703 9.17674 27.9998 9.31822 28H22.6982C22.8397 27.9998 22.9794 27.9703 23.1078 27.9136C23.2363 27.8569 23.3503 27.7743 23.4421 27.6715C23.534 27.5687 23.6014 27.4481 23.6398 27.3181C23.6782 27.188 23.6867 27.0516 23.6647 26.9181C23.4376 25.4844 22.7727 24.1466 21.7532 23.0723C20.7337 21.998 19.405 21.235 17.9334 20.8788ZM26.9005 13.7466L22.068 4.51512C21.9885 4.36094 21.8655 4.23103 21.7128 4.14002C21.5602 4.04901 21.384 4.00052 21.204 4H10.7969C10.6179 4.00035 10.4425 4.04818 10.2903 4.13815C10.1381 4.22813 10.015 4.35671 9.93483 4.50958L5.10242 13.7411C5.0288 13.8814 4.99386 14.0373 5.00088 14.1941C5.00791 14.3509 5.05668 14.5035 5.14259 14.6373C5.2285 14.7711 5.3487 14.8817 5.49184 14.9588C5.63498 15.0359 5.79634 15.0768 5.96066 15.0778H21.7994V17.8472C21.7994 18.0921 21.9012 18.3269 22.0824 18.5C22.2637 18.6731 22.5095 18.7704 22.7658 18.7704C23.0222 18.7704 23.268 18.6731 23.4493 18.5C23.6305 18.3269 23.7323 18.0921 23.7323 17.8472V15.0778H26.0403C26.204 15.0767 26.3647 15.0359 26.5074 14.9592C26.65 14.8826 26.77 14.7726 26.856 14.6395C26.9419 14.5064 26.9911 14.3547 26.9989 14.1985C27.0067 14.0424 26.9728 13.8868 26.9005 13.7466Z" fill="white"/>
</svg>
