<svg width="189" height="218" viewBox="0 0 189 218" fill="none" xmlns="http://www.w3.org/2000/svg">
<path d="M126.26 120.351C125.917 121.514 125.641 122.767 125.209 123.912C125.12 124.147 124.696 124.01 124.683 124.045C123.268 122.366 122.839 120.53 122.322 118.507C123.912 118.575 125.022 119.542 126.26 120.351Z" fill="#BFD1DF"/>
<path d="M77.1727 128.263C78.3257 129.481 78.313 131.504 78.7496 133.012C78.4232 137.025 79.8856 141.945 81.1106 145.804C81.8779 148.215 90.0293 167.286 91.2162 167.303L100.27 158.596V217.948C83.1029 217.428 67.4359 213.645 51.9724 206.34C49.8911 193.484 52.1504 180.232 48.6915 167.563L46.0676 199.746L31.4985 167.167L35.1736 196.581C21.9567 187.473 10.4862 176.015 1.83887 162.422C2.267 152.995 3.49204 143.653 4.72556 134.329C11.3425 134.563 20.8631 134.916 27.2977 134.329L30.4472 159.785C31.88 157.825 32.1216 154.839 33.0711 152.663C34.1478 150.2 35.8179 148.054 37.0091 145.672C40.1035 142.823 43.5836 140.855 47.3774 139.078C55.4568 135.291 70.7762 132.067 77.1684 128.263H77.1727Z" fill="#DCE6EE"/>
<path d="M184.531 166.249C185.34 169.406 186.044 173.048 186.629 176.272C179.309 183.271 173.433 191.275 164.973 197.111C163.764 196.941 162.887 174.769 163.006 172.711C163.158 170.1 164.417 166.39 164.451 164.136C164.455 163.808 164.828 163.374 164.057 163.74C159.348 177.116 160.505 190.828 159.593 204.757C144.486 212.493 129.607 216.625 112.609 217.682V158.066C113.987 158.467 122.028 167.442 123.109 166.377C124.245 165.257 130.468 148.874 131.248 146.331C132.282 142.957 133.16 139.238 133.872 135.779C133.906 135.605 134.338 133.867 133.609 134.063C134.096 132.141 134.923 130.305 134.923 128.261C144.346 131.532 154.201 134.161 163.404 138.02C178.249 144.252 180.635 151.016 184.535 166.245L184.531 166.249Z" fill="#DCE6EE"/>
<path d="M107.353 148.313C109.65 151.333 111.202 154.549 112.6 158.072V217.687C108.429 217.947 104.44 218.079 100.265 217.951V158.6C100.621 155.921 103.707 150.349 105.513 148.313C105.776 148.019 106.026 147.533 106.301 147.256C106.344 147.214 106.518 147.299 106.564 147.256C106.607 147.776 107.179 148.083 107.353 148.313Z" fill="#511B72"/>
<path d="M7.87164 122.199C12.7421 122.127 17.7059 122.063 22.5722 122.199C23.4878 122.225 27.7818 121.918 28.0827 122.595L29.3968 133.939C29.1467 134.57 27.8326 134.284 27.2985 134.335C20.8639 134.923 11.3433 134.57 4.72638 134.335C3.88284 134.305 0.300962 134.616 0 133.939V122.331C2.6154 122.063 5.25624 122.238 7.87588 122.199H7.87164Z" fill="#511B72"/>
<path d="M51.97 206.349C45.8066 203.435 40.7751 200.453 35.1712 196.589L31.4961 167.176L46.0652 199.754L48.6891 167.572C52.148 180.236 49.8887 193.493 51.97 206.349Z" fill="#BFD1DF"/>
<path d="M186.626 176.274C187.126 179.021 187.571 181.807 187.94 184.585C179.547 192.691 169.945 199.464 159.59 204.763C160.501 190.834 159.344 177.122 164.053 163.746C164.825 163.38 164.452 163.814 164.448 164.142C164.418 166.391 163.155 170.101 163.002 172.717C162.883 174.774 163.761 196.946 164.969 197.117C173.426 191.281 179.301 183.277 186.626 176.278V176.274Z" fill="#BFD1DF"/>
<path d="M134.909 128.266C134.909 130.311 134.087 132.147 133.595 134.068C131.281 143.163 127.271 151.784 122.701 159.92L107.344 148.313C107.17 148.083 106.598 147.776 106.555 147.256C113.876 139.998 118.962 136.607 123.88 126.682C124.202 126.034 124.651 125.357 124.931 124.705C125.062 124.394 124.592 124.236 124.668 124.045C124.681 124.011 125.105 124.147 125.194 123.913C125.626 122.767 125.902 121.514 126.245 120.352C127.322 121.059 135.028 126.792 135.168 127.342C135.142 127.734 134.905 127.789 134.905 128.266H134.909Z" fill="white"/>
<path d="M85.563 120.877C86.2158 121.661 86.894 122.64 87.3984 123.514C92.4851 132.302 98.1695 141.009 106.3 147.253C106.024 147.53 105.774 148.012 105.511 148.31L90.1537 159.389C85.7283 151.036 81.3622 142.142 78.7341 133.013C78.3017 131.509 78.3144 129.482 77.1572 128.263C78.7383 127.322 83.4011 122.551 85.5587 120.877H85.563Z" fill="white"/>
<path d="M105.515 148.309C103.705 150.345 100.619 155.916 100.267 158.596L91.2132 167.303C90.0263 167.286 81.8748 148.215 81.1076 145.804C79.8826 141.94 78.4201 137.024 78.7465 133.012C81.3747 142.14 85.7407 151.035 90.1661 159.388L105.524 148.309H105.515Z" fill="#BFD1DF"/>
<path d="M112.613 158.074C111.215 154.551 109.659 151.335 107.366 148.315L122.723 159.923C127.293 151.791 131.303 143.165 133.617 134.07C134.346 133.874 133.914 135.612 133.88 135.787C133.168 139.246 132.29 142.964 131.256 146.338C130.476 148.886 124.254 165.269 123.117 166.385C121.981 167.501 113.995 158.474 112.618 158.074H112.613Z" fill="#BFD1DF"/>
<path d="M22.3096 57.0464C14.9636 57.4127 16.6973 58.1113 16.5362 64.4328C15.0314 66.0259 14.7347 69.1909 14.7008 71.291C13.9293 71.6105 12.3397 73.0034 11.4199 73.3996C10.996 73.1568 14.3405 65.3699 14.7008 64.3007C15.2646 62.6309 15.2985 59.7002 16.0148 58.2348C16.8923 56.433 20.9744 55.3978 22.8395 53.2211C24.1578 51.6833 24.2468 50.2009 25.2006 48.6035C25.5948 51.9176 24.4291 54.6311 22.3139 57.0464H22.3096Z" fill="#F6BE9D"/>
<path d="M29.9134 101.889C28.9639 105.578 26.4671 109.263 25.187 112.705C24.1697 113.655 17.6078 116.748 17.0483 115.474C16.5481 114.336 19.7188 113.851 20.592 113.233C24.5554 110.413 25.2336 106.141 23.0845 101.889C25.1658 102.107 27.7431 101.843 29.9091 101.889H29.9134Z" fill="#F3A579"/>
<path d="M16.5321 64.4307C16.477 66.5179 16.0955 68.6478 16.2693 70.7607C16.0107 70.8459 14.7772 71.2548 14.6924 71.2889C14.7305 69.1888 15.023 66.0238 16.5278 64.4307H16.5321Z" fill="white"/>
<path d="M25.1942 48.5991C24.2404 50.1923 24.1514 51.679 22.8331 53.2167C20.968 55.3935 16.8859 56.4286 16.0084 58.2305C15.2921 59.7001 15.2582 62.6265 14.6944 64.2964C14.3341 65.3656 10.9896 73.1567 11.4135 73.3952C12.3333 72.999 13.9229 71.6061 14.6944 71.2866C14.7749 71.2525 16.0084 70.8436 16.2713 70.7584C17.9075 70.2174 26.5464 68.4794 27.6909 68.9139C28.0681 71.3803 37.1818 81.9232 37.2708 82.7624C37.4149 84.0872 34.4901 84.2917 33.5957 84.215C30.8065 83.9637 29.2253 79.0309 26.9024 77.6209C24.02 75.8701 17.8439 76.6071 14.5672 77.3568C13.7957 77.5314 10.8455 77.9233 11.2863 79.0735C11.6212 79.9467 22.6423 76.5261 26.1182 78.6773C28.3521 80.0575 30.2554 86.166 33.8627 85.2714C34.6469 87.5504 35.376 89.8081 35.4396 92.2617L31.3702 92.3937C32.5105 98.8813 28.1232 95.4863 26.381 92.3937L19.425 91.2053C19.2554 95.8612 16.9834 101.254 23.1001 101.889C25.245 106.14 24.571 110.413 20.6077 113.232C19.7344 113.854 16.5637 114.336 17.0639 115.473C17.6235 116.747 24.1853 113.654 25.2026 112.704C24.0666 115.771 23.4223 119.047 22.5787 122.199C17.7125 122.063 12.7487 122.127 7.87823 122.199C7.93758 118.221 10.0486 113.62 9.71368 109.671C9.13295 102.762 4.24973 92.3895 3.15186 85.1394C8.66667 76.8286 4.21582 67.751 8.66243 59.2869C11.7356 53.4382 19.0901 51.0059 24.5414 48.0752L25.1984 48.6034L25.1942 48.5991Z" fill="#FED8BB"/>
<path d="M33.5936 84.212C33.6402 84.54 33.7504 84.9575 33.8564 85.2684C30.2491 86.163 28.3458 80.0545 26.1119 78.6743C22.636 76.5231 11.6149 79.9437 11.28 79.0705C10.8392 77.9246 13.7894 77.5327 14.5609 77.3538C17.8418 76.6041 24.0179 75.8671 26.8961 77.6179C29.219 79.0279 30.8002 83.9607 33.5894 84.212H33.5936Z" fill="#F3A579"/>
<path d="M17.7168 84.2106C21.9727 83.9124 28.2081 86.1999 30.7091 89.8803C34.7954 95.8909 27.2459 88.4065 26.9025 88.1637C22.1931 84.8453 17.738 85.2329 12.4648 86.8431C9.57812 85.693 17.1912 84.2404 17.7126 84.2063L17.7168 84.2106Z" fill="#F3A579"/>
<path d="M120.998 106.115C120.862 110.353 121.265 114.442 122.312 118.511C122.833 120.538 123.257 122.37 124.673 124.048C124.597 124.24 125.067 124.393 124.936 124.708C124.66 125.36 124.207 126.042 123.885 126.685C112.067 125.484 101.291 121.428 91.3341 115.077C91.4655 113.416 91.5545 107.444 91.0713 106.11C95.2381 107.934 99.121 110.694 103.801 111.124C109.608 111.657 116.161 109.28 120.994 106.11L120.998 106.115Z" fill="#F3A579"/>
<path d="M103.151 26.1787C111.056 36.6917 112.908 41.7694 124.544 49.9183C127.868 52.2484 135.18 55.4219 137.537 57.5688L137.668 58.3611C136.829 58.6891 131.229 56.0864 129.923 55.7244C128.368 53.3304 125.104 51.8267 122.31 51.767L114.566 46.2294C109.975 42.1783 103.617 34.0379 102.621 27.8953C102.566 27.5503 102.358 26.0338 103.146 26.1787H103.151Z" fill="#F6BE9D"/>
<path d="M141.735 82.8983C140.09 82.975 138.818 83.4094 137.14 83.1624C136.877 83.0176 137.78 81.4116 137.797 81.3179C145.575 80.2232 149.009 67.2224 140.683 64.4365C140.823 63.7634 140.874 61.4376 141.34 61.2715C153.057 63.0478 151.23 78.7834 141.735 82.9025V82.8983Z" fill="#F6BE9D"/>
<path d="M79.5262 53.6192C79.4838 53.6362 78.9836 54.1729 78.7378 54.1474C77.8094 52.7203 77.8857 50.9568 75.8511 50.7183C86.69 45.4276 93.8113 36.7335 101.051 27.5068C101.67 27.7709 101.208 28.3545 101.051 28.6953C96.3419 38.7611 88.1948 46.9356 79.5262 53.6234V53.6192Z" fill="#F6BE9D"/>
<path d="M137.801 81.317C138.153 78.9741 138.454 76.5673 138.59 74.1946C139.777 71.0637 140.022 67.6815 140.688 64.4355C149.013 67.2214 145.58 80.2222 137.801 81.317Z" fill="#F6BE9D"/>
<path d="M80.0553 55.4649C78.5462 55.1624 79.3813 55.1241 78.7412 54.1444C78.9871 54.1742 79.4873 53.6375 79.5296 53.6162C84.2518 51.5629 91.0807 50.4 94.493 55.3328C94.37 56.3126 90.0464 54.9708 89.3724 54.9367C86.9435 54.8217 81.5813 55.7673 80.0553 55.4649Z" fill="#080C1B"/>
<path d="M123.887 126.684C118.97 136.613 113.883 140 106.563 147.258C106.52 147.301 106.342 147.216 106.3 147.258C98.1737 141.013 92.4894 132.307 87.3984 123.519C89.1194 122.254 90.6327 119.532 91.0736 117.453C91.2855 116.46 91.2601 116.026 91.3364 115.08C101.294 121.431 112.065 125.487 123.887 126.688V126.684Z" fill="#F6BE9D"/>
<path d="M122.307 51.7731C125.101 51.8327 128.365 53.3322 129.92 55.7304C124.741 54.2864 121.184 54.0052 115.877 55.4663C116.271 52.8806 119.951 51.722 122.307 51.7731Z" fill="#0F1931"/>
<path d="M103.152 26.1835C102.364 26.0387 102.572 27.5552 102.627 27.9002C103.623 34.0428 109.977 42.1832 114.572 46.2342L122.316 51.7719C119.96 51.7208 116.28 52.8794 115.886 55.4651C121.193 54.004 124.75 54.2852 129.93 55.7292C131.231 56.0913 136.835 58.694 137.674 58.366L137.543 57.5737C137.577 57.6035 138.187 57.5354 138.331 57.9699C138.467 63.3414 138.895 68.8152 138.594 74.191C138.462 76.5637 138.157 78.9705 137.805 81.3133C137.793 81.4113 136.89 83.013 137.148 83.1578C138.823 83.4049 140.094 82.9704 141.743 82.8937C140.913 83.2558 140.217 83.7073 139.251 83.9501C138.602 84.112 137.242 83.6434 137.021 83.8181C136.767 84.0183 135.771 87.8563 135.444 88.5677C132.341 95.345 127.284 101.994 121.007 106.109C116.174 109.279 109.621 111.656 103.814 111.123C99.1339 110.693 95.2468 107.937 91.0842 106.109C90.5586 104.653 87.3709 103.443 86.6207 101.888C89.1598 101.743 90.9867 102.399 92.394 99.6473V65.3563L93.1825 65.8845C91.7624 63.8057 92.8857 60.9347 92.394 59.0263C91.4615 55.4055 82.6064 57.8847 80.1902 57.0497C79.8214 56.922 79.1856 55.8229 80.0588 55.4651C81.5891 55.7718 86.947 54.8219 89.3759 54.9369C90.0457 54.9667 94.3736 56.3128 94.4965 55.3331C91.0842 50.4045 84.2596 51.5674 79.5332 53.6164C88.2018 46.9286 96.3447 38.7541 101.058 28.6883C101.215 28.3475 101.677 27.7639 101.058 27.4998C101.33 27.1505 102.33 25.4168 102.504 25.3912C102.966 25.306 102.94 25.8896 103.161 26.1835H103.152Z" fill="#FED8BB"/>
<path d="M96.7178 91.8672L115.75 92.2633C110.761 100.05 101.16 100.34 96.7178 91.8672Z" fill="#D93E52"/>
<path d="M104.857 73.4054C107.163 73.5886 103.064 81.9889 103.149 82.7684C103.293 84.0591 108.32 86.1208 106.43 86.8578C105.561 87.1986 102.03 84.1869 101.835 83.2966C101.377 81.1838 104.463 76.8857 103.933 74.3298C104.035 74.0828 104.653 73.3927 104.853 73.4054H104.857Z" fill="#F3A579"/>
<path d="M108.267 83.1653C108.915 82.8586 110.802 83.225 110.234 84.3538C109.547 85.7212 106.787 83.8724 108.267 83.1653Z" fill="#F3A579"/>
<path d="M132.54 67.0727C130.773 64.8065 128.302 62.8939 125.322 62.8513C127.734 65.2921 127.649 69.1515 125.19 71.5582C124.529 71.6605 123.851 72.1035 123.223 72.0864C122.795 72.0736 121.672 71.3963 121.257 71.2941C119.489 69.0407 119.497 66.7702 120.337 64.1718C118.84 65.0024 117.802 66.6382 117.056 68.1291L116.793 67.865C117.522 62.9492 122.388 60.6362 126.899 61.2709C129.196 61.5946 133.969 64.4913 132.54 67.0727Z" fill="#09080C"/>
<path d="M132.536 67.07C131.205 69.4768 127.759 71.1637 125.186 71.5556C127.644 69.1531 127.729 65.2937 125.317 62.8486C128.297 62.8912 130.768 64.8039 132.536 67.07Z" fill="white"/>
<path d="M121.252 71.2952C121.218 71.2866 121.235 71.7723 120.595 71.5593C119.526 71.2057 117.225 69.7787 116.788 68.6584C116.826 68.4624 116.962 68.3091 117.051 68.1302C117.797 66.6393 118.835 65.0035 120.332 64.1729C119.493 66.7713 119.484 69.0418 121.252 71.2952Z" fill="white"/>
<path d="M117.055 68.1261C116.966 68.3048 116.831 68.4579 116.792 68.6536C116.458 67.7942 116.75 68.1431 116.792 67.8623L117.055 68.1261Z" fill="#66483B"/>
<path d="M86.6225 101.888C87.3686 103.443 90.5605 104.652 91.0861 106.109C91.5693 107.442 91.4803 113.415 91.3489 115.076C91.2726 116.022 91.2981 116.456 91.0861 117.449C88.6191 117.542 87.2584 119.57 85.5755 120.878C83.4179 122.552 78.7551 127.323 77.174 128.264C70.7775 132.068 55.4624 135.293 47.383 139.08C43.5892 140.856 40.109 142.824 37.0146 145.674C38.5237 142.666 39.7572 139.476 41.4782 136.575C48.3495 124.971 59.1205 115.14 64.0504 102.152C71.2777 102.113 79.5097 102.297 86.6225 101.888Z" fill="#080C1B"/>
<path d="M184.535 166.249C180.635 151.02 178.248 144.256 163.404 138.024C154.201 134.16 144.346 131.536 134.923 128.264C134.923 127.787 135.16 127.732 135.185 127.34C135.045 126.791 127.339 121.057 126.262 120.35C125.025 119.536 123.914 118.573 122.324 118.505C121.277 114.433 120.875 110.344 121.01 106.109C127.288 101.994 132.345 95.345 135.448 88.5677C135.77 87.8606 136.771 84.0183 137.025 83.8181C137.245 83.6435 138.61 84.112 139.255 83.9502C140.221 83.7116 140.921 83.2558 141.747 82.8937C151.242 78.7746 153.069 63.0433 141.353 61.2627C140.887 61.4288 140.836 63.7546 140.696 64.4277C140.03 67.6779 139.785 71.0559 138.598 74.1868C138.899 68.8067 138.47 63.3372 138.335 57.9656C138.191 57.5311 137.58 57.5993 137.546 57.5695C135.19 55.4226 127.877 52.249 124.554 49.9189C112.918 41.77 111.066 36.6924 103.16 26.1793C102.94 25.8896 102.965 25.3018 102.503 25.387C102.334 25.4125 101.333 27.1505 101.058 27.4956C93.8221 36.7222 86.6965 45.4164 75.8576 50.707C72.1783 50.2725 64.1583 50.9029 59.9787 50.9711C59.7795 50.9711 59.9787 50.4344 59.5845 50.4429C62.45 31.8576 72.0257 3.64091 93.839 1.11488C114.779 -1.30893 131.824 -1.50061 143.32 18.9207C157.143 43.4782 150.373 74.37 165.108 99.1106C169.957 107.251 177.091 114.51 181.906 122.586C189.96 136.094 191.597 151.915 184.53 166.24L184.535 166.249Z" fill="#0F1931"/>
<path d="M84.3934 9.29566C86.3602 9.22324 85.2242 11.4724 85.3132 11.8004C85.3598 11.9708 87.1656 12.9676 87.4115 13.909C87.6065 14.663 87.0893 15.9324 87.1486 16.0176C87.2292 16.1411 88.9544 16.3924 89.3783 16.6778C90.5186 17.4488 92.5321 22.0834 92.922 23.404C89.976 26.5477 81.3456 22.7011 84.2577 17.8663C78.4631 19.2933 80.8963 16.4137 80.5826 15.7577C80.4809 15.5405 77.8866 15.3147 78.4843 13.1209C78.5267 12.9676 80.3198 10.7014 80.4512 10.6162C80.625 10.5012 84.1814 9.30418 84.3891 9.29566H84.3934Z" fill="#40495F"/>
<path d="M105.393 19.583C113.875 34.5092 128.969 46.3258 145.162 51.6334C130.962 49.6441 111.743 34.965 105.787 21.8279C105.592 21.3934 104.863 19.9877 105.393 19.5873V19.583Z" fill="#40495F"/>
<path d="M101.19 15.6309C101.652 15.9035 101.423 16.3891 101.322 16.8193C101.059 17.9184 99.0879 21.6882 98.4351 22.8852C92.3268 34.0884 81.9033 42.9615 70.4795 48.3415C83.6498 40.4397 94.5649 29.6881 101.19 15.6309Z" fill="#40495F"/>
<path d="M123.892 28.5536C124.078 28.3959 124.523 28.3193 124.417 27.8933L121.662 25.3886C122.213 26.5259 123.099 27.5823 123.892 28.5536C120.636 31.3224 115.575 24.9242 115.49 21.8274C116.003 20.8902 116.622 22.4706 116.936 22.4877C119.403 22.6282 122.277 20.4856 124.286 24.3321C124.112 20.7199 124.79 19.7529 126.91 17.2098C127.207 16.8563 128.042 17.163 128.092 17.0778C128.203 16.8861 127.974 15.868 128.355 15.2333C129.144 13.917 132.289 15.1864 133.997 13.7807C134.489 13.376 135.015 11.7318 134.917 11.5401C134.23 10.2025 120.42 6.34317 118.118 5.73828C124.718 6.39428 133.128 8.9118 138.461 12.9927C138.512 13.031 139.792 14.0278 138.986 14.0491L135.706 12.3324C139.601 15.9702 134.9 18.5602 134.654 19.4547C134.599 19.6464 135.506 21.0351 135.18 22.0915C134.705 23.6165 131.768 23.3822 130.585 22.7518C132.628 27.0158 128.864 28.4982 125.596 26.1809C125.82 26.9135 124.676 27.7996 124.676 27.8976C124.676 29.7548 142.14 42.1038 145.15 42.9345C136.859 40.6087 129.339 35.2286 123.888 28.5578L123.892 28.5536Z" fill="#40495F"/>
<path d="M123.892 28.5527C123.099 27.5815 122.209 26.5251 121.662 25.3877L124.417 27.8924C124.523 28.3184 124.078 28.3951 123.892 28.5527Z" fill="#626F84"/>
<path d="M91.0882 117.448C90.6474 119.527 89.1341 122.249 87.4131 123.514C86.9087 122.641 86.2304 121.661 85.5776 120.877C87.2605 119.57 88.6212 117.542 91.0882 117.448Z" fill="#BFD1DF"/>
<path d="M40.4149 56.5142L40.0207 57.0424C35.6038 57.1063 31.1784 56.9572 26.7657 57.0424C26.8632 56.1436 26.3884 54.2821 27.4227 53.8774C28.1179 53.6048 39.7452 53.7752 40.1521 54.2736C40.292 54.444 40.5251 56.2799 40.4149 56.5142Z" fill="#080C1B"/>
<path d="M75.8591 50.7099C77.898 50.9484 77.8175 52.712 78.7458 54.139C79.3859 55.1187 78.5508 55.1571 80.0598 55.4595C79.1866 55.8131 79.8225 56.9163 80.1912 57.0441C82.6117 57.8833 91.4625 55.4041 92.395 59.0207C92.8868 60.929 91.7635 63.8001 93.1835 65.8789L92.395 65.3507V99.6417C90.9877 102.394 89.1565 101.738 86.6217 101.882C79.5088 102.291 71.2726 102.108 64.0495 102.146C52.7443 102.202 41.2315 102.125 29.9263 101.882C27.7602 101.835 25.183 102.1 23.1017 101.882C16.985 101.248 19.257 95.8548 19.4266 91.1989L26.3826 92.3873C28.1206 95.4799 32.5078 98.875 31.3718 92.3873L35.4411 92.2553C35.3818 89.8017 34.6485 87.544 33.8643 85.265C33.7583 84.9583 33.6523 84.5409 33.6015 84.2086C34.4959 84.2895 37.4207 84.0851 37.2766 82.756C37.1876 81.9169 28.0739 71.374 27.6967 68.9076C26.5522 68.4773 17.9133 70.2153 16.2771 70.752C16.099 68.6392 16.4848 66.5093 16.5399 64.422C16.7009 58.1006 14.9672 57.402 22.3133 57.0356C23.7884 56.9632 25.2974 57.0654 26.7768 57.0356C31.1895 56.9504 35.6149 57.0995 40.0319 57.0356L40.4261 56.5074C40.3116 57.2997 41.1255 57.0186 41.6087 57.0356C42.8889 57.0782 49.3278 57.2742 50.0103 57.0356C50.4808 56.8695 53.5667 51.1188 53.9482 50.9697C54.4696 50.761 58.1956 51.0038 59.1959 50.9697C59.3909 50.9655 59.5563 50.4415 59.5902 50.4415C59.9844 50.433 59.7852 50.974 59.9844 50.9697C64.1639 50.9016 72.184 50.2754 75.8633 50.7056L75.8591 50.7099Z" fill="#14264F"/>
<path d="M56.0403 52.292H75.7258C76.2429 52.4794 76.2641 56.3132 76.12 56.6455C75.7131 57.5656 56.8584 57.6252 56.0403 57.0416C55.8496 56.9053 55.7224 52.4198 56.0403 52.292Z" fill="#486B90"/>
<path d="M27.1648 63.369C27.648 63.2029 36.9397 63.1518 37.4018 63.369L37.796 64.5575C37.5671 65.0388 27.8473 65.1837 27.1648 64.9536C26.406 64.6981 26.3891 63.6331 27.1648 63.369Z" fill="white"/>
<path d="M21.6596 59.9464C25.606 59.1797 24.8388 65.9655 21.134 64.1678C19.2901 63.2733 19.9005 60.2872 21.6596 59.9464Z" fill="#EB5B54"/>
<path d="M62.3431 61C87.1449 58.9127 89.2092 95.5083 66.5438 97.6638C41.2715 100.071 38.9825 62.9638 62.3431 61Z" fill="#486B90"/>
<path d="M63.3942 63.1124C84.4149 62.2179 86.1741 93.7529 66.0181 95.559C43.785 97.5526 41.9453 64.0283 63.3942 63.1124Z" fill="#0F1931"/>
<path d="M62.3424 64.4338C84.1981 62.0739 85.2663 96.6972 61.8167 94.2394C45.2723 92.5056 45.1918 66.2868 62.3424 64.4338Z" fill="#14264F"/>
<path d="M62.082 66.0118C82.4965 63.5795 82.9459 95.6172 61.8192 92.6524C47.2543 90.6077 47.2924 67.7754 62.082 66.0118Z" fill="#0F1931"/>
<path d="M62.0767 67.598C78.4007 65.4681 80.9822 88.4836 66.8031 91.0735C49.9746 94.1448 47.3465 69.5191 62.0767 67.598Z" fill="#A7D0E6"/>
<path d="M64.7001 69.9708C75.2677 70.3669 76.781 87.0822 66.277 88.7009C51.8096 90.9288 51.1865 69.4638 64.7001 69.9708Z" fill="#45ADD7"/>
<path d="M63.3932 76.5634C68.2807 75.5155 68.6113 82.2672 64.9701 82.8934C60.8329 83.6048 59.5231 77.394 63.3932 76.5634Z" fill="#2F8AC1"/>
</svg>
