<svg width="32" height="32" viewBox="0 0 32 32" fill="none" xmlns="http://www.w3.org/2000/svg">
<g clip-path="url(#clip0_60_562)">
<path fill-rule="evenodd" clip-rule="evenodd" d="M16 3.2C12.6052 3.2 9.3495 4.54857 6.94903 6.94903C4.54857 9.3495 3.2 12.6052 3.2 16C3.2 19.3948 4.54857 22.6505 6.94903 25.051C9.3495 27.4514 12.6052 28.8 16 28.8C19.3948 28.8 22.6505 27.4514 25.051 25.051C27.4514 22.6505 28.8 19.3948 28.8 16C28.8 12.6052 27.4514 9.3495 25.051 6.94903C22.6505 4.54857 19.3948 3.2 16 3.2ZM0 16C0 7.1632 7.1632 0 16 0C24.8368 0 32 7.1632 32 16C32 24.8368 24.8368 32 16 32C7.1632 32 0 24.8368 0 16ZM10.4 12.8C10.088 12.8 9.6896 12.9984 9.4304 13.5168C9.23833 13.8928 8.90544 14.1776 8.50428 14.3092C8.10311 14.4408 7.66619 14.4085 7.28873 14.2194C6.91127 14.0302 6.62388 13.6995 6.48917 13.2994C6.35447 12.8993 6.38338 12.4621 6.5696 12.0832C7.2672 10.688 8.6608 9.6 10.4 9.6C12.1392 9.6 13.5312 10.688 14.2304 12.0832C14.4166 12.4621 14.4455 12.8993 14.3108 13.2994C14.1761 13.6995 13.8887 14.0302 13.5113 14.2194C13.1338 14.4085 12.6969 14.4408 12.2957 14.3092C11.8946 14.1776 11.5617 13.8928 11.3696 13.5168C11.1104 12.9984 10.7136 12.8 10.4 12.8ZM21.6 12.8C21.288 12.8 20.8896 12.9984 20.6304 13.5168C20.5373 13.7063 20.4075 13.8755 20.2487 14.0146C20.0899 14.1538 19.9051 14.2601 19.7049 14.3275C19.5048 14.3948 19.2933 14.4219 19.0827 14.4072C18.872 14.3924 18.6664 14.3361 18.4776 14.2415C18.2888 14.1469 18.1207 14.0159 17.9828 13.856C17.8449 13.6961 17.74 13.5104 17.6742 13.3098C17.6083 13.1092 17.5829 12.8975 17.5993 12.687C17.6157 12.4764 17.6735 12.2712 17.7696 12.0832C18.4688 10.688 19.8608 9.6 21.6 9.6C23.3392 9.6 24.7312 10.688 25.4304 12.0832C25.6166 12.4621 25.6455 12.8993 25.5108 13.2994C25.3761 13.6995 25.0887 14.0302 24.7113 14.2194C24.3338 14.4085 23.8969 14.4408 23.4957 14.3092C23.0946 14.1776 22.7617 13.8928 22.5696 13.5168C22.3104 12.9984 21.9136 12.8 21.6 12.8ZM10.5664 19.7408C10.7055 19.5831 10.8742 19.4544 11.063 19.362C11.2518 19.2696 11.457 19.2153 11.6668 19.2023C11.8766 19.1892 12.087 19.2176 12.2858 19.2858C12.4846 19.3541 12.668 19.4608 12.8256 19.6C13.6736 20.3488 14.7824 20.8 16 20.8C17.2176 20.8 18.328 20.3488 19.1744 19.6C19.4927 19.3191 19.9095 19.1761 20.3332 19.2025C20.7568 19.2289 21.1527 19.4225 21.4336 19.7408C21.7145 20.0591 21.8575 20.4759 21.8311 20.8996C21.8047 21.3232 21.6111 21.7191 21.2928 22C19.8326 23.2917 17.9495 24.0033 16 24C14.0505 24.0033 12.1674 23.2917 10.7072 22C10.5495 21.8609 10.4208 21.6922 10.3284 21.5034C10.236 21.3146 10.1817 21.1094 10.1687 20.8996C10.1556 20.6898 10.184 20.4794 10.2522 20.2806C10.3205 20.0818 10.4272 19.8984 10.5664 19.7408Z" fill="white"/>
</g>
<defs>
<clipPath id="clip0_60_562">
<rect width="32" height="32" fill="white"/>
</clipPath>
</defs>
</svg>
