<svg width="24" height="24" viewBox="0 0 24 24" fill="none" xmlns="http://www.w3.org/2000/svg">
<path d="M21.9948 12.4796C21.9948 13.1474 21.4738 13.6706 20.8834 13.6706H19.772L19.7963 19.6143C19.7963 19.7145 19.7893 19.8147 19.7789 19.9149V20.5159C19.7789 21.3359 19.1572 22 18.3897 22H17.834C17.7958 22 17.7575 22 17.7193 21.9963C17.6707 22 17.6221 22 17.5735 22L16.4447 21.9963H15.6112C14.8436 21.9963 14.2219 21.3322 14.2219 20.5122V17.2472C14.2219 16.5905 13.7253 16.0599 13.1105 16.0599H10.8877C10.273 16.0599 9.77632 16.5905 9.77632 17.2472V20.5122C9.77632 21.3322 9.15463 21.9963 8.38707 21.9963H6.44559C6.3935 21.9963 6.3414 21.9926 6.2893 21.9889C6.24763 21.9926 6.20595 21.9963 6.16427 21.9963H5.60857C4.84101 21.9963 4.21932 21.3322 4.21932 20.5122V16.3568C4.21932 16.3234 4.21932 16.2863 4.2228 16.2529V13.6669H3.1114C2.48624 13.6669 2 13.1474 2 12.4759C2 12.142 2.10419 11.8451 2.34731 11.5854L11.2489 3.29682C11.492 3.0371 11.7699 3 12.013 3C12.2561 3 12.534 3.0742 12.7424 3.25971L21.6127 11.5891C21.8906 11.8489 22.0295 12.1457 21.9948 12.4796Z" fill="#8F27CE"/>
</svg>
