<svg width="24" height="24" viewBox="0 0 24 24" fill="none" xmlns="http://www.w3.org/2000/svg">
<path d="M9.45996 4.332C10.74 2.913 12.746 2 15 2C18.866 2 22 4.686 22 8C22 9.989 20.87 11.752 19.132 12.844L19 12.92V16.97C19 17.1691 18.9405 17.3637 18.8292 17.5288C18.718 17.6939 18.56 17.822 18.3754 17.8968C18.1909 17.9715 17.9883 17.9895 17.7935 17.9484C17.5986 17.9073 17.4205 17.809 17.282 17.666L16.142 16.492C17.211 15.228 17.84 13.676 17.84 11.999C17.84 7.932 14.142 4.604 9.45996 4.332Z" fill="#8F27CE"/>
<path d="M10.385 17.886L6.718 21.666C6.57942 21.809 6.40132 21.9073 6.20651 21.9484C6.0117 21.9895 5.80905 21.9715 5.62452 21.8968C5.43999 21.822 5.28197 21.6939 5.17071 21.5288C5.05945 21.3637 5.00001 21.1691 5 20.97V16.92L4.868 16.844C3.129 15.752 2 13.989 2 12C2 8.686 5.134 6 9 6C12.866 6 16 8.686 16 12C16 14.726 13.879 17.028 10.974 17.758C10.7793 17.8081 10.5829 17.8507 10.385 17.886Z" fill="#8F27CE"/>
</svg>
