<svg width="24" height="24" viewBox="0 0 24 24" fill="none" xmlns="http://www.w3.org/2000/svg">
<path d="M22.6603 13.2344C23.3687 13.2344 23.9937 12.6875 23.9937 11.9805C24.0354 11.6289 23.8687 11.3164 23.5353 11.043L12.8969 2.27344C12.6469 2.07812 12.3135 2 12.0219 2C11.7302 2 11.3968 2.03906 11.1051 2.3125L0.416702 11.043C0.125011 11.3164 0 11.6289 0 11.9805C0 12.6836 0.583383 13.2344 1.33345 13.2344H2.66689V19.5C2.66689 20.8789 3.86283 22 5.33379 22H18.6849C20.1642 22 21.3602 20.875 21.3518 19.4883L21.3226 13.2305H22.6561L22.6603 13.2344ZM10.6676 10.125C10.6676 9.78125 10.9676 9.5 11.3343 9.5H12.6677C13.0344 9.5 13.3345 9.78125 13.3345 10.125V12H15.3346C15.7013 12 16.0014 12.2812 16.0014 12.625V13.875C16.0014 14.2188 15.7013 14.5 15.3346 14.5H13.3345V16.375C13.3345 16.7188 13.0344 17 12.6677 17H11.3343C10.9676 17 10.6676 16.7188 10.6676 16.375V14.5H8.6674C8.30071 14.5 8.00068 14.2188 8.00068 13.875V12.625C8.00068 12.2812 8.30071 12 8.6674 12H10.6676V10.125Z" fill="#8F27CE"/>
</svg>
