<svg width="24" height="24" viewBox="0 0 24 24" fill="none" xmlns="http://www.w3.org/2000/svg">
<g clip-path="url(#clip0_2263_26728)">
<path fill-rule="evenodd" clip-rule="evenodd" d="M23.7096 0.250895C24.0808 0.600295 24.0985 1.18449 23.7491 1.55572L14.4741 11.4104C14.7942 11.7437 15.0676 12.0826 15.2266 12.5137L15.2275 12.5162C15.4386 13.0933 15.3924 13.6232 15.3417 14.2053C15.3389 14.2376 15.336 14.2702 15.3332 14.3029C15.0502 17.5949 13.923 19.9601 12.847 21.5115C12.3104 22.285 11.7886 22.8537 11.394 23.2339C11.1966 23.4241 11.0307 23.5675 10.9103 23.6662C10.85 23.7155 10.801 23.7537 10.7651 23.781C10.7471 23.7946 10.7324 23.8056 10.7211 23.8138L10.7069 23.8242L10.7018 23.8278L10.6997 23.8293C10.6993 23.8296 10.698 23.8305 10.1649 23.0769L10.698 23.8305C10.479 23.9854 10.2034 24.0374 9.943 23.9729C7.35659 23.3323 5.00308 22.1887 3.22249 20.0903C1.44391 17.9944 0.320608 15.0446 0.00277385 10.949C-0.0218664 10.6314 0.118904 10.3237 0.375211 10.1346C0.631518 9.94561 0.967158 9.90207 1.26322 10.0194C3.5055 10.9082 5.70612 11.0945 8.52581 10.0121L8.55797 9.99976C9.22989 9.74217 9.78895 9.52786 10.2467 9.39594C10.7097 9.26252 11.1946 9.1733 11.6853 9.27436L11.6892 9.27518C12.1609 9.37448 12.542 9.61397 12.8905 9.89686C12.9751 9.96552 13.0622 10.0405 13.1522 10.1213L22.4047 0.290435C22.7541 -0.0808021 23.3383 -0.0985048 23.7096 0.250895ZM12.7447 12.2913C12.2786 11.8303 11.9768 11.5329 11.727 11.3302C11.4914 11.1389 11.3777 11.0966 11.3111 11.0822C11.2625 11.0726 11.1264 11.0637 10.7579 11.1699C10.3869 11.2768 9.90419 11.4608 9.18743 11.7356M12.7447 12.2913C13.3476 12.8888 13.4404 13.0066 13.4942 13.1516C13.5491 13.3023 13.5561 13.4192 13.4939 14.1449C13.2415 17.0794 12.2444 19.1408 11.33 20.4593C10.8713 21.1207 10.4314 21.5977 10.113 21.9046C10.051 21.9643 9.99363 22.0175 9.94173 22.0644C7.79524 21.4708 5.99123 20.4998 4.63014 18.8958C3.3595 17.3984 2.41106 15.2741 1.99231 12.2097C4.19038 12.8115 6.48454 12.7731 9.18743 11.7356" fill="#8F27CE"/>
<path fill-rule="evenodd" clip-rule="evenodd" d="M10.7692 1.23077C11.279 1.23077 11.6923 1.64405 11.6923 2.15385V2.27693C11.6923 2.78673 11.279 3.2 10.7692 3.2C10.2594 3.2 9.84616 2.78673 9.84616 2.27693V2.15385C9.84616 1.64405 10.2594 1.23077 10.7692 1.23077ZM6.15385 5.53846C5.99064 5.53846 5.83412 5.6033 5.71871 5.71871C5.6033 5.83411 5.53847 5.99064 5.53847 6.15385C5.53847 6.31706 5.6033 6.47358 5.71871 6.58899C5.83412 6.7044 5.99064 6.76923 6.15385 6.76923C6.31706 6.76923 6.47359 6.7044 6.58899 6.58899C6.7044 6.47358 6.76924 6.31706 6.76924 6.15385C6.76924 5.99064 6.7044 5.83411 6.58899 5.71871C6.47359 5.6033 6.31706 5.53846 6.15385 5.53846ZM4.41328 4.41328C4.87491 3.95165 5.50101 3.69231 6.15385 3.69231C6.80669 3.69231 7.43279 3.95165 7.89442 4.41328C8.35605 4.87491 8.61539 5.50101 8.61539 6.15385C8.61539 6.80669 8.35605 7.43279 7.89442 7.89442C7.43279 8.35605 6.80669 8.61539 6.15385 8.61539C5.50101 8.61539 4.87491 8.35605 4.41328 7.89442C3.95165 7.43279 3.69231 6.80669 3.69231 6.15385C3.69231 5.50101 3.95165 4.87491 4.41328 4.41328ZM9.65376 15.1282C9.96529 15.5318 9.8907 16.1114 9.48716 16.423C7.79543 17.729 6.09411 18.2238 4.80975 18.3885C4.1689 18.4707 3.63098 18.471 3.24679 18.4496C3.05445 18.4389 2.89983 18.4227 2.78916 18.4084C2.73379 18.4013 2.68932 18.3946 2.65653 18.3892L2.61615 18.3824L2.60268 18.3799L2.59766 18.379L2.59558 18.3786C2.59514 18.3785 2.59379 18.3782 2.76924 17.472L2.59379 18.3782C2.09328 18.2813 1.76609 17.7971 1.86299 17.2965C1.9596 16.7975 2.44132 16.4708 2.94025 16.5649M2.94318 16.5655L2.94025 16.5649L2.94318 16.5655ZM2.94025 16.5649L2.95256 16.567C2.96634 16.5692 2.99098 16.573 3.02576 16.5775C3.09537 16.5865 3.20518 16.5983 3.34938 16.6063C3.63826 16.6224 4.06188 16.6231 4.57488 16.5573C5.59821 16.4261 6.97381 16.031 8.359 14.9616C8.76254 14.6501 9.34222 14.7247 9.65376 15.1282" fill="#8F27CE"/>
</g>
<defs>
<clipPath id="clip0_2263_26728">
<rect width="24" height="24" fill="white"/>
</clipPath>
</defs>
</svg>
