<svg width="24" height="24" viewBox="0 0 24 24" fill="none" xmlns="http://www.w3.org/2000/svg">
<path d="M10.1482 7.92592C10.1482 7.63292 10.235 7.34649 10.3978 7.10286C10.5606 6.85923 10.792 6.66934 11.0627 6.55721C11.3334 6.44508 11.6313 6.41575 11.9187 6.47291C12.206 6.53007 12.47 6.67117 12.6772 6.87836C12.8844 7.08555 13.0255 7.34952 13.0826 7.6369C13.1398 7.92428 13.1105 8.22216 12.9983 8.49286C12.8862 8.76357 12.6963 8.99494 12.4527 9.15773C12.2091 9.32052 11.9226 9.40741 11.6296 9.40741C11.2367 9.40741 10.8599 9.25132 10.5821 8.97349C10.3042 8.69566 10.1482 8.31884 10.1482 7.92592ZM22 12C22 13.9778 21.4135 15.9112 20.3147 17.5557C19.2159 19.2002 17.6541 20.4819 15.8268 21.2388C13.9996 21.9957 11.9889 22.1937 10.0491 21.8078C8.10929 21.422 6.32746 20.4696 4.92894 19.0711C3.53041 17.6725 2.578 15.8907 2.19215 13.9509C1.8063 12.0111 2.00433 10.0004 2.76121 8.17316C3.51809 6.3459 4.79981 4.78412 6.4443 3.6853C8.08879 2.58649 10.0222 2 12 2C14.6513 2.00294 17.1931 3.05745 19.0678 4.93218C20.9425 6.80691 21.9971 9.34874 22 12ZM19.7778 12C19.7778 10.4617 19.3216 8.95795 18.467 7.6789C17.6124 6.39985 16.3976 5.40295 14.9764 4.81427C13.5552 4.22559 11.9914 4.07156 10.4826 4.37167C8.97389 4.67178 7.58803 5.41254 6.50028 6.50028C5.41254 7.58802 4.67178 8.97389 4.37167 10.4826C4.07157 11.9914 4.22559 13.5552 4.81427 14.9764C5.40296 16.3976 6.39985 17.6123 7.6789 18.467C8.95795 19.3216 10.4617 19.7778 12 19.7778C14.0621 19.7756 16.0391 18.9554 17.4973 17.4973C18.9554 16.0391 19.7756 14.0621 19.7778 12ZM13.1111 15.3963V12.3704C13.1111 11.8792 12.916 11.4082 12.5687 11.0609C12.2214 10.7136 11.7504 10.5185 11.2593 10.5185C10.9969 10.5181 10.7428 10.6106 10.5421 10.7796C10.3413 10.9486 10.2068 11.1832 10.1625 11.4418C10.1181 11.7004 10.1667 11.9664 10.2997 12.1926C10.4326 12.4188 10.6414 12.5907 10.8889 12.6778V15.7037C10.8889 16.1948 11.084 16.6659 11.4313 17.0132C11.7786 17.3604 12.2496 17.5556 12.7407 17.5556C13.0031 17.5559 13.2572 17.4635 13.458 17.2945C13.6587 17.1255 13.7932 16.8909 13.8375 16.6323C13.8819 16.3737 13.8333 16.1077 13.7003 15.8815C13.5674 15.6552 13.3586 15.4834 13.1111 15.3963Z" fill="#CFABE5"/>
</svg>
