<svg width="24" height="25" viewBox="0 0 24 25" fill="none" xmlns="http://www.w3.org/2000/svg">
<path d="M10.1482 8.42592C10.1482 8.13292 10.235 7.84649 10.3978 7.60286C10.5606 7.35923 10.792 7.16934 11.0627 7.05721C11.3334 6.94508 11.6313 6.91575 11.9187 6.97291C12.206 7.03007 12.47 7.17117 12.6772 7.37836C12.8844 7.58555 13.0255 7.84952 13.0826 8.1369C13.1398 8.42428 13.1105 8.72216 12.9983 8.99286C12.8862 9.26357 12.6963 9.49494 12.4527 9.65773C12.2091 9.82052 11.9226 9.90741 11.6296 9.90741C11.2367 9.90741 10.8599 9.75132 10.5821 9.47349C10.3042 9.19566 10.1482 8.81884 10.1482 8.42592ZM22 12.5C22 14.4778 21.4135 16.4112 20.3147 18.0557C19.2159 19.7002 17.6541 20.9819 15.8268 21.7388C13.9996 22.4957 11.9889 22.6937 10.0491 22.3078C8.10929 21.922 6.32746 20.9696 4.92894 19.5711C3.53041 18.1725 2.578 16.3907 2.19215 14.4509C1.8063 12.5111 2.00433 10.5004 2.76121 8.67316C3.51809 6.8459 4.79981 5.28412 6.4443 4.1853C8.08879 3.08649 10.0222 2.5 12 2.5C14.6513 2.50294 17.1931 3.55745 19.0678 5.43218C20.9425 7.30691 21.9971 9.84874 22 12.5ZM19.7778 12.5C19.7778 10.9617 19.3216 9.45795 18.467 8.1789C17.6124 6.89985 16.3976 5.90295 14.9764 5.31427C13.5552 4.72559 11.9914 4.57156 10.4826 4.87167C8.97389 5.17178 7.58803 5.91254 6.50028 7.00028C5.41254 8.08802 4.67178 9.47389 4.37167 10.9826C4.07157 12.4914 4.22559 14.0552 4.81427 15.4764C5.40296 16.8976 6.39985 18.1123 7.6789 18.967C8.95795 19.8216 10.4617 20.2778 12 20.2778C14.0621 20.2756 16.0391 19.4554 17.4973 17.9973C18.9554 16.5391 19.7756 14.5621 19.7778 12.5ZM13.1111 15.8963V12.8704C13.1111 12.3792 12.916 11.9082 12.5687 11.5609C12.2214 11.2136 11.7504 11.0185 11.2593 11.0185C10.9969 11.0181 10.7428 11.1106 10.5421 11.2796C10.3413 11.4486 10.2068 11.6832 10.1625 11.9418C10.1181 12.2004 10.1667 12.4664 10.2997 12.6926C10.4326 12.9188 10.6414 13.0907 10.8889 13.1778V16.2037C10.8889 16.6948 11.084 17.1659 11.4313 17.5132C11.7786 17.8604 12.2496 18.0556 12.7407 18.0556C13.0031 18.0559 13.2572 17.9635 13.458 17.7945C13.6587 17.6255 13.7932 17.3909 13.8375 17.1323C13.8819 16.8737 13.8333 16.6077 13.7003 16.3815C13.5674 16.1552 13.3586 15.9834 13.1111 15.8963Z" fill="white"/>
</svg>
