<svg width="24" height="25" viewBox="0 0 24 25" fill="none" xmlns="http://www.w3.org/2000/svg">
<path d="M12 22.3931C6.477 22.3931 2 17.9161 2 12.3931C2 6.87007 6.477 2.39307 12 2.39307C17.523 2.39307 22 6.87107 22 12.3931C22 17.9151 17.523 22.3931 12 22.3931ZM12 7.39307C11.7348 7.39307 11.4804 7.49842 11.2929 7.68596C11.1054 7.8735 11 8.12785 11 8.39307V13.3931C11 13.6583 11.1054 13.9126 11.2929 14.1002C11.4804 14.2877 11.7348 14.3931 12 14.3931C12.2652 14.3931 12.5196 14.2877 12.7071 14.1002C12.8946 13.9126 13 13.6583 13 13.3931V8.39307C13 8.12785 12.8946 7.8735 12.7071 7.68596C12.5196 7.49842 12.2652 7.39307 12 7.39307ZM12 17.3931C12.2652 17.3931 12.5196 17.2877 12.7071 17.1002C12.8946 16.9126 13 16.6583 13 16.3931C13 16.1278 12.8946 15.8735 12.7071 15.686C12.5196 15.4984 12.2652 15.3931 12 15.3931C11.7348 15.3931 11.4804 15.4984 11.2929 15.686C11.1054 15.8735 11 16.1278 11 16.3931C11 16.6583 11.1054 16.9126 11.2929 17.1002C11.4804 17.2877 11.7348 17.3931 12 17.3931Z" fill="white"/>
</svg>
