<svg width="69" height="69" viewBox="0 0 69 69" fill="none" xmlns="http://www.w3.org/2000/svg">
<g clip-path="url(#clip0_2951_18988)">
<path d="M43.9375 38.6586C43.9783 38.7108 44.0195 38.7635 44.0611 38.8162C44.2673 39.0783 44.3978 39.397 44.4371 39.7347C44.4764 40.0724 44.4228 40.4149 44.2828 40.7216C43.9851 41.3763 43.357 41.7841 42.6385 41.7841H27.7837C27.0618 41.7841 26.4294 41.3758 26.1327 40.7181C25.9933 40.4115 25.9402 40.0693 25.9798 39.7319C26.0195 39.3946 26.1501 39.0763 26.3563 38.8147C26.4264 38.7241 26.4953 38.6367 26.5631 38.5507L26.5915 38.5146C27.6505 37.1698 28.2896 36.3573 28.2896 32.5444C28.2896 29.0837 29.6073 26.8307 32.3187 25.6564C32.3333 25.6478 32.3465 25.6367 32.3576 25.6235C32.7755 24.1527 33.9187 23.1666 35.2085 23.1666C36.4983 23.1666 37.6419 24.1527 38.0598 25.625C38.0709 25.6387 38.0843 25.6501 38.0992 25.6589C39.2611 26.1618 40.1426 26.8423 40.7947 27.7394C41.6791 28.9536 42.1278 30.5727 42.1278 32.5459C42.1278 36.3553 42.7672 37.169 43.8243 38.5141L43.8259 38.5162C43.8628 38.5629 43.9 38.6105 43.9375 38.6586Z" fill="#8F27CE"/>
<path d="M37.1816 45.2589C36.5852 45.6342 35.9034 45.8326 35.2085 45.8332C34.5136 45.8326 33.8319 45.634 33.2356 45.2588C32.6393 44.8835 32.1506 44.3454 31.8214 43.7017C31.8059 43.6708 31.7982 43.6362 31.7992 43.6012C31.8001 43.5663 31.8097 43.5322 31.8269 43.5023C31.8441 43.4724 31.8683 43.4477 31.8973 43.4306C31.9262 43.4135 31.9589 43.4045 31.9921 43.4047H38.4258C38.4589 43.4046 38.4916 43.4136 38.5205 43.4308C38.5494 43.4479 38.5736 43.4726 38.5907 43.5025C38.6078 43.5324 38.6173 43.5665 38.6182 43.6014C38.6192 43.6362 38.6115 43.6708 38.596 43.7017C38.2668 44.3455 37.778 44.8836 37.1816 45.2589Z" fill="#8F27CE"/>
<path fill-rule="evenodd" clip-rule="evenodd" d="M11.834 9C11.834 4.308 15.4992 0.5 20.0152 0.5H50.4027C54.9188 0.5 58.584 4.308 58.584 9V60C58.584 62.2543 57.722 64.4164 56.1878 66.0104C54.6535 67.6045 52.5725 68.5 50.4027 68.5H20.0152C19.0365 68.4789 18.0748 68.2299 17.2009 67.7714C16.4061 67.3829 15.602 66.8486 14.8727 66.2074C13.5217 65.0126 11.834 62.8754 11.834 60V9ZM20.0152 7.78571C19.7053 7.78571 19.408 7.91365 19.1888 8.14137C18.9696 8.36909 18.8465 8.67795 18.8465 9V59.9466C18.9915 60.2226 19.1868 60.4668 19.4215 60.6654C19.6758 60.8861 19.9572 61.0706 20.2583 61.2143H50.4027C50.7127 61.2143 51.01 61.0864 51.2292 60.8586C51.4484 60.6309 51.5715 60.322 51.5715 60V9C51.5715 8.67795 51.4484 8.36909 51.2292 8.14137C51.01 7.91365 50.7127 7.78571 50.4027 7.78571H20.0152Z" fill="#8F27CE"/>
</g>
<defs>
<clipPath id="clip0_2951_18988">
<rect width="68" height="68" fill="white" transform="translate(0.5 0.5)"/>
</clipPath>
</defs>
</svg>
