<svg width="24" height="24" viewBox="0 0 24 24" fill="none" xmlns="http://www.w3.org/2000/svg">
  <path fill-rule="evenodd" clip-rule="evenodd" d="M6 2C3.79086 2 2 3.79086 2 6C2 8.20914 3.79086 10 6 10C8.20914 10 10 8.20914 10 6C10 3.79086 8.20914 2 6 2ZM4 6C4 4.89543 4.89543 4 6 4C7.10457 4 8 4.89543 8 6C8 7.10457 7.10457 8 6 8C4.89543 8 4 7.10457 4 6Z" fill="currentColor"/>
  <path fill-rule="evenodd" clip-rule="evenodd" d="M18 2C15.7909 2 14 3.79086 14 6C14 8.20914 15.7909 10 18 10C20.2091 10 22 8.20914 22 6C22 3.79086 20.2091 2 18 2ZM16 6C16 4.89543 16.8954 4 18 4C19.1046 4 20 4.89543 20 6C20 7.10457 19.1046 8 18 8C16.8954 8 16 7.10457 16 6Z" fill="currentColor"/>
  <path fill-rule="evenodd" clip-rule="evenodd" d="M6 14C3.79086 14 2 15.7909 2 18C2 20.2091 3.79086 22 6 22C8.20914 22 10 20.2091 10 18C10 15.7909 8.20914 14 6 14ZM4 18C4 16.8954 4.89543 16 6 16C7.10457 16 8 16.8954 8 18C8 19.1046 7.10457 20 6 20C4.89543 20 4 19.1046 4 18Z" fill="currentColor"/>
  <path fill-rule="evenodd" clip-rule="evenodd" d="M18 14C15.7909 14 14 15.7909 14 18C14 20.2091 15.7909 22 18 22C20.2091 22 22 20.2091 22 18C22 15.7909 20.2091 14 18 14ZM16 18C16 16.8954 16.8954 16 18 16C19.1046 16 20 16.8954 20 18C20 19.1046 19.1046 20 18 20C16.8954 20 16 19.1046 16 18Z" fill="currentColor"/>
  <path fill-rule="evenodd" clip-rule="evenodd" d="M9.33333 5.33333L14.6667 5.33333C15.1269 5.33333 15.5 5.70643 15.5 6.16667C15.5 6.6269 15.1269 7 14.6667 7L9.33333 7C8.8731 7 8.5 6.6269 8.5 6.16667C8.5 5.70643 8.8731 5.33333 9.33333 5.33333Z" fill="currentColor"/>
  <path fill-rule="evenodd" clip-rule="evenodd" d="M9.33333 17.3333L14.6667 17.3333C15.1269 17.3333 15.5 17.7064 15.5 18.1667C15.5 18.6269 15.1269 19 14.6667 19L9.33333 19C8.8731 19 8.5 18.6269 8.5 18.1667C8.5 17.7064 8.8731 17.3333 9.33333 17.3333Z" fill="currentColor"/>
  <path fill-rule="evenodd" clip-rule="evenodd" d="M18.1667 9.33333C18.6269 9.33333 19 9.70643 19 10.1667L19 14.6667C19 15.1269 18.6269 15.5 18.1667 15.5C17.7064 15.5 17.3333 15.1269 17.3333 14.6667L17.3333 10.1667C17.3333 9.70643 17.7064 9.33333 18.1667 9.33333Z" fill="currentColor"/>
  <path fill-rule="evenodd" clip-rule="evenodd" d="M5.83333 9.33333C6.29357 9.33333 6.66667 9.70643 6.66667 10.1667L6.66667 14.6667C6.66667 15.1269 6.29357 15.5 5.83333 15.5C5.3731 15.5 5 15.1269 5 14.6667L5 10.1667C5 9.70643 5.3731 9.33333 5.83333 9.33333Z" fill="currentColor"/>
</svg> 