<svg width="24" height="24" viewBox="0 0 24 24" fill="none" xmlns="http://www.w3.org/2000/svg">
<path d="M11.25 12C12.6424 12 13.9777 11.4469 14.9623 10.4623C15.9469 9.47774 16.5 8.14239 16.5 6.75C16.5 5.35761 15.9469 4.02226 14.9623 3.03769C13.9777 2.05312 12.6424 1.5 11.25 1.5C9.85761 1.5 8.52226 2.05312 7.53769 3.03769C6.55312 4.02226 6 5.35761 6 6.75C6 8.14239 6.55312 9.47774 7.53769 10.4623C8.52226 11.4469 9.85761 12 11.25 12ZM2.25 16.125V16.5C2.25 18.2948 3.39225 19.8127 5.01375 20.8447C6.64425 21.8827 8.8515 22.5 11.25 22.5C11.3835 22.5 11.5148 22.491 11.6468 22.4872C11.6415 22.428 11.625 22.3725 11.625 22.3125V17.4525C11.625 16.7633 11.9257 16.1123 12.4515 15.6667L15 13.5H4.875C4.17881 13.5 3.51113 13.7766 3.01884 14.2688C2.52656 14.7611 2.25 15.4288 2.25 16.125ZM16.836 13.416C17.0564 13.2287 17.3362 13.1258 17.6254 13.1258C17.9146 13.1258 18.1944 13.2287 18.4147 13.416L22.071 16.524C22.3433 16.7557 22.5007 17.0948 22.5007 17.4525V22.3125C22.5007 22.83 22.0807 23.25 21.5632 23.25H20.0632C19.5457 23.25 19.1257 22.83 19.1257 22.3125V19.875C19.1258 19.6766 19.0471 19.4863 18.9071 19.3457C18.7671 19.2052 18.5771 19.1258 18.3787 19.125H16.872C16.6736 19.1258 16.4836 19.2052 16.3436 19.3457C16.2036 19.4863 16.125 19.6766 16.125 19.875V22.3125C16.125 22.83 15.705 23.25 15.1875 23.25H13.6875C13.17 23.25 12.75 22.83 12.75 22.3125V17.4525C12.75 17.0948 12.9067 16.7557 13.1798 16.524L16.836 13.416Z" fill="#8F27CE"/>
</svg>
