<svg width="20" height="20" viewBox="0 0 20 20" fill="none" xmlns="http://www.w3.org/2000/svg">
<path fill-rule="evenodd" clip-rule="evenodd" d="M14.6055 4.96168C11.7125 2.89005 7.53755 3.06665 4.87991 5.35493L14.6055 4.96168ZM4.87978 5.35504C2.2653 7.60717 1.93644 11.1859 4.0497 13.7749C6.20403 16.4142 10.2715 17.2561 13.5447 15.6517C13.7281 15.5618 13.9359 15.5363 14.1354 15.5791L16.8747 16.1676L16.1902 14.0942C16.1001 13.8214 16.1408 13.5218 16.3003 13.2837C18.1312 10.55 17.4577 7.00522 14.6056 4.96178M15.6655 3.45309C12.0988 0.898826 6.99653 1.1014 3.69098 3.94768L3.69085 3.94778C0.342203 6.8322 -0.134975 11.5566 2.63591 14.9512C5.2995 18.2145 10.1237 19.2179 14.0533 17.4526L18.0594 18.3131C18.3807 18.3822 18.714 18.2722 18.933 18.0248C19.1519 17.7775 19.2229 17.4308 19.119 17.1161L18.0659 13.9263C20.1717 10.3649 19.1438 5.94503 15.6656 3.45319L15.6655 3.45309Z" fill="#8F27CE"/>
</svg>
