<svg width="32" height="32" viewBox="0 0 32 32" fill="none" xmlns="http://www.w3.org/2000/svg">
<path d="M15.9993 21.9587C15.7771 21.9587 15.5688 21.9242 15.3743 21.8553C15.1799 21.7864 14.9993 21.6681 14.8327 21.5003L8.83268 15.5003C8.49934 15.167 8.33934 14.7781 8.35268 14.3337C8.36601 13.8892 8.52601 13.5003 8.83268 13.167C9.16601 12.8337 9.56212 12.6603 10.021 12.647C10.4799 12.6337 10.8755 12.7931 11.2077 13.1253L14.3327 16.2503V4.33366C14.3327 3.86144 14.4927 3.46589 14.8127 3.147C15.1327 2.82811 15.5282 2.66811 15.9993 2.667C16.4704 2.66589 16.8666 2.82589 17.1877 3.147C17.5088 3.46811 17.6682 3.86366 17.666 4.33366V16.2503L20.791 13.1253C21.1243 12.792 21.5204 12.632 21.9793 12.6453C22.4382 12.6587 22.8338 12.8326 23.166 13.167C23.4716 13.5003 23.6316 13.8892 23.646 14.3337C23.6604 14.7781 23.5004 15.167 23.166 15.5003L17.166 21.5003C16.9993 21.667 16.8188 21.7853 16.6243 21.8553C16.4299 21.9253 16.2216 21.9598 15.9993 21.9587ZM5.99935 29.3337C5.08268 29.3337 4.29824 29.0075 3.64601 28.3553C2.99379 27.7031 2.66713 26.9181 2.66602 26.0003V22.667C2.66602 22.1948 2.82602 21.7992 3.14602 21.4803C3.46602 21.1614 3.86157 21.0014 4.33268 21.0003C4.80379 20.9992 5.1999 21.1592 5.52101 21.4803C5.84212 21.8014 6.00157 22.197 5.99935 22.667V26.0003H25.9993V22.667C25.9993 22.1948 26.1593 21.7992 26.4793 21.4803C26.7993 21.1614 27.1949 21.0014 27.666 21.0003C28.1371 20.9992 28.5332 21.1592 28.8543 21.4803C29.1754 21.8014 29.3349 22.197 29.3327 22.667V26.0003C29.3327 26.917 29.0065 27.702 28.3543 28.3553C27.7021 29.0087 26.9171 29.3348 25.9993 29.3337H5.99935Z" fill="#8F27CE"/>
</svg>
