<svg width="20" height="20" viewBox="0 0 20 20" fill="none" xmlns="http://www.w3.org/2000/svg">
<path d="M12.3071 15.5481L6.629 12.6146C6.08396 13.1271 5.39093 13.4752 4.6373 13.6152C3.88367 13.7551 3.10317 13.6806 2.3942 13.4009C1.68522 13.1213 1.07952 12.6491 0.653444 12.0439C0.22737 11.4386 0 10.7275 0 10C0 9.27254 0.22737 8.56136 0.653444 7.95612C1.07952 7.35088 1.68522 6.87869 2.3942 6.59906C3.10317 6.31943 3.88367 6.24489 4.6373 6.38483C5.39093 6.52477 6.08396 6.87294 6.629 7.38543L12.3071 4.45193C12.1124 3.58644 12.2531 2.68347 12.7034 1.90815C13.1537 1.13282 13.8836 0.536945 14.7596 0.229493C15.6357 -0.0779591 16.5992 -0.0764448 17.4742 0.233759C18.3491 0.543963 19.0769 1.14213 19.5245 1.91886C19.9721 2.6956 20.1096 3.59901 19.9118 4.46388C19.7141 5.32875 19.1943 6.09729 18.4474 6.62895C17.7006 7.16061 16.7768 7.41987 15.8447 7.35932C14.9127 7.29877 14.0348 6.92245 13.3717 6.29918L7.69351 9.23268C7.80709 9.73822 7.80709 10.2607 7.69351 10.7663L13.3717 13.7008C14.0348 13.0775 14.9127 12.7012 15.8447 12.6407C16.7768 12.5801 17.7006 12.8394 18.4474 13.371C19.1943 13.9027 19.7141 14.6712 19.9118 15.5361C20.1096 16.401 19.9721 17.3044 19.5245 18.0811C19.0769 18.8579 18.3491 19.456 17.4742 19.7662C16.5992 20.0764 15.6357 20.078 14.7596 19.7705C13.8836 19.4631 13.1537 18.8672 12.7034 18.0919C12.2531 17.3165 12.1124 16.4136 12.3071 15.5481Z" fill="#8F27CE"/>
</svg>
