<svg width="69" height="68" viewBox="0 0 69 68" fill="none" xmlns="http://www.w3.org/2000/svg">
<path fill-rule="evenodd" clip-rule="evenodd" d="M35.2077 4.25L53.9037 14.532V35.0959L37.3122 44.2174C37.0379 44.4364 36.7233 44.6111 36.3804 44.7297L35.2074 45.3746L16.5117 35.0927V14.532L35.2077 4.25ZM38.4213 36.7914L47.7058 31.6871V21.2533L38.4213 26.0536V36.7914ZM35.447 20.8742L44.5154 16.1857L35.2077 11.0668L26.0193 16.12L35.447 20.8742ZM22.7096 21.1308V31.6845L32.2234 36.9166V25.9284L22.7096 21.1308ZM35.2077 51.9431C34.3858 51.9431 33.5976 52.2541 33.0164 52.8076C32.4352 53.3612 32.1087 54.112 32.1087 54.8948C32.1087 55.6777 32.4352 56.4285 33.0164 56.982C33.5976 57.5356 34.3858 57.8466 35.2077 57.8466C36.0296 57.8466 36.8178 57.5356 37.399 56.982C37.9801 56.4285 38.3066 55.6777 38.3066 54.8948C38.3066 54.112 37.9801 53.3612 37.399 52.8076C36.8178 52.2541 36.0296 51.9431 35.2077 51.9431ZM28.6338 48.6333C30.3773 46.9726 32.742 46.0397 35.2077 46.0397C37.6734 46.0397 40.0381 46.9726 41.7816 48.6333C42.7823 49.5865 43.5313 50.7346 43.9879 51.984C44.1559 51.9571 44.3285 51.9431 44.5046 51.9431H56.9004C58.6119 51.9431 59.9993 53.2646 59.9993 54.8948C59.9993 56.525 58.6119 57.8466 56.9004 57.8466H44.5046C44.3285 57.8466 44.1559 57.8326 43.9879 57.8057C43.5313 59.0551 42.7823 60.2032 41.7816 61.1564C40.0381 62.817 37.6734 63.75 35.2077 63.75C32.742 63.75 30.3773 62.817 28.6338 61.1564C27.6331 60.2032 26.884 59.0551 26.4275 57.8057C26.2594 57.8326 26.0868 57.8466 25.9108 57.8466H13.515C11.8035 57.8466 10.416 56.525 10.416 54.8948C10.416 53.2646 11.8035 51.9431 13.515 51.9431H25.9108C26.0868 51.9431 26.2594 51.9571 26.4275 51.984C26.884 50.7346 27.6331 49.5865 28.6338 48.6333Z" fill="#8F27CE"/>
</svg>
