<svg width="20" height="21" viewBox="0 0 20 21" fill="none" xmlns="http://www.w3.org/2000/svg">
<path d="M0.83399 9.66634V6.54134C0.83399 5.5887 0.831664 4.76908 0.919439 4.11622C1.01127 3.4335 1.2187 2.77935 1.74952 2.24854L1.95398 2.06442C2.44422 1.66783 3.01975 1.49882 3.61719 1.41846C4.27006 1.33069 5.08968 1.33301 6.04232 1.33301H9.16732C9.63829 1.33301 10.0437 1.33261 10.3778 1.35539C10.7214 1.37883 11.0658 1.43042 11.4053 1.57105C12.1707 1.88821 12.7788 2.49633 13.0959 3.26172L13.1855 3.51705C13.2605 3.7732 13.294 4.03131 13.3116 4.28915C13.3344 4.62331 13.334 5.0287 13.334 5.49968H11.2507C11.2507 5.00007 11.2502 4.6774 11.2334 4.43055C11.2253 4.31181 11.214 4.22987 11.2028 4.17216L11.1713 4.05925C11.0656 3.80412 10.8629 3.60141 10.6077 3.49569C10.5644 3.47774 10.4739 3.44984 10.2365 3.43364C9.9896 3.4168 9.66693 3.41635 9.16732 3.41635H6.04232C5.03078 3.41635 4.37668 3.41871 3.8949 3.48348C3.5564 3.52902 3.39224 3.59563 3.29777 3.65947L3.2225 3.72152C3.14322 3.8008 3.04521 3.94231 2.98446 4.39393C2.91969 4.8757 2.91732 5.5298 2.91732 6.54134V9.66634C2.91732 10.166 2.91777 10.4886 2.93462 10.7355C2.95082 10.9729 2.97872 11.0634 2.99667 11.1068C3.10239 11.3619 3.3051 11.5646 3.56023 11.6703L3.67314 11.7019C3.73084 11.7131 3.81279 11.7243 3.93152 11.7324C4.17838 11.7492 4.50105 11.7497 5.00065 11.7497V13.833C4.52968 13.833 4.12429 13.8334 3.79012 13.8106C3.53228 13.793 3.27418 13.7595 3.01803 13.6845L2.7627 13.595C1.99731 13.2778 1.38919 12.6697 1.07203 11.9043C0.931398 11.5648 0.879812 11.2204 0.85637 10.8769C0.833585 10.5427 0.83399 10.1373 0.83399 9.66634Z" fill="white"/>
<path d="M17.084 12.3747C17.084 11.3631 17.0816 10.709 17.0168 10.2273C16.9713 9.88876 16.9047 9.72459 16.8409 9.63013L16.7788 9.55485C16.6995 9.47557 16.558 9.37756 16.1064 9.31682C15.6246 9.25204 14.9705 9.24968 13.959 9.24968H11.8757C10.8641 9.24968 10.21 9.25204 9.72823 9.31682C9.38973 9.36235 9.22557 9.42897 9.13111 9.4928L9.05583 9.55485C8.97655 9.63413 8.87854 9.77565 8.81779 10.2273C8.75302 10.709 8.75065 11.3631 8.75065 12.3747V14.458C8.75065 15.4695 8.75302 16.1236 8.81779 16.6054C8.87854 17.057 8.97655 17.1985 9.05583 17.2778L9.13111 17.3399C9.22557 17.4037 9.38973 17.4703 9.72823 17.5159C10.21 17.5806 10.8641 17.583 11.8757 17.583H13.959C14.9705 17.583 15.6246 17.5806 16.1064 17.5159C16.558 17.4551 16.6995 17.3571 16.7788 17.2778L16.8409 17.2026C16.9047 17.1081 16.9713 16.9439 17.0168 16.6054C17.0816 16.1236 17.084 15.4695 17.084 14.458V12.3747ZM19.1673 14.458C19.1673 15.4106 19.1696 16.2303 19.0819 16.8831C19.0015 17.4806 18.8325 18.0561 18.4359 18.5463L18.2518 18.7508C17.721 19.2816 17.0668 19.4891 16.3841 19.5809C15.7312 19.6687 14.9116 19.6663 13.959 19.6663H11.8757C10.923 19.6663 10.1034 19.6687 9.45052 19.5809C8.85308 19.5005 8.27755 19.3315 7.78732 18.9349L7.58285 18.7508C7.05204 18.22 6.8446 17.5658 6.75277 16.8831C6.665 16.2303 6.66732 15.4106 6.66732 14.458V12.3747C6.66732 11.422 6.665 10.6024 6.75277 9.94955C6.8446 9.26684 7.05204 8.61269 7.58285 8.08187L7.78732 7.89775C8.27755 7.50116 8.85308 7.33215 9.45052 7.2518C10.1034 7.16402 10.923 7.16635 11.8757 7.16635H13.959C14.9116 7.16635 15.7312 7.16402 16.3841 7.2518C17.0668 7.34362 17.721 7.55106 18.2518 8.08187L18.4359 8.28634C18.8325 8.77657 19.0015 9.35211 19.0819 9.94955C19.1696 10.6024 19.1673 11.422 19.1673 12.3747V14.458Z" fill="white"/>
</svg>
