<svg width="69" height="68" viewBox="0 0 69 68" fill="none" xmlns="http://www.w3.org/2000/svg">
<path d="M61.6521 14.1667H26.3535C23.3667 14.1667 20.923 16.9129 20.923 20.2693V47.7309C20.923 49.3493 21.4951 50.9016 22.5135 52.046C23.532 53.1905 24.9132 53.8334 26.3535 53.8334H61.6521C64.6661 53.8334 67.0827 51.1178 67.0827 47.7309V20.2693C67.0827 18.6508 66.5105 17.0986 65.4921 15.9541C64.4737 14.8097 63.0924 14.1667 61.6521 14.1667ZM61.6521 25.365L44.0028 35.5257L26.3535 25.365V20.2693L44.0028 30.3691L61.6521 20.2693V25.365ZM15.4924 47.7309C15.4924 48.2496 15.5739 48.7378 15.6282 49.2565H4.63129C3.13246 49.2565 1.91602 47.8834 1.91602 46.2052C1.91602 44.527 3.13246 43.1539 4.63129 43.1539H15.4924V47.7309ZM10.0618 18.7437H15.6282C15.5739 19.2624 15.4924 19.7506 15.4924 20.2693V24.8462H10.0618C8.56845 24.8462 7.34657 23.4732 7.34657 21.795C7.34657 20.1167 8.56845 18.7437 10.0618 18.7437ZM4.63129 34.0001C4.63129 32.3219 5.85317 30.9488 7.34657 30.9488H15.4924V37.0514H7.34657C5.85317 37.0514 4.63129 35.6783 4.63129 34.0001Z" fill="#8F27CE"/>
</svg>
