<svg width="24" height="28" viewBox="0 0 24 28" fill="none" xmlns="http://www.w3.org/2000/svg">
<path d="M19.1589 10.6501C19.1589 9.60567 18.2904 8.75072 17.2107 8.75072C16.1311 8.75072 15.2626 9.60424 15.2626 10.6501C15.2626 11.6946 16.1311 12.5496 17.2107 12.5496C18.2904 12.5496 19.1589 11.696 19.1589 10.6501Z" fill="#8F27CE"/>
<path fill-rule="evenodd" clip-rule="evenodd" d="M0 5.90087C0 4.85068 0.847612 4 1.89393 4H22.1061C23.1524 4 24 4.85068 24 5.90087V21.0991C24 22.1493 23.1524 23 22.1061 23H1.89393C0.847612 23 0 22.1493 0 21.0991V5.90087ZM3.66281 17.9643H9.45299C9.57598 17.963 9.69802 17.9865 9.81213 18.0336C9.92625 18.0806 10.0302 18.1503 10.1181 18.2385C10.206 18.3268 10.276 18.4319 10.3243 18.5479C10.3725 18.664 10.398 18.7886 10.3993 18.9147C10.398 19.0409 10.3725 19.1655 10.3243 19.2815C10.276 19.3975 10.206 19.5027 10.1181 19.5909C10.0302 19.6792 9.92625 19.7488 9.81213 19.7959C9.69802 19.8429 9.57598 19.8665 9.45299 19.8652H3.66281C3.13896 19.8652 2.71514 19.4391 2.71514 18.9147C2.71641 18.7885 2.74194 18.6637 2.79028 18.5476C2.83861 18.4315 2.90879 18.3263 2.9968 18.238C3.08483 18.1497 3.18895 18.0801 3.30323 18.0332C3.41751 17.9862 3.5397 17.9628 3.66281 17.9643ZM13.3687 10.6501C13.3687 8.54696 15.0931 6.84986 17.2107 6.84986C19.3298 6.84986 21.0528 8.54696 21.0528 10.6501C21.0528 11.7516 20.5804 12.7419 19.8245 13.433C21.2557 14.3022 22.2103 15.8625 22.2103 17.6451C22.2103 18.046 22.1626 18.4393 22.0672 18.825C22.0028 19.0718 21.8463 19.2827 21.6316 19.4123C21.4169 19.5419 21.1611 19.5796 20.9194 19.5175C20.7999 19.4892 20.6871 19.4368 20.5875 19.3635C20.4879 19.2901 20.4035 19.1971 20.3392 19.09C20.275 18.9828 20.2321 18.8637 20.2131 18.7394C20.1942 18.6152 20.1995 18.4883 20.2288 18.3661C20.2872 18.1324 20.3163 17.8921 20.3163 17.6451C20.3163 15.9708 18.9296 14.6057 17.2107 14.6057C15.4919 14.6057 14.1065 15.9708 14.1065 17.6451C14.1047 17.9534 14.1516 18.2599 14.2455 18.5528C14.2828 18.6725 14.2964 18.7987 14.2856 18.9239C14.2748 19.049 14.2398 19.1708 14.1826 19.2819C14.1254 19.3931 14.0472 19.4915 13.9526 19.5713C13.8579 19.6511 13.7487 19.7108 13.6313 19.7469C13.1339 19.9065 12.6003 19.63 12.4405 19.1313C12.289 18.654 12.2112 18.1538 12.2112 17.6451C12.2112 15.8625 13.1658 14.3022 14.597 13.4359C13.8411 12.7419 13.3687 11.7516 13.3687 10.6501ZM3.66281 12.9771H9.45299C9.57598 12.9757 9.69802 12.9993 9.81213 13.0463C9.92625 13.0934 10.0302 13.163 10.1181 13.2513C10.206 13.3395 10.276 13.4447 10.3243 13.5607C10.3725 13.6767 10.398 13.8014 10.3993 13.9275C10.398 14.0536 10.3725 14.1782 10.3243 14.2943C10.276 14.4103 10.206 14.5154 10.1181 14.6037C10.0302 14.6919 9.92625 14.7616 9.81213 14.8086C9.69802 14.8557 9.57598 14.8792 9.45299 14.8779H3.66281C3.13896 14.8779 2.71514 14.4518 2.71514 13.9275C2.71641 13.8012 2.74194 13.6765 2.79028 13.5604C2.83861 13.4442 2.90879 13.339 2.9968 13.2508C3.08483 13.1625 3.18895 13.0929 3.30323 13.0459C3.41751 12.9989 3.5397 12.9755 3.66281 12.9771ZM3.66281 7.98981H9.45299C9.57598 7.98849 9.69802 8.01202 9.81213 8.05908C9.92625 8.10613 10.0302 8.17578 10.1181 8.26404C10.206 8.35229 10.276 8.45742 10.3243 8.57345C10.3725 8.68948 10.398 8.81411 10.3993 8.94023C10.398 9.06636 10.3725 9.19098 10.3243 9.30701C10.276 9.42303 10.206 9.52817 10.1181 9.61644C10.0302 9.70469 9.92625 9.77432 9.81213 9.82138C9.69802 9.86843 9.57598 9.89198 9.45299 9.89066H3.66281C3.13896 9.89066 2.71514 9.4646 2.71514 8.94023C2.71641 8.81398 2.74194 8.68924 2.79028 8.57312C2.83861 8.457 2.90879 8.35179 2.9968 8.26352C3.08483 8.17525 3.18895 8.10564 3.30323 8.05867C3.41751 8.01169 3.5397 7.98829 3.66281 7.98981Z" fill="#8F27CE"/>
</svg>
