<svg width="32" height="32" viewBox="0 0 32 32" fill="none" xmlns="http://www.w3.org/2000/svg">
<path fill-rule="evenodd" clip-rule="evenodd" d="M25.2798 4.09687C25.7167 4.28585 26 4.71982 26 5.20003V26.8C26 27.4627 25.4683 28 24.8125 28H23.625C22.9692 28 22.4375 27.4627 22.4375 26.8V23.2C22.4375 22.5373 22.9692 22 23.625 22V20.8H18.875C18.2221 20.8 17.6916 20.2673 17.6875 19.6075C17.6738 17.3825 17.7234 14.9916 18.5616 12.4337C19.4055 9.8582 21.017 7.20023 23.9928 4.33172C24.3367 4.00027 24.843 3.90788 25.2798 4.09687ZM23.625 18.4V8.23151C22.1698 10.012 21.3204 11.6494 20.8162 13.1881C20.2382 14.9519 20.0925 16.6445 20.0659 18.4H23.625ZM8.1875 5.20003C8.84334 5.20003 9.375 5.73729 9.375 6.40003V10C9.375 10.6365 9.62522 11.247 10.0706 11.6971C10.2187 11.8467 10.3843 11.9745 10.5625 12.0785V6.40003C10.5625 5.73729 11.0942 5.20003 11.75 5.20003C12.4058 5.20003 12.9375 5.73729 12.9375 6.40003V12.0785C13.1157 11.9745 13.2813 11.8467 13.4294 11.6971C13.8748 11.247 14.125 10.6365 14.125 10V6.40003C14.125 5.73729 14.6567 5.20003 15.3125 5.20003C15.9683 5.20003 16.5 5.73729 16.5 6.40003V10C16.5 11.2731 15.9996 12.494 15.1088 13.3941C14.5037 14.0056 13.7522 14.435 12.9375 14.6476V26.8C12.9375 27.4627 12.4058 28 11.75 28C11.0942 28 10.5625 27.4627 10.5625 26.8V14.6476C9.74784 14.435 8.99632 14.0056 8.39124 13.3941C7.50045 12.494 7 11.2731 7 10V6.40003C7 5.73729 7.53166 5.20003 8.1875 5.20003Z" fill="white"/>
</svg>
