<svg width="326" height="622" viewBox="0 0 326 622" fill="none" xmlns="http://www.w3.org/2000/svg">
<path d="M6.71244 149.805C5.94581 150.189 5.43489 150.93 5.31607 151.745L4.28569 158.692C4.14068 159.674 4.56096 160.647 5.33601 161.222C6.14862 161.805 7.19765 161.879 8.07126 161.432C8.10437 161.423 11.9509 159.556 15.9536 160.921C18.8272 161.912 21.1902 164.374 22.9916 168.25C27.7949 178.562 35.1216 177.897 40.4513 177.394C45.5072 176.929 47.8313 176.929 49.6112 181.718C51.5876 187.041 54.6999 190.512 58.8719 192.045C65.5298 194.513 72.2304 190.85 72.5105 190.703C73.2231 190.317 73.7053 189.601 73.8241 188.786L74.8545 181.839C74.9145 181.467 74.8874 181.1 74.7984 180.769C74.6961 180.384 74.5078 180.027 74.2479 179.725C73.988 179.424 73.6632 179.185 73.298 179.028C72.9329 178.87 72.5369 178.798 72.1401 178.816C71.7432 178.835 71.3558 178.943 71.0072 179.134C70.9575 179.147 66.0724 181.772 61.6949 180.135C59.0498 179.136 56.9828 176.718 55.5735 172.915C52.2977 164.133 45.7725 164.743 41.0114 165.183C35.9886 165.639 32.0289 166.024 28.7974 159.062C26.3697 153.842 22.9759 150.447 18.697 148.978C12.5322 146.894 6.94295 149.672 6.71244 149.805Z" fill="#FFCE4F"/>
<path d="M4.72026 467.808C4.07896 468.377 3.77743 469.226 3.87348 470.043L4.67631 477.021C4.79033 478.006 5.44801 478.837 6.34549 479.192C7.28125 479.545 8.31387 479.345 9.04187 478.687C9.07155 478.67 12.3038 475.871 16.5234 476.153C19.5556 476.367 22.4753 478.134 25.2185 481.411C32.5271 490.128 39.4321 487.59 44.45 485.725C49.2132 483.967 51.4581 483.365 54.4169 487.53C57.7037 492.161 61.6084 494.708 66.0349 495.109C73.1047 495.77 78.6287 490.497 78.8615 490.283C79.4497 489.725 79.7301 488.908 79.6341 488.091L78.8313 481.114C78.793 480.739 78.6719 480.392 78.5001 480.094C78.3016 479.749 78.0275 479.453 77.6984 479.229C77.3692 479.005 76.9938 478.859 76.6003 478.801C76.2069 478.744 75.8057 478.776 75.4271 478.897C75.0485 479.017 74.7024 479.222 74.4149 479.497C74.3704 479.522 70.3312 483.323 65.679 482.874C62.8654 482.593 60.2433 480.793 57.8977 477.485C52.4606 469.85 46.3156 472.128 41.8304 473.785C37.0969 475.525 33.3718 476.922 28.4486 471.034C24.7525 466.62 20.5955 464.218 16.0823 463.907C9.5882 463.49 4.90851 467.62 4.72026 467.808Z" fill="#FFCE4F"/>
<path d="M73.8748 109.034C71.7586 113.748 69.4416 113.575 64.3754 112.751C59.0396 111.855 51.7069 110.646 46.2044 120.739C44.1541 124.498 41.6116 126.82 38.68 127.623C34.5352 128.77 30.7635 126.571 30.7256 126.563C29.8735 126.052 28.8217 126.064 27.9763 126.579C27.1354 127.111 26.6543 128.051 26.7444 129.054L27.3219 136.148C27.3881 136.995 27.8637 137.769 28.5931 138.223C28.8217 138.342 34.2688 141.588 40.5867 139.877C44.9741 138.702 48.6024 135.494 51.4075 130.415C55.1109 123.617 59.0757 124.268 64.1085 125.101C68.8763 125.878 75.3893 126.964 79.2637 118.335C80.9411 114.586 83.1654 112.278 85.8999 111.473C90.418 110.118 95.1563 113.121 95.182 113.151C96.0309 113.716 97.1207 113.713 97.9706 113.215C98.8493 112.691 99.3426 111.729 99.248 110.709L98.6705 103.616C98.6633 103.455 98.6394 103.3 98.5989 103.148C98.4321 102.526 98.0318 101.966 97.484 101.59C97.204 101.412 90.7165 97.2191 83.8552 99.2378C79.5873 100.526 76.2286 103.805 73.8748 109.034ZM82.727 146.074C75.3038 144.061 70.1484 147.642 69.9207 147.793C69.3211 148.224 68.9103 148.893 68.8449 149.65L68.0563 156.316C67.9372 157.339 68.4258 158.362 69.3203 158.898C70.1981 159.438 71.3379 159.421 72.1986 158.83C72.3352 158.739 75.6595 156.532 80.5805 157.882C82.8222 158.507 83.9271 159.762 85.3238 161.371C86.9048 163.201 88.8758 165.485 92.6692 166.164C96.2021 166.804 99.1346 165.603 101.735 164.564C104.106 163.604 106.14 162.788 108.496 163.239C111.015 163.7 112.62 165.217 114.484 166.971C116.328 168.713 118.41 170.679 121.551 171.658C124.224 172.493 126.872 171.964 129.452 171.452C133.65 170.634 136.359 170.269 139.163 173.394C139.852 174.165 140.935 174.47 141.927 174.168C142.914 173.849 143.632 172.99 143.746 171.949L144.535 165.283C144.587 164.945 144.547 164.595 144.462 164.275C144.353 163.872 144.15 163.512 143.867 163.191C138.935 157.661 133.309 158.754 129.204 159.583C127.183 159.981 125.283 160.363 123.892 159.907C121.906 159.303 120.506 157.948 118.863 156.422C116.692 154.39 114.272 152.1 110.226 151.345C106.348 150.617 103.248 151.862 100.528 152.988C98.3193 153.886 96.3973 154.653 94.3658 154.278C92.4902 153.951 91.6134 153.014 90.0837 151.243C88.477 149.384 86.5227 147.095 82.727 146.074ZM73.8236 227.285C72.9572 224.452 71.9539 221.241 68.8062 218.569C65.7779 216.009 62.4917 215.555 59.5539 215.134C57.1752 214.798 55.1329 214.516 53.5401 213.176C51.9216 211.807 51.6692 210.198 51.3172 208.417C51.1825 207.714 51.0265 206.998 50.8417 206.309C50.4316 204.778 49.6427 202.501 47.4427 200.296C41.9918 194.833 35.719 195.378 35.4552 195.395C34.723 195.465 34.0431 195.863 33.5931 196.453L29.6202 201.844C29.0029 202.677 28.9366 203.83 29.4482 204.739C29.9599 205.648 30.9589 206.173 32.0049 206.073C32.0428 206.081 36.0947 205.789 39.7387 209.446C40.7594 210.453 41.345 211.504 41.7596 213.051C41.9174 213.64 42.0418 214.238 42.1662 214.835C42.2964 215.522 42.4389 216.187 42.6192 216.859C43.0699 218.542 43.8817 220.704 46.2067 222.641C48.9748 224.965 52.1095 225.387 54.8958 225.776C57.4215 226.127 59.5987 226.445 61.4471 228.005C63.3937 229.665 64.0496 231.779 64.8123 234.225C65.5659 236.637 66.4097 239.386 68.6684 241.81C70.5929 243.854 73.1537 244.737 75.6298 245.57C79.5612 246.896 82.011 247.899 83.0027 251.599L83.1212 252.108C83.3326 253.098 84.1278 253.93 85.1549 254.16C86.1607 254.377 87.218 253.986 87.8308 253.136L91.8037 247.745C92.2447 247.122 92.4102 246.338 92.2497 245.606C92.1988 245.349 92.1479 245.092 92.0803 244.84C90.2998 238.195 85.0858 236.419 81.2725 235.133C79.328 234.482 77.476 233.843 76.4751 232.777C75.06 231.299 74.4885 229.433 73.8236 227.285Z" fill="#8F27CE"/>
<path d="M112.304 297.318C110.188 302.032 107.871 301.859 102.805 301.035C97.4693 300.139 90.1366 298.931 84.6341 309.023C82.5838 312.782 80.0412 315.104 77.1097 315.907C72.9649 317.054 69.1932 314.855 69.1553 314.847C68.3032 314.337 67.2514 314.348 66.406 314.863C65.5651 315.395 65.084 316.335 65.1741 317.339L65.7516 324.432C65.8178 325.279 66.2934 326.053 67.0228 326.507C67.2514 326.626 72.6984 329.872 79.0164 328.161C83.4038 326.986 87.0321 323.778 89.8372 318.699C93.5406 311.901 97.5054 312.552 102.538 313.385C107.306 314.163 113.819 315.248 117.693 306.62C119.371 302.871 121.595 300.562 124.33 299.757C128.848 298.402 133.586 301.406 133.612 301.435C134.461 302.001 135.55 301.997 136.4 301.499C137.279 300.975 137.772 300.013 137.678 298.993L137.1 291.9C137.093 291.74 137.069 291.584 137.029 291.432C136.862 290.81 136.461 290.25 135.914 289.874C135.634 289.697 129.146 285.503 122.285 287.522C118.017 288.81 114.658 292.09 112.304 297.318ZM121.157 334.358C113.733 332.345 108.578 335.926 108.35 336.077C107.751 336.508 107.34 337.177 107.275 337.934L106.486 344.6C106.367 345.623 106.856 346.646 107.75 347.182C108.628 347.722 109.768 347.705 110.628 347.114C110.765 347.023 114.089 344.816 119.01 346.166C121.252 346.791 122.357 348.046 123.753 349.655C125.334 351.485 127.305 353.769 131.099 354.448C134.632 355.088 137.564 353.887 140.164 352.848C142.536 351.888 144.57 351.073 146.926 351.523C149.445 351.984 151.049 353.501 152.914 355.255C154.757 356.997 156.84 358.963 159.981 359.943C162.654 360.777 165.301 360.248 167.882 359.736C172.079 358.918 174.789 358.553 177.593 361.678C178.282 362.449 179.365 362.754 180.357 362.452C181.344 362.133 182.062 361.274 182.176 360.234L182.965 353.568C183.017 353.229 182.977 352.879 182.891 352.56C182.783 352.156 182.579 351.796 182.297 351.475C177.364 345.945 171.739 347.038 167.634 347.867C165.613 348.265 163.713 348.648 162.321 348.191C160.336 347.587 158.935 346.232 157.293 344.707C155.121 342.674 152.702 340.384 148.655 339.629C144.777 338.901 141.678 340.146 138.958 341.272C136.749 342.17 134.827 342.938 132.795 342.562C130.92 342.236 130.043 341.299 128.513 339.527C126.907 337.668 124.952 335.379 121.157 334.358ZM112.253 415.569C111.387 412.736 110.384 409.525 107.236 406.853C104.208 404.293 100.921 403.839 97.9836 403.419C95.6049 403.082 93.5625 402.8 91.9698 401.46C90.3513 400.091 90.0989 398.482 89.7469 396.701C89.6122 395.998 89.4562 395.282 89.2714 394.593C88.8612 393.062 88.0724 390.785 85.8724 388.58C80.4215 383.117 74.1486 383.662 73.8849 383.679C73.1527 383.749 72.4728 384.147 72.0228 384.737L68.0499 390.128C67.4326 390.961 67.3662 392.115 67.8779 393.023C68.3896 393.932 69.3886 394.457 70.4346 394.357C70.4725 394.365 74.5244 394.073 78.1684 397.73C79.1891 398.737 79.7746 399.788 80.1893 401.335C80.3471 401.924 80.4715 402.522 80.5959 403.12C80.7261 403.806 80.8685 404.471 81.0488 405.144C81.4996 406.826 82.3114 408.988 84.6364 410.925C87.4045 413.249 90.5392 413.671 93.3255 414.06C95.8512 414.411 98.0283 414.729 99.8768 416.289C101.823 417.949 102.479 420.063 103.242 422.509C103.996 424.922 104.839 427.67 107.098 430.094C109.023 432.139 111.583 433.021 114.059 433.854C117.991 435.18 120.441 436.183 121.432 439.884L121.551 440.393C121.762 441.382 122.558 442.214 123.585 442.444C124.59 442.661 125.648 442.27 126.26 441.42L130.233 436.029C130.674 435.406 130.84 434.622 130.679 433.89C130.628 433.633 130.578 433.376 130.51 433.124C128.73 426.48 123.515 424.703 119.702 423.417C117.758 422.767 115.906 422.127 114.905 421.061C113.49 419.583 112.918 417.717 112.253 415.569Z" fill="#8F27CE"/>
<path d="M282.183 52.7851C277.042 53.3094 276.033 51.2166 274.214 46.4171C272.322 41.3481 269.702 34.3936 258.211 34.6745C253.93 34.7782 250.648 33.7373 248.487 31.6003C245.421 28.5841 245.439 24.2184 245.427 24.1816C245.444 23.1883 244.908 22.283 244.039 21.8084C243.158 21.3461 242.103 21.3995 241.279 21.9793L235.425 26.026C234.724 26.5072 234.292 27.3061 234.264 28.1646C234.275 28.4221 234.187 34.7625 238.828 39.3785C242.039 42.5903 246.632 44.1285 252.433 44.0185C260.171 43.8268 261.59 47.5857 263.385 52.3607C265.096 56.8787 267.412 63.0618 276.822 62.1029C280.907 61.6811 284.019 62.453 286.083 64.4187C289.515 67.6541 289.284 73.2593 289.271 73.2961C289.206 74.3142 289.754 75.2562 290.61 75.7432C291.503 76.2422 292.582 76.1887 293.419 75.5965L299.273 71.5499C299.408 71.4635 299.531 71.3648 299.642 71.254C300.098 70.7984 300.382 70.1718 300.434 69.5094C300.448 69.1782 300.836 61.4631 295.657 56.5305C292.407 53.4783 287.888 52.2095 282.183 52.7851ZM254.531 78.9717C252.563 71.5362 246.884 68.862 246.639 68.7404C245.966 68.4367 245.181 68.4154 244.493 68.7371L238.326 71.3871C237.38 71.7957 236.739 72.7304 236.722 73.7728C236.693 74.803 237.278 75.7817 238.22 76.2315C238.367 76.3044 241.94 78.0799 243.232 83.0165C243.811 85.2705 243.277 86.8547 242.582 88.8687C241.788 91.1529 240.795 94.0021 242.104 97.6265C243.316 101.006 245.822 102.945 248.022 104.678C250.039 106.251 251.763 107.605 252.55 109.87C253.411 112.283 252.899 114.431 252.312 116.923C251.726 119.39 251.064 122.177 251.787 125.386C252.401 128.119 254.183 130.147 255.916 132.126C258.723 135.352 260.394 137.515 259.089 141.506C258.767 142.489 259.044 143.579 259.801 144.287C260.571 144.983 261.674 145.174 262.632 144.754L268.799 142.104C269.119 141.98 269.402 141.77 269.636 141.536C269.931 141.24 270.141 140.884 270.278 140.479C272.6 133.442 268.841 129.117 266.071 125.977C264.716 124.425 263.434 122.971 263.134 121.538C262.664 119.516 263.138 117.626 263.637 115.441C264.312 112.544 265.085 109.303 263.716 105.421C262.407 101.699 259.779 99.6375 257.444 97.8446C255.562 96.3809 253.936 95.1 253.245 93.1531C252.591 91.3654 252.964 90.1376 253.733 87.927C254.54 85.6059 255.545 82.769 254.531 78.9717ZM179.749 111.866C181.769 109.7 184.048 107.225 184.788 103.163C185.491 99.2606 184.241 96.1878 183.137 93.4332C182.238 91.2051 181.461 89.2953 181.826 87.2459C182.202 85.1596 183.47 84.1365 184.836 82.9413C185.377 82.473 185.919 81.9802 186.424 81.4753C187.544 80.3547 189.122 78.5332 189.931 75.5254C191.937 68.0734 188.328 62.9134 188.182 62.6933C187.756 62.0942 187.07 61.7046 186.335 61.6096L179.679 60.8648C178.65 60.7465 177.617 61.2658 177.086 62.1632C176.555 63.0606 176.6 64.1887 177.209 65.0445C177.221 65.0813 179.501 68.4441 178.155 73.4285C177.794 74.8157 177.176 75.8484 176.044 76.9813C175.613 77.4123 175.157 77.8189 174.702 78.2255C174.172 78.6814 173.668 79.1373 173.175 79.6298C171.944 80.8613 170.477 82.6455 169.962 85.6276C169.334 89.1865 170.536 92.1123 171.592 94.72C172.551 97.0827 173.364 99.1273 172.937 101.508C172.473 104.024 170.97 105.649 169.233 107.532C167.52 109.391 165.562 111.496 164.592 114.664C163.784 117.353 164.3 120.012 164.817 122.573C165.634 126.641 165.991 129.264 163.281 131.973L162.9 132.33C162.149 133.008 161.825 134.113 162.14 135.117C162.455 136.097 163.322 136.817 164.364 136.923L171.02 137.667C171.78 137.738 172.541 137.489 173.095 136.984C173.292 136.812 173.489 136.639 173.674 136.455C178.538 131.59 177.469 126.187 176.676 122.242C176.268 120.232 175.896 118.308 176.318 116.909C176.891 114.944 178.221 113.516 179.749 111.866Z" fill="#8F27CE"/>
<path d="M88.0102 198.131L80.6778 200.096C79.3546 200.45 78.5834 201.807 78.9334 203.113L80.8997 210.451C81.2497 211.757 82.5957 212.546 83.919 212.192L91.2513 210.227C92.5746 209.873 93.3499 208.532 92.9958 207.21L91.0294 199.872C90.6753 198.55 89.3179 197.781 88.0102 198.131Z" fill="#FFCE4F"/>
<path d="M214.429 84.4534L207.097 86.4181C205.773 86.7726 205.002 88.1291 205.352 89.4351L207.318 96.7736C207.668 98.0796 209.014 98.8687 210.338 98.5141L217.67 96.5494C218.993 96.1949 219.769 94.854 219.414 93.5324L217.448 86.1939C217.094 84.8724 215.737 84.103 214.429 84.4534Z" fill="#FFCE4F"/>
<path d="M195.803 124.365L188.471 126.33C187.148 126.685 186.377 128.041 186.727 129.347L188.693 136.686C189.043 137.992 190.389 138.781 191.712 138.426L199.045 136.462C200.368 136.107 201.143 134.766 200.789 133.445L198.823 126.106C198.469 124.785 197.111 124.015 195.803 124.365Z" fill="#FFCE4F"/>
<path d="M145.248 399.759L137.916 401.724C136.592 402.078 135.821 403.435 136.171 404.741L138.138 412.079C138.487 413.385 139.833 414.174 141.157 413.82L148.489 411.855C149.812 411.501 150.588 410.16 150.234 408.838L148.267 401.5C147.913 400.178 146.556 399.409 145.248 399.759Z" fill="#FFCE4F"/>
<path d="M50.7895 607.301L43.4571 609.266C42.1339 609.62 41.3627 610.977 41.7127 612.283L43.679 619.621C44.029 620.927 45.375 621.716 46.6983 621.362L54.0306 619.397C55.3539 619.043 56.1292 617.702 55.7751 616.38L53.8087 609.042C53.4546 607.72 52.0972 606.951 50.7895 607.301Z" fill="#FFCE4F"/>
<path d="M87.6049 442.141L80.2726 444.106C78.9493 444.46 78.1782 445.817 78.5281 447.123L80.4944 454.461C80.8444 455.767 82.1904 456.556 83.5137 456.202L90.846 454.237C92.1693 453.882 92.9446 452.541 92.5905 451.22L90.6242 443.881C90.2701 442.56 88.9126 441.79 87.6049 442.141Z" fill="#FFCE4F"/>
<path d="M35.5628 245.737L42.47 250.224C43.7145 251.033 45.265 250.618 45.9225 249.299L49.6764 241.955C49.9971 241.298 50.0673 240.537 49.8817 239.844C49.6914 239.134 49.266 238.505 48.6485 238.119L41.7206 233.618C40.476 232.809 38.9416 233.22 38.2681 234.543L34.5349 241.901C33.8615 243.223 34.323 244.946 35.5628 245.737Z" fill="#0595C3"/>
<path d="M54.8863 257.784C54.2459 257.46 53.501 257.385 52.7711 257.581C52.059 257.772 51.4332 258.213 51.041 258.815L46.524 265.741C45.7531 266.923 46.1895 268.552 47.4481 269.19L54.8188 272.914C55.4591 273.238 56.2262 273.324 56.9383 273.133C57.6681 272.937 58.2719 272.485 58.6641 271.883L63.1676 264.978C63.3604 264.684 63.4895 264.361 63.5474 264.029C63.6054 263.696 63.591 263.36 63.5051 263.039C63.4192 262.719 63.2635 262.42 63.047 262.161C62.8305 261.902 62.5574 261.687 62.2434 261.529L54.8863 257.784Z" fill="#FFCE4F"/>
<path d="M54.481 501.793C53.8407 501.468 53.0957 501.394 52.3658 501.59C51.6537 501.781 51.0279 502.222 50.6357 502.823L46.1187 509.75C45.3479 510.932 45.7843 512.56 47.0429 513.199L54.4135 516.922C55.0539 517.247 55.8209 517.333 56.533 517.142C57.2629 516.946 57.8666 516.494 58.2588 515.892L62.7623 508.987C62.9551 508.693 63.0842 508.37 63.1422 508.037C63.2001 507.705 63.1857 507.368 63.0998 507.048C63.0139 506.727 62.8583 506.429 62.6417 506.17C62.4252 505.911 62.1521 505.696 61.8382 505.538L54.481 501.793Z" fill="#FFCE4F"/>
<path d="M101.307 213.567C100.595 214.777 101.051 216.478 102.277 217.186L109.313 221.253C110.581 221.986 112.197 221.553 112.929 220.285L116.989 213.244C117.163 212.945 117.276 212.614 117.321 212.27C117.367 211.927 117.344 211.577 117.255 211.243C117.165 210.908 117.01 210.594 116.799 210.319C116.588 210.045 116.324 209.814 116.024 209.642L108.987 205.575C107.719 204.842 106.103 205.275 105.372 206.544L101.307 213.567ZM114.385 136.346C113.653 137.614 114.087 139.232 115.355 139.965L121.969 143.788C123.236 144.52 124.853 144.087 125.584 142.819L129.401 136.201C129.575 135.902 129.688 135.571 129.733 135.227C129.779 134.884 129.756 134.534 129.666 134.2C129.577 133.865 129.422 133.551 129.211 133.276C128.999 133.002 128.736 132.771 128.435 132.599L121.822 128.776C120.554 128.043 118.937 128.476 118.206 129.745L114.385 136.346ZM60.4519 75.0242C60.6258 74.7246 60.7388 74.3935 60.7845 74.0499C60.8301 73.7064 60.8074 73.3572 60.7177 73.0224C60.628 72.6876 60.473 72.3739 60.2618 72.0992C60.0505 71.8245 59.7871 71.5942 59.4867 71.4218L52.8683 67.5823C51.6049 66.8662 50.0054 67.2948 49.2693 68.5467L45.4574 75.1809C44.7258 76.4494 45.1593 78.0672 46.4226 78.7833L53.0365 82.606C54.3044 83.3388 55.9039 82.9102 56.6355 81.6417L60.4519 75.0242ZM100.894 81.5982C100.158 82.85 100.596 84.4844 101.864 85.2172L108.478 89.04C109.741 89.7561 111.357 89.323 112.093 88.0712L115.91 81.4536C116.259 80.8238 116.347 80.0853 116.172 79.4349C115.998 78.7844 115.574 78.2009 114.94 77.8346L108.326 74.0118C107.058 73.279 105.442 73.7121 104.71 74.9806L100.894 81.5982ZM113.093 179.843L105.245 181.946C103.846 182.321 103.004 183.779 103.38 185.18L105.489 193.052C105.869 194.47 107.322 195.296 108.722 194.921L116.57 192.818C117.986 192.439 118.815 191.001 118.435 189.583L116.326 181.711C115.95 180.31 114.492 179.468 113.093 179.843Z" fill="#0595C3"/>
<path d="M299.158 92.9782C300.142 93.9787 301.904 93.9787 302.905 92.9782L308.655 87.2341C309.691 86.1991 309.691 84.5259 308.655 83.4909L302.905 77.7468C302.661 77.5013 302.37 77.3064 302.05 77.1734C301.73 77.0405 301.387 76.972 301.04 76.972C300.694 76.972 300.351 77.0405 300.031 77.1734C299.71 77.3064 299.42 77.5013 299.176 77.7468L293.426 83.4909C292.39 84.5259 292.39 86.1991 293.426 87.2341L299.158 92.9782ZM227.953 60.3592C228.989 61.3942 230.664 61.3942 231.7 60.3592L237.104 54.9601C238.14 53.9251 238.14 52.2519 237.104 51.2169L231.7 45.8178C231.455 45.5722 231.165 45.3774 230.845 45.2444C230.525 45.1114 230.181 45.043 229.835 45.043C229.488 45.043 229.145 45.1114 228.825 45.2444C228.505 45.3774 228.215 45.5722 227.97 45.8178L222.566 51.2169C221.53 52.2519 221.53 53.9251 222.566 54.9601L227.953 60.3592ZM154.762 96.5834C154.517 96.3378 154.227 96.143 153.907 96.01C153.587 95.8771 153.244 95.8086 152.897 95.8086C152.55 95.8086 152.207 95.8771 151.887 96.01C151.567 96.143 151.277 96.3378 151.032 96.5834L145.611 101.983C144.592 103.018 144.592 104.673 145.611 105.708L151.032 111.108C152.068 112.143 153.743 112.143 154.762 111.108L160.166 105.708C161.202 104.673 161.202 103.018 160.166 101.983L154.762 96.5834ZM171.579 59.2207C172.598 60.2557 174.29 60.2557 175.326 59.2207L180.73 53.8216C181.749 52.7866 181.749 51.1134 180.73 50.0784L175.326 44.6793C174.808 44.1791 174.117 43.9031 173.444 43.9031C172.77 43.9031 172.097 44.1618 171.579 44.6793L166.175 50.0784C165.139 51.1134 165.139 52.7866 166.175 53.8216L171.579 59.2207ZM269.633 72.8652L269.633 80.9897C269.633 82.4387 270.825 83.6289 272.275 83.6289L280.425 83.6289C281.892 83.6289 283.066 82.4387 283.066 80.9897L283.066 72.8652C283.066 71.3989 281.892 70.226 280.425 70.226L272.275 70.226C270.825 70.226 269.633 71.4162 269.633 72.8652Z" fill="#0595C3"/>
<path d="M73.998 559.545C73.2863 560.754 73.7421 562.456 74.9677 563.164L82.0042 567.231C83.272 567.964 84.8882 567.531 85.6198 566.262L89.6801 559.222C89.854 558.922 89.967 558.591 90.0126 558.248C90.0583 557.904 90.0356 557.555 89.9459 557.22C89.8561 556.885 89.7012 556.572 89.4899 556.297C89.2787 556.022 89.0153 555.792 88.7148 555.619L81.6783 551.552C80.4105 550.82 78.7943 551.253 78.0627 552.521L73.998 559.545ZM87.0762 482.323C86.3446 483.592 86.7781 485.21 88.0459 485.942L94.6598 489.765C95.9276 490.498 97.5438 490.065 98.2754 488.796L102.092 482.179C102.266 481.879 102.379 481.548 102.424 481.205C102.47 480.861 102.447 480.512 102.358 480.177C102.268 479.842 102.113 479.529 101.902 479.254C101.69 478.979 101.427 478.749 101.127 478.576L94.5127 474.754C93.2449 474.021 91.6287 474.454 90.8971 475.722L87.0762 482.323ZM33.1431 421.002C33.317 420.702 33.43 420.371 33.4756 420.027C33.5212 419.684 33.4985 419.335 33.4088 419C33.3191 418.665 33.1642 418.351 32.9529 418.077C32.7416 417.802 32.4782 417.572 32.1778 417.399L25.5594 413.56C24.2961 412.844 22.6965 413.272 21.9605 414.524L18.1485 421.158C17.4169 422.427 17.8504 424.045 19.1138 424.761L25.7277 428.584C26.9955 429.316 28.5951 428.888 29.3266 427.619L33.1431 421.002ZM73.5852 427.576C72.8492 428.828 73.2871 430.462 74.555 431.195L81.1689 435.018C82.4322 435.734 84.0484 435.301 84.7845 434.049L88.6009 427.431C88.95 426.801 89.0379 426.063 88.8636 425.412C88.6893 424.762 88.2651 424.178 87.6312 423.812L81.0173 419.989C79.7494 419.257 78.1332 419.69 77.4017 420.958L73.5852 427.576ZM85.784 525.82L77.9363 527.923C76.5367 528.298 75.6954 529.757 76.0708 531.158L78.18 539.03C78.5599 540.447 80.0134 541.273 81.413 540.898L89.2608 538.796C90.677 538.416 91.5061 536.978 91.1263 535.561L89.017 527.689C88.6416 526.288 87.1836 525.445 85.784 525.82Z" fill="#0595C3"/>
<path d="M90.4172 135.379L92.3819 142.711C92.7544 144.101 94.1597 144.949 95.5339 144.581L102.696 142.662C104.054 142.298 104.863 140.857 104.491 139.467L102.526 132.134C102.153 130.744 100.732 129.901 99.3739 130.265L92.2122 132.184C90.838 132.552 90.0403 133.972 90.4172 135.379ZM129.587 207.39L131.68 215.202C132.053 216.593 133.474 217.436 134.832 217.072L142.446 215.032C143.804 214.668 144.614 213.227 144.241 211.836L142.148 204.024C141.771 202.617 140.354 201.791 138.996 202.155L131.382 204.195C130.008 204.563 129.21 205.983 129.587 207.39Z" fill="#FFCE4F"/>
<path d="M105.613 371.405L107.577 378.738C107.95 380.128 109.355 380.975 110.729 380.607L117.891 378.688C119.249 378.324 120.059 376.883 119.686 375.493L117.721 368.161C117.349 366.771 115.927 365.927 114.569 366.291L107.408 368.21C106.034 368.578 105.236 369.999 105.613 371.405ZM144.782 443.416L146.876 451.229C147.248 452.619 148.67 453.462 150.028 453.098L157.642 451.058C159 450.694 159.809 449.253 159.437 447.863L157.344 440.051C156.967 438.644 155.55 437.817 154.192 438.181L146.577 440.221C145.203 440.59 144.405 442.01 144.782 443.416Z" fill="#FFCE4F"/>
<path d="M112.824 236.859C112.118 238.06 112.534 239.612 113.75 240.315L120.517 244.212C121.109 244.568 121.78 244.645 122.436 244.47C123.091 244.294 123.646 243.871 123.969 243.287L127.865 236.533C128.032 236.245 128.14 235.928 128.184 235.598C128.227 235.269 128.206 234.934 128.12 234.612C128.034 234.291 127.885 233.99 127.682 233.727C127.48 233.463 127.227 233.242 126.939 233.077L120.188 229.175C118.972 228.472 117.421 228.888 116.735 230.1L112.824 236.859Z" fill="#0595C3"/>
<path d="M25.7974 273.116C25.8878 269.654 24.2268 266.321 22.7006 263.758C21.4932 261.718 20.4383 259.781 20.4926 257.85C20.518 255.946 21.3164 254.926 22.8091 253.165C24.3551 251.337 26.2826 249.065 26.7168 245.153C26.9474 243.015 26.8102 240.903 26.2775 238.915C26.1164 238.314 25.9353 237.771 25.7421 237.25C25.2731 236.033 23.9592 235.329 22.696 235.613L16.4347 237.041C15.7425 237.19 15.1444 237.691 14.7743 238.309C14.4042 238.927 14.3179 239.738 14.5014 240.423C14.8863 241.86 14.9989 243.28 14.8238 244.759C14.5668 247.066 13.4966 248.338 12.1225 249.941C10.5643 251.791 8.64126 254.079 8.54488 257.918C8.47066 261.107 9.98765 264.103 11.4882 266.637C12.7904 268.83 13.9067 270.931 13.8407 273.15C13.8021 274.539 13.4099 275.808 12.5446 277.311C12.1636 278.022 12.0952 278.9 12.4177 279.637C12.7281 280.396 13.3782 280.955 14.1688 281.173L19.762 282.718C20.8596 283.015 22.0158 282.598 22.652 281.64C24.104 279.46 25.6774 276.8 25.7974 273.116ZM87.8855 40.1943C87.7076 40.797 87.7907 41.2403 87.8538 41.7426C88.7139 47.152 88.1696 52.1858 86.3743 56.2835C80.7633 49.8732 72.9526 48.8507 68.7731 50.3824C68.6064 50.4271 68.3943 50.5018 68.1866 50.5933C62.1523 52.801 59.1903 57.6769 60.6227 63.0225C60.9763 64.3422 61.5856 65.6829 62.4684 67.1115C63.5753 68.9097 66.8046 74.0961 79.0656 73.9977C77.431 78.4284 74.0709 82.5515 69.3111 85.8501C68.8726 86.1466 68.5085 86.3874 68.2083 86.9334C67.5137 88.1401 67.9657 89.8273 69.1751 90.5417L76.1889 94.5887C77.3939 95.2864 78.907 94.9346 79.674 93.7981C79.4412 94.129 79.2515 94.2873 79.3136 94.2527C88.6024 87.8607 93.3173 78.8626 92.3999 69.44C99.5091 63.5783 102.584 54.1245 100.825 43.0295C100.814 42.8535 100.774 42.7031 100.729 42.5361C100.501 41.6841 99.8391 40.9483 98.9261 40.6737L91.1853 38.3791C89.7642 38.0079 88.3008 38.8118 87.8855 40.1943ZM76.1055 60.9508C77.0988 61.9917 77.9754 63.0638 78.6573 64.0091C77.5421 64.3795 76.1757 64.7456 74.7313 64.9536C72.9791 65.2798 70.5066 63.6506 70.0187 61.8298C69.8978 61.3787 69.9071 60.9465 70.0463 60.5332C70.3083 59.7111 70.9673 59.1048 71.7761 58.9239C73.0393 58.6391 74.571 59.3567 76.1055 60.9508Z" fill="#FFCE4F"/>
<path d="M41.7659 567.342C40.9572 563.975 38.4903 561.186 36.3527 559.105C34.6585 557.447 33.138 555.849 32.6909 553.97C32.2225 552.124 32.7297 550.932 33.7159 548.845C34.7359 546.679 36.01 543.986 35.4168 540.095C35.086 537.969 34.4069 535.965 33.3779 534.183C33.0666 533.644 32.7514 533.167 32.4298 532.713C31.6618 531.659 30.2104 531.319 29.064 531.921L23.3853 534.92C22.7555 535.243 22.3072 535.881 22.1098 536.575C21.9124 537.268 22.0389 538.073 22.3934 538.687C23.137 539.975 23.6134 541.318 23.8271 542.792C24.1759 545.087 23.4713 546.592 22.559 548.497C21.5327 550.687 20.2673 553.394 21.1679 557.128C21.9216 560.228 24.1622 562.728 26.2675 564.788C28.093 566.569 29.7149 568.309 30.2257 570.47C30.5479 571.822 30.4974 573.149 30.0507 574.825C29.8666 575.61 30.0277 576.476 30.53 577.104C31.0261 577.757 31.7989 578.129 32.619 578.135L38.4216 578.18C39.5585 578.182 40.5673 577.48 40.9338 576.39C41.7723 573.909 42.6037 570.932 41.7659 567.342ZM41.4539 326.288C41.4381 326.916 41.6331 327.323 41.8241 327.792C44.0549 332.794 44.832 337.797 44.1584 342.22C37.0795 337.48 29.2703 338.514 25.6296 341.076C25.4802 341.162 25.2947 341.289 25.1177 341.431C19.8604 345.125 18.2614 350.602 21.0284 355.394C21.7116 356.578 22.6471 357.715 23.8696 358.866C25.4042 360.317 29.8657 364.491 41.6835 361.222C41.2514 365.925 39.0729 370.777 35.329 375.195C34.9822 375.595 34.6929 375.922 34.5442 376.527C34.1855 377.873 35.0589 379.385 36.412 379.762L44.2342 381.856C45.5787 382.218 46.9492 381.487 47.3959 380.19C47.2567 380.57 47.1144 380.772 47.1655 380.723C54.4834 372.144 56.7088 362.233 53.3839 353.369C58.7337 345.867 59.2568 335.939 54.6867 325.677C54.6301 325.51 54.5523 325.376 54.4658 325.226C54.0248 324.462 53.1953 323.922 52.2424 323.893L44.1715 323.68C42.7028 323.69 41.4973 324.845 41.4539 326.288ZM35.4475 349.386C36.6763 350.134 37.8006 350.943 38.7039 351.68C37.7226 352.326 36.4975 353.033 35.1561 353.608C33.5481 354.377 30.7381 353.443 29.7956 351.81C29.5621 351.406 29.4592 350.986 29.4867 350.551C29.5269 349.689 30.0066 348.933 30.741 348.549C31.8875 347.947 33.5527 348.243 35.4475 349.386Z" fill="#FFCE4F"/>
</svg>
