<svg width="56" height="56" viewBox="0 0 56 56" fill="none" xmlns="http://www.w3.org/2000/svg">
<path opacity="0.5" d="M27.9994 4.66699C23.3845 4.66699 18.8732 6.03547 15.0361 8.59937C11.1989 11.1633 8.20821 14.8074 6.44217 19.071C4.67613 23.3347 4.21405 28.0262 5.11437 32.5524C6.01469 37.0787 8.23698 41.2363 11.5002 44.4995C14.7634 47.7627 18.921 49.985 23.4473 50.8853C27.9735 51.7856 32.665 51.3236 36.9286 49.5575C41.1922 47.7915 44.8364 44.8008 47.4003 40.9636C49.9642 37.1265 51.3327 32.6152 51.3327 28.0003C51.3327 24.9361 50.7292 21.902 49.5565 19.071C48.3839 16.2401 46.6652 13.6679 44.4985 11.5012C42.3318 9.33447 39.7596 7.61575 36.9286 6.44314C34.0977 5.27053 31.0635 4.66699 27.9994 4.66699ZM27.9994 46.667C24.3074 46.667 20.6984 45.5722 17.6287 43.5211C14.559 41.47 12.1664 38.5546 10.7536 35.1437C9.34077 31.7329 8.97111 27.9796 9.69137 24.3586C10.4116 20.7377 12.1895 17.4116 14.8 14.801C17.4106 12.1904 20.7367 10.4126 24.3577 9.69233C27.9787 8.97208 31.7319 9.34174 35.1428 10.7546C38.5537 12.1674 41.469 14.56 43.5201 17.6297C45.5712 20.6994 46.666 24.3084 46.666 28.0003C46.666 32.951 44.6994 37.699 41.1987 41.1996C37.698 44.7003 32.9501 46.667 27.9994 46.667Z" fill="#8F27CE"/>
<path d="M46.6667 28.0003H51.3333C51.3333 24.9361 50.7298 21.902 49.5572 19.071C48.3846 16.2401 46.6659 13.6679 44.4992 11.5012C42.3325 9.33447 39.7602 7.61575 36.9293 6.44314C34.0984 5.27053 31.0642 4.66699 28 4.66699V9.33366C32.9507 9.33366 37.6986 11.3003 41.1993 14.801C44.7 18.3017 46.6667 23.0496 46.6667 28.0003Z" fill="#8F27CE"/>
</svg>
