<svg width="67" height="80" viewBox="0 0 67 80" fill="none" xmlns="http://www.w3.org/2000/svg">
<g clip-path="url(#clip0_4107_40617)">
<path fill-rule="evenodd" clip-rule="evenodd" d="M46.5527 1.33083C48.4803 1.17467 50.2687 1.51437 51.918 2.34994C51.8429 2.38754 51.7556 2.39697 51.6562 2.37824C51.611 2.43868 51.5783 2.50473 51.5581 2.5764C51.5111 2.52258 51.4566 2.51315 51.3945 2.5481C51.4506 2.58711 51.4942 2.63429 51.5254 2.68964C51.5028 2.75733 51.47 2.75733 51.4272 2.68964C51.3869 2.74337 51.3977 2.79056 51.46 2.83118C51.4256 2.87038 51.382 2.89869 51.3291 2.91611C50.9203 2.70134 50.4841 2.55036 50.0205 2.46317C45.5668 1.50199 42.0664 2.6532 39.519 5.91681C38.8429 6.92692 38.3958 8.00265 38.1777 9.14399C38.188 9.06626 38.1771 8.99073 38.145 8.91752C38.0844 9.25813 38.0189 9.59783 37.9487 9.93663C37.9389 9.78835 37.8843 9.65621 37.7852 9.54031C38.0625 6.38928 39.7637 4.00191 42.8887 2.37824C44.0904 1.88223 45.3554 1.56141 46.6836 1.41575C46.6237 1.39999 46.5801 1.37168 46.5527 1.33083Z" fill="#909295"/>
<path fill-rule="evenodd" clip-rule="evenodd" d="M44.5244 0.820666C44.562 0.917158 44.7146 0.973775 44.9824 0.990517C47.9504 0.514479 50.6767 1.0146 53.1611 2.49087C53.6297 2.87561 54.0768 3.28137 54.5024 3.70814C54.6575 3.84111 54.6902 3.99209 54.6006 4.16108C54.0432 3.72587 53.4761 3.30124 52.8994 2.88719C52.5925 2.679 52.2654 2.49971 51.918 2.34933C50.2687 1.51377 48.4803 1.17406 46.5527 1.33022C44.662 1.43214 42.9173 1.91338 41.3184 2.77396C40.9773 3.04104 40.6284 3.29582 40.2715 3.53829C40.2229 3.62934 40.212 3.7237 40.2388 3.82137C39.7652 4.2827 39.3072 4.75451 38.8647 5.2368C38.6027 5.69806 38.3301 6.151 38.0469 6.59561C37.9924 6.539 37.9378 6.48238 37.8833 6.42576C37.7223 6.49682 37.646 6.61005 37.6543 6.76546C37.5256 6.75193 37.4056 6.77079 37.2944 6.82208C37.3131 6.94698 37.324 7.06967 37.3271 7.19009C37.2187 7.23114 37.186 7.29721 37.229 7.38825C37.2508 7.35049 37.2726 7.31278 37.2944 7.27502C37.3814 7.3313 37.4686 7.38791 37.5562 7.44487C37.7702 7.36408 37.8901 7.43015 37.916 7.64303C37.7921 7.70537 37.7485 7.78084 37.7852 7.8695C37.7016 7.87669 37.6253 7.84838 37.5562 7.78457C37.5234 7.80343 37.4907 7.82234 37.458 7.84119C37.5993 7.93138 37.6103 8.02576 37.4907 8.12428C37.4689 8.10542 37.4471 8.08651 37.4253 8.06766C37.3673 8.24929 37.2583 8.24929 37.0981 8.06766C37.0586 8.17982 36.9931 8.19873 36.9019 8.12428C36.8905 8.36314 36.8251 8.58961 36.7056 8.80368C36.6838 8.78483 36.6619 8.76592 36.6401 8.74706C36.587 9.13314 36.5324 9.51055 36.4766 9.87941C36.8551 6.06171 38.9706 3.22142 42.8232 1.35853C43.3695 1.12722 43.9366 0.947935 44.5244 0.820666Z" fill="#A4A6A9"/>
<path fill-rule="evenodd" clip-rule="evenodd" d="M46.5537 1.33008C46.581 1.37093 46.6246 1.39924 46.6845 1.415C45.3563 1.56066 44.0913 1.88148 42.8896 2.37749C39.7646 4.00116 38.0634 6.38853 37.7861 9.53956C37.8852 9.65546 37.9398 9.7876 37.9497 9.93588C38.0199 9.59708 38.0853 9.25738 38.1459 8.91677C38.178 8.98998 38.1889 9.06551 38.1787 9.14324C38.1231 9.7277 38.1122 10.3128 38.1459 10.8984C38.2861 12.9699 39.4093 14.4796 41.5156 15.4277C41.3343 16.0001 41.2035 16.5663 41.123 17.1263C40.0838 16.7465 39.2005 16.1803 38.4731 15.4277C36.9859 13.7839 36.3208 11.9344 36.4775 9.87926C36.5334 9.5104 36.5879 9.13299 36.6411 8.74692C36.6628 8.76577 36.6847 8.78468 36.7065 8.80354C36.826 8.58947 36.8915 8.363 36.9028 8.12413C36.9941 8.19858 37.0595 8.17967 37.0991 8.06752C37.2592 8.24914 37.3682 8.24914 37.4262 8.06752C37.448 8.08637 37.4699 8.10528 37.4916 8.12413C37.6112 8.02562 37.6003 7.93124 37.4589 7.84105C37.4916 7.82219 37.5244 7.80328 37.5571 7.78443C37.6262 7.84824 37.7025 7.87655 37.7861 7.86936C37.7494 7.78069 37.793 7.70522 37.9169 7.64289C37.891 7.43001 37.7711 7.36393 37.5571 7.44473C37.4695 7.38777 37.3823 7.33115 37.2954 7.27488C37.2736 7.31264 37.2517 7.35035 37.2299 7.38811C37.1869 7.29707 37.2196 7.231 37.3281 7.18995C37.3249 7.06953 37.314 6.94684 37.2954 6.82194C37.4065 6.77064 37.5265 6.75179 37.6552 6.76532C37.6469 6.60991 37.7233 6.49667 37.8842 6.42562C37.9387 6.48224 37.9933 6.53885 38.0478 6.59547C38.331 6.15086 38.6036 5.69792 38.8657 5.23666C39.3081 4.75437 39.7661 4.28256 40.2397 3.82123C40.2129 3.72356 40.2239 3.6292 40.2724 3.53815C40.6293 3.29568 40.9783 3.0409 41.3193 2.77381C42.9182 1.91324 44.6629 1.43199 46.5537 1.33008Z" fill="#9C9FA2"/>
<path fill-rule="evenodd" clip-rule="evenodd" d="M47.7969 10.3897C47.6247 10.3982 47.4502 10.3699 47.2734 10.3047C46.8712 10.4932 46.4787 10.6913 46.0957 10.8992C46.1727 10.8125 46.26 10.7275 46.3574 10.6444C46.2711 10.6334 46.1838 10.6428 46.0957 10.6727C46.166 10.5943 46.2532 10.5283 46.3574 10.4746C46.681 10.3723 46.9863 10.2402 47.2734 10.0783C47.358 10.0505 47.4453 10.0411 47.5352 10.05C47.9843 9.93128 48.4423 9.84636 48.9092 9.79518C48.7499 9.73839 48.7716 9.71008 48.9746 9.71025C49.2054 9.70465 49.4236 9.78012 49.6289 9.93672C49.7011 9.87269 49.6794 9.82547 49.5635 9.79518C49.9093 9.81318 50.2473 9.82258 50.5776 9.82349C50.6213 9.67249 50.6649 9.67249 50.7085 9.82349C50.8645 9.70804 51.0063 9.70804 51.1338 9.82349C51.3045 9.76183 51.4681 9.78074 51.6245 9.8801C51.6816 9.8668 51.7362 9.84789 51.7881 9.82349C51.953 9.89624 52.1275 9.934 52.3115 9.93672C52.2808 10.0979 52.3353 10.2299 52.4751 10.333C52.4969 10.3142 52.5187 10.2953 52.5405 10.2764C52.5782 10.425 52.6655 10.4627 52.8022 10.3897C52.8487 10.4731 52.925 10.5108 53.0313 10.5029C52.9951 10.6066 52.9951 10.7009 53.0313 10.786C52.956 11.0766 52.8034 11.3314 52.5732 11.5503C51.9798 11.687 51.38 11.7908 50.7739 11.8617C50.6057 11.8195 50.4421 11.8006 50.2832 11.8051C50.0785 11.9797 49.8495 12.0741 49.5962 12.0882C49.5744 12.0504 49.5526 12.0127 49.5308 11.9749C49.4057 11.9611 49.2749 11.9611 49.1382 11.9749C48.6375 11.5735 48.5175 11.1111 48.7783 10.5878C48.747 10.4468 48.7143 10.3053 48.6802 10.1632C48.5894 10.1035 48.4912 10.0941 48.3857 10.1349C48.1877 10.2205 47.9914 10.3055 47.7969 10.3897Z" fill="#F4C859"/>
<path fill-rule="evenodd" clip-rule="evenodd" d="M56.499 8.35082C56.3829 8.13081 56.3284 7.88543 56.3355 7.6148C56.106 8.26799 55.9097 8.92849 55.7466 9.5964C55.0481 11.7394 53.7286 13.5418 51.7881 15.0033C51.2556 15.3502 50.6886 15.6522 50.0869 15.9092C48.9442 16.3397 47.7773 16.7265 46.5864 17.0699C46.575 16.814 46.5423 16.5686 46.4883 16.3338C46.4751 16.1951 46.4969 16.063 46.5537 15.9375C48.6858 15.7134 50.4742 14.9207 51.9189 13.5596C52.1597 13.3511 52.3779 13.1246 52.5732 12.8802C53.3416 12.1173 53.9087 11.2492 54.2744 10.2758C54.632 9.16356 54.7301 8.03122 54.5688 6.87878C53.9418 4.71554 52.426 3.2435 50.0215 2.46264C50.4851 2.54983 50.9213 2.70081 51.3301 2.91558C51.3829 2.89816 51.4266 2.86985 51.4609 2.83065C51.3987 2.79003 51.3879 2.74284 51.4282 2.68911C51.471 2.7568 51.5037 2.7568 51.5264 2.68911C51.4952 2.63376 51.4516 2.58658 51.3955 2.54757C51.4576 2.51262 51.5121 2.52205 51.5591 2.57587C51.5793 2.5042 51.612 2.43815 51.6572 2.37771C51.7566 2.39644 51.8438 2.38701 51.9189 2.34941C52.2664 2.49979 52.5935 2.67908 52.9004 2.88727C53.4771 3.30132 54.0442 3.72595 54.6016 4.16115C54.6912 3.99217 54.6585 3.84119 54.5034 3.70822C54.0778 3.28144 53.6307 2.87569 53.1621 2.49095C50.6777 1.01467 47.9514 0.514557 44.9834 0.990595C44.7156 0.973854 44.5629 0.917236 44.5254 0.820744C47.5056 0.107446 50.3191 0.437712 52.9658 1.81154C55.5156 3.43887 56.6934 5.61863 56.499 8.35082Z" fill="#9B9EA1"/>
<path fill-rule="evenodd" clip-rule="evenodd" d="M56.499 8.35126C56.4074 9.30582 56.1676 10.2305 55.7793 11.1255C55.3194 11.9778 54.7742 12.7892 54.1436 13.56C53.8183 13.821 53.5566 14.123 53.3584 14.4659C51.8735 15.7225 50.1287 16.6189 48.124 17.1552C47.5788 17.2542 47.0336 17.3391 46.4883 17.41C46.4883 17.0514 46.4883 16.6928 46.4883 16.3343C46.5423 16.5691 46.575 16.8144 46.5864 17.0703C47.7773 16.727 48.9442 16.3401 50.0869 15.9096C50.6886 15.6526 51.2556 15.3506 51.7881 15.0038C53.7286 13.5422 55.0481 11.7398 55.7466 9.59683C55.9097 8.92892 56.106 8.26843 56.3355 7.61523C56.3284 7.88586 56.3829 8.13124 56.499 8.35126Z" fill="#87898D"/>
<path fill-rule="evenodd" clip-rule="evenodd" d="M45.1133 22.1658C44.8538 22.2102 44.5921 22.2574 44.3281 22.3074C44.2845 22.3451 44.2409 22.3829 44.1973 22.4206C44.2764 22.4794 44.3419 22.5455 44.3936 22.6188C42.8939 21.5441 41.9342 20.1759 41.5146 18.514C41.5445 18.4906 41.5664 18.4623 41.5801 18.4291C41.5211 18.0351 41.4774 17.6388 41.4492 17.2401C41.569 16.6755 41.678 16.1093 41.7764 15.5416C41.9188 14.5408 42.3768 13.6726 43.1504 12.9372C43.405 12.7455 43.6558 12.5379 43.9028 12.3145C41.4123 15.8567 41.8158 19.1405 45.1133 22.1658Z" fill="#DEA12B"/>
<path fill-rule="evenodd" clip-rule="evenodd" d="M47.796 10.3896C45.6698 11.4093 44.2848 12.9379 43.6412 14.9756C43.2868 16.4777 43.4612 17.9308 44.1646 19.3351C44.4348 19.8503 44.7293 20.3504 45.0479 20.8355C44.9322 21.0199 44.7686 21.067 44.5572 20.977C43.5072 20.0656 42.8747 18.9711 42.6597 17.6932C42.2636 15.5044 42.9287 13.5983 44.6553 11.9749C45.1769 11.6556 45.6567 11.297 46.0948 10.8992C46.4778 10.6913 46.8703 10.4931 47.2725 10.3047C47.4493 10.3699 47.6238 10.3982 47.796 10.3896Z" fill="#F5CB62"/>
<path fill-rule="evenodd" clip-rule="evenodd" d="M41.5156 15.4277C41.6028 15.4655 41.6901 15.5032 41.7773 15.541C41.679 16.1087 41.5699 16.6748 41.4502 17.2395C41.3257 17.2227 41.2166 17.185 41.123 17.1262C41.2035 16.5662 41.3344 16.0001 41.5156 15.4277Z" fill="#7A7F86"/>
<path fill-rule="evenodd" clip-rule="evenodd" d="M35.4297 37.6792C35.2831 37.8007 35.1086 37.8856 34.9063 37.9339C34.1306 38.1337 33.3454 38.1714 32.5508 38.0472C31.9583 37.8174 31.5766 37.4306 31.4058 36.8865C30.792 34.4762 30.2031 32.0605 29.6392 29.6395C29.1023 27.2465 27.7391 25.2933 25.5498 23.7797C23.0817 22.0742 20.2682 21.3759 17.1094 21.6848C13.5669 22.3548 11.0915 24.1382 9.68315 27.0351C9.30385 27.8855 9.05306 28.7631 8.93071 29.6678C8.93601 29.7768 8.9578 29.8805 8.99614 29.9792C8.89956 30.7353 8.91043 31.4902 9.02885 32.2439C9.97549 36.2926 10.9679 40.3313 12.0059 44.36C11.9001 44.3904 11.791 44.4093 11.6788 44.4166C11.1206 44.5164 10.5972 44.6957 10.1084 44.9545C9.15657 45.5827 8.19698 46.196 7.22954 46.7945C6.11788 42.2774 5.0601 37.7481 4.0562 33.2064C3.41715 29.4137 4.39859 25.9789 7.00053 22.9021C9.72391 20.0204 13.2462 18.4445 17.5674 18.1746C23.2551 17.9416 27.737 19.8193 31.0132 23.808C31.7606 24.8373 32.3712 25.932 32.8453 27.0918C33.5817 29.9331 34.3123 32.7735 35.0372 35.6126C35.0072 35.6361 34.9854 35.6644 34.9717 35.6976C35.1664 36.3514 35.3192 37.0119 35.4297 37.6792Z" fill="#74777E"/>
<path fill-rule="evenodd" clip-rule="evenodd" d="M17.2411 18.8252C17.4181 18.8294 17.5926 18.8483 17.7645 18.8818C17.7824 18.9923 17.7388 19.0772 17.6336 19.1366C15.8388 19.3836 14.1812 19.9309 12.661 20.7785C8.88811 22.9723 6.76165 26.0391 6.28159 29.9788C6.2541 31.3204 6.27592 32.6603 6.34702 33.9986C6.31302 34.5124 6.0622 34.6257 5.59458 34.3383C5.431 33.942 5.26743 33.5456 5.10385 33.1493C4.29079 28.2279 6.0901 24.1987 10.5018 21.0616C12.5222 19.8101 14.7686 19.0647 17.2411 18.8252Z" fill="#84888E"/>
<path fill-rule="evenodd" clip-rule="evenodd" d="M35.4307 37.6787C35.5475 38.2974 35.2858 38.7598 34.6455 39.0658C33.7184 39.231 32.7916 39.3914 31.8647 39.547C31.089 39.4994 30.6092 39.1408 30.4253 38.4713C29.839 35.4884 29.1411 32.5254 28.3315 29.5824C27.3463 26.5977 25.2198 24.4745 21.9521 23.213C19.0539 22.3943 16.2622 22.6019 13.5771 23.8358C10.9707 25.2796 9.44402 27.3273 8.99707 29.9787C8.95873 29.8801 8.93694 29.7763 8.93164 29.6673C9.05399 28.7626 9.30479 27.885 9.68408 27.0347C11.0924 24.1377 13.5678 22.3543 17.1104 21.6843C20.2692 21.3754 23.0826 22.0737 25.5508 23.7792C27.7401 25.2928 29.1032 27.2461 29.6401 29.639C30.2041 32.06 30.7929 34.4757 31.4067 36.886C31.5776 37.4301 31.9592 37.8169 32.5518 38.0467C33.3463 38.1709 34.1315 38.1332 34.9072 37.9335C35.1095 37.8851 35.284 37.8002 35.4307 37.6787Z" fill="#454C54"/>
<path fill-rule="evenodd" clip-rule="evenodd" d="M45.1133 22.166C45.5046 22.4274 45.6136 22.7671 45.4404 23.1851C45.4001 23.1788 45.3673 23.16 45.3423 23.1285C45.165 23.2909 44.9578 23.3286 44.7207 23.2417C44.9454 23.2134 44.9454 23.1568 44.7207 23.0719C44.616 22.9233 44.5069 22.7724 44.3936 22.619C44.3419 22.5457 44.2764 22.4796 44.1973 22.4208C44.2409 22.383 44.2845 22.3453 44.3281 22.3076C44.5921 22.2576 44.8538 22.2104 45.1133 22.166Z" fill="#CE870C"/>
<path fill-rule="evenodd" clip-rule="evenodd" d="M44.7207 23.0713C44.9454 23.1562 44.9454 23.2128 44.7207 23.2411C44.9578 23.328 45.165 23.2903 45.3423 23.1279C45.3673 23.1594 45.4001 23.1782 45.4404 23.1845C43.085 28.4589 40.6968 33.7243 38.2759 38.9807C37.8808 39.8286 37.4555 40.659 37 41.4719C36.8817 41.5181 36.7836 41.4803 36.7056 41.3586C36.635 41.4659 36.5477 41.4847 36.4438 41.4152C36.3929 41.5623 36.3602 41.5623 36.3457 41.4152C39.0492 35.5204 41.7209 29.6133 44.3608 23.6941C44.5162 23.5008 44.6361 23.2932 44.7207 23.0713Z" fill="#DA9C22"/>
<path fill-rule="evenodd" clip-rule="evenodd" d="M59.1155 40.793C58.806 40.9123 58.4788 41.0067 58.134 41.0761C57.7817 41.0977 57.4327 41.0505 57.0871 40.9345C56.6658 40.5688 56.4259 40.1253 56.3674 39.604C55.3616 39.6255 54.3583 39.5972 53.3577 39.5191C52.3264 39.1344 51.9883 38.5021 52.3435 37.6224C52.9555 37.1775 53.5553 36.7245 54.1428 36.2636C54.2667 36.2326 54.3757 36.176 54.47 36.0938C54.5754 36.1537 54.6299 36.2292 54.6335 36.3202C54.0392 36.7211 53.5376 37.1929 53.1287 37.7356C53.09 38.1076 53.1991 38.4473 53.4558 38.7548C53.6039 38.9208 53.7894 39.0435 54.012 39.1228C55.1025 39.1416 56.1929 39.1605 57.2834 39.1794C57.4733 39.58 57.6587 39.9857 57.8396 40.3967C57.8941 40.4438 57.9487 40.491 58.0032 40.5382C58.4017 40.5559 58.7725 40.6408 59.1155 40.793Z" fill="#DCA029"/>
<path fill-rule="evenodd" clip-rule="evenodd" d="M36.2813 41.6982C35.5223 42.9783 34.857 44.2994 34.2856 45.6614C33.7001 46.5998 33.2203 47.5812 32.8462 48.6055C32.7169 48.6646 32.6842 48.7401 32.748 48.832C32.6759 48.8703 32.6105 48.908 32.5518 48.9452C32.5081 48.9452 32.4863 48.9641 32.4863 49.0019C32.1448 48.9187 31.7958 48.8809 31.4395 48.8886C32.5042 46.6432 33.562 44.3974 34.6128 42.1512C35.0329 42.0912 35.4582 42.044 35.8887 42.0096C35.6936 41.9814 35.4973 41.972 35.2998 41.9813C35.5273 41.9347 35.7672 41.9064 36.0195 41.8964C36.0984 41.8185 36.1856 41.7525 36.2813 41.6982Z" fill="#DB9F26"/>
<path fill-rule="evenodd" clip-rule="evenodd" d="M37 41.4716C36.826 41.8485 36.6515 42.2259 36.4766 42.604C35.2927 44.5775 34.2132 46.5968 33.2378 48.662C33.2479 48.5312 33.2479 48.3991 33.2378 48.2657C33.1287 48.4922 33.0197 48.7186 32.9106 48.9451C32.799 48.9812 32.679 48.9812 32.5508 48.9451C32.6095 48.9078 32.675 48.8701 32.7471 48.8319C32.6832 48.74 32.7159 48.6644 32.8452 48.6054C33.2193 47.5811 33.6991 46.5997 34.2847 45.6613C34.8561 44.2993 35.5213 42.9782 36.2803 41.6981C36.2617 41.5897 36.2835 41.4954 36.3457 41.415C36.3602 41.5621 36.3929 41.5621 36.4438 41.415C36.5477 41.4845 36.635 41.4656 36.7056 41.3584C36.7836 41.4801 36.8817 41.5179 37 41.4716Z" fill="#D08D12"/>
<path fill-rule="evenodd" clip-rule="evenodd" d="M54.2744 10.2759C53.9086 11.2493 53.3415 12.1175 52.5732 12.8803C51.7957 12.4522 50.9451 12.3107 50.0215 12.4557C48.9854 12.5595 48.1457 12.9653 47.5024 13.673C47.3274 13.8998 47.1529 14.1262 46.979 14.3524C46.8993 14.5876 46.8012 14.8141 46.6845 15.0318C46.6966 15.0931 46.7184 15.1498 46.75 15.2016C46.6926 15.4498 46.6272 15.6952 46.5537 15.9377C46.4968 16.0632 46.475 16.1953 46.4882 16.334C46.4882 16.6925 46.4882 17.0511 46.4882 17.4097C46.5622 18.1419 46.8566 18.8025 47.3715 19.3913C47.7286 19.7399 48.1103 20.0702 48.5166 20.3821C48.7876 20.5656 49.093 20.6694 49.4326 20.6935C49.36 20.7382 49.2728 20.7665 49.1709 20.7784C49.3011 20.8776 49.4537 20.9342 49.6289 20.9483C50.2093 20.982 50.7873 21.0292 51.3628 21.0898C52.6965 20.9835 53.8742 20.4551 54.896 19.5045C56.0089 18.0436 56.1398 16.515 55.2885 14.9185C55.0364 14.3721 54.6548 13.9192 54.1435 13.5597C54.7741 12.7889 55.3194 11.9775 55.7793 11.1252C57.6668 12.3327 58.7682 13.9558 59.0835 15.9943C59.3679 18.5604 58.3865 20.6741 56.1391 22.3354C56.1282 22.4392 56.1173 22.543 56.1064 22.6468C56.3622 23.6402 56.6349 24.631 56.9243 25.6192C58.3826 30.0592 59.8548 34.4943 61.3408 38.9242C61.2616 39.499 60.9781 39.9802 60.4902 40.3679C60.0324 40.5094 59.5744 40.6509 59.1162 40.7926C58.7732 40.6404 58.4024 40.5555 58.0039 40.5378C57.9494 40.4906 57.8948 40.4434 57.8403 40.3963C57.6594 39.9853 57.474 39.5796 57.2841 39.179C56.1936 39.1601 55.1032 39.1412 54.0127 39.1224C53.7901 39.0431 53.6046 38.9204 53.4565 38.7544C53.1998 38.4469 53.0907 38.1072 53.1294 37.7353C53.5383 37.1925 54.0399 36.7207 54.6342 36.3198C54.6306 36.2288 54.5761 36.1533 54.4707 36.0934C54.3764 36.1756 54.2674 36.2322 54.1435 36.2632C54.5077 35.9331 54.5731 35.5556 54.3398 35.1309C54.4181 35.1739 54.4726 35.2683 54.5034 35.4139C54.5252 35.6216 54.547 35.8291 54.5688 36.0367C54.656 36.0745 54.7215 36.1311 54.7651 36.2066C55.5503 35.7153 55.6593 35.1302 55.0923 34.4515C54.8364 34.2415 54.542 34.0811 54.209 33.9702C53.511 33.706 52.8131 33.4418 52.1152 33.1776C51.3777 32.7673 51.2795 32.2672 51.8208 31.6772C52.4116 31.1471 53.0223 30.6375 53.6528 30.1486C53.7731 30.0049 53.8276 29.8445 53.8164 29.6673C53.1563 27.8451 52.4911 26.0239 51.8208 24.2038C51.7689 24.0856 51.6926 23.9818 51.5918 23.8924C50.8483 23.7196 50.1067 23.7196 49.3672 23.8924C49.209 24.0211 49.1436 24.1627 49.1709 24.317C49.0952 24.4097 49.0188 24.5041 48.9419 24.6001C47.5415 27.7969 46.1239 30.9863 44.6889 34.1684C44.6453 34.3571 44.6453 34.5458 44.6889 34.7345C45.3486 35.1096 46.0138 35.4776 46.6845 35.8386C47.0468 36.2153 47.145 36.6399 46.979 37.1125C46.8032 37.3796 46.5959 37.6249 46.3574 37.8485C46.3073 37.8245 46.2528 37.8056 46.1938 37.7919C45.9738 37.8805 45.7448 37.9465 45.5068 37.99C45.0706 38.0089 44.6344 38.0278 44.1982 38.0466C44.0174 38.0768 43.8429 38.124 43.6748 38.1882C43.6168 38.2349 43.595 38.2915 43.6093 38.358C43.347 38.7662 43.129 39.1908 42.955 39.6319C43.005 39.7491 43.0377 39.8718 43.0532 39.9999C43.6036 40.3468 44.1817 40.6582 44.7871 40.9341C44.9552 41.0511 45.0861 41.1927 45.1797 41.3587C46.6786 41.2561 47.6927 41.8034 48.2221 43.0006C49.4359 48.3197 50.6354 53.6417 51.8208 58.9667C52.188 62.7346 51.2284 66.2261 48.9419 69.4408C47.902 70.8132 46.6915 72.0679 45.3105 73.2059C44.73 73.6424 44.1411 74.067 43.5439 74.4798C43.519 74.4441 43.4973 74.4062 43.4785 74.3665C40.673 76.1251 37.4015 77.1159 33.664 77.3389C25.8419 77.8366 19.6152 75.3738 14.9839 69.9504C13.6675 68.3136 12.6642 66.5398 11.9741 64.6284C10.8731 59.393 9.84808 54.1467 8.89889 48.8888C8.66583 47.6456 8.99298 46.5322 9.88034 45.5484C10.4115 45.078 11.0331 44.7289 11.7451 44.501C11.7087 44.4793 11.6869 44.451 11.6797 44.4161C11.7919 44.4088 11.901 44.3899 12.0068 44.3595C19.7801 43.5452 27.5444 42.7525 35.2998 41.9815C35.4972 41.9722 35.6935 41.9817 35.8886 42.0098C35.4582 42.0442 35.0329 42.0914 34.6128 42.1514C33.562 44.3976 32.5042 46.6434 31.4394 48.8888C29.8146 49.1242 28.7241 49.9169 28.1679 51.2667C28.1243 51.3988 28.0807 51.531 28.0371 51.6631C27.7257 53.4013 28.2928 54.9017 29.7382 56.1641C29.9574 56.3343 30.1973 56.4758 30.458 56.5888C30.7304 56.7014 30.9375 56.8713 31.0796 57.0983C31.1692 57.4516 31.2019 57.81 31.1777 58.174C30.995 60.3646 30.7987 62.5636 30.5888 64.7699C30.5761 65.1521 30.6961 65.5014 30.9487 65.8174C31.2929 66.0217 31.6745 66.1157 32.0937 66.1004C33.346 65.9476 34.5891 65.7964 35.8232 65.6475C36.1295 65.6379 36.4348 65.6192 36.7392 65.5909C37.3553 65.5314 37.9442 65.3899 38.5058 65.1663C38.8431 64.8639 38.9193 64.5146 38.7348 64.1188C37.7058 61.7873 36.7026 59.4474 35.7251 57.0983C35.6471 56.6782 35.7235 56.2818 35.9541 55.9094C37.2605 54.8432 37.7294 53.541 37.3608 52.0028C37.1548 51.4188 36.8168 50.9092 36.3466 50.4741C36.8888 49.5548 37.4122 48.63 37.917 47.6999C38.5088 47.6613 38.9668 47.4348 39.291 47.0205C39.7284 46.2253 40.1319 45.4138 40.5014 44.5859C40.3532 44.9452 40.495 45.1622 40.9267 45.237C41.8862 45.5328 42.6387 45.3158 43.184 44.5859C43.3916 44.3401 43.5661 44.0759 43.7075 43.7933C44.5265 43.413 45.0063 42.828 45.1469 42.0382C44.9629 42.3943 44.7449 42.734 44.4926 43.0573C44.323 43.2295 44.1158 43.3522 43.8711 43.4253C43.5221 43.463 43.1731 43.463 42.8242 43.4253C42.3767 43.2577 41.9187 43.1162 41.4502 43.0006C41.3193 43.029 41.1884 43.0573 41.0576 43.0856C40.498 44.2522 39.8764 45.394 39.1928 46.5109C39.1465 46.5608 39.0919 46.5985 39.0293 46.6241C38.5642 46.7141 38.1062 46.6857 37.6552 46.5392C36.9979 46.2551 36.3654 45.9437 35.7578 45.605C35.7578 45.5673 35.7578 45.5296 35.7578 45.4918C36.1039 44.9309 36.4528 44.3647 36.8047 43.7933C36.9622 43.7393 37.104 43.6638 37.2299 43.5668C38.6873 40.5942 40.1049 37.6124 41.4829 34.6213C43.1242 30.8699 44.8035 27.1332 46.521 23.4111C46.5535 23.2233 46.5645 23.0346 46.5537 22.8449C46.1926 22.7938 45.9418 22.9071 45.8012 23.1846C43.0544 29.5063 40.1755 35.7908 37.1645 42.0382C36.9451 42.4562 36.6943 42.8525 36.4121 43.2271C36.44 43.0643 36.4837 42.9039 36.5429 42.7459C36.527 42.6948 36.5052 42.6476 36.4775 42.6043C36.6524 42.2263 36.8269 41.8488 37.0009 41.472C37.4565 40.6591 37.8818 39.8287 38.2768 38.9808C40.6978 33.7244 43.086 28.459 45.4414 23.1846C45.6146 22.7666 45.5056 22.4269 45.1142 22.1655C41.8168 19.1402 41.4133 15.8564 43.9038 12.3142C43.6567 12.5376 43.4059 12.7452 43.1513 12.9369C43.9734 12.0175 44.9548 11.2626 46.0957 10.6723C46.1838 10.6424 46.2711 10.6329 46.3574 10.6439C46.26 10.7271 46.1727 10.812 46.0957 10.8987C45.6576 11.2965 45.1778 11.6551 44.6562 11.9745C42.9296 13.5978 42.2644 15.504 42.6606 17.6928C42.8755 18.9706 43.5081 20.0652 44.5581 20.9766C44.7695 21.0666 44.933 21.0194 45.0488 20.835C44.7301 20.35 44.4357 19.8499 44.1655 19.3347C43.4621 17.9304 43.2876 16.4772 43.6421 14.9752C44.2857 12.9375 45.6706 11.4088 47.7968 10.3892C47.9914 10.305 48.1876 10.2201 48.3857 10.1344C48.4912 10.0936 48.5893 10.103 48.6801 10.1627C48.7143 10.3048 48.747 10.4464 48.7783 10.5873C48.5175 11.1106 48.6374 11.573 49.1381 11.9745C49.2748 11.9606 49.4057 11.9606 49.5307 11.9745C49.5525 12.0122 49.5744 12.0499 49.5962 12.0877C49.8495 12.0736 50.0785 11.9793 50.2832 11.8046C50.4421 11.8001 50.6057 11.819 50.7739 11.8612C51.38 11.7903 51.9798 11.6865 52.5732 11.5498C52.8033 11.3309 52.956 11.0762 53.0312 10.7855C52.9951 10.7004 52.9951 10.6061 53.0312 10.5024C52.925 10.5103 52.8487 10.4726 52.8022 10.3892C52.6655 10.4623 52.5782 10.4245 52.5405 10.2759C52.5187 10.2948 52.4968 10.3137 52.4751 10.3326C52.3352 10.2295 52.2807 10.0974 52.3115 9.93623C52.1274 9.93352 51.953 9.89575 51.7881 9.823C51.7362 9.8474 51.6816 9.86631 51.6245 9.87962C51.468 9.78025 51.3045 9.76134 51.1338 9.823C51.0063 9.70756 50.8645 9.70756 50.7085 9.823C50.6648 9.672 50.6212 9.672 50.5776 9.823C50.2472 9.82209 49.9092 9.8127 49.5634 9.79469C49.6793 9.82498 49.7011 9.8722 49.6289 9.93623C49.4236 9.77963 49.2054 9.70416 48.9746 9.70977C48.7716 9.7096 48.7498 9.7379 48.9091 9.79469C48.4422 9.84587 47.9842 9.9308 47.5351 10.0495C47.7103 9.9385 47.9066 9.85357 48.124 9.79469C50.2541 9.26702 52.3042 9.42747 54.2744 10.2759Z" fill="#F3C249"/>
<path fill-rule="evenodd" clip-rule="evenodd" d="M46.3578 37.8486C46.2079 37.9927 46.0443 38.087 45.8671 38.1317C45.8453 38.1128 45.8234 38.0939 45.8016 38.0751C45.1441 38.1727 44.479 38.2387 43.806 38.2732C43.7388 38.3023 43.6734 38.3306 43.6097 38.3582C43.5954 38.2916 43.6172 38.235 43.6752 38.1883C43.8433 38.1241 44.0178 38.0769 44.1986 38.0468C44.6348 38.0279 45.071 38.009 45.5072 37.9902C45.7452 37.9467 45.9742 37.8807 46.1942 37.792C46.2532 37.8058 46.3077 37.8247 46.3578 37.8486Z" fill="#DB9B23"/>
<path fill-rule="evenodd" clip-rule="evenodd" d="M55.9097 35.4141C55.9808 35.4209 56.0244 35.4586 56.0406 35.5273C56.0055 35.6656 55.951 35.7976 55.877 35.9236C55.1381 36.6953 54.3747 37.4502 53.587 38.1883C53.5503 37.8492 53.6594 37.5472 53.9141 37.2824C54.503 36.7729 55.0919 36.2633 55.6807 35.7538C55.7719 35.6469 55.8482 35.5336 55.9097 35.4141Z" fill="#F8D170"/>
<path fill-rule="evenodd" clip-rule="evenodd" d="M35.7568 45.4918C35.6253 45.4399 35.5598 45.3456 35.5606 45.2087C35.6601 44.9203 35.7691 44.6372 35.8877 44.3595C36.0753 43.9856 36.2497 43.6081 36.4111 43.2271C36.6933 42.8525 36.9441 42.4562 37.1636 42.0382C40.1745 35.7908 43.0534 29.5063 45.8003 23.1846C45.9408 22.907 46.1916 22.7938 46.5527 22.8449C46.5635 23.0346 46.5526 23.2233 46.52 23.4111C44.8026 27.1332 43.1232 30.8699 41.4819 34.6213C40.104 37.6124 38.6863 40.5942 37.229 43.5668C37.1031 43.6638 36.9613 43.7393 36.8037 43.7933C36.4519 44.3647 36.103 44.9309 35.7568 45.4918Z" fill="#F8D070"/>
<path fill-rule="evenodd" clip-rule="evenodd" d="M54.339 35.1308C54.2551 34.9967 54.146 34.874 54.0119 34.7628C53.0659 34.3629 52.128 33.9477 51.1984 33.5172C50.6067 33.094 50.4431 32.575 50.7077 31.9602C51.3838 31.4129 52.0599 30.8657 52.736 30.3183C52.7796 30.1673 52.7796 30.0164 52.736 29.8654C52.1269 28.1235 51.4834 26.3872 50.8058 24.6566C50.6842 24.5608 50.5533 24.4759 50.4132 24.4018C50.0009 24.298 49.5865 24.2697 49.1701 24.3169C49.1428 24.1626 49.2082 24.021 49.3664 23.8923C50.1059 23.7195 50.8475 23.7195 51.591 23.8923C51.6918 23.9817 51.7682 24.0855 51.82 24.2037C52.4903 26.0238 53.1555 27.845 53.8156 29.6672C53.8268 29.8444 53.7723 30.0048 53.652 30.1485C53.0215 30.6374 52.4108 31.147 51.82 31.6771C51.2788 32.2672 51.3769 32.7673 52.1144 33.1775C52.8124 33.4417 53.5102 33.7059 54.2082 33.9701C54.5412 34.081 54.8356 34.2415 55.0915 34.4514C55.6586 35.1302 55.5495 35.7153 54.7643 36.2065C54.7207 36.131 54.6553 36.0744 54.568 36.0367C54.5462 35.8291 54.5244 35.6215 54.5026 35.4139C54.4719 35.2683 54.4173 35.1739 54.339 35.1308Z" fill="#DEA12A"/>
<path fill-rule="evenodd" clip-rule="evenodd" d="M52.834 24.374C52.9884 24.4993 53.1084 24.6503 53.1939 24.827C53.8064 26.4074 54.3844 27.9927 54.9278 29.5828C54.8441 29.8409 54.7242 30.0862 54.5679 30.3188C53.693 31.0288 52.8315 31.7459 51.9834 32.4703C51.8969 32.277 51.9078 32.0883 52.0161 31.9041C52.5378 31.4149 53.083 30.9431 53.6519 30.4887C53.7802 30.3209 53.9328 30.17 54.1099 30.0357C54.1703 29.9489 54.203 29.8545 54.208 29.7527C53.5759 28.0929 52.9434 26.4321 52.3106 24.7703C52.3681 24.5125 52.5426 24.3804 52.834 24.374Z" fill="#F6CC62"/>
<path fill-rule="evenodd" clip-rule="evenodd" d="M54.1426 13.5596C54.6538 13.919 55.0355 14.372 55.2876 14.9184C56.1388 16.5148 56.008 18.0435 54.895 19.5044C53.8733 20.4549 52.6955 20.9833 51.3618 21.0896C50.7864 21.029 50.2084 20.9818 49.6279 20.9481C49.4528 20.934 49.3001 20.8774 49.1699 20.7783C49.2719 20.7664 49.3591 20.7381 49.4316 20.6933C50.8644 20.9456 52.1729 20.7096 53.3574 19.9856C54.5751 18.9612 54.9786 17.7251 54.5679 16.2772C54.3492 15.5776 53.9457 14.9736 53.3574 14.4654C53.5556 14.1225 53.8173 13.8205 54.1426 13.5596Z" fill="#DDA12B"/>
<path fill-rule="evenodd" clip-rule="evenodd" d="M52.5723 12.88C52.3769 13.1245 52.1588 13.3509 51.918 13.5595C49.5922 12.688 47.8692 13.2353 46.749 15.2014C46.7175 15.1495 46.6957 15.0929 46.6836 15.0315C46.8003 14.8138 46.8984 14.5873 46.978 14.3521C47.1519 14.126 47.3264 13.8995 47.5015 13.6727C48.1448 12.965 48.9844 12.5592 50.0205 12.4554C50.9442 12.3104 51.7948 12.452 52.5723 12.88Z" fill="#DEA12A"/>
<path fill-rule="evenodd" clip-rule="evenodd" d="M39.291 47.0204C39.2555 47.017 39.2337 46.9981 39.2256 46.9638C39.4051 46.8393 39.3942 46.7261 39.1929 46.6241C39.1289 46.6962 39.0744 46.6962 39.0293 46.6241C39.092 46.5984 39.1465 46.5607 39.1929 46.5108C39.8765 45.3939 40.4981 44.2521 41.0576 43.0855C41.1885 43.0572 41.3193 43.0289 41.4502 43.0006C41.9187 43.1161 42.3767 43.2577 42.8242 43.4252C43.1732 43.463 43.5222 43.463 43.8711 43.4252C44.1158 43.3522 44.323 43.2295 44.4927 43.0572C44.7449 42.7339 44.963 42.3942 45.147 42.0381C45.0064 42.8279 44.5265 43.4129 43.7075 43.7932C43.5661 44.0758 43.3916 44.3401 43.1841 44.5859C42.6387 45.3158 41.8863 45.5328 40.9268 45.237C40.495 45.1622 40.3533 44.9451 40.5015 44.5859C40.1319 45.4137 39.7284 46.2252 39.291 47.0204Z" fill="#DEA22A"/>
<path fill-rule="evenodd" clip-rule="evenodd" d="M11.6787 44.416C11.686 44.4509 11.7078 44.4793 11.7441 44.5009C11.0321 44.7288 10.4106 45.078 9.87939 45.5484C8.99204 46.5321 8.66489 47.6456 8.89795 48.8888C9.84714 54.1466 10.8722 59.3929 11.9731 64.6283C12.6633 66.5397 13.6665 68.3135 14.9829 69.9503C19.6143 75.3737 25.841 77.8365 33.6631 77.3389C37.4006 77.1158 40.672 76.125 43.4775 74.3665C43.4963 74.4061 43.5181 74.444 43.543 74.4797C40.0707 77.0767 36.0795 78.8036 31.5693 79.6602C23.2047 80.9091 16.3018 78.7294 10.8608 73.1209C8.51761 70.4803 6.96915 67.5175 6.21533 64.232C5.50505 60.2643 4.76351 56.301 3.99072 52.3424C3.91871 51.7194 3.84238 51.0966 3.76172 50.474C3.76331 49.4804 4.22132 48.6972 5.13574 48.1244C5.86398 47.7106 6.56191 47.267 7.22949 46.7939C8.19694 46.1954 9.15653 45.5821 10.1084 44.9539C10.5972 44.6951 11.1206 44.5158 11.6787 44.416Z" fill="#E1A531"/>
<path fill-rule="evenodd" clip-rule="evenodd" d="M35.8877 44.3594C35.7691 44.6371 35.6601 44.9202 35.5605 45.2086C35.5598 45.3455 35.6253 45.4398 35.7568 45.4917C35.7568 45.5295 35.7568 45.5672 35.7568 45.605C35.0727 46.7627 34.4293 47.9517 33.8267 49.1718C33.5607 49.4458 33.3426 49.7477 33.1724 50.0777C32.8733 50.8272 32.4589 51.5255 31.9292 52.1725C31.9183 52.1442 31.9074 52.1159 31.8965 52.0876C32.2392 51.5794 32.5554 51.0604 32.8452 50.5306C32.9201 50.2712 32.9637 50.007 32.9761 49.738C33.7262 48.2255 34.4895 46.7157 35.2661 45.2086C35.4749 44.9219 35.6821 44.6388 35.8877 44.3594Z" fill="#F2C45E"/>
<path fill-rule="evenodd" clip-rule="evenodd" d="M36.478 42.6045C36.5057 42.6478 36.5276 42.695 36.5435 42.746C36.4842 42.9041 36.4405 43.0644 36.4126 43.2273C36.2512 43.6083 36.0767 43.9858 35.8892 44.3596C35.6836 44.6391 35.4764 44.9222 35.2676 45.2089C34.491 46.7159 33.7276 48.2257 32.9775 49.7382C32.9652 50.0072 32.9216 50.2714 32.8467 50.5309C32.5569 51.0607 32.2407 51.5796 31.8979 52.0879C31.9089 52.1162 31.9197 52.1445 31.9307 52.1728C32.4604 51.5257 32.8747 50.8274 33.1738 50.078C33.3441 49.748 33.5622 49.446 33.8281 49.1721C34.4308 47.9519 35.0742 46.763 35.7583 45.6052C36.3659 45.9439 36.9984 46.2553 37.6558 46.5394C38.1067 46.6859 38.5647 46.7142 39.0298 46.6243C39.0749 46.6964 39.1294 46.6964 39.1934 46.6243C39.3947 46.7263 39.4055 46.8396 39.2261 46.964C39.2342 46.9984 39.256 47.0172 39.2915 47.0206C38.9673 47.435 38.5093 47.6614 37.9175 47.7C37.328 47.5985 36.7501 47.4664 36.1836 47.3037C35.8794 47.3205 35.6613 47.4526 35.5293 47.7C35.4916 47.5938 35.5025 47.4899 35.562 47.3886C35.5547 47.2911 35.522 47.2817 35.4639 47.3603C35.3387 47.5852 35.3387 47.8116 35.4639 48.0397C35.8848 48.3573 36.3319 48.6404 36.8052 48.889C36.8792 48.9781 36.8901 49.0725 36.8379 49.1721C35.911 50.8848 34.8751 52.5362 33.73 54.1261C33.2303 54.3799 32.7286 54.3799 32.2251 54.1261C31.9875 53.9772 31.7694 53.8073 31.5708 53.6165C31.2744 53.5471 31.0127 53.5942 30.7856 53.7581C30.7404 53.7283 30.7077 53.6906 30.6875 53.6448C30.7285 53.4769 30.7939 53.3071 30.8838 53.1353C31.5627 52.0901 32.217 51.0332 32.8467 49.9647C32.9033 49.8291 32.8706 49.7913 32.7485 49.8515C32.6989 49.7773 32.6335 49.749 32.5522 49.7666C32.4322 49.9914 32.3014 50.1707 32.1597 50.3044C32.2033 50.1912 32.2469 50.078 32.2905 49.9647C32.4703 49.6797 32.6448 49.3871 32.814 49.0872C32.7142 49.03 32.6051 49.0017 32.4868 49.0022C32.4868 48.9645 32.5086 48.9456 32.5522 48.9456C32.6805 48.9817 32.8004 48.9817 32.9121 48.9456C33.0212 48.7191 33.1302 48.4927 33.2393 48.2662C33.2494 48.3996 33.2494 48.5317 33.2393 48.6625C34.2146 46.5973 35.2942 44.578 36.478 42.6045Z" fill="#E5A92A"/>
<path fill-rule="evenodd" clip-rule="evenodd" d="M31.4395 48.8887C31.7958 48.881 32.1448 48.9187 32.4863 49.0019C32.6046 49.0014 32.7137 49.0297 32.8135 49.0868C32.6443 49.3868 32.4698 49.6793 32.29 49.9644C31.8348 49.9055 31.3768 49.8677 30.916 49.8512C30.175 49.8418 29.5207 50.04 28.9531 50.4456C28.6756 50.7136 28.4139 50.9872 28.168 51.2666C28.7241 49.9167 29.8146 49.1241 31.4395 48.8887Z" fill="#855200"/>
<path fill-rule="evenodd" clip-rule="evenodd" d="M32.2896 49.9641C32.2459 50.0774 32.2024 50.1906 32.1587 50.3038C31.9448 50.6175 31.7485 50.9383 31.5699 51.2663C31.5496 51.1962 31.5169 51.1962 31.4717 51.2663C31.4063 51.3796 31.3409 51.4928 31.2754 51.606C30.3974 51.3267 29.4923 51.2324 28.5601 51.3229C28.4575 51.4192 28.3376 51.4947 28.2002 51.5494C28.1438 51.6393 28.1002 51.7336 28.0694 51.8325C28.0378 51.7788 28.0269 51.7222 28.0367 51.6626C28.0803 51.5306 28.1239 51.3984 28.1675 51.2663C28.4134 50.9869 28.6751 50.7133 28.9527 50.4454C29.5202 50.0397 30.1745 49.8416 30.9156 49.8509C31.3764 49.8674 31.8344 49.9052 32.2896 49.9641Z" fill="#141418"/>
<path fill-rule="evenodd" clip-rule="evenodd" d="M31.5691 51.2664C31.1394 51.9911 30.6923 52.7082 30.2278 53.4179C29.9351 53.868 29.6951 54.3398 29.5081 54.8333C29.3369 55.594 29.6532 56.1413 30.4568 56.4752C30.4568 56.513 30.4568 56.5507 30.4568 56.5884C30.1961 56.4755 29.9562 56.334 29.7371 56.1638C28.2916 54.9014 27.7245 53.401 28.0359 51.6628C28.0262 51.7223 28.037 51.7789 28.0686 51.8326C28.0994 51.7338 28.1431 51.6394 28.1995 51.5495C28.3368 51.4948 28.4567 51.4193 28.5593 51.3231C29.4916 51.2325 30.3967 51.3268 31.2747 51.6061C31.3401 51.4929 31.4055 51.3797 31.471 51.2664C31.5161 51.1963 31.5488 51.1963 31.5691 51.2664Z" fill="#222229"/>
<path fill-rule="evenodd" clip-rule="evenodd" d="M17.1101 69.9506C16.9216 69.8764 16.7253 69.8102 16.5213 69.7525C16.7885 69.6449 16.7776 69.56 16.4886 69.4977C16.4718 69.2933 16.3628 69.2367 16.1614 69.3278C16.0996 69.3046 16.0559 69.2672 16.0305 69.2146C15.9644 69.2621 15.888 69.2808 15.8015 69.2712C15.8015 69.1959 15.8015 69.12 15.8015 69.0447C15.9198 69.0453 16.0289 69.017 16.1287 68.9598C16.0042 68.9485 15.9061 68.9015 15.8343 68.8183C15.8125 68.8749 15.7906 68.9315 15.7688 68.9881C15.7384 68.9072 15.6838 68.8409 15.6053 68.79C15.6489 68.7713 15.6925 68.752 15.7361 68.7333C15.722 68.5895 15.6348 68.4672 15.4744 68.3653C15.518 68.3466 15.5616 68.3274 15.6053 68.3087C15.4953 68.2368 15.419 68.1423 15.3762 68.0256C15.3545 68.0443 15.3326 68.0636 15.3108 68.0822C15.1317 67.9605 14.9354 67.8665 14.722 67.7992C14.7798 67.9922 14.6816 68.1055 14.4275 68.1389C13.5703 66.9573 12.9269 65.6924 12.4973 64.3455C11.3591 59.3417 10.334 54.3216 9.42215 49.2854C9.04671 47.9361 9.33022 46.7094 10.2727 45.6052C10.5604 45.2961 10.9202 45.1168 11.3523 45.0674C10.7478 45.4812 10.388 46.0191 10.2727 46.681C10.2291 47.1717 10.2291 47.6623 10.2727 48.153C10.4481 49.5166 10.6662 50.8754 10.927 52.2295C11.7113 55.8635 12.4528 59.5059 13.1516 63.1566C13.6076 64.8704 14.3709 66.4743 15.4417 67.969C15.9884 68.6394 16.5446 69.3001 17.1101 69.9506Z" fill="#F6CE6B"/>
<path fill-rule="evenodd" clip-rule="evenodd" d="M37.9157 47.7C37.411 48.6301 36.8875 49.5549 36.3454 50.4743C36.8155 50.9094 37.1535 51.4189 37.3595 52.0029C37.7281 53.5412 37.2592 54.8434 35.9528 55.9095C35.9103 55.8923 35.8666 55.8734 35.8219 55.8529C35.6966 55.9213 35.5767 55.9968 35.4621 56.0794C35.4116 56.0712 35.3679 56.0523 35.3312 56.0227C35.2208 56.1102 35.0899 56.1668 34.9386 56.1926C34.9125 56.1797 34.9017 56.1608 34.9059 56.136C35.7178 55.5137 36.1104 54.7305 36.0837 53.7864C36.0782 53.1354 35.9038 52.5221 35.5602 51.9463C35.5166 51.8708 35.473 51.8708 35.4294 51.9463C35.3016 52.1484 35.1926 52.356 35.1022 52.5691C34.4388 53.6036 33.7737 54.6415 33.1066 55.683C32.4708 56.5365 31.5875 56.8007 30.4567 56.4757C29.6531 56.1418 29.3368 55.5944 29.508 54.8338C29.695 54.3403 29.935 53.8685 30.2277 53.4184C30.6922 52.7087 31.1393 51.9916 31.569 51.2669C31.7476 50.9389 31.9439 50.6181 32.1579 50.3044C32.2996 50.1707 32.4305 49.9914 32.5504 49.7666C32.6317 49.7489 32.6971 49.7773 32.7467 49.8515C32.8688 49.7913 32.9015 49.8291 32.8449 49.9647C32.2152 51.0332 31.5609 52.0901 30.882 53.1353C30.7921 53.307 30.7267 53.4769 30.6857 53.6448C30.7059 53.6906 30.7386 53.7283 30.7838 53.7581C31.0109 53.5942 31.2726 53.547 31.569 53.6165C31.7676 53.8073 31.9857 53.9772 32.2233 54.1261C32.7268 54.3799 33.2285 54.3799 33.7282 54.1261C34.8733 52.5362 35.9092 50.8848 36.8361 49.1721C36.8883 49.0725 36.8774 48.9781 36.8034 48.889C36.3301 48.6404 35.883 48.3573 35.4621 48.0397C35.3369 47.8116 35.3369 47.5852 35.4621 47.3603C35.5202 47.2817 35.553 47.2911 35.5602 47.3886C35.5007 47.4899 35.4898 47.5938 35.5275 47.7C35.6595 47.4526 35.8776 47.3205 36.1818 47.3037C36.7483 47.4664 37.3262 47.5985 37.9157 47.7Z" fill="#D69011"/>
<path fill-rule="evenodd" clip-rule="evenodd" d="M35.1025 52.5693C35.0754 52.6966 35.0317 52.8192 34.9717 52.9373C35.023 53.0387 35.023 53.1331 34.9717 53.2204C35.0153 53.2393 35.0589 53.2582 35.1025 53.277C34.8408 53.4469 34.8408 53.6168 35.1025 53.7866C34.9454 53.8322 34.9564 53.8793 35.1353 53.9281C35.1858 54.2341 35.164 54.5361 35.0698 54.834C34.9076 55.0847 34.7331 55.3301 34.5464 55.57C34.0688 55.9077 33.6108 56.2663 33.1724 56.6458C33.0353 56.9798 32.9371 56.9419 32.8779 56.5325C32.7914 56.5422 32.7151 56.5233 32.6489 56.4759C32.3188 56.6605 32.0244 56.8773 31.7656 57.127C31.5925 57.1553 31.418 57.1644 31.2422 57.1553C31.2422 57.4005 31.2422 57.6462 31.2422 57.8913C31.253 58.081 31.2421 58.2695 31.2095 58.4575C31.1772 58.3652 31.1663 58.2707 31.1768 58.1744C31.201 57.8104 31.1683 57.452 31.0786 57.0987C30.9366 56.8717 30.7294 56.7018 30.457 56.5892C30.457 56.5514 30.457 56.5137 30.457 56.4759C31.5879 56.8009 32.4712 56.5367 33.1069 55.6833C33.774 54.6417 34.4391 53.6038 35.1025 52.5693Z" fill="#18181C"/>
<path fill-rule="evenodd" clip-rule="evenodd" d="M34.9063 56.1359C34.3142 56.3684 34.1071 56.7649 34.2847 57.3249C35.3007 59.7549 36.304 62.1894 37.2944 64.6285C37.3625 65.0678 37.1771 65.3889 36.7383 65.591C36.4339 65.6193 36.1285 65.638 35.8223 65.6476C35.735 65.6476 35.6478 65.6476 35.5605 65.6476C35.351 64.847 35.1002 64.0544 34.8081 63.2697C34.209 61.7053 33.6201 60.1388 33.0415 58.5705C32.9761 58.0054 32.9216 57.4392 32.8779 56.8719C32.5635 57.4421 32.04 57.7252 31.3076 57.7212C31.3231 57.7942 31.3013 57.8509 31.2422 57.8911C31.2422 57.6459 31.2422 57.4002 31.2422 57.155C31.418 57.1641 31.5925 57.155 31.7656 57.1267C32.0244 56.877 32.3188 56.6602 32.6489 56.4756C32.7151 56.523 32.7914 56.5419 32.8779 56.5322C32.9371 56.9416 33.0353 56.9795 33.1724 56.6455C33.6108 56.266 34.0688 55.9074 34.5464 55.5697C34.7331 55.3298 34.9076 55.0844 35.0698 54.8337C35.164 54.5358 35.1858 54.2338 35.1353 53.9279C34.9564 53.879 34.9454 53.8319 35.1025 53.7863C34.8408 53.6165 34.8408 53.4466 35.1025 53.2768C35.0589 53.2579 35.0153 53.239 34.9717 53.2201C35.023 53.1328 35.023 53.0384 34.9717 52.9371C35.0317 52.8189 35.0754 52.6963 35.1025 52.569C35.1929 52.3559 35.3019 52.1483 35.4297 51.9463C35.4733 51.8708 35.5169 51.8708 35.5605 51.9463C35.9041 52.522 36.0786 53.1354 36.084 53.7863C36.1107 54.7304 35.7182 55.5136 34.9063 56.1359Z" fill="#222229"/>
<path fill-rule="evenodd" clip-rule="evenodd" d="M35.9545 55.9092C35.724 56.2816 35.6476 56.678 35.7255 57.0981C36.7031 59.4472 37.7063 61.7871 38.7353 64.1186C38.9198 64.5144 38.8435 64.8637 38.5063 65.1661C37.9446 65.3897 37.3558 65.5312 36.7397 65.5907C37.1785 65.3886 37.364 65.0675 37.2958 64.6282C36.3054 62.1891 35.3021 59.7546 34.2861 57.3246C34.1085 56.7646 34.3157 56.3682 34.9077 56.1356C34.9034 56.1604 34.9143 56.1793 34.9404 56.1922C35.0917 56.1665 35.2225 56.1099 35.333 56.0224C35.3697 56.0519 35.4133 56.0708 35.4638 56.079C35.5784 55.9965 35.6984 55.921 35.8237 55.8525C35.8684 55.8731 35.912 55.8919 35.9545 55.9092Z" fill="#D6951B"/>
<path fill-rule="evenodd" clip-rule="evenodd" d="M35.8232 65.6477C34.5891 65.7966 33.3459 65.9478 32.0937 66.1007C31.6745 66.116 31.2928 66.022 30.9487 65.8176C30.696 65.5017 30.5761 65.1523 30.5888 64.7702C30.7986 62.5638 30.9949 60.3648 31.1777 58.1743C31.1672 58.2705 31.1781 58.3651 31.2104 58.4574C31.243 58.2694 31.2539 58.0808 31.2431 57.8912C31.3022 57.851 31.324 57.7944 31.3085 57.7213C32.0409 57.7253 32.5644 57.4422 32.8788 56.8721C32.9225 57.4394 32.9771 58.0055 33.0424 58.5706C33.621 60.1389 34.2099 61.7055 34.809 63.2698C35.1011 64.0545 35.3519 64.8472 35.5615 65.6477C35.6487 65.6477 35.736 65.6477 35.8232 65.6477Z" fill="#36363C"/>
<path fill-rule="evenodd" clip-rule="evenodd" d="M17.1104 69.9503C18.8252 71.595 20.7663 73.0008 22.9336 74.1683C23.7409 74.5555 24.5479 74.9422 25.3545 75.3289C25.4152 75.4008 25.4261 75.4761 25.3872 75.5554C25.2464 75.6341 25.0938 75.6907 24.9292 75.7252C24.5996 75.7077 24.2616 75.6607 23.915 75.5837C22.9053 75.2242 21.9456 74.7899 21.0361 74.2815C18.3448 72.6226 16.142 70.5753 14.4277 68.1385C14.6819 68.1051 14.78 67.9919 14.7222 67.7988C14.9356 67.8662 15.1319 67.9602 15.311 68.0819C15.3328 68.0632 15.3547 68.044 15.3765 68.0253C15.4192 68.1419 15.4955 68.2365 15.6055 68.3084C15.5618 68.3271 15.5183 68.3463 15.4746 68.365C15.635 68.4669 15.7223 68.5892 15.7363 68.733C15.6927 68.7517 15.6491 68.7709 15.6055 68.7896C15.684 68.8406 15.7386 68.9068 15.769 68.9878C15.7908 68.9312 15.8127 68.8746 15.8345 68.8179C15.9063 68.9012 16.0045 68.9482 16.1289 68.9595C16.0291 69.0167 15.9201 69.045 15.8018 69.0444C15.8018 69.1197 15.8018 69.1956 15.8018 69.2709C15.8883 69.2805 15.9646 69.2618 16.0308 69.2143C16.0561 69.2669 16.0998 69.3043 16.1616 69.3275C16.363 69.2363 16.472 69.293 16.4888 69.4973C16.7778 69.5596 16.7888 69.6445 16.5215 69.7521C16.7255 69.8099 16.9218 69.8761 17.1104 69.9503Z" fill="#F6CC62"/>
</g>
<defs>
<clipPath id="clip0_4107_40617">
<rect width="67" height="80" fill="white"/>
</clipPath>
</defs>
</svg>
