<svg width="105" height="39" viewBox="0 0 105 39" fill="none" xmlns="http://www.w3.org/2000/svg">
<path fill-rule="evenodd" clip-rule="evenodd" d="M24.5587 25.7036C25.6439 25.0699 26.5654 24.1776 27.2325 23.0953C28.2413 21.4587 28.5951 19.5064 28.224 17.6237C27.8529 15.7411 26.7839 14.0647 25.2279 12.9254C25.0798 12.817 24.9284 12.7143 24.7739 12.6172C24.7992 12.4899 24.8222 12.362 24.8428 12.2336C25.1546 10.2907 24.9136 8.30008 24.147 6.48564C23.3804 4.67121 22.1185 3.10494 20.5034 1.96305C18.8882 0.821166 16.9839 0.148949 15.0046 0.0220288C13.0253 -0.104898 11.0496 0.318518 9.29965 1.24462C7.54973 2.17073 6.09506 3.5628 5.09928 5.26422C4.10349 6.96564 3.6061 8.90891 3.66306 10.8754C3.72002 12.842 4.36487 14.8595 5.4575 16.5014H6.53763L6.67157 15.5773C5.73248 14.1661 5.209 12.523 5.16004 10.8328C5.11108 9.14257 5.53859 7.47235 6.39445 6.00999C7.25032 4.54763 8.50059 3.35116 10.0046 2.55519C11.5087 1.7592 13.2068 1.39528 14.908 1.50437C16.6092 1.61346 18.2459 2.19122 19.6341 3.17267C21.0223 4.15411 22.1069 5.5003 22.7658 7.05979C23.4147 8.59562 23.6254 10.2783 23.3757 11.9241C22.2513 11.5015 21.0337 11.3413 19.8187 11.4695C18.2225 11.6378 16.7272 12.2936 15.5332 13.3341C14.0173 13.0849 12.4586 13.2891 11.0573 13.9239C9.57578 14.595 8.34576 15.7131 7.54273 17.1185C6.73969 18.524 6.40464 20.1451 6.58538 21.7506C6.69995 22.7684 7.01809 23.7469 7.5148 24.6314L7.04927 25.1287H4.33199C3.82331 25.1287 3.41094 25.5395 3.41094 26.0463V28.23H0.921053C0.41237 28.23 0 28.6408 0 29.1476V34.3044C0 34.8112 0.412369 35.222 0.921053 35.222H5.15195C5.38486 35.222 5.60784 35.1353 5.77837 34.9772C7.90915 33.0024 11.8924 29.3299 12.6773 28.6811C14.5631 28.9844 15.3065 28.7439 15.9727 28.5283C16.0026 28.5186 16.0323 28.509 16.062 28.4995C16.1087 28.4845 16.1552 28.4698 16.2019 28.4555L17.8817 30.617C18.1327 30.94 18.1393 31.3892 17.8978 31.7193L16.6336 33.4477C16.3809 33.7932 16.4011 34.2666 16.6822 34.5895L19.8361 38.2118C20.2001 38.6298 20.8498 38.6341 21.2194 38.2211L24.3252 34.75C24.4756 34.5819 24.5587 34.3646 24.5587 34.1394V25.7036ZM24.2466 14.4138C23.8426 15.441 23.2776 16.4031 22.5688 17.263C22.569 17.2722 22.569 17.2815 22.569 17.2908C22.569 18.4742 21.6018 19.4335 20.4088 19.4335C19.2157 19.4335 18.2485 18.4742 18.2485 17.2908C18.2485 16.1074 19.2157 15.1481 20.4088 15.1481C20.9725 15.1481 21.4857 15.3622 21.8704 15.713C22.3116 15.0752 22.6684 14.3848 22.9327 13.6591C22.0163 13.2783 21.0109 13.1284 20.0079 13.2342C18.5297 13.3901 17.1642 14.0898 16.1807 15.1953C15.1971 16.3008 14.667 17.7318 14.6949 19.2059C14.7228 20.68 15.3067 22.0903 16.3315 23.1583C17.3562 24.2264 18.6415 25.0843 20.1245 25.1851V26.1436L19.6224 26.6977L18.3622 28.23L20.5768 31.1294L18.5207 33.9404L20.5411 36.2608L22.7396 33.8038V26.3445L22.6827 24.734C24.1039 24.0573 24.9306 23.4276 25.706 22.1697C26.4814 20.9117 26.7533 19.4113 26.468 17.9643C26.1893 16.5503 25.3984 15.2877 24.2466 14.4138ZM9.87288 24.8652C9.03065 23.9466 8.50241 22.7877 8.3635 21.5537C8.22458 20.3197 8.48209 19.0737 9.09929 17.9935C9.7165 16.9133 10.6619 16.054 11.8005 15.5382C12.5259 15.2096 13.3061 15.0311 14.0942 15.0081C13.2955 16.2659 12.8776 17.7353 12.9061 19.2392C12.9424 21.1572 13.7021 22.992 15.0354 24.3817C15.6727 25.046 16.4189 25.5855 17.235 25.982C17.235 25.982 17.0547 26.2 16.941 26.3128C16.8273 26.4256 16.5999 26.5947 16.3725 26.7075C16.1451 26.8203 15.4629 26.9895 15.1787 26.9895C14.8944 26.9895 14.9513 26.9895 14.667 26.9895C14.3828 26.9895 13.8956 27.0491 12.9685 26.8999L12.1498 26.7683L11.5127 27.2949C10.7115 27.9572 6.96091 31.4133 4.79668 33.4176H1.81917V30.0344H5.2301V26.9331H7.86619L8.47049 26.2564L9.87288 24.8652Z" fill="white"/>
<path d="M33.9387 29.6333V9.1709H39.0286V17.1541L45.3042 9.1709H50.9436L43.4533 18.4222L51.5798 29.6333H45.9983L40.4746 22.0824L39.0286 23.8692V29.6333H33.9387Z" fill="white"/>
<path d="M57.4729 29.9215C54.1182 29.9215 50.3586 27.3853 50.3586 22.14C50.3586 16.8947 54.1182 14.3586 57.4729 14.3586C60.1046 14.3586 61.5217 15.7996 61.6373 16.0589H61.7241V14.6468H66.7272V29.6333H61.7241V28.2211H61.6373C61.5217 28.4805 60.1046 29.9215 57.4729 29.9215ZM55.275 22.14C55.275 24.2439 56.8077 25.512 58.5429 25.512C60.336 25.512 61.8398 24.2727 61.8398 22.14C61.8398 20.0073 60.336 18.7681 58.5429 18.7681C56.8077 18.7681 55.275 20.0361 55.275 22.14Z" fill="white"/>
<path d="M75.6607 29.9215C72.306 29.9215 68.5465 27.3853 68.5465 22.14C68.5465 16.8947 72.306 14.3586 75.6607 14.3586C78.2924 14.3586 79.7095 15.7996 79.8252 16.0589H79.9119V14.6468H84.9151V29.6333H79.9119V28.2211H79.8252C79.7095 28.4805 78.2924 29.9215 75.6607 29.9215ZM73.4628 22.14C73.4628 24.2439 74.9956 25.512 76.7308 25.512C78.5238 25.512 80.0276 24.2727 80.0276 22.14C80.0276 20.0073 78.5238 18.7681 76.7308 18.7681C74.9956 18.7681 73.4628 20.0361 73.4628 22.14Z" fill="white"/>
<path d="M87.4573 29.6333V14.6468H92.4604V18.7392C92.9521 16.2607 94.3981 14.3586 97.0587 14.3586C97.4057 14.3586 97.7817 14.3874 98.1866 14.5027V19.258C97.8106 19.1715 97.4925 19.1427 97.0876 19.1427C94.0799 19.1427 92.4604 21.1025 92.4604 23.8116V29.6333H87.4573Z" fill="white"/>
<path d="M99.9967 29.6333V14.6468H105V29.6333H99.9967ZM99.9967 13.4651V9.1709H105V13.4651H99.9967Z" fill="white"/>
</svg>
