<svg width="27" height="22" viewBox="0 0 27 22" fill="none" xmlns="http://www.w3.org/2000/svg">
<path d="M23.625 0H3.375C2.48019 0.000992641 1.6223 0.37006 0.989572 1.02622C0.356844 1.68238 0.000957189 2.57205 0 3.5V18.5C0.000957189 19.428 0.356844 20.3176 0.989572 20.9738C1.6223 21.6299 2.48019 21.999 3.375 22H23.625C24.5198 21.999 25.3777 21.6299 26.0104 20.9738C26.6432 20.3176 26.999 19.428 27 18.5V3.5C26.999 2.57205 26.6432 1.68238 26.0104 1.02622C25.3777 0.37006 24.5198 0.000992641 23.625 0ZM22.7704 5.78937L14.0918 12.7894C13.9226 12.9258 13.7144 12.9999 13.5 12.9999C13.2856 12.9999 13.0774 12.9258 12.9082 12.7894L4.2296 5.78937C4.12763 5.70952 4.04199 5.60945 3.97764 5.49497C3.91329 5.3805 3.87152 5.2539 3.85476 5.12254C3.838 4.99118 3.84658 4.85767 3.88 4.72978C3.91343 4.60189 3.97103 4.48216 4.04946 4.37755C4.12789 4.27294 4.22558 4.18554 4.33686 4.12043C4.44814 4.05532 4.5708 4.01379 4.69769 3.99825C4.82458 3.98272 4.95319 3.9935 5.07603 4.02996C5.19887 4.06642 5.3135 4.12783 5.41326 4.21062L13.5 10.7331L21.5867 4.21062C21.789 4.05226 22.0431 3.98281 22.2944 4.01728C22.5456 4.05175 22.7736 4.18738 22.9291 4.39483C23.0847 4.60228 23.1552 4.86488 23.1255 5.12585C23.0958 5.38682 22.9682 5.62517 22.7704 5.78937Z" fill="#252525"/>
</svg>
