<svg width="24" height="24" viewBox="0 0 24 24" fill="none" xmlns="http://www.w3.org/2000/svg">
<path fill-rule="evenodd" clip-rule="evenodd" d="M12 22C17.5228 22 22 17.5228 22 12C22 6.47715 17.5228 2 12 2C6.47715 2 2 6.47715 2 12C2 17.5228 6.47715 22 12 22ZM12 24C18.6274 24 24 18.6274 24 12C24 5.37258 18.6274 0 12 0C5.37258 0 0 5.37258 0 12C0 18.6274 5.37258 24 12 24Z" fill="#8F27CE"/>
<path d="M13.315 7.31284C13.315 6.59206 12.7272 6 12.0021 6C11.2771 6 10.685 6.59206 10.6893 7.31284V10.6893H7.31284C6.59206 10.6893 6 11.2771 6 12.0021C6 12.7229 6.59206 13.315 7.31284 13.315H10.6893V16.6872C10.6893 17.4079 11.2771 18 12.0021 18C12.7229 18 13.315 17.4122 13.315 16.6872V13.315H16.6872C17.4079 13.315 18 12.7272 18 12.0021C18 11.2814 17.4122 10.6893 16.6872 10.6893H13.315V7.31284Z" fill="#8F27CE"/>
</svg>
