<svg width="32" height="32" viewBox="0 0 32 32" fill="none" xmlns="http://www.w3.org/2000/svg">
<circle cx="16" cy="16" r="16" fill="white"/>
<path d="M25.7893 5.48003L26.3793 6.07003C27.1923 6.88403 27.0693 8.32703 26.1023 9.29303L13.9353 21.46L9.9933 22.902C9.4983 23.084 9.0163 22.848 8.9183 22.377C8.88529 22.2062 8.90088 22.0295 8.9633 21.867L10.4333 17.891L22.5663 5.75703C23.5333 4.79103 24.9763 4.66603 25.7893 5.48003ZM13.4043 6.69003C13.5356 6.69003 13.6657 6.71589 13.787 6.76615C13.9083 6.8164 14.0185 6.89006 14.1114 6.98292C14.2043 7.07578 14.2779 7.18602 14.3282 7.30734C14.3784 7.42867 14.4043 7.5587 14.4043 7.69003C14.4043 7.82135 14.3784 7.95138 14.3282 8.07271C14.2779 8.19403 14.2043 8.30427 14.1114 8.39713C14.0185 8.48999 13.9083 8.56365 13.787 8.6139C13.6657 8.66416 13.5356 8.69003 13.4043 8.69003H9.4043C8.87386 8.69003 8.36516 8.90074 7.99008 9.27581C7.61501 9.65088 7.4043 10.1596 7.4043 10.69V22.69C7.4043 23.2205 7.61501 23.7292 7.99008 24.1042C8.36516 24.4793 8.87386 24.69 9.4043 24.69H21.4043C21.9347 24.69 22.4434 24.4793 22.8185 24.1042C23.1936 23.7292 23.4043 23.2205 23.4043 22.69V18.69C23.4043 18.4248 23.5097 18.1705 23.6972 17.9829C23.8847 17.7954 24.1391 17.69 24.4043 17.69C24.6695 17.69 24.9239 17.7954 25.1114 17.9829C25.2989 18.1705 25.4043 18.4248 25.4043 18.69V22.69C25.4043 23.7509 24.9829 24.7683 24.2327 25.5185C23.4826 26.2686 22.4652 26.69 21.4043 26.69H9.4043C8.34343 26.69 7.32602 26.2686 6.57587 25.5185C5.82572 24.7683 5.4043 23.7509 5.4043 22.69V10.69C5.4043 9.62916 5.82572 8.61174 6.57587 7.8616C7.32602 7.11145 8.34343 6.69003 9.4043 6.69003H13.4043Z" fill="#252525"/>
</svg>
