<svg width="328" height="248" viewBox="0 0 328 248" fill="none" xmlns="http://www.w3.org/2000/svg">
<path d="M296.91 343.828C299.255 344.411 302.596 343.13 304.106 343.176C306.679 343.256 308.796 343.187 311.301 343.176C312.65 343.176 313.806 343.222 315.224 343.176C319.926 343.027 317.626 345.556 325.039 342.524L327.658 344.812L324.387 345.796C219.125 345.853 113.784 346.505 8.49917 346.448C8.25895 343.45 2.15053 346.471 0 344.48C1.95607 344 9.51724 345.693 7.84715 343.176H8.49917C14.1729 345.899 14.4017 343.107 16.9983 343.176C18.3024 343.21 20.0411 344 22.226 343.828C23.4271 343.736 23.6787 343.199 24.1935 343.176C29.6041 342.878 33.2531 346.517 31.3886 335.979H32.0406C32.1436 337.593 31.3657 343.096 33.0244 343.828C35.9413 344.011 38.9612 343.565 41.8553 343.828C49.6452 344.526 57.6182 345.201 65.3967 343.828C68.8742 343.897 72.5804 343.142 75.8634 343.176C76.3095 343.176 76.7327 343.176 77.1674 343.176C94.4403 343.382 111.576 343.199 128.837 343.176C129.055 343.176 129.261 343.176 129.489 343.176C131.262 343.176 134.214 343.839 136.684 343.828C160.398 343.748 184.316 344.709 207.972 342.844V243.742C208.327 243.834 208.865 243.697 209.276 243.742C209.482 276.761 209.128 309.814 209.276 342.844L259.962 343.828C261.758 303.11 260.946 262.254 260.946 221.501V209.076C261.404 209.076 261.816 209.076 262.25 209.076V343.496L284.156 343.828C285.803 302.469 285.334 260.938 285.14 219.545C285.128 215.952 285.654 211.845 284.488 208.424C288.297 207.509 289.12 202.258 285.792 200.576L285.14 19.0534C283.893 15.1177 282.703 11.9486 278.597 10.221C233.516 7.96713 187.348 8.72223 141.901 8.91673C149.645 5.94208 186.158 10.6672 190.631 8.26459C191.157 7.97857 192.175 3.28777 191.283 2.3725L163.486 1.06823C204.358 0.965259 245.241 1.14831 286.112 1.06823C289.933 2.46403 292.449 4.28314 294.291 7.9328L294.943 343.508C295.286 344.16 296.35 343.691 296.91 343.839V343.828Z" fill="#264152"/>
<path d="M56.886 10.8728L52.9624 17.7374C51.647 77.299 54.7241 137.124 52.9624 196.64C52.9281 197.864 51.0979 200.095 51.9787 200.564C58.4074 200.621 64.8476 200.484 71.2763 200.564C73.1294 214.385 58.865 202.761 52.3104 208.744L51.6584 343.496C52.8023 344.571 52.9053 343.141 52.9624 343.164C56.5429 344.423 61.5303 343.748 65.3852 343.816C57.6067 345.189 49.6337 344.514 41.8438 343.816C43.5253 343.336 43.0792 342.123 43.1478 340.876C48.2953 258.867 42.7932 166.722 43.1478 83.4771C44.2917 83.5572 51.4068 82.1958 51.647 81.8411C53.523 79.1639 50.3086 24.0414 51.647 16.4331C52.9739 13.4127 54.0034 12.1885 56.8746 10.8728H56.886Z" fill="#365262"/>
<path d="M111.176 1.05675L110.844 8.25311L136.021 8.90525C121.391 8.97389 66.3119 6.54841 56.8862 10.8731C54.0035 12.1888 52.974 13.413 51.6585 16.4334C50.3202 24.0531 53.5345 79.1756 51.6585 81.8414C51.4069 82.196 44.3033 83.5575 43.1594 83.4774C43.2394 65.1833 40.0365 23.9387 43.1594 8.57346C43.9143 4.83226 48.3298 1.66312 51.9903 1.04531C66.3462 -1.3573 95.1038 1.14827 111.176 1.04531V1.05675Z" fill="#46616F"/>
<path d="M163.497 1.05649L191.294 2.36076C192.186 3.27604 191.157 7.96683 190.642 8.25285C186.181 10.6555 149.656 5.93034 141.912 8.90499C139.956 8.90499 137.977 8.90499 136.021 8.90499L110.844 8.25285L111.175 1.05649C128.608 0.94208 146.064 1.10225 163.497 1.05649Z" fill="#365262"/>
<path d="M285.791 200.576C289.119 202.258 288.296 207.509 284.487 208.424C281.524 209.134 266.596 209.008 262.249 209.076C261.814 209.076 261.391 209.076 260.945 209.076C253.258 209.179 245.194 208.378 237.404 208.424L184.75 207.772L185.734 200.576C219.078 200.644 252.457 200.518 285.802 200.576H285.791Z" fill="#172E3C"/>
<path d="M185.733 200.576L184.749 207.772L237.403 208.424C202.537 208.596 167.625 208.321 132.759 208.424C114.216 208.482 95.6852 208.813 77.1655 209.076C76.7308 209.076 76.2847 209.076 75.8614 209.076C68.7349 209.191 61.1738 207.635 53.9558 208.424C52.2742 209.168 53.0406 218.698 52.972 220.849C51.6565 261.522 53.9558 302.469 52.972 343.176C52.9034 343.153 52.8004 344.572 51.668 343.508L52.32 208.756C58.8745 202.772 73.1389 214.397 71.2858 200.576C109.412 201.022 147.607 200.496 185.744 200.576H185.733Z" fill="#264152"/>
<path d="M141.914 12.1775C142.12 13.333 140.645 20.4607 140.279 20.6781C137.842 22.1426 121.896 18.573 118.373 21.9824C107.792 22.0281 83.7472 19.6713 74.882 21.9824C72.4798 22.6116 70.2263 24.3163 68.6706 26.2384C67.5267 27.6457 68.5562 30.7347 66.3828 30.4945L67.6869 12.1775C92.4294 12.1203 117.183 12.2576 141.914 12.1775Z" fill="#B0C4CB"/>
<path d="M217.775 137.124C219.548 147.65 212.547 140.133 207.308 144.32C203.614 144.32 199.884 144.32 196.19 144.32C192.563 141.094 166.677 144.114 165.121 143.016C164.344 142.467 165.018 138.348 164.79 137.124C182.429 137.17 200.125 137.284 217.764 137.124H217.775Z" fill="#B0C4CB"/>
<path d="M136.019 8.9051C137.975 8.9051 139.954 8.9051 141.91 8.9051C187.357 8.72205 233.525 7.96695 278.606 10.2094C276.524 10.3123 273.618 11.9827 271.742 12.1772C233.445 16.0671 181.775 12.0514 141.921 12.1772C117.19 12.2573 92.4363 12.12 67.6937 12.1772L66.3897 30.4942C68.5745 30.7459 67.5336 27.6568 68.6775 26.2382C70.2332 24.3275 72.4867 22.6114 74.8889 21.9821C83.7541 19.671 107.799 22.0279 118.38 21.9821C159.732 21.8105 213.644 17.8176 253.44 21.33C268.036 22.6114 269.066 23.8356 270.118 38.0109C272.211 66.3731 270.484 96.1882 272.086 124.688C276 132 267.218 145.67 269.5 137.101C269.317 128.795 261.859 138.295 261.63 130V95.9022C260.555 82.5391 260.223 68.993 259.011 55.6758C258.748 52.8155 258.771 54.6804 257.707 55.344C257.387 50.5731 257.547 37.8622 256.403 34.407C256.082 29.8192 264.136 31.5811 263.598 26.2267C200.741 24.3733 136.579 25.0254 73.276 25.8949C71.2398 26.5585 69.81 28.0802 69.3524 30.151C67.2705 39.6355 68.5402 59.497 68.0484 70.3774C67.5336 81.7611 63.9189 122.811 66.0808 130.889C66.2867 131.667 68.8033 133.177 69.3524 133.829C69.5469 134.058 67.465 136.14 72.9442 137.101C94.0606 140.819 140.835 137.044 164.834 137.101C165.051 138.314 164.388 142.444 165.165 142.993C166.721 144.091 192.608 141.083 196.234 144.297C150.135 144.252 104.013 144.332 57.9134 144.297L56.9297 145.602L56.2776 192.372C59.1488 192.727 63.1525 193.814 64.7768 190.736C64.8226 190.839 66.6299 192.006 66.7443 192.041C68.9864 192.887 111.288 193.425 113.507 192.693C115.417 192.063 121.057 179.513 122.99 177.316C122.441 174.856 77.6228 177.282 72.6354 176.332C71.8461 176.183 69.2609 175.177 68.7118 174.364C70.8623 174.341 73.1273 173.792 75.2549 173.712C80.0135 173.518 84.8751 173.746 89.6452 173.712C100.867 173.644 112.1 173.769 123.333 173.712C124.054 170.474 124.443 167.168 124.969 163.896L125.953 171.744L208.691 171.092C208.92 171.046 209.171 171.149 209.343 171.092L210.979 197.258L53.029 196.605C54.7906 137.078 51.7135 77.2534 53.029 17.7032L56.9525 10.8386C66.3897 6.51394 121.457 8.95087 136.087 8.87078L136.019 8.9051Z" fill="#FAFBFD"/>
<path d="M121.96 185.531C122.898 185.13 135.527 185.165 136.019 186.515C136.133 186.823 134.017 192.567 133.731 192.727C132.29 193.505 121.903 192.144 119.341 192.727C118.803 192.441 121.297 185.805 121.96 185.531Z" fill="#081D29"/>
<path d="M171.011 187.487C173.093 186.561 189.291 186.835 185.07 192.395C184.647 192.956 171.652 193.013 171.011 192.727C169.559 192.087 169.559 188.139 171.011 187.499V187.487Z" fill="#081D29"/>
<path d="M138.972 188.139C140.345 187.487 152.15 187.533 152.379 189.775C152.916 194.947 141.82 191.938 138.32 192.716C137.016 192.189 137.977 188.62 138.972 188.139Z" fill="#081D29"/>
<path d="M187.361 187.487C192.92 190.153 200.001 184.238 200.767 192.395C195.825 192.361 185.164 195.427 187.361 187.487Z" fill="#081D29"/>
<path d="M156.622 187.487C158.853 186.995 169.422 187.396 167.409 191.743C166.814 193.025 156.336 193.128 155.307 192.727C154.014 192.224 154.735 187.911 156.611 187.499L156.622 187.487Z" fill="#081D29"/>
<path d="M185.402 180.943C185.894 180.76 195.388 180.737 195.869 180.943C204.963 184.89 177.44 183.86 185.402 180.943Z" fill="#0D272B"/>
<path d="M135.7 181.595C141.522 185.577 125.668 184.158 122.945 183.883C125.027 180.074 132.348 183.826 135.7 181.595Z" fill="#071615"/>
<path d="M140.924 181.595C141.77 181.298 153.678 181.252 153.678 182.579C152.569 184.799 135.49 183.517 140.924 181.595Z" fill="#0D272B"/>
<path d="M170.359 181.595C171.251 181.904 185.333 180.542 183.114 183.231C182.233 184.295 166.333 183.609 170.359 181.595Z" fill="#0D272B"/>
<path d="M127.188 175.714C128.08 175.428 139.291 175.371 139.291 176.698C138.536 179.124 122.304 177.305 127.188 175.714Z" fill="#081D29"/>
<path d="M142.891 175.714C143.451 175.531 151.905 175.531 152.705 175.714C163.184 178.071 135.204 178.209 142.891 175.714Z" fill="#000F16"/>
<path d="M170.36 175.714C170.863 175.44 181.81 175.36 181.81 176.698C181.227 178.735 166.425 177.854 170.36 175.714Z" fill="#081D29"/>
<path d="M156.618 181.595C157.396 181.343 167.405 181.126 167.405 182.579C166.593 185.039 151.928 183.117 156.618 181.595Z" fill="#0D272B"/>
<path d="M125.229 178.987C126.819 178.472 136.073 178.62 137.984 179.97C137.755 181.092 119.578 180.829 125.229 178.987Z" fill="#071615"/>
<path d="M157.935 175.714C158.77 175.44 167.418 175.394 167.418 176.698C166.515 179.192 153.497 177.156 157.935 175.714Z" fill="#081D29"/>
<path d="M170.359 184.867L183.766 185.851C180.277 185.794 172.43 187.624 170.359 184.867Z" fill="#0D272B"/>
<path d="M139.623 184.867C140.413 184.478 151.474 184.467 153.03 185.851C151.84 186.389 135.585 186.824 139.623 184.867Z" fill="#071615"/>
<path d="M184.096 175.714C185.446 175.28 192.698 175.36 194.231 176.698C193.602 178.277 179.063 177.35 184.096 175.714Z" fill="#081D29"/>
<path d="M141.577 178.987C143.956 178.22 151.392 179.307 154.332 179.318L140.925 180.302C140.284 179.971 141.383 179.055 141.577 178.998V178.987Z" fill="#172E3C"/>
<path d="M155.968 184.867C156.46 184.57 166.366 184.364 167.419 185.851C166.218 186.206 152.148 187.156 155.968 184.867Z" fill="#081D29"/>
<path d="M186.055 184.867L198.157 185.851C195.194 185.805 187.53 187.613 186.055 184.867Z" fill="#081D29"/>
<path d="M156.621 178.987L167.408 179.318C165.589 180.634 157.159 181.378 156.621 178.987Z" fill="#081D29"/>
<path d="M191.292 178.335C192.391 178.312 195.376 177.728 195.216 179.639L183.766 179.307C185.928 179.387 189.531 178.357 191.292 178.323V178.335Z" fill="#0D272B"/>
<path d="M181.478 178.335C181.604 178.357 182.793 179.307 182.13 179.639L170.027 179.971C171.389 179.044 180.62 178.197 181.478 178.335Z" fill="#081D29"/>
<path d="M128.824 243.09C128.859 276.441 128.802 309.825 128.824 343.176C111.563 343.199 94.4388 343.382 77.1545 343.176C76.4682 301.954 77.2575 260.732 77.1545 219.545L125.221 220.197C126.022 219.385 127.063 219.51 128.161 218.893C129.362 226.844 128.802 235.082 128.813 243.09H128.824Z" fill="#FAFBFD"/>
<path d="M260.946 221.501C260.946 262.254 261.758 303.11 259.962 343.828L209.276 342.844C209.127 309.814 209.482 276.761 209.276 243.742C209.23 236.603 209.653 229.27 209.276 222.153L260.946 221.501Z" fill="#99ACB7"/>
<path d="M285.139 219.545C285.334 260.938 285.814 302.469 284.156 343.828L262.25 343.496V220.849C269.891 221.982 277.544 220.7 285.139 219.545Z" fill="#99ACB7"/>
<path d="M75.8505 222.153V343.164C72.5675 343.13 68.8612 343.885 65.3838 343.816C61.5288 343.748 56.5414 344.423 52.961 343.164C53.9448 302.469 51.6456 261.521 52.961 220.837C60.5451 224.407 67.7974 221.833 75.8505 222.142V222.153Z" fill="#FAFBFD"/>
<path d="M237.391 208.424C245.181 208.39 253.246 209.179 260.933 209.076V221.501L209.263 222.153C209.183 220.586 208.725 219.545 209.263 217.897C208.29 216.742 207.856 216.478 207.959 218.229C199.002 216.57 136.122 220.391 133.068 218.229C132.232 217.634 133.01 210.037 132.736 208.413C167.602 208.31 202.514 208.584 237.38 208.413L237.391 208.424Z" fill="#60737D"/>
<path d="M284.487 208.424C285.654 211.845 285.128 215.952 285.139 219.545C277.544 220.712 269.891 221.993 262.25 220.849V209.076C266.597 209.008 281.525 209.133 284.487 208.424Z" fill="#6F838F"/>
<path d="M77.1673 209.076C77.1101 212.554 77.1673 216.089 77.1673 219.545C77.2703 260.732 76.481 301.954 77.1673 343.176C76.7326 343.176 76.3094 343.176 75.8633 343.176V209.076C76.298 209.076 76.7441 209.076 77.1673 209.076Z" fill="#081D29"/>
<path d="M132.748 208.424C133.023 210.049 132.245 217.645 133.08 218.24C136.134 220.403 199.003 216.581 207.971 218.24L206.987 219.545H130.472C129.237 219.133 129.626 216.925 129.168 216.925C128.562 216.925 129.362 218.218 128.184 218.893C127.086 219.51 126.045 219.385 125.244 220.197L77.1778 219.545C77.1778 216.09 77.1206 212.566 77.1778 209.076C95.6975 208.813 114.229 208.481 132.771 208.424H132.748Z" fill="#818E96"/>
<path d="M75.849 209.076V222.153C67.796 221.844 60.5436 224.419 52.9596 220.849C53.0282 218.687 52.2618 209.168 53.9433 208.424C61.1728 207.635 68.734 209.191 75.849 209.076Z" fill="#99ACB7"/>
<path d="M207.963 218.229C207.86 216.49 208.294 216.753 209.267 217.897C208.729 219.533 209.187 220.574 209.267 222.153C209.644 229.27 209.221 236.603 209.267 243.742C208.855 243.697 208.306 243.834 207.963 243.742C194.636 240.127 147.084 243.09 130.132 243.09H128.828C128.828 235.07 129.365 226.833 128.176 218.893C129.354 218.229 128.553 216.925 129.16 216.925C129.617 216.925 129.228 219.121 130.464 219.545H206.979L207.963 218.241V218.229Z" fill="#081D29"/>
<path d="M207.964 243.743V254.211C195.095 258.513 201.203 248.033 199.133 246.363C198.355 245.733 195.976 247.999 195.541 249.635C179.652 247.873 158.467 251.98 143.219 249.635C143.013 249.6 141.709 246.671 139.627 247.667C138.666 248.456 139.787 253.753 139.295 255.195C138.678 257.048 136.813 255.47 136.676 255.527L137.328 244.074L130.133 243.743V243.09C147.085 243.09 194.637 240.127 207.964 243.743Z" fill="#B0C4CB"/>
<path d="M130.142 243.09V243.742C128.941 248.09 129.501 253.01 129.49 257.483C129.49 257.918 129.49 258.364 129.49 258.787C129.421 286.909 129.547 315.054 129.49 343.176C129.261 343.176 129.055 343.176 128.838 343.176C128.815 309.825 128.872 276.441 128.838 243.09H130.142Z" fill="#60737D"/>
<path d="M195.54 249.635C195.426 250.047 196.456 257.254 195.209 258.135C193.07 259.646 149.178 257.598 142.887 258.135L143.218 249.635C158.467 251.98 179.652 247.873 195.54 249.635Z" fill="#99ACB7"/>
<path d="M207.959 254.211V258.135C206.518 258.844 200.501 258.558 200.112 259.119C198.82 260.938 201.634 288.042 200.112 291.829C199.746 292.744 198.351 292.698 197.825 293.465C190.103 291.222 143.707 295.032 140.275 292.813C136.843 290.593 139.531 264.119 138.639 259.119C137.221 257.849 137.472 260.309 136.672 260.103C136.603 260.08 136.889 258.856 136.34 258.799C134.132 258.535 131.696 258.993 129.477 258.799C129.477 258.364 129.477 257.918 129.477 257.494C131.616 256.316 134.533 257.323 136.34 256.842C136.912 256.694 136.592 255.561 136.672 255.538C136.809 255.481 138.662 257.06 139.291 255.206C139.772 253.765 138.651 248.479 139.623 247.678C141.705 246.683 143.02 249.612 143.215 249.646L142.883 258.147C149.175 257.609 193.066 259.657 195.205 258.147C196.452 257.266 195.422 250.058 195.537 249.646C195.971 248.01 198.351 245.745 199.129 246.374C201.199 248.044 195.091 258.524 207.959 254.222V254.211Z" fill="#B0C4CB"/>
<path d="M136.675 255.515C136.607 255.538 136.916 256.671 136.344 256.819C134.536 257.3 131.619 256.293 129.48 257.472C129.492 252.998 128.931 248.079 130.132 243.731L137.327 244.063L136.675 255.515Z" fill="#FAFBFD"/>
<path d="M66.7031 192.063L72.5942 176.366C77.5816 177.304 122.411 174.89 122.949 177.35C121.015 179.547 115.376 192.086 113.466 192.727C111.247 193.459 68.9452 192.921 66.7031 192.075V192.063Z" fill="#D2D7D6"/>
<path d="M68.6574 145.625C69.1264 146.826 68.0168 147.661 68.0054 148.245C67.9825 149.08 67.7766 150.213 68.3371 150.865C69.6411 151.643 76.1499 149.423 75.864 152.169C74.6629 152.226 68.9205 151.917 68.6688 152.169C67.4792 155.006 68.0168 158.908 68.0168 161.985C65.4087 161.688 66.2209 162.489 66.0493 164.274C65.6718 168.312 63.8873 188.906 64.7453 190.771C63.1209 193.848 59.1058 192.762 56.2461 192.407L56.8981 145.636H68.6688L68.6574 145.625Z" fill="#D2D7D6"/>
<path d="M68.0058 161.974C68.0058 164.639 67.4567 172.637 68.6578 174.398C69.2069 175.199 71.7921 176.206 72.5814 176.366L66.6903 192.063C66.5759 192.018 64.78 190.862 64.7228 190.759C63.8649 188.906 65.6494 168.3 66.0269 164.262C66.1984 162.477 65.3863 161.676 67.9944 161.974H68.0058Z" fill="#B0C4CB"/>
<path d="M207.96 148.897L208.612 171.138L125.874 171.79L124.89 163.942C125.211 161.917 125.497 158.21 125.542 156.093C125.565 155.189 127.361 153.542 125.211 152.169C108.807 152.741 92.2091 151.402 75.8285 152.169C76.1259 149.423 69.6057 151.631 68.3016 150.865C67.7526 150.212 67.947 149.08 67.9699 148.245C114.572 150.51 161.392 147.409 207.926 148.897H207.96Z" fill="#B0C4CB"/>
<path d="M209.925 148.897C209.078 150.521 208.403 155.098 210.577 154.789C210.588 155.006 210.565 155.223 210.577 155.441C208.403 158.084 208.449 167.5 210.577 169.834C210.84 171.561 210.039 170.875 209.273 171.138C209.101 171.195 208.838 171.092 208.621 171.138L207.969 148.897C208.049 148.897 208.381 147.775 208.952 147.592L209.936 148.897H209.925Z" fill="#6F838F"/>
<path d="M145.5 152.169C154.811 154.274 190.924 149.4 197.17 152.169C198.52 152.764 198.394 158.702 198.154 159.033C196.621 161.173 151.746 158.072 145.5 159.365V152.169Z" fill="#081D29"/>
<path d="M125.558 156.093C125.5 158.21 125.226 161.928 124.906 163.942C124.379 167.203 123.991 170.52 123.27 173.758C112.048 173.815 100.804 173.69 89.582 173.758L90.8861 156.093C102.428 156.231 114.004 155.99 125.546 156.093H125.558Z" fill="url(#paint0_linear_1934_21866)"/>
<path d="M90.8998 156.093L89.5957 173.758C84.8257 173.792 79.9641 173.564 75.2055 173.758L72.5859 156.093C77.9508 156.722 85.2489 156.025 90.8998 156.093Z" fill="#2A4A67"/>
<path d="M72.5837 156.093L75.2032 173.758C73.087 173.85 70.8106 174.388 68.6601 174.41C67.459 172.637 68.0081 164.64 68.0081 161.986C68.0081 158.908 67.4704 155.007 68.6601 152.169C68.4656 152.364 68.7973 155.007 68.6601 155.762C69.1405 156.437 71.6457 155.979 72.5837 156.093Z" fill="#081D29"/>
<path d="M75.8559 152.169C92.2365 151.403 108.823 152.741 125.238 152.169C127.389 153.542 125.593 155.189 125.57 156.093C114.028 155.99 102.452 156.231 90.9096 156.093C85.2587 156.025 77.9607 156.723 72.5958 156.093C71.6578 155.979 69.1527 156.437 68.6722 155.762C68.8095 154.995 68.4778 152.364 68.6722 152.169C68.9239 151.917 74.6662 152.226 75.8673 152.169H75.8559Z" fill="#081D29"/>
<path d="M285.794 200.575C252.45 200.518 219.071 200.644 185.726 200.575C147.6 200.495 109.394 201.022 71.2675 200.575C64.8502 200.495 58.3986 200.633 51.9699 200.575C51.0891 200.106 52.9193 197.875 52.9537 196.651L210.903 197.303L209.268 171.138C210.034 170.875 210.846 171.561 210.572 169.834C210.377 165.063 210.846 160.2 210.572 155.441C210.56 155.223 210.583 155.006 210.572 154.789C210.446 153.015 211.189 150.258 209.919 148.897L208.936 147.592C208.364 147.787 208.032 148.908 207.952 148.897C161.418 147.409 114.587 150.51 67.9959 148.244C68.0188 147.661 69.117 146.826 68.648 145.624C132.42 145.624 196.181 146.86 259.954 145.624L261.258 152.169C263.054 151.333 262.264 145.762 262.562 145.624C264.838 144.583 276.792 146.402 280.224 145.624L279.572 144.32C255.492 144.217 231.391 144.343 207.3 144.32C212.528 140.133 219.54 147.649 217.767 137.124C226.723 137.044 263.294 138.634 268.453 135.156C269.768 134.275 270.901 132.101 271.393 130.58C271.953 128.841 272.045 126.541 272.045 124.687C270.443 96.188 272.182 66.3729 270.077 38.0108C269.025 23.8354 267.995 22.6112 253.399 21.3298C213.603 17.8289 159.691 21.8104 118.339 21.982C121.874 18.5611 137.808 22.1422 140.245 20.6777C140.611 20.4603 142.086 13.3326 141.88 12.1771C181.734 12.0512 233.404 16.067 271.702 12.1771C273.577 11.9826 276.483 10.3236 278.565 10.2092C282.66 11.9254 283.861 15.106 285.108 19.0416L285.76 200.564L285.794 200.575Z" fill="#B0C4CB"/>
<path d="M68.6574 145.624H56.8867L57.8705 144.32C103.981 144.354 150.092 144.274 196.191 144.32C199.886 144.32 203.615 144.32 207.309 144.32C231.4 144.343 255.502 144.217 279.581 144.32L280.233 145.624C276.801 146.402 264.848 144.583 262.571 145.624C262.262 145.762 263.052 151.333 261.267 152.169L259.963 145.624C196.191 146.86 132.43 145.624 68.6574 145.624Z" fill="#60737D"/>
<path d="M270.098 160.017H223.667C220.773 161.447 213.704 157.477 218.108 156.093C220.418 155.372 261.519 155.143 266.506 155.441C270.556 155.681 270.247 155.669 270.098 160.017Z" fill="#6F838F"/>
<path d="M223.013 166.55C222.293 166.447 223.528 163.381 223.665 163.278C224.111 162.957 225.198 161.996 225.301 161.974C227.246 161.401 264.022 161.093 265.852 161.974C266.607 162.34 266.687 165.635 268.14 166.23C266.79 168.037 229.156 165.612 223.013 166.561V166.55Z" fill="#081D29"/>
<path d="M237.725 147.581C238.411 147.1 253.579 145.888 251.131 151.173C250.536 152.443 239.292 152.558 238.377 152.157C237.061 151.574 237.073 148.038 237.725 147.581Z" fill="#081D29"/>
<path d="M210.582 155.429C210.856 160.189 210.387 165.051 210.582 169.822C208.454 167.488 208.408 158.072 210.582 155.429Z" fill="#D2D7D6"/>
<path d="M210.58 154.777C208.407 155.097 209.07 150.51 209.928 148.885C211.198 150.246 210.454 153.004 210.58 154.777Z" fill="#D2D7D6"/>
<path d="M270.102 160.017L272.722 161.653L273.053 197.303H212.884C211.74 196.491 215.733 170.691 216.476 169.501C217.14 168.437 218.158 170.062 218.444 169.833L269.782 171.137L269.13 167.865H221.063C221.178 167.831 222.905 166.572 223.031 166.561C229.173 165.623 266.808 168.037 268.157 166.229C266.705 165.634 266.625 162.351 265.87 161.973C264.051 161.092 227.263 161.401 225.318 161.973C225.216 162.008 224.129 162.957 223.683 163.277V160.005H270.114L270.102 160.017Z" fill="#FAFBFD"/>
<path d="M221.053 167.865H269.12L269.772 171.137L218.434 169.833C219.223 169.181 217.427 169.044 221.053 167.865Z" fill="#324883"/>
<path d="M236.427 174.41C238.589 174.467 255.153 173.128 251.138 178.002C250.589 178.666 235.009 179.959 236.427 174.41Z" fill="#6370A1"/>
<path d="M241.652 182.258C254.132 181.194 255.768 182.338 255.059 195.015C254.784 195.404 246.079 195.587 245.576 195.347C244.946 195.038 240.245 182.819 241.652 182.27V182.258Z" fill="#264152"/>
<path d="M247.542 186.834C247.61 186.834 248.857 187.784 248.194 188.139C246.512 189.031 246.306 186.972 247.542 186.834Z" fill="#000F16"/>
<path d="M256.357 34.4186C256.083 33.5949 255.431 31.4783 254.721 31.1465L83.3654 30.4944C83.1138 31.1351 79.9566 31.833 79.7736 31.7986C77.0625 31.2838 73.7338 28.7897 73.2305 25.9065C136.522 25.037 200.695 24.3849 263.552 26.2383C264.09 31.5813 256.037 29.8193 256.357 34.4186Z" fill="#172E3C"/>
<path d="M261.599 95.9138C261.988 100.799 262.64 126.209 263.567 128.292C264.493 130.374 269.755 128.132 271.414 130.58C270.922 132.102 269.778 134.275 268.474 135.156C263.315 138.623 226.744 137.044 217.788 137.124C200.149 137.284 182.453 137.17 164.814 137.124C140.815 137.067 94.0407 140.842 72.9243 137.124C67.445 136.163 69.5269 134.092 69.3325 133.852H258.671C262.262 132.159 261.45 132.113 261.61 128.623C262.571 107.984 259.14 76.8874 257.687 55.3555C258.762 54.692 258.739 52.8271 258.991 55.6873C260.203 69.0161 260.535 82.5507 261.61 95.9138H261.599Z" fill="#FAFBFD"/>
<path d="M76.5035 76.281C78.1049 87.8249 74.7304 114.997 73.884 127.96C73.8153 129.035 72.557 131.369 72.5799 131.552C72.7401 132.96 75.8286 131.049 73.884 133.84H69.3084C68.7593 133.188 66.2427 131.667 66.0368 130.9C63.8634 122.823 67.4781 81.7727 68.0043 70.3889C74.8677 71.3957 75.5083 69.0618 76.5035 76.281Z" fill="#99ACB7"/>
<path d="M79.7746 31.7986L76.5031 76.281C75.5079 69.0618 74.8559 71.4072 68.0039 70.389C68.4958 59.5086 67.2261 39.6356 69.308 30.1625C69.7655 28.0917 71.1954 26.5701 73.2315 25.9065C73.7348 28.7782 77.0521 31.2837 79.7746 31.7986Z" fill="#6F838F"/>
<path d="M258.328 128.612C224.709 127.182 190.541 129.253 156.956 129.264C133.243 129.276 109.439 128.132 85.6683 128.612C85.451 128.612 85.2336 128.612 85.0163 128.612C84.6502 121.61 85.4052 114.608 85.6683 107.675H86.9723L125.556 81.5097C125.35 135.717 205.091 141.014 213.19 89.6899C214.025 84.3813 212.412 75.1828 213.19 72.3569C214.277 68.3983 249.063 45.7338 253.741 40.2993L258.317 128.612H258.328Z" fill="url(#paint1_linear_1934_21866)"/>
<path d="M179.193 34.4185L174.969 41.2247C151.13 38.0899 130.783 51.3854 126.871 74.9767L86.972 107.686H85.668C86.6174 83.2714 87.1207 58.7648 89.2598 34.4185C119.23 34.4871 149.223 34.3269 179.193 34.4185Z" fill="url(#paint2_linear_1934_21866)"/>
<path d="M253.749 40.3106C249.07 45.7336 214.284 68.3981 213.198 72.3681C209.457 56.2364 191.757 42.5301 174.965 40.322L179.189 34.4299C203.669 34.51 228.251 34.3727 252.765 34.4299L253.749 40.322V40.3106Z" fill="url(#paint3_linear_1934_21866)"/>
<path d="M258.327 128.612C259.78 128.669 260.1 129.825 261.599 128.612C261.439 132.113 262.251 132.147 258.659 133.84H125.566C134.718 129.424 149.291 136.678 156.955 129.264C190.54 129.241 224.708 127.17 258.327 128.612Z" fill="#3F6284"/>
<path d="M85.0129 128.612C85.2302 128.612 85.4476 128.612 85.6649 128.612L88.9365 133.84H73.8942C75.8388 131.049 72.7389 132.959 72.5902 131.552C72.5673 131.358 73.8256 129.024 73.8942 127.96C77.0742 130.454 81.5698 128.692 85.0129 128.612Z" fill="#6587A5"/>
<path d="M256.358 34.4184C257.501 37.8736 257.341 50.5731 257.662 55.3554C259.114 76.8758 262.546 107.984 261.585 128.623C260.087 129.836 259.766 128.68 258.314 128.623L253.738 40.3105L252.754 34.4184C228.229 34.3612 203.658 34.4985 179.179 34.4184C149.209 34.3269 119.227 34.4871 89.2454 34.4184C87.1063 58.7648 86.603 83.2713 85.6535 107.686C85.379 114.62 84.624 121.621 85.0015 128.623C81.5584 128.703 77.0743 130.454 73.8828 127.971C74.7293 115.009 78.0924 87.8477 76.5023 76.2923L79.7739 31.8099C79.9569 31.8442 83.1141 31.1463 83.3657 30.5056L254.722 31.1577C255.431 31.4895 256.083 33.6061 256.358 34.4299V34.4184Z" fill="#0E283F"/>
<path d="M79.4525 80.8687C80.0587 87.287 80.013 94.2775 78.1484 100.49C78.5259 93.98 78.0798 87.2527 79.4525 80.8687Z" fill="#081D29"/>
<path d="M156.956 129.264C149.292 136.678 134.718 129.424 125.567 133.84H88.9395L85.668 128.612C109.438 128.131 133.243 129.275 156.956 129.264Z" fill="#7998B6"/>
<path d="M126.872 74.9768C126.609 76.5557 125.568 80.3312 125.568 81.521L86.9844 107.687L126.884 74.9768H126.872Z" fill="#476F97"/>
<circle cx="169.24" cy="81.9745" r="47.4081" fill="#DA0A0A"/>
<path d="M194.944 53.3876C197.394 55.6605 200.104 60.166 202.806 62.6411L185.234 80.6817L202.349 98.7193C202.762 100.135 189.3 114.195 187.545 113.524L169.046 96.4167L151.005 113.988L136.673 98.2639L154.244 80.2233L136.676 62.1857L151.011 47.8502L169.51 64.9575L187.089 47.8471C187.979 47.5073 194.005 52.514 194.952 53.3957L194.944 53.3876Z" fill="#FAFBFD"/>
<defs>
<linearGradient id="paint0_linear_1934_21866" x1="94.7982" y1="162.821" x2="116.738" y2="166.423" gradientUnits="userSpaceOnUse">
<stop stop-color="#466A8B"/>
<stop offset="1" stop-color="#597FA3"/>
</linearGradient>
<linearGradient id="paint1_linear_1934_21866" x1="153.696" y1="64.9546" x2="219.69" y2="147.009" gradientUnits="userSpaceOnUse">
<stop stop-color="#4E7599"/>
<stop offset="1" stop-color="#113352"/>
</linearGradient>
<linearGradient id="paint2_linear_1934_21866" x1="105.149" y1="32.0616" x2="128.398" y2="65.2824" gradientUnits="userSpaceOnUse">
<stop stop-color="#85B2D6"/>
<stop offset="1" stop-color="#6790B5"/>
</linearGradient>
<linearGradient id="paint3_linear_1934_21866" x1="209.068" y1="30.3569" x2="230.268" y2="50.7754" gradientUnits="userSpaceOnUse">
<stop stop-color="#6089B0"/>
<stop offset="1" stop-color="#4B749A"/>
</linearGradient>
</defs>
</svg>
