<svg width="24" height="28" viewBox="0 0 24 28" fill="none" xmlns="http://www.w3.org/2000/svg">
<path fill-rule="evenodd" clip-rule="evenodd" d="M16.9644 5.27385L19.1604 7.46983C22.3872 10.6978 24 12.3106 24 14.3145C24 16.3197 22.3872 17.9325 19.1604 21.1593C15.9323 24.3872 14.3195 26 12.3143 26C10.3103 26 8.6963 24.3872 5.46948 21.1605L3.27346 18.9645C1.41945 17.1093 0.491843 16.1829 0.14744 14.9793C-0.198162 13.7757 0.0970401 12.4978 0.687444 9.943L1.02705 8.46942C1.52265 6.31904 1.77105 5.24385 2.50666 4.50706C3.24226 3.77027 4.31867 3.52308 6.46908 3.02748L7.94269 2.68669C10.4987 2.09749 11.7755 1.8023 12.9791 2.14669C14.1827 2.49229 15.1103 3.41988 16.9644 5.27385ZM10.9751 16.7937C10.1675 15.9873 10.1735 14.8281 10.6571 13.9101C10.5374 13.7372 10.482 13.5278 10.5006 13.3183C10.5192 13.1088 10.6106 12.9124 10.7589 12.7633C10.9072 12.6142 11.103 12.5216 11.3124 12.5019C11.5218 12.4821 11.7315 12.5362 11.9051 12.655C12.3131 12.439 12.7607 12.3238 13.2071 12.3286C13.4458 12.3308 13.6739 12.4278 13.8411 12.5981C14.0083 12.7685 14.101 12.9983 14.0987 13.237C14.0965 13.4756 13.9995 13.7037 13.8292 13.8709C13.6588 14.0381 13.429 14.1308 13.1903 14.1285C12.9125 14.1388 12.6499 14.2583 12.4595 14.4609C11.9951 14.9253 12.1163 15.3909 12.2471 15.5217C12.3791 15.6525 12.8435 15.7737 13.3079 15.3093C14.2487 14.3685 15.8735 14.0565 16.914 15.0969C17.7216 15.9045 17.7156 17.0637 17.232 17.9817C17.3509 18.1547 17.4057 18.3638 17.3868 18.5728C17.3678 18.7819 17.2764 18.9778 17.1283 19.1266C16.9803 19.2754 16.7848 19.3677 16.5758 19.3876C16.3669 19.4076 16.1575 19.3538 15.9839 19.2357C15.4455 19.5311 14.8208 19.6296 14.2175 19.5141C13.9836 19.466 13.7784 19.327 13.6469 19.1276C13.5155 18.9282 13.4687 18.6848 13.5167 18.4509C13.5648 18.217 13.7038 18.0117 13.9032 17.8803C14.1026 17.7489 14.346 17.702 14.5799 17.7501C14.7923 17.7945 15.1355 17.7249 15.4295 17.4309C15.8939 16.9653 15.7727 16.5009 15.6419 16.3701C15.5099 16.2393 15.0455 16.1181 14.5811 16.5825C13.6403 17.5233 12.0155 17.8353 10.9751 16.7937ZM9.62391 11.9518C9.84673 11.7289 10.0235 11.4643 10.144 11.1731C10.2646 10.8818 10.3266 10.5697 10.3266 10.2546C10.3265 9.93939 10.2644 9.62731 10.1437 9.33615C10.023 9.04498 9.84621 8.78044 9.6233 8.55761C9.4004 8.33479 9.13578 8.15805 8.84457 8.03749C8.55336 7.91693 8.24125 7.85491 7.92607 7.85496C7.61089 7.85502 7.2988 7.91715 7.00763 8.03782C6.71646 8.15848 6.45191 8.33531 6.22908 8.55821C5.77906 9.00839 5.5263 9.61889 5.52641 10.2554C5.52653 10.8919 5.7795 11.5024 6.22968 11.9524C6.67986 12.4024 7.29038 12.6551 7.92692 12.655C8.56346 12.6549 9.17388 12.4019 9.62391 11.9518Z" fill="#8F27CE"/>
</svg>
