<svg width="24" height="28" viewBox="0 0 24 28" fill="none" xmlns="http://www.w3.org/2000/svg">
<path d="M21.3333 5H2.66667C1.95942 5 1.28115 5.23705 0.781048 5.65901C0.280951 6.08097 0 6.65326 0 7.25V20.75C0 21.3467 0.280951 21.919 0.781048 22.341C1.28115 22.7629 1.95942 23 2.66667 23H21.3333C22.8 23 24 21.9875 24 20.75V7.25C24 6.0125 22.8 5 21.3333 5ZM10.6667 17.375H8.66667V15.125H6V17.375H4V10.625H6V13.4375H8.66667V10.625H10.6667V17.375ZM20 16.25C20 16.8687 19.4 17.375 18.6667 17.375H17.6667V19.0625H15.6667V17.375H14.6667C13.9333 17.375 13.3333 16.8687 13.3333 16.25V11.75C13.3333 11.1312 13.9333 10.625 14.6667 10.625H18.6667C19.4 10.625 20 11.1312 20 11.75V16.25ZM15.3333 15.6875H18V12.3125H15.3333V15.6875Z" fill="#8F27CE"/>
</svg>
