<svg width="32" height="32" viewBox="0 0 32 32" fill="none" xmlns="http://www.w3.org/2000/svg">
<g clip-path="url(#clip0_60_563)">
<path d="M5.87652 3.6115C12.1607 -1.53892 21.4478 -1.18052 27.3145 4.6867C33.5618 10.9347 33.5618 21.066 27.3145 27.314C21.0671 33.562 10.9368 33.562 4.68944 27.314C2.77213 25.3993 1.37302 23.0286 0.623568 20.4245C-0.125886 17.8205 -0.20108 15.0686 0.405051 12.4275L0.528239 11.9267L3.62234 12.7427C2.85528 15.6584 3.1419 18.7512 4.43167 21.4762C5.72144 24.2012 7.93158 26.3834 10.6726 27.6383C13.4136 28.8931 16.5096 29.1401 19.4148 28.3357C22.3201 27.5313 24.8482 25.7271 26.5536 23.241C28.259 20.755 29.0323 17.7467 28.7371 14.7464C28.4419 11.746 27.0972 8.94611 24.9401 6.84016C22.7829 4.73421 19.9517 3.45736 16.9453 3.23464C13.939 3.01192 10.9506 3.85763 8.50667 5.62271L8.1547 5.88831L9.78174 7.51551L2.42886 9.21152L4.12469 1.85789L5.87652 3.6115ZM17.6018 6.40031V9.60032H21.6014V12.8003H12.8023C12.6024 12.8 12.4096 12.8745 12.2619 13.0091C12.1141 13.1438 12.0222 13.329 12.0041 13.5281C11.9861 13.7271 12.0432 13.9258 12.1643 14.0849C12.2853 14.2439 12.4616 14.3519 12.6583 14.3875L12.8023 14.4003H19.2016C20.2624 14.4003 21.2797 14.8218 22.0298 15.5719C22.7799 16.3221 23.2012 17.3395 23.2012 18.4004C23.2012 19.4612 22.7799 20.4786 22.0298 21.2288C21.2797 21.9789 20.2624 22.4004 19.2016 22.4004H17.6018V25.6004H14.4021V22.4004H10.4025V19.2004H19.2016C19.4015 19.2007 19.5943 19.1262 19.742 18.9915C19.8898 18.8569 19.9817 18.6717 19.9998 18.4726C20.0178 18.2735 19.9607 18.0749 19.8396 17.9158C19.7186 17.7567 19.5423 17.6488 19.3456 17.6132L19.2016 17.6003H12.8023C11.7415 17.6003 10.7242 17.1789 9.9741 16.4288C9.22403 15.6786 8.80264 14.6612 8.80264 13.6003C8.80264 12.5395 9.22403 11.522 9.9741 10.7719C10.7242 10.0218 11.7415 9.60032 12.8023 9.60032H14.4021V6.40031H17.6018Z" fill="white"/>
</g>
<defs>
<clipPath id="clip0_60_563">
<rect width="32" height="32" fill="white"/>
</clipPath>
</defs>
</svg>
