<svg width="341" height="296" viewBox="0 0 341 296" fill="none" xmlns="http://www.w3.org/2000/svg">
<path d="M159.62 0.382119C222.28 -3.94788 285.09 28.7521 311.03 86.7321L340.83 77.0021L322.89 139.942L269.99 100.422L295.53 91.3021C256.57 16.2721 163.19 -5.81788 92.7295 41.1221C89.9095 43.0021 77.3495 54.3021 76.3095 54.5021C75.4795 54.6621 62.0995 48.3021 62.0195 47.5121C86.4195 21.4721 123.72 2.86212 159.62 0.382119Z" fill="white" fill-opacity="0.5"/>
<path d="M59.9017 49.6421C60.7217 49.4321 74.1917 55.7621 74.1917 56.6321C67.5718 58.5921 51.0017 89.4021 48.9517 89.7721C48.2917 89.8921 38.0917 85.6521 36.1817 85.5121C34.3217 83.2321 57.1717 50.3221 59.8917 49.6321L59.9017 49.6421Z" fill="white" fill-opacity="0.5"/>
<path d="M34.96 87.342L48.03 91.902C46.45 94.072 41.35 110.052 40.43 110.452C39.34 110.922 27.1 109.302 26.75 108.322L34.96 87.342Z" fill="white" fill-opacity="0.5"/>
<path d="M27.06 111.052C27.71 110.902 39.88 112.572 40.13 113.182C38.26 115.702 37.03 132.952 36.18 133.552C35.62 133.952 22.83 132.942 22.5 132.032C23.35 129.082 24.37 111.672 27.06 111.052Z" fill="white" fill-opacity="0.5"/>
<path d="M113 288.5C110.037 287.422 90.5557 276.944 90.61 277.052C64.26 262.212 43.09 239.692 30.71 211.992L0 220.812L19.15 158.482L71.75 198.312L45.6 207.432C82.07 277.362 170.64 302.192 239.27 263.072C242.52 261.222 256.98 249.852 258.12 249.692C260.09 249.422 269.25 255.952 272.11 256.382C273.75 259.092 248.2 276.082 245.35 277.662C209.5 299 154.658 303.786 113 288.5Z" fill="white" fill-opacity="0.5"/>
<path d="M292.18 208.342C293.27 208.052 305.58 211.502 305.86 212.292C304.73 219.492 278.99 254.482 274.54 255.162C273.16 255.372 264.09 249.462 261.77 249.082L292.17 208.342H292.18Z" fill="white" fill-opacity="0.5"/>
<path d="M300.69 187.672C301.49 187.342 314.08 188.572 314.37 189.192C314.13 191.932 308.02 209.722 306.77 210.172C306.09 210.412 294.75 206.412 293.09 205.612C295.05 203.572 299.55 188.142 300.69 187.672Z" fill="white" fill-opacity="0.5"/>
<path d="M305.56 165.172L318.63 166.692C318.73 169.372 316.25 186.502 314.68 187.062C314.03 187.292 302.8 185.302 301 184.932L305.56 165.172Z" fill="white" fill-opacity="0.5"/>
<path d="M127.389 244.222C128.029 243.902 140.729 248.152 141.069 248.782C141.309 249.222 139.419 257.402 138.939 257.602C138.209 257.902 125.839 253.322 124.039 252.432C124.509 251.362 126.989 244.422 127.379 244.222H127.389Z" fill="white" fill-opacity="0.5"/>
<path d="M202.189 40.5222C202.909 40.2822 214.629 45.0622 216.479 45.6922C216.049 46.8922 213.679 53.6922 213.139 53.9022C212.469 54.1622 199.769 49.9922 199.459 49.3422C199.259 48.9222 201.309 40.8222 202.199 40.5222H202.189Z" fill="white" fill-opacity="0.5"/>
<path d="M106.719 232.672C107.429 232.512 119.029 239.562 119.189 240.272C119.279 240.692 115.449 246.672 115.239 247.872L101.559 239.662C102.659 238.842 106.059 232.812 106.729 232.672H106.719Z" fill="white" fill-opacity="0.5"/>
<path d="M89.0781 217.472C89.7681 217.532 98.9881 226.222 99.1081 226.902C99.2181 227.502 94.2681 232.522 93.9381 233.892C92.6581 234.272 82.0781 224.632 82.0781 223.862C82.0781 223.392 88.5881 217.442 89.0681 217.482L89.0781 217.472Z" fill="white" fill-opacity="0.5"/>
<path d="M210.089 244.222C212.479 244.092 215.359 251.242 215.259 251.822C215.079 252.792 201.259 257.472 200.359 256.992C199.979 255.462 197.709 249.872 198.229 248.782C198.499 248.212 209.449 244.252 210.089 244.222Z" fill="white" fill-opacity="0.5"/>
<path d="M225.901 49.6421L238.971 57.2421C239.211 57.8021 234.841 64.7221 234.411 64.8421C233.721 65.0321 222.121 58.5421 221.941 57.8521C221.821 57.3921 225.221 49.7821 225.891 49.6421H225.901Z" fill="white" fill-opacity="0.5"/>
<path d="M95.7698 64.2322C96.3798 65.3322 101.55 70.7722 101.55 71.2222C101.55 71.9322 92.1298 80.8722 90.9098 80.6522C90.4898 80.5722 84.8698 75.6922 85.1298 74.2722C85.3598 73.0122 94.4198 65.9322 95.7698 64.2422V64.2322Z" fill="white" fill-opacity="0.5"/>
<path d="M185.771 250.912C190.871 250.912 189.491 254.842 190.031 259.422L174.521 260.942C174.771 259.462 174.051 252.672 174.821 252.122C175.271 251.802 184.941 250.902 185.771 250.902V250.912Z" fill="white" fill-opacity="0.5"/>
<path d="M139.55 41.1222C141.8 41.4022 143.3 48.2622 142.89 49.3322C142.64 49.9822 130.48 54.0922 129.82 53.8922C129.03 53.6522 126.17 46.3222 126.48 45.6822C128.95 45.2022 137.82 40.9122 139.55 41.1222Z" fill="white" fill-opacity="0.5"/>
<path d="M231.98 232.672C233.4 232.732 236.61 238.462 237.76 239.662L224.69 247.872C224 246.872 220.06 240.712 220.13 240.272C220.23 239.572 231.28 232.642 231.99 232.672H231.98Z" fill="white" fill-opacity="0.5"/>
<path d="M151.111 250.912C160.151 253.372 166.941 247.962 164.791 260.942L149.891 260.032C148.471 259.282 150.201 251.322 151.111 250.912Z" fill="white" fill-opacity="0.5"/>
<path d="M164.479 36.8722C165.439 37.0022 165.929 36.7322 166.609 37.7822C166.359 39.2022 167.069 45.4422 166.309 45.9922C165.709 46.4222 152.439 47.6222 152.019 46.9022C151.659 46.2922 151.139 40.0422 151.109 38.6922C151.599 38.2322 163.819 36.7822 164.489 36.8722H164.479Z" fill="white" fill-opacity="0.5"/>
<path d="M247.181 63.6221L258.431 73.0521C258.491 73.6621 252.521 80.0421 252.051 80.0421C251.361 80.0421 242.091 71.3021 242.021 70.6121C241.931 69.7721 246.591 64.9721 247.191 63.6221H247.181Z" fill="white" fill-opacity="0.5"/>
<path d="M249.618 216.862C250.258 216.792 256.608 222.182 256.608 222.642L245.358 233.282C244.658 231.262 239.818 228.322 240.188 226.292C240.308 225.632 248.948 216.932 249.618 216.862Z" fill="white" fill-opacity="0.5"/>
<path d="M117.049 50.2422C117.639 50.3622 121.169 58.0122 120.999 58.4522C120.749 59.0922 109.819 65.5522 109.139 65.4422C108.409 65.3322 104.779 59.4822 103.969 58.4522C104.069 57.6922 116.289 50.0922 117.039 50.2422H117.049Z" fill="white" fill-opacity="0.5"/>
<path d="M65.3692 104.972C65.7592 104.832 72.7892 107.942 72.9692 108.312C73.2592 108.932 69.6292 121.072 69.0192 121.382C68.2892 121.752 60.5292 120.152 60.1992 119.252C61.1892 117.322 63.9892 105.452 65.3692 104.962V104.972Z" fill="white" fill-opacity="0.5"/>
<path d="M78.1397 83.0822C79.2697 82.7722 85.1697 87.7522 85.1297 88.8622C85.1097 89.5422 78.1897 99.9622 77.5297 100.112C77.0797 100.212 69.9297 95.7522 69.9297 94.9422L78.1397 83.0822Z" fill="white" fill-opacity="0.5"/>
<path d="M271.509 176.122C272.059 175.822 280.109 177.682 280.329 178.252C280.609 178.962 276.119 192.362 275.159 192.542C274.749 192.612 267.759 189.562 267.559 189.202C267.239 188.602 270.909 176.452 271.509 176.132V176.122Z" fill="white" fill-opacity="0.5"/>
<path d="M263.601 197.402C264.041 197.342 269.921 201.652 271.201 201.962L262.991 214.432C261.741 213.342 255.921 210.282 256.001 208.652C256.031 207.972 262.931 197.502 263.601 197.402Z" fill="white" fill-opacity="0.5"/>
<path d="M176.65 36.8721L190.64 38.0921C192.46 38.7821 190.67 46.6021 190.34 46.9121C189.84 47.3821 177.22 46.3921 176.66 46.0021C176.16 45.6521 176.15 37.2621 176.66 36.8821L176.65 36.8721Z" fill="white" fill-opacity="0.5"/>
<path d="M58.6781 129.902C59.0281 129.612 67.0681 131.112 67.4981 132.032C67.7581 132.582 67.1081 143.622 66.8881 144.192C66.4281 145.352 59.4681 147.242 58.9881 146.622C58.5381 144.372 57.7881 130.622 58.6881 129.902H58.6781Z" fill="white" fill-opacity="0.5"/>
<path d="M278.8 151.792C279.81 151.742 280.83 151.832 281.84 151.792L282.45 167.602C282.09 167.872 273.86 166.462 273.63 166.082C273.32 165.562 274 154.482 274.24 153.922C274.43 153.472 278.52 151.812 278.8 151.792Z" fill="white" fill-opacity="0.5"/>
<path d="M173.91 230.842L193.67 225.372C259.91 200.362 265.59 108.642 202.18 76.3919L186.07 69.7019C282.12 87.2919 272.36 227.172 173.91 230.842Z" fill="#F4A61A"/>
<path d="M186.071 69.702L202.181 76.392C265.591 108.642 259.911 200.362 193.671 225.372L173.911 230.842C48.0005 235.532 60.4505 46.702 186.071 69.702Z" fill="#FDDA59"/>
<path d="M202.49 92.8119C128.56 54.4719 63.1303 157.612 130.13 206.522C54.8703 155.972 124.87 45.6519 202.49 92.8119Z" fill="#F4A61A"/>
<path d="M202.489 92.812C229.979 107.062 239.509 145.532 229.249 173.382C215.549 210.562 163.059 230.562 130.129 206.522C63.1394 157.612 128.559 54.472 202.489 92.812Z" fill="#FBBD37"/>
<path d="M161.138 195.582C176.448 198.642 168.588 187.572 170.868 183.112C171.138 182.582 180.018 180.312 182.118 179.162C190.758 174.442 192.908 165.922 190.938 156.662C191.788 155.612 193.818 158.502 193.978 158.792C198.728 167.192 195.488 178.822 187.598 184.032C185.148 185.652 175.448 188.012 175.128 188.592C174.448 189.862 175.818 197.762 175.128 199.542C174.248 201.822 157.548 203.362 161.138 195.592V195.582Z" fill="#F4A61A"/>
<path d="M161.75 134.162C152.46 126.082 160.64 120.882 169.96 121.392C175.13 121.672 180.31 124.782 185.16 126.252C187.02 125.652 186.93 118.932 186.68 117.132C192.85 118.202 190.49 125.712 190.94 130.202C189.62 133.812 182.61 128.202 179.69 127.462C173.31 125.862 162.74 125.302 161.75 134.152V134.162Z" fill="#F4A61A"/>
<path d="M158.71 187.062C153.76 185.582 141.4 184.782 141.68 177.942C143.29 179.142 146.16 180.262 148.06 180.982C154.1 183.272 157.8 180.152 158.7 187.062H158.71Z" fill="#F4A61A"/>
<path d="M172.689 99.5021C173.459 105.692 169.949 108.032 176.339 110.452C181.749 112.502 185.739 110.282 186.679 117.142C186.929 118.952 187.019 125.672 185.159 126.262C180.309 124.792 175.129 121.682 169.959 121.402C160.639 120.892 152.459 126.092 161.749 134.172C171.039 142.252 187.729 141.592 190.939 156.672C192.909 165.932 190.759 174.452 182.119 179.172C180.019 180.322 171.139 182.592 170.869 183.122C168.599 187.572 176.449 198.642 161.139 195.592C160.209 195.402 159.439 195.902 158.709 194.682C158.489 192.262 159.009 189.422 158.709 187.082C157.809 180.172 154.109 183.292 148.069 181.002C146.159 180.282 143.289 179.162 141.689 177.962C136.649 174.182 138.419 166.822 139.559 160.932C144.439 162.642 147.889 166.982 152.939 168.832C160.299 171.542 179.739 173.602 176.959 160.932C175.549 154.512 153.649 148.752 148.379 144.512C142.079 137.252 138.679 129.992 143.519 120.492C147.279 113.102 160.139 111.092 160.549 110.152C163.669 102.952 153.209 93.3321 171.799 95.8621C173.249 96.8121 172.549 98.2121 172.709 99.5121L172.689 99.5021Z" fill="#FAFAFB"/>
<path d="M176.951 160.912L154.151 150.572C151.211 149.112 150.201 146.592 148.371 144.492C153.631 148.722 175.541 154.492 176.951 160.912Z" fill="#F4A61A"/>
<path d="M176.339 110.442C169.949 108.022 173.469 105.692 172.689 99.4921C178.079 98.8721 175.889 107.002 176.339 110.442Z" fill="#F4A61A"/>
</svg>
