<svg width="301" height="302" viewBox="0 0 301 302" fill="none" xmlns="http://www.w3.org/2000/svg">
<path d="M116.052 284.802L142.989 314.243C136.203 319.615 129.347 324.849 122.319 329.904C112.792 336.748 102.994 343.488 93.1898 349.95C89.0524 352.68 64.6839 366.246 64.0607 368.745C52.3698 372.923 42.9179 377.429 29.9229 375.011C17.8107 372.755 12.6635 366.073 7.06037 356.217C3.18264 325.622 33.137 318.571 55.2954 309.234C56.8765 308.571 58.6538 308.046 60.3041 307.353C68.302 304 76.6922 301.248 84.7362 297.959C95.198 293.677 105.648 289.222 116.058 284.802H116.052Z" fill="#F8BD93"/>
<path d="M177.44 158.268C177.44 159.942 178.069 161.886 178.069 162.654C178.069 170.075 177.44 177.709 177.44 185.205C161.888 200.485 138.281 201.171 122.944 185.205C122.944 178.084 121.691 170.398 121.691 163.283C121.691 159.682 122.32 155.747 122.32 152.007C133.215 171.679 163.331 176.416 177.445 158.274L177.44 158.268Z" fill="#F8BD93"/>
<path d="M177.435 158.268C163.321 176.416 133.205 171.673 122.311 152.002V144.483C138.502 161.794 161.601 161.338 177.435 143.854C177.441 148.649 177.424 153.467 177.435 158.263V158.268Z" fill="#F19870"/>
<path d="M196.864 101.891C197.314 97.938 195.646 91.9195 196.235 87.482C196.72 83.8697 199.166 77.2453 199.991 73.0732C217.499 77.2914 209.564 97.1475 196.858 101.891H196.864Z" fill="#F19870"/>
<path d="M99.1354 73.0791C100.047 77.1703 100.774 81.2039 101.64 85.2951C101.79 86.0106 102.309 88.5438 103.521 88.1111C103.434 89.0978 102.326 88.5381 102.269 89.0517C102.205 89.6575 102.205 100.437 102.269 101.268C90.3874 97.413 82.4935 75.7681 99.1354 73.0791Z" fill="#F19870"/>
<path d="M151.133 308.605C148.058 309.5 145.461 312.287 142.991 314.243L116.055 284.802C117.734 284.087 119.454 283.163 121.063 282.298C131.017 291.121 140.787 300.232 151.133 308.605Z" fill="#AB50E2"/>
<path d="M238.833 229.677C238.498 229.758 235.353 234.351 233.824 234.374C241.787 236.503 240.241 241.201 234.453 245.021L236.957 247.837C236.83 247.992 236.698 250.456 235.705 251.593C227.701 260.797 208.913 281.276 196.553 279.153C188.855 277.831 191.036 271.097 182.461 282.598C193.564 287.878 204.972 292.552 216.288 297.318C223.691 300.44 231.47 302.95 238.838 306.089C240.287 306.707 241.764 307.347 243.224 307.97C263.242 316.51 301.678 326.453 293.963 356.205C291.551 365.513 280.963 373.286 271.724 375C259.323 377.296 249.289 373.286 238.209 368.733C218.486 355.167 197.499 343.274 178.076 329.269C169.039 322.754 159.807 315.616 151.139 308.599C140.793 300.221 131.024 291.115 121.07 282.292C120.06 281.397 115.894 276.158 115.12 276.025C113.378 275.725 106.603 280.722 98.8363 278.529C95.9857 277.727 70.9997 255.788 68.4549 252.534C67.2662 251.016 66.1237 249.343 66.5738 247.208C67.3989 246.348 68.5819 245.967 69.7071 245.644C64.231 242.562 61.1149 236.752 69.0781 234.997C59.026 226.734 68.0337 226.873 69.7071 224.351C69.9264 224.016 69.4417 220.387 69.6552 220.092C71.7095 217.894 71.2824 217.952 73.8272 217.588C79.6669 216.751 79.3207 213.958 83.8043 215.262C84.9699 215.603 96.003 227.028 96.9609 227.167C97.7803 227.282 100.388 225.211 103.228 225.915C107.14 226.884 120.083 243.22 121.704 247.837C121.918 249.816 122.183 251.795 122.333 253.786C122.934 254.998 127.181 256.971 128.6 257.86C130.816 259.245 150.199 268.979 151.463 269.135C155.496 269.632 173.673 258.847 178.087 255.979C179.155 255.286 182.986 254.646 183.725 253.786C184.931 252.378 189.259 239.273 191.244 236.244C192.138 234.882 199.34 226.959 200.327 226.532C204.597 224.714 206.132 227.271 207.216 227.161C208.145 227.069 219.248 214.916 220.996 214.634C224.412 214.08 226.311 217.651 226.634 217.767C227.667 218.13 229.063 216.347 231.643 217.767C234.505 219.342 233.397 223.024 233.835 223.716C234.222 224.322 240.668 225.384 238.844 229.665L238.833 229.677Z" fill="#F8BD93"/>
<path d="M71.2656 225.921C78.8191 231.657 86.4765 237.329 92.8759 244.398C84.3183 240.612 77.3534 232.724 71.2656 225.921Z" fill="#F19870"/>
<path d="M80.0352 222.787L97.8889 238.137C90.947 235.009 84.7727 228.569 80.0352 222.787Z" fill="#F19870"/>
<path d="M72.5176 248.472L84.7336 258.807C84.1912 260.491 72.7369 250.139 72.5176 248.472Z" fill="#F19870"/>
<path d="M232.883 224.669C227.846 231.98 220.056 237.618 213.154 243.146L232.883 224.669Z" fill="#F19870"/>
<path d="M224.74 220.912L218.474 228.425L206.887 238.137L224.74 220.912Z" fill="#F19870"/>
<path d="M231.005 248.472L222.551 257.554L220.047 258.183L231.005 248.472Z" fill="#F19870"/>
<path d="M204.692 227.802C206.1 228.604 201.986 231.801 201.559 232.188C200.18 233.44 197.352 235.471 195.609 236.261L204.692 227.808V227.802Z" fill="#F19870"/>
<path d="M194.357 58.6706C176.832 57.3607 157.992 55.2083 141.425 49.2763C140.374 48.9012 137.847 48.2492 137.98 46.7719C156.433 50.4073 175.412 50.5285 193.416 44.2676C189.654 49.0859 194.057 54.4466 194.357 58.6763V58.6706Z" fill="#F19870"/>
<path d="M137.976 46.7663C137.843 48.2435 140.371 48.8956 141.421 49.2707C157.988 55.2027 176.822 57.3608 194.353 58.6649C194.959 67.2513 193.574 76.8071 194.353 85.2897C194.509 87.0035 193.747 87.771 196.234 87.4824C195.64 91.9141 197.307 97.9385 196.863 101.891C195.299 115.613 186.748 133.588 177.446 143.86C161.612 161.338 138.512 161.8 122.321 144.489C113.844 135.423 103.203 113.605 102.274 101.268C102.211 100.437 102.211 89.6579 102.274 89.052C102.332 88.5384 103.44 89.0982 103.526 88.1114C103.526 88.0479 104.738 88.3192 104.779 87.7998C105.511 79.1211 104.432 64.7008 106.031 57.1069C106.896 52.9926 113.186 45.7968 112.297 40.1938L113.861 39.2532C121.628 42.6577 129.643 45.1275 137.976 46.772V46.7663Z" fill="#F8BD93"/>
<path d="M134.36 128.008C131.366 127.807 137.921 125.493 139.369 125.169C149.277 122.936 161.089 124.338 165.994 127.535L134.36 128.008Z" fill="#F0F0EE"/>
<path d="M128.263 71.1986C129.452 71.2274 136.607 71.5967 137.034 71.8275C137.9 72.2892 138.679 76.1092 137.034 76.8363C135.984 77.3037 115.343 77.0786 114.795 75.8957C112.383 70.7081 124.784 71.1178 128.263 71.1986Z" fill="#2E3152"/>
<path d="M163.97 71.8277C164.934 71.4526 183.694 71.4122 184.64 71.8277C185.731 72.3066 185.904 75.2091 185.581 75.9016C185.09 76.9576 163.653 77.5 162.718 76.8422C161.731 76.1439 162.424 72.4278 163.97 71.8334V71.8277Z" fill="#2E3152"/>
<path d="M127.637 81.2217C135.606 79.1963 135.825 95.0246 127.637 93.1261C123.332 92.1278 123.436 82.295 127.637 81.2217Z" fill="#2E3152"/>
<path d="M170.86 81.2218C178.148 79.5138 177.703 91.8452 173.993 93.1262C166.561 95.6825 165.591 82.4625 170.86 81.2218Z" fill="#2E3152"/>
<path d="M147.679 92.4973C150.87 93.6629 150.281 109.987 148.931 110.039C145.792 105.088 146.433 98.0023 147.679 92.4973Z" fill="#F19870"/>
<path d="M199.998 73.079C199.172 77.251 196.72 83.8754 196.241 87.4877C193.754 87.7763 194.522 87.0088 194.36 85.295C193.581 76.8124 194.966 67.2566 194.36 58.6702C194.06 54.4405 189.657 49.0797 193.419 44.2614C175.416 50.5223 156.437 50.4069 137.983 46.7658C129.65 45.1212 121.635 42.6515 113.868 39.2469L112.304 40.1875C113.193 45.7906 106.903 52.9863 106.038 57.1006C104.439 64.7003 105.513 79.1148 104.786 87.7936C104.739 88.3129 103.539 88.0417 103.533 88.1052C102.322 88.5379 101.808 86.0047 101.652 85.2892C100.787 81.2037 100.06 77.1644 99.1479 73.0732C92.0329 41.1627 89.4305 -4.8334 137.048 0.41192C151.053 1.95263 185.289 27.6945 186.535 1.6641C198.763 9.51766 205.156 20.5623 206.264 35.1788C207.32 49.097 202.6 59.957 199.998 73.079Z" fill="#2E3152"/>
<path d="M189.668 13.5686C191.572 20.6432 186.407 26.754 180.896 30.4817C165.911 40.6262 145.553 38.5488 131.098 28.918C151.369 36.5003 181.416 38.7161 189.668 13.5686Z" fill="#414568"/>
<path d="M130.777 18.5771C131.342 18.5367 140.24 21.6354 140.8 21.7104C145.18 22.2874 152.162 21.6354 156.461 22.3394C156.64 22.3682 159.692 23.6608 159.277 24.5321C156.836 28.3695 132.594 22.0047 128.584 19.5234C129.323 19.5003 130.656 18.5944 130.777 18.5828V18.5771Z" fill="#414568"/>
<path d="M196.554 17.9538C199.174 25.4553 197.535 36.3557 189.035 38.6234L195.613 27.6596L196.554 17.948V17.9538Z" fill="#414568"/>
<path d="M104.149 172.677L93.5026 213.704L121.38 197.103L122.32 203.369C122.337 216.266 121.443 229.383 121.691 242.204C121.726 244.028 121.501 246.071 121.691 247.842C120.064 243.22 107.127 226.884 103.214 225.92C100.381 225.216 97.7727 227.294 96.9475 227.173C95.9896 227.034 84.9566 215.609 83.7909 215.268C79.3073 213.958 78.7418 216.797 75.9605 218.401C71.523 215.909 70.894 220.485 69.6938 222.158C69.4803 222.452 69.9131 224.016 69.6938 224.351C68.0204 226.878 59.0127 226.734 69.0648 234.997C61.1016 236.751 64.2119 242.568 69.6938 245.644C68.5686 245.967 67.3914 246.353 66.5604 247.207C66.4566 247.317 65.5333 246.942 65.3082 247.519C63.4963 252.112 77.0684 263.382 79.717 268.189C85.147 278.05 81.7886 286.85 96.0012 291.369C93.2371 294.029 89.3421 294.058 86.2896 295.442C84.8123 296.112 83.3005 295.956 84.7258 297.947C76.6875 301.236 68.2915 303.988 60.2937 307.341L59.9821 262.239C58.453 264.259 55.1408 267.635 54.656 270.07C52.6652 280.122 55.6485 298.414 55.285 309.222C33.1266 318.559 3.17804 325.61 7.04999 356.205C-3.59068 337.492 0.356274 315.743 2.66445 294.502C5.55543 267.941 11.0835 240.318 22.082 215.886C33.519 190.484 49.128 188.718 74.3852 180.807C84.1545 177.743 94.2989 175.498 104.137 172.665L104.149 172.677Z" fill="#AB50E2"/>
<path d="M300.215 324.266C300.786 335.657 302.217 346.886 293.948 356.211C301.663 326.459 263.226 316.516 243.209 307.976L241.957 269.453L236.63 262.251L238.823 306.101C231.454 302.967 223.676 300.451 216.272 297.329L237.571 257.554C237.404 255.707 238.408 251.985 235.69 251.605C236.682 250.468 236.815 247.998 236.942 247.848C239.423 244.784 247.935 239.937 246.965 235.009C246.579 233.053 240.577 229.256 238.823 229.683C240.641 225.395 234.195 224.339 233.814 223.733C233.376 223.041 234.484 219.359 231.622 217.784C229.037 216.365 227.646 218.148 226.613 217.784C226.29 217.669 224.391 214.097 220.975 214.651C219.227 214.933 208.119 227.086 207.196 227.178C206.111 227.288 204.576 224.732 200.306 226.549C199.313 226.971 192.117 234.899 191.223 236.261C189.238 239.285 184.91 252.389 183.704 253.803C182.965 254.663 179.134 255.303 178.066 255.996V197.114C179.809 197.357 198.373 210.196 202.181 212.146C203.122 212.625 205.493 214.437 206.255 213.087L195.608 172.682C213.895 178.078 234.132 182.821 251.674 190.224C254.963 191.609 261.53 194.102 264.202 195.862C285.368 209.815 298.94 298.755 300.221 324.277L300.215 324.266Z" fill="#AB50E2"/>
<path d="M122.948 185.204C122.948 188.793 122.337 192.752 122.319 196.479C122.308 198.77 122.319 201.079 122.319 203.369L121.379 197.103L93.502 213.704L104.148 172.676C106.566 167.552 116.889 166.392 121.69 163.282C121.69 170.403 122.943 178.089 122.943 185.204H122.948Z" fill="#8F27CE"/>
<path d="M195.609 172.677L206.255 213.081C205.493 214.437 203.122 212.625 202.181 212.141C198.373 210.19 179.803 197.351 178.066 197.109C177.876 197.08 177.634 197.091 177.438 197.109V185.204C177.438 177.708 178.061 170.074 178.066 162.653C181.944 165.481 193.779 168.753 195.609 172.677Z" fill="#8F27CE"/>
<path d="M216.276 297.329C204.96 292.563 193.552 287.883 182.449 282.609C191.024 271.109 188.843 277.843 196.541 279.164C208.901 281.288 227.689 260.808 235.693 251.604C238.411 251.991 237.407 255.707 237.574 257.554L216.276 297.329Z" fill="#8F27CE"/>
<path d="M66.5675 247.219C66.1174 249.348 67.26 251.027 68.4487 252.545C70.9934 255.8 95.9794 277.739 98.83 278.541C106.597 280.734 113.371 275.736 115.114 276.036C115.887 276.169 120.054 281.409 121.063 282.303C119.454 283.174 117.734 284.098 116.055 284.807C105.645 289.228 95.1946 293.677 84.7328 297.964C83.3075 295.967 84.8251 296.129 86.2966 295.46C89.3434 294.081 93.2384 294.046 96.0083 291.386C81.7957 286.868 85.1541 278.068 79.7241 268.206C77.0755 263.399 63.5092 252.13 65.3153 247.536C65.5461 246.959 66.4636 247.329 66.5675 247.225V247.219Z" fill="#8F27CE"/>
<path d="M243.213 307.982C241.753 307.358 240.276 306.718 238.828 306.1L236.635 262.251L241.961 269.452L243.213 307.976V307.982Z" fill="#8F27CE"/>
<path d="M236.944 247.842L234.44 245.026C240.227 241.206 241.774 236.509 233.811 234.38C235.34 234.351 238.49 229.763 238.819 229.683C240.579 229.256 246.58 233.053 246.961 235.009C247.931 239.942 239.425 244.784 236.938 247.848L236.944 247.842Z" fill="#8F27CE"/>
<path d="M60.3021 307.353C58.6518 308.045 56.8687 308.564 55.2934 309.234C55.6627 298.426 52.6736 280.134 54.6644 270.081C55.1491 267.646 58.4556 264.271 59.9905 262.251L60.3021 307.353Z" fill="#8F27CE"/>
<path d="M177.438 197.104C177.628 197.086 177.876 197.075 178.067 197.104V255.985C173.658 258.853 155.481 269.632 151.442 269.142C150.178 268.986 130.79 259.251 128.58 257.866C129.699 252.719 128.205 242.494 121.69 242.205C121.436 229.378 122.336 216.262 122.319 203.37C122.319 201.08 122.307 198.771 122.319 196.48C133.9 205.39 147.772 207.929 162.094 204.623C166.059 203.705 176.491 197.19 177.444 197.104H177.438Z" fill="white"/>
<path d="M128.581 257.866C127.161 256.977 122.92 255.004 122.314 253.792C122.17 251.801 121.904 249.822 121.685 247.843C121.494 246.071 121.719 244.028 121.685 242.205C128.2 242.493 129.694 252.719 128.575 257.866H128.581Z" fill="#BAD9ED"/>
<path d="M177.439 185.205V197.109C176.493 197.196 166.06 203.71 162.09 204.628C147.768 207.934 133.89 205.395 122.314 196.486C122.332 192.758 122.943 188.8 122.943 185.21C138.287 201.177 161.888 200.49 177.439 185.21V185.205Z" fill="#BAD9ED"/>
</svg>
