<svg width="48" height="48" viewBox="0 0 48 48" fill="none" xmlns="http://www.w3.org/2000/svg">
<path d="M26.5981 6.2959L43.8661 36.2039C44.1294 36.66 44.268 37.1773 44.268 37.7039C44.268 38.2305 44.1294 38.7478 43.8661 39.2039C43.6028 39.6599 43.2241 40.0386 42.7681 40.3019C42.312 40.5653 41.7947 40.7039 41.2681 40.7039H6.7321C6.2055 40.7039 5.68818 40.5653 5.23213 40.3019C4.77608 40.0386 4.39738 39.6599 4.13408 39.2039C3.87079 38.7478 3.73217 38.2305 3.73218 37.7039C3.73218 37.1773 3.8708 36.66 4.1341 36.2039L21.4021 6.2959C22.5561 4.2959 25.4421 4.2959 26.5981 6.2959ZM24.0001 29.9999C23.4697 29.9999 22.961 30.2106 22.5859 30.5857C22.2108 30.9608 22.0001 31.4695 22.0001 31.9999C22.0001 32.5303 22.2108 33.039 22.5859 33.4141C22.961 33.7892 23.4697 33.9999 24.0001 33.9999C24.5305 33.9999 25.0392 33.7892 25.4143 33.4141C25.7894 33.039 26.0001 32.5303 26.0001 31.9999C26.0001 31.4695 25.7894 30.9608 25.4143 30.5857C25.0392 30.2106 24.5305 29.9999 24.0001 29.9999ZM24.0001 15.9999C23.5102 16 23.0374 16.1798 22.6714 16.5053C22.3053 16.8308 22.0714 17.2794 22.0141 17.7659L22.0001 17.9999V25.9999C22.0007 26.5097 22.1959 27 22.5458 27.3706C22.8957 27.7413 23.374 27.9644 23.8829 27.9942C24.3918 28.0241 24.8929 27.8586 25.2838 27.5314C25.6747 27.2042 25.9259 26.7401 25.9861 26.2339L26.0001 25.9999V17.9999C26.0001 17.4695 25.7894 16.9608 25.4143 16.5857C25.0392 16.2106 24.5305 15.9999 24.0001 15.9999Z" fill="#511B72"/>
</svg>
