<svg width="64" height="64" viewBox="0 0 64 64" fill="none" xmlns="http://www.w3.org/2000/svg">
<path d="M35.4645 8.39453L58.4885 48.2719C58.8395 48.8799 59.0244 49.5697 59.0244 50.2718C59.0244 50.974 58.8396 51.6637 58.4885 52.2718C58.1374 52.8799 57.6325 53.3848 57.0244 53.7359C56.4164 54.087 55.7266 54.2718 55.0245 54.2719H8.97646C8.27432 54.2718 7.58456 54.087 6.9765 53.7359C6.36843 53.3848 5.8635 52.8799 5.51244 52.2718C5.16137 51.6637 4.97656 50.974 4.97656 50.2718C4.97657 49.5697 5.16139 48.8799 5.51246 48.2719L28.5365 8.39453C30.0751 5.72786 33.9231 5.72786 35.4645 8.39453ZM32.0005 39.9999C31.2932 39.9999 30.6149 40.2808 30.1148 40.7809C29.6147 41.281 29.3338 41.9593 29.3338 42.6665C29.3338 43.3738 29.6147 44.0521 30.1148 44.5522C30.6149 45.0522 31.2932 45.3332 32.0005 45.3332C32.7077 45.3332 33.386 45.0522 33.8861 44.5522C34.3862 44.0521 34.6671 43.3738 34.6671 42.6665C34.6671 41.9593 34.3862 41.281 33.8861 40.7809C33.386 40.2808 32.7077 39.9999 32.0005 39.9999ZM32.0005 21.3332C31.3473 21.3333 30.7169 21.5731 30.2288 22.0071C29.7407 22.4411 29.4289 23.0392 29.3525 23.6879L29.3338 23.9999V34.6665C29.3345 35.3462 29.5948 36 30.0614 36.4942C30.528 36.9884 31.1657 37.2858 31.8442 37.3257C32.5227 37.3655 33.1908 37.1447 33.712 36.7085C34.2332 36.2723 34.5682 35.6535 34.6485 34.9785L34.6671 34.6665V23.9999C34.6671 23.2926 34.3862 22.6143 33.8861 22.1142C33.386 21.6142 32.7077 21.3332 32.0005 21.3332Z" fill="white"/>
</svg>
