<svg width="80" height="80" viewBox="0 0 80 80" fill="none" xmlns="http://www.w3.org/2000/svg">
<path d="M44.3301 10.4932L73.1101 60.3398C73.5489 61.0999 73.78 61.9621 73.78 62.8398C73.78 63.7175 73.549 64.5797 73.1101 65.3398C72.6713 66.0999 72.0401 66.7311 71.2801 67.1699C70.52 67.6088 69.6578 67.8398 68.7801 67.8398H11.2201C10.3424 67.8398 9.48021 67.6088 8.72013 67.1699C7.96005 66.7311 7.32888 66.0999 6.89006 65.3398C6.45123 64.5797 6.22021 63.7175 6.22021 62.8398C6.22022 61.9621 6.45125 61.0999 6.89009 60.3398L35.6701 10.4932C37.5934 7.15983 42.4034 7.15983 44.3301 10.4932ZM40.0001 49.9998C39.116 49.9998 38.2682 50.351 37.6431 50.9761C37.0179 51.6013 36.6668 52.4491 36.6668 53.3332C36.6668 54.2172 37.0179 55.0651 37.6431 55.6902C38.2682 56.3153 39.116 56.6665 40.0001 56.6665C40.8841 56.6665 41.732 56.3153 42.3571 55.6902C42.9822 55.0651 43.3334 54.2172 43.3334 53.3332C43.3334 52.4491 42.9822 51.6013 42.3571 50.9761C41.732 50.351 40.8841 49.9998 40.0001 49.9998ZM40.0001 26.6665C39.1836 26.6666 38.3956 26.9664 37.7855 27.5089C37.1754 28.0514 36.7856 28.799 36.6901 29.6098L36.6668 29.9998V43.3332C36.6677 44.1828 36.993 44.9999 37.5762 45.6177C38.1595 46.2355 38.9566 46.6073 39.8047 46.6571C40.6529 46.7069 41.488 46.4309 42.1395 45.8856C42.791 45.3403 43.2097 44.5668 43.3101 43.7232L43.3334 43.3332V29.9998C43.3334 29.1158 42.9822 28.2679 42.3571 27.6428C41.732 27.0177 40.8841 26.6665 40.0001 26.6665Z" fill="#8F27CE"/>
</svg>
