<svg width="309" height="598" viewBox="0 0 309 598" fill="none" xmlns="http://www.w3.org/2000/svg">
<path d="M306.152 144.025C306.889 144.393 307.38 145.106 307.494 145.89L308.485 152.569C308.624 153.513 308.22 154.448 307.475 155.001C306.694 155.561 305.685 155.633 304.845 155.202C304.814 155.194 301.116 153.399 297.267 154.711C294.505 155.664 292.233 158.031 290.501 161.758C285.883 171.672 278.839 171.033 273.715 170.549C268.854 170.102 266.62 170.102 264.908 174.706C263.008 179.824 260.016 183.161 256.005 184.635C249.604 187.007 243.162 183.485 242.893 183.345C242.208 182.973 241.744 182.284 241.63 181.501L240.639 174.822C240.581 174.465 240.607 174.112 240.693 173.793C240.791 173.423 240.972 173.08 241.222 172.79C241.472 172.5 241.784 172.271 242.135 172.12C242.487 171.968 242.867 171.899 243.249 171.916C243.63 171.934 244.003 172.038 244.338 172.221C244.386 172.234 249.082 174.758 253.291 173.184C255.834 172.223 257.821 169.899 259.176 166.243C262.325 157.8 268.599 158.386 273.176 158.809C278.005 159.248 281.812 159.618 284.919 152.925C287.253 147.906 290.516 144.641 294.63 143.229C300.557 141.226 305.93 143.897 306.152 144.025Z" fill="#FFCE4F"/>
<path d="M308.067 449.758C308.684 450.304 308.974 451.12 308.881 451.906L308.109 458.614C308 459.562 307.367 460.361 306.505 460.702C305.605 461.041 304.612 460.849 303.912 460.216C303.884 460.2 300.776 457.509 296.719 457.78C293.804 457.986 290.997 459.684 288.36 462.836C281.333 471.216 274.695 468.776 269.87 466.983C265.291 465.293 263.133 464.714 260.288 468.719C257.128 473.17 253.374 475.62 249.118 476.005C242.321 476.64 237.01 471.571 236.787 471.365C236.221 470.829 235.952 470.044 236.044 469.258L236.816 462.55C236.853 462.189 236.969 461.856 237.134 461.57C237.325 461.238 237.589 460.953 237.905 460.738C238.221 460.523 238.582 460.382 238.961 460.326C239.339 460.271 239.725 460.303 240.089 460.418C240.452 460.534 240.785 460.731 241.062 460.995C241.104 461.02 244.988 464.673 249.461 464.242C252.166 463.972 254.686 462.242 256.942 459.061C262.169 451.72 268.077 453.91 272.389 455.503C276.94 457.177 280.521 458.52 285.254 452.859C288.808 448.615 292.804 446.306 297.143 446.007C303.387 445.606 307.886 449.577 308.067 449.758Z" fill="#FFCE4F"/>
<path d="M241.581 104.826C243.616 109.358 245.843 109.192 250.714 108.4C255.844 107.539 262.894 106.377 268.184 116.08C270.155 119.693 272.6 121.926 275.418 122.698C279.403 123.801 283.029 121.687 283.065 121.679C283.885 121.188 284.896 121.199 285.709 121.694C286.517 122.206 286.98 123.109 286.893 124.074L286.338 130.894C286.274 131.709 285.817 132.453 285.116 132.889C284.896 133.003 279.659 136.124 273.585 134.479C269.367 133.349 265.878 130.265 263.182 125.382C259.621 118.847 255.809 119.472 250.971 120.273C246.387 121.021 240.125 122.065 236.4 113.769C234.788 110.165 232.649 107.945 230.02 107.171C225.676 105.869 221.121 108.756 221.096 108.784C220.28 109.328 219.232 109.325 218.415 108.846C217.57 108.342 217.096 107.418 217.187 106.437L217.742 99.6172C217.749 99.4631 217.772 99.3132 217.811 99.1677C217.971 98.5693 218.356 98.031 218.883 97.6695C219.152 97.4989 225.389 93.4674 231.986 95.4082C236.089 96.6464 239.318 99.7996 241.581 104.826ZM233.071 140.438C240.207 138.502 245.164 141.945 245.383 142.09C245.959 142.504 246.354 143.148 246.417 143.875L247.175 150.284C247.29 151.268 246.82 152.251 245.96 152.766C245.116 153.285 244.02 153.269 243.193 152.701C243.061 152.614 239.865 150.492 235.134 151.789C232.979 152.391 231.917 153.597 230.574 155.144C229.054 156.903 227.159 159.099 223.512 159.752C220.115 160.367 217.296 159.213 214.796 158.214C212.517 157.291 210.561 156.507 208.296 156.94C205.874 157.383 204.331 158.842 202.539 160.528C200.766 162.203 198.764 164.093 195.744 165.034C193.174 165.836 190.629 165.328 188.148 164.836C184.113 164.05 181.508 163.699 178.812 166.703C178.15 167.444 177.108 167.737 176.155 167.447C175.205 167.141 174.516 166.314 174.406 165.314L173.647 158.906C173.597 158.58 173.636 158.244 173.718 157.936C173.822 157.548 174.018 157.202 174.29 156.894C179.032 151.577 184.44 152.628 188.386 153.425C190.33 153.807 192.156 154.175 193.494 153.737C195.403 153.156 196.75 151.853 198.329 150.386C200.416 148.432 202.743 146.23 206.633 145.505C210.361 144.805 213.341 146.002 215.956 147.084C218.08 147.948 219.928 148.686 221.881 148.325C223.684 148.011 224.527 147.11 225.998 145.407C227.542 143.619 229.421 141.418 233.071 140.438ZM241.63 218.515C242.463 215.791 243.428 212.704 246.454 210.135C249.366 207.674 252.525 207.238 255.349 206.833C257.636 206.51 259.6 206.238 261.131 204.95C262.687 203.634 262.93 202.087 263.268 200.375C263.398 199.699 263.548 199.011 263.726 198.348C264.12 196.876 264.878 194.687 266.993 192.567C272.234 187.315 278.265 187.839 278.518 187.855C279.222 187.922 279.876 188.305 280.309 188.872L284.128 194.056C284.722 194.856 284.785 195.965 284.294 196.839C283.802 197.712 282.841 198.218 281.835 198.121C281.799 198.129 277.904 197.848 274.4 201.364C273.419 202.332 272.856 203.342 272.457 204.83C272.306 205.396 272.186 205.971 272.066 206.545C271.941 207.205 271.804 207.845 271.631 208.491C271.197 210.109 270.417 212.188 268.182 214.05C265.52 216.284 262.507 216.69 259.828 217.064C257.4 217.401 255.306 217.707 253.529 219.207C251.658 220.803 251.027 222.835 250.294 225.187C249.569 227.506 248.758 230.149 246.587 232.479C244.736 234.445 242.274 235.293 239.894 236.094C236.114 237.369 233.759 238.333 232.806 241.891L232.692 242.38C232.488 243.331 231.724 244.132 230.736 244.353C229.769 244.561 228.753 244.185 228.164 243.369L224.344 238.185C223.92 237.586 223.761 236.833 223.915 236.129C223.964 235.882 224.013 235.635 224.078 235.392C225.79 229.004 230.803 227.296 234.469 226.06C236.338 225.434 238.119 224.819 239.081 223.795C240.442 222.374 240.991 220.58 241.63 218.515Z" fill="#8F27CE"/>
<path d="M204.634 285.846C206.669 290.378 208.897 290.212 213.767 289.42C218.897 288.558 225.947 287.396 231.237 297.099C233.208 300.713 235.653 302.945 238.471 303.718C242.456 304.82 246.082 302.706 246.119 302.699C246.938 302.208 247.949 302.219 248.762 302.714C249.57 303.225 250.033 304.129 249.946 305.094L249.391 311.913C249.327 312.728 248.87 313.472 248.169 313.909C247.949 314.023 242.712 317.144 236.638 315.499C232.42 314.369 228.932 311.285 226.235 306.402C222.674 299.866 218.863 300.492 214.024 301.293C209.44 302.04 203.178 303.084 199.453 294.788C197.841 291.184 195.702 288.965 193.073 288.191C188.73 286.888 184.174 289.776 184.149 289.804C183.333 290.348 182.285 290.344 181.468 289.865C180.624 289.362 180.149 288.437 180.24 287.456L180.795 280.637C180.802 280.483 180.825 280.333 180.864 280.187C181.025 279.589 181.41 279.051 181.936 278.689C182.205 278.518 188.443 274.487 195.039 276.428C199.142 277.666 202.371 280.819 204.634 285.846ZM196.124 321.457C203.261 319.521 208.217 322.964 208.436 323.109C209.012 323.524 209.407 324.167 209.47 324.895L210.228 331.303C210.343 332.287 209.873 333.271 209.013 333.786C208.169 334.305 207.073 334.289 206.246 333.72C206.115 333.633 202.919 331.511 198.187 332.809C196.032 333.41 194.97 334.616 193.627 336.163C192.107 337.923 190.212 340.119 186.565 340.771C183.169 341.386 180.349 340.232 177.849 339.233C175.57 338.31 173.614 337.526 171.349 337.959C168.927 338.402 167.384 339.861 165.592 341.548C163.819 343.222 161.817 345.112 158.798 346.054C156.228 346.856 153.682 346.347 151.201 345.856C147.166 345.069 144.561 344.718 141.865 347.722C141.203 348.464 140.162 348.757 139.208 348.466C138.259 348.16 137.569 347.334 137.459 346.334L136.701 339.925C136.65 339.6 136.689 339.263 136.771 338.956C136.875 338.568 137.071 338.222 137.343 337.913C142.085 332.597 147.493 333.647 151.44 334.445C153.383 334.827 155.21 335.195 156.548 334.756C158.456 334.175 159.803 332.872 161.382 331.406C163.47 329.452 165.796 327.25 169.686 326.524C173.415 325.824 176.394 327.022 179.009 328.104C181.133 328.967 182.981 329.705 184.934 329.344C186.737 329.03 187.58 328.129 189.051 326.426C190.596 324.639 192.475 322.438 196.124 321.457ZM204.684 399.534C205.517 396.811 206.481 393.724 209.507 391.155C212.419 388.693 215.578 388.257 218.403 387.852C220.69 387.529 222.653 387.258 224.185 385.97C225.741 384.653 225.983 383.106 226.322 381.394C226.451 380.718 226.601 380.03 226.779 379.367C227.173 377.895 227.931 375.707 230.047 373.587C235.287 368.335 241.318 368.859 241.572 368.874C242.276 368.942 242.929 369.325 243.362 369.892L247.181 375.075C247.775 375.875 247.839 376.985 247.347 377.858C246.855 378.732 245.894 379.237 244.889 379.141C244.852 379.148 240.957 378.867 237.453 382.383C236.472 383.351 235.909 384.362 235.51 385.85C235.359 386.416 235.239 386.99 235.12 387.565C234.994 388.225 234.857 388.864 234.684 389.511C234.251 391.128 233.47 393.207 231.235 395.07C228.574 397.303 225.56 397.709 222.881 398.083C220.453 398.421 218.36 398.727 216.583 400.227C214.711 401.822 214.081 403.855 213.347 406.206C212.623 408.526 211.811 411.168 209.64 413.499C207.79 415.464 205.328 416.313 202.947 417.114C199.167 418.389 196.812 419.352 195.859 422.91L195.745 423.4C195.542 424.351 194.777 425.151 193.79 425.372C192.823 425.581 191.806 425.205 191.217 424.388L187.397 419.204C186.973 418.606 186.814 417.852 186.968 417.148C187.017 416.901 187.066 416.654 187.131 416.412C188.843 410.024 193.856 408.316 197.522 407.08C199.392 406.454 201.172 405.839 202.134 404.814C203.495 403.393 204.044 401.599 204.684 399.534Z" fill="#8F27CE"/>
<path d="M41.3107 50.7479C46.2527 51.2519 47.2229 49.2398 48.9721 44.6255C50.791 39.7521 53.3097 33.066 64.358 33.336C68.473 33.4357 71.6286 32.435 73.7068 30.3804C76.6539 27.4806 76.6364 23.2833 76.6481 23.248C76.6323 22.293 77.1474 21.4227 77.9826 20.9664C78.8296 20.5219 79.8438 20.5733 80.636 21.1307L86.2642 25.0213C86.9382 25.4839 87.354 26.2519 87.381 27.0773C87.3703 27.3249 87.4547 33.4206 82.993 37.8586C79.9052 40.9464 75.4901 42.4253 69.9131 42.3195C62.4729 42.1352 61.1086 45.749 59.3828 50.3398C57.7386 54.6834 55.5115 60.628 46.4648 59.7061C42.5371 59.3006 39.5456 60.0427 37.561 61.9326C34.261 65.0431 34.4839 70.432 34.4959 70.4674C34.5589 71.4463 34.0321 72.3519 33.2088 72.8201C32.3501 73.2999 31.3124 73.2484 30.5083 72.6791L24.8801 68.7886C24.7501 68.7055 24.6318 68.6107 24.5253 68.5041C24.0872 68.0661 23.8135 67.4636 23.7637 66.8268C23.7506 66.5084 23.3777 59.091 28.3569 54.3487C31.4807 51.4142 35.8261 50.1944 41.3107 50.7479ZM67.8957 75.924C69.7876 68.7754 75.2474 66.2044 75.4827 66.0875C76.13 65.7955 76.8844 65.775 77.5459 66.0843L83.4751 68.6321C84.3845 69.0249 85.0014 69.9235 85.0173 70.9258C85.045 71.9162 84.483 72.8571 83.577 73.2895C83.4358 73.3597 80.0003 75.0667 78.7586 79.8128C78.2017 81.9798 78.715 83.5028 79.3834 85.4392C80.1471 87.6353 81.1017 90.3745 79.8429 93.859C78.6775 97.1082 76.2683 98.9727 74.1531 100.638C72.2141 102.151 70.5571 103.453 69.7999 105.631C68.9725 107.95 69.4645 110.015 70.0286 112.411C70.5926 114.783 71.2286 117.462 70.5341 120.548C69.9438 123.174 68.2306 125.124 66.5644 127.027C63.8657 130.129 62.2591 132.209 63.5131 136.046C63.8235 136.99 63.5568 138.038 62.8286 138.719C62.0887 139.388 61.0283 139.572 60.107 139.168L54.1779 136.62C53.8709 136.501 53.5989 136.299 53.3739 136.074C53.0898 135.79 52.8879 135.447 52.7566 135.058C50.5237 128.293 54.1376 124.134 56.8013 121.115C58.1038 119.624 59.3359 118.226 59.6249 116.847C60.0766 114.904 59.621 113.086 59.1406 110.986C58.4923 108.201 57.7484 105.085 59.0651 101.353C60.3234 97.7744 62.85 95.7924 65.0947 94.0687C66.9044 92.6615 68.4673 91.43 69.1316 89.5582C69.761 87.8395 69.4024 86.659 68.6626 84.5338C67.8869 82.3023 66.9206 79.5748 67.8957 75.924ZM139.792 107.55C137.85 105.466 135.659 103.088 134.947 99.1821C134.271 95.4301 135.473 92.4759 136.535 89.8276C137.399 87.6854 138.146 85.8493 137.796 83.8789C137.434 81.8732 136.215 80.8895 134.902 79.7404C134.381 79.2902 133.86 78.8165 133.375 78.3311C132.297 77.2537 130.781 75.5025 130.003 72.6107C128.075 65.4462 131.544 60.4854 131.684 60.2737C132.095 59.6977 132.753 59.3232 133.46 59.2318L139.859 58.5158C140.849 58.402 141.841 58.9013 142.352 59.7641C142.863 60.6269 142.82 61.7114 142.234 62.5342C142.222 62.5696 140.031 65.8026 141.324 70.5947C141.672 71.9284 142.265 72.9212 143.355 74.0104C143.769 74.4248 144.207 74.8157 144.645 75.2066C145.153 75.6449 145.639 76.0832 146.112 76.5568C147.296 77.7407 148.706 79.4561 149.202 82.3231C149.805 85.7447 148.65 88.5576 147.635 91.0646C146.713 93.3362 145.931 95.3019 146.341 97.5908C146.788 100.01 148.233 101.572 149.903 103.383C151.549 105.17 153.432 107.194 154.364 110.239C155.141 112.825 154.645 115.381 154.148 117.843C153.363 121.754 153.02 124.276 155.624 126.88L155.991 127.224C156.713 127.875 157.024 128.937 156.722 129.903C156.419 130.845 155.585 131.537 154.583 131.639L148.184 132.355C147.454 132.423 146.722 132.184 146.189 131.698C146 131.532 145.81 131.367 145.633 131.189C140.956 126.512 141.984 121.317 142.746 117.524C143.139 115.592 143.497 113.743 143.09 112.397C142.54 110.508 141.261 109.135 139.792 107.55Z" fill="#8F27CE"/>
<path d="M227.991 190.486L235.04 192.375C236.313 192.716 237.054 194.02 236.718 195.276L234.827 202.331C234.491 203.587 233.197 204.345 231.924 204.005L224.875 202.116C223.603 201.775 222.857 200.486 223.198 199.215L225.088 192.16C225.429 190.889 226.734 190.149 227.991 190.486Z" fill="#FFCE4F"/>
<path d="M106.451 81.1944L113.5 83.0833C114.772 83.4241 115.514 84.7282 115.177 85.9838L113.287 93.0392C112.95 94.2948 111.656 95.0535 110.384 94.7126L103.334 92.8237C102.062 92.4828 101.317 91.1937 101.657 89.9231L103.548 82.8678C103.888 81.5972 105.193 80.8575 106.451 81.1944Z" fill="#FFCE4F"/>
<path d="M124.357 119.566L131.407 121.455C132.679 121.796 133.42 123.1 133.084 124.356L131.193 131.411C130.857 132.667 129.563 133.426 128.291 133.085L121.241 131.196C119.969 130.855 119.224 129.566 119.564 128.295L121.455 121.24C121.795 119.969 123.1 119.23 124.357 119.566Z" fill="#FFCE4F"/>
<path d="M172.962 384.334L180.011 386.223C181.283 386.564 182.025 387.868 181.688 389.123L179.798 396.179C179.461 397.434 178.167 398.193 176.895 397.852L169.846 395.963C168.573 395.622 167.828 394.333 168.169 393.063L170.059 386.007C170.399 384.737 171.705 383.997 172.962 384.334Z" fill="#FFCE4F"/>
<path d="M263.776 583.868L270.825 585.757C272.097 586.098 272.839 587.402 272.502 588.658L270.612 595.713C270.275 596.969 268.981 597.727 267.709 597.386L260.66 595.498C259.387 595.157 258.642 593.867 258.982 592.597L260.873 585.542C261.213 584.271 262.518 583.531 263.776 583.868Z" fill="#FFCE4F"/>
<path d="M228.381 425.08L235.43 426.969C236.702 427.31 237.444 428.614 237.107 429.87L235.217 436.925C234.88 438.181 233.586 438.939 232.314 438.598L225.265 436.709C223.992 436.369 223.247 435.079 223.587 433.809L225.478 426.754C225.818 425.483 227.123 424.743 228.381 425.08Z" fill="#FFCE4F"/>
<path d="M278.415 236.254L271.774 240.569C270.578 241.346 269.087 240.947 268.455 239.679L264.846 232.618C264.537 231.987 264.47 231.255 264.648 230.589C264.831 229.906 265.24 229.302 265.834 228.93L272.495 224.603C273.691 223.825 275.166 224.221 275.814 225.492L279.403 232.566C280.051 233.838 279.607 235.494 278.415 236.254Z" fill="#0595C3"/>
<path d="M259.837 247.837C260.452 247.525 261.169 247.453 261.87 247.641C262.555 247.825 263.157 248.249 263.534 248.827L267.876 255.486C268.618 256.623 268.198 258.189 266.988 258.802L259.902 262.382C259.286 262.695 258.549 262.777 257.864 262.593C257.162 262.405 256.582 261.97 256.205 261.392L251.875 254.753C251.69 254.47 251.565 254.16 251.51 253.84C251.454 253.52 251.468 253.197 251.551 252.889C251.633 252.581 251.783 252.294 251.991 252.045C252.199 251.795 252.462 251.589 252.763 251.437L259.837 247.837Z" fill="#FFCE4F"/>
<path d="M260.226 482.432C260.842 482.119 261.558 482.048 262.26 482.236C262.945 482.419 263.546 482.844 263.923 483.422L268.266 490.081C269.007 491.218 268.588 492.783 267.378 493.397L260.291 496.977C259.676 497.289 258.938 497.371 258.254 497.188C257.552 497 256.971 496.565 256.594 495.987L252.265 489.348C252.079 489.065 251.955 488.755 251.899 488.435C251.844 488.115 251.858 487.792 251.94 487.484C252.023 487.175 252.172 486.889 252.381 486.639C252.589 486.39 252.851 486.184 253.153 486.032L260.226 482.432Z" fill="#FFCE4F"/>
<path d="M215.208 205.327C215.892 206.489 215.454 208.125 214.275 208.806L207.51 212.716C206.291 213.421 204.738 213.004 204.034 211.785L200.131 205.016C199.963 204.728 199.855 204.41 199.811 204.079C199.767 203.749 199.789 203.413 199.875 203.091C199.961 202.77 200.11 202.468 200.313 202.204C200.516 201.94 200.77 201.718 201.059 201.553L207.824 197.642C209.042 196.938 210.596 197.354 211.3 198.574L215.208 205.327ZM202.634 131.085C203.337 132.304 202.921 133.859 201.702 134.564L195.343 138.239C194.124 138.944 192.57 138.527 191.867 137.308L188.198 130.946C188.03 130.658 187.922 130.339 187.878 130.009C187.834 129.679 187.856 129.343 187.942 129.021C188.028 128.699 188.177 128.398 188.381 128.134C188.584 127.869 188.837 127.648 189.126 127.482L195.484 123.807C196.703 123.102 198.257 123.519 198.961 124.738L202.634 131.085ZM254.486 72.1291C254.319 71.841 254.21 71.5227 254.166 71.1924C254.123 70.8622 254.144 70.5264 254.231 70.2046C254.317 69.8827 254.466 69.5811 254.669 69.317C254.872 69.0528 255.125 68.8315 255.414 68.6657L261.777 64.9744C262.992 64.2859 264.53 64.698 265.237 65.9015L268.902 72.2797C269.605 73.4993 269.189 75.0547 267.974 75.7432L261.615 79.4184C260.396 80.1229 258.859 79.7109 258.155 78.4913L254.486 72.1291ZM215.604 78.4494C216.312 79.653 215.891 81.2243 214.672 81.9288L208.313 85.6041C207.099 86.2926 205.545 85.8762 204.837 84.6727L201.168 78.3105C200.832 77.705 200.748 76.9949 200.916 76.3696C201.083 75.7442 201.491 75.1833 202.1 74.831L208.459 71.1558C209.678 70.4513 211.232 70.8676 211.935 72.0872L215.604 78.4494ZM203.876 172.903L211.421 174.925C212.767 175.285 213.576 176.688 213.215 178.035L211.187 185.603C210.822 186.966 209.424 187.76 208.079 187.4L200.534 185.378C199.172 185.013 198.375 183.631 198.74 182.268L200.768 174.7C201.129 173.353 202.531 172.543 203.876 172.903Z" fill="#0595C3"/>
<path d="M24.9902 89.3903C24.044 90.3522 22.3508 90.3522 21.388 89.3903L15.8603 83.8678C14.8643 82.8728 14.8643 81.2641 15.8603 80.2691L21.388 74.7466C21.623 74.5105 21.9023 74.3232 22.21 74.1954C22.5177 74.0675 22.8476 74.0017 23.1808 74.0017C23.5141 74.0017 23.844 74.0675 24.1517 74.1954C24.4593 74.3232 24.7387 74.5105 24.9736 74.7466L30.5014 80.2691C31.4974 81.2641 31.4974 82.8728 30.5014 83.8678L24.9902 89.3903ZM93.4482 58.0299C92.4522 59.0249 90.842 59.0249 89.846 58.0299L84.6503 52.8391C83.6543 51.8441 83.6543 50.2354 84.6503 49.2404L89.846 44.0496C90.081 43.8135 90.3603 43.6262 90.668 43.4983C90.9757 43.3705 91.3056 43.3047 91.6388 43.3047C91.972 43.3047 92.302 43.3705 92.6096 43.4983C92.9173 43.6262 93.1966 43.8135 93.4316 44.0496L98.6274 49.2404C99.6234 50.2354 99.6234 51.8441 98.6274 52.8391L93.4482 58.0299ZM163.815 92.8564C164.05 92.6203 164.329 92.433 164.637 92.3051C164.945 92.1773 165.275 92.1115 165.608 92.1115C165.941 92.1115 166.271 92.1773 166.579 92.3051C166.886 92.433 167.166 92.6203 167.401 92.8564L172.613 98.0472C173.592 99.0422 173.592 100.634 172.613 101.629L167.401 106.82C166.405 107.815 164.795 107.815 163.815 106.82L158.619 101.629C157.623 100.634 157.623 99.0422 158.619 98.0472L163.815 92.8564ZM147.647 56.9354C146.667 57.9304 145.041 57.9304 144.045 56.9354L138.849 51.7446C137.87 50.7495 137.87 49.1409 138.849 48.1458L144.045 42.955C144.543 42.4741 145.207 42.2087 145.854 42.2087C146.501 42.2087 147.149 42.4575 147.647 42.955L152.843 48.1458C153.839 49.1409 153.839 50.7495 152.843 51.7446L147.647 56.9354ZM53.376 70.0533L53.376 77.8644C53.376 79.2575 52.2307 80.4018 50.8363 80.4018L43.0011 80.4018C41.5901 80.4018 40.4613 79.2575 40.4613 77.8644L40.4613 70.0533C40.4613 68.6437 41.5901 67.516 43.0011 67.516L50.8363 67.516C52.2307 67.516 53.376 68.6603 53.376 70.0533Z" fill="#0595C3"/>
<path d="M241.462 537.955C242.147 539.117 241.708 540.753 240.53 541.434L233.765 545.344C232.546 546.049 230.992 545.632 230.289 544.413L226.385 537.644C226.218 537.356 226.11 537.038 226.066 536.707C226.022 536.377 226.044 536.041 226.13 535.719C226.216 535.398 226.365 535.096 226.568 534.832C226.771 534.568 227.025 534.346 227.313 534.18L234.078 530.27C235.297 529.566 236.851 529.982 237.555 531.202L241.462 537.955ZM228.889 463.713C229.592 464.932 229.175 466.487 227.957 467.192L221.598 470.867C220.379 471.572 218.825 471.155 218.122 469.936L214.453 463.574C214.285 463.286 214.177 462.967 214.133 462.637C214.089 462.307 214.111 461.971 214.197 461.649C214.283 461.327 214.432 461.026 214.635 460.761C214.839 460.497 215.092 460.276 215.381 460.11L221.739 456.435C222.958 455.73 224.512 456.147 225.215 457.366L228.889 463.713ZM280.741 404.757C280.574 404.469 280.465 404.151 280.421 403.82C280.377 403.49 280.399 403.154 280.485 402.833C280.572 402.511 280.721 402.209 280.924 401.945C281.127 401.681 281.38 401.459 281.669 401.294L288.032 397.602C289.247 396.914 290.784 397.326 291.492 398.529L295.157 404.908C295.86 406.127 295.444 407.683 294.229 408.371L287.87 412.046C286.651 412.751 285.113 412.339 284.41 411.119L280.741 404.757ZM241.859 411.077C242.567 412.281 242.146 413.852 240.927 414.557L234.568 418.232C233.354 418.921 231.8 418.504 231.092 417.301L227.423 410.938C227.087 410.333 227.003 409.623 227.17 408.998C227.338 408.372 227.746 407.811 228.355 407.459L234.714 403.784C235.933 403.079 237.487 403.496 238.19 404.715L241.859 411.077ZM230.131 505.531L237.676 507.553C239.022 507.913 239.831 509.316 239.47 510.663L237.442 518.231C237.077 519.594 235.679 520.388 234.334 520.027L226.789 518.006C225.427 517.641 224.63 516.259 224.995 514.896L227.023 507.328C227.384 505.981 228.786 505.171 230.131 505.531Z" fill="#0595C3"/>
<path d="M225.677 130.156L223.788 137.205C223.43 138.542 222.079 139.356 220.758 139.002L213.873 137.157C212.567 136.808 211.789 135.422 212.147 134.086L214.036 127.036C214.394 125.7 215.761 124.889 217.066 125.239L223.952 127.084C225.273 127.438 226.04 128.803 225.677 130.156ZM188.019 199.388L186.007 206.899C185.648 208.236 184.282 209.046 182.976 208.696L175.656 206.735C174.35 206.385 173.572 205 173.93 203.663L175.942 196.152C176.305 194.8 177.667 194.005 178.973 194.355L186.293 196.316C187.615 196.67 188.382 198.036 188.019 199.388Z" fill="#FFCE4F"/>
<path d="M211.067 357.075L209.179 364.124C208.82 365.461 207.469 366.275 206.148 365.921L199.263 364.076C197.957 363.727 197.179 362.341 197.537 361.005L199.426 353.955C199.784 352.619 201.151 351.808 202.456 352.158L209.342 354.003C210.663 354.357 211.43 355.722 211.067 357.075ZM173.409 426.307L171.397 433.818C171.039 435.154 169.672 435.965 168.366 435.615L161.046 433.654C159.74 433.304 158.962 431.919 159.32 430.582L161.333 423.071C161.695 421.719 163.057 420.924 164.363 421.274L171.684 423.235C173.005 423.589 173.772 424.955 173.409 426.307Z" fill="#FFCE4F"/>
<path d="M204.135 227.719C204.814 228.874 204.414 230.366 203.244 231.042L196.739 234.789C196.17 235.131 195.524 235.205 194.894 235.037C194.264 234.868 193.73 234.461 193.419 233.9L189.674 227.406C189.514 227.13 189.41 226.824 189.368 226.507C189.325 226.19 189.346 225.868 189.429 225.56C189.512 225.251 189.655 224.961 189.85 224.708C190.044 224.455 190.287 224.242 190.565 224.083L197.055 220.332C198.224 219.656 199.715 220.056 200.374 221.222L204.135 227.719Z" fill="#0595C3"/>
<path d="M287.803 262.578C287.716 259.249 289.313 256.045 290.781 253.581C291.941 251.62 292.956 249.757 292.903 247.901C292.879 246.07 292.111 245.09 290.676 243.397C289.19 241.639 287.337 239.455 286.919 235.694C286.698 233.638 286.83 231.608 287.342 229.697C287.497 229.118 287.671 228.597 287.856 228.096C288.307 226.926 289.571 226.249 290.785 226.522L296.805 227.894C297.47 228.038 298.045 228.519 298.401 229.114C298.757 229.708 298.84 230.488 298.663 231.147C298.293 232.528 298.185 233.893 298.353 235.315C298.601 237.533 299.629 238.756 300.951 240.297C302.449 242.076 304.297 244.275 304.39 247.967C304.461 251.033 303.003 253.912 301.56 256.349C300.308 258.458 299.235 260.477 299.299 262.611C299.336 263.946 299.713 265.166 300.545 266.611C300.911 267.295 300.977 268.139 300.667 268.847C300.368 269.576 299.743 270.115 298.983 270.324L293.606 271.81C292.551 272.095 291.439 271.694 290.827 270.773C289.431 268.677 287.919 266.12 287.803 262.578ZM228.111 38.6435C228.282 39.223 228.202 39.6491 228.141 40.132C227.314 45.3328 227.838 50.1723 229.564 54.1119C234.958 47.949 242.468 46.9659 246.486 48.4385C246.646 48.4815 246.85 48.5533 247.05 48.6412C252.851 50.7638 255.699 55.4515 254.322 60.5909C253.982 61.8596 253.396 63.1486 252.547 64.522C251.483 66.2509 248.378 71.2372 236.59 71.1426C238.162 75.4023 241.392 79.3663 245.969 82.5377C246.39 82.8227 246.74 83.0542 247.029 83.5791C247.697 84.7393 247.262 86.3614 246.099 87.0482L239.356 90.9391C238.198 91.6098 236.743 91.2717 236.005 90.179C236.229 90.4971 236.412 90.6493 236.352 90.6161C227.422 84.4707 222.889 75.8198 223.771 66.7608C216.936 61.1252 213.98 52.0362 215.67 41.3693C215.681 41.2001 215.72 41.0555 215.763 40.8949C215.983 40.0758 216.618 39.3684 217.496 39.1044L224.938 36.8984C226.305 36.5415 227.712 37.3144 228.111 38.6435ZM239.436 58.5991C238.481 59.5998 237.639 60.6306 236.983 61.5394C238.055 61.8955 239.369 62.2475 240.758 62.4475C242.442 62.7611 244.819 61.1947 245.288 59.4441C245.404 59.0105 245.396 58.595 245.262 58.1976C245.01 57.4072 244.376 56.8243 243.599 56.6504C242.384 56.3766 240.912 57.0665 239.436 58.5991Z" fill="#FFCE4F"/>
<path d="M272.451 545.451C273.229 542.214 275.6 539.532 277.656 537.532C279.284 535.938 280.746 534.401 281.176 532.595C281.626 530.82 281.139 529.674 280.191 527.668C279.21 525.585 277.985 522.996 278.555 519.255C278.873 517.212 279.526 515.285 280.516 513.571C280.815 513.053 281.118 512.594 281.427 512.158C282.165 511.145 283.561 510.817 284.663 511.396L290.123 514.28C290.728 514.591 291.159 515.204 291.349 515.871C291.539 516.537 291.417 517.312 291.076 517.902C290.361 519.14 289.903 520.431 289.698 521.848C289.362 524.055 290.04 525.502 290.917 527.333C291.904 529.438 293.12 532.042 292.254 535.631C291.53 538.611 289.376 541.015 287.352 542.995C285.597 544.708 284.037 546.381 283.546 548.459C283.236 549.758 283.285 551.034 283.714 552.645C283.891 553.4 283.737 554.232 283.254 554.837C282.777 555.464 282.034 555.822 281.245 555.827L275.667 555.87C274.573 555.873 273.604 555.198 273.251 554.15C272.445 551.764 271.646 548.903 272.451 545.451ZM272.751 313.698C272.766 314.302 272.579 314.693 272.395 315.144C270.251 319.953 269.503 324.763 270.151 329.015C276.957 324.459 284.465 325.453 287.965 327.915C288.109 327.998 288.287 328.12 288.457 328.257C293.511 331.809 295.049 337.074 292.389 341.681C291.732 342.819 290.832 343.912 289.657 345.019C288.182 346.414 283.892 350.427 272.53 347.284C272.946 351.806 275.04 356.471 278.64 360.718C278.973 361.103 279.251 361.417 279.394 361.999C279.739 363.292 278.899 364.747 277.599 365.109L270.078 367.122C268.786 367.47 267.468 366.767 267.038 365.521C267.172 365.886 267.309 366.08 267.26 366.033C260.224 357.785 258.085 348.256 261.281 339.734C256.138 332.521 255.635 322.977 260.029 313.111C260.083 312.95 260.158 312.821 260.241 312.677C260.665 311.942 261.463 311.424 262.379 311.396L270.138 311.191C271.55 311.2 272.709 312.311 272.751 313.698ZM278.526 335.905C277.344 336.624 276.264 337.402 275.395 338.11C276.339 338.731 277.516 339.411 278.806 339.964C280.352 340.703 283.053 339.805 283.96 338.236C284.184 337.847 284.283 337.443 284.257 337.025C284.218 336.196 283.757 335.469 283.051 335.1C281.948 334.521 280.347 334.806 278.526 335.905Z" fill="#FFCE4F"/>
</svg>
