<svg width="32" height="32" viewBox="0 0 32 32" fill="none" xmlns="http://www.w3.org/2000/svg">
<path fill-rule="evenodd" clip-rule="evenodd" d="M16 0C24.8368 0 32 7.1632 32 16C32 24.8368 24.8368 32 16 32C7.1632 32 0 24.8368 0 16C0 7.1632 7.1632 0 16 0ZM16 17.6C14.0516 17.6001 12.1701 18.3112 10.7088 19.6C10.3905 19.8807 10.1968 20.2763 10.1703 20.6999C10.1437 21.1234 10.2865 21.5401 10.5672 21.8584C10.8479 22.1767 11.2435 22.3704 11.6671 22.3969C12.0906 22.4235 12.5073 22.2807 12.8256 22C13.7023 21.2268 14.831 20.8001 16 20.8C17.1695 20.7972 18.2992 21.2242 19.1744 22C19.4927 22.2809 19.9095 22.4239 20.3332 22.3975C20.7568 22.3711 21.1527 22.1775 21.4336 21.8592C21.7145 21.5409 21.8575 21.1241 21.8311 20.7004C21.8047 20.2768 21.6111 19.8809 21.2928 19.6C19.8311 18.3109 17.949 17.5997 16 17.6ZM10.4 9.6C9.76348 9.6 9.15303 9.85286 8.70294 10.3029C8.25286 10.753 8 11.3635 8 12C8 12.6365 8.25286 13.247 8.70294 13.6971C9.15303 14.1471 9.76348 14.4 10.4 14.4C11.0365 14.4 11.647 14.1471 12.0971 13.6971C12.5471 13.247 12.8 12.6365 12.8 12C12.8 11.3635 12.5471 10.753 12.0971 10.3029C11.647 9.85286 11.0365 9.6 10.4 9.6ZM21.6 9.6C20.9635 9.6 20.353 9.85286 19.9029 10.3029C19.4529 10.753 19.2 11.3635 19.2 12C19.2 12.6365 19.4529 13.247 19.9029 13.6971C20.353 14.1471 20.9635 14.4 21.6 14.4C22.2365 14.4 22.847 14.1471 23.2971 13.6971C23.7471 13.247 24 12.6365 24 12C24 11.3635 23.7471 10.753 23.2971 10.3029C22.847 9.85286 22.2365 9.6 21.6 9.6Z" fill="white"/>
</svg>
