<svg width="833" height="48" viewBox="0 0 833 48" fill="none" xmlns="http://www.w3.org/2000/svg">
<path d="M371.011 44V32.64H373.427L377.139 41.2L380.851 32.64H383.267V44H381.075V36.864H380.995L377.939 44H376.323L373.283 36.864H373.203V44H371.011ZM388.886 44.16C386.71 44.16 384.502 42.656 384.502 39.84C384.502 37.024 386.71 35.52 388.886 35.52C391.046 35.52 393.27 37.024 393.27 39.84C393.27 42.656 391.046 44.16 388.886 44.16ZM386.614 39.84C386.614 41.328 387.686 42.224 388.886 42.224C390.086 42.224 391.142 41.328 391.142 39.84C391.142 38.352 390.086 37.456 388.886 37.456C387.686 37.456 386.614 38.352 386.614 39.84ZM396.939 44L393.451 35.68H395.643L397.947 41.456L400.235 35.68H402.443L398.939 44H396.939ZM406.963 44.16C404.675 44.16 402.627 42.608 402.627 39.84C402.627 37.04 404.707 35.52 406.835 35.52C408.947 35.52 411.347 37.008 410.883 40.672H404.659C404.963 41.808 405.955 42.4 407.203 42.4C408.019 42.4 408.739 42.176 409.347 41.648L410.323 42.688C409.635 43.552 408.435 44.16 406.963 44.16ZM404.627 39.104H408.979C408.851 37.92 407.859 37.328 406.851 37.328C405.859 37.328 404.899 37.904 404.627 39.104ZM412.072 40.496V38.704H417.032V40.496H412.072ZM418.574 44V35.68H420.718V44H418.574ZM418.574 34.528V32.64H420.718V34.528H418.574ZM422.355 44V35.68H424.499V36.816C424.963 36.08 425.795 35.52 427.043 35.52C428.755 35.52 430.195 36.576 430.195 39.104V44H428.051V39.456C428.051 38.24 427.395 37.44 426.275 37.44C425.171 37.44 424.499 38.24 424.499 39.456V44H422.355ZM443.569 44H441.425V42.88H441.377C441.169 43.344 440.209 44.16 438.721 44.16C436.785 44.16 434.721 42.72 434.721 39.84C434.721 36.96 436.785 35.52 438.721 35.52C440.209 35.52 441.169 36.336 441.377 36.8H441.425V32.64H443.569V44ZM436.833 39.84C436.833 41.392 437.953 42.24 439.153 42.24C440.353 42.24 441.473 41.408 441.473 39.84C441.473 38.272 440.353 37.44 439.153 37.44C437.953 37.44 436.833 38.288 436.833 39.84ZM448.799 44.16C446.863 44.16 444.799 42.72 444.799 39.84C444.799 36.96 446.863 35.52 448.799 35.52C450.287 35.52 451.247 36.336 451.455 36.8H451.503V35.68H453.647V44H451.503V42.88H451.455C451.247 43.344 450.287 44.16 448.799 44.16ZM446.911 39.84C446.911 41.392 448.031 42.24 449.231 42.24C450.431 42.24 451.551 41.408 451.551 39.84C451.551 38.272 450.431 37.44 449.231 37.44C448.031 37.44 446.911 38.288 446.911 39.84ZM456.657 47.04L458.017 43.92L454.561 35.68H456.753L459.057 41.456L461.345 35.68H463.553L460.049 44L458.753 47.04H456.657Z" fill="white"/>
<path d="M582.454 44V41.456H577.654V39.568L582.454 32.64H584.646V39.568H585.846V41.456H584.646V44H582.454ZM579.83 39.568H582.454V35.584L579.83 39.568ZM590.84 44.16C588.808 44.16 586.92 42.848 586.92 40.608C586.92 39.136 587.72 38.08 588.696 37.616C588.104 37.184 587.592 36.416 587.592 35.408C587.592 33.872 588.824 32.48 590.84 32.48C592.84 32.48 594.072 33.872 594.072 35.408C594.072 36.416 593.56 37.184 592.984 37.616C593.944 38.08 594.76 39.136 594.76 40.608C594.76 42.848 592.856 44.16 590.84 44.16ZM589.08 40.48C589.08 41.488 589.864 42.208 590.84 42.208C591.8 42.208 592.6 41.488 592.6 40.48C592.6 39.424 591.768 38.752 590.84 38.752C589.896 38.752 589.08 39.424 589.08 40.48ZM589.56 35.568C589.56 36.256 590.056 36.848 590.84 36.848C591.624 36.848 592.12 36.256 592.12 35.568C592.12 34.832 591.544 34.32 590.84 34.32C590.12 34.32 589.56 34.832 589.56 35.568ZM599.425 44V32.64H601.569V36.816C602.033 36.08 602.865 35.52 604.113 35.52C605.825 35.52 607.265 36.576 607.265 39.104V44H605.121V39.456C605.121 38.24 604.465 37.44 603.345 37.44C602.241 37.44 601.569 38.24 601.569 39.456V44H599.425ZM612.878 44.16C610.702 44.16 608.494 42.656 608.494 39.84C608.494 37.024 610.702 35.52 612.878 35.52C615.038 35.52 617.262 37.024 617.262 39.84C617.262 42.656 615.038 44.16 612.878 44.16ZM610.606 39.84C610.606 41.328 611.678 42.224 612.878 42.224C614.078 42.224 615.134 41.328 615.134 39.84C615.134 38.352 614.078 37.456 612.878 37.456C611.678 37.456 610.606 38.352 610.606 39.84ZM626.328 35.68V44H624.184V42.864C623.72 43.6 622.888 44.16 621.64 44.16C619.928 44.16 618.488 43.104 618.488 40.576V35.68H620.632V40.224C620.632 41.44 621.288 42.24 622.408 42.24C623.512 42.24 624.184 41.44 624.184 40.224V35.68H626.328ZM627.957 44V35.68H630.101V37.84C630.389 36.56 631.205 35.52 632.709 35.52C632.901 35.52 633.077 35.536 633.269 35.584V37.632C633.077 37.6 632.917 37.584 632.725 37.584C631.109 37.584 630.101 38.704 630.101 40.368V44H627.957ZM636.972 44.16C635.324 44.16 634.108 43.36 633.852 41.824L635.564 41.36C635.724 41.904 636.124 42.464 636.94 42.464C637.484 42.464 638.012 42.192 638.012 41.6C638.012 41.2 637.756 40.912 637.1 40.672L636.076 40.288C634.7 39.792 634.124 38.912 634.124 37.904C634.124 36.416 635.436 35.52 637.004 35.52C638.508 35.52 639.612 36.368 639.884 37.648L638.204 38.08C637.98 37.408 637.548 37.2 637.1 37.2C636.54 37.2 636.204 37.52 636.204 37.92C636.204 38.272 636.412 38.576 637.068 38.8L637.996 39.152C639.02 39.52 640.14 40.128 640.14 41.6C640.14 43.264 638.716 44.16 636.972 44.16ZM648.26 44.16C646.324 44.16 644.26 42.72 644.26 39.84C644.26 36.96 646.324 35.52 648.26 35.52C649.748 35.52 650.708 36.336 650.916 36.8H650.964V35.68H653.108V44H650.964V42.88H650.916C650.708 43.344 649.748 44.16 648.26 44.16ZM646.372 39.84C646.372 41.392 647.492 42.24 648.692 42.24C649.892 42.24 651.012 41.408 651.012 39.84C651.012 38.272 649.892 37.44 648.692 37.44C647.492 37.44 646.372 38.288 646.372 39.84ZM655.234 35.136C655.234 32.688 656.93 32.288 658.034 32.288C658.466 32.288 659.058 32.336 659.522 32.608V34.288C659.122 34.096 658.738 34.112 658.594 34.112C657.778 34.112 657.378 34.56 657.378 35.376V35.68H659.522V37.392H657.378V44H655.234V37.392H654.178V35.68H655.234V35.136ZM663.813 44.096C662.405 44.096 661.381 43.408 661.381 41.696V37.392H660.197V35.68H661.381V33.552H663.541V35.68H665.253V37.392H663.541V41.344C663.541 41.776 663.781 42.192 664.485 42.192C664.677 42.192 664.965 42.16 665.269 42.064V43.712C664.949 44 664.341 44.096 663.813 44.096ZM670.424 44.16C668.136 44.16 666.088 42.608 666.088 39.84C666.088 37.04 668.168 35.52 670.296 35.52C672.408 35.52 674.808 37.008 674.344 40.672H668.12C668.424 41.808 669.416 42.4 670.664 42.4C671.48 42.4 672.2 42.176 672.808 41.648L673.784 42.688C673.096 43.552 671.896 44.16 670.424 44.16ZM668.088 39.104H672.44C672.312 37.92 671.32 37.328 670.312 37.328C669.32 37.328 668.36 37.904 668.088 39.104ZM675.629 44V35.68H677.773V37.84C678.061 36.56 678.877 35.52 680.381 35.52C680.573 35.52 680.749 35.536 680.941 35.584V37.632C680.749 37.6 680.589 37.584 680.397 37.584C678.781 37.584 677.773 38.704 677.773 40.368V44H675.629ZM690.44 44V39.264C690.44 38.08 689.816 37.44 688.904 37.44C687.96 37.44 687.288 38.08 687.288 39.264V44H685.144V35.68H687.288V36.752C687.736 36.048 688.504 35.52 689.672 35.52C690.696 35.52 691.592 35.952 692.104 36.912C692.584 36.144 693.496 35.52 694.856 35.52C696.616 35.52 697.896 36.624 697.896 39.168V44H695.736V39.264C695.736 38.08 695.128 37.44 694.2 37.44C693.256 37.44 692.584 38.08 692.584 39.264V44H690.44ZM703.503 44.16C701.327 44.16 699.119 42.656 699.119 39.84C699.119 37.024 701.327 35.52 703.503 35.52C705.663 35.52 707.887 37.024 707.887 39.84C707.887 42.656 705.663 44.16 703.503 44.16ZM701.231 39.84C701.231 41.328 702.303 42.224 703.503 42.224C704.703 42.224 705.759 41.328 705.759 39.84C705.759 38.352 704.703 37.456 703.503 37.456C702.303 37.456 701.231 38.352 701.231 39.84ZM711.557 44L708.069 35.68H710.261L712.565 41.456L714.853 35.68H717.061L713.557 44H711.557ZM721.58 44.16C719.292 44.16 717.244 42.608 717.244 39.84C717.244 37.04 719.324 35.52 721.452 35.52C723.564 35.52 725.964 37.008 725.5 40.672H719.276C719.58 41.808 720.572 42.4 721.82 42.4C722.636 42.4 723.356 42.176 723.964 41.648L724.94 42.688C724.252 43.552 723.052 44.16 721.58 44.16ZM719.244 39.104H723.596C723.468 37.92 722.476 37.328 721.468 37.328C720.476 37.328 719.516 37.904 719.244 39.104ZM726.689 40.496V38.704H731.649V40.496H726.689ZM736.488 44V35.68H738.632V44H736.488ZM736.488 34.528V32.64H738.632V34.528H736.488ZM740.269 44V35.68H742.413V36.816C742.877 36.08 743.709 35.52 744.957 35.52C746.669 35.52 748.109 36.576 748.109 39.104V44H745.965V39.456C745.965 38.24 745.309 37.44 744.189 37.44C743.085 37.44 742.413 38.24 742.413 39.456V44H740.269Z" fill="white"/>
<path d="M91.0816 44V32.64H95.2416C97.1616 32.64 98.3616 33.84 98.3616 35.376C98.3616 36.544 97.6416 37.328 96.8736 37.664C98.0256 37.968 99.0816 38.928 99.0816 40.656C99.0816 42.64 97.7216 44 95.1456 44H91.0816ZM93.2736 42.08H95.0176C96.2976 42.08 96.9056 41.44 96.9056 40.432C96.9056 39.44 96.2976 38.752 94.9856 38.752H93.2736V42.08ZM93.2736 37.056H94.8096C95.7696 37.056 96.2496 36.528 96.2496 35.792C96.2496 35.008 95.7536 34.56 94.7776 34.56H93.2736V37.056ZM104.363 44.16C102.187 44.16 99.9785 42.656 99.9785 39.84C99.9785 37.024 102.187 35.52 104.363 35.52C106.523 35.52 108.747 37.024 108.747 39.84C108.747 42.656 106.523 44.16 104.363 44.16ZM102.091 39.84C102.091 41.328 103.163 42.224 104.363 42.224C105.563 42.224 106.619 41.328 106.619 39.84C106.619 38.352 105.563 37.456 104.363 37.456C103.163 37.456 102.091 38.352 102.091 39.84ZM113.956 44.16C111.78 44.16 109.572 42.656 109.572 39.84C109.572 37.024 111.78 35.52 113.956 35.52C116.116 35.52 118.34 37.024 118.34 39.84C118.34 42.656 116.116 44.16 113.956 44.16ZM111.684 39.84C111.684 41.328 112.756 42.224 113.956 42.224C115.156 42.224 116.212 41.328 116.212 39.84C116.212 38.352 115.156 37.456 113.956 37.456C112.756 37.456 111.684 38.352 111.684 39.84ZM119.566 44V32.64H121.71V39.216L124.83 35.68H127.39L124.078 39.344L127.758 44H125.358L122.75 40.8L121.71 41.952V44H119.566ZM128.504 44V35.68H130.648V44H128.504ZM128.504 34.528V32.64H130.648V34.528H128.504ZM132.285 44V35.68H134.429V36.816C134.893 36.08 135.725 35.52 136.973 35.52C138.685 35.52 140.125 36.576 140.125 39.104V44H137.981V39.456C137.981 38.24 137.325 37.44 136.205 37.44C135.101 37.44 134.429 38.24 134.429 39.456V44H132.285ZM145.818 47.328C144.858 47.328 143.898 47.136 143.402 46.816V45.072C143.786 45.328 144.618 45.536 145.434 45.536C147.034 45.536 148.058 44.784 148.058 43.52V42.88H147.962C147.754 43.344 146.826 44.16 145.354 44.16C143.434 44.16 141.354 42.72 141.354 39.84C141.354 36.96 143.434 35.52 145.354 35.52C146.826 35.52 147.754 36.336 147.962 36.8H148.058V35.68H150.202V43.376C150.202 46.56 147.706 47.328 145.818 47.328ZM143.466 39.84C143.466 41.392 144.586 42.24 145.786 42.24C147.002 42.24 148.106 41.408 148.106 39.84C148.106 38.272 147.002 37.44 145.786 37.44C144.586 37.44 143.466 38.288 143.466 39.84ZM155.129 44V35.68H157.273V44H155.129ZM155.129 34.528V32.64H157.273V34.528H155.129ZM161.55 44.16C159.902 44.16 158.686 43.36 158.43 41.824L160.142 41.36C160.302 41.904 160.702 42.464 161.518 42.464C162.062 42.464 162.59 42.192 162.59 41.6C162.59 41.2 162.334 40.912 161.678 40.672L160.654 40.288C159.278 39.792 158.702 38.912 158.702 37.904C158.702 36.416 160.014 35.52 161.582 35.52C163.086 35.52 164.19 36.368 164.462 37.648L162.782 38.08C162.558 37.408 162.126 37.2 161.678 37.2C161.118 37.2 160.782 37.52 160.782 37.92C160.782 38.272 160.99 38.576 161.646 38.8L162.574 39.152C163.598 39.52 164.718 40.128 164.718 41.6C164.718 43.264 163.294 44.16 161.55 44.16ZM173.222 44.16C171.03 44.16 168.838 42.656 168.838 39.84C168.838 37.024 171.03 35.52 173.222 35.52C174.694 35.52 176.006 36.208 176.806 37.568L175.238 38.576C174.806 37.92 174.102 37.456 173.238 37.456C172.038 37.456 170.95 38.352 170.95 39.84C170.95 41.328 172.038 42.224 173.238 42.224C174.102 42.224 174.806 41.76 175.238 41.104L176.806 42.112C176.006 43.456 174.694 44.16 173.222 44.16ZM181.831 44.16C179.655 44.16 177.447 42.656 177.447 39.84C177.447 37.024 179.655 35.52 181.831 35.52C183.991 35.52 186.215 37.024 186.215 39.84C186.215 42.656 183.991 44.16 181.831 44.16ZM179.559 39.84C179.559 41.328 180.631 42.224 181.831 42.224C183.031 42.224 184.087 41.328 184.087 39.84C184.087 38.352 183.031 37.456 181.831 37.456C180.631 37.456 179.559 38.352 179.559 39.84ZM187.441 44V35.68H189.585V36.816C190.049 36.08 190.881 35.52 192.129 35.52C193.841 35.52 195.281 36.576 195.281 39.104V44H193.137V39.456C193.137 38.24 192.481 37.44 191.361 37.44C190.257 37.44 189.585 38.24 189.585 39.456V44H187.441ZM197.406 35.248C197.406 32.784 199.15 32.288 200.174 32.288C200.638 32.288 201.23 32.336 201.694 32.608V34.288C201.326 34.096 200.91 34.112 200.766 34.112C199.982 34.112 199.55 34.544 199.55 35.376V35.68H204.798V44H202.654V37.392H199.55V44H197.406V37.392H196.35V35.68H197.406V35.248ZM202.654 34.528V32.64H204.798V34.528H202.654ZM206.425 44V35.68H208.569V37.84C208.857 36.56 209.673 35.52 211.177 35.52C211.369 35.52 211.545 35.536 211.737 35.584V37.632C211.545 37.6 211.385 37.584 211.193 37.584C209.577 37.584 208.569 38.704 208.569 40.368V44H206.425ZM218.253 44V39.264C218.253 38.08 217.629 37.44 216.717 37.44C215.773 37.44 215.101 38.08 215.101 39.264V44H212.957V35.68H215.101V36.752C215.549 36.048 216.317 35.52 217.485 35.52C218.509 35.52 219.405 35.952 219.917 36.912C220.397 36.144 221.309 35.52 222.669 35.52C224.429 35.52 225.709 36.624 225.709 39.168V44H223.549V39.264C223.549 38.08 222.941 37.44 222.013 37.44C221.069 37.44 220.397 38.08 220.397 39.264V44H218.253ZM231.268 44.16C228.98 44.16 226.932 42.608 226.932 39.84C226.932 37.04 229.012 35.52 231.14 35.52C233.252 35.52 235.652 37.008 235.188 40.672H228.964C229.268 41.808 230.26 42.4 231.508 42.4C232.324 42.4 233.044 42.176 233.652 41.648L234.628 42.688C233.94 43.552 232.74 44.16 231.268 44.16ZM228.932 39.104H233.284C233.156 37.92 232.164 37.328 231.156 37.328C230.164 37.328 229.204 37.904 228.932 39.104ZM244.92 44H242.776V42.88H242.728C242.52 43.344 241.56 44.16 240.072 44.16C238.136 44.16 236.072 42.72 236.072 39.84C236.072 36.96 238.136 35.52 240.072 35.52C241.56 35.52 242.52 36.336 242.728 36.8H242.776V32.64H244.92V44ZM238.184 39.84C238.184 41.392 239.304 42.24 240.504 42.24C241.704 42.24 242.824 41.408 242.824 39.84C242.824 38.272 241.704 37.44 240.504 37.44C239.304 37.44 238.184 38.288 238.184 39.84Z" fill="white"/>
<circle cx="417" cy="10" r="10" fill="#8F27CE"/>
<circle cx="170" cy="10" r="10" fill="#8F27CE"/>
<circle cx="664" cy="10" r="10" fill="#8F27CE"/>
<path d="M1 10L154 9.99999" stroke="#8F27CE" stroke-width="2" stroke-linecap="round" stroke-dasharray="4 6"/>
<path d="M679 10H832" stroke="#8F27CE" stroke-width="2" stroke-linecap="round" stroke-dasharray="4 6"/>
<path d="M186 10H401" stroke="#8F27CE" stroke-width="2" stroke-linecap="round" stroke-dasharray="4 6"/>
<path d="M433 10H648" stroke="#8F27CE" stroke-width="2" stroke-linecap="round" stroke-dasharray="4 6"/>
</svg>
