<svg width="24" height="24" viewBox="0 0 24 24" fill="none" xmlns="http://www.w3.org/2000/svg">
<path d="M24 21.9231L16.8415 14.7635C17.9952 13.1782 18.6157 11.2675 18.6138 9.30692C18.6138 4.17519 14.4387 0 9.30692 0C4.17519 0 0 4.17519 0 9.30692C0 14.4387 4.17519 18.6138 9.30692 18.6138C11.2675 18.6157 13.1782 17.9952 14.7635 16.8415L21.9231 24L24 21.9231ZM9.30692 15.6744C8.04739 15.6745 6.81611 15.3011 5.76879 14.6014C4.72148 13.9018 3.90518 12.9072 3.42312 11.7436C2.94106 10.5799 2.81491 9.29948 3.0606 8.06414C3.3063 6.8288 3.91281 5.69406 4.80344 4.80344C5.69406 3.91281 6.8288 3.3063 8.06414 3.0606C9.29948 2.81491 10.5799 2.94106 11.7436 3.42312C12.9072 3.90518 13.9018 4.72148 14.6014 5.76879C15.3011 6.81611 15.6745 8.04739 15.6744 9.30692C15.6724 10.9951 15.0009 12.6135 13.8072 13.8072C12.6135 15.0009 10.9951 15.6724 9.30692 15.6744Z" fill='white'/>
</svg>
