<svg width="24" height="28" viewBox="0 0 24 28" fill="none" xmlns="http://www.w3.org/2000/svg">
<path d="M23.6795 5.37519C23.5727 5.25409 23.4418 5.1562 23.2949 5.0877C23.148 5.0192 22.9884 4.98157 22.826 4.9772C20.3053 4.91195 17.1156 2.24343 15.0067 1.19625C13.704 0.551409 12.844 0.126229 12.1981 0.014225C12.067 -0.0050995 11.9337 -0.0047329 11.8027 0.0153125C11.1568 0.127316 10.2968 0.552497 8.99524 1.19734C6.88635 2.24343 3.69665 4.91195 1.17587 4.9772C1.01349 4.98208 0.853861 5.01992 0.706866 5.08838C0.559871 5.15684 0.428647 5.25446 0.321325 5.37519C0.099183 5.62454 -0.0155453 5.95006 0.00169636 6.2821C0.543198 17.1813 4.49188 23.9265 11.4205 27.8467C11.6006 27.9478 11.8005 28 11.9993 28C12.1981 28 12.398 27.9478 12.5793 27.8467C19.5078 23.9265 23.4554 17.1813 23.998 6.2821C24.0168 5.95005 23.9023 5.6241 23.6795 5.37519ZM18.17 9.66179L12.3233 18.2035C12.1135 18.5101 11.784 18.7135 11.4578 18.7135C11.1316 18.7135 10.7669 18.5362 10.5374 18.3089L6.41624 14.2279C6.28169 14.0942 6.20614 13.9131 6.20614 13.7244C6.20614 13.5357 6.28169 13.3546 6.41624 13.2209L7.43444 12.2107C7.57005 12.0785 7.7527 12.0045 7.94299 12.0045C8.13327 12.0045 8.31593 12.0785 8.45154 12.2107L11.1316 14.864L15.7876 8.06003C15.8953 7.90433 16.0609 7.79715 16.2482 7.76191C16.4355 7.72666 16.6292 7.7662 16.7871 7.8719L17.9789 8.67224C18.1363 8.77873 18.2448 8.94257 18.2806 9.12799C18.3164 9.3134 18.2767 9.50531 18.17 9.66179Z" fill="#8F27CE"/>
</svg>
