<svg width="38" height="40" viewBox="0 0 38 40" fill="none" xmlns="http://www.w3.org/2000/svg">
<path d="M16.0098 0L30.6058 4.56C31.0128 4.68709 31.3687 4.94096 31.6212 5.28458C31.8738 5.62819 32.0099 6.04354 32.0098 6.47V10H36.0098C36.5402 10 37.0489 10.2107 37.424 10.5858C37.7991 10.9609 38.0098 11.4696 38.0098 12V16H12.0098V12C12.0098 11.4696 12.2205 10.9609 12.5956 10.5858C12.9706 10.2107 13.4793 10 14.0098 10H28.0098V7.94L16.0098 4.188L4.00977 7.94V22.748C4.00948 23.9725 4.29027 25.1806 4.83049 26.2795C5.37072 27.3783 6.15598 28.3385 7.12577 29.086L7.50377 29.358L16.0098 35.158L23.5738 30H14.0098C13.4793 30 12.9706 29.7893 12.5956 29.4142C12.2205 29.0391 12.0098 28.5304 12.0098 28V20H38.0098V28C38.0098 28.5304 37.7991 29.0391 37.424 29.4142C37.0489 29.7893 36.5402 30 36.0098 30L29.5698 30.002C28.7958 31.022 27.8558 31.922 26.7698 32.662L16.0098 40L5.24977 32.664C3.63481 31.5629 2.31327 30.084 1.40005 28.3558C0.486822 26.6277 0.00956318 24.7026 0.00976569 22.748V6.47C0.0100068 6.04388 0.146339 5.62898 0.39889 5.28577C0.651441 4.94256 1.00701 4.68898 1.41377 4.562L16.0098 0Z" fill="#8F27CE"/>
</svg>
