<svg width="250" height="250" viewBox="0 0 250 250" fill="none" xmlns="http://www.w3.org/2000/svg">
  <!-- Face -->
  <path d="M180 120C180 153.137 153.137 180 120 180C86.8629 180 60 153.137 60 120C60 86.8629 86.8629 60 120 60C153.137 60 180 86.8629 180 120Z" fill="#F8C69D"/>
  
  <!-- Hair -->
  <path d="M150 70C150 70 150 45 120 45C90 45 85 70 85 70L85 100C85 100 90 90 120 90C150 90 150 100 150 100V70Z" fill="#121C33"/>
  <path d="M85 70C85 70 80 90 85 100" stroke="#121C33" stroke-width="2"/>
  <path d="M150 70C150 70 155 90 150 100" stroke="#121C33" stroke-width="2"/>
  
  <!-- Eyes -->
  <ellipse cx="100" cy="110" rx="5" ry="7" fill="#121C33"/>
  <ellipse cx="140" cy="110" rx="5" ry="7" fill="#121C33"/>
  
  <!-- Smile -->
  <path d="M105 135C105 135 115 145 135 135" stroke="#121C33" stroke-width="3" stroke-linecap="round"/>
  
  <!-- Shirt -->
  <path d="M180 180V220C180 236.569 166.569 250 150 250H90C73.4315 250 60 236.569 60 220V180C60 180 90 190 120 190C150 190 180 180 180 180Z" fill="#D1D3FC"/>
  <path d="M90 250H150C166.569 250 180 236.569 180 220V190C180 190 160 200 120 200C80 200 60 190 60 190V220C60 236.569 73.4315 250 90 250Z" fill="#B8B9F7"/>
  
  <!-- Collar -->
  <path d="M120 190L100 210H140L120 190Z" fill="white"/>
  <circle cx="120" cy="205" r="3" fill="#B8B9F7"/>
  <circle cx="120" cy="215" r="3" fill="#B8B9F7"/>
  <circle cx="120" cy="225" r="3" fill="#B8B9F7"/>
  
  <!-- Thumb Up -->
  <path d="M170 130C170 130 190 110 190 100C190 90 175 90 175 90C175 90 180 70 170 70C160 70 155 90 155 90C155 90 145 70 135 80C125 90 145 110 145 110L145 140C145 140 155 150 170 140C185 130 170 130 170 130Z" fill="#F8C69D"/>
  <path d="M145 110V140C145 140 135 145 135 160C135 175 145 170 145 170H170C180 170 185 160 185 150C185 140 180 135 180 135C180 135 190 130 190 120C190 110 180 110 180 110H160" stroke="#F8C69D" stroke-width="5"/>
</svg> 