<svg width="268" height="284" viewBox="0 0 268 284" fill="none" xmlns="http://www.w3.org/2000/svg">
<path d="M176.005 155.627C178.135 171.602 188.37 174.661 199.94 180.97L180.933 195.049L166.149 172.522C165.716 170.401 164.552 168.515 164.741 166.89C165.364 161.583 170.093 158.876 173.189 155.627C174.074 155.744 175.418 155.392 176.005 155.627Z" fill="#F7E1FF"/>
<path d="M237.96 166.89C239.17 170.04 236.868 173.524 236.553 175.338L224.585 197.865C219.892 189.038 211.679 185.202 204.17 180.97C217.166 177.098 225.271 170.446 228.105 157.035C229.269 158.325 237.347 166.556 237.96 166.89Z" fill="#F7E1FF"/>
<path d="M164.734 166.89C164.544 168.515 165.708 170.401 166.142 172.522C166.927 176.376 178.903 200.482 180.925 200.681C182.531 198.533 196.873 185.537 198.524 188.713L200.636 213.352C206.782 214.986 203.235 191.078 204.156 187.305C207.622 182.179 221.764 197.793 224.571 200.681C233.326 193.109 234.724 185.771 236.539 175.338C236.854 173.524 239.156 170.04 237.946 166.89C260.14 178.831 284.445 169.463 305.528 193.641C303.867 210.907 303.073 228.407 301.304 245.735C299.67 261.683 297.775 277.72 295.672 293.605C290.555 332.269 283.587 370.843 275.961 409.065C269.941 412.549 264.183 416.827 257.658 419.625L264.697 426.664H256.25L264.697 445.671C257.423 445.518 234.634 453.397 223.163 454.119C188.578 456.312 154.039 452.206 119.671 449.895C119.138 391.276 118.533 349.372 109.815 290.789C105.041 258.749 98.7229 226.601 91.5117 195.04C106.43 177.242 143.127 175.013 164.725 166.881L164.734 166.89Z" fill="#F4E7FF"/>
<path d="M199.935 180.979C200.684 181.385 203.437 180.573 204.159 180.979C211.668 185.212 219.89 189.047 224.574 197.874L236.542 175.347C234.727 185.78 233.329 193.127 224.574 200.69C221.767 197.802 207.625 182.188 204.159 187.315C203.238 191.096 206.785 214.995 200.639 213.362L198.527 188.723C196.876 185.546 182.534 198.542 180.928 200.69C178.906 200.492 166.93 176.385 166.145 172.531L180.928 195.058L199.935 180.979Z" fill="#D1BFDD"/>
<path d="M197.822 249.969C202.353 248.263 204.862 255.42 200.638 257.008C196.107 258.714 193.598 251.557 197.822 249.969Z" fill="#D1BFDD"/>
<path d="M199.226 278.127C203.36 277.964 204.028 283.849 200.634 285.166C194.578 287.522 195.409 278.28 199.226 278.127Z" fill="#D1BFDD"/>
<path d="M197.825 221.81C203.384 219.969 202.771 228.732 199.233 228.849C194.937 228.994 194.594 222.884 197.825 221.81Z" fill="#D1BFDD"/>
<path d="M39.4267 151.402C41.9958 152.732 43.6701 158.298 42.5784 162.664C45.0105 166.312 45.8535 172.49 43.6701 176.857C45.8535 179.04 45.4033 182.537 45.0585 184.489C42.4502 199.245 30.0134 198.893 29.5712 199.976C29.2643 200.734 36.7462 211.691 36.6108 214.759C31.2859 214.534 8.62353 216.167 4.22823 217.575C8.32569 198.117 -9.11112 155.509 16.8997 149.994C17.0441 149.967 16.5026 152.964 17.6037 152.81C23.5062 151.98 30.6542 146.862 39.4267 151.402Z" fill="#E4965A"/>
<path d="M39.4253 151.402C30.6527 146.863 23.5047 151.98 17.6022 152.81C16.5011 152.964 17.0426 149.967 16.8982 149.994C28.4686 147.567 15.5715 112.034 33.0895 117.612C42.539 120.617 36.3748 144.814 39.4253 151.402Z" fill="#D37841"/>
<path d="M253.443 107.756C251.981 111.294 249.788 117.44 244.996 117.612C246.124 110.283 242.649 97.5848 242.18 92.2689C246.079 93.0992 245.682 86.7635 246.404 83.8212C262.396 82.7833 257.459 98.0631 253.443 107.756Z" fill="#D37841"/>
<path d="M223.879 149.994C224.105 150.951 224.782 152.007 225.287 152.81C215.107 156.185 204.953 164.507 193.608 164.074C185.323 163.758 181.497 157.81 176.009 155.626C175.423 155.391 174.078 155.743 173.193 155.626C174.655 154.092 176.217 151.799 177.417 149.994C191.903 158.911 208.933 158.568 223.879 149.994Z" fill="#D37841"/>
<path d="M225.292 152.809C226.104 154.1 227.124 155.941 228.107 157.033C225.264 170.445 217.169 177.096 204.172 180.968C203.45 180.562 200.698 181.374 199.949 180.968C188.378 174.659 178.144 171.6 176.014 155.625C181.501 157.809 185.328 163.757 193.613 164.073C204.958 164.506 215.111 156.185 225.292 152.809Z" fill="#E4965A"/>
<path d="M242.181 92.2677C242.65 97.5836 246.125 110.282 244.997 117.611C243.408 127.954 233.21 144.65 223.878 149.993C208.923 158.567 191.901 158.91 177.416 149.993C174.889 148.441 160.214 134.461 159.113 132.394C156.892 128.233 156.901 117.963 156.297 116.907C155.827 116.085 146.874 118.125 142.217 107.051C138.652 98.5673 135.809 78.6035 150.665 85.228C151.134 86.7262 152.262 92.6197 154.889 90.1558L159.817 48.6216C186.387 59.5602 209.013 62.9898 235.854 50.0295C238.634 51.1938 241.685 86.5908 242.19 92.2677H242.181Z" fill="#E4965A"/>
<path d="M180.934 121.836L219.652 123.948C210.148 137.793 187.513 139.733 180.934 121.836Z" fill="#FDFDFD"/>
<path d="M213.321 71.1497C219.269 69.832 231.453 70.4187 235.145 76.0775L209.098 76.7815C206.327 73.2075 211.336 71.592 213.321 71.1497Z" fill="#121C33"/>
<path d="M171.081 71.1494C175.774 70.1566 189.52 69.6873 190.088 76.0772L164.042 76.7811C163.031 74.8858 170.639 71.2396 171.081 71.1494Z" fill="#121C33"/>
<path d="M220.362 83.8217C224.206 83.5689 226.923 94.6068 223.178 96.4931C215.109 100.563 215.244 84.1556 220.362 83.8217Z" fill="#121C33"/>
<path d="M176.711 83.8224C182.37 82.622 183.362 95.8801 178.119 96.4939C171.693 97.252 172.604 84.6979 176.711 83.8224Z" fill="#121C33"/>
<path d="M109.828 290.797C107.68 290.906 106.534 294.209 105.605 295.021C71.7959 324.615 39.0162 373.243 18.3032 302.765C10.2798 275.445 8.66425 245.4 0 218.279C0.812273 216.844 3.05956 217.945 4.22381 217.575C8.62814 216.167 31.2815 214.534 36.6064 214.759C38.2942 214.832 38.7996 211.24 42.2382 215.463L55.6136 251.366C68.5558 234.913 78.3844 210.716 91.5161 195.048C98.7273 226.61 105.054 258.758 109.819 290.797H109.828Z" fill="#D1BFDD"/>
<path d="M34.5069 231.663C50.599 231.356 44.6874 240.147 50.6982 250.671C56.9798 261.654 64.9131 271.086 67.5936 284.461C71.6549 304.759 68.7758 349.19 37.3228 333.035C20.7434 324.515 11.3301 254.804 9.16406 235.878C16.7363 236.636 27.8644 231.781 34.5069 231.654V231.663Z" fill="#F7E1FF"/>
<path d="M246.406 83.8216C245.684 86.7638 246.081 93.0995 242.182 92.2692C241.676 86.5833 238.626 51.1953 235.846 50.031C209.005 62.9913 186.388 59.5617 159.808 48.6231L154.881 90.1573C152.254 92.6212 151.126 86.7277 150.657 85.2295C142.137 58.1357 135.521 6.08706 173.888 0.744108C207.624 -3.94902 224.98 14.4444 250.629 31.0148C256.406 41.1141 249.312 71.9534 246.406 83.8126V83.8216Z" fill="#121C33"/>
<path d="M173.896 6.37627C195.006 3.7048 211.793 16.295 222.469 33.8311C204.663 18.9214 181.973 0.193975 158.408 14.8239C159.266 9.95027 169.627 6.91779 173.896 6.37627Z" fill="#2D4C6C"/>
<path d="M159.818 42.9911C176.705 41.2943 191.497 51.2492 208.392 52.1427L192.201 52.8467L159.818 42.9911Z" fill="#2D4C6C"/>
</svg>
