<svg width="32" height="32" viewBox="0 0 32 32" fill="none" xmlns="http://www.w3.org/2000/svg">
<path d="M26.752 20.4585C27.312 19.0856 27.616 17.6157 27.616 16.0005C27.616 14.8376 27.44 13.7231 27.136 12.6894C26.096 12.9316 25.008 13.0609 23.872 13.0609C21.5456 13.0634 19.2526 12.5012 17.1864 11.4218C15.1203 10.3423 13.3415 8.77726 12 6.85847C10.5663 10.3647 7.85875 13.1847 4.432 14.7407C4.368 15.1445 4.368 15.5806 4.368 16.0005C4.368 17.5426 4.66887 19.0695 5.25343 20.4942C5.838 21.9189 6.6948 23.2134 7.77493 24.3038C9.95636 26.5059 12.915 27.7431 16 27.7431C17.68 27.7431 19.296 27.3716 20.752 26.7093C21.664 28.4699 22.08 29.3421 22.048 29.3421C19.424 30.2305 17.392 30.6666 16 30.6666C12.128 30.6666 8.432 29.1321 5.712 26.3701C4.05608 24.7064 2.82603 22.6608 2.128 20.41H0V13.0609H1.744C2.27239 10.4644 3.48719 8.06085 5.2595 6.10513C7.03182 4.14941 9.29553 2.71452 11.8104 1.95271C14.3254 1.1909 16.9977 1.13059 19.5438 1.77818C22.0899 2.42577 24.4149 3.75711 26.272 5.63092C28.2877 7.65894 29.6629 10.2444 30.224 13.0609H32V20.41H31.904L26.208 25.6918L17.728 24.7226V22.0252H25.456L26.752 20.4585ZM11.632 15.629C12.112 15.629 12.576 15.8229 12.912 16.1782C13.2497 16.5219 13.4391 16.9863 13.4391 17.4704C13.4391 17.9544 13.2497 18.4189 12.912 18.7625C12.576 19.1017 12.112 19.2955 11.632 19.2955C10.624 19.2955 9.808 18.4879 9.808 17.4704C9.808 16.4528 10.624 15.629 11.632 15.629ZM20.352 15.629C21.36 15.629 22.16 16.4528 22.16 17.4704C22.16 18.4879 21.36 19.2955 20.352 19.2955C19.344 19.2955 18.528 18.4879 18.528 17.4704C18.528 16.982 18.7202 16.5137 19.0622 16.1683C19.4043 15.823 19.8682 15.629 20.352 15.629Z" fill="white"/>
</svg>
