<svg width="80" height="80" viewBox="0 0 80 80" fill="none" xmlns="http://www.w3.org/2000/svg">
<path d="M66.88 51.1464C68.28 47.7141 69.04 44.0395 69.04 40.0014C69.04 37.0941 68.6 34.3079 67.84 31.7235C65.24 32.3292 62.52 32.6523 59.68 32.6523C53.8639 32.6586 48.1315 31.2532 42.9661 28.5546C37.8007 25.856 33.3537 21.9433 30 17.1463C26.4158 25.9118 19.6469 32.9618 11.08 36.8518C10.92 37.8613 10.92 38.9516 10.92 40.0014C10.92 43.8566 11.6722 47.674 13.1336 51.2356C14.595 54.7973 16.737 58.0335 19.4373 60.7595C24.8909 66.2649 32.2875 69.3578 40 69.3578C44.2 69.3578 48.24 68.429 51.88 66.7735C54.16 71.1749 55.2 73.3554 55.12 73.3554C48.56 75.5763 43.48 76.6666 40 76.6666C30.32 76.6666 21.08 72.8305 14.28 65.9255C10.1402 61.766 7.06508 56.6522 5.32 51.0252H0V32.6523H4.36C5.68097 26.1612 8.71797 20.1522 13.1488 15.2629C17.5795 10.3736 23.2388 6.78641 29.5261 4.88189C35.8134 2.97737 42.4941 2.8266 48.8595 4.44558C55.2248 6.06456 61.0372 9.39289 65.68 14.0774C70.7191 19.1475 74.1572 25.6111 75.56 32.6523H80V51.0252H79.76L65.52 64.2295L44.32 61.8067V55.0632H63.64L66.88 51.1464ZM29.08 39.0727C30.28 39.0727 31.44 39.5573 32.28 40.4456C33.1242 41.3048 33.5979 42.4659 33.5979 43.676C33.5979 44.8862 33.1242 46.0473 32.28 46.9064C31.44 47.7544 30.28 48.239 29.08 48.239C26.56 48.239 24.52 46.22 24.52 43.676C24.52 41.1321 26.56 39.0727 29.08 39.0727ZM50.88 39.0727C53.4 39.0727 55.4 41.1321 55.4 43.676C55.4 46.22 53.4 48.239 50.88 48.239C48.36 48.239 46.32 46.22 46.32 43.676C46.32 42.4552 46.8004 41.2843 47.6556 40.421C48.5108 39.5577 49.6706 39.0727 50.88 39.0727Z" fill="#8F27CE"/>
</svg>
