<svg width="16" height="16" viewBox="0 0 16 16" fill="none" xmlns="http://www.w3.org/2000/svg">
  <path d="M13.601 2.326C12.0969 0.822 10.0719 0 7.92488 0C3.60488 0 0.0848763 3.52 0.0848763 7.84C0.0848763 9.22 0.424876 10.56 1.06488 11.74L0 16L4.36488 14.96C5.50488 15.54 6.70488 15.84 7.92488 15.84C12.2449 15.84 15.7649 12.32 15.7649 8C15.7649 5.86 14.9449 3.82 13.601 2.326ZM7.92488 14.5C6.82488 14.5 5.74488 14.22 4.80488 13.7L4.56488 13.56L2.00488 14.16L2.60488 11.68L2.42488 11.42C1.85148 10.44 1.54153 9.32893 1.54488 8.2C1.54488 4.28 4.42488 1.14 7.92488 1.14C9.72488 1.14 11.4049 1.82 12.6649 3.08C13.9249 4.34 14.4449 6.02 14.4449 7.84C14.4449 11.76 11.4049 14.5 7.92488 14.5ZM11.3849 9.46C11.1849 9.36 10.2649 8.91 10.0849 8.84C9.90488 8.77 9.76488 8.74 9.62488 8.94C9.48488 9.14 9.12488 9.55 9.00488 9.69C8.88488 9.83 8.76488 9.85 8.56488 9.75C7.55028 9.25559 6.68851 8.48283 6.06488 7.51C5.86488 7.17 6.22488 7.19 6.56488 6.51C6.63488 6.37 6.60488 6.25 6.55488 6.15C6.50488 6.05 6.14488 5.13 5.97488 4.73C5.80488 4.34 5.63488 4.39 5.50488 4.38C5.38488 4.37 5.24488 4.37 5.10488 4.37C4.96488 4.37 4.74488 4.42 4.56488 4.62C4.38488 4.82 3.90488 5.27 3.90488 6.19C3.90488 7.11 4.56488 8 4.66488 8.14C4.76488 8.28 6.13488 10.39 8.22488 11.19C9.42488 11.64 9.90488 11.69 10.5049 11.6C10.8649 11.54 11.6049 11.14 11.7749 10.67C11.9449 10.2 11.9449 9.8 11.8949 9.72C11.8449 9.64 11.7049 9.6 11.5049 9.5L11.3849 9.46Z" fill="white"/>
</svg> 