<svg width="32" height="32" viewBox="0 0 32 32" fill="none" xmlns="http://www.w3.org/2000/svg">
<path d="M2.15559 11.6295C2.15559 11.6295 2.20142 11.5595 2.22018 11.5321C2.27261 11.4555 2.32637 11.3801 2.38145 11.3057C2.52161 11.116 2.7279 10.8523 3.00308 10.5395C3.55307 9.91413 4.38039 9.09026 5.50684 8.26933C7.76608 6.62286 11.2137 5 16 5C20.7862 5 24.2339 6.62286 26.4931 8.26933C27.6196 9.09026 28.4469 9.91413 28.9969 10.5395C29.2721 10.8523 29.4784 11.116 29.6185 11.3057C29.6886 11.4006 29.7423 11.4771 29.7798 11.5321C29.7985 11.5596 29.8133 11.5816 29.824 11.598L29.8372 11.6182L29.8431 11.6275L29.8438 11.6285L29.8444 11.6295C29.9625 11.8159 30.0161 12.0421 29.9958 12.2677C29.9755 12.4933 29.8825 12.7037 29.7334 12.8613L27.7269 14.9836C27.6408 15.0747 27.5385 15.1455 27.4263 15.1916C27.3141 15.2377 27.1944 15.2581 27.0748 15.2515C26.9551 15.245 26.8379 15.2116 26.7304 15.1535C26.623 15.0954 26.5277 15.0138 26.4503 14.9137L26.4497 14.9128L26.448 14.9108L26.4454 14.9076C26.4405 14.9012 26.4317 14.8903 26.4191 14.8748C26.3797 14.8268 26.3396 14.7794 26.2989 14.7326C26.1891 14.6061 26.0202 14.42 25.7942 14.194C25.3417 13.7415 24.6627 13.132 23.771 12.5212C21.9882 11.3001 19.3676 10.0815 16 10.0815C12.6323 10.0815 10.0118 11.3001 8.22901 12.5212C7.33722 13.132 6.65828 13.7415 6.20574 14.194C5.97966 14.42 5.8109 14.6061 5.70103 14.7326C5.66033 14.7794 5.62028 14.8268 5.58088 14.8748L5.55452 14.9076L5.54987 14.9135C5.4725 15.0136 5.37699 15.0954 5.26957 15.1535C5.16215 15.2116 5.04496 15.245 4.92526 15.2515C4.80556 15.2581 4.6859 15.2377 4.5737 15.1916C4.46151 15.1455 4.35917 15.0747 4.27303 14.9836L2.26655 12.8613C2.11751 12.7037 2.02454 12.4933 2.00421 12.2677C1.98389 12.0421 2.03754 11.8159 2.15559 11.6295Z" fill="white"/>
<path d="M6.9718 16.8287L6.97568 16.8218C6.98576 16.804 7.00601 16.7682 7.0162 16.751C7.04813 16.6976 7.08113 16.645 7.11519 16.5932C7.20006 16.4639 7.32371 16.2886 7.4904 16.0829C7.82394 15.6716 8.33051 15.1382 9.04445 14.61C10.4811 13.5471 12.7205 12.5326 15.9999 12.5326C19.2794 12.5326 21.5187 13.5471 22.9554 14.61C23.6693 15.1382 24.1759 15.6716 24.5095 16.0829C24.6762 16.2886 24.7998 16.4639 24.8847 16.5932C24.9187 16.645 24.9517 16.6976 24.9836 16.751C24.9955 16.771 25.0051 16.7875 25.0125 16.8005L25.0281 16.8287C25.1282 17.0141 25.1683 17.231 25.1417 17.4443C25.1151 17.6576 25.0235 17.8549 24.8816 18.0043L22.9506 20.0369C22.8659 20.126 22.7658 20.1955 22.656 20.2414C22.5462 20.2872 22.4292 20.3084 22.3117 20.3037C22.1943 20.2991 22.079 20.2686 21.9726 20.2141C21.8661 20.1596 21.7709 20.0823 21.6924 19.9867L21.6817 19.9742C21.6704 19.9611 21.6508 19.9388 21.623 19.9086C21.5378 19.8169 21.4497 19.7284 21.3588 19.6434C21.1181 19.4172 20.7521 19.1086 20.2675 18.7981C19.2999 18.1782 17.8651 17.5543 15.9999 17.5543C14.1347 17.5543 12.7 18.1782 11.7323 18.7981C11.2477 19.1086 10.8818 19.4172 10.641 19.6434C10.5502 19.7284 10.462 19.8169 10.3769 19.9086C10.3533 19.9342 10.3301 19.9602 10.3075 19.9867C10.229 20.0822 10.1332 20.1599 10.0269 20.2143C9.92048 20.2687 9.80516 20.2991 9.68779 20.3037C9.57043 20.3084 9.45341 20.2871 9.3437 20.2413C9.234 20.1954 9.13387 20.1259 9.04926 20.0369L7.11825 18.0043C6.97637 17.8549 6.88473 17.6576 6.85816 17.4443C6.83158 17.231 6.87162 17.0141 6.9718 16.8287Z" fill="white"/>
<path d="M11.8823 21.8446C11.9008 21.817 11.9197 21.7898 11.9391 21.763C12.0018 21.6768 12.0678 21.5936 12.137 21.5137C12.3072 21.3163 12.5576 21.0631 12.8955 20.8127C13.5781 20.3071 14.6022 19.8261 16 19.8261C17.3978 19.8261 18.422 20.3071 19.1045 20.8127C19.4425 21.0631 19.6928 21.3163 19.863 21.5137C19.9322 21.5936 19.9982 21.6768 20.0609 21.763L20.1476 21.891C20.2629 22.0774 20.3143 22.3022 20.293 22.5259C20.2716 22.7497 20.1788 22.958 20.0309 23.1144L16.6082 26.7312C16.269 27.0896 15.7311 27.0896 15.3919 26.7312L11.9692 23.1144C11.8212 22.958 11.7284 22.7497 11.707 22.5259C11.6857 22.3022 11.7371 22.0774 11.8524 21.891L11.8823 21.8446Z" fill="white"/>
</svg>
