<svg width="378" height="476" viewBox="0 0 378 476" fill="none" xmlns="http://www.w3.org/2000/svg">
<g opacity="0.75">
<path d="M45.8188 329.906C44.7901 329.821 43.8008 330.266 43.1696 331.03L37.7689 337.539C37.0064 338.459 36.8315 339.722 37.2702 340.799C37.7426 341.906 38.7759 342.638 39.9549 342.723C39.9945 342.735 45.1205 343.216 48.3887 347.121C50.7278 349.937 51.6223 353.948 51.0556 359.063C49.5588 372.68 57.5165 376.573 63.3175 379.384C68.813 382.064 71.2057 383.515 70.0466 389.557C68.7558 396.272 69.7915 401.79 73.1288 405.974C78.4414 412.674 87.6279 413.088 88.0077 413.112C88.9827 413.16 89.9266 412.723 90.5578 411.959L95.9584 405.451C96.2525 405.105 96.4534 404.711 96.5692 404.314C96.7043 403.854 96.7333 403.369 96.6541 402.896C96.5749 402.423 96.3896 401.975 96.112 401.585C95.8345 401.194 95.472 400.873 95.052 400.644C94.632 400.415 94.1654 400.284 93.6875 400.263C93.6281 400.245 86.9589 399.896 83.4755 395.476C81.3765 392.795 80.7585 389.015 81.6834 384.22C83.7972 373.133 76.6987 369.684 71.5226 367.162C66.0666 364.495 61.7497 362.417 62.7719 353.232C63.5335 346.341 62.1611 340.725 58.6735 336.541C53.6288 330.544 46.1391 329.913 45.8188 329.906Z" fill="#FFCE4F"/>
<g opacity="0.7" filter="url(#filter0_f_3970_37243)">
<path d="M152.443 289.94C151.848 290.284 151.474 290.903 151.418 291.561L150.928 297.178C150.859 297.971 151.243 298.73 151.892 299.154C152.571 299.581 153.415 299.59 154.093 299.19C154.12 299.181 157.111 297.5 160.385 298.4C162.735 299.055 164.747 300.914 166.378 303.933C170.724 311.963 176.563 311.077 180.809 310.417C184.837 309.8 186.7 309.688 188.357 313.439C190.197 317.609 192.859 320.24 196.276 321.267C201.73 322.923 206.922 319.664 207.139 319.533C207.691 319.189 208.043 318.592 208.099 317.933L208.589 312.317C208.619 312.016 208.58 311.724 208.493 311.462C208.392 311.159 208.224 310.882 208.001 310.653C207.778 310.424 207.507 310.249 207.206 310.14C206.906 310.031 206.585 309.993 206.268 310.027C205.951 310.06 205.646 310.166 205.376 310.335C205.337 310.349 201.549 312.688 197.963 311.587C195.795 310.914 194.022 309.077 192.709 306.098C189.661 299.219 184.462 300.023 180.668 300.605C176.665 301.213 173.511 301.713 170.586 296.291C168.389 292.225 165.506 289.668 162.006 288.698C156.966 287.326 152.622 289.822 152.443 289.94Z" fill="#FFCE4F"/>
</g>
<path d="M226.032 38.651L216.077 40.4698C214.283 40.7975 213.249 42.4765 213.774 44.2087L216.617 53.9355C216.885 54.7929 217.464 55.532 218.214 55.994C218.983 56.468 219.894 56.6704 220.771 56.4947L230.757 54.6705C232.55 54.3428 233.574 52.681 233.06 50.9316L230.187 41.2102C229.673 39.4607 227.807 38.3115 226.032 38.651Z" fill="#0595C3"/>
<g opacity="0.7" filter="url(#filter1_f_3970_37243)">
<path d="M241.535 194.465C241.02 194.922 240.778 195.603 240.855 196.259L241.5 201.86C241.591 202.651 242.119 203.318 242.839 203.603C243.591 203.886 244.419 203.726 245.004 203.197C245.028 203.184 247.622 200.937 251.009 201.164C253.443 201.335 255.787 202.753 257.989 205.384C263.856 212.382 269.398 210.344 273.426 208.847C277.25 207.436 279.052 206.953 281.427 210.296C284.065 214.013 287.199 216.058 290.753 216.38C296.428 216.91 300.862 212.677 301.049 212.506C301.521 212.058 301.746 211.402 301.669 210.746L301.024 205.145C300.994 204.845 300.897 204.566 300.759 204.327C300.599 204.05 300.379 203.813 300.115 203.633C299.851 203.453 299.55 203.336 299.234 203.289C298.918 203.243 298.596 203.269 298.292 203.366C297.988 203.463 297.71 203.627 297.479 203.847C297.444 203.868 294.201 206.919 290.467 206.558C288.209 206.333 286.104 204.888 284.221 202.232C279.856 196.104 274.924 197.932 271.324 199.262C267.524 200.66 264.534 201.781 260.582 197.054C257.615 193.511 254.278 191.583 250.655 191.334C245.442 190.999 241.686 194.314 241.535 194.465Z" fill="#FFCE4F"/>
</g>
<g opacity="0.5" filter="url(#filter2_f_3970_37243)">
<path d="M329.946 108.598C329.773 108.997 329.845 109.485 330.11 109.893L332.363 113.375C332.681 113.866 333.233 114.189 333.78 114.226C334.346 114.256 334.815 113.984 335.008 113.524C335.018 113.51 335.909 111.533 338.114 110.989C339.701 110.605 341.643 111.042 343.896 112.291C349.893 115.61 352.707 113.168 354.746 111.382C356.685 109.693 357.659 109.015 360.256 110.688C363.141 112.548 365.787 113.229 368.128 112.714C371.872 111.9 373.264 108.267 373.325 108.119C373.474 107.734 373.4 107.265 373.135 106.857L370.882 103.376C370.763 103.188 370.61 103.028 370.445 102.902C370.253 102.756 370.036 102.648 369.811 102.585C369.586 102.523 369.357 102.509 369.143 102.543C368.929 102.578 368.736 102.66 368.576 102.785C368.417 102.909 368.297 103.071 368.224 103.26C368.209 103.281 367.176 105.909 364.708 106.437C363.214 106.751 361.413 106.248 359.353 104.918C354.587 101.853 352.088 104.037 350.262 105.628C348.334 107.302 346.823 108.634 342.779 106.39C339.744 104.709 337.009 104.145 334.649 104.721C331.26 105.566 329.991 108.469 329.946 108.598Z" fill="#FFCE4F"/>
</g>
<g opacity="0.5" filter="url(#filter3_f_3970_37243)">
<path d="M153.102 397.577C152.674 397.656 152.309 397.99 152.12 398.437L150.492 402.251C150.262 402.79 150.303 403.428 150.578 403.902C150.87 404.388 151.357 404.625 151.847 404.528C151.864 404.529 154.001 404.162 155.684 405.687C156.891 406.788 157.613 408.643 157.837 411.208C158.437 418.037 162.035 419.005 164.655 419.698C167.139 420.362 168.246 420.79 168.31 423.879C168.38 427.311 169.295 429.885 171.031 431.538C173.798 434.188 177.588 433.312 177.746 433.279C178.148 433.188 178.495 432.864 178.685 432.416L180.313 428.603C180.402 428.399 180.449 428.183 180.461 427.975C180.475 427.735 180.444 427.494 180.37 427.273C180.295 427.051 180.18 426.854 180.032 426.696C179.883 426.538 179.707 426.423 179.515 426.36C179.323 426.298 179.12 426.289 178.923 426.334C178.897 426.333 176.141 426.945 174.324 425.194C173.228 424.131 172.639 422.356 172.59 419.905C172.468 414.239 169.26 413.388 166.921 412.763C164.454 412.1 162.505 411.592 162.105 406.984C161.803 403.528 160.743 400.945 158.945 399.31C156.35 396.972 153.234 397.543 153.102 397.577Z" fill="#FFCE4F"/>
</g>
<g opacity="0.5" filter="url(#filter4_f_3970_37243)">
<path d="M18.3682 420.552C17.9455 420.449 17.476 420.603 17.1189 420.933L14.0674 423.741C13.6364 424.138 13.4115 424.736 13.4672 425.282C13.5334 425.844 13.8805 426.26 14.3664 426.373C14.3816 426.381 16.4809 426.925 17.3884 429.007C18.0355 430.507 17.9316 432.494 17.0808 434.925C14.8208 441.397 17.7029 443.759 19.8071 445.467C21.7986 447.094 22.6315 447.939 21.4204 450.781C20.0734 453.939 19.8486 456.661 20.7518 458.881C22.185 462.435 26.0006 463.194 26.1575 463.229C26.5621 463.311 27.0115 463.159 27.3686 462.829L30.4201 460.021C30.5852 459.873 30.7169 459.695 30.8132 459.51C30.9251 459.297 30.9954 459.065 31.0187 458.832C31.042 458.6 31.0177 458.372 30.9476 458.167C30.8775 457.962 30.7636 457.785 30.6142 457.649C30.4649 457.513 30.2842 457.422 30.0857 457.382C30.0628 457.37 27.2985 456.795 26.3621 454.452C25.7999 453.032 25.9924 451.173 26.9557 448.918C29.1725 443.703 26.5986 441.608 24.7227 440.077C22.7465 438.458 21.1788 437.194 22.7086 432.829C23.854 429.554 23.9489 426.764 22.9825 424.534C21.5779 421.336 18.5022 420.575 18.3682 420.552Z" fill="#FFCE4F"/>
</g>
<g opacity="0.5" filter="url(#filter5_f_3970_37243)">
<path d="M170.189 21.2605C170.193 21.5873 170.394 21.9009 170.704 22.1003L173.34 23.8065C173.713 24.0475 174.195 24.1012 174.585 23.9604C174.985 23.8088 175.225 23.4796 175.216 23.105C175.219 23.0924 175.222 21.4636 176.579 20.4201C177.558 19.6732 179.036 19.3835 180.981 19.5564C186.158 20.0127 187.347 17.4798 188.204 15.6333C189.022 13.8841 189.485 13.1221 191.8 13.4818C194.371 13.8824 196.412 13.5457 197.871 12.4799C200.209 10.7831 200.046 7.86476 200.042 7.7441C200.026 7.43435 199.829 7.13516 199.52 6.93575L196.883 5.22952C196.743 5.13659 196.587 5.07335 196.434 5.03712C196.256 4.99486 196.073 4.98631 195.897 5.01213C195.722 5.03794 195.56 5.09745 195.423 5.18615C195.285 5.27485 195.177 5.39042 195.105 5.52415C195.034 5.65787 195.001 5.80625 195.009 5.95807C195.005 5.97697 195.104 8.09572 193.561 9.20829C192.625 9.8787 191.224 10.0803 189.387 9.79324C185.141 9.13737 184.089 11.3968 183.32 13.0444C182.505 14.781 181.873 16.155 178.38 15.8432C175.76 15.6109 173.694 16.0547 172.24 17.1683C170.158 18.779 170.18 21.1587 170.189 21.2605Z" fill="#FFCE4F"/>
</g>
<g opacity="0.5" filter="url(#filter6_f_3970_37243)">
<path d="M213.597 142.193C213.494 142.503 213.583 142.865 213.81 143.155L215.749 145.626C216.023 145.975 216.461 146.183 216.875 146.176C217.303 146.163 217.637 145.93 217.75 145.573C217.757 145.562 218.29 144.023 219.913 143.477C221.081 143.09 222.573 143.297 224.356 144.093C229.103 146.209 231.051 144.2 232.463 142.733C233.805 141.345 234.491 140.776 236.563 141.869C238.864 143.084 240.904 143.43 242.63 142.897C245.392 142.053 246.188 139.24 246.224 139.125C246.309 138.827 246.22 138.48 245.993 138.191L244.054 135.719C243.952 135.586 243.826 135.476 243.692 135.391C243.538 135.293 243.367 135.226 243.193 135.193C243.019 135.161 242.846 135.164 242.688 135.203C242.529 135.242 242.389 135.316 242.277 135.42C242.166 135.523 242.087 135.652 242.045 135.799C242.035 135.815 241.44 137.851 239.619 138.401C238.516 138.73 237.125 138.465 235.482 137.596C231.68 135.594 229.95 137.389 228.686 138.696C227.351 140.073 226.306 141.167 223.105 139.736C220.703 138.664 218.605 138.411 216.868 138.991C214.375 139.836 213.622 142.094 213.597 142.193Z" fill="#FFCE4F"/>
</g>
<g opacity="0.7" filter="url(#filter7_f_3970_37243)">
<path d="M148.037 75.4204C147.65 76.0372 147.607 76.801 147.881 77.4444L150.203 82.9393C150.532 83.7156 151.266 84.2354 152.082 84.3101C152.929 84.3739 153.723 83.9645 154.159 83.2539C154.179 83.2328 156.145 80.1791 159.652 79.4005C162.174 78.8498 164.976 79.592 167.995 81.6076C176.036 86.9658 181.057 83.2465 184.701 80.5268C188.163 77.9554 189.849 76.9284 193.257 79.6159C197.042 82.6042 200.834 83.7472 204.537 83.0158C210.458 81.8642 213.7 76.2462 213.838 76.0163C214.184 75.421 214.218 74.6883 213.944 74.0449L211.622 68.55C211.501 68.2537 211.319 68 211.108 67.7985C210.864 67.5644 210.57 67.3888 210.248 67.2849C209.926 67.181 209.585 67.1515 209.251 67.1986C208.916 67.2457 208.597 67.3682 208.317 67.5569C208.038 67.7456 207.805 67.9954 207.636 68.2876C207.606 68.3192 205.222 72.3822 201.323 73.1282C198.962 73.5722 196.395 72.7321 193.692 70.596C187.436 65.6727 182.972 68.9982 179.712 71.4208C176.27 73.9711 173.568 75.9999 168.148 72.3776C164.08 69.6635 160.118 68.6996 156.365 69.5249C150.972 70.7369 148.145 75.2221 148.037 75.4204Z" fill="#FFCE4F"/>
</g>
<path d="M52.9657 166.542C51.9881 166.873 51.2568 167.674 50.9812 168.626L48.6108 176.744C48.2765 177.892 48.6181 179.121 49.4482 179.934C50.3218 180.763 51.561 181.024 52.6767 180.634C52.7176 180.629 57.6129 179.034 62.1636 181.319C65.4288 182.974 67.8431 186.299 69.3553 191.219C73.3913 204.309 82.2406 204.72 88.6811 204.996C94.7888 205.271 97.5614 205.653 98.898 211.658C100.381 218.333 103.524 222.985 108.249 225.499C115.786 229.537 124.381 226.267 124.739 226.139C125.652 225.795 126.345 225.02 126.621 224.067L128.991 215.949C129.124 215.515 129.152 215.074 129.1 214.663C129.041 214.187 128.875 213.731 128.615 213.328C128.354 212.926 128.006 212.588 127.596 212.34C127.187 212.092 126.726 211.941 126.25 211.898C125.773 211.855 125.293 211.92 124.846 212.09C124.785 212.098 118.526 214.427 113.573 211.754C110.582 210.128 108.513 206.905 107.457 202.137C104.992 191.122 97.1073 190.778 91.3554 190.52C85.2886 190.239 80.5018 190.048 77.7906 181.213C75.752 174.587 72.2614 169.978 67.3982 167.523C60.3865 164.024 53.2625 166.421 52.9657 166.542Z" fill="#FFCE4F"/>
<path d="M73.7297 273.946L63.7743 275.765C61.9805 276.092 60.9461 277.771 61.471 279.504L64.3141 289.23C64.5819 290.088 65.1613 290.827 65.9114 291.289C66.6807 291.763 67.5908 291.965 68.4684 291.79L78.4538 289.965C80.2475 289.638 81.2712 287.976 80.757 286.226L77.884 276.505C77.3698 274.756 75.5042 273.606 73.7297 273.946Z" fill="#0595C3"/>
<path d="M116.814 158.71L112.346 167.79C111.541 169.426 112.274 171.257 113.978 171.867L123.485 175.376C124.333 175.671 125.272 175.646 126.09 175.319C126.929 174.983 127.634 174.372 128.015 173.563L132.496 164.455C133.301 162.819 132.576 161.007 130.865 160.378L121.344 156.896C119.633 156.268 117.598 157.082 116.814 158.71Z" fill="#0595C3"/>
<g opacity="0.7" filter="url(#filter8_f_3970_37243)">
<path d="M298.484 172.402L290.509 171.264C289.072 171.058 287.868 172.065 287.827 173.505L287.52 181.566C287.506 182.281 287.757 182.985 288.206 183.523C288.668 184.075 289.304 184.457 290.011 184.546L298.009 185.687C299.446 185.892 300.638 184.896 300.691 183.446L300.975 175.382C301.028 173.931 299.909 172.593 298.484 172.402Z" fill="#0595C3"/>
</g>
<g opacity="0.5" filter="url(#filter9_f_3970_37243)">
<path d="M257.519 100.936L252.322 100.195C251.386 100.061 250.601 100.717 250.575 101.655L250.374 106.908C250.365 107.374 250.529 107.833 250.822 108.184C251.122 108.543 251.537 108.793 251.998 108.85L257.21 109.594C258.147 109.728 258.924 109.079 258.958 108.134L259.143 102.878C259.177 101.933 258.448 101.061 257.519 100.936Z" fill="#0595C3"/>
</g>
<g opacity="0.5" filter="url(#filter10_f_3970_37243)">
<path d="M111.602 338.054L106.404 337.313C105.468 337.179 104.683 337.835 104.657 338.774L104.456 344.027C104.447 344.492 104.611 344.951 104.904 345.302C105.205 345.662 105.619 345.911 106.08 345.969L111.292 346.713C112.229 346.846 113.006 346.197 113.04 345.252L113.225 339.997C113.259 339.051 112.53 338.179 111.602 338.054Z" fill="#0595C3"/>
</g>
<g opacity="0.5" filter="url(#filter11_f_3970_37243)">
<path d="M65.0898 81.785L59.8927 81.0432C58.9563 80.9096 58.1714 81.5656 58.1449 82.5041L57.9447 87.7571C57.9355 88.223 58.0991 88.6818 58.3922 89.0325C58.6928 89.3921 59.1073 89.6413 59.568 89.6991L64.7806 90.4431C65.717 90.5767 66.4938 89.9275 66.5285 88.9822L66.713 83.727C66.7476 82.7817 66.0187 81.9096 65.0898 81.785Z" fill="#0595C3"/>
</g>
<g opacity="0.5" filter="url(#filter12_f_3970_37243)">
<path d="M199.327 188.157L195.875 187.664C195.253 187.575 194.731 188.011 194.714 188.635L194.581 192.124C194.575 192.433 194.683 192.738 194.878 192.971C195.078 193.21 195.353 193.375 195.659 193.414L199.121 193.908C199.743 193.997 200.259 193.565 200.282 192.937L200.405 189.447C200.428 188.819 199.944 188.24 199.327 188.157Z" fill="#0595C3"/>
</g>
<g opacity="0.5" filter="url(#filter13_f_3970_37243)">
<path d="M325.18 40.4137L321.728 39.921C321.106 39.8322 320.585 40.268 320.567 40.8914L320.434 44.3805C320.428 44.6899 320.537 44.9947 320.731 45.2276C320.931 45.4665 321.206 45.632 321.512 45.6705L324.975 46.1646C325.597 46.2534 326.113 45.8221 326.136 45.1943L326.258 41.7036C326.281 41.0758 325.797 40.4965 325.18 40.4137Z" fill="#0595C3"/>
</g>
<g opacity="0.5" filter="url(#filter14_f_3970_37243)">
<path d="M63.4379 465.403L59.9859 464.91C59.3639 464.821 58.8426 465.257 58.825 465.881L58.692 469.37C58.6859 469.679 58.7946 469.984 58.9892 470.217C59.1889 470.456 59.4642 470.621 59.7702 470.66L63.2326 471.154C63.8545 471.243 64.3705 470.811 64.3935 470.184L64.5161 466.693C64.5391 466.065 64.0549 465.486 63.4379 465.403Z" fill="#0595C3"/>
</g>
<g opacity="0.7" filter="url(#filter15_f_3970_37243)">
<path d="M222.698 287.129L215.275 283.764C213.937 283.157 212.482 283.794 212.034 285.181L209.451 292.924C209.235 293.614 209.28 294.369 209.564 295.019C209.856 295.686 210.365 296.238 211.026 296.524L218.472 299.9C219.81 300.506 221.25 299.876 221.713 298.482L224.273 290.73C224.736 289.336 224.029 287.719 222.698 287.129Z" fill="#0595C3"/>
</g>
<g opacity="0.7" filter="url(#filter16_f_3970_37243)">
<path d="M133.289 448.548L129.336 439.232C128.624 437.553 126.759 436.912 125.184 437.803L116.315 442.705C115.537 443.154 114.942 443.881 114.656 444.714C114.362 445.568 114.363 446.501 114.727 447.319L118.691 456.663C119.404 458.342 121.249 458.977 122.844 458.092L131.701 453.162C133.295 452.278 134.009 450.206 133.289 448.548Z" fill="#0595C3"/>
</g>
<g opacity="0.7" filter="url(#filter17_f_3970_37243)">
<path d="M76.7105 116.885C75.0268 114.772 73.1003 112.385 69.5352 111.172C66.109 110.014 63.1694 110.73 60.5365 111.357C58.4061 111.869 56.5791 112.313 54.7792 111.71C52.9477 111.091 52.1947 109.81 51.2997 108.417C50.9499 107.866 50.578 107.312 50.1903 106.788C49.3297 105.627 47.898 103.96 45.2933 102.826C38.8399 100.018 33.7013 102.581 33.4831 102.684C32.8855 102.988 32.4422 103.554 32.2578 104.205L30.6935 110.109C30.4487 111.022 30.7788 112.023 31.5171 112.622C32.2554 113.221 33.2789 113.333 34.1327 112.897C34.1675 112.891 37.5067 111.286 41.8226 113.168C43.0256 113.68 43.8743 114.376 44.7444 115.55C45.0754 115.996 45.3811 116.462 45.6868 116.927C46.0271 117.465 46.3707 117.982 46.749 118.492C47.6947 119.768 49.1076 121.331 51.7285 122.195C54.8548 123.239 57.6553 122.547 60.1492 121.944C62.4092 121.396 64.3625 120.937 66.453 121.641C68.6602 122.397 69.9246 123.971 71.3907 125.79C72.838 127.584 74.4744 129.633 77.202 130.933C79.5193 132.022 81.9871 131.913 84.3664 131.791C88.1456 131.599 90.5594 131.629 92.64 134.436L92.9111 134.828C93.4217 135.596 94.3751 136.036 95.3232 135.887C96.2492 135.735 97.015 135.048 97.2503 134.123L98.8147 128.219C98.9801 127.543 98.8581 126.822 98.4768 126.255C98.3475 126.054 98.2183 125.853 98.0765 125.662C94.3408 120.622 89.3231 120.862 85.6577 121.048C83.7902 121.147 82.0049 121.225 80.7989 120.656C79.1036 119.876 77.9937 118.484 76.7105 116.885Z" fill="#8F27CE"/>
</g>
<path d="M227.344 242.209C225.708 239.649 223.832 236.753 219.986 234.98C216.288 233.285 212.916 233.742 209.898 234.135C207.455 234.458 205.359 234.742 203.416 233.857C201.44 232.95 200.747 231.43 199.909 229.767C199.582 229.11 199.231 228.446 198.858 227.815C198.031 226.416 196.625 224.383 193.844 222.811C186.953 218.915 180.905 221.182 180.649 221.271C179.945 221.542 179.383 222.123 179.101 222.829L176.661 229.251C176.28 230.243 176.533 231.401 177.288 232.158C178.044 232.915 179.176 233.159 180.182 232.772C180.222 232.769 184.145 231.364 188.753 233.974C190.038 234.687 190.906 235.564 191.743 236.979C192.061 237.517 192.348 238.074 192.636 238.63C192.953 239.272 193.277 239.89 193.641 240.505C194.55 242.043 195.948 243.956 198.778 245.229C202.153 246.762 205.367 246.316 208.227 245.933C210.819 245.584 213.058 245.298 215.314 246.33C217.695 247.434 218.925 249.342 220.353 251.549C221.762 253.725 223.353 256.208 226.252 257.981C228.717 259.47 231.49 259.637 234.166 259.778C238.416 260.005 241.113 260.321 243.112 263.704L243.369 264.174C243.851 265.093 244.866 265.697 245.944 265.641C246.997 265.578 247.934 264.9 248.306 263.892L250.746 257.471C251.01 256.734 250.957 255.914 250.597 255.235C250.476 254.995 250.355 254.755 250.219 254.525C246.629 248.45 240.988 248.131 236.866 247.911C234.766 247.804 232.759 247.682 231.477 246.905C229.672 245.834 228.593 244.148 227.344 242.209Z" fill="#8F27CE"/>
<g opacity="0.7" filter="url(#filter18_f_3970_37243)">
<path d="M192.384 378.206C192.003 375.905 191.556 373.295 189.379 370.882C187.284 368.569 184.767 367.872 182.519 367.237C180.698 366.726 179.134 366.293 178.031 365.081C176.912 363.844 176.883 362.562 176.794 361.136C176.762 360.574 176.715 359.999 176.643 359.442C176.483 358.205 176.105 356.346 174.619 354.396C170.936 349.565 165.985 349.336 165.778 349.321C165.199 349.299 164.627 349.539 164.215 349.952L160.552 353.744C159.984 354.329 159.812 355.222 160.116 355.984C160.42 356.746 161.145 357.261 161.972 357.292C162 357.302 165.192 357.497 167.653 360.73C168.345 361.622 168.692 362.503 168.854 363.754C168.915 364.23 168.95 364.709 168.985 365.189C169.015 365.738 169.056 366.271 169.127 366.815C169.303 368.174 169.711 369.946 171.322 371.7C173.239 373.802 175.641 374.458 177.774 375.053C179.708 375.59 181.373 376.066 182.653 377.476C183.998 378.974 184.289 380.692 184.629 382.68C184.965 384.64 185.336 386.873 186.846 389C188.134 390.796 190.039 391.751 191.884 392.66C194.813 394.105 196.62 395.143 197.007 398.133L197.046 398.543C197.108 399.337 197.642 400.069 198.419 400.356C199.181 400.63 200.047 400.435 200.614 399.836L204.276 396.045C204.685 395.605 204.896 395.011 204.847 394.423C204.834 394.217 204.821 394.011 204.795 393.807C204.099 388.437 200.217 386.508 197.376 385.106C195.927 384.396 194.549 383.703 193.879 382.767C192.929 381.466 192.678 379.951 192.384 378.206Z" fill="#8F27CE"/>
</g>
<g opacity="0.5" filter="url(#filter19_f_3970_37243)">
<path d="M269.419 308.199C268.774 306.733 268.03 305.073 266.17 303.839C264.381 302.658 262.588 302.624 260.984 302.585C259.685 302.556 258.571 302.535 257.63 301.916C256.674 301.284 256.436 300.437 256.133 299.503C256.016 299.134 255.887 298.76 255.744 298.401C255.426 297.606 254.857 296.433 253.536 295.39C250.261 292.804 246.928 293.496 246.787 293.522C246.398 293.606 246.059 293.864 245.855 294.209L244.065 297.357C243.787 297.843 243.825 298.467 244.157 298.922C244.49 299.377 245.06 299.596 245.615 299.475C245.636 299.477 247.793 299.062 249.982 300.793C250.594 301.269 250.976 301.796 251.297 302.6C251.419 302.906 251.524 303.219 251.629 303.532C251.743 303.892 251.862 304.24 252.001 304.59C252.35 305.465 252.924 306.574 254.296 307.466C255.93 308.537 257.64 308.564 259.161 308.595C260.539 308.623 261.728 308.655 262.82 309.374C263.971 310.142 264.458 311.235 265.023 312.5C265.582 313.747 266.21 315.169 267.577 316.326C268.741 317.301 270.172 317.612 271.554 317.901C273.75 318.363 275.129 318.745 275.897 320.669L275.993 320.935C276.17 321.452 276.65 321.849 277.216 321.906C277.77 321.959 278.312 321.681 278.587 321.186L280.377 318.038C280.574 317.676 280.613 317.245 280.48 316.862C280.436 316.727 280.393 316.592 280.34 316.461C278.961 313.007 276.048 312.386 273.919 311.938C272.833 311.713 271.798 311.487 271.193 310.979C270.339 310.276 269.913 309.31 269.419 308.199Z" fill="#8F27CE"/>
</g>
<g opacity="0.5" filter="url(#filter20_f_3970_37243)">
<path d="M340.925 155.349C339.689 154.329 338.28 153.18 336.063 152.913C333.934 152.662 332.316 153.437 330.866 154.123C329.693 154.681 328.688 155.162 327.57 155.033C326.431 154.898 325.838 154.247 325.148 153.549C324.878 153.272 324.594 152.996 324.305 152.74C323.664 152.172 322.629 151.38 320.979 151.041C316.892 150.203 314.225 152.319 314.111 152.405C313.802 152.655 313.614 153.037 313.587 153.437L313.402 157.054C313.372 157.613 313.686 158.153 314.188 158.411C314.689 158.668 315.297 158.607 315.739 158.25C315.758 158.242 317.499 156.902 320.233 157.465C320.993 157.615 321.571 157.915 322.219 158.489C322.466 158.707 322.7 158.94 322.934 159.172C323.198 159.443 323.46 159.701 323.742 159.95C324.447 160.575 325.458 161.308 327.084 161.488C329.025 161.711 330.565 160.967 331.938 160.312C333.182 159.717 334.258 159.211 335.557 159.364C336.93 159.532 337.856 160.29 338.93 161.166C339.989 162.029 341.189 163.017 342.93 163.437C344.408 163.785 345.826 163.42 347.191 163.057C349.36 162.483 350.764 162.205 352.314 163.578L352.52 163.773C352.91 164.156 353.517 164.294 354.049 164.092C354.567 163.89 354.927 163.398 354.95 162.832L355.135 159.216C355.148 158.803 354.989 158.401 354.698 158.118C354.599 158.017 354.499 157.917 354.393 157.823C351.609 155.357 348.728 156.111 346.625 156.668C345.553 156.954 344.527 157.217 343.758 157.035C342.679 156.79 341.865 156.119 340.925 155.349Z" fill="#8F27CE"/>
</g>
<g opacity="0.5" filter="url(#filter21_f_3970_37243)">
<path d="M35.6591 368.186C35.7828 366.589 35.9121 364.775 34.8559 362.808C33.8376 360.921 32.2733 360.043 30.8779 359.251C29.7471 358.612 28.775 358.067 28.2381 357.077C27.6941 356.069 27.885 355.209 28.0596 354.243C28.1307 353.863 28.1936 353.472 28.2368 353.088C28.3328 352.237 28.3856 350.935 27.714 349.391C26.0498 345.564 22.7851 344.599 22.6491 344.555C22.2668 344.446 21.8459 344.512 21.503 344.72L18.4383 346.649C17.9631 346.946 17.7018 347.513 17.7798 348.072C17.8578 348.63 18.2568 349.092 18.803 349.248C18.8205 349.26 20.9175 349.913 22.029 352.474C22.3438 353.182 22.4309 353.826 22.3338 354.687C22.2969 355.015 22.2414 355.34 22.1859 355.666C22.1159 356.037 22.0562 356.399 22.014 356.774C21.9085 357.709 21.8899 358.958 22.6773 360.392C23.6115 362.109 25.1058 362.94 26.4311 363.687C27.633 364.362 28.6659 364.953 29.2879 366.103C29.9397 367.323 29.8521 368.516 29.7527 369.898C29.6555 371.261 29.5371 372.811 30.195 374.477C30.7597 375.887 31.8742 376.837 32.9558 377.745C34.6723 379.189 35.7073 380.178 35.4752 382.236L35.4343 382.516C35.3453 383.055 35.581 383.632 36.0526 383.95C36.5159 384.258 37.1253 384.27 37.6015 383.964L40.6662 382.035C41.0112 381.808 41.2493 381.447 41.3132 381.047C41.3383 380.907 41.3635 380.768 41.3793 380.628C41.7959 376.932 39.5227 375.008 37.8576 373.607C37.0075 372.895 36.2018 372.208 35.9087 371.473C35.4884 370.45 35.5694 369.398 35.6591 368.186Z" fill="#8F27CE"/>
</g>
<g opacity="0.7" filter="url(#filter22_f_3970_37243)">
<path d="M313.571 62.7098C311.501 61.6365 309.143 60.4321 305.906 60.73C302.799 61.0226 300.734 62.6205 298.879 64.0406C297.379 65.1929 296.096 66.1859 294.465 66.3434C292.804 66.4992 291.76 65.7548 290.565 64.9718C290.095 64.6603 289.607 64.3539 289.117 64.0779C288.031 63.4653 286.316 62.6548 283.864 62.6773C277.79 62.7332 274.641 66.5605 274.505 66.718C274.141 67.1682 273.991 67.77 274.074 68.3477L274.918 73.5514C275.046 74.3571 275.658 75.0298 276.451 75.2426C277.243 75.4554 278.089 75.1832 278.609 74.5399C278.634 74.523 280.702 72.0836 284.765 72.0491C285.894 72.0296 286.807 72.2793 287.906 72.8986C288.324 73.1342 288.728 73.3935 289.133 73.6528C289.591 73.9576 290.043 74.2438 290.521 74.513C291.715 75.1862 293.378 75.9208 295.748 75.6805C298.579 75.4038 300.543 73.8737 302.297 72.5214C303.885 71.2946 305.263 70.2456 307.159 70.0656C309.164 69.8853 310.714 70.681 312.51 71.5995C314.281 72.5045 316.292 73.5441 318.898 73.6091C321.108 73.6532 323.015 72.6993 324.847 71.7659C327.758 70.286 329.671 69.4605 332.299 70.9414L332.65 71.1552C333.323 71.5811 334.229 71.5926 334.924 71.1416C335.6 70.6957 335.962 69.8856 335.822 69.0732L334.979 63.8695C334.872 63.2784 334.522 62.7537 334.022 62.4406C333.85 62.3277 333.677 62.2149 333.498 62.114C328.781 59.4551 324.91 61.4085 322.087 62.8443C320.65 63.5791 319.27 64.2682 318.119 64.2438C316.509 64.2255 315.145 63.5189 313.571 62.7098Z" fill="#8F27CE"/>
</g>
<g opacity="0.7" filter="url(#filter23_f_3970_37243)">
<path d="M103.206 264.976C102.331 262.814 101.323 260.366 98.6707 258.487C96.1197 256.689 93.5117 256.56 91.1791 256.432C89.2908 256.333 87.6699 256.252 86.3286 255.311C84.9652 254.349 84.6563 253.105 84.2575 251.733C84.1034 251.191 83.9318 250.641 83.7393 250.113C83.3121 248.941 82.5366 247.21 80.6595 245.633C76.0087 241.725 71.1278 242.585 70.9221 242.616C70.3528 242.721 69.8472 243.081 69.535 243.574L66.7916 248.076C66.365 248.771 66.3925 249.68 66.8563 250.357C67.3202 251.034 68.1398 251.378 68.9531 251.227C68.9833 251.231 72.1402 250.722 75.2497 253.338C76.1194 254.057 76.6511 254.841 77.0829 256.026C77.2472 256.477 77.386 256.937 77.5247 257.397C77.6742 257.926 77.8317 258.437 78.0195 258.953C78.4889 260.241 79.2746 261.88 81.2312 263.239C83.5618 264.87 86.0489 264.984 88.2605 265.098C90.2651 265.199 91.9941 265.298 93.5511 266.394C95.1919 267.561 95.8519 269.173 96.6186 271.039C97.3759 272.878 98.2271 274.975 100.165 276.72C101.815 278.191 103.884 278.706 105.883 279.188C109.057 279.957 111.047 280.574 112.08 283.408L112.208 283.799C112.442 284.56 113.123 285.158 113.944 285.267C114.748 285.368 115.55 284.988 115.972 284.28L118.715 279.778C119.018 279.259 119.094 278.634 118.917 278.071C118.86 277.873 118.802 277.675 118.732 277.482C116.877 272.394 112.666 271.361 109.588 270.616C108.018 270.24 106.522 269.866 105.664 269.099C104.452 268.038 103.875 266.614 103.206 264.976Z" fill="#8F27CE"/>
</g>
<path d="M165.77 107.866C163.088 105.971 160.029 103.838 155.457 103.632C151.066 103.443 147.878 105.276 145.017 106.9C142.704 108.22 140.723 109.359 138.417 109.265C136.07 109.163 134.756 107.924 133.239 106.602C132.644 106.078 132.022 105.556 131.392 105.077C129.994 104.014 127.757 102.554 124.332 102.114C115.848 101.026 110.72 105.76 110.5 105.954C109.906 106.512 109.58 107.323 109.586 108.145L109.763 115.566C109.787 116.715 110.511 117.771 111.576 118.22C112.642 118.669 113.874 118.452 114.723 117.654C114.761 117.636 118.114 114.63 123.79 115.362C125.367 115.552 126.594 116.075 128.008 117.15C128.546 117.559 129.06 117.999 129.575 118.438C130.155 118.951 130.731 119.437 131.345 119.905C132.882 121.073 135.061 122.418 138.413 122.538C142.416 122.695 145.45 120.938 148.156 119.388C150.608 117.982 152.732 116.783 155.411 116.896C158.244 117.03 160.253 118.438 162.581 120.064C164.879 121.667 167.484 123.503 171.108 124.095C174.183 124.58 177.026 123.616 179.761 122.666C184.107 121.16 186.935 120.376 190.315 122.947L190.765 123.313C191.621 124.036 192.883 124.226 193.939 123.73C194.968 123.238 195.629 122.178 195.59 121.017L195.413 113.596C195.377 112.75 194.99 111.951 194.352 111.418C194.133 111.228 193.915 111.037 193.684 110.862C187.614 106.247 181.839 108.229 177.624 109.689C175.478 110.438 173.421 111.135 171.82 110.88C169.577 110.545 167.81 109.297 165.77 107.866Z" fill="#8F27CE"/>
</g>
<defs>
<filter id="filter0_f_3970_37243" x="148.92" y="286.287" width="61.6797" height="37.4482" filterUnits="userSpaceOnUse" color-interpolation-filters="sRGB">
<feFlood flood-opacity="0" result="BackgroundImageFix"/>
<feBlend mode="normal" in="SourceGraphic" in2="BackgroundImageFix" result="shape"/>
<feGaussianBlur stdDeviation="1" result="effect1_foregroundBlur_3970_37243"/>
</filter>
<filter id="filter1_f_3970_37243" x="238.842" y="189.31" width="64.8418" height="29.1162" filterUnits="userSpaceOnUse" color-interpolation-filters="sRGB">
<feFlood flood-opacity="0" result="BackgroundImageFix"/>
<feBlend mode="normal" in="SourceGraphic" in2="BackgroundImageFix" result="shape"/>
<feGaussianBlur stdDeviation="1" result="effect1_foregroundBlur_3970_37243"/>
</filter>
<filter id="filter2_f_3970_37243" x="325.852" y="98.5254" width="51.5488" height="19.7031" filterUnits="userSpaceOnUse" color-interpolation-filters="sRGB">
<feFlood flood-opacity="0" result="BackgroundImageFix"/>
<feBlend mode="normal" in="SourceGraphic" in2="BackgroundImageFix" result="shape"/>
<feGaussianBlur stdDeviation="2" result="effect1_foregroundBlur_3970_37243"/>
</filter>
<filter id="filter3_f_3970_37243" x="146.344" y="393.491" width="38.1211" height="43.9521" filterUnits="userSpaceOnUse" color-interpolation-filters="sRGB">
<feFlood flood-opacity="0" result="BackgroundImageFix"/>
<feBlend mode="normal" in="SourceGraphic" in2="BackgroundImageFix" result="shape"/>
<feGaussianBlur stdDeviation="2" result="effect1_foregroundBlur_3970_37243"/>
</filter>
<filter id="filter4_f_3970_37243" x="9.45898" y="416.521" width="25.5684" height="50.7305" filterUnits="userSpaceOnUse" color-interpolation-filters="sRGB">
<feFlood flood-opacity="0" result="BackgroundImageFix"/>
<feBlend mode="normal" in="SourceGraphic" in2="BackgroundImageFix" result="shape"/>
<feGaussianBlur stdDeviation="2" result="effect1_foregroundBlur_3970_37243"/>
</filter>
<filter id="filter5_f_3970_37243" x="166.188" y="0.99707" width="37.8594" height="27.04" filterUnits="userSpaceOnUse" color-interpolation-filters="sRGB">
<feFlood flood-opacity="0" result="BackgroundImageFix"/>
<feBlend mode="normal" in="SourceGraphic" in2="BackgroundImageFix" result="shape"/>
<feGaussianBlur stdDeviation="2" result="effect1_foregroundBlur_3970_37243"/>
</filter>
<filter id="filter6_f_3970_37243" x="209.555" y="131.171" width="40.7012" height="19.0059" filterUnits="userSpaceOnUse" color-interpolation-filters="sRGB">
<feFlood flood-opacity="0" result="BackgroundImageFix"/>
<feBlend mode="normal" in="SourceGraphic" in2="BackgroundImageFix" result="shape"/>
<feGaussianBlur stdDeviation="2" result="effect1_foregroundBlur_3970_37243"/>
</filter>
<filter id="filter7_f_3970_37243" x="145.705" y="65.1768" width="70.4219" height="21.1611" filterUnits="userSpaceOnUse" color-interpolation-filters="sRGB">
<feFlood flood-opacity="0" result="BackgroundImageFix"/>
<feBlend mode="normal" in="SourceGraphic" in2="BackgroundImageFix" result="shape"/>
<feGaussianBlur stdDeviation="1" result="effect1_foregroundBlur_3970_37243"/>
</filter>
<filter id="filter8_f_3970_37243" x="285.52" y="169.237" width="17.457" height="18.4766" filterUnits="userSpaceOnUse" color-interpolation-filters="sRGB">
<feFlood flood-opacity="0" result="BackgroundImageFix"/>
<feBlend mode="normal" in="SourceGraphic" in2="BackgroundImageFix" result="shape"/>
<feGaussianBlur stdDeviation="1" result="effect1_foregroundBlur_3970_37243"/>
</filter>
<filter id="filter9_f_3970_37243" x="246.375" y="96.1777" width="16.7695" height="17.4346" filterUnits="userSpaceOnUse" color-interpolation-filters="sRGB">
<feFlood flood-opacity="0" result="BackgroundImageFix"/>
<feBlend mode="normal" in="SourceGraphic" in2="BackgroundImageFix" result="shape"/>
<feGaussianBlur stdDeviation="2" result="effect1_foregroundBlur_3970_37243"/>
</filter>
<filter id="filter10_f_3970_37243" x="100.457" y="333.296" width="16.7695" height="17.4346" filterUnits="userSpaceOnUse" color-interpolation-filters="sRGB">
<feFlood flood-opacity="0" result="BackgroundImageFix"/>
<feBlend mode="normal" in="SourceGraphic" in2="BackgroundImageFix" result="shape"/>
<feGaussianBlur stdDeviation="2" result="effect1_foregroundBlur_3970_37243"/>
</filter>
<filter id="filter11_f_3970_37243" x="53.9453" y="77.0264" width="16.7695" height="17.4346" filterUnits="userSpaceOnUse" color-interpolation-filters="sRGB">
<feFlood flood-opacity="0" result="BackgroundImageFix"/>
<feBlend mode="normal" in="SourceGraphic" in2="BackgroundImageFix" result="shape"/>
<feGaussianBlur stdDeviation="2" result="effect1_foregroundBlur_3970_37243"/>
</filter>
<filter id="filter12_f_3970_37243" x="190.58" y="183.652" width="13.8262" height="14.2666" filterUnits="userSpaceOnUse" color-interpolation-filters="sRGB">
<feFlood flood-opacity="0" result="BackgroundImageFix"/>
<feBlend mode="normal" in="SourceGraphic" in2="BackgroundImageFix" result="shape"/>
<feGaussianBlur stdDeviation="2" result="effect1_foregroundBlur_3970_37243"/>
</filter>
<filter id="filter13_f_3970_37243" x="316.434" y="35.9092" width="13.8262" height="14.2666" filterUnits="userSpaceOnUse" color-interpolation-filters="sRGB">
<feFlood flood-opacity="0" result="BackgroundImageFix"/>
<feBlend mode="normal" in="SourceGraphic" in2="BackgroundImageFix" result="shape"/>
<feGaussianBlur stdDeviation="2" result="effect1_foregroundBlur_3970_37243"/>
</filter>
<filter id="filter14_f_3970_37243" x="54.6914" y="460.898" width="13.8262" height="14.2666" filterUnits="userSpaceOnUse" color-interpolation-filters="sRGB">
<feFlood flood-opacity="0" result="BackgroundImageFix"/>
<feBlend mode="normal" in="SourceGraphic" in2="BackgroundImageFix" result="shape"/>
<feGaussianBlur stdDeviation="2" result="effect1_foregroundBlur_3970_37243"/>
</filter>
<filter id="filter15_f_3970_37243" x="207.314" y="281.534" width="19.0996" height="20.5967" filterUnits="userSpaceOnUse" color-interpolation-filters="sRGB">
<feFlood flood-opacity="0" result="BackgroundImageFix"/>
<feBlend mode="normal" in="SourceGraphic" in2="BackgroundImageFix" result="shape"/>
<feGaussianBlur stdDeviation="1" result="effect1_foregroundBlur_3970_37243"/>
</filter>
<filter id="filter16_f_3970_37243" x="112.443" y="435.401" width="23.127" height="25.0898" filterUnits="userSpaceOnUse" color-interpolation-filters="sRGB">
<feFlood flood-opacity="0" result="BackgroundImageFix"/>
<feBlend mode="normal" in="SourceGraphic" in2="BackgroundImageFix" result="shape"/>
<feGaussianBlur stdDeviation="1" result="effect1_foregroundBlur_3970_37243"/>
</filter>
<filter id="filter17_f_3970_37243" x="28.6133" y="99.5156" width="72.2734" height="38.4004" filterUnits="userSpaceOnUse" color-interpolation-filters="sRGB">
<feFlood flood-opacity="0" result="BackgroundImageFix"/>
<feBlend mode="normal" in="SourceGraphic" in2="BackgroundImageFix" result="shape"/>
<feGaussianBlur stdDeviation="1" result="effect1_foregroundBlur_3970_37243"/>
</filter>
<filter id="filter18_f_3970_37243" x="157.967" y="347.319" width="48.8867" height="55.1582" filterUnits="userSpaceOnUse" color-interpolation-filters="sRGB">
<feFlood flood-opacity="0" result="BackgroundImageFix"/>
<feBlend mode="normal" in="SourceGraphic" in2="BackgroundImageFix" result="shape"/>
<feGaussianBlur stdDeviation="1" result="effect1_foregroundBlur_3970_37243"/>
</filter>
<filter id="filter19_f_3970_37243" x="239.879" y="289.419" width="44.6797" height="36.4941" filterUnits="userSpaceOnUse" color-interpolation-filters="sRGB">
<feFlood flood-opacity="0" result="BackgroundImageFix"/>
<feBlend mode="normal" in="SourceGraphic" in2="BackgroundImageFix" result="shape"/>
<feGaussianBlur stdDeviation="2" result="effect1_foregroundBlur_3970_37243"/>
</filter>
<filter id="filter20_f_3970_37243" x="309.4" y="146.846" width="49.7344" height="21.3389" filterUnits="userSpaceOnUse" color-interpolation-filters="sRGB">
<feFlood flood-opacity="0" result="BackgroundImageFix"/>
<feBlend mode="normal" in="SourceGraphic" in2="BackgroundImageFix" result="shape"/>
<feGaussianBlur stdDeviation="2" result="effect1_foregroundBlur_3970_37243"/>
</filter>
<filter id="filter21_f_3970_37243" x="13.7656" y="340.503" width="31.6641" height="47.6846" filterUnits="userSpaceOnUse" color-interpolation-filters="sRGB">
<feFlood flood-opacity="0" result="BackgroundImageFix"/>
<feBlend mode="normal" in="SourceGraphic" in2="BackgroundImageFix" result="shape"/>
<feGaussianBlur stdDeviation="2" result="effect1_foregroundBlur_3970_37243"/>
</filter>
<filter id="filter22_f_3970_37243" x="272.053" y="58.6836" width="65.7988" height="19.0439" filterUnits="userSpaceOnUse" color-interpolation-filters="sRGB">
<feFlood flood-opacity="0" result="BackgroundImageFix"/>
<feBlend mode="normal" in="SourceGraphic" in2="BackgroundImageFix" result="shape"/>
<feGaussianBlur stdDeviation="1" result="effect1_foregroundBlur_3970_37243"/>
</filter>
<filter id="filter23_f_3970_37243" x="64.4883" y="240.515" width="56.5234" height="46.7686" filterUnits="userSpaceOnUse" color-interpolation-filters="sRGB">
<feFlood flood-opacity="0" result="BackgroundImageFix"/>
<feBlend mode="normal" in="SourceGraphic" in2="BackgroundImageFix" result="shape"/>
<feGaussianBlur stdDeviation="1" result="effect1_foregroundBlur_3970_37243"/>
</filter>
</defs>
</svg>
