<svg width="325" height="507" viewBox="0 0 325 507" fill="none" xmlns="http://www.w3.org/2000/svg">
<path d="M187.152 439.539L10.8989 500.338C8.77771 501.07 9.28468 504.203 11.5284 504.228L225.648 506.66C226.058 506.665 226.46 506.543 226.799 506.311L319.318 443.081C320.942 441.971 320.156 439.429 318.189 439.429H187.805C187.583 439.429 187.362 439.466 187.152 439.539Z" fill="#6218A8"/>
<rect x="0.546875" y="3.27881" width="225.594" height="502.111" fill="white"/>
<path d="M0 3.27905H226.278L213.161 16.3966H13.1176L0 3.27905Z" fill="url(#paint0_linear_2863_41057)"/>
<path d="M0 506.667H226.278L213.161 493.549H13.1176L0 506.667Z" fill="url(#paint1_linear_2863_41057)"/>
<path d="M0 506.667L-2.20038e-05 3.27917L13.1176 16.3968L13.1176 493.549L0 506.667Z" fill="#CDB5DC"/>
<path d="M226.277 506.667L226.277 3.27917L213.16 16.3968L213.16 493.549L226.277 506.667Z" fill="#FBF1FF"/>
<path d="M226.277 3.27942L236.116 0V499.3L226.277 506.667V3.27942Z" fill="#C8A2DE"/>
<path d="M18.0367 0H236.117L226.278 3.2794H0L18.0367 0Z" fill="#E6CBF6"/>
<rect x="42.7109" y="315.387" width="141.27" height="147.841" rx="4" fill="#FEFEFE"/>
<rect x="122.977" y="45.9108" width="60.6688" height="236.117" rx="4" fill="#CEFDFF"/>
<path d="M122.977 45.9108L131.175 54.1093V273.829L122.977 282.027V45.9108Z" fill="#CDB4DC"/>
<path d="M175.447 54.1091L183.646 45.9106V282.027L175.447 273.829V54.1091Z" fill="#FBF1FF"/>
<path d="M131.175 54.1091L122.977 45.9106L183.645 45.9106L175.447 54.1091L131.175 54.1091Z" fill="#EAD8F4"/>
<path d="M175.448 273.83L183.646 282.028L122.978 282.028L131.176 273.83L175.448 273.83Z" fill="#EAD8F4"/>
<g opacity="0.6">
<path fill-rule="evenodd" clip-rule="evenodd" d="M150.853 54.1089H154.132V157.574C157.875 158.333 160.691 161.642 160.691 165.608C160.691 169.575 157.875 172.883 154.132 173.643V273.828H150.853V173.643C147.111 172.883 144.294 169.575 144.294 165.608C144.294 161.642 147.111 158.333 150.853 157.574V54.1089ZM157.412 165.608C157.412 168.325 155.21 170.527 152.493 170.527C149.776 170.527 147.574 168.325 147.574 165.608C147.574 162.892 149.776 160.689 152.493 160.689C155.21 160.689 157.412 162.892 157.412 165.608Z" fill="#7E6953"/>
<path fill-rule="evenodd" clip-rule="evenodd" d="M137.736 54.1089H141.015V112.728L145.934 121.337L141.015 129.945V201.272L145.934 209.88L141.015 218.489V273.828H137.736V218.489L132.816 209.88L137.736 201.272V129.945L132.816 121.337L137.736 112.728V54.1089ZM139.375 116.468L136.593 121.337L139.375 126.205L142.157 121.337L139.375 116.468ZM136.593 209.88L139.375 205.012L142.157 209.88L139.375 214.748L136.593 209.88Z" fill="#7E6953"/>
<path fill-rule="evenodd" clip-rule="evenodd" d="M163.971 54.1089H167.25V112.728L172.169 121.337L167.25 129.945V201.272L172.169 209.88L167.25 218.489V273.828H163.971V218.489L159.052 209.88L163.971 201.272V129.945L159.052 121.337L163.971 112.728V54.1089ZM165.61 116.468L162.829 121.337L165.61 126.205L168.392 121.337L165.61 116.468ZM162.829 209.88L165.61 205.012L168.392 209.88L165.61 214.748L162.829 209.88Z" fill="#7E6953"/>
<path d="M152.493 54.1089V159.05C154.679 159.05 159.051 160.361 159.051 165.608C159.051 170.855 154.679 172.167 152.493 172.167V273.828H154.132V173.643C157.874 172.883 160.691 169.575 160.691 165.608C160.691 161.642 157.874 158.333 154.132 157.574V54.1089H152.493Z" fill="#49331D"/>
<path d="M139.375 54.1089V112.827L144.294 121.337L139.375 129.535V201.361L144.294 209.88L139.375 218.079V273.828H141.015V218.489L145.934 209.88L141.015 201.272V129.945L145.934 121.337L141.015 112.728V54.1089H139.375Z" fill="#49331D"/>
<path d="M165.61 54.1089V112.827L170.529 121.337L165.61 129.535V201.361L170.529 209.88L165.61 218.079V273.828H167.25V218.489L172.169 209.88L167.25 201.272V129.945L172.169 121.337L167.25 112.728V54.1089H165.61Z" fill="#49331D"/>
</g>
<rect x="42.6328" y="45.9106" width="60.6688" height="236.117" rx="4" fill="#CEFDFF"/>
<path d="M42.6328 45.9106L50.8313 54.1091V273.829L42.6328 282.027V45.9106Z" fill="#CDB4DC"/>
<path d="M95.1016 54.1091L103.3 45.9106V282.027L95.1016 273.829V54.1091Z" fill="#FBF1FF"/>
<path d="M50.8313 54.1094L42.6328 45.9109L103.302 45.9109L95.1031 54.1094L50.8313 54.1094Z" fill="#EAD8F4"/>
<path d="M95.1003 273.83L103.299 282.028L42.63 282.028L50.8285 273.83L95.1003 273.83Z" fill="#EAD8F4"/>
<g opacity="0.6">
<path fill-rule="evenodd" clip-rule="evenodd" d="M70.5054 54.1089H73.7848V157.574C77.527 158.333 80.3436 161.642 80.3436 165.608C80.3436 169.575 77.527 172.883 73.7848 173.643V273.828H70.5054V173.643C66.7632 172.883 63.9466 169.575 63.9466 165.608C63.9466 161.642 66.7632 158.333 70.5054 157.574V54.1089ZM77.0642 165.608C77.0642 168.325 74.8619 170.527 72.1451 170.527C69.4284 170.527 67.226 168.325 67.226 165.608C67.226 162.892 69.4284 160.689 72.1451 160.689C74.8619 160.689 77.0642 162.892 77.0642 165.608Z" fill="#7E6953"/>
<path fill-rule="evenodd" clip-rule="evenodd" d="M57.3878 54.1089H60.6672V112.728L65.5863 121.337L60.6672 129.945V201.272L65.5863 209.88L60.6672 218.489V273.828H57.3878V218.489L52.4688 209.88L57.3878 201.272V129.945L52.4688 121.337L57.3878 112.728V54.1089ZM59.0275 116.468L56.2458 121.337L59.0275 126.205L61.8093 121.337L59.0275 116.468ZM56.2458 209.88L59.0275 205.012L61.8093 209.88L59.0275 214.748L56.2458 209.88Z" fill="#7E6953"/>
<path fill-rule="evenodd" clip-rule="evenodd" d="M83.623 54.1089H86.9024V112.728L91.8215 121.337L86.9024 129.945V201.272L91.8215 209.88L86.9024 218.489V273.828H83.623V218.489L78.7039 209.88L83.623 201.272V129.945L78.7039 121.337L83.623 112.728V54.1089ZM85.2627 116.468L82.481 121.337L85.2627 126.205L88.0445 121.337L85.2627 116.468ZM82.481 209.88L85.2627 205.012L88.0445 209.88L85.2627 214.748L82.481 209.88Z" fill="#7E6953"/>
<path d="M72.1469 54.1089V159.05C74.3331 159.05 78.7057 160.361 78.7057 165.608C78.7057 170.855 74.3331 172.167 72.1469 172.167V273.828H73.7866V173.643C77.5288 172.883 80.3454 169.575 80.3454 165.608C80.3454 161.642 77.5288 158.333 73.7866 157.574V54.1089H72.1469Z" fill="#49331D"/>
<path d="M59.0293 54.1089V112.827L63.9484 121.337L59.0293 129.535V201.361L63.9484 209.88L59.0293 218.079V273.828H60.669V218.489L65.5881 209.88L60.669 201.272V129.945L65.5881 121.337L60.669 112.728V54.1089H59.0293Z" fill="#49331D"/>
<path d="M85.2645 54.1089V112.827L90.1836 121.337L85.2645 129.535V201.361L90.1836 209.88L85.2645 218.079V273.828H86.9042V218.489L91.8233 209.88L86.9042 201.272V129.945L91.8233 121.337L86.9042 112.728V54.1089H85.2645Z" fill="#49331D"/>
</g>
<path d="M200.863 327.938C209.389 328.594 215.881 317.28 215.62 305.802C215.313 292.286 215.163 272.634 198.403 268.909C193.757 277.654 184.63 297.932 185.285 309.082C186.105 323.019 190.205 327.118 200.863 327.938Z" fill="url(#paint2_radial_2863_41057)" fill-opacity="0.5"/>
<rect x="185.322" y="268.909" width="24.0926" height="50.3754" rx="12.0463" fill="#D5B781"/>
<circle cx="197.368" cy="307.239" r="6.71337" fill="#CCA661" stroke="#BD9865" stroke-width="3"/>
<circle cx="197.368" cy="280.955" r="8.21337" fill="#CCA661"/>
<path d="M185.322 281.503C188.425 281.777 194.686 282.324 194.905 282.324C197.004 281.594 201.366 280.244 202.023 280.682C202.844 281.229 204.487 286.431 201.475 289.443C198.464 292.454 194.905 292.454 191.619 291.633C188.334 290.812 186.417 287.252 185.322 285.61V281.503Z" fill="#7D6037" fill-opacity="0.3"/>
<mask id="mask0_2863_41057" style="mask-type:alpha" maskUnits="userSpaceOnUse" x="165" y="274" width="37" height="14">
<path d="M199.925 284.281C202.936 282.091 202.389 279.353 199.377 276.889C183.772 271.414 167.345 279.079 166.25 279.901C165.155 280.722 165.429 286.471 167.345 287.019C169.261 287.567 169.535 284.281 173.368 282.639C177.201 280.996 191.985 282.639 192.533 282.639C193.08 282.639 196.913 286.471 199.925 284.281Z" fill="#EACC97"/>
</mask>
<g mask="url(#mask0_2863_41057)">
<path d="M199.925 284.281C202.936 282.091 202.389 279.353 199.377 276.889C183.772 271.414 167.345 279.079 166.25 279.901C165.155 280.722 165.429 286.471 167.345 287.019C169.261 287.567 169.535 284.281 173.368 282.639C177.201 280.996 191.985 282.639 192.533 282.639C193.08 282.639 196.913 286.471 199.925 284.281Z" fill="#EACC97"/>
<path d="M169.444 283.419C167.527 284.788 168.349 286.704 168.349 287.252C169.809 286.704 173.441 285.281 176.288 283.967C179.848 282.324 185.049 283.693 192.715 285.609C200.381 287.526 199.833 285.609 201.202 284.788C202.571 283.967 202.297 282.871 200.655 281.776C199.012 280.681 191.894 279.86 183.954 279.312C176.015 278.765 171.36 282.05 169.444 283.419Z" fill="#CBA86D"/>
</g>
<rect x="86.9023" y="291.867" width="52.4703" height="13.1176" fill="#D5B781"/>
<rect x="86.9023" y="295.145" width="3.27939" height="52.4703" transform="rotate(-90 86.9023 295.145)" fill="#D0AE77"/>
<rect x="86.9023" y="304.983" width="3.27939" height="52.4703" transform="rotate(-90 86.9023 304.983)" fill="#D0AE77"/>
<path d="M86.9023 291.867L91.8214 295.146V301.705L86.9023 304.984V291.867Z" fill="#BD9865"/>
<path d="M139.373 291.867L134.454 295.146V301.705L139.373 304.984V291.867Z" fill="#DDBC8F"/>
<rect x="42.6328" y="324.661" width="9.83818" height="141.014" transform="rotate(-90 42.6328 324.661)" fill="#F9EAFF"/>
<rect x="42.6328" y="464.035" width="9.83818" height="141.014" transform="rotate(-90 42.6328 464.035)" fill="#F9EAFF"/>
<path d="M42.6328 314.822L52.471 324.66V454.197L42.6328 464.035V314.822Z" fill="#F3E4FC"/>
<path d="M183.645 314.822L173.806 324.66V454.197L183.645 464.035V314.822Z" fill="#FBF1FF"/>
<defs>
<linearGradient id="paint0_linear_2863_41057" x1="0" y1="9.83784" x2="226.278" y2="9.83784" gradientUnits="userSpaceOnUse">
<stop stop-color="#DDC7EA"/>
<stop offset="1" stop-color="#F9EBFF"/>
</linearGradient>
<linearGradient id="paint1_linear_2863_41057" x1="0" y1="500.108" x2="226.278" y2="500.108" gradientUnits="userSpaceOnUse">
<stop stop-color="#DDC7EA"/>
<stop offset="1" stop-color="#F9EBFF"/>
</linearGradient>
<radialGradient id="paint2_radial_2863_41057" cx="0" cy="0" r="1" gradientUnits="userSpaceOnUse" gradientTransform="translate(189.385 278.747) rotate(72.1497) scale(50.8174 26.1379)">
<stop offset="0.045" stop-color="#1D1D1D"/>
<stop offset="1" stop-color="#DEDEDE"/>
</radialGradient>
</defs>
</svg>
