<svg width="121" height="151" viewBox="0 0 121 151" fill="none" xmlns="http://www.w3.org/2000/svg">
<g opacity="0.5">
<path fill-rule="evenodd" clip-rule="evenodd" d="M91.3153 2.5684e-05C97.3853 -0.0101657 100.716 3.01261 101.303 9.07038C100.928 12.9778 99.4664 16.4082 96.9206 19.3637C91.5089 25.3461 84.8845 29.2534 77.0473 31.0838C76.3258 30.6191 76.2585 30.0749 76.8435 29.4532C82.5813 27.4006 87.7442 24.4125 92.3344 20.4848C95.1595 17.9287 97.1652 14.8387 98.3474 11.2106C99.1158 7.61912 97.9255 4.9347 94.7804 3.15936C91.7026 2.23398 89.224 3.08191 87.3407 5.70721C86.242 7.5274 86.4112 9.19064 87.8502 10.701C89.807 11.3961 91.1991 10.8192 92.0287 8.96846C93.5452 8.37532 94.1567 8.91955 93.8632 10.5991C92.5322 13.0797 90.4592 13.9969 87.6464 13.3508C84.4483 11.8506 83.3273 9.37204 84.2832 5.91104C85.5531 2.63349 87.8971 0.664505 91.3153 2.5684e-05Z" fill="#511B72"/>
<path fill-rule="evenodd" clip-rule="evenodd" d="M106.602 18.9563C111.376 18.3326 114.603 20.2363 116.284 24.6635C116.886 28.8542 115.22 31.6731 111.29 33.1223C108.781 33.7501 106.778 33.0367 105.278 30.9821C104.617 29.9467 104.65 28.9601 105.379 28.0266C105.72 27.8901 106.058 27.8901 106.399 28.0266C107.666 30.9373 109.635 31.5488 112.31 29.8611C114.203 27.5374 114.203 25.226 112.31 22.9309C110.284 21.5367 108.109 21.2636 105.787 22.1156C104.666 22.5722 103.647 23.1837 102.73 23.9501C100.488 26.3287 98.2454 28.7054 96.0033 31.084C90.7364 35.2462 84.7581 37.523 78.0664 37.9123C77.722 37.2193 77.8585 36.6404 78.4741 36.1797C84.5706 35.236 90.0047 32.8573 94.7804 29.0458C96.9552 26.6671 99.128 24.2904 101.303 21.9118C102.872 20.5502 104.637 19.5657 106.602 18.9563Z" fill="#511B72"/>
<path fill-rule="evenodd" clip-rule="evenodd" d="M49.7346 146.757C39.1865 138.322 28.5181 130.033 17.7336 121.89C17.4604 121.582 17.224 121.242 17.0202 120.871C16.9529 110.95 16.8836 101.032 16.8163 91.1118C13.2473 88.5802 9.71496 85.9977 6.21727 83.3663C5.77904 82.6346 5.8463 81.9558 6.4211 81.328C10.1165 77.3962 13.6162 73.3196 16.9182 69.0983C11.3007 57.7268 5.69547 46.3817 0.102424 35.059C-0.0341412 34.5841 -0.0341412 34.1071 0.102424 33.6322C1.16233 30.2466 2.18147 26.8509 3.15985 23.4408C3.32087 23.0148 3.55935 22.6418 3.87325 22.3198C4.85162 21.9162 5.87076 21.6451 6.93067 21.5045C24.9205 18.4593 42.9247 15.4691 60.9451 12.536C61.897 12.3995 62.8469 12.3995 63.7987 12.536C64.5549 13.066 64.7934 13.7794 64.5121 14.6762C63.2158 17.8192 61.9582 20.9786 60.7413 24.1542C66.0531 34.949 71.4545 45.7172 76.9456 56.461C88.1399 62.0744 99.2485 67.8162 110.272 73.6845C113.771 78.134 117.269 82.5856 120.769 87.0352C121.417 89.0368 120.703 89.8175 118.629 89.3792C117.01 88.6026 115.379 88.0258 113.737 87.6467C114.348 89.3058 114.721 91.0037 114.858 92.7424C114.619 93.252 114.246 93.625 113.737 93.8634C112.63 94.106 111.543 94.4117 110.475 94.7807C110.306 105.787 110.204 116.794 110.17 127.801L109.456 128.514C90.117 134.435 70.8226 140.483 51.569 146.655C50.9616 146.757 50.3501 146.789 49.7346 146.757Z" fill="#511B72"/>
<path fill-rule="evenodd" clip-rule="evenodd" d="M73.9903 56.4607C55.8048 60.2682 37.6314 64.1409 19.4663 68.0789C19.3093 68.0503 19.1728 67.981 19.0586 67.875C16.7248 63.2746 14.448 58.6559 12.2304 54.0147C9.32786 48.4135 6.47427 42.7756 3.66959 37.097C3.35162 36.5976 3.14779 36.0534 3.05811 35.4664C16.845 33.0612 30.6381 30.6846 44.4352 28.3324C46.2208 27.8677 48.0552 27.5273 49.9386 27.3132C52.729 26.7629 55.5479 26.2187 58.3975 25.6826C58.7542 25.7336 58.9233 25.9374 58.907 26.2941C60.7191 29.7143 62.4862 33.1794 64.2066 36.6893C64.0965 36.7016 64.0272 36.7688 64.0027 36.8932C65.2909 39.2657 66.412 41.7117 67.3659 44.231C68.4727 45.9676 69.5244 47.7348 70.5252 49.5305C71.791 51.791 72.9467 54.1003 73.9903 56.4607Z" fill="#B889B3"/>
<path fill-rule="evenodd" clip-rule="evenodd" d="M64.2063 36.6895C66.3668 40.9433 68.4744 45.2237 70.5249 49.5306C69.5241 47.7349 68.4724 45.9677 67.3656 44.2311C66.4117 41.7118 65.2906 39.2658 64.0024 36.8933C64.0269 36.7689 64.0962 36.7017 64.2063 36.6895Z" fill="#B396AC"/>
<path fill-rule="evenodd" clip-rule="evenodd" d="M61.1489 14.8799H61.7603C60.8778 17.6254 59.8933 20.3425 58.8048 23.033C58.6336 23.2613 58.3951 23.3979 58.0914 23.4407C39.6776 26.7019 21.2638 29.9632 2.854 33.2244C3.5511 30.2139 4.43571 27.2584 5.50377 24.3579C24.0705 21.1252 42.6188 17.9658 61.1489 14.8799Z" fill="#9D729E"/>
<path fill-rule="evenodd" clip-rule="evenodd" d="M73.9901 58.9072C74.1939 66.7546 74.2612 74.6346 74.1939 82.5513V82.7551C66.2242 84.7649 58.2749 86.8704 50.346 89.0738C40.7375 82.8754 31.2249 76.5221 21.8101 70.0159C39.1905 66.2491 56.5831 62.5456 73.9901 58.9072Z" fill="#956B98"/>
<path fill-rule="evenodd" clip-rule="evenodd" d="M77.0478 59.1104C86.7785 64.0104 96.4257 69.0714 105.991 74.2956C96.3952 76.8944 86.7826 79.4422 77.1497 81.9391C76.9316 81.933 76.7624 81.8657 76.6401 81.7353C76.7767 74.214 76.9133 66.6724 77.0478 59.1104Z" fill="#956B98"/>
<path fill-rule="evenodd" clip-rule="evenodd" d="M73.9902 58.9064C74.1268 58.6354 74.2613 58.6354 74.3979 58.9064C74.4652 66.8231 74.3979 74.7031 74.1941 82.5505C74.2613 74.6338 74.1941 66.7538 73.9902 58.9064Z" fill="#9B8497"/>
<path fill-rule="evenodd" clip-rule="evenodd" d="M77.0479 59.1104C76.9134 66.6724 76.7768 74.214 76.6402 81.7353C76.5057 74.1223 76.6402 66.5807 77.0479 59.1104Z" fill="#AC93B0"/>
<path fill-rule="evenodd" clip-rule="evenodd" d="M74.3977 58.9072C74.5342 62.8472 74.6015 66.8219 74.6015 70.8312C74.6015 74.8405 74.4649 78.8498 74.1938 82.7551V82.5513C74.3977 74.7039 74.4649 66.8239 74.3977 58.9072Z" fill="#1B1115"/>
<path fill-rule="evenodd" clip-rule="evenodd" d="M111.087 78.6777C113.056 81.0564 114.958 83.5023 116.794 86.0155C116.619 86.2357 116.415 86.2703 116.183 86.1175C114.97 85.6466 113.816 85.0698 112.718 84.3849C112.049 82.5138 111.505 80.6121 111.087 78.6777Z" fill="#916996"/>
<path fill-rule="evenodd" clip-rule="evenodd" d="M18.5489 71.1368C18.7629 71.1062 18.9667 71.1408 19.1604 71.2387C28.4814 77.6368 37.8575 83.9555 47.2887 90.1947C43.7237 94.2346 40.0895 98.2092 36.3839 102.119C27.1627 95.588 17.9578 89.0308 8.76514 82.4492C11.9938 78.6437 15.255 74.8729 18.5489 71.1368Z" fill="#B78AB3"/>
<path fill-rule="evenodd" clip-rule="evenodd" d="M112.31 91.2138C112.257 91.4849 112.122 91.6887 111.902 91.8253C94.0649 96.9556 76.23 102.086 58.397 107.214C57.9833 107.006 57.7122 106.666 57.5817 106.195C55.3824 101.185 53.2422 96.1566 51.1611 91.1119C58.7109 89.2407 66.2526 87.339 73.7861 85.4047C85.2106 82.335 96.6597 79.2776 108.131 76.2324C109.069 78.9658 109.851 81.75 110.475 84.5894C111.16 86.752 111.771 88.9595 112.31 91.2138Z" fill="#B789B2"/>
<path fill-rule="evenodd" clip-rule="evenodd" d="M48.7156 92.5391C48.7502 109.186 48.7156 125.83 48.6137 142.477C48.259 142.22 47.886 142.016 47.4926 141.865C38.4569 134.935 29.4192 128.005 20.3835 121.075C20.0064 120.763 19.6313 120.423 19.2624 120.056C19.1605 110.953 19.1258 101.848 19.1605 92.7429C24.9023 96.8704 30.6768 100.947 36.4859 104.973C37.8964 103.868 39.2213 102.645 40.4605 101.304C43.1164 98.2748 45.8681 95.3539 48.7156 92.5391Z" fill="#966B99"/>
<path fill-rule="evenodd" clip-rule="evenodd" d="M19.1605 92.7422C19.1258 101.847 19.1605 110.952 19.2624 120.055C19.6313 120.422 20.0064 120.762 20.3835 121.074C19.8026 121.027 19.3602 120.754 19.0586 120.259C18.8894 111.052 18.9241 101.88 19.1605 92.7422Z" fill="#100D04"/>
<path fill-rule="evenodd" clip-rule="evenodd" d="M108.233 95.5957L108.029 126.578C93.6206 130.995 79.216 135.411 64.8176 139.826C64.0023 140.252 63.1197 140.523 62.1678 140.642C58.5295 141.899 54.8606 143.122 51.1611 144.311C50.9226 128.549 50.89 112.787 51.0592 97.0225C52.9161 101.248 54.8524 105.426 56.8683 109.558C57.119 109.717 57.3901 109.819 57.6836 109.864C60.79 108.895 93.6715 100.053 108.233 95.5957Z" fill="#B68AB2"/>
<path fill-rule="evenodd" clip-rule="evenodd" d="M108.233 95.5964V126.578H108.03V95.8002H106.807C107.141 95.6209 107.514 95.4843 107.928 95.3926C108.085 95.4068 108.187 95.4741 108.233 95.5964Z" fill="#907C88"/>
<path fill-rule="evenodd" clip-rule="evenodd" d="M106.807 95.7998H108.03V99.4687C93.4681 103.926 78.8618 108.239 64.2065 112.412C63.2852 112.742 62.4006 113.115 61.5568 113.533C60.1891 114.032 59.5307 112.591 59.3146 112.106C59.0986 111.621 58.7725 109.53 58.7725 109.53L60.2196 109.096L61.463 108.733L67.0601 107.216C67.0601 107.216 93.5027 99.4443 106.807 95.8018V95.7998Z" fill="#9C719D"/>
<path fill-rule="evenodd" clip-rule="evenodd" d="M47.4922 141.865C47.8856 142.016 48.2586 142.22 48.6132 142.477C48.7152 125.83 48.7498 109.186 48.7152 92.5391C48.9862 109.041 48.9862 125.822 48.7152 142.885C48.2178 142.638 47.8102 142.298 47.4922 141.865Z" fill="#9F849B"/>
<path opacity="0.15" fill-rule="evenodd" clip-rule="evenodd" d="M17.7334 121.89C28.5179 130.033 39.1863 138.322 49.7344 146.757C46.5282 147.992 43.2669 149.113 39.9506 150.12C39.278 150.324 38.5993 150.391 37.9124 150.324C26.7752 141.669 15.7012 132.972 4.68836 124.234C4.44988 123.826 4.17675 123.453 3.87305 123.113C3.87916 122.801 4.01573 122.562 4.2807 122.399C8.38376 121.119 12.5296 119.998 16.7142 119.036C16.6816 119.719 16.7142 120.398 16.8161 121.074C16.969 121.533 17.2747 121.804 17.7334 121.89Z" fill="#511B72"/>
<path fill-rule="evenodd" clip-rule="evenodd" d="M108.233 95.5965C108.384 95.57 108.521 95.6047 108.641 95.6984C108.507 106.012 108.37 116.305 108.233 126.578V95.5965Z" fill="#1D1813"/>
</g>
</svg>
