<svg width="271" height="256" viewBox="0 0 271 256" fill="none" xmlns="http://www.w3.org/2000/svg">
<path d="M271.001 206.473C271.001 208.149 58.7843 207.117 51.1969 207.117C43.6095 207.117 61.1503 193.161 64.691 191.184C68.2317 189.206 223.723 191.482 230.804 191.735C237.886 191.988 271.001 204.797 271.001 206.473Z" fill="#1C0036" fill-opacity="0.25"/>
<path d="M220.543 175.76C220.438 177.807 220.799 179.809 220.948 181.838C221.174 184.914 221.099 188.133 221.759 191.159C221.697 191.166 221.928 192.304 221.556 192.375C217.13 193.218 217.781 192.315 216.896 189.539C216.693 188.904 216.641 188.028 216.492 187.512C216.33 186.952 216.229 186.438 216.088 185.892C215.74 184.571 215.171 183.163 214.872 181.84C214.442 179.951 214.419 177.67 213.656 175.762C215.779 175.73 218.734 175.856 220.546 175.762L220.543 175.76Z" fill="#81675C"/>
<path d="M75.1171 176.394C74.8774 178.433 74.4925 180.496 74.2456 182.531C74.0663 184.02 73.8389 185.548 73.6867 187.028C73.6336 187.548 73.8264 188.125 73.7779 188.645C73.7353 189.108 73.1627 190.319 73.1048 191.118C73.0627 191.711 72.8048 193.062 72.8151 193.165L65.9024 192.946C70.6019 191.742 68.6347 186.85 68.5808 182.85C68.5528 180.81 68.6857 178.338 69.0258 176.332C71.0023 176.276 73.1038 176.487 75.1171 176.394Z" fill="#81675C"/>
<path d="M64.0179 129.494C64.187 142.978 64.5663 156.517 64.6257 170.017H222.258C223.505 169.133 221.931 143.108 222.054 139.423C222.144 136.808 222.102 132.755 222.866 130.305C222.893 130.218 223.62 128.756 223.677 128.685C227.255 124.133 243.075 124.764 244.343 132.129C245.225 137.252 245.261 175.366 244.343 180.35C243.221 186.44 237.008 185.974 232.186 186.225C230.374 186.319 227.422 186.193 225.297 186.225C171.53 187.043 115.806 186.785 61.9911 186.225C59.9756 186.204 57.8894 185.875 55.9128 185.821C50.4927 185.672 43.8112 187.614 42.5407 179.946C41.8209 175.602 42.2299 131.953 43.3519 129.697C45.7603 124.855 60.764 124.631 64.0179 129.494Z" fill="#FFC135"/>
<path d="M232.19 186.227C232.085 188.274 232.446 190.276 232.594 192.305C232.821 195.381 232.745 198.6 233.406 201.626C233.344 201.633 233.575 202.77 233.202 202.841C228.776 203.684 229.427 202.782 228.543 200.006C228.34 199.37 228.287 198.495 228.138 197.979C227.976 197.419 227.876 196.905 227.734 196.359C227.387 195.038 226.818 193.63 226.518 192.307C226.089 190.417 226.066 188.137 225.303 186.229C227.426 186.197 230.38 186.323 232.192 186.229L232.19 186.227Z" fill="#81675C"/>
<path d="M61.9933 186.227C61.6391 188.249 61.1386 190.287 60.7776 192.305C60.5148 193.781 60.2018 195.294 59.9664 196.763C59.8841 197.28 60.0441 197.867 59.9664 198.383C59.8979 198.842 59.258 200.019 59.1552 200.814C59.0798 201.404 58.7462 202.739 58.7508 202.841L51.8613 202.234C56.6211 201.297 54.9324 196.302 55.1038 192.305C55.1906 190.267 55.4626 187.806 55.915 185.822C57.8916 185.877 59.9778 186.206 61.9933 186.227Z" fill="#81675C"/>
<path d="M143.848 110.045C142.87 122.528 144.212 139.906 144.253 152.999C144.253 153.267 144.253 153.541 144.253 153.811C144.276 158.68 141.776 165.519 147.292 168.398H218.611C222.936 167.322 221.931 157.213 221.245 153.811C220.471 149.974 216.73 148.274 213.14 146.921C214.781 141.243 217.678 133.266 222.865 130.306C222.102 132.756 222.143 136.81 222.054 139.424C221.931 143.11 223.505 169.134 222.258 170.018H64.6256C64.5661 156.521 64.1868 142.982 64.0177 129.495C64.0132 129.196 63.627 128.414 63.6133 127.468C70.2719 130.562 73.2288 140.192 74.9586 146.919C71.9537 148.022 66.9883 150.525 66.0446 153.808C65.1008 157.092 64.5844 167.276 69.0837 168.396H139.998C144.276 167.331 144.1 157.151 143.442 153.808C143.368 153.431 142.859 152.62 142.63 152.188C141.767 138.45 143.606 123.616 143.035 110.045H143.846H143.848Z" fill="#E29323"/>
<path d="M223.683 128.683C223.625 128.754 222.899 130.216 222.871 130.303C217.684 133.262 214.787 141.24 213.146 146.918C200.681 142.218 158.065 141.674 147.298 149.754C146.105 150.647 145.378 152.046 144.259 152.996C144.218 139.903 142.876 122.525 143.854 110.042C144.176 105.917 145.744 103.095 149.729 101.532H218.212C227.254 103.39 222.497 122.102 223.683 128.683Z" fill="#FFC135"/>
<path d="M213.145 146.918C216.735 148.27 220.476 149.97 221.25 153.807H144.258C144.258 153.54 144.258 153.265 144.258 152.996C145.377 152.048 146.104 150.649 147.297 149.753C158.066 141.673 200.683 142.217 213.145 146.918Z" fill="#FDD556"/>
<path d="M221.249 153.808C221.937 157.212 222.94 167.319 218.614 168.395H147.296C141.779 165.514 144.279 158.675 144.256 153.808H221.249Z" fill="#FFC135"/>
<path d="M143.038 110.045C143.609 123.616 141.77 138.45 142.633 152.188C136.475 140.516 86.1721 142.803 74.9616 146.921C73.2318 140.194 70.2727 130.565 63.6163 127.471C63.5455 122.46 62.7891 111.293 63.6163 107.006C63.8562 105.76 65.5792 103.402 66.6554 102.751C74.123 98.2266 125.553 103.672 137.57 101.535C142.094 103.341 142.851 105.516 143.04 110.045H143.038Z" fill="#FFC135"/>
<path d="M142.629 152.187C142.858 152.619 143.365 153.433 143.44 153.808H66.041C66.987 150.524 71.9502 148.022 74.955 146.918C86.1655 142.8 136.469 140.515 142.627 152.185L142.629 152.187Z" fill="#FDD556"/>
<path d="M143.441 153.809C144.097 157.152 144.276 167.332 139.998 168.396H69.0836C64.5843 167.277 65.0596 157.227 66.0445 153.809H143.444H143.441Z" fill="#FFC135"/>
<path d="M110.358 242.424C107.773 247.431 63.2439 245.618 57.7961 244.244C52.3482 242.87 41.4043 232.517 41.4043 230.191C41.4043 227.866 54.7377 226.683 64.5623 227.033C74.3869 227.384 112.942 237.417 110.358 242.424Z" fill="#1C0036" fill-opacity="0.25"/>
<path d="M50.8568 86.8037L53.1292 87.4901C51.9954 92.2121 53.7117 96.2963 53.5841 101.232C53.3651 109.759 52.1134 122.237 51.3118 131.002C51.059 133.779 49.3403 136.668 49.0394 139.476C44.591 142.961 44.3695 140.092 41.0838 137.187C41.3365 138.899 42.7808 140.08 43.5848 141.768C41.8107 142.088 45.0123 143.56 44.0398 145.202C42.8675 147.179 39.0064 137.64 38.5852 136.959C37.7017 135.532 35.5233 133.549 34.9479 132.608C28.0587 121.32 21.2007 109.529 13.582 98.4839C12.8551 97.4313 11.2351 94.7538 9.94484 94.5913C10.0315 94.3415 9.75949 93.8831 10.1711 93.6745C19.3231 95.3795 25.3554 97.6471 25.1725 108.331L27.8998 101.918C31.0748 104.858 36.2911 110.96 36.7653 115.429C37.1264 118.847 35.2079 121.362 36.0841 124.362C39.6202 116.174 38.3757 120.68 45.4022 120.469C45.2674 118.849 39.6443 116.382 39.4926 115.888C39.2616 115.129 41.1464 101.821 41.9937 101.46C43.0601 101.004 44.2997 103.199 45.1759 103.291C48.6061 103.659 43.3224 98.9398 43.5848 96.6504C43.7942 94.829 48.3052 87.4973 50.8592 86.8037H50.8568Z" fill="#6BA638"/>
<path d="M70.407 119.323C69.9545 119.075 68.6378 118.365 68.1347 118.637C67.7206 118.857 63.6887 126.419 63.5876 126.88C63.2289 128.539 63.59 138 65.6336 138.56C67.1357 138.973 69.7667 135.803 71.3169 135.354C71.4806 137.687 67.8867 139.159 67.2248 140.163C66.9287 140.612 67.9686 141.078 67.6797 141.538C66.1656 143.932 61.166 152.942 59.9528 153.677C49.7151 159.859 48.3142 146.268 49.0435 139.479C49.3444 136.673 51.0631 133.782 51.3159 131.005C52.1175 122.24 53.3692 109.76 53.5882 101.235C53.7158 96.2997 51.9995 92.2179 53.1333 87.4935L50.8609 86.8071C52.4497 86.3754 53.037 85.9946 54.7244 86.8071C55.3527 87.1103 63.6044 96.8696 63.59 97.5705C63.5779 98.0774 58.1402 104.199 58.5903 106.272C60.6171 107.536 64.1195 99.9958 65.4098 101.235C66.3269 104.934 66.4954 109.578 67.6821 113.143C68.6835 116.153 70.5587 115.981 70.4094 119.328L70.407 119.323Z" fill="#5D8B2D"/>
<path d="M30.4028 152.301C33.8547 153.441 33.7969 156.541 34.7213 157.797C34.7453 157.831 35.2556 157.118 35.4025 157.339C37.2849 160.164 39.225 163.569 38.5847 167.185C38.1635 169.56 34.5191 171.459 34.4926 171.767C34.442 172.351 40.6188 178.909 41.767 180.927C44.2921 185.37 45.8134 190.461 47.2216 195.355C46.6198 195.367 46.006 195.343 45.4042 195.355C43.4809 186.884 38.9723 179.375 33.3564 172.911C30.2343 181.223 19.5008 184.817 14.0366 176.804C17.4018 174.971 19.3468 173.334 20.4011 169.475C17.0576 170.603 15.1487 173.838 11.083 172.909C8.05962 172.22 1.93823 161.081 4.26354 160.084C11.8437 159.308 19.1181 161.777 25.6294 165.58C26.5779 162.415 27.312 159.158 28.1305 155.961C28.4097 154.872 27.7718 153.323 28.5854 152.069C29.2017 151.385 29.8564 152.117 30.4028 152.297V152.301Z" fill="#5D8B2D"/>
<path d="M101.318 117.034L92.9079 125.277C90.6114 126.211 88.1706 127.778 86.3171 129.4C85.903 128.91 85.9945 128.374 85.8621 128.025L86.3171 126.422L85.4072 126.65C85.0485 125.44 84.0519 120.968 82.4512 121.154C81.6159 121.251 71.903 133.373 71.7682 134.207C71.6647 134.847 72.2111 134.894 72.2232 135.352C71.9319 135.386 71.5468 135.284 71.3133 135.352C69.7631 135.801 67.1321 138.97 65.63 138.558C63.5863 137.998 63.2276 128.539 63.5839 126.878C63.6826 126.417 67.717 118.855 68.131 118.634C68.6341 118.365 69.9508 119.073 70.4034 119.321C70.8559 119.568 70.6609 121.356 71.3133 120.924C73.121 115.542 72.2063 113.667 76.9966 110.16C80.0368 107.934 84.1241 105.194 84.9522 110.16C85.6671 114.448 81.1056 118.273 80.1788 122.527C86.3219 114.553 94.7806 109.086 103.136 103.748C104.272 104.752 98.6152 117.354 96.7713 118.634C97.1035 119.374 100.734 117.257 101.318 117.031V117.034Z" fill="#6BA638"/>
<path d="M34.9455 132.605C33.766 134.645 35.7687 137.334 36.7629 139.476C34.0765 140.691 30.8341 136.74 28.3523 136.27C24.5129 135.54 22.1081 137.56 18.3506 134.895C16.9568 133.905 15.7677 131.215 14.4871 130.313L9.48742 114.513L19.0342 118.177C16.8702 117.049 9.53797 111.093 9.03247 109.017C8.86156 108.316 9.70406 95.2704 9.94237 94.5889C11.2326 94.7538 12.8526 97.4289 13.5796 98.4814C21.1982 109.526 28.0562 121.318 34.9455 132.605Z" fill="#6BA638"/>
<path d="M30.4009 152.301C29.8544 152.119 29.1997 151.387 28.5835 152.073C27.7698 153.327 28.4077 154.877 28.1285 155.966C20.2908 167.04 11.7815 158.374 6.7626 149.781L14.9445 144.744C14.6629 144.196 6.07656 147.317 3.12539 143.827C0.908404 141.208 -2.39421 127.789 2.67044 126.651C6.90462 140.774 24.2795 139.973 30.4009 152.301Z" fill="#86B93B"/>
<path d="M14.491 130.316C15.7716 131.218 16.9607 133.908 18.3545 134.897C22.1096 137.563 24.5168 135.542 28.3562 136.272C30.838 136.743 34.078 140.694 36.7668 139.479C38.5216 143.257 40.8301 146.948 42.2214 150.928C41.3163 152.425 41.2032 156.203 39.2654 156.882C38.2063 157.253 35.6186 155.949 35.4019 157.341C35.2551 157.12 34.7448 157.833 34.7207 157.799C33.7964 156.543 33.8541 153.443 30.4023 152.303C24.2809 139.976 6.90606 140.776 2.67188 126.654C4.72518 126.193 12.6567 129.026 14.491 130.318V130.316Z" fill="#6BA638"/>
<path d="M69.9547 202.684L64.0451 230.164C60.7082 231.944 52.8904 231.809 46.7714 231.54C48.8777 229.122 52.6617 228.629 54.0458 225.355C55.3914 222.171 55.2109 213.457 54.0458 210.241C51.1645 202.283 41.9908 206.103 35.8622 204.515C35.8405 204.423 34.9715 203.511 35.4072 202.684C46.0156 202.909 59.4306 203.026 69.9571 202.684H69.9547Z" fill="#E34141"/>
<path d="M46.7686 231.537C44.1641 231.42 41.6486 230.176 41.314 230.162C39.2246 221.695 37.8549 212.993 35.8594 204.512C41.988 206.098 51.1617 202.278 54.043 210.238C55.2081 213.454 55.3886 222.168 54.043 225.352C52.6589 228.624 48.8749 229.116 46.7686 231.537Z" fill="#E95958"/>
<path d="M58.1347 195.354C59.177 195.373 59.668 194.891 59.9521 194.896C64.2103 194.98 68.5938 195.781 72.9074 195.354C74.111 199.816 75.0016 202.518 69.9514 202.683C59.4273 203.025 46.0098 202.909 35.4015 202.683C34.4603 202.664 32.2265 203.047 31.7643 201.997C32.0219 200.694 31.1312 195.943 32.4455 195.356C33.2591 194.993 43.3788 195.398 45.4008 195.356C46.0026 195.344 46.6164 195.368 47.2182 195.356C47.9717 195.342 48.7371 195.368 49.4906 195.356C50.244 195.344 51.0095 195.366 51.7629 195.356C52.8173 195.344 53.8909 195.344 54.9452 195.356C56.0934 195.368 56.6687 194.898 56.7626 194.898C57.1237 194.903 57.2561 195.339 58.1275 195.356L58.1347 195.354Z" fill="#E95958"/>
<path d="M85.4074 126.652C85.5687 127.191 85.6601 127.494 85.8623 128.027C85.9947 128.374 85.9008 128.91 86.3173 129.403C81.2839 133.804 77.6419 139.545 73.8169 144.975C73.3524 144.839 72.2475 136.196 72.2258 135.357C72.2138 134.898 71.6673 134.852 71.7709 134.212C71.9057 133.378 81.6185 121.256 82.4538 121.159C84.0546 120.972 85.0487 125.444 85.4098 126.655L85.4074 126.652Z" fill="#86B93B"/>
<path d="M98.5872 158.255C98.58 158.301 98.7581 158.306 98.5872 159.172C97.7279 163.53 94.8826 171.279 89.7217 170.622C88.4122 170.455 83.711 166.298 83.5835 167.644C84.7341 170.813 86.513 172.945 89.493 174.514C84.8328 181.679 73.004 178.165 70.6281 170.622C65.2939 177.701 61.2523 186.032 59.9452 194.897C59.6612 194.892 59.1701 195.374 58.1278 195.355C59.3699 188.392 61.546 181.601 64.9473 175.431C65.5852 174.272 69.5666 169.846 69.4944 169.477C69.4222 169.109 65.5033 168.049 64.9473 164.44C64.3912 160.831 66.3434 158.158 67.4483 155.052C61.103 153.08 60.5614 157.363 59.0377 162.609C55.9878 173.108 56.8592 184.075 56.7653 194.899C56.6715 194.899 56.0962 195.369 54.9479 195.357C53.2774 181.075 55.1116 167.054 59.9476 153.676C61.1608 152.944 66.1629 143.932 67.6746 141.538C67.9634 141.08 66.9235 140.614 67.2196 140.163C67.8816 139.159 71.4755 137.687 71.3118 135.353C71.5429 135.286 71.9304 135.387 72.2217 135.353C72.2433 136.19 73.3482 144.836 73.8128 144.972C77.6378 139.542 81.2822 133.801 86.3132 129.399C88.1667 127.777 90.6075 126.21 92.904 125.276L101.315 117.033C103.433 116.218 109.583 113.228 110.861 116.805C111.092 117.452 108.921 129.04 108.589 129.63C108.29 130.161 97.8795 135.429 98.5872 136.501L107.224 134.211C98.32 139.455 95.1498 151.727 86.9944 156.883C85.7066 157.698 76.9782 160.867 76.7664 161.692C75.9046 165.027 82.5556 160.074 83.8121 159.631C88.4363 157.993 93.72 157.057 98.5872 158.255Z" fill="#5D8B2D"/>
<path d="M43.5835 141.766C46.6334 148.161 43.1406 145.285 42.6736 147.033C42.4931 147.713 46.7128 158.129 47.2207 160.317C49.8782 171.764 51.1708 183.599 51.7678 195.355C51.0144 195.364 50.2489 195.343 49.4955 195.355C49.0237 180.779 47.0378 164.697 42.221 150.926C40.8297 146.944 38.5188 143.255 36.7664 139.476C35.7723 137.335 33.7695 134.645 34.949 132.605C35.5243 133.546 37.7028 135.53 38.5862 136.956C39.0075 137.638 42.871 147.177 44.0409 145.2C45.0157 143.558 41.8118 142.083 43.5859 141.766H43.5835Z" fill="#4D7627"/>
<path d="M103.137 103.752C94.7815 109.09 86.3227 114.557 80.1797 122.531C81.1064 118.277 85.668 114.452 84.9531 110.165C86.5105 110.043 85.8534 106.711 86.3179 105.814C87.8778 102.799 99.9256 102.847 103.139 103.752H103.137Z" fill="#86B93B"/>
<path d="M85.8632 128.027C85.661 127.493 85.5695 127.193 85.4082 126.652L86.3181 126.424L85.8632 128.027Z" fill="#CBDA99"/>
<path d="M137.973 232.795C157.729 241.726 172.18 252.319 190.909 254.484C209.638 256.649 247.566 256.697 247.566 247.43C247.566 238.163 208.067 225.759 206.172 225.759C205.351 225.759 200.534 227.914 186.145 228.194C184.251 240.373 137.973 227.547 137.973 232.795Z" fill="#1C0036" fill-opacity="0.25"/>
<path opacity="0.997" fill-rule="evenodd" clip-rule="evenodd" d="M162.654 1.25436C162.401 1.25117 162.154 1.28823 161.913 1.36554C161.243 1.55388 160.576 1.75156 159.911 1.95851C159.359 2.14114 158.877 2.42524 158.466 2.81089C158.343 3.45322 158.602 3.73739 159.244 3.66327C160.656 2.9111 162.163 2.46638 163.766 2.32911C164.358 2.29205 164.951 2.27974 165.545 2.29205C165.897 2.38173 166.218 2.52997 166.508 2.73677C166.416 2.75975 166.416 2.79681 166.508 2.84795C170.991 6.09197 173.326 10.5021 173.512 16.0784C173.662 21.3445 171.599 25.4829 167.323 28.4936C166.553 28.9483 165.725 29.2572 164.84 29.4201C164.729 29.3954 164.618 29.3707 164.507 29.346C164.441 29.1544 164.416 28.9568 164.433 28.753C165.339 28.6305 166.229 28.4205 167.101 28.123C167.323 27.8641 167.275 27.6788 166.953 27.5671C166.227 27.7824 165.499 27.9801 164.766 28.16C164.673 28.1341 164.648 28.0847 164.692 28.0118C164.861 27.8979 165.046 27.8115 165.248 27.7524C166.187 27.53 167.126 27.3077 168.065 27.0853C168.263 26.9124 168.263 26.7394 168.065 26.5665C167.149 26.7272 166.235 26.9002 165.322 27.0853C165.421 26.9865 165.52 26.8876 165.619 26.7888C168.634 26.1205 170.574 24.3045 171.437 21.341C171.608 20.5087 171.657 19.6687 171.585 18.8209C171.511 18.7468 171.437 18.6726 171.363 18.5985C170.989 16.9018 169.938 15.9876 168.213 15.8561C167.57 15.9289 166.928 16.0154 166.286 16.1155C165.786 16.3037 165.316 16.5507 164.877 16.8567C164.259 17.0238 163.752 16.8633 163.358 16.3749C161.406 13.7882 158.997 11.7499 156.131 10.26C154.544 9.65331 152.914 9.20859 151.239 8.92582C149.22 8.78543 147.218 8.90899 145.236 9.29642C144.544 9.34586 143.852 9.34586 143.16 9.29642C141.978 8.99719 141.521 8.24369 141.789 7.03575C141.978 6.38171 142.188 5.73931 142.419 5.10862C143.593 3.92729 144.952 3.00079 146.496 2.32911C151.763 0.0794063 157.149 -0.278817 162.654 1.25436Z" fill="#522409"/>
<path opacity="0.982" fill-rule="evenodd" clip-rule="evenodd" d="M162.655 1.2541C163.662 1.49899 164.625 1.84491 165.546 2.29178C164.952 2.27948 164.359 2.29178 163.767 2.32884C162.164 2.46611 160.657 2.91083 159.245 3.66301C158.604 3.73713 158.344 3.45295 158.467 2.81062C158.879 2.42497 159.36 2.14087 159.913 1.95824C160.577 1.75129 161.244 1.55362 161.914 1.36528C162.155 1.28797 162.402 1.25091 162.655 1.2541Z" fill="#7A3F1B"/>
<path fill-rule="evenodd" clip-rule="evenodd" d="M148.2 2.06993C148.682 2.0431 148.806 2.2284 148.571 2.62583C147.027 3.08893 145.619 3.80546 144.346 4.77532C143.895 5.17594 143.5 5.62066 143.16 6.10949C142.777 6.22067 142.641 6.0848 142.752 5.70182C143.74 4.39827 144.988 3.42233 146.495 2.77407C147.08 2.55912 147.648 2.32446 148.2 2.06993Z" fill="#793E1B"/>
<path fill-rule="evenodd" clip-rule="evenodd" d="M149.016 2.88438C149.498 2.85755 149.622 3.04285 149.387 3.44028C148.448 3.68725 147.558 4.05785 146.719 4.55209C146.335 4.66327 146.2 4.52741 146.311 4.14443C147.168 3.61076 148.07 3.19072 149.016 2.88438Z" fill="#793E1B"/>
<path opacity="0.99" fill-rule="evenodd" clip-rule="evenodd" d="M166.507 2.73633C168.944 3.81382 170.932 5.44446 172.473 7.62827C174.139 10.682 174.843 13.9432 174.586 17.4122C174.43 18.3375 174.294 19.2764 174.178 20.2287C174.09 20.6518 173.992 21.0718 173.881 21.4888C173.445 22.633 172.988 23.7695 172.51 24.8983C172.204 25.6097 171.821 26.2768 171.361 26.8996C169.972 28.4762 168.378 29.798 166.581 30.865C166.174 31.2286 165.754 31.5745 165.321 31.9027C164.927 32.1153 164.507 32.2018 164.061 32.1621C163.768 32.1084 163.508 31.9849 163.282 31.7915C162.6 30.5402 162.551 29.2555 163.134 27.9372C163.625 26.8534 164.379 26.001 165.395 25.3801C167.077 25.311 168.424 24.6069 169.434 23.2677C170.49 21.8879 170.934 20.3314 170.768 18.5981C170.706 18.4416 170.644 18.2934 170.583 18.1534C170.204 16.9963 169.4 16.4281 168.174 16.4486C167.582 16.4318 167.026 16.5677 166.507 16.8563C165.805 17.3242 165.138 17.8306 164.505 18.3757C163.856 18.5506 163.263 18.4395 162.726 18.0422C162.517 17.8322 162.306 17.6221 162.096 17.4122C159.125 12.0268 154.566 9.692 148.421 10.4078C146.326 10.8752 144.399 11.7152 142.64 12.9279C142.297 13.1971 141.975 13.4936 141.676 13.8173C141.517 13.9219 141.344 13.9837 141.157 14.0026C141.011 14.0203 140.876 13.9957 140.75 13.9285C139.361 10.9689 139.707 8.22642 141.787 5.70114C141.987 5.48834 142.198 5.29066 142.417 5.10818C142.187 5.73887 141.976 6.38127 141.787 7.03531C141.52 8.24325 141.976 8.99675 143.159 9.29598C143.85 9.34542 144.542 9.34542 145.234 9.29598C147.217 8.90855 149.218 8.78499 151.238 8.92538C152.912 9.20815 154.543 9.65287 156.13 10.2595C158.995 11.7494 161.404 13.7877 163.356 16.3745C163.75 16.8629 164.257 17.0234 164.876 16.8563C165.315 16.5503 165.785 16.3032 166.284 16.1151C166.927 16.0149 167.569 15.9284 168.211 15.8556C169.937 15.9872 170.987 16.9013 171.361 18.5981C171.436 18.6722 171.51 18.7463 171.584 18.8204C171.656 19.6683 171.606 20.5083 171.436 21.3405C170.572 24.3041 168.632 26.12 165.617 26.7884C165.518 26.8872 165.419 26.9861 165.321 27.0849C166.234 26.8998 167.148 26.7268 168.063 26.566C168.261 26.7389 168.261 26.9119 168.063 27.0849C167.125 27.3072 166.186 27.5296 165.246 27.7519C165.045 27.811 164.86 27.8974 164.691 28.0114C164.647 28.0842 164.671 28.1337 164.765 28.1596C165.497 27.9796 166.226 27.782 166.951 27.5666C167.273 27.6783 167.322 27.8636 167.099 28.1225C166.227 28.4201 165.338 28.63 164.431 28.7526C164.414 28.9563 164.439 29.154 164.505 29.3455C164.616 29.3702 164.728 29.395 164.839 29.4197C165.723 29.2567 166.551 28.9479 167.322 28.4931C171.598 25.4825 173.661 21.344 173.511 16.078C173.324 10.5017 170.989 6.09153 166.507 2.84751C166.415 2.79637 166.415 2.75931 166.507 2.73633Z" fill="#3A1905"/>
<path fill-rule="evenodd" clip-rule="evenodd" d="M157.02 3.40485C157.298 3.37305 157.558 3.42242 157.798 3.55309C158.061 4.29978 157.801 4.63332 157.02 4.55372C156.629 4.16406 156.629 3.78116 157.02 3.40485Z" fill="#7A3F1B"/>
<path fill-rule="evenodd" clip-rule="evenodd" d="M145.309 4.73887C145.725 4.63354 145.886 4.78178 145.791 5.18359C145.269 5.48289 144.812 5.86579 144.42 6.33245C144.037 6.44363 143.901 6.30777 144.012 5.92479C144.415 5.48474 144.847 5.08946 145.309 4.73887Z" fill="#793E1B"/>
<path fill-rule="evenodd" clip-rule="evenodd" d="M148.866 5.77628C149.27 5.70231 149.418 5.85055 149.311 6.221C148.617 6.74155 147.95 7.29745 147.31 7.88871C146.952 7.97513 146.816 7.83927 146.902 7.48105C147.541 6.88527 148.196 6.31699 148.866 5.77628Z" fill="#3B1905"/>
<path fill-rule="evenodd" clip-rule="evenodd" d="M147.089 6.073C147.473 5.9994 147.608 6.14764 147.496 6.51772C146.594 7.22187 145.792 8.02481 145.087 8.92664C144.702 9.03804 144.541 8.90218 144.606 8.51897C145.376 7.63702 146.204 6.82169 147.089 6.073Z" fill="#3B1905"/>
<path fill-rule="evenodd" clip-rule="evenodd" d="M145.014 6.81328C145.397 6.7863 145.532 6.95929 145.422 7.33212C144.869 7.71206 144.387 8.16916 143.976 8.70335C143.593 8.81453 143.458 8.67866 143.569 8.29568C144.019 7.75868 144.501 7.26452 145.014 6.81328Z" fill="#3B1905"/>
<path fill-rule="evenodd" clip-rule="evenodd" d="M170.064 7.85053C170.307 7.83341 170.492 7.93228 170.62 8.14701C170.96 8.75302 171.281 9.37066 171.583 10C171.635 10.3694 171.486 10.4929 171.139 10.3706C170.781 9.65469 170.386 8.96293 169.953 8.29525C169.897 8.12181 169.934 7.97357 170.064 7.85053Z" fill="#793E1A"/>
<path fill-rule="evenodd" clip-rule="evenodd" d="M169.694 8.96356C169.84 8.94584 169.975 8.97053 170.101 9.03768C170.566 9.86293 170.9 10.74 171.102 11.669C171.014 12.0214 170.828 12.0832 170.546 11.8543C170.366 11.018 170.069 10.2274 169.657 9.4824C169.605 9.30236 169.617 9.12944 169.694 8.96356Z" fill="#793E1A"/>
<path opacity="0.996" fill-rule="evenodd" clip-rule="evenodd" d="M164.508 18.3761C164.35 18.6935 164.09 18.8417 163.73 18.8208C163.34 18.8145 162.982 18.7033 162.655 18.4873C161.579 17.5046 160.652 16.4051 159.875 15.189C155.647 10.9832 150.742 9.95791 145.162 12.113C143.992 12.617 142.991 13.3459 142.16 14.2995C141.751 14.9713 141.343 15.6384 140.938 16.3008C140.949 15.5286 141.023 14.7626 141.16 14.003C141.347 13.9841 141.519 13.9223 141.679 13.8177C141.977 13.494 142.299 13.1975 142.642 12.9283C144.401 11.7156 146.328 10.8756 148.424 10.4082C154.569 9.69241 159.127 12.0272 162.099 17.4126C162.309 17.6225 162.519 17.8326 162.729 18.0426C163.266 18.4399 163.858 18.551 164.508 18.3761Z" fill="#DE9B78"/>
<path fill-rule="evenodd" clip-rule="evenodd" d="M171.474 10.6672C171.787 10.5977 171.973 10.7212 172.03 11.0378C172.135 11.3486 172.147 11.6575 172.067 11.9643C171.923 12.0194 171.787 12.007 171.659 11.9272C171.475 11.5158 171.413 11.0958 171.474 10.6672Z" fill="#7A3E1B"/>
<path opacity="0.998" fill-rule="evenodd" clip-rule="evenodd" d="M164.507 18.3769C165.14 17.8319 165.807 17.3254 166.509 16.8575C167.028 16.5689 167.584 16.4331 168.176 16.4498C169.402 16.4293 170.206 16.9976 170.585 18.1546C170.682 19.9598 170.2 21.5904 169.14 23.0465C168.12 24.1184 166.872 24.7485 165.397 24.9366C162.96 26.4125 162.034 28.5497 162.617 31.348C162.741 31.5457 162.864 31.7433 162.988 31.941C163.037 32.8809 163.024 33.8198 162.951 34.7575C160.013 35.0662 157.073 35.3626 154.13 35.647C154.911 34.852 155.566 33.9625 156.095 32.9786C156.317 32.2623 156.058 31.8546 155.316 31.7557C155.156 31.7433 154.995 31.731 154.835 31.7186C152.919 31.9239 151.004 31.9116 149.09 31.6815C148.533 31.5533 147.989 31.3804 147.46 31.1627C146.836 30.8507 146.218 30.5419 145.607 30.2362C145.519 30.1618 145.42 30.1 145.31 30.0509C144.9 29.5793 144.48 29.1222 144.05 28.6797C144.05 28.655 144.05 28.6302 144.05 28.6055C144.05 28.5809 144.05 28.5561 144.05 28.5314C143.87 28.3446 143.746 28.1222 143.679 27.8643C143.63 27.7655 143.581 27.7655 143.531 27.8643C144.215 30.4252 144.746 33.0194 145.125 35.647C145.59 39.6169 145.936 43.5942 146.162 47.5803C143.283 50.5704 140.454 53.5848 137.676 56.623C137.485 55.9441 137.313 55.2518 137.157 54.5477C136.849 53.4403 136.553 52.3285 136.267 51.2122C136.009 50.0567 135.7 48.9204 135.341 47.8027C135.221 47.7582 135.11 47.7086 135.007 47.6545C135.087 47.5737 135.137 47.4744 135.156 47.358C134.427 44.5414 133.698 41.7248 132.969 38.9083C132.753 38.3538 132.519 37.8105 132.265 37.2776C132.361 37.1627 132.41 37.0145 132.413 36.8329C132.329 35.3333 131.897 33.9497 131.116 32.6822C130.857 32.4227 130.597 32.1633 130.338 31.9039C130.127 31.7428 129.892 31.6317 129.634 31.5704C128.606 31.8313 127.581 31.8436 126.558 31.6074C126.257 31.4326 125.985 31.2226 125.742 30.9774C125.742 30.6562 125.742 30.335 125.742 30.0138C126.407 29.1858 127.198 28.494 128.114 27.9385C128.191 27.5345 128.017 27.3986 127.595 27.5308C127.022 28.0785 126.355 28.4738 125.594 28.7167C125.273 28.7662 124.952 28.7662 124.631 28.7167C124.514 28.6132 124.415 28.502 124.334 28.3832C124.243 27.8996 124.243 27.4055 124.334 26.9008C124.729 25.7025 125.52 24.8749 126.706 24.4177C126.807 24.2741 126.782 24.1506 126.632 24.0471C126.434 23.9977 126.236 23.9977 126.039 24.0471C125.451 24.4273 124.834 24.7485 124.186 25.0107C123.687 25.1432 123.292 25.0074 123 24.603C122.93 24.2395 122.905 23.8689 122.926 23.4912C123.051 23.1679 123.237 22.8714 123.482 22.6018C124.16 21.8241 124.926 21.157 125.779 20.6005C125.841 20.267 125.705 20.1311 125.372 20.1929C124.68 20.687 123.988 21.1811 123.296 21.6753C122.103 22.3622 121.485 22.0286 121.443 20.6747C121.447 20.2488 121.558 19.8534 121.777 19.4887C122.422 18.6589 123.15 17.9177 123.963 17.2651C127.229 15.8007 130.565 15.6154 133.97 16.7092C135.614 17.2647 137.146 18.0306 138.565 19.007C139.743 20.1358 140.694 21.4329 141.419 22.8983C141.166 21.6523 140.968 20.3923 140.826 19.1181C140.776 18.3275 140.776 17.5369 140.826 16.7463C140.85 16.5917 140.887 16.4434 140.937 16.3016C141.342 15.6392 141.75 14.9721 142.16 14.3003C142.991 13.3467 143.992 12.6179 145.162 12.1138C150.742 9.95872 155.646 10.984 159.875 15.1898C160.652 16.4059 161.578 17.5054 162.654 18.4881C162.981 18.7041 163.339 18.8153 163.729 18.8217C164.09 18.8426 164.349 18.6943 164.507 18.3769Z" fill="#EFC49F"/>
<path fill-rule="evenodd" clip-rule="evenodd" d="M160.948 12.9663C161.099 12.9543 161.247 12.9667 161.393 13.0034C162.345 13.6277 163.383 14.0478 164.506 14.2635C164.659 14.3741 164.683 14.51 164.58 14.6711C164.338 14.7515 164.09 14.7639 163.839 14.7082C162.811 14.4733 161.872 14.0533 161.022 13.4481C160.861 13.3075 160.835 13.1469 160.948 12.9663Z" fill="#3B1905"/>
<path opacity="0.063" fill-rule="evenodd" clip-rule="evenodd" d="M140.936 14.1514C141.015 14.207 141.027 14.2812 140.973 14.3737C140.937 14.3035 140.924 14.2293 140.936 14.1514Z" fill="#F29D77"/>
<path fill-rule="evenodd" clip-rule="evenodd" d="M166.952 14.4473C167.828 14.4686 168.668 14.6539 169.472 15.0032C169.603 15.257 169.529 15.4175 169.25 15.485C168.531 15.2127 167.79 15.0274 167.026 14.929C166.865 14.7884 166.839 14.6278 166.952 14.4473Z" fill="#3B1905"/>
<path fill-rule="evenodd" clip-rule="evenodd" d="M171.252 14.5961C171.44 14.5667 171.601 14.6162 171.734 14.7443C172.065 15.9119 172.226 17.0978 172.215 18.3021C172.032 18.4138 171.872 18.3891 171.734 18.228C171.661 17.1099 171.476 16.0105 171.178 14.9296C171.198 14.816 171.223 14.7048 171.252 14.5961Z" fill="#3B1905"/>
<path fill-rule="evenodd" clip-rule="evenodd" d="M162.801 14.8189C162.952 14.8069 163.1 14.8193 163.246 14.8559C163.66 15.093 164.105 15.2412 164.58 15.3007C165.25 15.3177 165.917 15.293 166.581 15.2266C166.68 15.3748 166.68 15.523 166.581 15.6713C165.302 16.0846 164.066 15.9858 162.875 15.3748C162.712 15.2086 162.686 15.0233 162.801 14.8189Z" fill="#3B1905"/>
<path fill-rule="evenodd" clip-rule="evenodd" d="M172.291 14.893C172.424 14.8719 172.547 14.8966 172.662 14.9672C172.991 15.8769 173.127 16.8158 173.069 17.7837C172.896 17.9814 172.723 17.9814 172.55 17.7837C172.55 16.9402 172.438 16.1125 172.217 15.3007C172.232 15.1615 172.256 15.0256 172.291 14.893Z" fill="#3B1905"/>
<path opacity="0.993" fill-rule="evenodd" clip-rule="evenodd" d="M112.844 16.4493C112.62 16.6617 112.435 16.9088 112.288 17.1905C111.676 18.7051 111.108 20.237 110.583 21.7859C110.145 23.5333 109.823 25.2875 109.62 27.0485C109.695 27.1105 109.781 27.1352 109.879 27.1226C110.167 26.1521 110.611 25.2626 111.213 24.4543C111.528 24.3202 111.849 24.2214 112.177 24.1578C112.473 24.1578 112.77 24.1578 113.066 24.1578C113.248 24.2299 113.445 24.2546 113.659 24.2319C114.427 24.3191 115.069 24.6403 115.586 25.1955C115.197 25.6341 114.901 26.1283 114.697 26.6779C114.669 26.8408 114.62 26.989 114.549 27.1226C113.121 27.8974 112.071 29.0587 111.399 30.6062C111.349 30.8533 111.349 31.1004 111.399 31.3474C111.486 31.4387 111.573 31.4387 111.658 31.3474C112.156 30.5855 112.7 29.8567 113.289 29.1609C113.548 28.9694 113.82 28.7965 114.104 28.642C114.225 28.6054 114.349 28.5931 114.475 28.605C114.451 28.1954 114.475 27.8 114.549 27.4191C114.393 28.7916 114.69 30.0517 115.438 31.1992C114.795 32.4383 114.623 33.7478 114.919 35.1276C114.993 35.2264 115.067 35.2264 115.142 35.1276C115.24 34.901 115.389 34.7281 115.586 34.6087C116.001 34.3303 116.445 34.1079 116.92 33.9417C117.488 33.7488 118.056 33.7488 118.625 33.9417C118.625 33.9663 118.625 33.9911 118.625 34.0158C118.637 34.2887 118.625 34.5604 118.588 34.8311C118.288 35.8017 117.967 36.7653 117.625 37.7218C117.396 38.3703 117.557 38.9018 118.106 39.3154C118.629 39.5452 119.148 39.5452 119.663 39.3154C120.082 38.9107 120.428 38.503 120.701 38.0924C120.927 37.9553 121.174 37.8559 121.442 37.7959C122.466 41.4804 123.33 45.2109 124.036 48.9881C124.011 49.0867 123.987 49.186 123.962 49.2846C122.582 50.7017 121.1 51.9988 119.515 53.1759C117.687 54.5834 115.785 55.8805 113.807 57.0672C113.729 56.9857 113.667 56.8871 113.622 56.7707C113.572 56.7151 113.511 56.6899 113.437 56.6966C111.373 51.3807 109.581 45.9699 108.063 40.4642C106.878 36.2693 106.223 31.995 106.099 27.6414C106.046 25.0374 106.404 22.4926 107.174 20.007C107.603 18.6151 108.357 17.4415 109.434 16.4863C110.32 15.9005 111.283 15.7029 112.325 15.8934C112.618 15.9762 112.791 16.1615 112.844 16.4493Z" fill="#EFC4A0"/>
<path opacity="0.996" fill-rule="evenodd" clip-rule="evenodd" d="M123.961 17.2641C123.148 17.9166 122.419 18.6578 121.775 19.4877C121.556 19.8523 121.445 20.2477 121.441 20.6736C121.24 21.7133 121.561 22.5657 122.405 23.2307C122.559 23.3571 122.732 23.4436 122.924 23.4902C122.903 23.8678 122.928 24.2384 122.998 24.602C123.06 25.3444 123.344 25.9868 123.85 26.5291C123.98 26.697 124.141 26.8205 124.332 26.8997C124.24 27.4044 124.24 27.8985 124.332 28.3821C124.485 29.2025 124.955 29.7461 125.74 30.0128C125.74 30.3339 125.74 30.6552 125.74 30.9763C125.78 31.319 125.879 31.6402 126.037 31.9399C126.349 32.672 126.893 33.1414 127.667 33.3482C124.926 34.6692 122.209 36.0281 119.514 37.4248C119.623 36.8326 119.721 36.2397 119.81 35.6459C119.895 34.914 119.648 34.3334 119.069 33.9041C118.905 33.8456 118.757 33.858 118.625 33.9411C118.056 33.7483 117.487 33.7483 116.92 33.9411C116.99 33.5581 117.089 33.1875 117.216 32.8293C118.318 33.2849 119.38 33.2107 120.403 32.607C121.243 32.282 122.071 31.9362 122.886 31.5693C123.489 30.5088 123.686 29.3724 123.479 28.1597C123.256 26.4636 122.429 25.1665 120.996 24.2684C120.657 24.159 120.311 24.1343 119.959 24.1943C121.162 24.7525 121.99 25.6543 122.442 26.8997C122.521 27.2162 122.558 27.5374 122.553 27.8633C122.33 27.8782 122.108 27.9028 121.886 27.9374C121.75 27.9437 121.651 27.9931 121.589 28.0856C121.16 26.6795 120.32 25.58 119.069 24.7873C118.798 24.6925 118.526 24.6061 118.254 24.5278C117.356 24.3137 116.541 24.4866 115.808 25.0467C115.631 24.8324 115.434 24.6224 115.215 24.4167C115.905 24.1892 116.535 23.8556 117.105 23.416C117.233 23.0023 117.245 22.5823 117.142 22.156C117.166 21.8982 117.128 21.6511 117.031 21.4148C116.89 21.3088 116.729 21.2594 116.549 21.2665C115.795 21.4272 115.079 21.6742 114.4 22.0078C114.147 22.0504 113.924 22.1492 113.733 22.3042C113.508 22.398 113.298 22.5216 113.103 22.6748C113.041 23.184 113.128 23.6658 113.362 24.1202C113.266 24.1565 113.167 24.1689 113.066 24.1572C112.769 24.1572 112.473 24.1572 112.176 24.1572C112.157 23.4091 112.157 22.6679 112.176 21.9336C112.803 21.6792 113.434 21.4321 114.066 21.1924C114.142 21.1675 114.18 21.1181 114.177 21.0442C114.392 20.949 114.615 20.8749 114.844 20.8218C114.909 19.8907 115.07 18.9765 115.326 18.0794C116.856 17.1355 118.499 16.4684 120.255 16.0781C120.539 16.0861 120.811 16.1479 121.071 16.2634C121.762 16.6587 122.454 17.0541 123.146 17.4494C123.431 17.4576 123.703 17.3958 123.961 17.2641Z" fill="#6658A0"/>
<path fill-rule="evenodd" clip-rule="evenodd" d="M110.251 16.3746C110.426 16.3625 110.599 16.3748 110.77 16.4117C110.85 16.5396 110.862 16.6755 110.807 16.8193C109.781 17.301 108.991 18.0422 108.435 19.0429C108.287 19.2406 108.138 19.2406 107.99 19.0429C107.991 18.6196 108.14 18.249 108.435 17.9311C108.967 17.3113 109.573 16.7924 110.251 16.3746Z" fill="#F8D8BB"/>
<path fill-rule="evenodd" clip-rule="evenodd" d="M128.633 16.3015C129.326 16.2892 130.017 16.3015 130.709 16.3385C131.053 16.3972 131.151 16.5825 131.005 16.8944C130.145 16.8948 129.28 16.9072 128.411 16.9315C127.613 17.0072 126.846 17.2048 126.113 17.5245C125.73 17.6357 125.594 17.4998 125.705 17.1168C126.145 16.8302 126.627 16.6449 127.151 16.5609C127.654 16.4648 128.149 16.3783 128.633 16.3015Z" fill="#F8D8BB"/>
<path opacity="0.972" fill-rule="evenodd" clip-rule="evenodd" d="M112.845 16.4492C113.027 16.8034 113.039 17.174 112.882 17.561C112.461 18.8112 112.079 20.0713 111.734 21.3412C111.685 21.4846 111.661 21.6328 111.659 21.7859C111.597 21.8112 111.573 21.8606 111.585 21.9341C111.464 22.0472 111.403 22.1955 111.4 22.3788C111.265 23.0643 111.203 23.7561 111.215 24.4542C110.613 25.2626 110.168 26.152 109.881 27.1225C109.783 27.1351 109.696 27.1105 109.621 27.0484C109.825 25.2875 110.146 23.5333 110.585 21.7859C111.109 20.2369 111.677 18.7051 112.289 17.1904C112.436 16.9088 112.621 16.6616 112.845 16.4492Z" fill="#E29E7A"/>
<path fill-rule="evenodd" clip-rule="evenodd" d="M141.231 16.7462C141.399 16.7196 141.535 16.7691 141.639 16.8945C141.644 17.9733 141.706 19.048 141.824 20.1187C141.869 20.6195 141.684 20.7554 141.268 20.5264C141.132 19.3187 141.082 18.1081 141.12 16.8945C141.173 16.8542 141.21 16.8047 141.231 16.7462Z" fill="#F8D8BB"/>
<path fill-rule="evenodd" clip-rule="evenodd" d="M151.832 17.3386C152.218 17.2801 152.367 17.4283 152.277 17.7833C151.758 18.1663 151.239 18.5492 150.72 18.9322C151.334 18.8546 151.952 18.83 152.573 18.858C152.771 19.031 152.771 19.204 152.573 19.3769C151.578 19.4221 150.589 19.5333 149.609 19.7104C149.27 19.7402 149.159 19.592 149.275 19.2657C150.139 18.6308 150.992 17.9885 151.832 17.3386Z" fill="#2E140C"/>
<path fill-rule="evenodd" clip-rule="evenodd" d="M119.517 17.4871C120.365 17.4037 121.107 17.6384 121.74 18.1913C119.795 18.9674 117.843 19.721 115.885 20.4519C115.999 19.9523 116.134 19.4582 116.292 18.9695C116.797 18.5751 117.353 18.2662 117.96 18.043C118.481 17.8489 119 17.6636 119.517 17.4871Z" fill="#363353"/>
<path opacity="0.999" fill-rule="evenodd" clip-rule="evenodd" d="M144.642 17.6349C144.92 17.6269 145.191 17.6639 145.457 17.746C146.206 18.46 146.515 19.3371 146.384 20.3773C146.256 20.8205 145.997 21.1541 145.606 21.3779C145.289 21.4526 144.993 21.4156 144.716 21.2668C143.779 20.2735 143.593 19.1617 144.16 17.9313C144.293 17.7736 144.454 17.6748 144.642 17.6349Z" fill="#2C120A"/>
<path opacity="0.997" fill-rule="evenodd" clip-rule="evenodd" d="M176.364 17.9322C178.917 17.6838 181.054 18.4991 182.776 20.3781C183.515 21.4828 184.009 22.6934 184.258 24.01C184.635 25.8705 184.759 27.7481 184.629 29.6432C184.578 30.5709 184.515 31.4974 184.443 32.4227C184.48 33.3954 184.641 34.3466 184.925 35.2763C185.28 35.9607 185.613 36.6525 185.926 37.3517C184.358 38.1596 183.135 37.789 182.257 36.2399C182.151 35.9981 182.04 35.7634 181.923 35.5357C181.674 35.3759 181.439 35.3882 181.219 35.5728C181.101 36.358 181.076 37.1486 181.145 37.9447C181.47 39.6954 182.274 41.1904 183.554 42.4289C183.598 42.463 183.647 42.4756 183.702 42.466C184.216 43.2146 184.846 43.8565 185.592 44.3931C185.655 44.5184 185.717 44.6422 185.778 44.7637C185.443 45.1054 185.072 45.4145 184.666 45.6902C183.653 45.7399 182.64 45.7399 181.627 45.6902C177.734 44.4161 175.424 41.7596 174.697 37.7223C174.571 37.285 174.311 36.9514 173.918 36.7217C173.19 36.6115 172.732 36.9203 172.547 37.6482C172.423 38.5087 172.546 39.324 172.918 40.0941C173.14 40.9717 173.425 41.8123 173.77 42.6142C173.708 42.738 173.609 42.8247 173.474 42.8737C173.229 42.95 172.981 43.0115 172.732 43.059C171.501 41.9798 170.772 40.6211 170.546 38.9823C170.372 37.4288 170.619 35.9464 171.287 34.5351C172.809 31.3176 174.465 28.1799 176.253 25.1218C177.082 23.6952 177.477 22.1634 177.439 20.5264C177.203 19.6013 176.845 18.7365 176.364 17.9322Z" fill="#532509"/>
<path fill-rule="evenodd" clip-rule="evenodd" d="M123.52 18.0064C123.936 17.9011 124.096 18.0494 124.001 18.4512C123.394 18.8359 122.913 19.3423 122.556 19.9706C122.307 20.0552 122.159 19.9688 122.111 19.7112C122.141 19.5854 122.178 19.4619 122.223 19.3406C122.62 18.8565 123.053 18.4118 123.52 18.0064Z" fill="#F8D7BB"/>
<path opacity="0.987" fill-rule="evenodd" clip-rule="evenodd" d="M175.255 17.8564C175.331 17.9198 175.418 17.9693 175.514 18.0047C175.794 17.9384 176.078 17.9137 176.366 17.9306C176.847 18.7349 177.205 19.5997 177.441 20.5248C177.479 22.1618 177.084 23.6936 176.255 25.1202C174.467 28.1783 172.811 31.316 171.289 34.5335C170.621 35.9448 170.375 37.4272 170.548 38.9807C170.774 40.6195 171.503 41.9782 172.735 43.0574C171.915 43.0247 171.236 42.7031 170.696 42.0938C169.6 40.6151 169.094 38.9474 169.177 37.0907C169.166 35.7101 169.376 34.3636 169.807 33.0511C170.593 31.0379 171.409 29.0367 172.253 27.0474C172.547 26.2408 172.806 25.4255 173.031 24.6014C173.591 24.5192 174.035 24.2474 174.365 23.7861C175.064 23.0051 175.509 22.0909 175.699 21.0436C175.771 20.8622 175.796 20.6645 175.773 20.4507C176.017 19.774 175.943 19.1316 175.551 18.5235C175.564 18.45 175.539 18.4006 175.477 18.3753C175.384 18.2132 175.309 18.0403 175.255 17.8564Z" fill="#3A1904"/>
<path fill-rule="evenodd" clip-rule="evenodd" d="M175.475 18.3763C175.537 18.4016 175.562 18.451 175.549 18.5245C175.564 18.8941 175.403 19.0176 175.067 18.8951C174.927 18.4939 175.062 18.3209 175.475 18.3763Z" fill="#FECA65"/>
<path fill-rule="evenodd" clip-rule="evenodd" d="M167.989 18.821C168.373 18.7474 168.508 18.8957 168.396 19.2658C168.016 19.5721 167.657 19.9057 167.322 20.2664C167.841 20.7967 168.124 21.4267 168.174 22.1565C168.026 22.2553 167.878 22.2553 167.729 22.1565C167.552 21.6288 167.28 21.1593 166.914 20.7482C166.515 21.2127 166.182 21.7192 165.913 22.2676C165.543 22.3169 165.407 22.1563 165.506 21.7859C166.135 20.6261 166.962 19.6379 167.989 18.821Z" fill="#E29F7C"/>
<path fill-rule="evenodd" clip-rule="evenodd" d="M175.773 20.4513C175.796 20.6651 175.77 20.8628 175.698 21.0443C175.548 21.4084 175.375 21.7666 175.18 22.119C174.903 22.2133 174.779 22.1145 174.809 21.8225C174.945 21.367 175.08 20.91 175.217 20.4513C175.251 20.0285 175.251 19.6086 175.217 19.1913C175.409 19.0814 175.582 19.1062 175.735 19.2654C175.773 19.6599 175.785 20.0552 175.773 20.4513Z" fill="#FECB67"/>
<path fill-rule="evenodd" clip-rule="evenodd" d="M122.925 23.4915C122.733 23.445 122.56 23.3585 122.406 23.2321C121.563 22.567 121.242 21.7146 121.443 20.675C121.485 22.0289 122.102 22.3625 123.296 21.6756C123.987 21.1814 124.679 20.6873 125.371 20.1932C125.705 20.1314 125.84 20.2673 125.779 20.6008C124.925 21.1573 124.159 21.8244 123.481 22.6021C123.236 22.8717 123.051 23.1681 122.925 23.4915Z" fill="#E09E7B"/>
<path fill-rule="evenodd" clip-rule="evenodd" d="M180.96 20.5264C182.051 20.6928 182.694 21.3229 182.888 22.4164C182.787 23.1651 182.367 23.4122 181.627 23.1576C180.8 22.6299 180.442 21.8763 180.553 20.897C180.681 20.756 180.817 20.6324 180.96 20.5264Z" fill="#7A3F1B"/>
<path opacity="0.931" fill-rule="evenodd" clip-rule="evenodd" d="M114.178 21.0455C114.181 21.1194 114.143 21.1688 114.067 21.1937C113.434 21.4334 112.804 21.6804 112.177 21.9349C112.001 21.9789 111.828 22.0036 111.658 22.009C111.658 21.9349 111.658 21.8608 111.658 21.7867C111.659 21.6336 111.684 21.4854 111.732 21.3419C112.448 20.9345 113.214 20.7244 114.03 20.7119C114.11 20.8105 114.16 20.9217 114.178 21.0455Z" fill="#353352"/>
<path fill-rule="evenodd" clip-rule="evenodd" d="M174.66 17.5605C174.895 17.5938 175.093 17.6926 175.253 17.857C175.307 18.0408 175.382 18.2138 175.475 18.3759C175.062 18.3205 174.926 18.4935 175.067 18.8947C175.403 19.0172 175.564 18.8937 175.549 18.5241C175.941 19.1322 176.015 19.7746 175.771 20.4512C175.784 20.0551 175.771 19.6599 175.734 19.2653C175.581 19.1061 175.408 19.0813 175.216 19.1912C175.25 19.6085 175.25 20.0285 175.216 20.4512C175.079 20.9099 174.944 21.3669 174.808 21.8225C174.778 22.1144 174.902 22.2132 175.178 22.1189C175.373 21.7665 175.547 21.4083 175.697 21.0442C175.507 22.0915 175.062 23.0057 174.363 23.7867C174.005 23.8484 173.832 23.7002 173.844 23.3419C174.032 22.6691 174.242 22.0021 174.474 21.3407C174.821 20.0925 174.883 18.8325 174.66 17.5605Z" fill="#FAA505"/>
<path fill-rule="evenodd" clip-rule="evenodd" d="M117.145 22.1557C117.098 22.5264 117.012 22.897 116.885 23.2675C116.746 23.4546 116.561 23.5535 116.329 23.564C115.772 22.9395 115.13 22.4206 114.402 22.0075C115.081 21.674 115.798 21.4269 116.552 21.2663C116.732 21.2592 116.892 21.3085 117.034 21.4145C117.131 21.6508 117.168 21.898 117.145 22.1557Z" fill="#81B2CD"/>
<path opacity="0.989" fill-rule="evenodd" clip-rule="evenodd" d="M111.585 21.9346C111.585 21.984 111.61 22.0087 111.659 22.0087C111.829 22.0033 112.002 21.9786 112.178 21.9346C112.159 22.6688 112.159 23.41 112.178 24.1582C111.85 24.2218 111.529 24.3206 111.214 24.4547C111.203 23.7566 111.265 23.0648 111.4 22.3793C111.402 22.1959 111.464 22.0477 111.585 21.9346Z" fill="#514381"/>
<path fill-rule="evenodd" clip-rule="evenodd" d="M114.401 22.0088C115.129 22.4219 115.771 22.9408 116.328 23.5653C116.005 23.7333 115.659 23.8568 115.291 23.9359C114.978 23.7854 114.694 23.5877 114.438 23.343C114.219 23.049 113.971 22.7772 113.697 22.5276C113.662 22.4478 113.675 22.3737 113.734 22.3053C113.926 22.1502 114.148 22.0514 114.401 22.0088Z" fill="#BBD5E3"/>
<path fill-rule="evenodd" clip-rule="evenodd" d="M113.735 22.3047C113.676 22.3731 113.664 22.4472 113.698 22.527C113.973 22.7766 114.22 23.0484 114.44 23.3424C114.696 23.5871 114.98 23.7848 115.292 23.9353C115.152 23.9963 115.004 24.058 114.847 24.1206C114.438 24.1335 114.043 24.1705 113.661 24.2318C113.447 24.2545 113.25 24.2298 113.068 24.1577C113.17 24.1693 113.269 24.157 113.365 24.1206C113.131 23.6662 113.044 23.1844 113.105 22.6753C113.301 22.522 113.511 22.3984 113.735 22.3047Z" fill="#81B3CD"/>
<path fill-rule="evenodd" clip-rule="evenodd" d="M117.144 22.1562C117.247 22.5825 117.235 23.0026 117.107 23.4163C116.537 23.8559 115.907 24.1894 115.217 24.4169C115.435 24.6227 115.633 24.8327 115.81 25.0469C115.775 25.1512 115.7 25.2006 115.587 25.1952C115.07 24.64 114.428 24.3189 113.66 24.2316C114.042 24.1703 114.437 24.1333 114.846 24.1204C115.003 24.0578 115.151 23.9961 115.291 23.9351C115.659 23.8561 116.005 23.7325 116.328 23.5645C116.56 23.554 116.745 23.4551 116.884 23.2681C117.011 22.8975 117.097 22.5269 117.144 22.1562Z" fill="#554B87"/>
<path opacity="0.998" fill-rule="evenodd" clip-rule="evenodd" d="M174.587 17.4131C174.574 17.4866 174.599 17.536 174.661 17.5613C174.884 18.8332 174.823 20.0933 174.476 21.3415C174.243 22.0028 174.033 22.6699 173.846 23.3427C173.834 23.7009 174.007 23.8492 174.365 23.7874C174.035 24.2488 173.59 24.5206 173.031 24.6028C172.783 24.5796 172.61 24.6784 172.512 24.8992C172.99 23.7705 173.446 22.634 173.883 21.4897C173.993 21.0727 174.092 20.6527 174.179 20.2297C174.296 19.2773 174.431 18.3384 174.587 17.4131Z" fill="#BD6C04"/>
<path fill-rule="evenodd" clip-rule="evenodd" d="M152.573 23.4902C152.149 24.5568 151.433 25.3721 150.423 25.9362C150.151 26.1133 149.855 26.1751 149.534 26.1215C149.454 25.9935 149.442 25.8577 149.497 25.7138C150.762 25.2884 151.639 24.4607 152.128 23.2308C152.378 23.1476 152.526 23.2341 152.573 23.4902Z" fill="#2D130A"/>
<path fill-rule="evenodd" clip-rule="evenodd" d="M152.573 23.4912C153.764 23.9214 154.123 24.712 153.648 25.8631C153.054 26.4247 152.349 26.61 151.536 26.419C151.141 26.2953 150.77 26.1346 150.424 25.9372C151.433 25.3731 152.149 24.5578 152.573 23.4912Z" fill="#651D0C"/>
<path fill-rule="evenodd" clip-rule="evenodd" d="M124.332 26.8995C124.141 26.8203 123.981 26.6968 123.85 26.5289C123.345 25.9866 123.061 25.3442 122.998 24.6018C123.29 25.0061 123.686 25.142 124.184 25.0094C124.832 24.7472 125.45 24.426 126.037 24.0459C126.235 23.9964 126.432 23.9964 126.63 24.0459C126.78 24.1493 126.805 24.2728 126.704 24.4165C125.518 24.8736 124.727 25.7013 124.332 26.8995Z" fill="#E19E7B"/>
<path fill-rule="evenodd" clip-rule="evenodd" d="M120.406 32.6076C121.319 31.7342 121.764 30.6595 121.74 29.3834C121.719 28.9471 121.669 28.5148 121.592 28.0863C121.653 27.9938 121.752 27.9444 121.888 27.9381C122.11 27.9035 122.332 27.8788 122.555 27.8639C122.561 27.538 122.524 27.2169 122.444 26.9004C121.992 25.655 121.165 24.7532 119.961 24.195C120.314 24.1349 120.659 24.1597 120.999 24.2691C122.431 25.1671 123.259 26.4642 123.482 28.1604C123.689 29.373 123.491 30.5095 122.889 31.5699C122.073 31.9368 121.245 32.2827 120.406 32.6076Z" fill="#4D4182"/>
<path fill-rule="evenodd" clip-rule="evenodd" d="M183.111 24.3061C183.356 24.2671 183.517 24.3659 183.593 24.6026C183.938 26.04 184.061 27.4977 183.964 28.9757C183.791 29.1734 183.617 29.1734 183.445 28.9757C183.426 27.9857 183.376 26.9974 183.296 26.0109C183.256 25.5236 183.144 25.0542 182.963 24.6026C182.981 24.486 183.031 24.3872 183.111 24.3061Z" fill="#793E1A"/>
<path fill-rule="evenodd" clip-rule="evenodd" d="M118.255 24.5283C118.274 24.8053 118.151 24.9782 117.884 25.0471C116.577 25.0222 115.687 25.6151 115.216 26.826C115.043 26.7766 114.87 26.7272 114.697 26.6778C114.901 26.1282 115.197 25.634 115.587 25.1954C115.7 25.2008 115.774 25.1514 115.809 25.0471C116.542 24.4871 117.358 24.3142 118.255 24.5283Z" fill="#F3F0F2"/>
<path fill-rule="evenodd" clip-rule="evenodd" d="M182.295 24.529C182.441 24.5113 182.576 24.536 182.702 24.6031C182.885 25.6326 182.934 26.6703 182.851 27.7162C182.678 27.9138 182.505 27.9138 182.332 27.7162C182.313 26.7762 182.276 25.8374 182.221 24.8996C182.227 24.7693 182.252 24.6458 182.295 24.529Z" fill="#793E1A"/>
<path fill-rule="evenodd" clip-rule="evenodd" d="M118.254 24.5283C118.526 24.6066 118.798 24.693 119.069 24.7877C120.32 25.5805 121.16 26.68 121.589 28.0861C121.667 28.5146 121.716 28.9469 121.738 29.3832C121.762 30.6593 121.317 31.734 120.403 32.6074C119.38 33.2112 118.318 33.2853 117.216 32.8298C116.941 32.6183 116.645 32.4454 116.327 32.311C116.03 31.94 115.733 31.5694 115.437 31.1992C114.689 30.0516 114.392 28.7916 114.548 27.419C114.548 27.3202 114.548 27.2213 114.548 27.1225C114.619 26.989 114.668 26.8407 114.696 26.6778C114.869 26.7272 115.042 26.7766 115.215 26.8261C115.003 27.6827 115.027 28.5227 115.289 29.3461C115.494 30.3007 115.964 31.0914 116.697 31.718C117.682 32.6279 118.769 32.7638 119.959 32.1257C120.199 31.997 120.372 31.8117 120.478 31.5698C120.838 31.1204 121.048 30.6016 121.108 30.0132C121.24 28.1422 120.561 26.6474 119.069 25.5289C118.861 25.3999 118.639 25.3134 118.402 25.2695C118.233 25.1842 118.06 25.1101 117.883 25.0472C118.15 24.9782 118.273 24.8053 118.254 24.5283Z" fill="#D7D3D4"/>
<path fill-rule="evenodd" clip-rule="evenodd" d="M117.883 25.0467C118.06 25.1096 118.233 25.1837 118.402 25.269C118.328 25.269 118.254 25.269 118.18 25.269C118.164 25.3561 118.188 25.4302 118.254 25.4914C119.204 25.9351 119.859 26.6517 120.218 27.6409C120.347 27.9777 120.446 28.3235 120.515 28.6786C120.567 29.4733 120.53 30.2639 120.403 31.0504C120.404 31.2376 120.428 31.4106 120.478 31.5692C120.372 31.8112 120.199 31.9965 119.959 32.1251C118.769 32.7633 117.682 32.6274 116.697 31.7175C116.828 31.7454 116.951 31.7949 117.068 31.8657C117.128 31.8429 117.177 31.8058 117.216 31.7545C117.117 31.6804 117.117 31.6063 117.216 31.5322C116.034 30.3028 115.54 28.8327 115.734 27.122C115.548 27.1368 115.387 27.1615 115.252 27.1961C115.112 27.9147 115.125 28.6313 115.289 29.3456C115.027 28.5222 115.003 27.6822 115.215 26.8255C115.686 25.6146 116.575 25.0217 117.883 25.0467Z" fill="#5D67B1"/>
<path fill-rule="evenodd" clip-rule="evenodd" d="M176.293 25.4919C176.663 25.4792 176.799 25.6521 176.701 26.0107C176.231 27.0705 175.762 28.1329 175.292 29.1979C175.015 29.3443 174.854 29.2701 174.811 28.9755C174.825 28.8216 174.862 28.6733 174.922 28.5308C175.401 27.5275 175.857 26.5146 176.293 25.4919Z" fill="#3B1905"/>
<path fill-rule="evenodd" clip-rule="evenodd" d="M117.365 25.9365C118.289 25.9976 118.969 26.4423 119.404 27.2707C120.194 28.5752 120.219 29.8847 119.478 31.1991C118.912 31.6803 118.332 31.6926 117.736 31.2361C116.615 30.1215 116.158 28.775 116.365 27.1966C116.526 26.6214 116.859 26.2014 117.365 25.9365Z" fill="#433295"/>
<path fill-rule="evenodd" clip-rule="evenodd" d="M176.737 26.4558C177.121 26.3822 177.257 26.5305 177.145 26.9005C176.914 27.5112 176.642 28.1042 176.33 28.6794C175.935 28.8523 175.786 28.7289 175.885 28.3088C176.178 27.6861 176.462 27.0684 176.737 26.4558Z" fill="#3A1905"/>
<path fill-rule="evenodd" clip-rule="evenodd" d="M117.144 26.6039C117.332 26.5746 117.493 26.624 117.626 26.7521C117.775 27.6696 117.75 28.5837 117.552 29.4946C117.18 29.7451 116.933 29.6463 116.81 29.1981C116.667 28.5052 116.667 27.8135 116.81 27.1227C116.938 26.9584 117.049 26.7855 117.144 26.6039Z" fill="#8182C2"/>
<path opacity="0.99" fill-rule="evenodd" clip-rule="evenodd" d="M170.584 18.1543C170.645 18.2943 170.707 18.4426 170.77 18.599C170.936 20.3323 170.491 21.8889 169.435 23.2686C168.425 24.6078 167.078 25.312 165.396 25.381C164.38 26.0019 163.626 26.8543 163.135 27.9382C162.552 29.2564 162.601 30.5411 163.283 31.7924C163.509 31.9858 163.769 32.1093 164.062 32.163C164.066 32.9712 164.14 33.7618 164.284 34.5349C163.863 34.6905 163.418 34.7647 162.95 34.7573C163.023 33.8195 163.036 32.8806 162.987 31.9407C162.863 31.743 162.74 31.5454 162.616 31.3477C162.033 28.5494 162.959 26.4123 165.396 24.9363C166.872 24.7482 168.119 24.1182 169.139 23.0462C170.2 21.5901 170.681 19.9595 170.584 18.1543Z" fill="#DE9A78"/>
<path fill-rule="evenodd" clip-rule="evenodd" d="M114.549 27.1221C114.549 27.2209 114.549 27.3197 114.549 27.4186C114.475 27.7995 114.451 28.1949 114.474 28.6045C114.348 28.5926 114.225 28.6049 114.104 28.6415C113.819 28.796 113.548 28.9689 113.288 29.1604C112.7 29.8561 112.156 30.585 111.658 31.3469C111.573 31.4382 111.486 31.4382 111.398 31.3469C111.349 31.0999 111.349 30.8528 111.398 30.6057C112.071 29.0582 113.121 27.8969 114.549 27.1221Z" fill="#E29F7B"/>
<path fill-rule="evenodd" clip-rule="evenodd" d="M125.742 30.0144C124.957 29.7477 124.488 29.2041 124.334 28.3837C124.415 28.5025 124.514 28.6137 124.63 28.7173C124.952 28.7667 125.273 28.7667 125.594 28.7173C126.355 28.4743 127.022 28.079 127.595 27.5313C128.017 27.3991 128.19 27.535 128.114 27.939C127.198 28.4945 126.407 29.1864 125.742 30.0144Z" fill="#E19E7B"/>
<path opacity="0.993" fill-rule="evenodd" clip-rule="evenodd" d="M144.048 28.5322C143.95 28.5569 143.95 28.5816 144.048 28.6063C144.048 28.631 144.048 28.6558 144.048 28.6804C144.556 29.9935 145.013 31.3276 145.419 32.6829C145.857 34.6098 146.289 36.537 146.717 38.4643C146.633 38.6222 146.62 38.7949 146.679 38.9832C147.014 40.3188 147.322 41.653 147.606 42.9857C147.706 43.7283 147.879 44.4451 148.125 45.1352C148.157 45.6918 148.256 46.2351 148.421 46.7658C148.421 46.8155 148.421 46.8644 148.421 46.914C148.366 46.9044 148.317 46.917 148.273 46.9511C144.821 50.4288 141.349 53.8754 137.859 57.2909C137.786 57.0707 137.723 56.8484 137.674 56.6238C140.452 53.5856 143.281 50.5711 146.161 47.5811C145.934 43.5949 145.588 39.6176 145.123 35.6478C144.744 33.0202 144.213 30.426 143.529 27.8651C143.579 27.7663 143.628 27.7663 143.678 27.8651C143.744 28.123 143.868 28.3453 144.048 28.5322Z" fill="#E29E7B"/>
<path fill-rule="evenodd" clip-rule="evenodd" d="M118.401 25.2695C118.638 25.3134 118.86 25.3999 119.068 25.529C120.56 26.6474 121.239 28.1422 121.106 30.0132C121.047 30.6016 120.837 31.1204 120.476 31.5698C120.427 31.4111 120.402 31.2381 120.402 31.0509C120.529 30.2644 120.566 29.4738 120.513 28.6791C120.445 28.324 120.346 27.9782 120.217 27.6414C119.858 26.6522 119.203 25.9357 118.253 25.4919C118.187 25.4307 118.162 25.3566 118.179 25.2695C118.253 25.2695 118.327 25.2695 118.401 25.2695Z" fill="#515AA5"/>
<path fill-rule="evenodd" clip-rule="evenodd" d="M183.482 29.4936C183.731 29.4471 183.879 29.5459 183.927 29.7901C183.87 30.3562 183.833 30.9245 183.816 31.4948C183.699 31.7211 183.526 31.7705 183.297 31.6431C183.304 30.9772 183.329 30.3101 183.371 29.6418C183.424 29.6015 183.461 29.5521 183.482 29.4936Z" fill="#7A3F1B"/>
<path fill-rule="evenodd" clip-rule="evenodd" d="M116.698 31.7175C115.964 31.0909 115.495 30.3003 115.29 29.3457C115.125 28.6313 115.113 27.9148 115.253 27.1962C115.388 27.1615 115.548 27.1368 115.734 27.1221C115.541 28.8328 116.035 30.3028 117.217 31.5322C117.118 31.6064 117.118 31.6805 117.217 31.7546C117.178 31.8059 117.128 31.8429 117.069 31.8658C116.952 31.7949 116.828 31.7455 116.698 31.7175Z" fill="#5059A5"/>
<path opacity="0.974" fill-rule="evenodd" clip-rule="evenodd" d="M145.605 30.2354C146.217 30.5411 146.834 30.8499 147.458 31.1619C147.988 31.3795 148.532 31.5525 149.089 31.6807C151.003 31.9108 152.917 31.9231 154.833 31.7178C154.994 31.7301 155.154 31.7424 155.315 31.7548C156.056 31.8538 156.316 32.2614 156.093 32.9778C155.565 33.9617 154.91 34.8511 154.129 35.6461C153.509 35.716 152.891 35.7901 152.276 35.8685C152.227 35.6215 152.178 35.3743 152.128 35.1273C152.128 35.0779 152.104 35.0532 152.054 35.0532C152.064 34.2118 152.038 33.3718 151.98 32.5331C149.544 32.5862 147.419 31.8203 145.605 30.2354Z" fill="#E29E7A"/>
<path opacity="0.983" fill-rule="evenodd" clip-rule="evenodd" d="M125.74 30.9766C125.983 31.2218 126.255 31.4318 126.556 31.6066C127.578 31.8428 128.604 31.8305 129.632 31.5695C129.89 31.6308 130.124 31.742 130.336 31.9031C130.595 32.1625 130.855 32.4219 131.114 32.6813C131.894 33.9489 132.327 35.3325 132.411 36.8321C132.408 37.0137 132.358 37.1619 132.263 37.2768C131.765 36.1631 131.148 35.1254 130.41 34.1637C130.211 33.7547 129.915 33.4211 129.52 33.1631C129.208 32.9946 128.887 32.8463 128.557 32.7184C127.584 32.8464 126.744 32.587 126.037 31.9401C125.879 31.6405 125.78 31.3192 125.74 30.9766Z" fill="#E19E7A"/>
<path fill-rule="evenodd" clip-rule="evenodd" d="M115.437 31.1992C115.733 31.5694 116.029 31.9401 116.326 32.311C115.902 32.9397 115.605 33.6315 115.437 34.3864C115.447 34.4998 115.497 34.5739 115.585 34.6088C115.387 34.7281 115.239 34.901 115.14 35.1276C115.066 35.2264 114.992 35.2264 114.918 35.1276C114.621 33.7478 114.794 32.4383 115.437 31.1992Z" fill="#E19E7B"/>
<path fill-rule="evenodd" clip-rule="evenodd" d="M116.327 32.3105C116.645 32.445 116.942 32.6179 117.216 32.8294C117.089 33.1876 116.99 33.5582 116.92 33.9412C116.445 34.1074 116 34.3298 115.586 34.6083C115.497 34.5734 115.448 34.4993 115.438 34.3859C115.606 33.631 115.903 32.9392 116.327 32.3105Z" fill="#514381"/>
<path opacity="0.991" fill-rule="evenodd" clip-rule="evenodd" d="M126.038 31.9414C126.745 32.5883 127.585 32.8477 128.558 32.7197C128.888 32.8476 129.209 32.9958 129.521 33.1644C129.916 33.4224 130.212 33.7559 130.411 34.165C130.338 34.1175 130.264 34.0681 130.188 34.0168C127.832 35.0961 125.461 36.1338 123.073 37.1298C122.947 37.118 122.823 37.1306 122.702 37.1669C122.258 37.3426 121.838 37.5531 121.442 37.7969C121.174 37.8569 120.927 37.9563 120.701 38.0934C120.348 38.2327 120.002 38.3936 119.663 38.5752C119.324 38.6663 118.978 38.7034 118.626 38.6864C118.613 38.3639 118.626 38.043 118.663 37.7228C118.885 36.8695 119.046 36.0048 119.145 35.1286C119.14 34.8763 119.103 34.6293 119.033 34.3874C118.954 34.1962 118.818 34.0727 118.626 34.0168C118.626 33.9921 118.626 33.9673 118.626 33.9427C118.758 33.8595 118.906 33.8471 119.07 33.9056C119.649 34.335 119.896 34.9156 119.812 35.6474C119.723 36.2412 119.624 36.8342 119.515 37.4263C122.21 36.0296 124.928 34.6707 127.668 33.3497C126.894 33.143 126.35 32.6735 126.038 31.9414Z" fill="#4E4183"/>
<path fill-rule="evenodd" clip-rule="evenodd" d="M174.808 32.4604C175.057 32.4139 175.205 32.5127 175.252 32.7568C174.983 33.3549 174.736 33.9602 174.511 34.5728C174.262 34.6492 174.114 34.5627 174.066 34.3134C174.212 33.652 174.459 33.0343 174.808 32.4604Z" fill="#3B1905"/>
<path fill-rule="evenodd" clip-rule="evenodd" d="M172.437 32.7547C172.819 32.7277 172.955 32.9007 172.845 33.2735C172.113 34.7527 171.606 36.2968 171.325 37.906C170.968 37.9564 170.82 37.7956 170.88 37.4243C170.915 36.9202 171.002 36.4265 171.14 35.9419C171.552 34.8642 171.985 33.8019 172.437 32.7547Z" fill="#3B1905"/>
<path fill-rule="evenodd" clip-rule="evenodd" d="M118.627 34.0156C118.819 34.0715 118.955 34.1951 119.034 34.3862C119.104 34.6282 119.141 34.8752 119.145 35.1274C119.047 36.0037 118.886 36.8684 118.664 37.7216C118.627 38.0418 118.614 38.3628 118.627 38.6852C118.979 38.7023 119.324 38.6652 119.664 38.574C120.003 38.3924 120.349 38.2316 120.702 38.0922C120.429 38.5029 120.083 38.9105 119.664 39.3152C119.15 39.545 118.631 39.545 118.108 39.3152C117.558 38.9016 117.398 38.3702 117.626 37.7216C117.968 36.7651 118.29 35.8016 118.59 34.8309C118.627 34.5603 118.639 34.2885 118.627 34.0156Z" fill="#DF9C7B"/>
<path opacity="0.997" fill-rule="evenodd" clip-rule="evenodd" d="M164.285 34.5339C164.533 34.5216 164.78 34.534 165.026 34.5709C165.752 35.8362 166.431 37.1333 167.064 38.4622C167.313 38.9344 167.498 39.4288 167.62 39.9446C163.15 41.6546 158.666 43.3342 154.167 44.9848C154.02 44.9366 153.921 44.8373 153.871 44.6883C153.379 41.8325 152.823 38.9915 152.203 36.1645C152.229 36.0645 152.254 35.9656 152.277 35.868C152.892 35.7896 153.51 35.7155 154.13 35.6457C157.073 35.3613 160.013 35.0649 162.951 34.7562C163.419 34.7636 163.864 34.6895 164.285 34.5339Z" fill="#F0F0F0"/>
<path fill-rule="evenodd" clip-rule="evenodd" d="M183.703 34.6087C183.873 34.5897 184.034 34.6144 184.185 34.6828C184.272 35.1405 184.444 35.5604 184.704 35.9429C184.815 36.3259 184.679 36.4617 184.296 36.3506C184.235 36.2888 184.172 36.227 184.111 36.1653C183.841 35.6667 183.705 35.1479 183.703 34.6087Z" fill="#793E1B"/>
<path opacity="0.947" fill-rule="evenodd" clip-rule="evenodd" d="M152.054 35.0537C152.103 35.0537 152.128 35.0784 152.128 35.1278C152.128 35.3749 152.128 35.622 152.128 35.869C151.585 35.9272 151.041 35.989 150.497 36.0543C150.437 36.0772 150.388 36.1142 150.349 36.1655C150.034 37.7791 149.675 39.3853 149.274 40.9833C148.998 41.5607 148.701 42.1292 148.385 42.6881C148.758 40.9693 149.091 39.24 149.385 37.4997C149.534 36.8329 149.682 36.1658 149.83 35.4984C150.496 35.406 151.163 35.3195 151.831 35.239C151.951 35.2215 152.026 35.1598 152.054 35.0537Z" fill="#EFEEEE"/>
<path opacity="0.965" fill-rule="evenodd" clip-rule="evenodd" d="M185.928 37.3511C185.959 37.8707 185.737 38.2287 185.261 38.4258C184.246 38.8617 183.319 38.726 182.482 38.0182C182.326 38.7386 182.351 39.4554 182.556 40.1677C182.862 40.9771 183.244 41.7427 183.705 42.4654C183.65 42.475 183.6 42.4624 183.556 42.4283C182.276 41.1898 181.473 39.6948 181.147 37.9441C181.079 37.148 181.103 36.3574 181.222 35.5722C181.442 35.3876 181.677 35.3753 181.926 35.5352C182.042 35.7628 182.153 35.9975 182.259 36.2393C183.138 37.7884 184.361 38.159 185.928 37.3511Z" fill="#3A1904"/>
<path fill-rule="evenodd" clip-rule="evenodd" d="M180.293 35.4238C180.458 35.3999 180.594 35.4494 180.701 35.572C180.446 37.4443 180.742 39.2232 181.59 40.9087C181.702 41.2919 181.566 41.4275 181.183 41.3164C180.181 39.5227 179.848 37.6074 180.182 35.572C180.236 35.5317 180.273 35.4823 180.293 35.4238Z" fill="#7A3E1B"/>
<path fill-rule="evenodd" clip-rule="evenodd" d="M152.129 35.127C152.178 35.374 152.227 35.6211 152.277 35.8682C152.253 35.9658 152.229 36.0646 152.203 36.1646C152.823 38.9916 153.378 41.8326 153.871 44.6885C153.921 44.8375 154.02 44.9368 154.167 44.985C158.665 43.3343 163.15 41.6547 167.62 39.9448C167.655 40.0493 167.729 40.0982 167.842 40.093C167.55 40.3139 167.229 40.4992 166.879 40.6489C162.513 42.3314 158.153 44.0244 153.796 45.7262C153.67 45.7306 153.571 45.6809 153.5 45.5779C153.352 45.1339 153.204 44.6892 153.055 44.2438C152.636 42.1951 152.228 40.1442 151.832 38.0918C150.93 39.698 150.029 41.3034 149.127 42.9096C148.743 43.6308 148.409 44.372 148.126 45.1332C147.88 44.4431 147.707 43.7264 147.607 42.9837C148.089 41.1678 148.509 39.3392 148.867 37.4988C149.04 37.4988 149.214 37.4988 149.386 37.4988C149.092 39.2391 148.759 40.9684 148.386 42.6872C148.702 42.1284 148.999 41.5599 149.275 40.9825C149.676 39.3844 150.035 37.7782 150.35 36.1646C150.389 36.1133 150.438 36.0763 150.498 36.0535C151.042 35.9881 151.585 35.9263 152.129 35.8682C152.129 35.6211 152.129 35.374 152.129 35.127Z" fill="#B6B6B6"/>
<path opacity="0.988" fill-rule="evenodd" clip-rule="evenodd" d="M185.779 44.763C186.011 45.5116 185.838 46.1417 185.26 46.6531C183.704 47.6344 182.024 47.9065 180.22 47.4684C178.183 47.0748 176.491 46.0987 175.143 44.5407C174.666 43.9062 174.209 43.2643 173.772 42.6135C173.426 41.8115 173.142 40.971 172.919 40.0934C172.548 39.3233 172.424 38.508 172.549 37.6475C172.734 36.9196 173.191 36.6107 173.92 36.721C174.313 36.9507 174.572 37.2843 174.698 37.7216C175.425 41.7589 177.736 44.4154 181.629 45.6895C182.642 45.7392 183.654 45.7392 184.667 45.6895C185.074 45.4138 185.444 45.1047 185.779 44.763Z" fill="#3A1804"/>
<path opacity="0.98" fill-rule="evenodd" clip-rule="evenodd" d="M123.072 37.1293C122.966 37.1834 122.892 37.2702 122.85 37.3887C123.97 40.6486 125.118 43.898 126.297 47.1356C126.346 47.1912 126.408 47.2164 126.482 47.2097C126.291 47.5173 126.081 47.8138 125.852 48.0991C123.052 51.0476 120.075 53.7775 116.92 56.2894C116.114 56.9024 115.274 57.4583 114.4 57.9571C114.288 57.9564 114.201 57.9067 114.141 57.8089C114.071 57.6436 113.985 57.4954 113.881 57.3642C113.827 57.2745 113.802 57.1759 113.807 57.0677C115.785 55.881 117.687 54.5839 119.515 53.1764C121.099 51.9993 122.582 50.7022 123.962 49.2851C123.986 49.1865 124.011 49.0872 124.036 48.9886C123.33 45.2114 122.465 41.4809 121.442 37.7964C121.838 37.5526 122.258 37.342 122.702 37.1664C122.823 37.1301 122.946 37.1175 123.072 37.1293Z" fill="#E29E7A"/>
<path opacity="0.971" fill-rule="evenodd" clip-rule="evenodd" d="M148.868 37.5C148.51 39.3404 148.09 41.169 147.608 42.9849C147.324 41.6522 147.016 40.3181 146.681 38.9824C146.622 38.7941 146.635 38.6214 146.718 38.4636C146.709 38.5184 146.721 38.5681 146.755 38.6118C147.32 37.9773 148.024 37.6067 148.868 37.5Z" fill="#F0EFEF"/>
<path opacity="0.998" fill-rule="evenodd" clip-rule="evenodd" d="M167.84 40.093C169.974 41.2664 171.345 43.0453 171.953 45.4297C172.386 47.0574 172.547 48.7132 172.435 50.3958C172.185 51.1436 171.852 51.8596 171.435 52.5453C170.829 53.1012 170.224 53.6571 169.619 54.213C161.66 60.5658 153.679 66.8913 145.678 73.1878C145.421 73.2649 145.211 73.2026 145.048 73.0025C142.026 68.4159 138.987 63.8456 135.931 59.2902C135.824 59.3962 135.8 59.52 135.857 59.6608C136.839 61.3537 137.803 63.0585 138.748 64.7751C138.776 66.0159 138.702 67.2507 138.525 68.4811C138.138 70.85 137.768 73.2219 137.413 75.5967C137.355 76.6485 137.367 77.6987 137.45 78.7468C137.426 78.8083 137.401 78.8706 137.376 78.9321C136.213 78.3606 135.15 77.6439 134.189 76.7826C133.577 75.9532 133.083 75.0638 132.707 74.1143C132.415 72.113 132.415 70.1118 132.707 68.1105C133.45 63.3468 134.896 58.801 137.043 54.4724C137.071 54.5139 137.108 54.5384 137.154 54.5465C137.31 55.2507 137.482 55.9429 137.673 56.6219C137.722 56.8465 137.785 57.0688 137.858 57.289C141.348 53.8735 144.819 50.4269 148.272 46.9492C148.316 46.9151 148.365 46.9025 148.42 46.9121C148.826 48.6577 149.196 50.4121 149.532 52.1747C149.61 52.1858 149.684 52.1732 149.754 52.1376C153.309 48.9052 157.213 46.1628 161.465 43.9102C162.564 43.3877 163.7 42.9674 164.875 42.6502C162.854 42.9615 160.952 43.6286 159.168 44.6514C155.898 46.5326 152.81 48.6695 149.903 51.0629C149.499 49.7435 149.141 48.4093 148.828 47.0604C148.763 46.8595 148.627 46.7602 148.42 46.7639C148.255 46.2332 148.156 45.6899 148.124 45.1332C148.407 44.372 148.74 43.6308 149.124 42.9096C150.026 41.3034 150.928 39.698 151.83 38.0918C152.226 40.1442 152.633 42.1951 153.053 44.2438C153.201 44.6892 153.349 45.134 153.498 45.578C153.569 45.681 153.667 45.7306 153.794 45.7262C158.15 44.0244 162.511 42.3315 166.876 40.6489C167.226 40.4992 167.548 40.3139 167.84 40.093Z" fill="#F0F0F0"/>
<path fill-rule="evenodd" clip-rule="evenodd" d="M171.992 40.0927C172.157 40.069 172.293 40.1179 172.4 40.241C172.509 40.5923 172.632 40.9384 172.77 41.2786C172.841 41.7108 172.667 41.8345 172.251 41.6492C172.082 41.2416 171.945 40.8213 171.844 40.3892C171.862 40.2728 171.912 40.1735 171.992 40.0927Z" fill="#793E1A"/>
<path fill-rule="evenodd" clip-rule="evenodd" d="M182.073 42.0209C182.199 42.0091 182.322 42.0217 182.443 42.058C182.922 42.8081 183.527 43.4381 184.259 43.9481C184.352 44.3616 184.192 44.4973 183.777 44.3557C183.12 43.822 182.539 43.2165 182.035 42.5398C181.984 42.3597 181.995 42.187 182.073 42.0209Z" fill="#793E1B"/>
<path fill-rule="evenodd" clip-rule="evenodd" d="M148.422 46.9133C148.422 46.8636 148.422 46.8147 148.422 46.765C148.629 46.7613 148.765 46.8607 148.83 47.0615C149.142 48.4105 149.5 49.7447 149.904 51.064C152.812 48.6707 155.9 46.5338 159.169 44.6526C160.953 43.6298 162.856 42.9627 164.877 42.6514C163.702 42.9686 162.566 43.3889 161.467 43.9114C157.215 46.1639 153.311 48.9064 149.756 52.1388C149.686 52.1743 149.612 52.1869 149.534 52.1758C149.198 50.4132 148.827 48.6588 148.422 46.9133Z" fill="#B7B7B7"/>
<path fill-rule="evenodd" clip-rule="evenodd" d="M181.703 43.2067C181.836 43.1852 181.959 43.2104 182.074 43.2808C182.52 43.8878 183.051 44.4067 183.667 44.8373C183.729 45.1708 183.593 45.3065 183.259 45.245C182.576 44.7721 182.008 44.191 181.555 43.5031C181.573 43.3868 181.623 43.2874 181.703 43.2067Z" fill="#793E1A"/>
<path opacity="0.993" fill-rule="evenodd" clip-rule="evenodd" d="M135.005 47.6545C135.107 47.7086 135.218 47.7583 135.339 47.8027C135.698 48.9205 136.007 50.0567 136.265 51.2123C134.909 52.7858 133.587 54.3913 132.3 56.0301C129.735 59.3855 127.227 62.7824 124.776 66.2216C124.61 66.2068 124.474 66.1208 124.369 65.9622C123.268 64.6859 122.193 63.3888 121.145 62.0709C121.708 61.5661 122.301 61.097 122.923 60.6626C123.994 59.5916 125.069 58.5168 126.148 57.4384C127.365 55.9537 128.465 54.3846 129.446 52.7317C129.422 52.7191 129.396 52.7073 129.372 52.6947C128.542 53.6367 127.763 54.6248 127.037 55.6595C124.744 58.5005 122.063 60.885 118.995 62.8121C118.047 63.385 117.034 63.7927 115.956 64.0351C114.625 62.5112 113.328 60.9546 112.065 59.3655C111.993 59.0453 112.043 58.7488 112.213 58.4761C112.633 57.9572 113.053 57.4384 113.473 56.9195C113.508 56.8395 113.496 56.7654 113.436 56.6972C113.51 56.6905 113.572 56.7157 113.621 56.7713C113.666 56.8877 113.728 56.9862 113.807 57.0678C113.802 57.176 113.826 57.2746 113.881 57.3643C113.892 57.4658 113.88 57.5651 113.844 57.6607C113.574 57.9046 113.339 58.1766 113.14 58.4761C113.204 58.5561 113.278 58.5687 113.362 58.5131C113.724 58.3449 114.07 58.1596 114.4 57.9572C115.273 57.4584 116.113 56.9025 116.92 56.2895C120.075 53.7776 123.052 51.0477 125.851 48.0992C126.08 47.8138 126.29 47.5174 126.481 47.2098C126.633 47.1757 126.781 47.126 126.926 47.0615C126.97 47.0771 127.007 47.1015 127.037 47.1356C127.784 48.7033 128.55 50.2598 129.335 51.8052C131.216 50.4058 133.106 49.022 135.005 47.6545Z" fill="#F0F0F0"/>
<path opacity="0.988" fill-rule="evenodd" clip-rule="evenodd" d="M172.437 50.3965C172.417 50.9435 172.368 51.4868 172.289 52.0271C172.032 52.5408 171.736 53.0352 171.4 53.5095C170.153 54.6199 168.918 55.7443 167.694 56.882C164.864 59.1679 162.121 61.5649 159.466 64.0717C154.992 67.9289 150.495 71.7587 145.977 75.5603C145.705 75.61 145.433 75.61 145.161 75.5603C143.231 72.4043 141.291 69.2542 139.343 66.11C139.273 67.0521 139.175 67.9912 139.046 68.9266C138.627 71.291 138.257 73.6629 137.934 76.0421C137.884 76.9583 137.909 77.8722 138.009 78.7846C138.015 78.9706 138.078 79.1307 138.194 79.2664C143.865 81.4084 149.696 82.0014 155.686 81.0452C156.614 80.8792 157.529 80.6569 158.429 80.3782C161.142 78.3732 163.156 75.8161 164.47 72.7067C164.647 72.1797 164.845 71.6609 165.063 71.1502C165.988 68.1646 166.902 65.1746 167.805 62.1816C168.603 60.3375 169.517 58.5586 170.547 56.845C170.796 56.4855 171.056 56.1393 171.326 55.8073C170.693 57.5424 170.038 59.2724 169.361 60.9957C167.997 65.8847 166.737 70.8011 165.581 75.7456C165.171 77.3733 164.504 78.8802 163.58 80.267C162.565 81.4855 161.292 82.326 159.763 82.7871C158.908 82.9902 158.043 83.1384 157.169 83.2318C151.508 83.2933 145.899 82.7871 140.343 81.7123C139.022 81.3951 137.737 80.9756 136.489 80.4523C136.126 80.2344 135.781 79.9994 135.451 79.7481C134.652 79.1174 134.047 78.3265 133.635 77.3763C133.169 76.3334 132.859 75.2468 132.709 74.115C133.085 75.0645 133.579 75.9539 134.191 76.7833C135.153 77.6446 136.215 78.3613 137.379 78.9328C137.403 78.8713 137.428 78.809 137.453 78.7475C137.37 77.6995 137.357 76.6492 137.416 75.5974C137.77 73.2226 138.141 70.8507 138.527 68.4818C138.704 67.2514 138.778 66.0166 138.75 64.7758C137.805 63.0592 136.841 61.3544 135.859 59.6615C135.802 59.5207 135.826 59.3969 135.933 59.2909C138.989 63.8464 142.028 68.4166 145.05 73.0032C145.213 73.2033 145.424 73.2656 145.68 73.1885C153.681 66.892 161.662 60.5665 169.621 54.2137C170.226 53.6578 170.831 53.1019 171.437 52.546C171.854 51.8604 172.188 51.1444 172.437 50.3965Z" fill="#B4B4B4"/>
<path opacity="0.991" fill-rule="evenodd" clip-rule="evenodd" d="M136.266 51.2109C136.551 52.3272 136.848 53.439 137.155 54.5464C137.109 54.5382 137.072 54.5137 137.044 54.4722C134.897 58.8009 133.452 63.3467 132.708 68.1104C132.72 67.9599 132.708 67.8117 132.671 67.6657C129.386 68.919 126.088 70.142 122.776 71.3346C122.504 71.3843 122.233 71.3843 121.961 71.3346C119.916 68.9316 117.915 66.4983 115.957 64.0338C117.035 63.7914 118.048 63.3837 118.996 62.8108C122.064 60.8836 124.745 58.4992 127.038 55.6582C127.764 54.6234 128.543 53.6354 129.373 52.6933C129.397 52.7059 129.422 52.7178 129.447 52.7304C128.466 54.3833 127.366 55.9524 126.149 57.437C125.07 58.5155 123.995 59.5902 122.924 60.6613C122.302 61.0956 121.709 61.5648 121.145 62.0696C122.194 63.3874 123.269 64.6845 124.37 65.9609C124.475 66.1195 124.611 66.2055 124.777 66.2203C127.228 62.7811 129.736 59.3842 132.301 56.0288C133.588 54.39 134.91 52.7845 136.266 51.2109Z" fill="#B4B4B4"/>
<path fill-rule="evenodd" clip-rule="evenodd" d="M172.29 52.0264C172.147 53.3405 171.826 54.6006 171.327 55.8065C171.057 56.1386 170.798 56.4847 170.549 56.8442C169.518 58.5579 168.604 60.3367 167.806 62.1809C166.903 65.1738 165.989 68.1638 165.064 71.1494C164.846 71.6601 164.648 72.1789 164.471 72.7059C163.157 75.8153 161.143 78.3724 158.43 80.3774C157.53 80.6561 156.615 80.8784 155.687 81.0445C149.697 82.0006 143.866 81.4077 138.195 79.2656C138.079 79.1299 138.016 78.9698 138.01 78.7838C137.91 77.8714 137.885 76.9575 137.936 76.0414C138.258 73.6621 138.629 71.2902 139.047 68.9258C139.176 67.9904 139.274 67.0513 139.344 66.1092C141.292 69.2534 143.232 72.4035 145.162 75.5596C145.434 75.6092 145.706 75.6092 145.978 75.5596C150.496 71.7579 154.993 67.9281 159.468 64.0709C162.123 61.5642 164.865 59.1671 167.695 56.8812C168.919 55.7435 170.154 54.6191 171.401 53.5088C171.737 53.0344 172.033 52.54 172.29 52.0264Z" fill="#F0F0F0"/>
<path fill-rule="evenodd" clip-rule="evenodd" d="M150.126 52.4709C150.181 52.4613 150.231 52.4739 150.275 52.508C148.232 55.6284 146.379 58.8653 144.715 62.2177C145.278 63.4548 145.982 64.6037 146.828 65.6643C147.076 65.9252 147.336 66.1721 147.606 66.4055C152.683 63.2124 157.773 60.0371 162.875 56.8811C165.434 55.4291 168.003 54.0208 170.583 52.6562C163.368 58.4635 156.129 64.2449 148.866 70.0004C147.762 70.8831 146.637 71.7355 145.494 72.5575C143.879 70.2287 142.31 67.8694 140.787 65.479C143.615 61.4647 146.444 57.4503 149.274 53.4345C149.546 53.1009 149.83 52.78 150.126 52.4709Z" fill="#B4B4B4"/>
<path fill-rule="evenodd" clip-rule="evenodd" d="M140.565 55.3624C140.639 55.3557 140.701 55.3809 140.75 55.4365C141.383 57.2643 142.384 58.8453 143.752 60.1802C142.669 61.7575 141.558 63.314 140.417 64.8498C139.136 63.0427 137.901 61.2016 136.711 59.3278C137.983 57.9944 139.267 56.6721 140.565 55.3624Z" fill="#B4B4B4"/>
<path fill-rule="evenodd" clip-rule="evenodd" d="M116.921 56.9932C117.033 56.9939 117.12 57.0436 117.18 57.1414C118.216 58.4859 119.266 59.8201 120.33 61.1439C119.148 62.0934 117.839 62.8346 116.402 63.3675C115.214 62.0556 114.077 60.697 112.992 59.2909C114.433 58.732 115.743 57.9656 116.921 56.9932Z" fill="#B4B4B4"/>
<path fill-rule="evenodd" clip-rule="evenodd" d="M113.882 57.3633C113.985 57.4945 114.072 57.6427 114.141 57.808C114.202 57.9058 114.288 57.9555 114.401 57.9562C114.071 58.1586 113.725 58.3439 113.363 58.5121C113.279 58.5677 113.205 58.5551 113.141 58.4751C113.34 58.1756 113.575 57.9036 113.845 57.6598C113.881 57.5641 113.893 57.4648 113.882 57.3633Z" fill="#BCB8B7"/>
<path fill-rule="evenodd" clip-rule="evenodd" d="M140.046 58.3281C141.284 58.3674 141.741 58.9848 141.418 60.1811C141.024 60.8378 140.468 61.0231 139.75 60.737C139.088 60.3168 138.903 59.7364 139.194 58.9952C139.432 58.6928 139.717 58.4704 140.046 58.3281Z" fill="#9F9F9F"/>
<path fill-rule="evenodd" clip-rule="evenodd" d="M163.024 77.8212C163.475 77.8056 163.587 78.0028 163.358 78.4141C162.92 79.053 162.439 79.6586 161.912 80.2301C161.579 80.2916 161.443 80.156 161.505 79.8224C162.084 79.2065 162.59 78.5394 163.024 77.8212Z" fill="#EDEDED"/>
<path fill-rule="evenodd" clip-rule="evenodd" d="M135.451 79.748C135.78 79.9993 136.126 80.2343 136.489 80.4522C137.737 80.9755 139.022 81.395 140.343 81.7122C145.899 82.787 151.508 83.2932 157.168 83.2317C156.688 83.3051 156.194 83.3295 155.686 83.3058C161.422 122.704 167.104 162.099 172.734 201.491C172.749 201.652 172.823 201.763 172.956 201.824C172.47 202.015 171.975 202.188 171.474 202.343C170.156 202.605 168.847 202.877 167.545 203.158C166.223 203.361 164.913 203.584 163.617 203.825C162.817 203.877 162.026 203.976 161.245 204.122C159.923 204.229 158.614 204.352 157.317 204.493C157.218 204.493 157.168 204.542 157.168 204.641C154.116 204.861 151.077 204.836 148.052 204.567C148.153 204.579 148.252 204.566 148.348 204.53C145.284 169.245 142.184 133.952 139.046 98.6487C138.72 97.8534 138.14 97.3472 137.304 97.1293C137.034 97.0759 136.762 97.0388 136.489 97.0181C136.115 91.2671 135.768 85.5109 135.451 79.748Z" fill="#1E1F26"/>
<path fill-rule="evenodd" clip-rule="evenodd" d="M160.799 80.3418C161.287 80.4018 161.361 80.6116 161.021 80.9718C160.638 81.083 160.503 80.9474 160.614 80.5642C160.691 80.4997 160.753 80.4256 160.799 80.3418Z" fill="#ECEBEB"/>
<path fill-rule="evenodd" clip-rule="evenodd" d="M159.837 80.9342C160.221 80.8609 160.356 81.0091 160.245 81.379C159.398 81.8674 158.496 82.2254 157.539 82.4537C157.14 82.5263 156.745 82.6123 156.353 82.7131C156.032 82.6012 155.983 82.4159 156.205 82.1572C157.118 81.9971 158.008 81.7496 158.873 81.416C159.219 81.2922 159.541 81.1314 159.837 80.9342Z" fill="#EEEEEE"/>
<path opacity="0.997" fill-rule="evenodd" clip-rule="evenodd" d="M159.764 82.7871C159.698 82.8434 159.648 82.9176 159.616 83.0095C160.551 88.3447 161.477 93.6813 162.395 99.0195C163.02 101.8 163.589 104.591 164.1 107.395C164.203 107.823 164.327 108.243 164.471 108.655C165.925 116.79 167.396 124.919 168.881 133.041C168.788 133.102 168.739 133.202 168.733 133.337C171.348 148.252 174.053 163.151 176.849 178.032C176.931 178.345 177.055 178.642 177.219 178.921C179.945 183.016 182.65 187.117 185.336 191.225C183.696 192.357 182.177 193.642 180.777 195.079C180.728 195.154 180.728 195.228 180.777 195.302C181.416 196.001 181.948 196.767 182.371 197.6C182.194 197.421 182.034 197.223 181.889 197.007C181.513 197.312 181.105 197.571 180.666 197.785C180.568 198.072 180.457 198.356 180.333 198.637C180.004 198.954 179.646 199.225 179.258 199.453C179.107 199.441 178.959 199.453 178.813 199.49C178.368 199.736 177.924 199.984 177.479 200.231C176.764 200.521 176.073 200.83 175.404 201.157C174.586 201.37 173.771 201.592 172.958 201.824C172.824 201.764 172.75 201.652 172.735 201.491C167.106 162.099 161.424 122.704 155.688 83.306C156.195 83.3297 156.69 83.3052 157.17 83.2318C158.044 83.1384 158.909 82.9902 159.764 82.7871Z" fill="#17181D"/>
<path opacity="0.991" fill-rule="evenodd" clip-rule="evenodd" d="M136.49 97.0186C136.764 97.0393 137.035 97.0764 137.306 97.1297C138.141 97.3476 138.721 97.8539 139.047 98.6492C142.185 133.952 145.285 169.245 148.349 204.53C148.254 204.566 148.155 204.579 148.053 204.567C146.422 204.469 144.815 204.209 143.235 203.789C143.1 203.752 143.013 203.665 142.976 203.529C140.81 168.018 138.649 132.514 136.49 97.0186Z" fill="#2A2B32"/>
<path opacity="0.996" fill-rule="evenodd" clip-rule="evenodd" d="M168.881 133.041C168.858 133.408 168.982 133.704 169.251 133.93C179.289 150.51 189.295 167.1 199.27 183.702C199.102 184.363 198.806 184.956 198.381 185.481C198.472 185.609 198.547 185.745 198.603 185.889C198.512 185.85 198.426 185.801 198.343 185.741C198.063 185.336 197.754 184.953 197.417 184.592C197.036 184.632 196.665 184.73 196.305 184.888C192.45 186.679 188.794 188.791 185.335 191.225C182.65 187.118 179.945 183.017 177.219 178.921C177.055 178.642 176.931 178.346 176.849 178.032C174.053 163.151 171.347 148.253 168.732 133.337C168.739 133.202 168.788 133.103 168.881 133.041Z" fill="#1D1E25"/>
<path opacity="0.991" fill-rule="evenodd" clip-rule="evenodd" d="M198.601 185.888C198.717 185.995 198.816 186.118 198.898 186.259C196.834 186.687 194.832 187.367 192.894 188.297C190.556 189.701 188.308 191.232 186.149 192.892C185.596 193.347 185.065 193.828 184.556 194.338C184.5 194.422 184.513 194.496 184.593 194.56C186.49 197.298 188.417 200.015 190.374 202.713C189.657 204 189.101 205.359 188.706 206.79C188.646 206.888 188.56 206.937 188.447 206.938C188.566 206.726 188.664 206.504 188.743 206.271C188.727 206.164 188.69 206.066 188.632 205.975C186.527 203.191 184.439 200.398 182.369 197.599C181.946 196.767 181.414 196 180.776 195.301C180.726 195.227 180.726 195.153 180.776 195.079C182.175 193.642 183.694 192.356 185.334 191.225C188.792 188.79 192.449 186.678 196.304 184.887C196.664 184.729 197.035 184.631 197.416 184.591C197.753 184.953 198.061 185.335 198.342 185.74C198.424 185.8 198.511 185.849 198.601 185.888Z" fill="#E09C79"/>
<path opacity="0.996" fill-rule="evenodd" clip-rule="evenodd" d="M198.9 186.259C200.828 188.682 202.73 191.128 204.607 193.597C203.676 193.541 202.762 193.627 201.865 193.856C197.036 195.51 193.206 198.463 190.376 202.714C188.419 200.016 186.492 197.298 184.595 194.56C184.514 194.497 184.502 194.422 184.557 194.338C185.067 193.829 185.597 193.347 186.151 192.893C188.309 191.232 190.558 189.701 192.896 188.297C194.834 187.367 196.836 186.687 198.9 186.259Z" fill="#EFC49F"/>
<path opacity="0.998" fill-rule="evenodd" clip-rule="evenodd" d="M204.605 193.596C208.465 198.573 212.344 203.539 216.242 208.495C216.237 208.535 216.213 208.56 216.168 208.569C215.933 208.478 215.71 208.367 215.5 208.235C214.661 208.099 213.845 208.198 213.054 208.532C211.566 209.214 210.158 210.029 208.83 210.978C203.834 214.811 199.585 219.333 196.081 224.542C192.06 225.439 187.983 225.636 183.851 225.135C182.054 223.208 181.029 220.923 180.775 218.279C180.669 216.599 180.583 214.919 180.516 213.238C181.359 212.457 182.297 211.803 183.332 211.274C184.864 210.291 186.31 209.192 187.668 207.976C187.946 207.641 188.206 207.295 188.447 206.938C188.559 206.937 188.645 206.888 188.706 206.79C189.101 205.359 189.657 204 190.374 202.713C193.204 198.462 197.033 195.51 201.862 193.856C202.76 193.627 203.674 193.541 204.605 193.596Z" fill="#1E1F26"/>
<path fill-rule="evenodd" clip-rule="evenodd" d="M203.271 194.189C203.618 194.177 203.964 194.189 204.308 194.226C204.468 194.38 204.492 194.553 204.383 194.745C203.241 194.792 202.129 195.002 201.047 195.375C200.654 195.177 200.654 194.968 201.047 194.745C201.802 194.573 202.543 194.387 203.271 194.189Z" fill="#E4E3E4"/>
<path fill-rule="evenodd" clip-rule="evenodd" d="M199.787 195.227C200.169 195.201 200.305 195.373 200.195 195.746C199.964 196.05 199.779 196.025 199.639 195.672C199.674 195.516 199.723 195.368 199.787 195.227Z" fill="#DFDEDE"/>
<path fill-rule="evenodd" clip-rule="evenodd" d="M204.68 195.524C204.813 195.503 204.936 195.528 205.051 195.598C205.607 196.364 206.163 197.13 206.718 197.896C206.805 198.254 206.669 198.39 206.311 198.304C205.755 197.55 205.199 196.797 204.643 196.043C204.602 195.866 204.614 195.693 204.68 195.524Z" fill="#E6E6E6"/>
<path fill-rule="evenodd" clip-rule="evenodd" d="M175.401 201.157C174.833 201.411 174.24 201.621 173.622 201.787C172.915 202.01 172.198 202.196 171.473 202.343C171.974 202.188 172.469 202.016 172.955 201.824C173.768 201.592 174.583 201.37 175.401 201.157Z" fill="#986C59"/>
<path opacity="0.995" fill-rule="evenodd" clip-rule="evenodd" d="M179.256 199.452C179.17 199.509 179.096 199.583 179.033 199.674C179.207 201.9 179.38 204.123 179.552 206.345C179.48 206.368 179.431 206.418 179.404 206.493C179.498 207.294 179.56 208.11 179.589 208.939C179.618 208.981 179.655 209.005 179.701 209.013C179.781 210.1 179.855 211.186 179.923 212.275C179.455 212.679 178.936 213.013 178.366 213.275C177.583 213.615 176.768 213.874 175.92 214.053C175.573 211.336 175.264 208.618 174.994 205.9C174.809 205.022 174.623 204.145 174.438 203.269C171.91 203.943 169.34 204.486 166.729 204.9C163.694 205.269 160.655 205.553 157.613 205.752C157.563 205.429 157.502 205.109 157.427 204.788C157.375 204.679 157.288 204.63 157.168 204.64C157.168 204.542 157.218 204.492 157.316 204.492C158.553 204.444 159.788 204.37 161.022 204.27C161.104 204.219 161.178 204.17 161.245 204.121C162.026 203.975 162.817 203.877 163.616 203.825C164.759 203.709 165.895 203.548 167.026 203.343C167.225 203.331 167.398 203.27 167.545 203.158C168.846 202.876 170.155 202.604 171.473 202.342C172.199 202.195 172.916 202.01 173.623 201.786C174.24 201.62 174.833 201.411 175.402 201.156C176.071 200.829 176.762 200.521 177.477 200.23C177.922 199.983 178.366 199.736 178.811 199.489C178.957 199.452 179.105 199.44 179.256 199.452Z" fill="#E19C79"/>
<path opacity="0.997" fill-rule="evenodd" clip-rule="evenodd" d="M175.919 214.054C175.7 214.119 175.478 214.193 175.252 214.276C174.052 214.522 172.842 214.694 171.62 214.795C169.692 214.807 167.765 214.783 165.839 214.721C163.957 214.56 162.178 214.053 160.502 213.202C160.243 212.986 159.971 212.788 159.687 212.609C159.421 212.307 159.175 211.999 158.945 211.682C158.524 209.699 158.079 207.722 157.611 205.753C160.654 205.553 163.693 205.269 166.728 204.9C169.339 204.487 171.908 203.943 174.437 203.27C174.622 204.146 174.807 205.022 174.993 205.901C175.263 208.619 175.571 211.337 175.919 214.054Z" fill="#EFC49F"/>
<path fill-rule="evenodd" clip-rule="evenodd" d="M167.546 203.159C167.399 203.271 167.226 203.333 167.027 203.344C165.896 203.55 164.759 203.711 163.617 203.826C164.914 203.585 166.223 203.362 167.546 203.159Z" fill="#866152"/>
<path fill-rule="evenodd" clip-rule="evenodd" d="M161.247 204.122C161.18 204.171 161.106 204.22 161.024 204.27C159.79 204.37 158.555 204.444 157.318 204.493C158.615 204.353 159.925 204.229 161.247 204.122Z" fill="#AE7A63"/>
<path opacity="0.127" fill-rule="evenodd" clip-rule="evenodd" d="M179.554 206.346C179.588 207.236 179.637 208.125 179.703 209.014C179.657 209.006 179.62 208.981 179.592 208.94C179.562 208.111 179.5 207.295 179.406 206.494C179.433 206.418 179.482 206.369 179.554 206.346Z" fill="#956851"/>
<path opacity="0.991" fill-rule="evenodd" clip-rule="evenodd" d="M216.242 208.494C216.482 208.705 216.618 208.977 216.649 209.31C216.721 210.455 216.499 211.542 215.982 212.571C215.193 214.25 214.254 215.832 213.166 217.315C211.839 219.126 210.406 220.855 208.867 222.503C207.813 223.557 206.763 224.607 205.717 225.653C202.487 226.374 199.25 227.065 196.007 227.729C193.348 228.202 190.667 228.487 187.965 228.581C186.222 228.575 184.505 228.365 182.814 227.951C182.174 227.766 181.556 227.532 180.961 227.247C180.8 226.629 180.702 225.999 180.664 225.357C180.488 222.07 180.253 218.772 179.96 215.462C179.899 214.831 179.911 214.214 179.997 213.609C179.992 213.641 180.004 213.666 180.034 213.683C180.185 213.519 180.345 213.371 180.516 213.238C180.583 214.919 180.669 216.599 180.775 218.278C181.029 220.923 182.055 223.208 183.851 225.134C187.983 225.636 192.06 225.438 196.081 224.541C199.585 219.332 203.834 214.811 208.83 210.977C210.158 210.029 211.566 209.213 213.055 208.531C213.846 208.198 214.661 208.099 215.501 208.235C215.71 208.367 215.933 208.478 216.168 208.569C216.213 208.56 216.237 208.534 216.242 208.494Z" fill="#16171C"/>
<path opacity="0.998" fill-rule="evenodd" clip-rule="evenodd" d="M158.945 211.682C159.174 211.998 159.421 212.306 159.687 212.608C159.971 212.788 160.243 212.985 160.502 213.201C162.178 214.053 163.957 214.559 165.839 214.721C166.366 214.827 166.91 214.89 167.469 214.906C168.581 214.943 169.693 214.956 170.805 214.943C172.28 214.898 173.738 214.712 175.178 214.387C175.219 214.359 175.244 214.322 175.252 214.276C175.478 214.192 175.7 214.118 175.919 214.053C176.766 213.874 177.582 213.615 178.365 213.275C178.935 213.013 179.454 212.679 179.922 212.275C179.97 212.718 179.996 213.163 179.996 213.609C179.91 214.214 179.898 214.831 179.959 215.462C180.252 218.772 180.486 222.07 180.663 225.357C180.701 225.999 180.799 226.629 180.959 227.247C180.984 227.84 181.009 228.433 181.033 229.026C181.033 229.1 181.033 229.174 181.033 229.248C175.892 230.847 170.642 231.91 165.283 232.435C161.039 232.763 156.79 232.96 152.534 233.028C148.038 232.988 143.554 232.58 139.081 231.805C138.23 231.654 137.39 231.457 136.561 231.212C135.726 230.905 134.885 230.621 134.041 230.36C134.129 226.727 135.402 223.589 137.858 220.947C141.606 216.879 146.214 214.322 151.682 213.275C154.126 212.755 156.548 212.223 158.945 211.682Z" fill="#1E1F26"/>
<path fill-rule="evenodd" clip-rule="evenodd" d="M175.254 214.276C175.246 214.322 175.221 214.359 175.18 214.388C173.74 214.713 172.282 214.898 170.807 214.943C171.079 214.894 171.35 214.845 171.622 214.795C172.843 214.694 174.054 214.522 175.254 214.276Z" fill="#524844"/>
<path opacity="0.996" fill-rule="evenodd" clip-rule="evenodd" d="M165.84 214.721C167.766 214.782 169.693 214.807 171.621 214.795C171.349 214.844 171.078 214.893 170.806 214.943C169.694 214.956 168.582 214.943 167.47 214.906C166.911 214.89 166.368 214.827 165.84 214.721Z" fill="#C5A286"/>
<path fill-rule="evenodd" clip-rule="evenodd" d="M137.971 222.801C138.415 222.813 138.514 222.998 138.268 223.357C137.816 223.368 137.717 223.183 137.971 222.801Z" fill="#DCDCDD"/>
<path fill-rule="evenodd" clip-rule="evenodd" d="M137.379 223.615C137.748 223.602 137.885 223.775 137.786 224.134C136.819 225.754 136.276 227.508 136.156 229.396C135.781 229.642 135.595 229.53 135.6 229.063C135.771 227.104 136.364 225.288 137.379 223.615Z" fill="#E5E5E5"/>
<path opacity="0.985" fill-rule="evenodd" clip-rule="evenodd" d="M181.035 229.026C181.133 229.89 181.207 230.767 181.257 231.658C181.254 231.847 181.228 232.033 181.183 232.214C178.99 233.064 176.742 233.743 174.438 234.252C164.521 236.476 154.515 236.995 144.42 235.808C140.9 235.349 137.54 234.36 134.339 232.844C134.231 232.675 134.169 232.49 134.154 232.288C134.069 231.648 134.032 231.005 134.043 230.361C134.887 230.621 135.727 230.905 136.563 231.213C137.391 231.458 138.232 231.655 139.083 231.806C143.555 232.58 148.04 232.988 152.536 233.029C156.792 232.961 161.041 232.764 165.284 232.436C170.643 231.91 175.894 230.848 181.035 229.249C181.035 229.175 181.035 229.1 181.035 229.026Z" fill="#16171C"/>
</svg>
