<svg width="529" height="543" viewBox="0 0 529 543" fill="none" xmlns="http://www.w3.org/2000/svg">
<path opacity="0.996" fill-rule="evenodd" clip-rule="evenodd" d="M151.894 61.546C151.474 61.7967 151.114 62.1331 150.812 62.5552C145.589 69.7824 140.543 77.1349 135.675 84.6127C135.046 85.5832 134.35 86.4962 133.585 87.3518C129.365 80.4654 124.776 73.8338 119.817 67.4569C117.81 64.9686 115.695 62.5657 113.473 60.2485C109.749 56.5243 106.025 52.7999 102.3 49.0756C98.0906 45.5291 93.2851 43.1263 87.8837 41.8673C84.9456 41.1374 81.9661 40.6567 78.9454 40.4256C77.5344 40.1886 76.309 39.588 75.2691 38.6236C74.8659 37.9389 74.7938 37.2181 75.0529 36.4611C75.3525 36.0933 75.7368 35.829 76.2062 35.6681C78.3132 34.8431 80.4998 34.4827 82.7658 34.5869C84.1364 34.6219 85.506 34.6699 86.8745 34.7311C88.0662 34.9221 89.3157 35.1383 90.6229 35.3798C91.0554 35.476 91.4879 35.476 91.9204 35.3798C92.102 35.1183 92.102 34.854 91.9204 34.5869C90.8384 33.5882 89.5889 32.8433 88.172 32.3523C85.3062 31.4771 82.471 30.5161 79.6662 29.469C78.8256 29.0248 78.0086 28.5441 77.2154 28.0273C76.6508 27.3913 76.0742 26.7905 75.4854 26.2252C76.7195 24.7423 78.3053 23.8534 80.2429 23.5581C82.9727 23.1708 85.7118 23.0987 88.4604 23.3419C90.7115 23.7786 92.9461 24.3552 95.1641 25.0719C95.7626 25.079 95.9547 24.7906 95.7408 24.2069C94.8546 22.8418 93.6292 21.9047 92.0645 21.3957C89.3153 20.5524 86.5761 19.6874 83.847 18.8007C81.5415 18.069 79.5471 16.8436 77.8641 15.1244C77.7015 14.8584 77.6294 14.5701 77.6479 14.2594C79.3005 12.8662 81.2228 12.0733 83.4145 11.8807C84.9042 11.7845 86.394 11.7845 87.8837 11.8807C90.3497 12.1475 92.8005 12.5079 95.2362 12.9619C95.2855 13.0827 95.3815 13.1309 95.5245 13.1061C97.4575 13.9526 99.4038 14.8176 101.363 15.7011C101.759 15.7138 101.927 15.5216 101.868 15.1244C101.483 13.7548 100.666 12.7216 99.417 12.0248C96.6809 10.7537 94.0859 9.26403 91.632 7.55566C90.8326 6.99658 90.1839 6.29983 89.6858 5.46525C89.6056 5.12141 89.6296 4.78507 89.7579 4.45608C90.306 3.86846 90.9788 3.46003 91.7762 3.23066C94.0651 2.61969 96.3718 2.57168 98.6962 3.0865C106.195 4.87705 112.802 8.31297 118.519 13.3944C118.574 13.3142 118.646 13.2662 118.735 13.2502C118.591 14.1661 118.422 15.0791 118.231 15.9894C118.139 17.0499 118.163 18.1071 118.303 19.1611C118.67 19.2182 118.982 19.122 119.24 18.8727C120.516 14.4001 122.342 10.1711 124.718 6.18608C125.528 5.03952 126.393 3.9342 127.313 2.87025C128.344 1.81279 129.474 0.899779 130.701 0.131083C134.24 -0.342792 135.898 1.19503 135.675 4.74441C134.51 7.41106 133.549 10.1502 132.792 12.9619C131.382 18.6932 131.574 24.3639 133.368 29.9736C133.713 30.8079 134.098 31.6248 134.522 32.4244C140.35 42.1118 146.141 51.819 151.894 61.546Z" fill="#EFD1BD"/>
<path opacity="0.996" fill-rule="evenodd" clip-rule="evenodd" d="M307.018 0.130913C309.615 1.792 311.706 3.9545 313.289 6.61841C315.533 10.4838 317.263 14.5685 318.479 18.8726C318.731 19.1249 319.044 19.221 319.416 19.1609C319.69 17.2542 319.546 15.38 318.983 13.5384C319.001 13.4509 319.05 13.4029 319.128 13.3942C323.999 9.2506 329.477 6.10301 335.563 3.95133C338.328 3.04135 341.163 2.65686 344.068 2.79799C345.755 2.94562 347.197 3.59437 348.393 4.74424C347.92 5.89556 347.152 6.83264 346.087 7.55549C343.744 9.13556 341.293 10.5291 338.734 11.7363C337.277 12.4487 336.315 13.5781 335.851 15.1242C335.852 15.4655 336.021 15.6577 336.355 15.7009C338.283 14.7728 340.229 13.9078 342.194 13.1059C342.337 13.1307 342.434 13.0826 342.483 12.9617C344.919 12.5078 347.37 12.1473 349.835 11.8805C353.145 11.4105 356.268 11.939 359.206 13.4663C359.511 13.6176 359.751 13.8338 359.927 14.1151C360.139 14.465 360.116 14.8013 359.855 15.1242C358.365 16.6602 356.612 17.7896 354.593 18.5122C351.553 19.4518 348.526 20.413 345.51 21.3955C344.031 21.9623 342.853 22.8994 341.978 24.2067C341.765 24.7905 341.956 25.0788 342.555 25.0717C343.89 24.7179 345.21 24.3095 346.519 23.8463C347.427 23.6468 348.341 23.4785 349.258 23.3417C352.256 23.0636 355.235 23.1837 358.197 23.7022C359.784 24.0613 361.081 24.8542 362.089 26.0809C361.662 26.7167 361.181 27.3174 360.648 27.883C359.608 28.6192 358.502 29.2439 357.332 29.7571C353.999 30.7399 350.73 31.8933 347.528 33.2171C346.891 33.5649 346.339 34.0213 345.87 34.5867C345.798 34.8712 345.775 35.1595 345.798 35.4517C347.484 35.2299 349.166 34.9895 350.844 34.7309C353.394 34.5319 355.942 34.556 358.485 34.803C360.153 35.014 361.642 35.6148 362.954 36.6051C362.813 36.6499 362.718 36.7461 362.666 36.8934C362.803 37.1181 362.898 37.3585 362.954 37.6142C362.788 37.9454 362.62 38.2817 362.45 38.6234C361.207 39.7348 359.741 40.3355 358.053 40.4255C351.51 40.9554 345.36 42.7814 339.599 45.9038C338.212 46.8575 336.867 47.8666 335.563 48.9313C331.742 52.7517 327.922 56.5721 324.101 60.3925C316.484 68.7098 309.852 77.7443 304.206 87.4959C300.194 81.7792 296.254 76.0126 292.385 70.1959C290.702 67.8412 289.021 65.4864 287.339 63.1317C286.902 62.5754 286.445 62.0467 285.969 61.5459C291.732 51.6549 297.57 41.8036 303.485 31.9917C305.644 27.2109 306.364 22.2132 305.648 16.9984C305.122 12.8724 303.968 8.93185 302.188 5.17674C301.541 2.36059 302.622 0.65467 305.432 0.0588298C305.968 -0.0389151 306.497 -0.0148393 307.018 0.130913Z" fill="#F0D1BD"/>
<path opacity="0.95" fill-rule="evenodd" clip-rule="evenodd" d="M307.019 0.130127C307.947 0.255696 308.812 0.567961 309.614 1.06721C312.447 3.27584 314.826 5.89477 316.75 8.92429C317.621 10.3768 318.414 11.8664 319.129 13.3935C319.051 13.4021 319.002 13.4501 318.985 13.5376C319.547 15.3792 319.691 17.2534 319.417 19.1601C319.045 19.2202 318.733 19.1241 318.48 18.8718C317.265 14.5677 315.535 10.483 313.29 6.61762C311.707 3.95371 309.617 1.79121 307.019 0.130127Z" fill="#DBB29E"/>
<path opacity="0.956" fill-rule="evenodd" clip-rule="evenodd" d="M130.704 0.130127C129.477 0.898823 128.347 1.81183 127.316 2.86929C126.396 3.93324 125.531 5.03857 124.721 6.18512C122.345 10.1702 120.518 14.3992 119.243 18.8718C118.985 19.121 118.673 19.2172 118.306 19.1601C118.166 18.1061 118.142 17.0489 118.234 15.9885C118.425 15.0782 118.594 14.1652 118.738 13.2493C120.859 8.27035 124.079 4.1616 128.397 0.923043C129.127 0.533505 129.896 0.269104 130.704 0.130127Z" fill="#DBB29E"/>
<path opacity="0.981" fill-rule="evenodd" clip-rule="evenodd" d="M348.392 4.74365C349.519 6.11122 349.688 7.60089 348.897 9.21282C348.53 9.62686 348.123 9.98728 347.671 10.2941C345.91 11.1506 344.18 12.0396 342.481 12.9611C342.339 12.9364 342.242 12.9845 342.193 13.1053C340.228 13.9072 338.282 14.7722 336.354 15.7003C336.02 15.6571 335.851 15.4649 335.85 15.1236C336.314 13.5775 337.275 12.4481 338.733 11.7357C341.292 10.5285 343.743 9.13497 346.085 7.5549C347.151 6.83205 347.919 5.89497 348.392 4.74365Z" fill="#DAB29D"/>
<path opacity="0.982" fill-rule="evenodd" clip-rule="evenodd" d="M89.7586 4.45703C89.6302 4.78602 89.6063 5.12236 89.6865 5.4662C90.1846 6.30078 90.8333 6.99753 91.6327 7.55661C94.0866 9.26499 96.6816 10.7547 99.4177 12.0258C100.666 12.7225 101.483 13.7558 101.869 15.1254C101.928 15.5225 101.76 15.7147 101.364 15.702C99.4045 14.8186 97.4582 13.9536 95.5252 13.107C95.4759 12.9862 95.3799 12.9381 95.2369 12.9629C93.3006 11.9704 91.3784 10.9373 89.4702 9.86328C88.1433 8.43516 87.9751 6.87341 88.9656 5.17786C89.2113 4.90784 89.4756 4.66751 89.7586 4.45703Z" fill="#DAB29E"/>
<path opacity="0.99" fill-rule="evenodd" clip-rule="evenodd" d="M359.927 14.115C361.589 15.4984 361.781 17.0603 360.504 18.8004C359.535 19.5257 358.477 20.1024 357.332 20.5304C354.64 21.5156 351.949 22.4527 349.259 23.3417C348.342 23.4785 347.428 23.6467 346.52 23.8462C345.211 24.3094 343.89 24.7179 342.555 25.0716C341.957 25.0787 341.765 24.7904 341.978 24.2066C342.853 22.8993 344.031 21.9623 345.51 21.3954C348.526 20.4129 351.554 19.4517 354.593 18.5121C356.613 17.7895 358.366 16.6601 359.855 15.1242C360.116 14.8012 360.139 14.4649 359.927 14.115Z" fill="#DAB29D"/>
<path opacity="0.988" fill-rule="evenodd" clip-rule="evenodd" d="M77.6497 14.2595C77.6312 14.5702 77.7033 14.8585 77.866 15.1245C79.549 16.8437 81.5434 18.0691 83.8489 18.8008C86.5779 19.6875 89.3171 20.5525 92.0664 21.3958C93.631 21.9048 94.8564 22.8419 95.7426 24.207C95.9565 24.7907 95.7644 25.0791 95.1659 25.072C92.9479 24.3554 90.7134 23.7787 88.4622 23.342C86.0216 22.5204 83.5708 21.6793 81.1097 20.8191C79.7488 20.2589 78.4513 19.586 77.2172 18.8008C75.9893 17.1612 76.1335 15.6474 77.6497 14.2595Z" fill="#DAB29D"/>
<path opacity="0.984" fill-rule="evenodd" clip-rule="evenodd" d="M75.4853 26.2246C76.074 26.7899 76.6507 27.3906 77.2153 28.0267C78.0085 28.5435 78.8255 29.0242 79.6661 29.4684C82.4709 30.5154 85.306 31.4765 88.1719 32.3517C89.5888 32.8427 90.8383 33.5876 91.9203 34.5863C92.1019 34.8534 92.1019 35.1177 91.9203 35.3792C91.4878 35.4753 91.0553 35.4753 90.6228 35.3792C89.3156 35.1377 88.0661 34.9215 86.8744 34.7304C84.4213 33.8884 81.9705 32.9993 79.5219 32.0634C77.9648 31.5128 76.5952 30.6719 75.4132 29.5404C74.9181 28.4195 74.9422 27.3142 75.4853 26.2246Z" fill="#DAB29E"/>
<path opacity="0.983" fill-rule="evenodd" clip-rule="evenodd" d="M362.09 26.0806C363.163 27.6464 362.971 29.0641 361.514 30.3335C360.471 31.0226 359.367 31.5993 358.198 32.0635C355.75 32.9994 353.299 33.8885 350.845 34.7306C349.167 34.9892 347.485 35.2295 345.8 35.4514C345.777 35.1592 345.8 34.8708 345.872 34.5864C346.34 34.021 346.892 33.5645 347.53 33.2168C350.732 31.8929 354 30.7396 357.333 29.7568C358.504 29.2436 359.609 28.6189 360.649 27.8826C361.182 27.3171 361.664 26.7163 362.09 26.0806Z" fill="#DAB39E"/>
<path opacity="0.999" fill-rule="evenodd" clip-rule="evenodd" d="M362.954 36.6052C363.951 37.9525 364.072 39.3941 363.314 40.9302C362.373 42.0142 361.195 42.711 359.782 43.0206C356.015 44.0945 352.219 45.0557 348.393 45.904C345.713 46.9066 343.309 48.3483 341.184 50.229C338.859 52.2185 336.672 54.357 334.625 56.6444C329.775 62.3577 325.258 68.3167 321.073 74.521C315.99 82.0439 311.16 89.7328 306.584 97.5877C306.495 97.6037 306.423 97.6517 306.368 97.7319C299.386 85.9299 292.442 74.1083 285.536 62.2669C285.572 61.9535 285.716 61.7131 285.969 61.546C286.444 62.0469 286.901 62.5755 287.338 63.1319C289.021 65.4865 290.702 67.8414 292.384 70.196C296.253 76.0127 300.194 81.7794 304.206 87.496C309.851 77.7445 316.483 68.71 324.101 60.3927C327.921 56.5723 331.742 52.7519 335.562 48.9315C336.867 47.8668 338.212 46.8576 339.599 45.904C345.359 42.7816 351.51 40.9556 358.052 40.4256C359.74 40.3357 361.206 39.7349 362.449 38.6236C362.619 38.2819 362.788 37.9455 362.954 37.6144C362.897 37.3586 362.802 37.1183 362.665 36.8936C362.717 36.7462 362.812 36.6501 362.954 36.6052Z" fill="#DAB19D"/>
<path opacity="0.999" fill-rule="evenodd" clip-rule="evenodd" d="M75.0547 36.4612C74.7956 37.2182 74.8677 37.939 75.2709 38.6237C76.3108 39.5882 77.5362 40.1888 78.9472 40.4258C81.9679 40.6569 84.9474 41.1375 87.8855 41.8674C93.2868 43.1264 98.0923 45.5293 102.302 49.0758C106.026 52.8 109.751 56.5244 113.475 60.2487C115.697 62.5659 117.811 64.9687 119.818 67.457C124.778 73.8339 129.367 80.4656 133.586 87.352C134.351 86.4963 135.048 85.5833 135.677 84.6128C140.544 77.135 145.59 69.7825 150.814 62.5553C151.116 62.1332 151.476 61.7969 151.895 61.5462C151.992 61.7383 152.087 61.9307 152.184 62.1228C145.555 73.5521 138.924 84.9894 132.289 96.4345C131.984 96.903 131.648 97.3355 131.28 97.732C124.454 86.0317 117.029 74.7387 109.006 63.8528C104.922 58.3265 100.236 53.3527 94.9496 48.9316C93.0996 47.5738 91.0812 46.5167 88.8947 45.7599C85.208 44.9824 81.5559 44.0694 77.938 43.0208C76.3847 42.714 75.1593 41.9211 74.2617 40.642C73.7812 39.5367 73.7812 38.4315 74.2617 37.3262C74.4291 36.9391 74.6934 36.6508 75.0547 36.4612Z" fill="#DAB19D"/>
<path opacity="0.997" fill-rule="evenodd" clip-rule="evenodd" d="M268.96 90.0911C268.219 91.7893 267.305 93.3752 266.221 94.8485C265.541 92.5541 264.338 90.5599 262.617 88.8656C261.896 88.7699 261.632 89.0822 261.824 89.8027C263.877 91.6021 265.006 93.8606 265.212 96.5785C264.431 97.997 262.761 100.759 262.761 100.759L261.464 102.922L250.795 120.943C250.795 120.943 250.749 121.45 248.633 124.403C248.36 122.928 247.951 121.486 247.407 120.078C246.77 118.946 246.169 117.793 245.605 116.618C248.421 114.206 249.839 111.131 249.858 107.391C253.547 104.433 255.374 100.589 255.337 95.8577C255.138 94.5441 254.536 93.4868 253.534 92.6861C251.924 90.4668 249.762 89.6017 247.047 90.0911C247.206 89.9617 247.206 89.8416 247.047 89.7306C243.159 89.0362 239.506 87.6907 236.09 85.694C230.626 82.6349 225.749 78.8145 221.457 74.2327C220.714 73.322 220.04 72.3609 219.439 71.3494C219.001 71.138 218.593 71.1861 218.214 71.4936C216.466 74.0935 214.4 76.4241 212.014 78.4856C206.654 83.0723 200.647 86.5803 193.994 89.0098C192.961 89.3401 191.903 89.5323 190.822 89.5865C190.695 89.6885 190.599 89.8088 190.534 89.9469C187.795 89.5875 185.68 90.5486 184.19 92.8302C183.821 92.9806 183.51 93.2209 183.253 93.5511C182.933 94.0947 182.692 94.6714 182.532 95.281C182.186 98.9028 183.148 102.123 185.416 104.94C186.137 105.853 186.954 106.67 187.867 107.391C187.888 111.177 189.353 114.252 192.264 116.618C190.648 118.983 189.591 121.578 189.092 124.403C188.56 123.676 187.65 122.096 187.65 122.096L187.074 121.087L176.261 102.922L174.839 101.099C174.839 101.099 173.26 97.9773 172.513 96.5785C172.774 93.8898 173.903 91.6312 175.901 89.8027C176.087 89.0516 175.821 88.7633 175.108 88.9377C174.081 89.9883 173.192 91.1416 172.441 92.3977C172.015 93.2166 171.752 94.0816 171.648 94.9927C170.551 93.5211 169.638 91.9352 168.909 90.2352C170.092 87.731 171.966 85.929 174.531 84.829C174.995 84.6341 175.475 84.5138 175.973 84.4686C175.745 73.7542 179.685 64.9361 187.795 58.014C197.262 50.7781 207.617 49.1682 218.862 53.1844C230.652 49.0262 241.345 50.9243 250.939 58.879C258.439 65.7354 262.043 74.2652 261.752 84.4686C265.017 85.2495 267.349 87.1718 268.744 90.2352C268.799 90.1551 268.871 90.1071 268.96 90.0911Z" fill="#6C2912"/>
<path opacity="0.995" fill-rule="evenodd" clip-rule="evenodd" d="M152.182 62.1223C156.601 69.5178 161.022 76.9183 165.445 84.324C158.01 97.2223 150.61 110.15 143.244 123.105C137.908 117.217 132.646 111.257 127.457 105.228C127.363 104.782 127.411 104.35 127.601 103.931C128.831 101.855 130.056 99.7887 131.278 97.7315C131.646 97.335 131.982 96.9025 132.287 96.434C138.922 84.9889 145.553 73.5516 152.182 62.1223Z" fill="#F0EBE8"/>
<path fill-rule="evenodd" clip-rule="evenodd" d="M185.342 62.2666C187.852 62.2533 190.352 62.4216 192.839 62.7712C194.184 63.3219 194.472 64.211 193.704 65.4383C193.469 65.6973 193.181 65.8656 192.839 65.9428C190.846 65.8339 188.853 65.7138 186.856 65.5824C185.401 65.5259 183.984 65.7181 182.603 66.1591C182.472 65.9731 182.496 65.7809 182.675 65.5824C183.495 64.42 184.385 63.3148 185.342 62.2666Z" fill="#AA4C2B"/>
<path fill-rule="evenodd" clip-rule="evenodd" d="M246.757 62.4104C248.68 62.3863 250.602 62.4104 252.524 62.4825C253.559 63.5686 254.472 64.746 255.263 66.0146C254.436 66.0852 253.618 65.965 252.812 65.6541C250.321 65.4836 247.846 65.6038 245.388 66.0146C245.02 65.9768 244.66 65.9047 244.306 65.7983C243.232 64.6042 243.377 63.595 244.739 62.7708C245.432 62.655 246.106 62.5348 246.757 62.4104Z" fill="#AA4C2B"/>
<path opacity="0.995" fill-rule="evenodd" clip-rule="evenodd" d="M285.54 62.2671C292.446 74.1085 299.39 85.9302 306.372 97.7321C306.427 97.6519 306.499 97.6039 306.588 97.5879C306.587 97.8486 306.659 98.0889 306.805 98.3087C307.994 100.255 309.147 102.226 310.265 104.22C310.361 104.652 310.361 105.085 310.265 105.517C304.968 111.364 299.706 117.228 294.478 123.105C287.091 110.207 279.739 97.2795 272.421 84.3246C276.685 76.8994 281.058 69.5469 285.54 62.2671Z" fill="#F0EBE8"/>
<path fill-rule="evenodd" clip-rule="evenodd" d="M197.451 63.5647C198.484 63.5644 199.277 63.9969 199.83 64.8622C199.93 66.589 199.137 67.2858 197.451 66.9526C196.447 66.4554 196.086 65.6625 196.37 64.5739C196.625 64.1022 196.986 63.7658 197.451 63.5647Z" fill="#A94B2B"/>
<path fill-rule="evenodd" clip-rule="evenodd" d="M239.403 63.5647C241.199 63.6496 241.8 64.5146 241.205 66.1597C239.659 67.701 238.529 67.4607 237.817 65.4389C237.854 65.0744 237.975 64.7381 238.177 64.4297C238.572 64.105 238.98 63.8167 239.403 63.5647Z" fill="#A94B2B"/>
<path fill-rule="evenodd" clip-rule="evenodd" d="M247.044 90.091C246.423 90.2162 245.798 90.2401 245.17 90.1631C237.607 88.3767 231.023 84.8206 225.419 79.4948C223.262 77.2913 221.269 74.9607 219.436 72.5027C219.138 72.193 218.8 72.1449 218.427 72.3585C213.047 80.0586 205.959 85.5609 197.162 88.8656C195.594 89.3659 194.008 89.7984 192.405 90.1631C191.74 90.2842 191.115 90.2121 190.531 89.9469C190.596 89.8087 190.692 89.6885 190.819 89.5864C191.9 89.5322 192.959 89.3401 193.991 89.0098C200.644 86.5803 206.651 83.0723 212.012 78.4856C214.398 76.424 216.463 74.0934 218.211 71.4935C218.59 71.186 218.998 71.138 219.436 71.3494C220.037 72.3608 220.711 73.322 221.454 74.2327C225.746 78.8145 230.623 82.6349 236.087 85.6939C239.503 87.6907 243.156 89.0362 247.044 89.7306C247.203 89.8416 247.203 89.9617 247.044 90.091Z" fill="#532312"/>
<path fill-rule="evenodd" clip-rule="evenodd" d="M247.046 90.0911C249.761 89.6018 251.923 90.4668 253.533 92.6861C255.32 98.5477 253.783 103.377 248.92 107.175C247.736 107.982 246.439 108.511 245.028 108.761C242.548 114.651 238.367 118.881 232.485 121.447C231.503 121.862 230.494 122.175 229.458 122.384C229.41 124.524 229.458 126.639 229.602 128.728C229.458 128.824 229.313 128.919 229.169 129.016C225.754 131.445 222.318 133.848 218.861 136.224C215.394 133.788 211.91 131.386 208.409 129.016C208.409 128.968 208.409 128.919 208.409 128.872C208.457 127.26 208.408 125.674 208.265 124.114C208.265 123.538 208.265 122.961 208.265 122.384C206.547 122.027 204.912 121.427 203.363 120.582C198.903 118.173 195.563 114.689 193.344 110.13C193.179 109.708 193.058 109.275 192.983 108.833C190.309 108.371 188.122 107.074 186.424 104.94C184.139 102.123 183.13 98.9037 183.396 95.2811C183.503 94.4087 183.767 93.5917 184.189 92.8302C185.678 90.5486 187.793 89.5875 190.533 89.9469C191.116 90.2122 191.742 90.2842 192.407 90.1631C194.01 89.7984 195.596 89.3659 197.164 88.8656C205.961 85.5609 213.048 80.0587 218.429 72.3586C218.802 72.1449 219.14 72.1931 219.438 72.5027C221.27 74.9608 223.264 77.2914 225.421 79.4948C231.025 84.8206 237.609 88.3768 245.172 90.1631C245.8 90.2401 246.425 90.2162 247.046 90.0911Z" fill="#D8AF9B"/>
<path fill-rule="evenodd" clip-rule="evenodd" d="M218.789 74.9536C223.568 81.5324 229.67 86.5061 237.098 89.8749C239.422 90.8944 241.848 91.447 244.378 91.5328C245.693 91.5104 246.99 91.3663 248.271 91.1003C250.498 91.0605 252.036 92.0696 252.884 94.1278C252.965 98.1933 251.667 101.749 248.991 104.796C247.593 106.108 245.935 106.853 244.018 107.031C243.849 107.199 243.682 107.367 243.513 107.535C242.602 109.551 241.545 111.472 240.341 113.302C238.113 115.846 235.493 117.888 232.484 119.429C231.092 120.006 229.65 120.438 228.159 120.726C227.855 120.891 227.591 121.107 227.366 121.375C227.155 123.813 227.082 126.264 227.15 128.728C226.369 129.046 225.6 129.407 224.844 129.809C222.858 131.006 220.865 132.183 218.861 133.341C216.119 131.754 213.379 130.168 210.643 128.584C210.639 126.167 210.542 123.766 210.355 121.375C210.105 121.07 209.793 120.853 209.418 120.726C207.218 120.324 205.152 119.554 203.219 118.42C201.085 116.932 199.139 115.225 197.38 113.302C196.16 111.392 195.056 109.422 194.064 107.391C193.944 107.271 193.823 107.15 193.704 107.031C191.318 106.884 189.42 105.85 188.009 103.931C185.685 100.95 184.676 97.5865 184.982 93.8394C186.433 91.2534 188.571 90.4605 191.397 91.4607C195.377 91.3426 199.175 90.4295 202.786 88.7215C208.296 86.0286 213.031 82.3524 216.986 77.6928C217.661 76.8209 218.262 75.9079 218.789 74.9536Z" fill="#EFD1BD"/>
<path opacity="0.999" fill-rule="evenodd" clip-rule="evenodd" d="M165.446 84.3237C165.723 84.733 165.964 85.1655 166.167 85.6212C160.911 94.8593 155.673 104.11 150.453 113.373C156.54 122.201 162.908 130.826 169.555 139.251C174.2 144.715 179.007 150.049 183.972 155.254C185.591 147.131 188.186 139.346 191.757 131.899C191.999 131.29 192.168 130.666 192.261 130.025C192.642 130.551 193.027 131.08 193.415 131.61C195.431 131.006 196.536 131.727 196.73 133.773C198.07 134.283 199.416 134.763 200.767 135.215C200.745 135.063 200.77 134.919 200.839 134.782C202.833 132.595 204.828 130.409 206.822 128.222C207.27 128.135 207.655 128.254 207.975 128.583C208.043 128.786 208.187 128.881 208.408 128.871C208.408 128.919 208.408 128.968 208.408 129.015C206.261 131.817 204.146 134.652 202.065 137.521C204.814 141.891 207.794 146.095 211.003 150.136C211.291 150.232 211.58 150.232 211.868 150.136C212.383 149.321 212.91 148.528 213.454 147.757C213.909 148.599 214.534 149.32 215.328 149.92C215.417 151.158 215.273 152.359 214.895 153.524C214.918 153.136 214.895 152.752 214.823 152.37C214.34 151.863 213.836 151.383 213.31 150.929C212.733 151.409 212.204 151.938 211.724 152.515C211.497 152.677 211.257 152.702 211.003 152.587C207.214 147.356 203.538 142.045 199.974 136.656C199.705 136.338 199.392 136.074 199.037 135.863C197.926 135.468 196.821 135.06 195.721 134.638C195.613 134.165 195.541 133.685 195.505 133.196C194.969 132.338 194.295 132.242 193.487 132.908C191.392 139.463 189.565 146.095 188.008 152.803C187.579 154.902 187.241 157.017 186.999 159.146C186.662 162.995 186.278 166.84 185.846 170.68C185.937 176.697 186.273 182.704 186.855 188.7C188.16 194.506 190.971 199.432 195.289 203.477C197.257 205.122 199.491 206.251 201.993 206.865C208.419 205.356 214.931 204.707 221.527 204.919C224.076 205.138 226.623 205.379 229.168 205.64C231.384 206.055 233.594 206.465 235.8 206.865C239.425 205.786 242.476 203.815 244.954 200.954C247.698 197.538 249.619 193.694 250.721 189.421C251.159 184.91 251.543 180.393 251.874 175.87C251.971 174.043 251.971 172.218 251.874 170.391C251.449 165.527 250.92 160.674 250.288 155.83C248.7 148.185 246.73 140.641 244.377 133.196C244.079 132.742 243.647 132.501 243.08 132.475C242.72 132.546 242.431 132.738 242.215 133.052C242.167 133.532 242.118 134.014 242.071 134.494C240.925 135.004 239.748 135.461 238.539 135.863C236.768 138.081 235.159 140.412 233.709 142.855C231.361 146.086 229.029 149.33 226.717 152.587C226.525 152.683 226.332 152.683 226.14 152.587C225.585 152.007 225.009 151.455 224.41 150.929C223.884 151.383 223.38 151.863 222.897 152.37C222.825 152.703 222.802 153.039 222.825 153.38C222.587 152.422 222.395 151.438 222.248 150.424C222.778 149.604 223.427 148.858 224.194 148.19C224.263 148.053 224.288 147.908 224.266 147.757C224.814 148.524 225.343 149.317 225.852 150.136C226.14 150.232 226.429 150.232 226.717 150.136C229.91 146.105 232.889 141.924 235.655 137.593C233.615 134.641 231.453 131.782 229.168 129.015C229.312 128.919 229.456 128.824 229.6 128.727C229.942 128.316 230.375 128.147 230.898 128.222C233.046 130.49 235.112 132.82 237.097 135.215C238.343 134.743 239.593 134.286 240.845 133.845C241.016 133.045 241.353 132.324 241.855 131.682C242.221 131.531 242.606 131.459 243.008 131.466C243.492 131.522 243.974 131.547 244.45 131.538C244.767 131.008 245.103 130.503 245.459 130.025C245.581 130.608 245.75 131.185 245.963 131.755C249.508 139.267 252.103 147.1 253.748 155.254C258.468 150.245 263.082 145.152 267.588 139.972C274.484 131.348 281.043 122.482 287.267 113.373C282.083 104.134 276.845 94.9312 271.553 85.7654C271.769 85.2359 272.057 84.7554 272.418 84.3237C279.736 97.2787 287.088 110.206 294.475 123.105C291.059 126.952 287.648 130.797 284.24 134.638C283.894 134.622 283.628 134.766 283.447 135.07C282.236 136.449 281.058 137.843 279.915 139.251C279.579 139.492 279.29 139.78 279.05 140.116C278.81 140.399 278.571 140.687 278.329 140.981C277.984 141.182 277.743 141.47 277.608 141.846C273.084 146.706 268.662 151.657 264.345 156.695C260.863 160.578 257.378 164.47 253.892 168.373C254.404 172.921 254.765 177.487 254.974 182.069C255.028 185.582 254.932 189.09 254.685 192.593C254.282 196.991 253.2 201.221 251.442 205.279C250.17 207.973 248.273 210.087 245.747 211.623C243.658 210.366 241.399 209.525 238.971 209.1C234.635 208.209 230.261 207.608 225.852 207.298C225.399 207.18 224.919 207.108 224.41 207.082C220.71 206.985 217.01 206.985 213.31 207.082C211.497 207.115 209.718 207.283 207.975 207.586C203.372 208.04 198.855 208.93 194.424 210.253C193.521 210.702 192.609 211.11 191.685 211.479C189.707 210.246 188.145 208.613 186.999 206.577C184.505 201.745 183.16 196.602 182.963 191.151C182.751 187.309 182.702 183.464 182.818 179.618C183.133 175.862 183.47 172.114 183.828 168.373C180.422 164.49 176.987 160.647 173.52 156.84C169.153 151.799 164.731 146.801 160.256 141.846C160.016 141.51 159.727 141.222 159.391 140.981C159.204 140.559 158.916 140.221 158.526 139.972C158.335 139.684 158.094 139.443 157.805 139.251C156.541 137.722 155.244 136.208 153.913 134.71C153.776 134.641 153.632 134.616 153.48 134.638C150.072 130.797 146.661 126.952 143.245 123.105C150.612 110.15 158.012 97.222 165.446 84.3237Z" fill="#CAC6C3"/>
<path fill-rule="evenodd" clip-rule="evenodd" d="M166.171 85.6213C167.082 87.154 167.994 88.6918 168.91 90.2347C169.639 91.9347 170.552 93.5205 171.649 94.9922C171.901 95.545 172.19 96.0736 172.514 96.578C173.261 97.9767 174.078 99.3222 174.965 100.615C175.325 101.431 175.758 102.2 176.262 102.921C179.868 108.982 183.472 115.037 187.075 121.086C187.267 121.422 187.46 121.76 187.652 122.095C188.08 122.906 188.561 123.676 189.093 124.402C190.187 126.253 191.244 128.127 192.265 130.025C192.171 130.666 192.002 131.29 191.76 131.899C188.189 139.346 185.594 147.131 183.975 155.254C179.01 150.049 174.204 144.715 169.559 139.251C162.911 130.826 156.543 122.201 150.457 113.373C155.677 104.11 160.914 94.8594 166.171 85.6213Z" fill="#F0EBE8"/>
<path fill-rule="evenodd" clip-rule="evenodd" d="M271.554 85.7664C276.846 94.9322 282.084 104.135 287.268 113.374C281.045 122.483 274.485 131.349 267.59 139.973C263.083 145.153 258.47 150.246 253.75 155.255C252.105 147.101 249.51 139.268 245.965 131.755C245.751 131.186 245.583 130.609 245.46 130.025C246.517 128.151 247.575 126.277 248.632 124.403C249.12 123.721 249.553 123 249.929 122.241C250.251 121.838 250.539 121.406 250.794 120.943C254.351 114.936 257.906 108.93 261.462 102.922C261.93 102.23 262.362 101.509 262.76 100.76C263.613 99.391 264.429 97.9973 265.211 96.5789C265.619 96.0506 265.956 95.474 266.22 94.8489C267.304 93.3755 268.218 91.7896 268.959 90.0914C269.752 88.6008 270.617 87.1592 271.554 85.7664Z" fill="#F0EBE8"/>
<path fill-rule="evenodd" clip-rule="evenodd" d="M172.511 96.5786C172.186 96.0741 171.898 95.5456 171.646 94.9927C171.749 94.0816 172.013 93.2166 172.438 92.3977C173.19 91.1416 174.079 89.9883 175.106 88.9377C175.819 88.7633 176.084 89.0516 175.898 89.8027C173.9 91.6312 172.771 93.8899 172.511 96.5786Z" fill="#A94B2B"/>
<path fill-rule="evenodd" clip-rule="evenodd" d="M266.22 94.8489C265.956 95.474 265.619 96.0507 265.211 96.5789C265.004 93.8609 263.876 91.6024 261.823 89.803C261.631 89.0825 261.895 88.7702 262.616 88.866C264.337 90.5602 265.539 92.5545 266.22 94.8489Z" fill="#A94B2B"/>
<path fill-rule="evenodd" clip-rule="evenodd" d="M204.371 89.8029C206.784 89.6905 208.201 90.8438 208.624 93.2629C209.019 95.2945 208.562 97.0966 207.254 98.6691C205.467 99.9338 203.953 99.6695 202.713 97.8762C201.838 96.0114 201.694 94.0893 202.281 92.1096C202.758 91.1288 203.454 90.36 204.371 89.8029Z" fill="#37180B"/>
<path fill-rule="evenodd" clip-rule="evenodd" d="M231.474 89.8032C233.766 89.6668 235.183 90.724 235.727 92.9749C236.001 94.6939 235.76 96.3277 235.006 97.8765C233.381 99.9211 231.699 99.9691 229.96 98.0207C228.772 95.7883 228.723 93.5296 229.816 91.2449C230.312 90.6761 230.864 90.1956 231.474 89.8032Z" fill="#37180B"/>
<path fill-rule="evenodd" clip-rule="evenodd" d="M187.217 94.8488C187.463 94.8258 187.703 94.8497 187.938 94.9209C190.225 96.7775 191.763 99.1322 192.552 101.985C192.331 102.482 191.971 102.602 191.47 102.345C191.217 101.357 190.807 100.444 190.245 99.6063C189.863 100.058 189.575 100.562 189.38 101.12C188.635 101.245 188.371 100.933 188.587 100.183C188.823 99.5181 189.136 98.8933 189.524 98.3088C188.95 97.2792 188.157 96.4622 187.145 95.858C187.044 95.5078 187.068 95.1715 187.217 94.8488Z" fill="#DBB29E"/>
<path fill-rule="evenodd" clip-rule="evenodd" d="M249.786 94.8475C250.589 94.7398 250.853 95.0763 250.579 95.8566C249.554 96.4252 248.809 97.2422 248.344 98.3075C248.621 98.8722 248.885 99.4488 249.137 100.037C249.24 100.383 249.215 100.72 249.065 101.047C248.761 101.241 248.497 101.193 248.272 100.902C248.03 100.417 247.789 99.9368 247.551 99.4608C246.963 100.349 246.531 101.31 246.254 102.344C245.715 102.629 245.402 102.485 245.317 101.912C246.054 99.0649 247.543 96.7101 249.786 94.8475Z" fill="#DAB29E"/>
<path fill-rule="evenodd" clip-rule="evenodd" d="M139.351 102.923C136.341 103.897 135.548 105.819 136.972 108.689C138.97 110.625 140.94 110.578 142.883 108.545C143.096 108.162 143.264 107.778 143.387 107.392C143.732 107.954 144.165 108.459 144.685 108.905C145.889 109.918 147.091 110.927 148.289 111.933C146.585 114.909 144.855 117.864 143.099 120.799C138.264 115.507 133.506 110.15 128.827 104.725C130.597 101.544 132.423 98.3963 134.305 95.2817C134.892 96.2142 135.444 97.1754 135.963 98.1651C137.094 99.7551 138.223 101.341 139.351 102.923Z" fill="#CBC7C3"/>
<path fill-rule="evenodd" clip-rule="evenodd" d="M294.333 107.248C295.149 109.77 296.831 110.611 299.379 109.77C301.359 108.554 301.913 106.848 301.037 104.653C300.111 103.342 298.838 102.765 297.216 102.923C297.628 102.827 298.061 102.73 298.514 102.634C300.33 100.297 301.964 97.8465 303.415 95.2817C305.109 98.0451 306.767 100.832 308.389 103.643C308.664 104.047 308.809 104.479 308.822 104.941C304.11 110.252 299.377 115.539 294.621 120.799C292.819 117.867 291.089 114.887 289.431 111.861C291.098 110.618 292.684 109.273 294.189 107.824C294.323 107.653 294.37 107.461 294.333 107.248Z" fill="#CBC7C3"/>
<path fill-rule="evenodd" clip-rule="evenodd" d="M233.06 108.688C233.19 107.898 232.974 107.225 232.411 106.67C230.739 104.933 228.698 103.9 226.284 103.57C220.239 102.284 214.281 102.572 208.408 104.435C206.907 105.149 205.681 106.181 204.731 107.535C204.659 107.917 204.636 108.301 204.659 108.688C204.188 106.481 204.956 104.824 206.966 103.715C210.668 102.257 214.512 101.56 218.499 101.624C222.447 101.589 226.29 102.19 230.033 103.426C232.517 104.384 233.526 106.138 233.06 108.688Z" fill="#E3E1E0"/>
<path fill-rule="evenodd" clip-rule="evenodd" d="M139.354 102.922C142.328 102.964 143.674 104.454 143.391 107.391C143.268 107.777 143.099 108.161 142.886 108.544C140.944 110.577 138.973 110.625 136.975 108.689C135.552 105.818 136.345 103.896 139.354 102.922Z" fill="#9D9D9D"/>
<path fill-rule="evenodd" clip-rule="evenodd" d="M233.061 108.689C233.013 108.786 232.964 108.881 232.917 108.977C231.835 109.326 230.73 109.351 229.601 109.049C227.676 108.375 225.754 107.703 223.834 107.031C220.717 106.434 217.593 106.385 214.463 106.887C212.262 107.492 210.099 108.213 207.976 109.049C207.379 109.149 206.778 109.221 206.174 109.266C205.72 109.286 205.312 109.189 204.948 108.977C204.852 108.881 204.757 108.786 204.66 108.689C204.637 108.301 204.66 107.918 204.732 107.536C205.682 106.182 206.908 105.149 208.408 104.436C214.282 102.573 220.24 102.285 226.285 103.571C228.698 103.901 230.74 104.934 232.412 106.671C232.974 107.226 233.191 107.899 233.061 108.689Z" fill="#FCFBFB"/>
<path fill-rule="evenodd" clip-rule="evenodd" d="M297.213 102.922C298.835 102.764 300.108 103.341 301.034 104.652C301.91 106.847 301.357 108.553 299.376 109.77C296.828 110.61 295.146 109.77 294.33 107.247C294.07 104.974 295.032 103.532 297.213 102.922Z" fill="#9D9D9D"/>
<path fill-rule="evenodd" clip-rule="evenodd" d="M232.915 108.976C232.633 111.052 231.671 112.807 230.032 114.239C229.258 114.941 228.393 115.494 227.437 115.896C226.976 115.341 226.496 114.788 225.995 114.239C224.075 113.126 222.009 112.741 219.796 113.085C219.449 113.13 219.137 113.25 218.859 113.446C216.437 112.7 214.106 112.917 211.867 114.094C211.373 114.533 210.963 115.037 210.642 115.608C210.523 115.798 210.356 115.895 210.137 115.896C207.394 114.426 205.568 112.191 204.659 109.193C204.708 109.044 204.803 108.972 204.947 108.976C205.31 109.188 205.718 109.285 206.172 109.265C206.776 109.22 207.378 109.148 207.975 109.049C210.098 108.212 212.261 107.492 214.462 106.886C217.592 106.384 220.716 106.433 223.833 107.03C225.753 107.702 227.675 108.374 229.6 109.049C230.728 109.35 231.834 109.325 232.915 108.976Z" fill="#3D0D07"/>
<path fill-rule="evenodd" clip-rule="evenodd" d="M253.532 92.6863C254.534 93.487 255.135 94.5443 255.334 95.8579C255.372 100.589 253.545 104.434 249.856 107.391C249.837 111.131 248.419 114.206 245.603 116.618C246.167 117.793 246.768 118.946 247.405 120.078C247.949 121.486 248.358 122.928 248.63 124.403C247.574 126.277 246.516 128.151 245.459 130.025C245.103 130.504 244.767 131.009 244.45 131.539C243.974 131.548 243.492 131.523 243.008 131.467C242.606 131.46 242.221 131.532 241.855 131.683C241.353 132.325 241.016 133.046 240.845 133.846C239.593 134.287 238.343 134.744 237.097 135.215C235.112 132.821 233.046 130.491 230.898 128.223C230.375 128.148 229.942 128.317 229.6 128.728C229.456 126.639 229.409 124.524 229.456 122.385C230.493 122.176 231.502 121.863 232.484 121.448C238.366 118.881 242.547 114.651 245.026 108.761C246.438 108.511 247.735 107.982 248.919 107.175C253.782 103.378 255.318 98.5479 253.532 92.6863Z" fill="#50200F"/>
<path fill-rule="evenodd" clip-rule="evenodd" d="M184.187 92.8298C183.765 93.5913 183.501 94.4083 183.394 95.2807C183.127 98.9033 184.137 102.123 186.422 104.94C188.12 107.073 190.307 108.371 192.981 108.832C193.056 109.275 193.177 109.707 193.342 110.13C195.56 114.688 198.901 118.173 203.361 120.582C204.91 121.427 206.544 122.026 208.263 122.384C208.263 122.961 208.263 123.537 208.263 124.114C208.355 125.659 208.26 127.149 207.975 128.583C207.654 128.254 207.27 128.135 206.821 128.223C204.827 130.41 202.832 132.595 200.838 134.782C200.769 134.919 200.745 135.063 200.766 135.215C199.415 134.764 198.069 134.283 196.73 133.773C196.535 131.727 195.431 131.007 193.414 131.611C193.026 131.08 192.641 130.551 192.26 130.025C191.24 128.128 190.183 126.253 189.089 124.402C189.588 121.578 190.644 118.983 192.26 116.617C189.35 114.252 187.885 111.176 187.863 107.391C186.951 106.67 186.133 105.853 185.412 104.94C183.145 102.122 182.183 98.9024 182.529 95.2807C182.689 94.671 182.93 94.0943 183.25 93.5507C183.507 93.2205 183.818 92.9802 184.187 92.8298Z" fill="#4F200F"/>
<path fill-rule="evenodd" clip-rule="evenodd" d="M227.441 115.897C226.23 116.582 224.932 117.086 223.548 117.411C219.535 118.261 215.594 118.021 211.726 116.69C211.148 116.497 210.621 116.233 210.141 115.897C210.36 115.896 210.527 115.799 210.645 115.609C210.967 115.038 211.376 114.533 211.871 114.095C214.11 112.917 216.441 112.701 218.863 113.446C219.141 113.25 219.452 113.13 219.8 113.086C222.013 112.741 224.079 113.126 225.999 114.239C226.499 114.788 226.979 115.342 227.441 115.897Z" fill="#922B1D"/>
<path fill-rule="evenodd" clip-rule="evenodd" d="M208.264 124.115C208.407 125.674 208.456 127.26 208.408 128.872C208.188 128.882 208.043 128.787 207.976 128.584C208.261 127.149 208.356 125.66 208.264 124.115Z" fill="#926553"/>
<path fill-rule="evenodd" clip-rule="evenodd" d="M208.408 129.016C211.909 131.386 215.393 133.788 218.86 136.224C222.317 133.848 225.753 131.445 229.168 129.016C231.453 131.782 233.616 134.641 235.656 137.594C232.889 141.925 229.911 146.105 226.717 150.136C226.429 150.233 226.141 150.233 225.852 150.136C225.344 149.317 224.814 148.524 224.267 147.758C222.564 144.491 220.762 141.27 218.86 138.098C216.957 141.271 215.155 144.491 213.454 147.758C212.911 148.529 212.383 149.322 211.868 150.136C211.58 150.233 211.292 150.233 211.003 150.136C207.794 146.095 204.814 141.891 202.065 137.522C204.147 134.653 206.262 131.817 208.408 129.016Z" fill="#F0EBE8"/>
<path fill-rule="evenodd" clip-rule="evenodd" d="M214.898 153.525C212.885 166.299 210.77 179.057 208.554 191.802C208.57 192.148 208.714 192.411 208.987 192.594C209.085 193.116 209.157 193.645 209.203 194.18C212.115 197.045 215.071 199.856 218.069 202.614C218.963 202.849 219.732 202.657 220.376 202.037C223.091 199.418 225.807 196.8 228.521 194.18C228.557 193.553 228.726 192.977 229.026 192.45C229.082 192.238 229.131 192.022 229.17 191.802C227 179.002 224.887 166.195 222.827 153.381C222.804 153.041 222.827 152.705 222.899 152.372C223.382 151.865 223.886 151.384 224.413 150.93C225.011 151.457 225.588 152.009 226.143 152.588C226.334 152.685 226.528 152.685 226.719 152.588C229.032 149.332 231.363 146.088 233.711 142.857C235.162 140.413 236.771 138.082 238.541 135.865C239.751 135.463 240.927 135.006 242.073 134.495C242.121 134.015 242.17 133.534 242.217 133.054C242.434 132.739 242.722 132.548 243.082 132.477C243.649 132.503 244.081 132.744 244.38 133.198C246.733 140.643 248.702 148.187 250.291 155.832C250.922 160.676 251.451 165.529 251.876 170.393C251.973 172.219 251.973 174.045 251.876 175.871C251.545 180.395 251.161 184.912 250.723 189.423C249.622 193.696 247.7 197.539 244.956 200.956C242.478 203.816 239.428 205.787 235.802 206.867C233.596 206.466 231.386 206.057 229.17 205.642C226.626 205.381 224.078 205.14 221.529 204.921C214.934 204.709 208.422 205.358 201.995 206.867C199.494 206.253 197.259 205.124 195.291 203.479C190.973 199.434 188.162 194.508 186.857 188.702C186.275 182.706 185.939 176.699 185.848 170.681C186.281 166.842 186.664 162.997 187.001 159.148C187.244 157.019 187.581 154.904 188.011 152.805C189.568 146.096 191.394 139.465 193.489 132.91C194.298 132.243 194.971 132.34 195.507 133.198C195.543 133.687 195.615 134.167 195.724 134.64C196.824 135.062 197.928 135.47 199.039 135.865C199.394 136.075 199.707 136.339 199.976 136.658C203.54 142.047 207.217 147.358 211.005 152.588C211.259 152.704 211.5 152.679 211.726 152.516C212.206 151.94 212.735 151.41 213.312 150.93C213.838 151.384 214.343 151.865 214.826 152.372C214.898 152.754 214.921 153.138 214.898 153.525Z" fill="#F0EBE8"/>
<path fill-rule="evenodd" clip-rule="evenodd" d="M284.238 134.639C284.222 134.729 284.175 134.801 284.094 134.855C284.599 135.24 285.079 135.648 285.536 136.081C287.119 138.379 288.488 140.83 289.644 143.433C292.163 149.84 292.404 156.328 290.365 162.896C289.601 163.993 289.721 164.978 290.726 165.851C291.594 166.085 292.314 165.868 292.888 165.202C293.611 165.563 294.282 165.995 294.907 166.5C302.305 172.724 304.972 180.605 302.908 190.143C302.292 191.994 301.643 193.821 300.962 195.622C301.032 196.51 301.514 197.039 302.403 197.207C303.1 196.98 303.724 196.644 304.277 196.198C307.286 197.833 310.002 199.899 312.423 202.397C312.91 202.957 313.367 203.533 313.792 204.127C313.774 204.437 313.846 204.726 314.009 204.992C317.271 209.622 318.424 214.764 317.469 220.418C317.248 222.426 316.575 224.253 315.45 225.897C314.741 227.015 313.901 228.024 312.927 228.924C312.926 227.491 312.903 226.049 312.855 224.599C312.519 224.214 312.182 224.214 311.846 224.599C311.925 226.565 311.685 228.489 311.125 230.366C310.931 230.585 310.714 230.777 310.477 230.942C310.488 230.471 310.439 229.989 310.332 229.501C310.092 229.309 309.852 229.309 309.612 229.501C309.351 230.16 309.134 230.833 308.963 231.519C308.37 231.947 307.722 232.283 307.017 232.528C306.969 232.409 306.92 232.287 306.872 232.168C307.231 230.276 307.256 228.379 306.944 226.473C306.684 226.199 306.372 226.127 306.007 226.257C306.072 228.244 306 230.239 305.791 232.24C305.752 232.504 305.631 232.72 305.431 232.889C305.053 233.007 304.67 233.079 304.277 233.105C304.737 229.57 304.185 226.205 302.619 223.013C302.359 222.739 302.047 222.667 301.682 222.797C301.599 222.925 301.551 223.069 301.538 223.229C302.322 224.91 302.876 226.665 303.196 228.492C303.306 230.034 303.283 231.572 303.124 233.105C301.075 233.171 299.152 232.714 297.357 231.735C296.605 231.528 296.004 231.744 295.555 232.384C294.618 234.016 293.44 235.458 292.023 236.709C291.976 236.612 291.927 236.517 291.879 236.421C292.425 232.533 292.45 228.64 291.951 224.743C291.762 224.338 291.451 224.218 291.014 224.383C290.923 224.634 290.876 224.897 290.87 225.176C291.471 228.928 291.447 232.677 290.798 236.421C290.659 236.958 290.492 237.488 290.293 238.007C289.813 238.342 289.332 238.68 288.852 239.016C288.804 238.944 288.755 238.872 288.707 238.799C289.734 235.88 290.094 232.876 289.789 229.789C289.562 226.623 288.817 223.596 287.554 220.707C286.813 220.415 286.502 220.655 286.617 221.427C288.85 226.72 289.283 232.149 287.914 237.718C287.714 238.358 287.473 238.984 287.194 239.592C286.575 239.889 285.926 240.083 285.247 240.169C287.248 229.914 285.061 220.688 278.688 212.489C277.445 211.197 276.172 209.972 274.867 208.813C278.215 198.71 277.278 189.075 272.056 179.907C270.62 177.751 268.843 175.926 266.722 174.429C266.791 171.596 266.791 168.76 266.722 165.923C266.281 162.739 265.488 159.664 264.343 156.697C268.661 151.658 277.328 141.539 277.328 141.539L278.025 140.841C278.025 140.841 278.809 140.4 279.048 140.117C280.301 141.075 281.43 142.18 282.436 143.433C284.443 146.294 286.078 149.37 287.338 152.66C287.844 153.268 288.204 153.196 288.419 152.444C286.941 148.357 284.851 144.633 282.148 141.271C281.464 140.515 280.719 139.842 279.913 139.252C281.056 137.844 282.234 136.45 283.445 135.072C283.627 134.767 283.892 134.623 284.238 134.639Z" fill="#6B2912"/>
<path fill-rule="evenodd" clip-rule="evenodd" d="M153.479 134.638C153.631 134.617 153.775 134.641 153.912 134.71C155.242 136.208 156.54 137.722 157.804 139.252C155.812 140.884 154.154 142.805 152.831 145.018C151.645 147.175 150.54 149.386 149.515 151.65C149.334 152.022 149.287 152.405 149.371 152.803C149.763 153.21 150.099 153.162 150.38 152.659C151.743 148.993 153.618 145.628 156.002 142.567C156.782 141.619 157.624 140.754 158.525 139.972C158.914 140.222 159.496 140.84 159.496 140.84L160.255 141.847C160.255 141.847 169.152 151.8 173.518 156.84C173.392 156.821 173.296 156.869 173.23 156.984C171.105 162.503 170.432 168.197 171.212 174.068C170.094 175.087 168.966 176.121 167.824 177.167C165.967 179.343 164.478 181.745 163.355 184.376C160.848 191.084 160.319 197.956 161.769 204.992C162.197 206.324 162.533 207.669 162.778 209.028C159.22 211.818 156.528 215.278 154.705 219.408C151.79 226.083 151.044 233.003 152.47 240.168C151.843 240.128 151.242 239.984 150.668 239.736C149.026 236.147 148.546 232.399 149.226 228.491C149.549 225.926 150.198 223.452 151.173 221.066C150.917 220.504 150.557 220.432 150.091 220.85C148.438 225.015 147.717 229.34 147.929 233.825C148.124 235.52 148.484 237.178 149.01 238.799C148.962 238.871 148.914 238.943 148.866 239.015C148.317 238.682 147.812 238.297 147.352 237.861C146.304 233.672 146.136 229.444 146.848 225.175C146.964 224.359 146.652 224.118 145.911 224.454C145.264 228.391 145.24 232.331 145.838 236.276C145.79 236.42 145.742 236.564 145.694 236.708C144.323 235.506 143.194 234.112 142.306 232.527C141.678 231.695 140.885 231.479 139.928 231.879C138.27 232.748 136.492 233.157 134.593 233.104C134.261 230.555 134.477 228.057 135.242 225.607C135.596 224.852 135.909 224.083 136.179 223.301C136.094 222.728 135.781 222.584 135.242 222.868C133.608 226.043 133.007 229.406 133.44 232.96C132.931 233.033 132.475 232.937 132.071 232.671C131.939 232.053 131.843 231.427 131.782 230.797C131.753 229.272 131.729 227.758 131.71 226.256C131.43 226.149 131.166 226.172 130.917 226.328C130.486 228.225 130.462 230.124 130.845 232.023C130.797 232.191 130.749 232.359 130.701 232.527C130.234 232.318 129.754 232.15 129.259 232.023C129.091 231.854 128.923 231.687 128.755 231.518C128.638 230.832 128.421 230.183 128.106 229.572C127.826 229.465 127.562 229.488 127.313 229.644C127.267 230.082 127.267 230.515 127.313 230.941C127.073 230.75 126.833 230.557 126.592 230.365C126.056 228.485 125.816 226.563 125.871 224.598C125.535 224.213 125.199 224.213 124.862 224.598C124.826 226.047 124.802 227.489 124.79 228.923C122.577 226.735 121.064 224.14 120.249 221.138C120.153 218.496 120.153 215.852 120.249 213.209C120.667 211.185 121.316 209.239 122.195 207.37C122.147 207.222 122.051 207.15 121.907 207.154C124.589 202.405 128.385 198.85 133.296 196.486C133.411 196.419 133.459 196.324 133.44 196.197C133.865 196.392 134.249 196.656 134.593 196.99C135.907 197.342 136.628 196.837 136.756 195.477C136.169 194.059 135.616 192.618 135.098 191.152C132.828 183.182 134.318 176.021 139.567 169.671C140.514 168.627 141.547 167.69 142.667 166.859C142.903 166.697 143.048 166.48 143.099 166.211C143.635 165.847 144.212 165.559 144.829 165.346C145.124 165.422 145.364 165.591 145.55 165.85C147.256 166.067 148.001 165.321 147.785 163.616C146.488 160.885 145.888 158.002 145.983 154.966C145.891 148.152 147.885 142.05 151.966 136.657C152.035 136.52 152.059 136.375 152.038 136.224C152.542 135.744 153.071 135.287 153.623 134.854C153.543 134.8 153.495 134.728 153.479 134.638Z" fill="#6B2912"/>
<path opacity="0.979" fill-rule="evenodd" clip-rule="evenodd" d="M152.042 136.225C152.064 136.376 152.039 136.52 151.97 136.657C147.89 142.051 145.895 148.153 145.987 154.967C145.892 158.003 146.493 160.886 147.789 163.617C148.006 165.322 147.261 166.067 145.555 165.851C145.369 165.592 145.129 165.423 144.834 165.347C141.085 154.106 143.487 144.398 152.042 136.225Z" fill="#4F1F0D"/>
<path opacity="0.977" fill-rule="evenodd" clip-rule="evenodd" d="M285.536 136.08C293.214 143.185 296.026 151.884 293.97 162.174C293.651 163.204 293.291 164.213 292.889 165.202C292.315 165.868 291.594 166.084 290.726 165.851C289.721 164.977 289.602 163.992 290.366 162.895C292.404 156.327 292.163 149.84 289.645 143.433C288.489 140.829 287.119 138.378 285.536 136.08Z" fill="#4F1F0E"/>
<path fill-rule="evenodd" clip-rule="evenodd" d="M157.804 139.252C158.093 139.444 158.333 139.684 158.525 139.973C157.624 140.754 156.782 141.619 156.002 142.568C153.618 145.628 151.743 148.993 150.38 152.659C150.099 153.163 149.763 153.21 149.37 152.804C149.287 152.406 149.334 152.022 149.515 151.65C150.54 149.387 151.645 147.175 152.83 145.019C154.154 142.806 155.812 140.884 157.804 139.252Z" fill="#A84B2A"/>
<path fill-rule="evenodd" clip-rule="evenodd" d="M279.916 139.252C280.722 139.842 281.467 140.515 282.15 141.27C284.853 144.632 286.944 148.356 288.422 152.443C288.207 153.196 287.846 153.268 287.34 152.659C286.08 149.37 284.445 146.293 282.439 143.433C281.432 142.18 280.304 141.074 279.051 140.117C279.292 139.781 279.58 139.493 279.916 139.252Z" fill="#A94B2B"/>
<path fill-rule="evenodd" clip-rule="evenodd" d="M224.268 147.758C224.289 147.909 224.265 148.053 224.196 148.19C223.429 148.859 222.78 149.604 222.25 150.425C222.397 151.438 222.588 152.423 222.826 153.38C224.886 166.194 227 179.001 229.17 191.8C229.131 192.021 229.082 192.237 229.025 192.449C225.842 195.32 222.718 198.275 219.655 201.315C219.272 201.631 218.84 201.726 218.357 201.604C215.252 198.57 212.129 195.568 208.986 192.593C208.714 192.41 208.57 192.146 208.554 191.8C210.77 179.056 212.884 166.297 214.897 153.524C215.275 152.359 215.419 151.158 215.33 149.92C214.535 149.32 213.911 148.599 213.455 147.758C215.157 144.491 216.959 141.271 218.862 138.098C220.763 141.27 222.565 144.491 224.268 147.758Z" fill="#1E1F26"/>
<path opacity="0.998" fill-rule="evenodd" clip-rule="evenodd" d="M173.518 156.84C176.985 160.648 180.421 164.491 183.826 168.373C183.469 172.115 183.131 175.863 182.817 179.618C182.7 183.465 182.749 187.31 182.961 191.152C183.159 196.603 184.504 201.745 186.998 206.578C188.144 208.613 189.705 210.247 191.683 211.479C191.796 211.574 191.891 211.694 191.972 211.84C191.487 212.938 191.102 214.069 190.818 215.228C186.962 225.641 183.19 236.117 179.501 246.656C179.187 247.351 178.876 248.023 178.564 248.674C175.4 248.232 172.877 246.693 170.995 244.061C170.527 243.365 170.094 242.644 169.698 241.898C165.56 245.369 160.778 247.243 155.353 247.521C149.794 247.348 145.301 245.09 141.874 240.745C141.148 239.66 140.452 238.554 139.783 237.429C134.618 238.839 129.765 238.143 125.222 235.339C121.162 232.183 118.879 228.027 118.375 222.868C117.894 217.247 119.071 212.01 121.907 207.154C122.05 207.15 122.147 207.222 122.195 207.371C121.316 209.239 120.667 211.185 120.249 213.209C120.153 215.852 120.153 218.496 120.249 221.138C121.064 224.14 122.577 226.735 124.79 228.923C124.802 227.489 124.826 226.047 124.862 224.598C125.198 224.214 125.535 224.214 125.871 224.598C125.816 226.563 126.056 228.485 126.592 230.365C126.832 230.557 127.073 230.75 127.313 230.942C127.267 230.515 127.267 230.083 127.313 229.644C127.562 229.489 127.826 229.466 128.106 229.572C128.421 230.183 128.638 230.832 128.755 231.518C128.923 231.687 129.091 231.854 129.259 232.023C129.754 232.15 130.234 232.319 130.701 232.528C130.749 232.359 130.797 232.192 130.845 232.023C130.461 230.124 130.486 228.226 130.917 226.328C131.166 226.173 131.43 226.15 131.71 226.256C131.729 227.759 131.753 229.272 131.782 230.798C131.843 231.428 131.939 232.053 132.07 232.672C132.475 232.937 132.931 233.034 133.44 232.96C133.007 229.406 133.608 226.043 135.242 222.868C135.781 222.584 136.094 222.729 136.179 223.301C135.908 224.084 135.596 224.852 135.242 225.608C134.477 228.057 134.261 230.555 134.593 233.104C136.491 233.158 138.27 232.748 139.927 231.879C140.884 231.48 141.677 231.696 142.306 232.528C143.194 234.112 144.323 235.506 145.694 236.708C145.742 236.564 145.79 236.42 145.838 236.276C145.24 232.332 145.264 228.391 145.91 224.454C146.652 224.118 146.964 224.359 146.847 225.175C146.136 229.444 146.304 233.672 147.352 237.862C147.812 238.297 148.317 238.682 148.866 239.015C148.914 238.943 148.962 238.871 149.01 238.799C148.484 237.178 148.123 235.521 147.929 233.825C147.717 229.34 148.437 225.015 150.091 220.85C150.557 220.432 150.917 220.504 151.172 221.066C150.198 223.452 149.549 225.926 149.226 228.491C148.545 232.399 149.026 236.148 150.668 239.736C151.242 239.984 151.843 240.128 152.47 240.168C151.044 233.003 151.789 226.083 154.705 219.408C156.528 215.278 159.22 211.818 162.778 209.028C162.533 207.669 162.197 206.324 161.769 204.992C160.318 197.956 160.847 191.084 163.355 184.376C164.478 181.745 165.967 179.343 167.824 177.168C168.965 176.121 170.094 175.087 171.212 174.068C170.432 168.198 171.105 162.503 173.23 156.984C173.296 156.869 173.391 156.821 173.518 156.84Z" fill="#4F1F0E"/>
<path opacity="0.998" fill-rule="evenodd" clip-rule="evenodd" d="M264.344 156.696C265.488 159.663 266.281 162.738 266.722 165.923C266.792 168.76 266.792 171.596 266.722 174.429C268.843 175.925 270.621 177.75 272.056 179.907C277.278 189.074 278.215 198.709 274.868 208.812C276.172 209.971 277.445 211.197 278.688 212.488C285.062 220.687 287.249 229.914 285.248 240.168C285.927 240.082 286.576 239.889 287.194 239.592C287.474 238.983 287.714 238.358 287.915 237.718C289.283 232.148 288.85 226.719 286.617 221.427C286.502 220.654 286.813 220.415 287.554 220.706C288.817 223.595 289.563 226.623 289.789 229.788C290.095 232.875 289.734 235.88 288.708 238.799C288.755 238.871 288.804 238.943 288.852 239.015C289.332 238.679 289.813 238.342 290.294 238.006C290.493 237.487 290.66 236.958 290.798 236.42C291.447 232.676 291.471 228.928 290.87 225.175C290.876 224.897 290.924 224.633 291.014 224.382C291.451 224.218 291.763 224.338 291.951 224.743C292.45 228.639 292.426 232.532 291.879 236.42C291.927 236.517 291.976 236.612 292.024 236.708C293.441 235.457 294.619 234.015 295.556 232.383C296.004 231.743 296.605 231.527 297.358 231.735C299.153 232.714 301.076 233.171 303.124 233.104C303.283 231.572 303.306 230.034 303.196 228.491C302.876 226.664 302.323 224.91 301.539 223.229C301.552 223.069 301.599 222.925 301.683 222.796C302.047 222.667 302.359 222.739 302.62 223.013C304.185 226.205 304.738 229.569 304.278 233.104C304.67 233.078 305.053 233.006 305.431 232.888C305.631 232.719 305.753 232.503 305.791 232.239C306.001 230.238 306.073 228.243 306.008 226.256C306.372 226.127 306.684 226.199 306.945 226.473C307.256 228.379 307.232 230.276 306.873 232.167C306.92 232.287 306.969 232.408 307.017 232.528C307.722 232.283 308.371 231.947 308.963 231.518C309.135 230.832 309.351 230.159 309.612 229.5C309.853 229.308 310.092 229.308 310.333 229.5C310.439 229.989 310.488 230.47 310.477 230.942C310.715 230.776 310.931 230.584 311.126 230.365C311.685 228.488 311.926 226.565 311.846 224.598C312.182 224.214 312.52 224.214 312.856 224.598C312.903 226.049 312.926 227.49 312.928 228.923C313.901 228.024 314.741 227.015 315.451 225.896C316.575 224.252 317.248 222.426 317.469 220.418C318.425 214.763 317.271 209.621 314.009 204.992C313.846 204.725 313.774 204.437 313.793 204.127C318.516 210.267 320.27 217.187 319.055 224.887C317.045 233.316 311.711 237.738 303.052 238.15C301.312 238.133 299.607 237.892 297.934 237.429C293.376 245.739 286.456 248.839 277.174 246.728C273.784 245.735 270.732 244.124 268.02 241.898C266.212 245.716 263.257 247.974 259.154 248.674C258.891 248.125 258.627 247.548 258.361 246.944C254.611 236.279 250.79 225.658 246.899 215.083C246.543 213.92 246.158 212.767 245.746 211.623C248.272 210.088 250.169 207.973 251.441 205.28C253.2 201.222 254.281 196.992 254.684 192.594C254.795 192.484 254.868 192.34 254.901 192.161C255.144 188.776 255.167 185.411 254.973 182.069C254.764 177.488 254.403 172.922 253.892 168.374C257.377 164.471 260.862 160.578 264.344 156.696Z" fill="#4F1F0E"/>
<path opacity="0.974" fill-rule="evenodd" clip-rule="evenodd" d="M143.103 166.211C143.051 166.481 142.907 166.697 142.67 166.86C141.551 167.69 140.518 168.627 139.57 169.671C134.321 176.021 132.831 183.182 135.101 191.152C135.62 192.618 136.172 194.06 136.759 195.477C136.631 196.838 135.91 197.342 134.597 196.99C134.253 196.656 133.868 196.392 133.443 196.198C131.49 192.507 130.745 188.565 131.209 184.376C132.382 176.458 136.347 170.403 143.103 166.211Z" fill="#4F1F0D"/>
<path opacity="0.978" fill-rule="evenodd" clip-rule="evenodd" d="M294.907 166.5C300.05 169.554 303.582 173.927 305.503 179.619C306.827 183.965 306.922 188.338 305.792 192.738C305.398 193.955 304.894 195.108 304.278 196.198C303.724 196.643 303.1 196.979 302.404 197.207C301.514 197.038 301.033 196.509 300.962 195.621C301.644 193.821 302.293 191.994 302.908 190.143C304.973 180.605 302.306 172.723 294.907 166.5Z" fill="#4F1F0D"/>
<path fill-rule="evenodd" clip-rule="evenodd" d="M212.154 183.367C212.708 183.296 212.996 183.536 213.019 184.088C212.757 185.426 212.541 186.771 212.37 188.125C212.072 188.435 211.735 188.482 211.361 188.269C211.363 186.581 211.627 184.946 212.154 183.367Z" fill="#F2F2F2"/>
<path fill-rule="evenodd" clip-rule="evenodd" d="M254.974 182.069C255.169 185.41 255.146 188.775 254.902 192.16C254.869 192.339 254.797 192.483 254.686 192.593C254.933 189.09 255.029 185.582 254.974 182.069Z" fill="#6B4436"/>
<path fill-rule="evenodd" clip-rule="evenodd" d="M211.147 189.71C212.213 189.726 212.405 190.135 211.723 190.936C210.857 190.859 210.664 190.45 211.147 189.71Z" fill="#E5E4E5"/>
<path fill-rule="evenodd" clip-rule="evenodd" d="M229.022 192.449C228.722 192.975 228.554 193.552 228.517 194.179C225.803 196.799 223.087 199.417 220.372 202.036C219.728 202.656 218.959 202.848 218.065 202.613C215.067 199.855 212.111 197.044 209.199 194.179C209.153 193.644 209.081 193.115 208.983 192.593C212.126 195.568 215.248 198.571 218.354 201.604C218.837 201.726 219.269 201.631 219.651 201.315C222.715 198.275 225.839 195.32 229.022 192.449Z" fill="#C7C3C0"/>
<path fill-rule="evenodd" clip-rule="evenodd" d="M300.818 200.091C302.296 200.239 303.643 200.744 304.855 201.604C308.097 203.886 310.62 206.793 312.424 210.326C313.101 211.644 313.439 213.038 313.433 214.507C313.097 214.892 312.76 214.892 312.424 214.507C311.811 211.409 310.466 208.67 308.387 206.29C306.705 204.331 304.711 202.769 302.404 201.604C301.933 201.431 301.451 201.287 300.962 201.172C300.644 200.849 300.595 200.488 300.818 200.091Z" fill="#A94B2B"/>
<path fill-rule="evenodd" clip-rule="evenodd" d="M188.657 204.271C188.902 204.248 189.143 204.272 189.378 204.343C190.398 206.166 191.768 207.68 193.486 208.884C193.582 209.605 193.27 209.869 192.549 209.677C190.913 208.427 189.593 206.913 188.585 205.136C188.487 204.833 188.511 204.545 188.657 204.271Z" fill="#FCFCFC"/>
<path fill-rule="evenodd" clip-rule="evenodd" d="M248.343 204.271C248.588 204.248 248.829 204.272 249.064 204.343C249.148 204.471 249.195 204.615 249.208 204.775C248.954 205.401 248.643 206.002 248.271 206.577C247.334 207.706 246.3 208.74 245.171 209.677C244.422 209.763 244.133 209.451 244.306 208.74C246.061 207.61 247.407 206.12 248.343 204.271Z" fill="#FCFCFB"/>
<path fill-rule="evenodd" clip-rule="evenodd" d="M225.852 207.299C219.887 207.043 213.928 207.139 207.976 207.588C209.719 207.285 211.498 207.116 213.31 207.083C217.011 206.987 220.71 206.987 224.411 207.083C224.919 207.109 225.4 207.181 225.852 207.299Z" fill="#ACA8A7"/>
<path fill-rule="evenodd" clip-rule="evenodd" d="M225.854 207.299C230.262 207.609 234.636 208.21 238.973 209.101C241.4 209.526 243.66 210.367 245.749 211.624C246.161 212.767 246.546 213.921 246.902 215.084C246.906 215.228 246.834 215.323 246.686 215.372C241.539 213.5 236.349 212.346 231.116 211.912C220.202 210.59 209.365 210.998 198.606 213.138C195.956 213.697 193.386 214.49 190.893 215.517C190.827 215.432 190.802 215.335 190.821 215.228C191.105 214.069 191.49 212.939 191.974 211.84C191.894 211.695 191.798 211.575 191.686 211.48C192.61 211.111 193.523 210.703 194.425 210.254C198.857 208.931 203.374 208.042 207.977 207.587C213.93 207.139 219.888 207.042 225.854 207.299Z" fill="#17181D"/>
<path fill-rule="evenodd" clip-rule="evenodd" d="M246.903 215.082C250.794 225.657 254.614 236.278 258.364 246.943C258.631 247.547 258.895 248.124 259.157 248.673C260.871 253.256 262.506 257.87 264.059 262.513C262.084 263.192 261.195 264.585 261.392 266.694C282.731 329.535 303.996 392.391 325.185 455.264C321.469 458.159 317.432 460.585 313.075 462.544C307.337 465.145 301.427 467.26 295.343 468.888C295.222 469.033 295.174 469.202 295.199 469.392C295.095 469.332 295.023 469.237 294.982 469.104C291.359 470.045 287.683 470.717 283.954 471.122C263.049 398.318 242.121 325.514 221.169 252.71C220.938 251.985 220.578 251.336 220.088 250.764C219.384 250.54 218.663 250.491 217.925 250.619C217.127 251.327 216.622 252.217 216.412 253.286C195.587 325.897 174.683 398.461 153.699 470.978C153.457 470.818 153.241 470.818 153.05 470.978C149.587 470.632 146.175 470.006 142.815 469.104C142.716 469.211 142.62 469.307 142.526 469.392C142.526 469.248 142.526 469.104 142.526 468.96C132.454 466.47 123.083 462.409 114.414 456.778C113.726 456.339 113.101 455.835 112.54 455.264C133.765 392.427 155.03 329.62 176.333 266.838C176.613 264.606 175.676 263.212 173.522 262.657C175.232 258.006 176.914 253.346 178.568 248.673C178.879 248.022 179.191 247.35 179.505 246.655C183.194 236.116 186.966 225.64 190.822 215.227C190.803 215.333 190.828 215.43 190.894 215.515C193.387 214.488 195.957 213.695 198.607 213.136C209.366 210.997 220.203 210.589 231.117 211.911C236.35 212.345 241.54 213.498 246.687 215.371C246.835 215.322 246.907 215.227 246.903 215.082Z" fill="#1E1F25"/>
<path opacity="0.989" fill-rule="evenodd" clip-rule="evenodd" d="M283.952 471.124C281.359 471.272 278.764 471.297 276.167 471.196C274.124 471.033 272.153 470.577 270.256 469.826C253.152 399.95 236.021 330.078 218.861 260.208C201.728 330.083 184.597 399.956 167.465 469.826C165.568 470.577 163.597 471.033 161.555 471.196C158.709 471.334 155.874 471.262 153.049 470.979C153.239 470.819 153.455 470.819 153.698 470.979C174.681 398.462 195.585 325.899 216.41 253.288C216.621 252.218 217.125 251.329 217.924 250.621C218.662 250.492 219.383 250.542 220.086 250.765C220.576 251.337 220.937 251.986 221.168 252.711C242.119 325.515 263.048 398.319 283.952 471.124Z" fill="#16171D"/>
<path opacity="0.992" fill-rule="evenodd" clip-rule="evenodd" d="M173.521 262.658C175.674 263.213 176.612 264.607 176.332 266.839C155.028 329.62 133.764 392.428 112.538 455.264C112.136 455.032 111.752 454.767 111.385 454.472C110.238 453.353 109.084 452.272 107.925 451.228C107.467 450.601 107.082 449.927 106.771 449.21C129.022 387.023 151.271 324.84 173.521 262.658Z" fill="#292A31"/>
<path opacity="0.992" fill-rule="evenodd" clip-rule="evenodd" d="M264.058 262.514C286.245 324.294 308.422 386.094 330.591 447.913C330.84 448.42 330.937 448.948 330.879 449.498C330.513 450.33 330.008 451.051 329.365 451.661C328.022 452.908 326.628 454.109 325.185 455.265C303.995 392.393 282.73 329.536 261.391 266.695C261.195 264.586 262.083 263.193 264.058 262.514Z" fill="#292A31"/>
<path opacity="0.996" fill-rule="evenodd" clip-rule="evenodd" d="M107.925 451.229C109.085 452.272 110.238 453.354 111.385 454.472C111.752 454.768 112.137 455.033 112.539 455.265C113.1 455.836 113.725 456.341 114.413 456.779C123.082 462.41 132.453 466.471 142.525 468.961C142.525 469.105 142.525 469.249 142.525 469.394C141.01 472.616 139.424 475.787 137.768 478.908C135.438 478.832 133.131 478.735 130.848 478.62C131.472 478.62 132.097 478.62 132.722 478.62C133.777 475.893 134.81 473.153 135.821 470.403C135.929 470.238 135.905 470.094 135.749 469.97C127.502 467.769 119.861 464.237 112.827 459.374C111.503 458.352 110.205 457.294 108.934 456.202C108.473 455.621 107.993 455.069 107.493 454.544C107.814 453.702 108.15 452.86 108.502 452.021C108.336 451.736 108.144 451.472 107.925 451.229Z" fill="#D9B19C"/>
<path opacity="0.996" fill-rule="evenodd" clip-rule="evenodd" d="M329.363 451.661C329.357 451.817 329.31 451.961 329.219 452.093C329.549 452.801 329.837 453.522 330.084 454.256C330.106 454.407 330.081 454.551 330.012 454.688C328.885 456.055 327.612 457.281 326.192 458.365C321.843 461.644 317.135 464.336 312.063 466.438C308.684 467.717 305.271 468.895 301.827 469.97C302.883 472.85 303.939 475.734 304.999 478.62C306.777 478.483 308.556 478.339 310.333 478.188C308.975 478.483 307.582 478.652 306.152 478.692C304.085 478.741 302.018 478.813 299.953 478.908C298.343 475.722 296.757 472.551 295.196 469.393C295.171 469.203 295.219 469.034 295.34 468.889C301.424 467.261 307.335 465.146 313.072 462.545C317.429 460.586 321.466 458.16 325.182 455.265C326.625 454.109 328.02 452.908 329.363 451.661Z" fill="#D8B09C"/>
<path opacity="0.997" fill-rule="evenodd" clip-rule="evenodd" d="M107.492 454.543C107.992 455.068 108.473 455.62 108.934 456.201C110.205 457.293 111.502 458.351 112.826 459.373C119.86 464.236 127.501 467.768 135.749 469.969C135.905 470.093 135.929 470.237 135.821 470.402C134.809 473.152 133.776 475.892 132.721 478.619C132.097 478.619 131.472 478.619 130.847 478.619C122.748 478.109 115.059 476.066 107.78 472.492C105.655 471.335 103.685 469.965 101.87 468.383C103.744 463.77 105.618 459.157 107.492 454.543Z" fill="#EFD1BD"/>
<path opacity="0.997" fill-rule="evenodd" clip-rule="evenodd" d="M330.082 454.255C332.079 458.922 334 463.632 335.849 468.384C332.964 470.837 329.744 472.784 326.189 474.222C321.071 476.223 315.785 477.544 310.331 478.187C308.553 478.338 306.774 478.483 304.997 478.62C303.937 475.733 302.88 472.85 301.825 469.97C305.269 468.894 308.682 467.716 312.061 466.437C317.133 464.335 321.841 461.644 326.189 458.364C327.609 457.28 328.882 456.055 330.01 454.688C330.079 454.551 330.103 454.407 330.082 454.255Z" fill="#EFD1BD"/>
<path fill-rule="evenodd" clip-rule="evenodd" d="M106.775 462.329C107.058 462.294 107.323 462.342 107.568 462.473C107.662 462.918 107.614 463.351 107.424 463.77C106.663 465.339 105.942 466.925 105.261 468.528C104.513 468.741 104.225 468.453 104.396 467.663C105.177 465.871 105.97 464.092 106.775 462.329Z" fill="#FCEADE"/>
<path fill-rule="evenodd" clip-rule="evenodd" d="M330.228 462.329C330.473 462.306 330.714 462.33 330.949 462.401C331.761 464.144 332.554 465.899 333.328 467.663C333.514 468.414 333.249 468.703 332.535 468.528C331.704 466.82 330.912 465.09 330.156 463.338C330.055 462.988 330.078 462.652 330.228 462.329Z" fill="#FCEADF"/>
<path d="M224.893 182.971L202.795 186.87L406.29 345.611L419.193 331.675C421.632 329.042 421.228 324.871 418.33 322.754L227.947 183.68C227.068 183.037 225.965 182.781 224.893 182.971Z" fill="#6B2BA6"/>
<path opacity="0.29" d="M154.351 515.781C149.687 515.781 145.91 519.264 145.91 523.507C145.91 527.749 149.687 531.233 154.351 531.233L263.635 542.444C268.286 542.444 302.059 523.887 302.059 519.645C302.059 515.402 291.198 515.781 286.547 515.781H154.351Z" fill="black"/>
<path d="M455.871 470.89C456.381 470.578 456.942 470.359 457.529 470.246L516.318 458.83C520.76 457.968 521.863 452.12 518.041 449.698L417.652 386.098C416.639 385.456 415.431 385.2 414.245 385.375L293.626 403.194C293.215 403.254 292.812 403.366 292.428 403.527L209.313 438.272C208.264 438.71 207.396 439.494 206.851 440.492L166.336 514.829C164.521 518.161 166.932 522.222 170.727 522.222H370.618C371.539 522.222 372.443 521.967 373.229 521.486L455.871 470.89Z" fill="#0E001C" fill-opacity="0.25"/>
<path d="M395.801 466.921L372.025 510.278V522.865L395.801 479.508V466.921Z" fill="#89749D"/>
<path d="M372.027 510.278H34.9658V522.865H372.027V510.278Z" fill="#BBBCBE"/>
<path d="M321.678 205.051H279.72V279.177H321.678V205.051Z" fill="#9F54E5"/>
<path d="M321.678 205.051H279.72V213.443H321.678V205.051Z" fill="#6B2BA6"/>
<path d="M395.801 466.921C395.801 460.343 390.491 454.999 383.913 454.957L84.2398 453.045C74.8087 452.984 67.1313 460.613 67.1313 470.044V478.799L372.025 510.278L395.801 466.921Z" fill="#9F4ECE"/>
<path d="M372.027 502.103C372.027 492.714 364.416 485.103 355.027 485.103H51.9658C42.5769 485.103 34.9658 492.714 34.9658 502.103V510.278H372.027V502.103Z" fill="#C883EF"/>
<path d="M61.3452 308.521L41.3125 314.48L24.5974 328.299L7.9524 348.14H54.5188L61.3452 308.521Z" fill="#6218A8"/>
<path d="M383.216 455.033L362.237 489.299L350.349 302.586L383.216 317.272V455.033Z" fill="#D5B3EA"/>
<path opacity="0.2" d="M173.928 507.481C169.803 507.481 166.434 510.943 166.434 515.192C166.434 519.409 169.803 522.865 173.928 522.865H299.275C301.511 521.583 300.673 520.301 299.731 515.192C298.79 510.083 295.087 507.481 290.975 507.481H173.928Z" fill="black"/>
<path opacity="0.2" d="M161.285 493.494C157.189 493.494 153.844 496.642 153.844 500.504C153.844 504.338 157.189 507.48 161.285 507.48H288.109C288.109 505.732 288.109 504.338 288.109 500.504C288.109 496.642 281.571 493.494 277.488 493.494H161.285Z" fill="black"/>
<path d="M141.616 520.069C136.934 520.069 122.378 524.964 122.378 530.558C122.378 535.55 133.862 538.25 138.544 538.25C138.544 538.25 258.741 542.41 263.636 542.446C268.531 542.482 275.524 531.921 277.622 528.424C279.72 524.928 283.047 523.312 283.916 517.272C283.916 512.279 280.124 508.181 275.455 508.181H260.139L141.616 520.069Z" fill="#606060"/>
<path d="M158.042 495.593C153.847 495.593 132.868 506.415 132.868 510.278C132.868 514.112 141.889 518.669 146.085 518.669C146.085 518.669 258.042 521.467 260.839 520.767C263.636 520.068 267.133 515.872 270.629 511.676C274.126 507.481 274.723 506.437 274.723 502.603C274.723 498.74 271.315 495.593 267.133 495.593H158.042Z" fill="#787878"/>
<path d="M362.236 319.036L204.323 194.195L46.1536 319.036V489.298H362.21L362.236 319.036Z" fill="white"/>
<path opacity="0.2" d="M224.001 482.306C222.338 482.306 220.979 484.824 220.979 487.914C220.979 490.981 222.338 493.495 224.001 493.495H275.524C275.524 492.096 275.524 490.981 275.524 487.914C275.524 484.824 272.868 482.306 271.209 482.306H224.001Z" fill="black"/>
<path d="M46.8536 348.04L46.1543 315.155L198.964 194.685L230.769 215.173L46.8536 348.04Z" fill="#D5B3EA"/>
<path d="M211.888 206.782L46.1546 327.061L39.1616 320.768L202.797 200.489L211.888 206.782Z" fill="#6218A8"/>
<path d="M209.367 187.87C210.062 188.157 210.742 188.538 211.39 189.015L404.188 331.738C408.284 334.73 409.611 340.459 407.155 344.497C404.686 348.51 399.346 349.327 395.263 346.284L204.2 204.871L13.1369 346.29C9.02191 349.333 3.71389 348.517 1.24488 344.504C-1.23049 340.465 0.10289 334.736 4.20511 331.744L197.004 189.021C200.168 186.705 205.812 186.165 209.367 187.87Z" fill="#C971FF"/>
<path d="M169.231 489.298V431.357C169.231 410.796 184.265 394.194 202.794 394.194C221.355 394.194 236.364 410.796 236.364 431.357V489.298H169.231Z" fill="#4E6B78"/>
<path d="M214.684 396.66C211.205 395.344 206.816 393.866 203.094 393.863C184.371 393.863 169.23 410.465 169.23 431.026V488.968H176.959V431.026C176.959 414.661 183.981 394.665 214.684 396.66Z" fill="#405967"/>
<path d="M158.741 483.005C155.08 483.005 141.958 485.802 141.958 492.795C141.958 497.477 148.444 498.389 152.105 498.389C152.105 498.389 252.447 503.284 253.146 503.284C253.845 503.284 260.139 499.089 262.237 496.991C264.335 494.893 265.034 494.194 265.034 489.998C265.034 485.802 260.323 483.005 256.643 483.005H158.741Z" fill="#939393"/>
<path d="M268.185 201.608C268.185 205.429 271.828 208.523 276.332 208.523H324.136C328.64 208.523 332.283 205.423 332.283 201.608C332.283 197.792 328.64 194.692 324.136 194.692H276.332C271.828 194.692 268.185 197.786 268.185 201.608Z" fill="#C971FF"/>
<path d="M147.909 486.501C144.248 486.501 141.258 490.259 141.258 494.879C141.258 499.561 144.248 503.284 147.909 503.284H252.09C255.763 503.284 258.74 499.561 258.74 494.879C258.74 490.259 255.769 486.501 252.09 486.501H147.909Z" fill="#BBBCBE"/>
<path d="M139.09 506.081C134.895 506.081 131.468 509.544 131.468 513.793C131.468 518.01 134.895 521.466 139.09 521.466H258.142C262.325 521.466 265.733 518.01 265.733 513.793C265.733 509.544 262.325 506.081 258.142 506.081H139.09Z" fill="#999999"/>
<path d="M130.152 524.264C125.47 524.264 121.679 528.362 121.679 533.355C121.679 538.347 125.47 542.445 130.152 542.445H262.867C267.536 542.445 271.328 538.347 271.328 533.355C271.328 528.362 267.536 524.264 262.867 524.264H130.152Z" fill="#7C7D7E"/>
<path d="M233.995 449.869C232.565 448.261 230.599 447.725 228.99 447.546C228.097 448.142 226.845 450.048 226.309 451.657C225.773 453.265 226.667 454.159 227.739 455.232L227.739 455.232C228.812 456.304 232.029 457.019 233.637 455.41C235.246 453.802 235.425 451.478 233.995 449.869Z" fill="#405967"/>
<circle cx="228.454" cy="450.176" r="2.8087" fill="#A27629"/>
<circle cx="226.309" cy="450.941" r="3.93217" fill="#E2AA49"/>
<path d="M227.292 454.749C228.302 453.793 228.932 452.441 228.932 450.941C228.932 449.44 228.302 448.087 227.292 447.132C228.989 447.568 230.243 449.108 230.243 450.94C230.243 452.773 228.989 454.313 227.292 454.749Z" fill="#B98833"/>
<path d="M225.652 447.731C224.157 448.035 223.031 449.357 223.031 450.942C223.031 451.675 223.272 452.351 223.678 452.897C223.906 453.203 224.183 452.808 224.022 452.462C223.807 452 223.687 451.485 223.687 450.942C223.687 449.541 224.485 448.327 225.652 447.731Z" fill="#D9D9D9"/>
<path d="M68.5319 422.768C68.5319 430.744 75.4324 437.218 83.9676 437.218H125.83C134.365 437.218 141.259 430.738 141.259 422.768V364.955C141.259 356.948 134.371 350.505 125.83 350.505H83.9676C75.4389 350.505 68.5319 356.922 68.5319 364.955V422.768Z" fill="#28A6DE"/>
<rect x="102.097" y="350.505" width="5.59438" height="86.7128" fill="#D1D5FF"/>
<rect x="68.5317" y="396.66" width="5.59437" height="72.7269" transform="rotate(-90 68.5317 396.66)" fill="#D1D5FF"/>
<path d="M260.14 422.77C260.14 430.745 267.04 437.22 275.576 437.22H317.437C325.973 437.22 332.867 430.739 332.867 422.77V364.957C332.867 356.949 325.979 350.507 317.437 350.507H275.576C267.047 350.507 260.14 356.923 260.14 364.957V422.77Z" fill="#28A6DE"/>
<rect x="260.14" y="396.661" width="5.59437" height="72.7269" transform="rotate(-90 260.14 396.661)" fill="#D1D5FF"/>
<rect x="293.705" y="350.507" width="5.59438" height="86.7128" fill="#D1D5FF"/>
<circle cx="204.197" cy="297.359" r="36.3634" fill="#28A6DE"/>
<path d="M216.783 297.359C216.783 304.311 211.147 309.946 204.195 309.946C197.243 309.946 191.608 304.311 191.608 297.359C191.608 290.407 197.243 284.771 204.195 284.771C211.147 284.771 216.783 290.407 216.783 297.359ZM196.643 297.359C196.643 301.53 200.024 304.911 204.195 304.911C208.366 304.911 211.748 301.53 211.748 297.359C211.748 293.188 208.366 289.806 204.195 289.806C200.024 289.806 196.643 293.188 196.643 297.359Z" fill="#D1D5FF"/>
<path d="M243.356 297.359C243.356 318.987 225.824 336.52 204.196 336.52C182.568 336.52 165.035 318.987 165.035 297.359C165.035 275.731 182.568 258.198 204.196 258.198C225.824 258.198 243.356 275.731 243.356 297.359ZM170.909 297.359C170.909 315.743 185.812 330.646 204.196 330.646C222.579 330.646 237.482 315.743 237.482 297.359C237.482 278.975 222.579 264.073 204.196 264.073C185.812 264.073 170.909 278.975 170.909 297.359Z" fill="#D1D5FF"/>
<rect x="201.399" y="260.996" width="5.59438" height="26.5733" fill="#D1D5FF"/>
<rect x="167.833" y="300.156" width="5.59438" height="26.5733" transform="rotate(-90 167.833 300.156)" fill="#D1D5FF"/>
<rect x="201.399" y="305.75" width="5.59438" height="26.5733" fill="#D1D5FF"/>
<rect x="212.587" y="300.156" width="5.59438" height="26.5733" transform="rotate(-90 212.587 300.156)" fill="#D1D5FF"/>
</svg>
