<svg width="596" height="534" viewBox="0 0 596 534" fill="none" xmlns="http://www.w3.org/2000/svg">
<path d="M311 164.5C311 240.999 248.995 303 172.5 303C96.0092 303 34 241.017 34 164.5C34 88.0179 95.9963 26 172.5 26C248.973 26 311 87.9963 311 164.5Z" fill="url(#paint0_linear_2898_27680)"/>
<path opacity="0.2" d="M101.038 204.652C76.0785 151.837 74.9566 94.9956 97.5313 48C59.2805 72.83 34 115.508 34 164.053C34 240.795 97.0517 303 174.878 303C176.268 303 177.627 302.831 179 302.796C146.706 275.992 119.494 243.737 101.055 204.687" fill="#2A0848"/>
<path d="M251.137 218.503C250.251 225.822 243.125 226.894 239.653 231.627C241.133 239.922 233.728 253.355 242.119 254.607C250.083 255.803 251.559 230.538 252.785 220.143C251.696 220.125 252.036 218.697 251.137 218.495M239.193 43.0836C234.576 46.6075 226.375 41.7111 221.702 40.9753C216.892 42.9933 212.619 45.5706 206.918 46.7194C205.998 49.1074 207.103 52.6528 207.749 55.7378C212.955 58.9691 220.102 57.5965 227.434 57.3814C225.889 65.6382 226.328 73.2712 220.05 75.4354C212.331 78.0901 202.099 70.8832 193.813 70.5175C190.194 71.2919 191.141 76.5971 187.225 77.0747C180.797 73.112 172.596 70.9262 167.549 65.5866C169.072 63.4439 168.706 57.7514 166.723 56.5596C152.769 55.8325 140.468 64.2872 129.802 61.4862C128.472 66.189 124.423 68.1424 121.601 71.335C122.961 84.57 108.004 87.8873 105.182 98.4073C103.259 105.576 107.071 114.667 103.547 123.023C112.195 130.712 112.669 147.664 125.701 149.282C134.449 150.366 141.712 145.668 151.939 144.356C155.872 147.453 156.943 151.248 164.257 149.282C168.044 153.735 162.726 165.219 165.905 169.797C171.895 178.446 176.395 184.495 174.924 195.23C174.309 199.718 170.565 203.728 170.823 208.366C171.008 211.899 173.994 214.975 174.924 218.202C178.056 229.208 179.158 242.383 185.577 251.853C186.188 254.353 184.183 254.263 184.76 256.771C189.475 260.416 204.044 258.032 208.562 255.128C217.826 249.216 216.178 234.428 224.964 228.873C226.323 224.747 224.284 221.399 224.164 216.576C227.107 211.856 232.468 209.567 236.461 205.905C239.907 194.146 233.264 186.393 234.012 174.719C243.474 159.303 258.886 149.829 263.533 129.589C258.393 130.928 253.192 132.022 247.949 132.867C240.97 125.639 235.677 116.702 229.912 108.256C231.25 95.3051 218.6 87.9906 220.876 79.5358C222.563 79.7682 221.625 82.5993 223.325 82.8145C226.827 75.7065 229.129 90.4173 230.712 93.4851C231.34 94.6941 234.03 95.3266 234.821 96.7637C235.884 98.7214 234.963 101.204 235.643 103.325C237.295 108.562 242.923 110.876 243.844 116.457C244.627 121.216 243.47 123.152 245.496 125.48C260.9 119.568 277.082 114.422 282.417 98.4073C278.162 96.9143 275.735 93.6013 273.377 90.2022C271.407 93.4249 268.395 95.5934 263.529 95.9419C261.691 89.0232 257.01 84.9744 255.328 77.8879C262.578 74.6308 263.58 84.3032 268.464 86.0931H275.851C277.706 90.5722 283.549 91.0799 289.904 91.0713C277.4 71.0682 259.979 54.4427 239.193 43.0836Z" fill="url(#paint1_linear_2898_27680)"/>
<path d="M141.289 35.2317C139.624 35.4684 139.667 37.4519 137.998 37.6885C132.861 38.2221 127.542 35.3307 123.218 37.6885C123.73 43.6563 122.607 47.9977 122.418 53.2771C128.153 59.2836 137.034 57.9498 142.92 52.4682C142.443 49.8005 143.48 48.6388 143.738 46.7198C149.598 46.0185 150.372 40.2056 153.574 36.871C158.862 37.766 160.669 35.1887 164.257 34.4099C169.618 41.3673 179.6 43.6735 182.307 53.2771C183.395 49.8866 182.853 45.6442 186.407 46.7198C180.637 43.6865 168.629 35.7911 174.923 28.6615C182.87 34.496 188.821 46.0443 195.615 51.3452C195.701 51.143 195.903 50.9537 196.26 50.816C200.886 53.6902 194.027 53.7246 194.625 57.3775C197.306 57.0634 198.222 54.9767 200.361 54.0946C200.511 50.6568 196.325 51.5603 197.065 47.5373C200.085 45.0676 206.195 45.7044 209.366 43.4326C208.662 39.3924 209.589 35.2378 211.944 31.8799C199.369 28.1714 186.329 26.2777 173.22 26.2563C162.14 26.2563 151.448 27.702 141.135 30.1632C141.483 31.5615 141.604 33.1922 141.307 35.2317" fill="url(#paint2_linear_2898_27680)"/>
<path opacity="0.29" d="M209.466 179.354C210.425 179.354 211.202 180.071 211.202 180.943C211.202 181.816 210.425 182.532 209.466 182.532L184.782 183.461C183.825 183.461 179.086 181.022 179.086 180.149C179.086 179.276 181.32 179.354 182.276 179.354H209.466Z" fill="black"/>
<path opacity="0.2" d="M152.835 172.581C149.294 170.292 150.001 164.918 154.014 163.624L163.666 160.511C164.663 160.189 165.736 160.189 166.733 160.51L185.823 166.657C186.24 166.791 186.637 166.98 187.005 167.217L193.599 171.48C197.784 174.186 195.868 180.679 190.884 180.679H166.838C165.875 180.679 164.932 180.401 164.124 179.878L152.835 172.581Z" fill="black"/>
<path d="M165.176 178.295H233.524V180.944H165.176V178.295Z" fill="#BBBCBE"/>
<path d="M174.936 115.325H183.781V130.637H174.936V115.325Z" fill="#6218A8"/>
<path d="M165.18 178.27C165.18 175.332 167.561 172.95 170.499 172.95H228.106C231.044 172.95 233.425 175.332 233.425 178.27H165.18Z" fill="#C883EF"/>
<path d="M169.774 136.727L165.646 137.953L162.205 140.795L158.793 144.876H168.372L169.774 136.727ZM228.594 136.727L232.714 137.953L236.152 140.795L239.575 144.876H229.998L228.594 136.727Z" fill="#6218A8"/>
<path opacity="0.2" d="M205.498 177.235C206.342 177.235 207.032 178.07 207.032 179.094C207.032 180.111 206.342 180.944 205.498 180.944H180.011C179.169 180.944 179.746 180.111 179.746 179.094C179.746 178.07 180.696 177.235 181.538 177.235H205.498Z" fill="black"/>
<path opacity="0.2" d="M208.146 174.055C208.991 174.055 209.681 174.771 209.681 175.649C209.681 176.52 208.991 177.234 208.146 177.234H181.975C181.975 176.837 181.975 176.52 181.975 175.649C181.975 174.771 183.324 174.055 184.166 174.055H208.146Z" fill="black"/>
<path d="M209.791 174.019C210.543 174.019 211.157 174.728 211.157 175.601C211.157 176.485 210.543 177.189 209.791 177.189H188.393C187.639 177.189 187.027 176.485 187.027 175.601C187.027 174.728 187.638 174.019 188.393 174.019H209.791Z" fill="#BBBCBE"/>
<path d="M211.167 177.191C212.027 177.191 212.729 177.907 212.729 178.786C212.729 179.659 212.027 180.374 211.167 180.374H186.78C185.923 180.374 185.225 179.659 185.225 178.786C185.225 177.907 185.923 177.191 186.78 177.191H211.167Z" fill="#999999"/>
<path d="M212.704 180.369C213.663 180.369 214.44 181.085 214.44 181.958C214.44 182.83 213.663 183.547 212.704 183.547H185.515C184.558 183.547 183.781 182.83 183.781 181.958C183.781 181.085 184.558 180.369 185.515 180.369H212.704Z" fill="#7C7D7E"/>
<path d="M166.793 139.278L199.023 113.64L231.306 139.278V174.243H166.798L166.793 139.278Z" fill="#E7E5E5"/>
<path d="M219.409 174.243H231.305V138.451L199.615 113.64L198.071 114.499L219.412 138.869L219.409 174.243Z" fill="#D1D2D2"/>
<path d="M200.173 112.519C200.685 113.343 200.405 114.52 199.568 115.143L159.914 144.493C159.075 145.119 157.976 144.951 157.468 144.125C156.963 143.295 157.236 142.116 158.079 141.501L197.732 112.146C198.572 111.528 199.67 111.696 200.176 112.524" fill="#8F27CE"/>
<path d="M198.241 112.519C197.736 113.343 198.013 114.52 198.852 115.143L238.506 144.494C239.352 145.12 240.444 144.952 240.952 144.126C241.461 143.296 241.187 142.117 240.343 141.502L200.689 112.147C199.843 111.528 198.747 111.696 198.242 112.524" fill="#8F27CE"/>
<path d="M206.234 174.272V162.384C206.234 158.166 203.13 154.759 199.303 154.759C195.47 154.759 192.371 158.166 192.371 162.384V174.272H206.234Z" fill="#4E6B78"/>
<path d="M201.537 155.174C200.824 154.904 200.069 154.765 199.307 154.765C195.474 154.765 192.375 158.171 192.375 162.39V174.278H196.831V162.39C196.831 159.032 198.798 156.191 201.537 155.174Z" fill="#405967"/>
<path d="M186.051 114.736C186.051 115.522 185.301 116.158 184.375 116.158H174.543C173.616 116.158 172.867 115.521 172.867 114.736C172.867 113.951 173.616 113.313 174.543 113.313H184.375C185.301 113.313 186.051 113.95 186.051 114.736Z" fill="#8F27CE"/>
<path d="M186.17 160.673C186.17 162.303 184.769 163.627 183.038 163.627H174.535C172.806 163.627 171.4 162.302 171.4 160.673V148.85C171.4 147.219 172.806 145.897 174.535 145.897H183.038C184.767 145.897 186.17 147.222 186.17 148.85V160.673ZM226.978 160.102C226.978 161.733 225.577 163.057 223.844 163.057H215.342C213.609 163.057 212.209 161.732 212.209 160.102V148.28C212.209 146.642 213.608 145.325 215.342 145.325H223.844C225.576 145.325 226.978 146.637 226.978 148.28V160.102Z" fill="#28A6DE"/>
<path opacity="0.7" d="M581.657 492.889C616.671 504.335 586.85 533.289 500.181 533.289C347.332 533.289 171.588 493.875 171.588 484.135C171.588 480.037 200.759 473.462 259.123 481.442C284.468 484.907 370.967 492.317 393.119 492.889C414.318 493.436 355.412 488.848 358.105 481.442C371.46 475.192 429.12 481.442 448.334 481.442C549.336 484.135 546.642 481.442 581.657 492.889Z" fill="#0E001C" fill-opacity="0.25"/>
<path opacity="0.7" d="M298.881 425.105C298.881 434.762 244.622 442.591 177.689 442.591C110.756 442.591 0 426.534 0 416.876C0 407.219 54.2598 399.39 121.193 399.39C188.126 399.39 298.881 415.448 298.881 425.105Z" fill="#0E001C" fill-opacity="0.25"/>
<path opacity="0.243" fill-rule="evenodd" clip-rule="evenodd" d="M464.861 25.6001C465.095 25.932 465.205 26.3163 465.19 26.7531C464.956 26.4212 464.846 26.0369 464.861 25.6001Z" fill="#52290D"/>
<path opacity="0.998" fill-rule="evenodd" clip-rule="evenodd" d="M443.775 54.0962C443.732 54.4711 443.513 54.6633 443.116 54.6727C442.226 54.7999 441.347 54.745 440.48 54.508C435.494 51.6641 431.404 47.8482 428.209 43.0599C427.591 41.9878 427.015 40.8896 426.479 39.7655C426.204 39.7107 425.931 39.6557 425.656 39.6008C413.898 40.7204 402.203 42.2304 390.57 44.1306C386.5 44.6231 382.436 45.1446 378.381 45.6955C378.579 45.1241 378.579 44.575 378.381 44.0483C378.399 43.9466 378.453 43.8643 378.546 43.8012C394.548 41.828 410.552 39.8787 426.562 37.9536C426.744 37.9676 426.909 38.0226 427.056 38.1183C429.843 44.9122 434.427 50.1009 440.81 53.6844C441.436 54.0885 442.123 54.3355 442.869 54.4256C443.228 54.4429 443.529 54.3332 443.775 54.0962Z" fill="#E6B290"/>
<path opacity="0.999" fill-rule="evenodd" clip-rule="evenodd" d="M443.775 54.096C445.202 52.0416 447.123 50.6415 449.541 49.8956C451.947 49.4802 453.814 50.2764 455.141 52.284C455.532 58.9345 453.693 64.8644 449.623 70.0738C447.574 72.3766 445.021 73.3649 441.964 73.0388C441.8 73.0668 441.69 73.0124 441.634 72.8741C441.387 72.2893 440.947 72.0966 440.316 72.2976C437.243 77.7877 433.042 82.2071 427.715 85.5575C425.984 89.2407 424.254 92.9189 422.527 96.5938C416.191 96.0519 409.878 95.393 403.584 94.6172C406.132 92.092 408.741 89.6212 411.408 87.2047C411.84 86.6727 412.087 86.0682 412.149 85.3928C410.168 85.6415 408.191 85.943 406.219 86.2988C403.778 86.4454 401.362 86.5821 398.972 86.7106C394.995 85.999 391.673 84.1327 389.006 81.1101C388.184 80.2321 387.443 79.2982 386.782 78.3098C386.871 78.3 386.927 78.2456 386.947 78.1451C382.85 71.8133 380.297 64.8942 379.287 57.3904C379.194 57.0242 379.057 56.6948 378.876 56.4021C378.456 52.8482 378.291 49.2792 378.382 45.6952C382.437 45.1444 386.501 44.6229 390.571 44.1304C402.203 42.2302 413.899 40.7202 425.656 39.6006C425.931 39.6554 426.205 39.7105 426.48 39.7653C427.015 40.8894 427.592 41.9875 428.209 43.0597C431.405 47.848 435.495 51.6639 440.481 54.5078C441.347 54.7448 442.227 54.7997 443.117 54.6725C443.514 54.6631 443.733 54.4709 443.775 54.096Z" fill="#FBD1B6"/>
<path fill-rule="evenodd" clip-rule="evenodd" d="M380.688 47.8367C381.054 47.7836 381.357 47.8935 381.594 48.1661C381.744 49.7023 381.798 51.2398 381.759 52.7783C380.929 53.1583 380.545 52.8837 380.606 51.9547C380.401 50.6969 380.347 49.434 380.441 48.1661C380.56 48.0765 380.642 47.9666 380.688 47.8367Z" fill="#FEE3D1"/>
<path fill-rule="evenodd" clip-rule="evenodd" d="M414.291 51.9545C414.014 52.019 413.739 52.1014 413.467 52.2015C414.948 52.2839 416.43 52.3112 417.914 52.2839C418.19 52.2839 418.463 52.2839 418.738 52.2839C419.262 52.4195 419.812 52.5293 420.385 52.6133C420.695 52.8042 420.777 53.0788 420.632 53.4369C420.474 53.6666 420.255 53.7764 419.973 53.7664C416.672 53.3149 413.378 53.3697 410.09 53.9311C409.37 53.7514 409.178 53.3122 409.514 52.6133C412.912 50.5696 416.59 49.746 420.55 50.1425C420.761 50.5052 420.761 50.862 420.55 51.2132C418.415 51.1412 416.328 51.3883 414.291 51.9545Z" fill="#0A0807"/>
<path fill-rule="evenodd" clip-rule="evenodd" d="M389.089 50.1421C391.479 50.3483 392.825 51.6661 393.124 54.0954C393.329 55.5503 392.971 56.8406 392.054 57.9663C390.655 58.878 389.476 58.6309 388.512 57.2251C387.353 55.3725 387.133 53.3958 387.853 51.2951C388.249 50.8723 388.66 50.488 389.089 50.1421Z" fill="#070605"/>
<path fill-rule="evenodd" clip-rule="evenodd" d="M448.058 51.2951C448.916 51.1291 449.274 51.4586 449.129 52.2835C447.786 52.7761 446.66 53.5722 445.752 54.6719C445.199 54.8599 444.869 54.6678 444.764 54.0954C445.558 52.8076 446.656 51.8743 448.058 51.2951Z" fill="#FEE3D1"/>
<path fill-rule="evenodd" clip-rule="evenodd" d="M414.294 51.9551C415.502 52.0649 416.711 52.1747 417.918 52.2845C416.434 52.3119 414.952 52.2845 413.471 52.2022C413.742 52.102 414.018 52.0196 414.294 51.9551Z" fill="#9C8271"/>
<path fill-rule="evenodd" clip-rule="evenodd" d="M418.738 52.285C419.236 52.2579 419.73 52.2854 420.221 52.3674C420.313 52.4305 420.367 52.5128 420.385 52.6145C419.812 52.5305 419.262 52.4206 418.738 52.285Z" fill="#9B8170"/>
<path fill-rule="evenodd" clip-rule="evenodd" d="M455.142 52.2842C456.457 54.4529 456.923 56.8138 456.543 59.3672C455.935 64.3448 453.82 68.5454 450.201 71.9683C448.34 73.5397 446.198 74.2546 443.777 74.1096C443.059 73.9169 442.456 73.5595 441.965 73.0389C445.022 73.3651 447.575 72.3768 449.624 70.074C453.695 64.8645 455.533 58.9346 455.142 52.2842Z" fill="#E6B391"/>
<path fill-rule="evenodd" clip-rule="evenodd" d="M450.529 56.2365C451.324 56.1278 451.626 56.4573 451.435 57.2249C449.979 57.9944 448.743 59.0378 447.728 60.3545C448.814 61.8268 449.39 63.474 449.458 65.2962C449.074 65.7355 448.689 65.7355 448.305 65.2962C448.178 63.8959 447.658 62.688 446.74 61.6723C446.033 62.5707 445.429 63.5317 444.928 64.5549C444.105 64.6643 443.803 64.3075 444.022 63.4842C445.526 60.4702 447.696 58.0542 450.529 56.2365Z" fill="#E7B594"/>
<path opacity="0.991" fill-rule="evenodd" clip-rule="evenodd" d="M378.876 56.4043C379.058 56.697 379.194 57.0264 379.288 57.3926C380.298 64.8964 382.851 71.8155 386.948 78.1474C386.928 78.2479 386.872 78.3022 386.783 78.3121C386.152 77.9892 385.493 77.7142 384.806 77.4885C381.963 73.3919 379.959 68.8884 378.794 63.9814C378.308 61.9631 377.896 59.9315 377.559 57.8868C377.933 57.604 378.344 57.3842 378.794 57.2279C378.875 56.9587 378.903 56.6842 378.876 56.4043Z" fill="#E6B594"/>
<path opacity="0.957" fill-rule="evenodd" clip-rule="evenodd" d="M377.559 57.8843C377.896 59.929 378.308 61.9606 378.794 63.9789C379.959 68.8859 381.963 73.3894 384.806 77.486C379.049 75.2672 375.673 71.0948 374.676 64.9672C374.482 63.0318 374.865 61.2199 375.829 59.5315C376.275 58.8377 376.852 58.2885 377.559 57.8843Z" fill="#FCD2B7"/>
<path fill-rule="evenodd" clip-rule="evenodd" d="M417.422 67.7681C416.386 67.9118 415.344 67.9666 414.293 67.9329C413.285 67.9304 412.296 67.8205 411.328 67.6034C411.089 67.4713 410.814 67.3889 410.504 67.3563C408.773 67.2204 407.071 67.2478 405.398 67.4387C402.569 67.6955 399.878 68.4369 397.326 69.6624C396.628 70.4004 395.969 71.1696 395.35 71.9685C394.577 72.2172 393.808 72.2452 393.044 72.0509C391.677 70.0297 391.95 68.3002 393.867 66.8622C397.822 64.5276 402.105 63.2098 406.715 62.9089C410.631 62.2579 414.391 62.7246 417.999 64.309C418.228 65.5484 418.035 66.7014 417.422 67.7681Z" fill="#FEFDFC"/>
<path fill-rule="evenodd" clip-rule="evenodd" d="M405.396 67.4382C407.07 67.2473 408.772 67.2199 410.503 67.3558C410.812 67.3884 411.088 67.4708 411.326 67.6029C409.353 67.4696 407.376 67.4148 405.396 67.4382Z" fill="#DBC9C5"/>
<path fill-rule="evenodd" clip-rule="evenodd" d="M405.396 67.4388C407.376 67.4154 409.352 67.4703 411.326 67.6036C412.294 67.8207 413.283 67.9305 414.291 67.933C415.312 68.1422 416.356 68.1422 417.42 67.933C416.529 70.2259 415.101 72.1202 413.138 73.6158C408.487 77.215 403.325 78.2033 397.654 76.5808C395.564 75.6699 393.971 74.2154 392.877 72.2157C392.897 72.1152 392.953 72.0609 393.042 72.051C393.806 72.2454 394.575 72.2174 395.348 71.9686C395.967 71.1698 396.626 70.4005 397.324 69.6626C399.876 68.437 402.567 67.6956 405.396 67.4388Z" fill="#651C0C"/>
<path fill-rule="evenodd" clip-rule="evenodd" d="M417.421 67.7671C417.64 67.8219 417.64 67.877 417.421 67.9318C416.357 68.141 415.312 68.141 414.291 67.9318C415.342 67.9656 416.385 67.9107 417.421 67.7671Z" fill="#815954"/>
<path fill-rule="evenodd" clip-rule="evenodd" d="M441.635 72.8737C440.64 72.536 440.172 72.9198 440.235 74.0267C439.055 76.1401 437.682 78.1167 436.117 79.9567C433.798 82.1656 431.383 84.2526 428.869 86.216C428.276 89.7773 427.754 93.3451 427.304 96.9229C425.7 96.9294 424.109 96.8191 422.527 96.5934C424.255 92.9185 425.985 89.2403 427.716 85.5572C433.043 82.2067 437.243 77.7873 440.317 72.2972C440.948 72.0962 441.388 72.2889 441.635 72.8737Z" fill="#E6B392"/>
<path opacity="0.99" fill-rule="evenodd" clip-rule="evenodd" d="M403.583 94.6179C401.975 94.6854 400.382 94.5751 398.806 94.2885C398.587 94.2885 398.477 94.1781 398.477 93.959C398.579 93.9771 398.661 94.0315 398.724 94.1237C398.883 91.7007 399.076 89.2842 399.3 86.876C399.224 86.7443 399.116 86.6899 398.971 86.7113C401.361 86.5828 403.777 86.4461 406.218 86.2995C408.19 85.9437 410.167 85.6423 412.148 85.3936C412.086 86.0689 411.839 86.6734 411.407 87.2055C408.74 89.6219 406.131 92.0927 403.583 94.6179Z" fill="#E6B493"/>
<path opacity="0.996" fill-rule="evenodd" clip-rule="evenodd" d="M398.478 93.9584C398.478 94.1774 398.588 94.2878 398.807 94.2878C398.555 94.9533 398.089 95.3371 397.407 95.4408C394.908 95.1608 392.411 94.8857 389.912 94.6172C388.509 100.954 386.998 107.268 385.383 113.56C373.407 132.277 363.524 152.098 355.733 173.024C348.813 191.316 343.349 210.04 339.343 229.194C336.322 234.905 333.303 240.615 330.284 246.325C330.761 238.968 331.227 231.612 331.684 224.252C331.896 215.629 332.198 207.008 332.59 198.391C332.717 197.694 332.881 197.007 333.084 196.332C332.937 195.683 332.636 195.106 332.178 194.602C326.419 187.963 319.473 182.995 311.341 179.695C310.344 179.33 309.328 179.027 308.293 178.789C307.822 179.12 307.467 179.56 307.223 180.107C306.363 181.331 305.539 182.594 304.752 183.896C304.162 184.154 303.668 184.046 303.27 183.566C304.184 181.881 305.172 180.234 306.234 178.625C305.75 178.462 305.256 178.351 304.752 178.295C304.726 177.852 304.752 177.414 304.834 176.977C307.817 169.969 310.754 162.94 313.647 155.893C314.438 155.567 315.261 155.485 316.118 155.646C317.804 155.931 319.452 156.315 321.059 156.799C333.263 140.06 346.935 124.521 362.075 110.183C365.817 106.576 369.989 103.583 374.593 101.206C372.506 103.319 370.339 105.352 368.087 107.301C361.834 115.463 356.454 124.193 351.944 133.491C346.304 143.292 340.539 153.011 334.649 162.647C334.28 162.757 333.922 162.675 333.578 162.4C330.295 160.196 326.808 158.356 323.118 156.882C322.545 157.165 322.463 157.522 322.871 157.952C329.775 161.032 335.897 165.233 341.238 170.553C345.53 158.611 350.307 146.86 355.568 135.303C359.746 126.229 364.633 117.607 370.228 109.442C373.234 105.639 376.503 102.071 380.029 98.7353C382.022 97.8705 384.108 97.2659 386.289 96.9233C385.738 97.7222 385.216 98.5458 384.724 99.3941C382.335 102.201 380.112 105.112 378.053 108.124C377.985 108.577 378.178 108.798 378.629 108.783C380.905 108.475 383.184 108.2 385.465 107.96C386.58 103.407 387.679 98.8489 388.759 94.2878C388.595 94.2878 388.43 94.2878 388.265 94.2878C388.575 94.0325 388.74 93.7031 388.759 93.2995C389.14 93.232 389.524 93.1759 389.912 93.1348C392.764 93.4527 395.62 93.7278 398.478 93.9584Z" fill="#F0EBE8"/>
<path fill-rule="evenodd" clip-rule="evenodd" d="M388.267 94.2861C388.432 94.2861 388.596 94.2861 388.761 94.2861C387.68 98.8472 386.582 103.405 385.467 107.958C383.185 108.198 380.907 108.473 378.631 108.782C378.179 108.796 377.987 108.576 378.054 108.123C380.113 105.11 382.337 102.199 384.725 99.3925C385.218 98.5442 385.74 97.7206 386.29 96.9217C386.886 95.9959 387.545 95.118 388.267 94.2861Z" fill="#B4B1AF"/>
<path opacity="0.999" fill-rule="evenodd" clip-rule="evenodd" d="M380.03 98.7354C376.503 102.071 373.235 105.639 370.229 109.442C364.634 117.607 359.746 126.229 355.569 135.303C350.308 146.86 345.531 158.611 341.238 170.553C335.898 165.233 329.776 161.033 322.872 157.952C322.464 157.522 322.546 157.165 323.119 156.882C326.809 158.356 330.296 160.196 333.579 162.4C333.923 162.675 334.281 162.757 334.65 162.647C340.54 153.011 346.305 143.292 351.945 133.491C356.455 124.193 361.835 115.463 368.088 107.301C370.34 105.352 372.507 103.32 374.594 101.206C376.299 100.162 378.111 99.3382 380.03 98.7354Z" fill="#B4B1AF"/>
<path fill-rule="evenodd" clip-rule="evenodd" d="M398.808 94.2861C400.384 94.5727 401.977 94.6831 403.585 94.6156C409.879 95.3914 416.192 96.0503 422.527 96.5922C424.109 96.8179 425.7 96.9282 427.304 96.9217C428.938 97.1934 430.586 97.3862 432.246 97.4982C432.734 97.5361 433.145 97.7288 433.481 98.0747C433.592 101.094 433.592 104.115 433.481 107.134C433.363 107.223 433.28 107.334 433.234 107.464C431.688 107.477 430.149 107.559 428.622 107.711C419.261 103.838 409.872 99.9953 400.455 96.1804C400.093 96.0453 399.791 96.1277 399.549 96.4275C399.495 97.3087 399.549 98.1884 399.714 99.063C401.371 104.723 402.853 110.434 404.161 116.194C404.443 116.942 404.965 117.189 405.726 116.935C410.167 116.024 414.614 115.201 419.068 114.464C415.473 117.622 412.096 120.999 408.938 124.595C398.8 136.433 389.356 148.787 380.606 161.657C375.898 168.712 371.23 175.795 366.605 182.906C366.373 183.26 366.236 183.644 366.193 184.059C368.405 184.167 370.601 184.414 372.782 184.8C380.153 186.798 387.043 189.845 393.454 193.942C410.765 180.26 424.71 163.788 435.293 144.526C438.639 138.278 441.11 131.689 442.706 124.759C442.842 122.447 443.035 120.141 443.282 117.841C443.406 113.448 441.483 110.345 437.517 108.534C436.492 108.221 435.504 107.864 434.552 107.464C435.506 107.549 436.44 107.742 437.352 108.04C440.867 109.169 443.503 111.338 445.259 114.547C446.094 117.966 446.287 121.425 445.835 124.924C445.689 126.003 445.415 127.046 445.012 128.054C441.46 136.4 437.782 144.691 433.976 152.927C425.455 170.93 416.861 188.913 408.197 206.872C408.086 206.983 407.978 206.983 407.867 206.872C399.773 198.734 390.384 192.529 379.7 188.259C376.538 187.058 373.299 186.126 369.982 185.459C368.389 185.348 366.798 185.348 365.205 185.459C361.194 191.639 357.349 197.926 353.674 204.319C353.304 204.896 352.974 205.5 352.686 206.131C351.811 207.327 351.016 208.59 350.298 209.92C346.639 216.359 342.989 222.783 339.344 229.192C343.35 210.038 348.814 191.315 355.733 173.022C363.525 152.096 373.408 132.276 385.383 113.558C386.999 107.266 388.509 100.952 389.913 94.6156C392.412 94.8841 394.909 95.1592 397.408 95.4392C398.09 95.3354 398.556 94.9516 398.808 94.2861Z" fill="#B5B1AF"/>
<path fill-rule="evenodd" clip-rule="evenodd" d="M396.173 100.876C398.143 108.264 400.093 115.676 402.021 123.113C402.319 123.426 402.675 123.509 403.091 123.36C405.592 122.453 408.117 121.685 410.668 121.054C405.783 126.269 401.143 131.677 396.75 137.279C388.326 148.416 380.146 159.726 372.206 171.212C371.259 172.941 370.271 174.643 369.241 176.318C360.178 189.716 351.778 203.553 344.039 217.827C343.454 218.887 342.96 219.985 342.557 221.122C349.294 191.688 359.561 163.521 373.359 136.62C379.897 123.975 387.501 112.06 396.173 100.876Z" fill="#F0EBE8"/>
<path fill-rule="evenodd" clip-rule="evenodd" d="M433.235 107.465C433.674 107.465 434.112 107.465 434.552 107.465C435.504 107.865 436.493 108.223 437.517 108.536C441.484 110.346 443.406 113.449 443.282 117.842C443.035 120.142 442.843 122.448 442.706 124.761C441.11 131.69 438.639 138.279 435.294 144.527C424.71 163.789 410.765 180.261 393.455 193.943C387.044 189.846 380.153 186.799 372.782 184.801C370.601 184.416 368.406 184.169 366.193 184.06C366.236 183.645 366.373 183.261 366.605 182.907C371.231 175.796 375.899 168.713 380.606 161.658C389.356 148.788 398.8 136.434 408.938 124.596C412.096 121 415.473 117.623 419.069 114.466C414.615 115.202 410.167 116.025 405.726 116.936C404.965 117.19 404.443 116.943 404.161 116.195C402.854 110.435 401.371 104.724 399.714 99.0642C399.549 98.1895 399.495 97.3099 399.549 96.4287C399.791 96.1289 400.093 96.0465 400.455 96.1816C409.872 99.9965 419.261 103.839 428.622 107.712C430.149 107.56 431.688 107.478 433.235 107.465Z" fill="#F0EBE8"/>
<path fill-rule="evenodd" clip-rule="evenodd" d="M445.258 114.549C445.477 114.878 445.698 115.208 445.917 115.537C447.551 119.795 447.662 124.078 446.247 128.385C443.41 134.388 440.748 140.482 438.258 146.669C428.771 167.07 419.107 187.385 409.267 207.616C409.157 207.835 409.157 208.056 409.267 208.275C411.041 210.019 412.66 211.887 414.126 213.875C408.442 221.62 402.676 229.308 396.831 236.936C396.483 236.514 396.098 236.131 395.678 235.783C385.885 224.86 374.738 215.61 362.239 208.028C359.518 206.474 356.664 205.239 353.674 204.321C357.349 197.929 361.193 191.641 365.204 185.461C366.797 185.351 368.388 185.351 369.981 185.461C373.299 186.128 376.537 187.06 379.7 188.261C390.383 192.531 399.772 198.736 407.867 206.875C407.977 206.985 408.086 206.985 408.196 206.875C416.861 188.915 425.454 170.933 433.975 152.929C437.782 144.693 441.46 136.402 445.011 128.056C445.415 127.048 445.688 126.005 445.835 124.926C446.286 121.428 446.093 117.968 445.258 114.549Z" fill="#8F8F8F"/>
<path d="M353.328 204.396L364.861 185.174C373.576 184.662 386.86 190.941 391.773 194.144C387.501 199.057 376.395 212.854 373.832 215.929C373.319 214.904 359.736 207.813 353.328 204.396Z" fill="#F0EBE8"/>
<path opacity="0.998" fill-rule="evenodd" clip-rule="evenodd" d="M446.248 128.384C443.93 135.503 441.678 142.641 439.494 149.798C432.548 171.541 425.547 193.284 418.492 215.027C418.324 215.676 418.242 216.335 418.245 217.004C417.659 218.682 417.082 220.384 416.516 222.11C416.405 222.494 416.405 222.879 416.516 223.263C421.116 237.37 425.702 251.48 430.27 265.596C429.807 266.692 429.176 267.68 428.376 268.561C424.078 273.083 419.11 276.652 413.468 279.268C409.527 280.765 405.519 282.027 401.444 283.057C399.718 283.317 398.016 283.592 396.337 283.88C396.227 283.88 396.118 283.88 396.008 283.88C393.43 284.019 390.849 284.073 388.266 284.045C383.367 283.864 378.755 282.656 374.43 280.421C381.478 265.54 388.561 250.661 395.679 235.782C396.099 236.129 396.484 236.513 396.832 236.935C402.678 229.307 408.443 221.619 414.127 213.874C412.661 211.886 411.042 210.018 409.268 208.274C409.158 208.055 409.158 207.834 409.268 207.615C419.108 187.384 428.773 167.069 438.259 146.668C440.749 140.481 443.411 134.387 446.248 128.384Z" fill="#B4B1AF"/>
<path fill-rule="evenodd" clip-rule="evenodd" d="M333.742 165.941C333.976 165.976 334.197 166.058 334.401 166.188C336.784 167.902 338.926 169.878 340.825 172.118C338.27 179.508 335.882 186.947 333.66 194.438C330.785 190.987 327.573 187.912 324.023 185.214C327.229 178.788 330.469 172.364 333.742 165.941Z" fill="#B4B1AF"/>
<path fill-rule="evenodd" clip-rule="evenodd" d="M332.589 198.391C328.792 211.547 325.691 224.89 323.283 238.418C320.975 245.34 318.669 252.258 316.364 259.173C316.254 259.557 316.254 259.942 316.364 260.326C317.27 261.449 317.682 262.739 317.6 264.197C317.634 265.291 317.496 266.361 317.188 267.409C316.778 268.34 316.366 269.272 315.953 270.209C315.689 270.603 315.524 271.041 315.458 271.527C314.218 273.184 312.927 274.831 311.587 276.469C310.642 277.223 309.79 278.047 309.034 278.939C308.379 279.269 307.774 279.681 307.222 280.175C306.153 280.605 305.109 281.099 304.093 281.657C303.664 281.809 303.225 281.919 302.775 281.987C302.538 282.049 302.373 282.186 302.281 282.399C301.455 282.517 300.632 282.461 299.81 282.234C306.741 279.941 311.876 275.55 315.211 269.056C316.076 267.108 316.46 265.077 316.364 262.962C315.318 260.725 313.589 259.983 311.176 260.738C307.913 261.886 305.221 263.835 303.104 266.585C302.225 266.867 301.867 266.538 302.034 265.597C303.15 264.447 304.03 263.13 304.669 261.644C305.012 260.397 305.285 259.135 305.493 257.855C305.755 256.452 305.508 255.162 304.752 253.984C303.312 253.179 301.773 253.014 300.139 253.49C297.204 254.722 294.679 256.534 292.562 258.926C291.711 259.173 291.409 258.872 291.656 258.02C291.968 257.768 292.132 257.439 292.15 257.032C292.534 256.867 292.809 256.592 292.974 256.208C293.969 254.266 294.738 252.235 295.28 250.113C295.815 247.279 294.69 245.631 291.903 245.172C290.111 245.345 288.464 245.921 286.962 246.901C285.061 248.089 283.414 249.571 282.02 251.349C281.239 251.799 280.828 251.606 280.785 250.772C282.783 248.389 284.211 245.697 285.067 242.701C285.231 241.359 285.12 240.041 284.738 238.748C283.858 237.537 282.677 237.015 281.197 237.183C278.643 237.883 276.337 239.062 274.278 240.724C273.583 241.441 272.842 242.1 272.055 242.701C271.87 243.154 271.623 243.566 271.313 243.936C270.478 243.884 270.285 243.472 270.737 242.701C272.091 241.347 273.437 240.001 274.772 238.665C276.001 238.133 277.154 237.474 278.232 236.689C279.864 235.984 281.566 235.763 283.338 236.03C285.942 237.201 286.957 239.206 286.385 242.042C286.158 243.278 285.828 244.487 285.397 245.666C285.265 245.956 285.293 246.231 285.479 246.49C286.725 245.62 288.042 244.879 289.433 244.266C290.627 244.009 291.836 243.955 293.056 244.101C293.625 244.419 294.228 244.638 294.868 244.76C295.219 245.276 295.631 245.742 296.104 246.16C296.478 247.618 296.586 249.1 296.433 250.608C296.24 251.192 296.13 251.795 296.104 252.42C295.578 253.202 295.277 254.026 295.198 254.89C296.57 253.882 298.052 253.031 299.645 252.337C301.164 251.998 302.701 251.859 304.257 251.925C310.953 231.115 317.707 210.305 324.518 189.496C324.06 188.735 323.456 188.104 322.706 187.602C317.962 184.27 312.8 181.771 307.222 180.107C307.466 179.56 307.822 179.121 308.293 178.79C309.327 179.027 310.344 179.33 311.34 179.696C319.473 182.995 326.419 187.963 332.177 194.603C332.635 195.107 332.937 195.683 333.083 196.332C332.881 197.008 332.716 197.694 332.589 198.391Z" fill="#E6B494"/>
<path opacity="0.993" fill-rule="evenodd" clip-rule="evenodd" d="M307.222 180.108C312.8 181.772 317.962 184.27 322.706 187.603C323.455 188.105 324.06 188.736 324.518 189.497C317.707 210.306 310.953 231.115 304.257 251.926C302.701 251.86 301.164 251.998 299.645 252.338C298.052 253.031 296.57 253.883 295.198 254.891C295.277 254.026 295.578 253.203 296.104 252.42C296.13 251.796 296.24 251.193 296.433 250.608C296.586 249.101 296.478 247.619 296.104 246.161C295.631 245.742 295.219 245.276 294.868 244.761C294.227 244.639 293.625 244.42 293.056 244.102C291.836 243.955 290.627 244.009 289.432 244.266C288.042 244.879 286.724 245.62 285.479 246.49C285.293 246.232 285.265 245.956 285.397 245.667C285.828 244.487 286.158 243.278 286.385 242.043C286.957 239.206 285.942 237.202 283.338 236.03C281.565 235.764 279.864 235.984 278.231 236.689C277.154 237.475 276.001 238.134 274.772 238.666C273.436 240.002 272.091 241.348 270.737 242.702C270.285 243.473 270.478 243.884 271.313 243.937C271.623 243.566 271.87 243.155 272.054 242.702C272.842 242.1 273.583 241.442 274.278 240.725C276.337 239.063 278.643 237.884 281.196 237.183C282.677 237.015 283.858 237.538 284.738 238.748C285.12 240.041 285.23 241.359 285.067 242.702C284.211 245.698 282.783 248.389 280.785 250.773C280.827 251.606 281.239 251.799 282.02 251.349C283.414 249.572 285.061 248.09 286.962 246.902C288.464 245.922 290.111 245.345 291.903 245.172C294.69 245.632 295.815 247.279 295.28 250.114C294.738 252.236 293.969 254.267 292.974 256.209C292.809 256.592 292.534 256.868 292.15 257.032C292.132 257.439 291.968 257.769 291.656 258.021C291.409 258.872 291.711 259.174 292.562 258.927C294.679 256.535 297.204 254.723 300.139 253.491C301.773 253.015 303.312 253.179 304.751 253.985C305.508 255.163 305.755 256.452 305.493 257.856C305.285 259.136 305.012 260.398 304.669 261.644C304.03 263.13 303.15 264.448 302.034 265.598C301.867 266.538 302.225 266.868 303.104 266.586C305.221 263.835 307.912 261.887 311.176 260.738C313.589 259.984 315.318 260.725 316.364 262.962C316.46 265.077 316.076 267.108 315.211 269.057C311.876 275.55 306.741 279.942 299.81 282.234C298.204 281.699 297.187 280.6 296.763 278.94C296.359 277.008 296.497 275.114 297.174 273.257C297.12 273.175 297.064 273.093 297.01 273.01C294.732 274.677 292.206 275.308 289.432 274.904C287.581 274.425 286.454 273.244 286.056 271.363C285.693 269.259 285.94 267.228 286.797 265.268C286.743 265.214 286.687 265.158 286.632 265.104C284.549 266.576 282.242 267.263 279.714 267.163C277.373 266.909 275.973 265.618 275.514 263.292C275.403 262.249 275.403 261.205 275.514 260.162C275.789 259.172 276.008 258.184 276.172 257.197C274.072 258.689 271.738 259.322 269.172 259.091C266.535 258.271 265.271 256.459 265.383 253.656C265.525 251.035 266.266 248.592 267.607 246.325C269.791 243.224 271.768 239.984 273.537 236.607C281.64 220.776 290.205 205.236 299.233 189.991C300.582 187.84 301.928 185.699 303.269 183.567C303.668 184.046 304.162 184.155 304.751 183.896C305.539 182.595 306.362 181.332 307.222 180.108Z" fill="#FBD1B6"/>
<path fill-rule="evenodd" clip-rule="evenodd" d="M302.444 191.471C303.298 191.308 303.599 191.638 303.35 192.459C301.525 195.067 299.822 197.757 298.244 200.531C294.291 207.889 290.337 215.245 286.384 222.603C285.518 223.335 285.134 223.116 285.231 221.944C289.308 214.287 293.426 206.653 297.585 199.048C299.084 196.434 300.703 193.909 302.444 191.471Z" fill="#FEE3D1"/>
<path fill-rule="evenodd" clip-rule="evenodd" d="M392.547 196.414C393.975 197.152 395.347 198.002 396.665 198.967C401.55 202.589 406.08 206.625 410.254 211.074C411.096 211.964 411.837 212.924 412.478 213.957C407.243 220.939 402.027 227.94 396.83 234.959C390.391 228.161 383.583 221.819 376.404 215.933C381.766 209.41 387.147 202.904 392.547 196.414Z" fill="#B4B1AF"/>
<path fill-rule="evenodd" clip-rule="evenodd" d="M332.59 198.391C332.198 207.007 331.896 215.629 331.684 224.252C331.228 231.611 330.761 238.968 330.284 246.324C326.415 253.786 322.682 261.309 319.083 268.891C319.073 268.802 319.019 268.746 318.918 268.726C317.922 269.225 316.933 269.719 315.953 270.209C316.367 269.271 316.778 268.339 317.189 267.408C317.497 266.361 317.635 265.29 317.6 264.196C317.683 262.739 317.271 261.449 316.365 260.325C316.255 259.942 316.255 259.556 316.365 259.172C318.669 252.257 320.975 245.339 323.283 238.418C325.691 224.889 328.793 211.547 332.59 198.391Z" fill="#B4B1AF"/>
<path opacity="0.995" fill-rule="evenodd" clip-rule="evenodd" d="M413.467 279.268C413.495 302.548 413.578 325.83 413.714 349.109C422.701 371.46 431.624 393.834 440.481 416.233C440.269 417.406 439.61 418.201 438.505 418.621C438.207 418.62 437.931 418.702 437.681 418.868C435.011 420.946 432.155 422.73 429.116 424.222C428.897 424.222 428.676 424.222 428.457 424.222C418.816 399.833 409.125 375.455 399.384 351.086C398.805 331.155 398.255 311.224 397.736 291.293C397.562 291.194 397.369 291.139 397.16 291.128C390.866 291.731 384.635 291.347 378.464 289.975C378.327 290.029 378.189 290.085 378.052 290.14C371.872 302.388 365.695 314.634 359.521 326.872C358.185 329.603 356.729 332.239 355.156 334.779C355.83 328.409 356.462 322.039 357.051 315.671C356.855 315.956 356.662 316.231 356.474 316.495C359.877 310.13 363.198 303.706 366.44 297.223C368.976 291.548 371.638 285.947 374.429 280.421C378.754 282.656 383.366 283.864 388.265 284.045C390.652 284.236 393.068 284.264 395.513 284.127C395.717 284.089 395.882 284.007 396.007 283.88C396.117 283.88 396.226 283.88 396.336 283.88C398 283.834 399.647 283.643 401.278 283.304C401.37 283.241 401.425 283.159 401.443 283.057C405.518 282.027 409.525 280.765 413.467 279.268Z" fill="#131418"/>
<path fill-rule="evenodd" clip-rule="evenodd" d="M429.116 424.222C421.765 428.336 414.023 431.548 405.891 433.858C405.463 434.154 405.023 434.401 404.573 434.599C398.35 436.594 391.982 438.02 385.466 438.882C385.472 438.32 385.39 437.771 385.218 437.235C375.609 410.433 366.001 383.639 356.392 356.851C356.037 356.164 355.486 355.726 354.745 355.533C354.23 355.831 353.709 356.106 353.18 356.357C353.169 355.914 353.114 355.474 353.016 355.039C353.742 348.286 354.455 341.532 355.157 334.779C356.73 332.239 358.186 329.603 359.522 326.872C365.696 314.633 371.873 302.388 378.053 290.139C378.19 290.085 378.328 290.029 378.465 289.975C384.635 291.347 390.867 291.731 397.161 291.128C397.37 291.139 397.563 291.194 397.737 291.292C398.256 311.224 398.806 331.155 399.384 351.086C409.126 375.455 418.816 399.833 428.458 424.222C428.677 424.222 428.897 424.222 429.116 424.222Z" fill="#1E1F25"/>
<path d="M269.689 215.326C268.759 214.512 265.883 211.089 264.695 211.113C264.076 211.125 256.046 216.148 254.118 216.906C188.004 242.924 116.202 200.416 121.633 135.285C122.955 119.445 129.627 104.152 140.431 91.5762C134.662 98.1754 112.43 117.777 112.02 121.32C111.958 121.846 108.913 126.745 105.807 136.046C102.7 145.347 104.251 150.911 102.88 163.762C98.7754 202.229 113.795 237.579 158.399 248.28C190.837 256.064 202.21 246.133 230.664 240.907C234.377 240.224 240.155 241.25 241.829 240.907C246.73 239.901 260.439 218.754 269.685 215.326H269.689Z" fill="black" fill-opacity="0.3"/>
<path d="M246.328 244.416L273.881 216.826L273.876 216.818H275.049L287.358 228.384C285.652 229.642 281.594 233.884 285.013 234.692L289.943 258.574C289.498 259.552 283.101 268.838 280.169 269.326C277.236 269.815 274.987 268.815 273.876 266.497C273.357 265.405 270.293 257.029 270.36 256.508C270.417 256.066 277.673 250.792 277.393 250.199L270.653 245.205C269.152 246.208 260.826 254.114 260.102 254.142C259.223 254.174 246.346 245.451 246.328 244.416Z" fill="black" fill-opacity="0.25"/>
<path d="M346.167 292.462C345.593 292.406 343.989 291.643 343.252 291.418C343.203 291.402 343.194 292.292 342.377 291.94L289.921 244.976C289.299 244.964 289.025 247.19 289.047 247.325C289.162 248.021 294.223 259.249 294.876 260.372C299.001 267.45 308.478 276.46 314.692 281.766C314.794 281.853 313.641 282.621 315.567 284.115C321.096 288.401 325.035 287.733 330.14 289.856C334.843 291.813 340.068 297.712 345.88 294.553C346.321 294.312 347.783 293.011 346.171 292.466L346.167 292.462Z" fill="#252525" fill-opacity="0.3"/>
<path d="M258.675 230.97C258.987 231.258 260.097 231.769 260.4 232.057C263.444 231.197 265.32 229.249 267.639 227.354C262.513 221.29 260.237 223.03 265.106 216.683C264.612 215.955 264.387 214.343 263.07 214.475C262.308 214.55 253.581 222.971 251.434 224.373C197.061 259.831 125.313 226.368 116.055 163.105C115.356 158.337 116.583 153.406 113.996 148.75C110.529 218.707 180.793 262.536 243.729 233.038C245.56 232.178 253.158 226.598 253.753 226.57C254.897 226.516 257.757 230.116 258.675 230.966L258.675 230.97Z" fill="#64437A"/>
<path d="M298.856 231.086L374.803 303.174C375.042 302.128 375.228 300.668 375.848 299.758C375.636 299.002 375.718 298.144 375.219 297.232L299.261 224.861L298.852 231.086L298.856 231.086Z" fill="#B97CE2"/>
<path d="M265.108 216.686C260.238 223.028 262.514 221.293 267.641 227.357C267.813 227.216 268.611 226.896 268.758 226.764C270.423 225.301 277.94 216.316 278.965 216.337C281.496 216.393 278.823 219.371 279.362 220.847L281.539 217.402C278.592 214.476 276.016 210.77 272.813 208.017C270.625 211.034 267.25 213.893 265.108 216.686Z" fill="#D9C2E4"/>
<path d="M279.358 220.849C280.219 223.211 289.93 230.495 292.114 232.957C293.66 230.671 295.177 230.47 293.669 227.268C292.071 227.685 283.685 219.541 281.535 217.404L279.358 220.849Z" fill="#DDDDDD"/>
<path d="M263.865 234.793L276.056 246.915C276.22 246.774 278.263 246.38 279.972 245.122C277.513 241.631 267.625 230.367 263.865 234.793Z" fill="#9C9C9B"/>
<path d="M284.393 241.056C282.825 242.662 281.837 243.749 279.968 245.123C278.258 246.377 276.215 246.775 276.051 246.916C274.44 248.305 270.638 252.964 273.96 253.749C281.607 251.81 282.139 245.188 285.51 240.463C285.254 240.529 284.472 240.977 284.393 241.056Z" fill="#682E93"/>
<path d="M298.856 231.086C296.313 231.232 296.273 232.187 294.975 234.292L372.371 307.756C374.932 307.135 374.412 304.859 374.802 303.175L298.852 231.087L298.856 231.086Z" fill="#C391E5"/>
<path d="M268.758 226.76C270.167 227.735 269.303 228.647 269.373 228.722C272.643 232.038 277.136 238.766 280.08 240.228C280.766 240.571 280.824 243.157 281.711 243.288C280.555 244.708 285.261 240.529 285.516 240.462C287.463 237.734 290.246 235.72 292.119 232.951C289.939 230.494 280.223 223.205 279.362 220.843C278.823 219.367 281.496 216.389 278.965 216.333C277.94 216.312 270.423 225.297 268.758 226.76Z" fill="#FDFDFD"/>
<path d="M267.64 227.353C265.321 229.247 263.445 231.195 260.401 232.055C261.205 232.818 262.031 233.936 262.735 234.821L263.866 234.793C267.626 230.366 277.514 241.631 279.973 245.121C281.842 243.747 285.5 241.657 287.067 240.051C286.181 239.919 283.994 240.887 282.389 239.394C280.784 237.9 274.519 232.137 271.245 228.821C271.175 228.745 270.167 227.734 268.757 226.76C268.61 226.892 267.812 227.211 267.64 227.353Z" fill="#7D7B7D"/>
<path d="M293.668 227.261C295.176 230.463 293.659 230.664 292.113 232.95C290.241 235.72 287.457 237.729 285.511 240.461C282.145 245.186 281.608 251.804 273.961 253.747L349.332 325.286C350.054 325.511 351.63 326.298 352.188 326.344C354.611 326.539 358.878 326.213 361.224 325.551C371.467 322.652 378.703 310.014 375.854 299.762C375.234 300.672 375.052 302.132 374.809 303.178C374.418 304.862 374.939 307.138 372.377 307.759L294.977 234.295C296.275 232.19 296.315 231.235 298.858 231.089L299.267 224.864C297.717 223.097 295.086 226.896 293.668 227.265L293.668 227.261Z" fill="#4C1376"/>
<path fill-rule="evenodd" clip-rule="evenodd" d="M114.001 148.754C114.841 131.74 120.851 115.179 130.914 101.438C198.368 9.30581 344.603 109.006 272.817 208.018C271.647 209.631 270.141 211.196 268.665 212.73C267.376 214.07 266.11 215.385 265.112 216.688C264.982 216.497 264.871 216.246 264.755 215.982C264.425 215.235 264.048 214.382 263.075 214.479C262.682 214.52 260.17 216.78 257.535 219.151C255.061 221.377 252.479 223.7 251.439 224.377C197.062 259.836 125.314 226.372 116.061 163.109C115.826 161.509 115.809 159.891 115.791 158.27C115.755 155.061 115.72 151.845 114.001 148.754ZM205.082 223.564C165.326 224.567 132.285 193.206 131.284 153.519C130.283 113.831 161.701 80.8447 201.458 79.8421C241.215 78.8396 274.255 110.2 275.256 149.888C276.257 189.576 244.839 222.562 205.082 223.564Z" fill="#A57CBC"/>
<path d="M144.627 106.744C151.846 98.7082 162.682 90.4096 172.688 86.2667C180.682 82.9577 191.047 79.2978 198.941 83.9097C202.192 83.7635 205.997 83.3422 209.136 84.2176C218.913 83.2391 237.718 92.575 245.432 98.5568C268.592 116.506 278.362 146.537 270.271 174.759C268.049 182.507 264.023 190.672 258.369 196.525C258.031 198.078 254.68 201.566 253.435 202.864L255.74 204.501C310.017 148.371 252.096 59.7945 179.371 82.1475C166.62 86.0644 152.416 95.9545 144.623 106.749L144.627 106.744Z" fill="#77498F"/>
<path d="M140.246 112.505C132.191 123.794 126.313 137.745 125.957 151.845L129.312 172.66L133.837 172.546C129.878 157.695 130.471 142.473 136.113 128.142C137.817 123.806 143.38 116.736 144.234 113.53C144.379 112.987 144.868 111.648 143.894 111.279L140.246 112.501L140.246 112.505Z" fill="#A57CBC"/>
<path d="M203.34 67.4137C199.375 67.2569 175.02 69.4248 174.294 71.2536C174.942 71.5925 175 73.042 175.758 73.1941C176.517 73.3462 188.091 69.7072 190.944 69.4213C234.739 65.0597 274.69 93.915 285.152 136.247C285.338 137.005 286.54 150.855 288.264 147.469C291.006 142.088 280.009 116.269 276.578 110.479C261.576 85.1417 232.731 68.5858 203.34 67.4137Z" fill="#D9C2E4"/>
<path d="M144.627 106.744C142.68 108.912 141.876 110.216 140.245 112.505L143.893 111.283C144.867 111.652 144.377 112.991 144.232 113.534C157.395 95.8289 176.727 84.9149 198.941 83.9095C191.047 79.2977 180.682 82.9575 172.688 86.2665C162.682 90.4095 151.846 98.7124 144.627 106.744Z" fill="#8C63A3"/>
<path d="M125.961 151.845C124.407 213.664 192.896 250.18 243.572 215.539C233.764 221.898 218.197 227.042 206.532 227.772C171.296 229.975 138.96 206.226 129.311 172.665L125.957 151.849L125.961 151.845Z" fill="#D9C2E4"/>
<path d="M237.327 214.565C226.174 220.834 218.199 223.368 205.305 223.847L206.536 227.771C218.201 227.04 233.769 221.901 243.577 215.537C248.175 212.553 251.972 208.4 255.75 204.495L253.445 202.859C248.911 207.574 242.975 211.388 237.331 214.565L237.327 214.565Z" fill="#A57CBC"/>
<path d="M198.945 83.9087C176.726 84.9142 157.399 95.828 144.236 113.533C143.387 116.739 137.824 123.809 136.115 128.145C130.474 142.476 129.88 157.698 133.839 172.549C142.32 204.347 172.873 225.05 205.304 223.847C218.198 223.372 226.173 220.834 237.326 214.565C233.552 215.041 225.777 220.446 222.479 220.589C219.927 220.7 219.317 218.969 219.043 218.981C209.323 219.328 200.801 220.767 190.753 219.129C139.137 210.715 116.679 148.679 150.34 108.859C164.62 91.965 185.585 84.5838 207.496 86.518L205.764 85.1492C206.635 85.1872 208.845 84.2455 209.136 84.2167C205.997 83.3414 202.192 83.7627 198.941 83.9088L198.945 83.9087Z" fill="#BED1DD" fill-opacity="0.5"/>
<path d="M209.137 84.216C208.846 84.2448 206.636 85.1865 205.765 85.1485L207.497 86.5173C244.509 89.7828 273.59 123.89 271.62 160.882C271.396 165.069 267.831 171.301 270.272 174.758C278.363 146.536 268.593 116.509 245.433 98.5553C237.719 92.5735 218.914 83.2376 209.137 84.216Z" fill="#BED1DD" fill-opacity="0.5"/>
<path d="M129.313 172.659C138.962 206.22 171.298 229.969 206.534 227.766L205.303 223.842C172.876 225.041 142.319 204.338 133.838 172.545L129.313 172.659Z" fill="#A57CBC"/>
<path d="M204.603 95.0662C198.094 94.8708 189.881 95.797 184.041 98.6921C216.892 102.735 242.657 122.159 259.19 150.179C259.073 120.885 233.781 95.9397 204.608 95.0661L204.603 95.0662Z" fill="#CDD8DF"/>
<path opacity="0.999" fill-rule="evenodd" clip-rule="evenodd" d="M353.674 204.32C356.664 205.238 359.518 206.473 362.239 208.027C374.738 215.609 385.885 224.859 395.678 235.782C388.56 250.661 381.477 265.54 374.429 280.421C371.638 285.947 368.977 291.548 366.44 297.223C363.198 303.706 359.877 310.13 356.474 316.495C355.857 317.687 355.143 318.812 354.333 319.872C353.018 321.049 351.482 321.736 349.721 321.931C361.857 291.205 374.047 260.485 386.289 229.77C381.251 224.237 375.761 219.241 369.817 214.78C365.002 211.604 359.951 208.858 354.662 206.544C354.035 206.257 353.376 206.121 352.686 206.132C352.974 205.501 353.303 204.897 353.674 204.32Z" fill="#E5B393"/>
<path d="M281.197 237.183C278.644 237.883 276.338 239.062 274.279 240.724C270.066 245.067 265.744 246.993 265.384 253.655C265.272 256.458 266.535 258.27 269.172 259.09C271.739 259.321 274.073 258.688 276.173 257.196C276.008 258.183 275.789 259.171 275.514 260.161C275.404 261.204 275.404 262.248 275.514 263.291C275.974 265.617 277.374 266.908 279.714 267.162C282.243 267.262 284.549 266.575 286.633 265.103L286.797 265.267C285.941 267.228 285.694 269.259 286.056 271.362C286.455 273.243 287.582 274.424 289.433 274.903C292.207 275.307 294.732 274.676 297.01 273.009C297.064 273.092 297.12 273.174 297.175 273.256C296.498 275.113 296.359 277.007 296.763 278.939C297.188 280.6 298.204 281.698 299.81 282.234C304.235 284.151 313.02 276.504 316.356 270.011C317.22 268.062 316.46 265.076 316.365 262.961C315.319 260.724 313.589 259.983 311.176 260.738C307.913 261.886 305.221 263.834 303.105 266.585C302.225 266.867 301.868 266.537 302.034 265.597C303.151 264.447 304.031 263.129 304.67 261.643C305.012 260.397 305.286 259.135 305.493 257.855C305.755 256.452 305.508 255.162 304.752 253.984C303.312 253.179 301.774 253.014 300.14 253.49C297.204 254.722 294.679 256.534 292.563 258.926C291.711 259.173 291.41 258.871 291.657 258.02C291.968 257.768 292.133 257.438 292.151 257.031C292.535 256.867 292.81 256.592 292.974 256.208C293.969 254.266 294.739 252.235 295.281 250.113C295.816 247.278 294.691 245.631 291.904 245.171C290.112 245.344 288.464 245.921 286.962 246.901C285.061 248.089 283.414 249.571 282.021 251.348C281.24 251.798 280.828 251.605 280.785 250.772C282.783 248.388 284.211 245.697 285.068 242.701C285.231 241.358 285.121 240.04 284.738 238.747C283.859 237.537 282.678 237.015 281.197 237.183Z" fill="#FACFB7"/>
<path fill-rule="evenodd" clip-rule="evenodd" d="M352.685 206.134C353.375 206.122 354.034 206.259 354.661 206.546C359.951 208.86 365.001 211.606 369.816 214.782C375.76 219.242 381.251 224.238 386.288 229.771C374.046 260.487 361.856 291.207 349.72 321.932C348.967 322.146 348.199 322.146 347.414 321.932C344.254 321.117 342.36 319.086 341.731 315.838C341.648 314.961 341.62 314.082 341.648 313.202C340.902 313.469 340.187 313.798 339.507 314.19C338.413 314.319 337.316 314.373 336.213 314.355C333.6 313.856 331.927 312.319 331.189 309.743C330.851 308.246 330.879 306.763 331.271 305.296C331.217 305.241 331.161 305.185 331.106 305.131C327.003 307.452 324.01 306.463 322.129 302.166C321.554 300.013 321.581 297.872 322.212 295.742C321.424 295.944 320.709 296.274 320.07 296.73C318.306 297.134 316.55 297.134 314.799 296.73C312.434 295.819 310.979 294.118 310.434 291.624C310.027 289.762 310.192 287.951 310.928 286.188C313.559 280.378 316.277 274.613 319.082 268.892C322.681 261.31 326.414 253.788 330.283 246.326C333.302 240.617 336.321 234.906 339.342 229.195C342.988 222.786 346.638 216.361 350.296 209.923C351.014 208.593 351.81 207.33 352.685 206.134Z" fill="#FBD1B6"/>
<path opacity="0.993" fill-rule="evenodd" clip-rule="evenodd" d="M464.86 25.6006C464.845 26.0374 464.955 26.4217 465.189 26.7536C465.869 32.5068 466.446 38.272 466.919 44.0493C467.952 68.2862 469.378 92.5001 471.201 116.691C472.845 140.336 476.469 163.671 482.073 186.697C484.452 196.386 487.883 205.666 492.368 214.535C492.076 215.378 491.526 215.571 490.721 215.111C487.24 210.873 484.358 206.233 482.073 201.192C477.799 191.611 474.614 181.673 472.519 171.378C473.287 187.078 476.115 202.396 481.002 217.335C481.029 217.748 480.864 218.05 480.508 218.241C478.892 218.755 477.245 219.112 475.567 219.312C472.373 210.124 470.149 200.68 468.895 190.98C468.325 185.496 467.831 180.004 467.413 174.508C466.68 173.78 466.268 173.944 466.177 175.002C466.794 185.315 468.139 195.528 470.213 205.64C471.213 209.748 472.366 213.812 473.672 217.829C473.791 218.43 473.873 219.033 473.919 219.641C471.972 220.112 469.996 220.442 467.989 220.629C466.581 215.902 465.484 211.071 464.695 206.134C464.048 205.796 463.664 205.961 463.542 206.628C464.349 211.448 465.337 216.225 466.507 220.959C464.478 221.203 462.447 221.422 460.412 221.618C459.447 217.146 458.595 212.642 457.859 208.111C457.831 212.668 457.749 217.226 457.612 221.782C455.261 222.016 452.901 222.125 450.529 222.112C450.476 215.312 450.806 208.531 451.517 201.769C451.695 200.792 451.338 200.491 450.447 200.863C449.478 207.913 449.121 214.996 449.376 222.112C445.853 222.117 442.339 221.952 438.834 221.618C438.819 218.643 438.984 215.678 439.328 212.723C439.32 211.914 438.936 211.695 438.175 212.064C437.788 215.18 437.569 218.31 437.516 221.453C434.909 221.237 432.329 220.853 429.774 220.3C429.639 219.814 429.557 219.32 429.527 218.817C429.445 218.735 429.363 218.653 429.28 218.57C429.438 217.9 429.494 217.215 429.445 216.511C430.371 209.748 431.333 202.994 432.327 196.251C434.915 180.779 437.304 165.295 439.493 149.8C441.677 142.643 443.929 135.505 446.246 128.386C447.661 124.079 447.551 119.796 445.917 115.538C447.487 103.914 448.943 92.2744 450.282 80.6172C450.682 77.8663 451.12 75.1221 451.6 72.3811C456.762 67.0498 458.63 60.7356 457.2 53.4383C455.92 49.9303 453.423 48.3104 449.705 48.5791C447.465 49.1227 445.543 50.2208 443.94 51.8735C443.024 51.7699 442.146 51.4953 441.305 51.0499C438.901 49.6367 436.786 47.8523 434.963 45.6965C432.392 42.6839 430.361 39.3345 428.868 35.6485C428.615 35.3392 428.312 35.0921 427.962 34.9073C426.64 34.8213 425.322 34.8762 424.009 35.072C406.499 37.0175 388.983 38.9393 371.463 40.8372C369.984 40.9962 368.502 41.0785 367.016 41.0843C366.675 33.9898 368.35 27.401 372.04 21.3179C379.469 9.78728 389.983 2.84152 403.584 0.480754C411.252 -0.737847 418.554 0.360179 425.492 3.77516C428.631 5.59532 431.377 7.9014 433.728 10.6934C444.052 12.125 453.387 15.9136 461.73 22.0591C462.931 23.1206 463.974 24.3011 464.86 25.6006Z" fill="#FC8423"/>
<path fill-rule="evenodd" clip-rule="evenodd" d="M388.595 11.93C390.517 11.9025 392.44 11.93 394.36 12.0124C395.579 11.9498 396.594 12.3616 397.407 13.2478C397.678 14.8521 397.019 15.7856 395.431 16.048C390.341 15.4011 385.373 15.9228 380.524 17.6128C378.725 18.3493 376.913 19.0082 375.088 19.5895C376.495 17.5774 378.087 15.7105 379.865 13.989C382.716 12.973 385.625 12.2866 388.595 11.93Z" fill="#FFB14C"/>
<path fill-rule="evenodd" clip-rule="evenodd" d="M400.619 13.2477C402.578 13.2545 403.319 14.1878 402.843 16.048C401.451 17.4908 400.298 17.326 399.384 15.5538C399.267 14.4927 399.679 13.7241 400.619 13.2477Z" fill="#FFB14C"/>
<g opacity="0.998">
<path fill-rule="evenodd" clip-rule="evenodd" d="M445.919 115.539C445.7 115.209 445.479 114.88 445.26 114.55C443.504 111.342 440.868 109.172 437.353 108.044C436.441 107.746 435.507 107.553 434.553 107.467C434.113 107.467 433.675 107.467 433.235 107.467C433.281 107.337 433.364 107.227 433.482 107.138C433.593 104.119 433.593 101.098 433.482 98.0782C433.146 97.7323 432.734 97.5396 432.247 97.5017C430.586 97.3897 428.939 97.197 427.305 96.9252C427.755 93.3475 428.277 89.7796 428.87 86.2184C431.384 84.2549 433.798 82.1679 436.118 79.959C437.683 78.1191 439.056 76.1424 440.236 74.0291C440.173 72.9222 440.641 72.5384 441.636 72.876C441.692 73.0144 441.802 73.0688 441.965 73.0408C442.456 73.5613 443.059 73.9187 443.777 74.1114C446.199 74.2564 448.34 73.5415 450.201 71.9701C453.82 68.5472 455.935 64.3467 456.543 59.369C456.924 56.8157 456.457 54.4547 455.143 52.286C453.815 50.2784 451.949 49.4821 449.542 49.8976C447.124 50.6434 445.204 52.0435 443.777 54.0979C443.532 54.335 443.23 54.4447 442.871 54.4274C442.125 54.3373 441.438 54.0902 440.812 53.6861C434.429 50.1026 429.845 44.914 427.058 38.1201C426.912 38.0244 426.747 37.9693 426.564 37.9553C410.555 39.8804 394.551 41.8297 378.548 43.8029C378.456 43.866 378.401 43.9484 378.383 44.05C375.529 44.3989 372.674 44.7558 369.818 45.1207C369.105 45.2305 368.39 45.2305 367.676 45.1207C367.235 43.8179 367.016 42.4726 367.018 41.085C368.503 41.0793 369.986 40.9969 371.465 40.8379C388.985 38.94 406.501 37.0183 424.011 35.0727C425.324 34.8769 426.641 34.822 427.964 34.908C428.313 35.0928 428.616 35.3399 428.87 35.6493C430.362 39.3352 432.393 42.6846 434.965 45.6972C436.788 47.8531 438.903 49.6375 441.306 51.0506C442.148 51.496 443.026 51.7706 443.942 51.8742C445.545 50.2216 447.467 49.1234 449.707 48.5798C453.425 48.3111 455.922 49.931 457.202 53.439C458.632 60.7363 456.764 67.0505 451.601 72.3819C451.122 75.1228 450.684 77.8671 450.284 80.6179C448.945 92.2751 447.488 103.914 445.919 115.539Z" fill="#D46914"/>
<path fill-rule="evenodd" clip-rule="evenodd" d="M439.494 149.8C437.305 165.296 434.917 180.779 432.329 196.251C431.334 202.995 430.372 209.749 429.447 216.512C428.989 217.627 428.605 218.78 428.294 219.971C424.825 219.381 421.474 218.393 418.246 217.006C418.242 216.337 418.325 215.679 418.493 215.03C425.548 193.286 432.548 171.543 439.494 149.8Z" fill="#D46914"/>
</g>
<g opacity="0.981">
<path fill-rule="evenodd" clip-rule="evenodd" d="M434.057 16.376C440.992 17.922 447.306 20.8046 453 25.0238C456.326 27.6914 458.605 31.0682 459.836 35.1541C459.992 36.1142 459.607 36.3888 458.683 35.9777C457.5 31.6607 455.112 28.1741 451.517 25.5179C446.141 21.9116 440.32 19.2212 434.057 17.4467C433.848 17.0904 433.848 16.7334 434.057 16.376Z" fill="#FFB04C"/>
<path fill-rule="evenodd" clip-rule="evenodd" d="M431.586 24.1178C433.825 24.88 435.91 25.9507 437.846 27.3299C442.242 30.1888 445.729 33.895 448.305 38.4485C449.09 39.9765 449.638 41.5688 449.953 43.2254C449.569 43.6647 449.183 43.6647 448.8 43.2254C447.2 38.3334 444.428 34.2429 440.481 30.9537C437.831 28.7453 434.92 26.9334 431.751 25.518C431.173 25.1009 431.117 24.6342 431.586 24.1178Z" fill="#FFB04C"/>
<path fill-rule="evenodd" clip-rule="evenodd" d="M459.424 39.6016C460.342 39.4785 460.643 39.863 460.33 40.7546C459.946 41.1939 459.561 41.1939 459.177 40.7546C459.076 40.3321 459.159 39.9477 459.424 39.6016Z" fill="#FFB04C"/>
<path fill-rule="evenodd" clip-rule="evenodd" d="M460.083 43.8843C460.427 43.8543 460.757 43.9093 461.071 44.049C461.264 45.8035 461.29 47.5605 461.154 49.3201C460.727 49.5642 460.342 49.5092 460.001 49.1553C459.867 47.3858 459.895 45.6287 460.083 43.8843Z" fill="#FFB04C"/>
<path fill-rule="evenodd" clip-rule="evenodd" d="M459.589 72.2161C459.913 72.1765 460.215 72.2309 460.495 72.3808C461.061 79.2892 461.336 86.2074 461.318 93.1355C460.935 93.5753 460.549 93.5753 460.165 93.1355C460.118 86.8136 459.87 80.4999 459.424 74.1927C459.429 73.5207 459.485 72.8618 459.589 72.2161Z" fill="#FFB04C"/>
<path fill-rule="evenodd" clip-rule="evenodd" d="M460.412 96.1007C461.516 96.0562 461.845 96.5504 461.401 97.5832C460.673 97.8451 460.287 97.57 460.248 96.7596C460.305 96.5372 460.36 96.3181 460.412 96.1007Z" fill="#FFB04C"/>
<path fill-rule="evenodd" clip-rule="evenodd" d="M460.742 102.031C461.544 101.871 461.9 102.2 461.813 103.019C463.819 120.866 465.082 138.765 465.601 156.718C465.174 156.961 464.789 156.907 464.448 156.553C463.82 138.633 462.529 120.761 460.577 102.937C460.59 102.62 460.645 102.317 460.742 102.031Z" fill="#FFB04C"/>
<path fill-rule="evenodd" clip-rule="evenodd" d="M453.659 114.549C454.125 114.493 454.481 114.658 454.729 115.043C454.84 117.13 454.84 119.216 454.729 121.303C454.4 121.522 454.071 121.522 453.741 121.303C453.693 119.407 453.611 117.513 453.494 115.62C453.506 115.248 453.56 114.892 453.659 114.549Z" fill="#FFB04C"/>
<path fill-rule="evenodd" clip-rule="evenodd" d="M454.977 124.433C455.988 124.52 456.209 124.986 455.635 125.833C454.812 125.941 454.51 125.586 454.73 124.762C454.848 124.673 454.93 124.563 454.977 124.433Z" fill="#FFB04C"/>
<path fill-rule="evenodd" clip-rule="evenodd" d="M455.306 129.703C455.672 129.651 455.975 129.76 456.212 130.033C456.727 138.429 457.166 146.829 457.53 155.235C457.64 161.219 457.64 167.205 457.53 173.19C457.146 173.629 456.76 173.629 456.377 173.19C456.536 159.113 456.07 145.057 454.977 131.021C454.942 130.529 455.052 130.091 455.306 129.703Z" fill="#FFB04C"/>
<path fill-rule="evenodd" clip-rule="evenodd" d="M446.246 136.786C446.571 136.747 446.872 136.801 447.152 136.951C447.279 137.379 447.251 137.791 447.07 138.187C446.75 138.309 446.449 138.282 446.164 138.104C446.045 137.65 446.072 137.21 446.246 136.786Z" fill="#FFB04C"/>
<path fill-rule="evenodd" clip-rule="evenodd" d="M445.917 140.081C446.533 139.946 446.917 140.165 447.07 140.74C446.34 148.215 445.545 155.682 444.682 163.142C443.79 163.514 443.433 163.213 443.611 162.236C444.317 154.837 445.085 147.452 445.917 140.081Z" fill="#FFB04C"/>
<path fill-rule="evenodd" clip-rule="evenodd" d="M450.529 158.529C450.854 158.49 451.155 158.544 451.435 158.694C451.28 169.842 450.979 180.989 450.529 192.132C450.167 192.343 449.809 192.343 449.458 192.132C449.43 191.638 449.404 191.144 449.376 190.65C449.701 179.935 450.084 169.228 450.529 158.529Z" fill="#FFB04C"/>
<path fill-rule="evenodd" clip-rule="evenodd" d="M443.446 164.954C444.309 164.802 444.639 165.159 444.434 166.024C444.189 168.74 443.97 171.458 443.776 174.178C442.754 174.558 442.37 174.201 442.622 173.107C442.86 170.503 443.052 167.895 443.199 165.283C443.318 165.194 443.4 165.084 443.446 164.954Z" fill="#FFB04C"/>
<path fill-rule="evenodd" clip-rule="evenodd" d="M475.567 219.311C475.058 219.522 474.509 219.633 473.919 219.641C473.873 219.033 473.791 218.43 473.672 217.829C472.366 213.811 471.213 209.748 470.213 205.64C468.139 195.527 466.794 185.315 466.178 175.002C466.268 173.944 466.68 173.779 467.413 174.507C467.831 180.004 468.325 185.496 468.895 190.979C470.149 200.68 472.373 210.123 475.567 219.311Z" fill="#FFB04C"/>
<path fill-rule="evenodd" clip-rule="evenodd" d="M442.458 178.131C442.728 178.097 442.975 178.151 443.199 178.296C442.619 186.835 441.769 195.345 440.646 203.828C440.341 204.035 440.038 204.035 439.74 203.828C439.63 203.004 439.63 202.18 439.74 201.357C440.545 193.862 441.343 186.367 442.128 178.873C442.171 178.578 442.282 178.331 442.458 178.131Z" fill="#FFB04C"/>
<path fill-rule="evenodd" clip-rule="evenodd" d="M461.565 190.485C461.931 190.433 462.234 190.541 462.471 190.815C462.595 193.582 463.007 196.3 463.707 198.968C463.45 199.822 463.038 199.904 462.471 199.215C461.61 196.354 461.308 193.445 461.565 190.485Z" fill="#FFB04C"/>
<path fill-rule="evenodd" clip-rule="evenodd" d="M450.2 194.603C450.565 194.551 450.868 194.659 451.106 194.933C451.216 195.537 451.216 196.14 451.106 196.745C450.821 197.091 450.491 197.145 450.117 196.909C450.035 196.415 449.953 195.921 449.87 195.427C449.86 195.096 449.969 194.821 450.2 194.603Z" fill="#FFB04C"/>
<path fill-rule="evenodd" clip-rule="evenodd" d="M450.529 222.112C450.145 222.112 449.76 222.112 449.376 222.112C449.121 214.996 449.478 207.913 450.447 200.863C451.338 200.49 451.695 200.792 451.517 201.769C450.806 208.53 450.476 215.312 450.529 222.112Z" fill="#FFB04C"/>
<path fill-rule="evenodd" clip-rule="evenodd" d="M463.377 202.016C464.301 201.782 464.659 202.111 464.448 203.004C463.428 203.361 463.073 203.032 463.377 202.016Z" fill="#FFB04C"/>
<path fill-rule="evenodd" clip-rule="evenodd" d="M467.99 220.629C467.522 220.767 467.028 220.878 466.507 220.959C465.338 216.225 464.349 211.448 463.542 206.628C463.664 205.961 464.048 205.796 464.695 206.134C465.484 211.07 466.581 215.902 467.99 220.629Z" fill="#FFB04C"/>
<path fill-rule="evenodd" clip-rule="evenodd" d="M438.834 221.617C438.388 221.604 437.949 221.55 437.516 221.453C437.569 218.31 437.788 215.18 438.175 212.064C438.936 211.695 439.32 211.914 439.328 212.723C438.984 215.678 438.819 218.643 438.834 221.617Z" fill="#FFB04C"/>
</g>
<path fill-rule="evenodd" clip-rule="evenodd" d="M396.665 213.216C399.093 212.77 400.822 213.648 401.854 215.852C402.242 219.581 400.567 221.311 396.83 221.041C395.418 220.563 394.512 219.601 394.112 218.158C393.702 215.847 394.553 214.2 396.665 213.216Z" fill="#EEE9E6"/>
<path fill-rule="evenodd" clip-rule="evenodd" d="M397.324 214.37C400.111 214.489 401.126 215.861 400.372 218.488C399.296 220.002 397.95 220.303 396.336 219.394C394.569 217.302 394.898 215.627 397.324 214.37Z" fill="#9F9F9F"/>
<path fill-rule="evenodd" clip-rule="evenodd" d="M341.482 231.172C341.762 231.145 342.037 231.173 342.306 231.254C342.404 231.429 342.459 231.621 342.47 231.831C342.316 232.526 341.96 233.076 341.4 233.478C340.924 233.468 340.731 233.221 340.823 232.737C340.971 232.191 341.191 231.671 341.482 231.172Z" fill="#FEE3D1"/>
<path fill-rule="evenodd" clip-rule="evenodd" d="M339.012 236.112C340.015 236.078 340.262 236.516 339.753 237.43C335.839 244.324 332.051 251.298 328.387 258.35C327.424 258.704 327.094 258.374 327.399 257.361C331.102 250.173 334.973 243.09 339.012 236.112Z" fill="#FEE3D1"/>
<path fill-rule="evenodd" clip-rule="evenodd" d="M415.608 239.242C418.286 239.089 419.138 240.242 418.161 242.701C416.819 243.895 415.666 243.731 414.702 242.207C414.203 240.958 414.504 239.97 415.608 239.242Z" fill="#F0EBE9"/>
<path fill-rule="evenodd" clip-rule="evenodd" d="M418.079 244.679C418.92 244.563 419.69 244.728 420.385 245.173C420.767 245.799 421.068 246.458 421.291 247.149C423.155 252.635 425.022 258.125 426.891 263.622C427.135 265.465 426.338 266.371 424.503 266.339C424.153 266.155 423.85 265.908 423.597 265.598C421.381 259.426 419.24 253.221 417.173 246.985C417.062 246.601 417.062 246.216 417.173 245.832C417.448 245.42 417.749 245.036 418.079 244.679Z" fill="#F4F1EF"/>
<path opacity="0.994" fill-rule="evenodd" clip-rule="evenodd" d="M310.434 288.193C310.434 288.193 310.027 289.762 310.434 291.624C310.979 294.118 312.434 295.819 314.799 296.73C314.994 296.989 315.269 297.125 315.623 297.142C316.666 297.252 317.71 297.252 318.753 297.142C319.24 297.096 319.678 296.959 320.07 296.73C320.709 296.274 321.424 295.944 322.212 295.742C321.581 297.872 321.554 300.013 322.129 302.166C324.01 306.463 327.003 307.452 331.107 305.131C331.161 305.185 331.217 305.241 331.271 305.296C330.879 306.763 330.851 308.246 331.189 309.743C331.927 312.319 333.6 313.856 336.213 314.355C336.621 314.464 337.06 314.52 337.531 314.52C338.236 314.546 338.895 314.438 339.507 314.19C340.188 313.798 340.902 313.469 341.649 313.202C341.621 314.082 341.649 314.961 341.731 315.838C342.36 319.086 344.255 321.117 347.414 321.932C347.234 321.952 347.126 322.062 347.084 322.262C330.96 361.702 314.791 401.127 298.574 440.531C298.446 440.813 298.227 440.977 297.915 441.025C294.484 441.325 291.108 441.104 287.785 440.366C302.676 398.99 317.665 357.645 332.754 316.332C332.205 315.811 331.629 315.317 331.024 314.849C329.652 313.289 328.802 311.478 328.471 309.414C325.607 309.313 323.218 308.214 321.306 306.119C320.935 305.541 320.606 304.938 320.317 304.307C319.879 302.882 319.494 301.454 319.164 300.025C314.271 300.68 310.811 298.758 308.787 294.259C307.586 291.532 308.375 285.941 308.375 285.941L310.434 288.193Z" fill="#131418"/>
<path fill-rule="evenodd" clip-rule="evenodd" d="M315.457 271.527C313.85 274.453 311.708 276.924 309.033 278.94C309.789 278.047 310.641 277.223 311.586 276.469C312.926 274.832 314.217 273.184 315.457 271.527Z" fill="#796154"/>
<path fill-rule="evenodd" clip-rule="evenodd" d="M401.442 283.058C401.424 283.16 401.37 283.243 401.278 283.305C399.647 283.645 398 283.836 396.336 283.882C398.014 283.593 399.716 283.318 401.442 283.058Z" fill="#3A3A3F"/>
<path fill-rule="evenodd" clip-rule="evenodd" d="M396.006 283.881C395.88 284.008 395.716 284.091 395.511 284.128C393.067 284.265 390.65 284.237 388.264 284.046C390.846 284.074 393.428 284.02 396.006 283.881Z" fill="#58575A"/>
<path fill-rule="evenodd" clip-rule="evenodd" d="M303.561 282.132C308.275 284.825 307.601 285.499 308.948 286.172C309.012 287.997 309.567 287.436 309.621 287.519C308.694 290.337 307.586 291.531 308.787 294.259C310.811 298.757 314.271 300.679 319.164 300.024C319.494 301.453 319.879 302.882 320.317 304.306C320.606 304.937 320.935 305.54 321.306 306.118C323.218 308.214 325.607 309.312 328.471 309.413C328.802 311.477 329.652 313.289 331.024 314.849C331.629 315.316 332.205 315.811 332.754 316.331C317.665 357.645 302.676 398.989 287.785 440.365C281.984 439.346 276.383 437.699 270.984 435.424C261.817 431.61 253.197 426.862 245.123 421.175C242.957 419.53 240.871 417.8 238.863 415.987C256.589 380.756 274.405 345.561 292.315 310.401C292.821 308.026 291.915 306.487 289.597 305.789C293.537 298.843 299.705 289.131 303.561 282.132Z" fill="#1E1F26"/>
<path fill-rule="evenodd" clip-rule="evenodd" d="M314.799 296.73C316.55 297.134 318.306 297.134 320.07 296.73C319.678 296.959 319.24 297.096 318.752 297.142C317.709 297.252 316.665 297.252 315.622 297.142C315.268 297.126 314.993 296.989 314.799 296.73Z" fill="#453C3A"/>
<path opacity="0.992" fill-rule="evenodd" clip-rule="evenodd" d="M289.595 305.788C291.912 306.486 292.818 308.025 292.313 310.4C274.403 345.56 256.586 380.756 238.861 415.986C237.846 415.108 236.912 414.148 236.061 413.103C235.583 412.706 235.089 412.349 234.578 412.033C233.782 411.072 233.124 410.03 232.602 408.903C232.687 408.392 232.824 407.898 233.013 407.42C251.875 373.539 270.736 339.661 289.595 305.788Z" fill="#292A31"/>
<path fill-rule="evenodd" clip-rule="evenodd" d="M339.505 314.189C338.893 314.436 338.234 314.545 337.529 314.518C337.058 314.518 336.619 314.462 336.211 314.353C337.315 314.372 338.412 314.317 339.505 314.189Z" fill="#514642"/>
<path opacity="0.99" fill-rule="evenodd" clip-rule="evenodd" d="M385.465 438.884C382.515 439.299 379.55 439.49 376.57 439.461C376.189 439.278 375.942 438.976 375.829 438.555C368.443 411.918 361.03 385.287 353.591 358.665C353.447 357.894 353.308 357.125 353.18 356.359C353.708 356.109 354.229 355.834 354.745 355.536C355.486 355.728 356.036 356.167 356.392 356.853C366 383.642 375.608 410.435 385.218 437.237C385.389 437.774 385.471 438.322 385.465 438.884Z" fill="#292A31"/>
<path opacity="0.993" fill-rule="evenodd" clip-rule="evenodd" d="M234.578 412.034C235.089 412.35 235.583 412.708 236.061 413.105C236.912 414.149 237.846 415.11 238.861 415.987C240.869 417.801 242.954 419.531 245.12 421.176C253.195 426.862 261.815 431.611 270.981 435.424C270.548 435.849 270.191 436.344 269.911 436.907C267.601 441.308 265.213 445.645 262.745 449.92C262.376 449.968 262.047 449.913 261.757 449.755C260.914 449.539 260.036 449.431 259.121 449.426C257.002 449.477 254.915 449.368 252.862 449.096C254.626 449.147 256.382 449.147 258.133 449.096C260.103 445.337 262.054 441.603 263.981 437.895C252.51 432.799 242.488 425.633 233.919 416.399C233.821 416.323 233.712 416.295 233.59 416.317C234.127 415.161 234.731 414.036 235.402 412.94C235.093 412.66 234.819 412.357 234.578 412.034Z" fill="#E5B393"/>
<path opacity="0.997" fill-rule="evenodd" clip-rule="evenodd" d="M233.59 416.318C233.712 416.296 233.822 416.324 233.92 416.4C242.489 425.634 252.51 432.799 263.981 437.896C262.054 441.604 260.104 445.338 258.134 449.097C256.383 449.148 254.627 449.148 252.863 449.097C252.35 449.136 251.856 449.08 251.38 448.932C250.278 448.571 249.125 448.407 247.921 448.438C242.523 447.665 237.252 446.374 232.108 444.567C230.017 443.768 227.986 442.836 226.013 441.767C224.986 441.179 224.053 440.466 223.213 439.625C222.527 439.291 221.868 438.934 221.236 438.555C225.315 431.109 229.433 423.697 233.59 416.318Z" fill="#FBD1B6"/>
<path opacity="0.996" fill-rule="evenodd" clip-rule="evenodd" d="M438.503 418.624C438.485 418.726 438.43 418.808 438.338 418.871C438.847 419.861 439.287 420.877 439.656 421.918C431.326 428.39 422.047 433.139 411.818 436.167C411.732 436.259 411.676 436.369 411.653 436.496C412.182 438.11 412.785 439.675 413.465 441.19C410.815 440.494 408.179 439.835 405.559 439.214C405.853 439.262 406.127 439.206 406.382 439.049C405.868 437.506 405.265 436.023 404.57 434.602C405.02 434.404 405.46 434.157 405.888 433.86C414.02 431.551 421.762 428.339 429.114 424.224C432.153 422.732 435.009 420.948 437.679 418.871C437.929 418.705 438.205 418.622 438.503 418.624Z" fill="#E3B291"/>
<path opacity="0.996" fill-rule="evenodd" clip-rule="evenodd" d="M439.655 421.918C442.529 427.834 445.275 433.818 447.891 439.873C445.42 441.466 442.73 442.508 439.82 443.003C434.95 443.666 430.065 443.831 425.159 443.497C424.374 443.268 423.55 443.157 422.689 443.167C419.516 442.859 416.441 442.2 413.464 441.191C412.784 439.675 412.181 438.11 411.652 436.496C411.675 436.369 411.731 436.259 411.817 436.167C422.046 433.139 431.325 428.39 439.655 421.918Z" fill="#FBD1B6"/>
<path fill-rule="evenodd" clip-rule="evenodd" d="M228.486 430.319C229.227 430.263 229.529 430.592 229.392 431.307C228.11 433.845 226.764 436.342 225.356 438.802C224.452 438.882 224.15 438.471 224.45 437.566C225.839 435.173 227.185 432.756 228.486 430.319Z" fill="#FEE3D1"/>
<path opacity="0.998" fill-rule="evenodd" clip-rule="evenodd" d="M221.237 438.554C221.868 438.933 222.527 439.29 223.213 439.624C224.053 440.464 224.986 441.178 226.014 441.766C227.986 442.835 230.018 443.767 232.108 444.566C237.252 446.373 242.523 447.664 247.921 448.437C249.033 448.737 250.186 448.901 251.381 448.931C251.857 449.079 252.351 449.135 252.863 449.096C254.915 449.368 257.002 449.476 259.122 449.425C259.962 449.666 260.84 449.774 261.758 449.755C262.048 449.913 262.377 449.967 262.746 449.919C262.652 450.209 262.514 450.483 262.334 450.743C262.252 458.65 262.224 466.556 262.252 474.463C260.498 475.56 258.686 476.576 256.816 477.51C250.736 479.396 244.533 480.714 238.203 481.463C229.177 482.618 220.118 483.002 211.024 482.616C203.793 482.442 196.601 481.837 189.446 480.804C183.414 479.755 177.594 478.026 171.985 475.616C171.926 473.084 172.009 470.559 172.232 468.039C172.517 466.197 173.066 464.441 173.88 462.768C176.603 457.518 180.474 453.318 185.492 450.166C192.874 445.783 200.781 442.654 209.212 440.777C213.208 439.962 217.217 439.221 221.237 438.554Z" fill="#1E1F26"/>
<path opacity="0.01" fill-rule="evenodd" clip-rule="evenodd" d="M205.094 439.377C205.312 439.487 205.312 439.487 205.094 439.377V439.377Z" fill="black"/>
<path opacity="0.998" fill-rule="evenodd" clip-rule="evenodd" d="M405.56 439.214C408.181 439.835 410.816 440.494 413.467 441.191C416.443 442.2 419.519 442.859 422.691 443.167C423.477 443.396 424.3 443.506 425.162 443.497C425.79 443.632 426.448 443.714 427.139 443.744C429.774 443.854 432.41 443.854 435.045 443.744C436.676 443.594 438.267 443.347 439.822 443.002C442.733 442.508 445.423 441.466 447.893 439.873C450.293 445.027 451.693 450.463 452.094 456.18C452.683 462.716 452.326 469.195 451.023 475.617C444.958 477.902 438.699 479.467 432.245 480.312C422.67 481.881 413.034 482.787 403.337 483.029C390.811 482.817 378.485 481.142 366.357 478.005C363.397 477.23 360.542 476.213 357.791 474.958C356.823 468.559 358.388 462.902 362.486 457.992C367.633 452.573 373.646 448.372 380.523 445.391C388.497 441.833 396.843 439.774 405.56 439.214Z" fill="#1E1F26"/>
<path fill-rule="evenodd" clip-rule="evenodd" d="M422.689 443.166C423.551 443.156 424.375 443.266 425.16 443.495C424.299 443.505 423.475 443.395 422.689 443.166Z" fill="#B69989"/>
<path fill-rule="evenodd" clip-rule="evenodd" d="M439.822 443.002C438.267 443.346 436.676 443.593 435.045 443.743C432.41 443.854 429.774 443.854 427.139 443.743C426.449 443.714 425.79 443.631 425.162 443.496C430.067 443.83 434.953 443.666 439.822 443.002Z" fill="#C6A693"/>
<path fill-rule="evenodd" clip-rule="evenodd" d="M247.922 448.438C249.126 448.407 250.279 448.571 251.381 448.932C250.187 448.902 249.034 448.738 247.922 448.438Z" fill="#C3A492"/>
<path fill-rule="evenodd" clip-rule="evenodd" d="M259.121 449.425C260.035 449.43 260.913 449.538 261.757 449.754C260.839 449.774 259.961 449.665 259.121 449.425Z" fill="#9D7B68"/>
<path fill-rule="evenodd" clip-rule="evenodd" d="M185.822 455.191C186.893 455.132 187.168 455.544 186.645 456.427C185.672 456.55 185.398 456.138 185.822 455.191Z" fill="#EBEAEB"/>
<path fill-rule="evenodd" clip-rule="evenodd" d="M184.668 457.827C184.081 458.15 183.586 458.59 183.185 459.145C182.691 459.31 182.362 459.639 182.197 460.133C181.126 461.311 180.192 462.601 179.397 464.004C178.491 464.197 178.134 463.839 178.326 462.934C179.14 461.626 180.019 460.362 180.961 459.145C181.722 458.425 182.518 457.766 183.35 457.168C183.623 457.061 183.897 456.953 184.173 456.839C184.581 457.033 184.746 457.363 184.668 457.827Z" fill="#F0F0F0"/>
<path fill-rule="evenodd" clip-rule="evenodd" d="M184.669 457.827C184.748 457.363 184.583 457.033 184.175 456.839C183.899 456.952 183.624 457.061 183.352 457.168C183.676 456.674 184.115 456.564 184.669 456.839C184.876 457.191 184.876 457.521 184.669 457.827Z" fill="#ACACAD"/>
<path fill-rule="evenodd" clip-rule="evenodd" d="M368.664 457.167C369.761 456.976 370.09 457.388 369.652 458.402C368.624 458.554 368.295 458.142 368.664 457.167Z" fill="#E9E9E9"/>
<path fill-rule="evenodd" clip-rule="evenodd" d="M366.52 458.815C367.37 458.755 367.672 459.139 367.426 459.968C365.871 461.374 364.774 463.076 364.132 465.074C363.517 465.385 363.106 465.221 362.896 464.58C363.572 462.315 364.779 460.393 366.52 458.815Z" fill="#EFEFEF"/>
<path fill-rule="evenodd" clip-rule="evenodd" d="M183.188 459.144C182.913 459.527 182.584 459.857 182.199 460.132C182.364 459.638 182.693 459.308 183.188 459.144Z" fill="#656567"/>
<path opacity="0.985" fill-rule="evenodd" clip-rule="evenodd" d="M262.252 474.462C262.247 477.111 262.219 479.746 262.169 482.369C261.769 482.967 261.249 483.434 260.605 483.769C257.605 485.192 254.475 486.235 251.215 486.899C241.535 488.79 231.761 489.832 221.895 490.028C210.763 490.42 199.672 489.926 188.622 488.546C184.163 487.994 179.825 486.951 175.609 485.416C174.469 484.97 173.453 484.339 172.562 483.522C172.158 483.016 171.911 482.44 171.82 481.792C171.98 479.74 172.035 477.681 171.985 475.615C177.594 478.025 183.414 479.755 189.445 480.804C196.6 481.837 203.793 482.441 211.024 482.616C220.117 483.001 229.177 482.617 238.203 481.463C244.533 480.713 250.736 479.396 256.816 477.509C258.686 476.576 260.497 475.559 262.252 474.462Z" fill="#131418"/>
<path opacity="0.987" fill-rule="evenodd" clip-rule="evenodd" d="M357.791 474.956C360.542 476.211 363.397 477.228 366.357 478.003C378.485 481.14 390.811 482.815 403.336 483.027C413.033 482.785 422.669 481.879 432.245 480.309C438.698 479.464 444.958 477.9 451.023 475.615C450.38 478.163 449.418 480.578 448.14 482.863C447.718 483.362 447.196 483.719 446.575 483.933C442.475 485.574 438.247 486.783 433.892 487.557C418.999 490.079 404.01 490.903 388.923 490.028C382.552 489.727 376.236 488.957 369.98 487.722C366.417 487.023 363.014 485.87 359.768 484.263C359.115 483.895 358.539 483.428 358.038 482.863C357.801 480.237 357.719 477.601 357.791 474.956Z" fill="#131418"/>
<path opacity="0.012" fill-rule="evenodd" clip-rule="evenodd" d="M166.88 480.887C167.057 481.01 167.084 481.175 166.962 481.381C166.883 481.224 166.855 481.06 166.88 480.887Z" fill="black"/>
<path opacity="0.01" fill-rule="evenodd" clip-rule="evenodd" d="M265.549 480.887C265.737 481.348 265.763 481.842 265.631 482.369C265.549 481.878 265.523 481.384 265.549 480.887Z" fill="black"/>
<defs>
<linearGradient id="paint0_linear_2898_27680" x1="254.792" y1="56.9907" x2="94.9515" y2="276.646" gradientUnits="userSpaceOnUse">
<stop stop-color="#02D1FF"/>
<stop offset="1" stop-color="#2C3AD4"/>
</linearGradient>
<linearGradient id="paint1_linear_2898_27680" x1="244.505" y1="50.4888" x2="126.568" y2="212.676" gradientUnits="userSpaceOnUse">
<stop stop-color="#0ECC6A"/>
<stop offset="1" stop-color="#A8FF3F"/>
</linearGradient>
<linearGradient id="paint2_linear_2898_27680" x1="167.181" y1="26.2563" x2="167.181" y2="57.3775" gradientUnits="userSpaceOnUse">
<stop stop-color="#0ECC6A"/>
<stop offset="1" stop-color="#6BFF3E"/>
</linearGradient>
</defs>
</svg>
