<svg width="643" height="625" viewBox="0 0 643 625" fill="none" xmlns="http://www.w3.org/2000/svg">
<g filter="url(#filter0_f_2898_28347)">
<path d="M164.177 121.968C162.975 117.452 165.661 112.817 170.176 111.614L374.581 57.1772C379.097 55.9746 383.732 58.6603 384.935 63.1759L413.242 169.467C414.445 173.982 411.759 178.618 407.243 179.82L202.838 234.257C198.323 235.46 193.687 232.774 192.485 228.258L164.177 121.968Z" fill="white"/>
<path d="M413.242 169.467C414.445 173.982 411.759 178.618 407.244 179.82L202.839 234.257C198.323 235.46 193.688 232.774 192.485 228.258C189.355 216.505 272.14 85.5538 272.14 85.5538C272.14 85.5538 410.248 158.224 413.242 169.467Z" fill="#FBF4FF"/>
<path d="M164.177 121.968C162.975 117.452 165.661 112.817 170.176 111.614L374.581 57.1772C379.097 55.9746 383.732 58.6603 384.935 63.1759C388.797 77.6776 319.17 142.953 300.914 165.917C298.083 169.477 293.403 170.757 289.156 169.13C261.76 158.636 168.391 137.787 164.177 121.968Z" fill="#E8BFFF"/>
<rect x="191.746" y="196.713" width="60.286" height="8.46119" rx="4.23059" transform="rotate(-14.9128 191.746 196.713)" fill="#F1DBFF"/>
<rect x="195.557" y="211.023" width="40.1906" height="4.23059" rx="2.1153" transform="rotate(-14.9128 195.557 211.023)" fill="#F1DBFF"/>
<rect x="197.734" y="219.198" width="80.3813" height="4.23059" rx="2.1153" transform="rotate(-14.9128 197.734 219.198)" fill="#F1DBFF"/>
<ellipse cx="300.493" cy="152.976" rx="27.4989" ry="28.0277" transform="rotate(-14.9128 300.493 152.976)" fill="#8F27CE" fill-opacity="0.12"/>
<ellipse cx="291.909" cy="153.62" rx="28.5565" ry="28.5565" transform="rotate(-14.9128 291.909 153.62)" fill="#8F27CE"/>
<path d="M297.506 174.294C297.478 177.308 297.767 179.759 298.88 181.313C299.006 181.281 299.131 181.249 299.257 181.215C314.497 177.157 323.561 161.512 319.503 146.272C315.471 131.136 300.012 122.091 284.871 125.945C284.201 128.426 284.677 131.23 286.308 132.948C286.337 132.941 286.367 132.933 286.396 132.925C297.826 129.881 309.56 136.679 312.604 148.109C315.64 159.51 308.884 171.214 297.506 174.294Z" fill="url(#paint0_linear_2898_28347)"/>
<path d="M298.466 174.01C309.261 170.548 315.555 159.186 312.605 148.109C309.655 137.032 298.543 130.305 287.456 132.671C287.789 132.563 288.125 132.464 288.466 132.373C299.516 129.431 310.94 136.311 313.984 147.741C317.028 159.171 310.539 170.823 299.49 173.765C299.149 173.856 298.807 173.938 298.466 174.01Z" fill="#582190"/>
<path fill-rule="evenodd" clip-rule="evenodd" d="M275.828 139.472C271.27 144.662 269.302 151.958 271.213 159.134C273.124 166.312 278.464 171.664 285.003 173.898C279.762 170.361 275.727 164.987 273.972 158.397C272.218 151.811 273.044 145.145 275.828 139.472Z" fill="#582190"/>
<g filter="url(#filter1_i_2898_28347)">
<path fill-rule="evenodd" clip-rule="evenodd" d="M296.154 145.403C295.589 144.53 294.819 143.803 293.906 143.296C292.525 142.529 290.915 142.319 289.394 142.709C287.872 143.098 286.55 144.058 285.688 145.399C285.606 145.526 285.528 145.656 285.456 145.789C285.351 145.773 285.245 145.76 285.139 145.748C283.539 145.573 281.923 145.859 280.475 146.574C279.027 147.289 277.803 148.404 276.941 149.794C276.079 151.184 275.613 152.795 275.597 154.443C275.58 156.092 276.012 157.715 276.845 159.128C277.678 160.541 278.879 161.688 280.312 162.442C281.746 163.195 283.355 163.524 284.959 163.392C286.562 163.26 288.182 162.638 289.475 161.66L289.428 160.763L288.667 160.691C287.556 161.532 286.236 162.038 284.858 162.151C283.48 162.265 282.097 161.982 280.865 161.334C279.633 160.687 278.601 159.7 277.885 158.486C277.169 157.271 276.797 155.877 276.812 154.46C276.826 153.043 277.226 151.659 277.967 150.464C278.708 149.269 279.76 148.31 281.005 147.696C282.231 147.091 283.596 146.843 284.951 146.98C284.655 147.932 284.578 148.949 284.736 149.953C284.943 151.271 285.544 152.484 286.446 153.43C286.309 154.7 286.544 155.985 287.124 157.121C287.737 158.322 288.705 159.296 289.888 159.902C291.071 160.508 292.41 160.716 293.713 160.497C294.539 160.358 295.325 160.051 296.025 159.601L296.452 159.966L296.571 162.222C296.593 162.644 296.947 162.969 297.361 162.947L299.144 162.853L299.254 164.92C299.276 165.343 299.63 165.667 300.043 165.646L304.255 165.423C304.669 165.401 304.987 165.041 304.965 164.619L304.779 161.106C304.769 160.913 304.688 160.731 304.552 160.596C302.845 158.912 299.671 155.764 299.107 155.14C299.272 153.561 299.043 152.954 298.837 152.41C298.828 152.386 298.819 152.362 298.81 152.337C298.796 152.299 298.782 152.261 298.768 152.223L300.46 150.735C300.712 150.513 301.079 150.488 301.359 150.674L302.827 151.649C303.12 151.844 303.506 151.807 303.757 151.56L306.577 148.785C306.903 148.465 306.878 147.925 306.524 147.636L303.553 145.207C303.409 145.089 303.228 145.03 303.044 145.039L296.154 145.403ZM286.946 146.149C287.803 146.44 288.614 146.868 289.347 147.419C289.354 147.419 289.362 147.418 289.37 147.418C290.336 147.367 291.162 148.129 291.215 149.119C291.267 150.11 290.526 150.954 289.559 151.005C288.593 151.056 287.767 150.295 287.714 149.304C287.69 148.836 287.842 148.401 288.112 148.066C287.571 147.727 286.992 147.461 286.387 147.273C286.117 148.05 286.038 148.891 286.169 149.72C286.361 150.94 286.992 152.044 287.938 152.813C288.884 153.582 290.076 153.96 291.279 153.873C292.482 153.787 293.608 153.241 294.436 152.344C295.263 151.447 295.907 150.343 295.925 149.107L296.708 149.066L297.182 149.459L298.489 150.439L300.76 148.475L303.146 150.061L304.953 148.284L302.85 146.564L296.757 146.886L295.444 147.003C294.829 145.852 294.279 145.193 293.217 144.603C292.156 144.014 290.918 143.853 289.749 144.152C288.606 144.444 287.61 145.155 286.946 146.149ZM296.113 157.633C295.399 158.372 294.476 158.86 293.474 159.029C292.472 159.197 291.443 159.037 290.534 158.572C289.625 158.106 288.881 157.358 288.41 156.435C288.11 155.847 287.93 155.206 287.877 154.553C288.939 155.162 290.158 155.446 291.385 155.357C292.95 155.244 294.415 154.534 295.492 153.367C296.006 152.81 296.414 152.167 296.702 151.472C296.702 151.472 296.888 151.612 296.985 151.702C297.082 151.791 297.231 151.973 297.333 152.157C297.435 152.341 297.603 152.9 297.615 153.136C297.628 153.372 297.625 153.325 297.638 153.561C297.65 153.797 297.72 154.199 297.639 154.975L297.567 155.66L298.025 156.167C298.602 156.803 301.589 159.768 303.321 161.479L303.451 163.951L300.688 164.097L300.538 161.265L298.005 161.399L297.89 159.21L297.311 158.737L296.113 157.633Z" fill="#582190"/>
</g>
<path d="M371.335 165.971C371.453 166.416 371.743 166.795 372.142 167.026C372.54 167.257 373.013 167.32 373.458 167.201L392.461 162.14C393.387 161.894 393.938 160.942 393.692 160.017L389.821 145.485C389.703 145.04 389.413 144.661 389.015 144.43C388.616 144.199 388.143 144.136 387.698 144.255L368.695 149.316C368.25 149.434 367.871 149.724 367.64 150.123C367.409 150.521 367.346 150.994 367.465 151.439L371.335 165.971Z" fill="#46A449"/>
<path d="M367.609 169.956C367.451 169.363 367.064 168.857 366.533 168.549C366.002 168.242 365.37 168.158 364.777 168.315L364.182 166.08C364.775 165.922 365.281 165.535 365.588 165.004C365.896 164.473 365.98 163.842 365.822 163.249C365.664 162.656 365.277 162.15 364.746 161.842C364.216 161.535 363.584 161.451 362.991 161.608L362.396 159.373C362.989 159.215 363.495 158.828 363.802 158.297C364.11 157.766 364.194 157.135 364.036 156.542C363.878 155.949 363.491 155.443 362.96 155.135C362.429 154.828 361.798 154.744 361.205 154.901L360.61 152.666C361.203 152.508 361.708 152.121 362.016 151.59C362.324 151.059 362.408 150.428 362.25 149.835C362.092 149.242 361.705 148.736 361.174 148.428C360.643 148.121 360.012 148.036 359.419 148.194L358.526 144.841L360.761 144.245C360.919 144.838 361.306 145.344 361.837 145.652C362.368 145.96 363 146.044 363.592 145.886C364.185 145.728 364.691 145.341 364.999 144.81C365.307 144.279 365.391 143.648 365.233 143.055L367.468 142.459C367.626 143.052 368.013 143.558 368.544 143.866C369.075 144.173 369.707 144.257 370.299 144.1C370.892 143.942 371.398 143.555 371.706 143.024C372.014 142.493 372.098 141.861 371.94 141.268L374.175 140.673C374.333 141.266 374.72 141.772 375.251 142.08C375.782 142.387 376.414 142.471 377.007 142.313C377.599 142.155 378.105 141.768 378.413 141.237C378.721 140.707 378.805 140.075 378.647 139.482L380.882 138.887C381.04 139.48 381.427 139.986 381.958 140.293C382.489 140.601 383.121 140.685 383.714 140.527C384.307 140.369 384.812 139.982 385.12 139.451C385.428 138.92 385.512 138.289 385.354 137.696L387.59 137.101C387.747 137.694 388.134 138.199 388.665 138.507C389.196 138.815 389.828 138.899 390.421 138.741C391.014 138.583 391.519 138.196 391.827 137.665C392.135 137.134 392.219 136.503 392.061 135.91L394.297 135.314L395.19 138.668C394.597 138.826 394.091 139.213 393.783 139.744C393.476 140.275 393.391 140.906 393.549 141.499C393.707 142.092 394.094 142.598 394.625 142.905C395.156 143.213 395.788 143.297 396.38 143.139L396.976 145.375C396.383 145.533 395.877 145.92 395.569 146.451C395.262 146.982 395.178 147.613 395.336 148.206C395.494 148.799 395.881 149.305 396.411 149.613C396.942 149.92 397.574 150.004 398.167 149.846L398.762 152.082C398.169 152.24 397.663 152.627 397.356 153.158C397.048 153.689 396.964 154.32 397.122 154.913C397.28 155.506 397.667 156.012 398.198 156.32C398.729 156.627 399.36 156.711 399.953 156.553L400.548 158.789C399.955 158.947 399.449 159.334 399.142 159.865C398.834 160.396 398.75 161.027 398.908 161.62C399.066 162.213 399.453 162.719 399.984 163.027C400.515 163.334 401.146 163.418 401.739 163.26L402.632 166.614L400.397 167.209C400.239 166.616 399.852 166.11 399.321 165.803C398.79 165.495 398.158 165.411 397.565 165.569C396.973 165.727 396.467 166.114 396.159 166.645C395.851 167.176 395.767 167.807 395.925 168.4L393.689 168.996C393.532 168.403 393.145 167.897 392.614 167.589C392.083 167.281 391.451 167.197 390.858 167.355C390.265 167.513 389.76 167.9 389.452 168.431C389.144 168.962 389.06 169.593 389.218 170.186L386.982 170.782C386.825 170.189 386.438 169.683 385.907 169.375C385.376 169.068 384.744 168.984 384.151 169.141C383.558 169.299 383.053 169.686 382.745 170.217C382.437 170.748 382.353 171.38 382.511 171.973L380.275 172.568C380.118 171.975 379.731 171.469 379.2 171.161C378.669 170.854 378.037 170.77 377.444 170.928C376.851 171.086 376.345 171.473 376.038 172.004C375.73 172.534 375.646 173.166 375.804 173.759L373.568 174.354C373.41 173.761 373.023 173.255 372.493 172.948C371.962 172.64 371.33 172.556 370.737 172.714C370.144 172.872 369.638 173.259 369.331 173.79C369.023 174.321 368.939 174.952 369.097 175.545L366.861 176.14L365.968 172.787C366.561 172.629 367.067 172.242 367.375 171.711C367.682 171.18 367.766 170.549 367.609 169.956ZM372.378 169.883L394.734 163.929C395.327 163.771 395.833 163.384 396.141 162.853C396.448 162.322 396.533 161.691 396.375 161.098L391.611 143.212C391.454 142.619 391.067 142.113 390.536 141.806C390.005 141.498 389.373 141.414 388.78 141.572L366.424 147.526C365.831 147.684 365.325 148.071 365.017 148.602C364.709 149.133 364.625 149.764 364.783 150.357L369.546 168.243C369.704 168.835 370.091 169.341 370.622 169.649C371.153 169.957 371.785 170.041 372.378 169.883Z" fill="#B885D8"/>
<path d="M374.131 162.303C373.892 161.406 372.241 155.206 371.445 152.218L380.97 149.681" stroke="#329235" stroke-width="2" stroke-linecap="round" stroke-linejoin="round"/>
<path d="M385.51 87.869L389.986 104.678M391.628 110.841L392.672 114.763M382.818 95.7863L386.101 108.113" stroke="#F0EBFF" stroke-width="2" stroke-linecap="round" stroke-linejoin="round"/>
<path d="M181.002 142.333L183.389 151.298M184.881 156.901L185.926 160.823M177.75 150.4L185.658 180.095" stroke="#F0EBFF" stroke-width="2" stroke-linecap="round" stroke-linejoin="round"/>
<path d="M193.219 131.879L235.047 144.741M201.772 130.201L209.541 132.333M213.499 133.679L220.558 135.399M239.005 146.087L244.943 148.106" stroke="#CF96F2" stroke-width="2" stroke-linecap="round"/>
</g>
<g filter="url(#filter2_f_2898_28347)">
<path d="M425.573 201.93C426.542 200.312 428.64 199.786 430.258 200.755L503.514 244.635C505.132 245.605 505.659 247.702 504.689 249.321L481.872 287.414C480.902 289.032 478.804 289.558 477.186 288.589L403.93 244.709C402.312 243.739 401.786 241.642 402.755 240.023L425.573 201.93Z" fill="white"/>
<path d="M481.872 287.414C480.903 289.032 478.805 289.558 477.187 288.589L403.931 244.709C402.313 243.739 401.787 241.641 402.756 240.023C405.279 235.811 466.484 222.952 466.484 222.952C466.484 222.952 484.286 283.384 481.872 287.414Z" fill="#FBF4FF"/>
<path d="M425.573 201.93C426.542 200.312 428.64 199.786 430.258 200.755L503.514 244.635C505.132 245.605 505.659 247.702 504.689 249.321C501.576 254.518 463.09 252.715 451.305 253.887C449.478 254.069 447.791 253.074 447.068 251.386C442.401 240.501 422.177 207.6 425.573 201.93Z" fill="#E8BFFF"/>
<rect x="411.684" y="230.937" width="24.3368" height="3.41569" rx="1.70785" transform="rotate(30.9215 411.684 230.937)" fill="#F1DBFF"/>
<rect x="408.611" y="236.065" width="16.2246" height="1.70785" rx="0.853924" transform="rotate(30.9215 408.611 236.065)" fill="#F1DBFF"/>
<rect x="406.855" y="238.995" width="32.4491" height="1.70785" rx="0.853924" transform="rotate(30.9215 406.855 238.995)" fill="#F1DBFF"/>
<ellipse cx="454.934" cy="250.126" rx="11.101" ry="11.3145" transform="rotate(30.9215 454.934 250.126)" fill="#8F27CE" fill-opacity="0.12"/>
<ellipse cx="452.333" cy="247.821" rx="11.528" ry="11.528" transform="rotate(30.9215 452.333 247.821)" fill="#8F27CE"/>
<path d="M447.922 255.257C447.041 256.096 446.412 256.869 446.275 257.629C446.32 257.656 446.365 257.684 446.41 257.71C451.871 260.982 458.951 259.207 462.223 253.745C465.472 248.32 463.743 241.299 458.368 237.999C457.462 238.503 456.784 239.429 456.745 240.385C456.755 240.391 456.766 240.398 456.776 240.404C460.873 242.858 462.204 248.167 459.751 252.264C457.303 256.35 452.014 257.685 447.922 255.257Z" fill="url(#paint1_linear_2898_28347)"/>
<path d="M448.272 255.455C452.311 257.607 457.372 256.234 459.749 252.264C462.127 248.294 460.95 243.184 457.147 240.639C457.271 240.705 457.395 240.775 457.517 240.848C461.477 243.22 462.698 248.464 460.244 252.56C457.79 256.657 452.591 258.054 448.631 255.683C448.509 255.609 448.389 255.533 448.272 255.455Z" fill="#582190"/>
<path fill-rule="evenodd" clip-rule="evenodd" d="M444.518 251.524C444.068 249.012 444.489 246.332 445.904 243.971C447.318 241.61 449.48 239.975 451.906 239.185C449.121 239.325 446.455 240.807 444.915 243.379C443.374 245.951 443.326 249.003 444.518 251.524Z" fill="#582190"/>
<g filter="url(#filter3_i_2898_28347)">
<path fill-rule="evenodd" clip-rule="evenodd" d="M455.908 246.74C456.002 246.33 455.996 245.903 455.886 245.496C455.72 244.88 455.328 244.355 454.787 244.024C454.246 243.693 453.596 243.58 452.965 243.708C452.905 243.72 452.846 243.734 452.787 243.75C452.762 243.715 452.736 243.681 452.71 243.647C452.311 243.134 451.773 242.747 451.159 242.529C450.545 242.31 449.877 242.27 449.232 242.411C448.587 242.553 447.99 242.871 447.508 243.329C447.026 243.788 446.678 244.37 446.503 245.009C446.328 245.647 446.333 246.318 446.518 246.945C446.703 247.572 447.061 248.13 447.55 248.557C448.039 248.985 448.675 249.279 449.322 249.378L449.568 249.112L449.375 248.872C448.819 248.786 448.302 248.546 447.881 248.179C447.46 247.812 447.153 247.332 446.994 246.793C446.835 246.254 446.831 245.678 446.981 245.129C447.131 244.58 447.431 244.08 447.845 243.686C448.259 243.291 448.773 243.018 449.327 242.897C449.882 242.775 450.455 242.81 450.983 242.998C451.503 243.183 451.959 243.508 452.3 243.939C451.942 244.121 451.625 244.385 451.379 244.713C451.056 245.144 450.873 245.659 450.853 246.186C450.447 246.504 450.141 246.933 449.975 247.421C449.8 247.936 449.79 248.49 449.947 249.003C450.104 249.516 450.421 249.962 450.851 250.278C451.123 250.478 451.433 250.62 451.76 250.696L451.775 250.922L451.155 251.591C451.039 251.716 451.044 251.91 451.167 252.024L451.696 252.514L451.128 253.127C451.012 253.252 451.017 253.446 451.14 253.56L452.389 254.717C452.512 254.83 452.706 254.821 452.822 254.696L453.787 253.654C453.84 253.597 453.87 253.522 453.87 253.445C453.878 252.477 453.897 250.672 453.919 250.333C454.423 249.937 454.534 249.7 454.634 249.488C454.638 249.478 454.643 249.469 454.647 249.459C454.654 249.444 454.661 249.43 454.668 249.415L455.575 249.486C455.71 249.497 455.821 249.596 455.846 249.73L455.976 250.429C456.002 250.568 456.121 250.67 456.264 250.673L457.86 250.709C458.045 250.713 458.194 250.554 458.178 250.371L458.046 248.827C458.039 248.752 458.006 248.683 457.951 248.633L455.908 246.74ZM453.102 244.283C453.259 244.613 453.363 244.968 453.41 245.336C453.412 245.338 453.414 245.34 453.416 245.342C453.703 245.607 453.715 246.061 453.443 246.355C453.17 246.648 452.717 246.671 452.431 246.406C452.144 246.14 452.132 245.687 452.405 245.393C452.533 245.254 452.702 245.176 452.875 245.16C452.821 244.908 452.735 244.665 452.62 244.437C452.318 244.578 452.053 244.791 451.85 245.062C451.55 245.461 451.408 245.954 451.452 246.445C451.495 246.935 451.721 247.386 452.084 247.71C452.448 248.034 452.922 248.207 453.415 248.194C453.907 248.182 454.408 248.058 454.771 247.715L455.003 247.93L455.023 248.178L455.106 248.832L456.314 248.938L456.526 250.075L457.549 250.098L457.455 249.005L455.648 247.331L455.245 246.984C455.405 246.482 455.441 246.137 455.314 245.664C455.186 245.191 454.884 244.787 454.469 244.533C454.063 244.284 453.577 244.196 453.102 244.283ZM452.355 250.168C451.94 250.169 451.539 250.039 451.209 249.796C450.878 249.553 450.635 249.211 450.514 248.816C450.393 248.422 450.401 247.996 450.535 247.6C450.621 247.348 450.756 247.116 450.93 246.916C451.053 247.395 451.313 247.828 451.684 248.158C452.157 248.58 452.775 248.804 453.415 248.788C453.722 248.78 454.023 248.717 454.305 248.605C454.305 248.605 454.316 248.699 454.318 248.752C454.319 248.805 454.308 248.899 454.284 248.981C454.259 249.062 454.145 249.268 454.08 249.338C454.015 249.408 454.028 249.394 453.963 249.464C453.898 249.534 453.802 249.667 453.554 249.862L453.335 250.034L453.318 250.309C453.295 250.655 453.277 252.354 453.269 253.337L452.589 254.07L451.77 253.311L452.548 252.471L451.797 251.775L452.398 251.126L452.372 250.825L452.355 250.168Z" fill="#582190"/>
</g>
<path d="M471.094 274.294C470.999 274.453 470.971 274.644 471.016 274.824C471.061 275.005 471.176 275.16 471.335 275.255L478.146 279.334C478.478 279.533 478.908 279.425 479.107 279.093L482.226 273.885C482.322 273.726 482.35 273.535 482.305 273.355C482.26 273.175 482.145 273.02 481.985 272.925L475.175 268.845C475.015 268.75 474.825 268.721 474.644 268.767C474.464 268.812 474.309 268.927 474.214 269.086L471.094 274.294Z" fill="#46A449"/>
<path d="M468.894 274.336C469.021 274.124 469.059 273.869 468.998 273.629C468.938 273.389 468.785 273.182 468.572 273.055L469.052 272.254C469.265 272.381 469.519 272.419 469.759 272.359C470 272.298 470.206 272.145 470.333 271.933C470.461 271.72 470.498 271.466 470.438 271.225C470.378 270.985 470.225 270.779 470.012 270.651L470.492 269.85C470.705 269.977 470.959 270.015 471.199 269.955C471.44 269.895 471.646 269.741 471.773 269.529C471.901 269.316 471.938 269.062 471.878 268.822C471.818 268.581 471.664 268.375 471.452 268.248L471.932 267.446C472.144 267.574 472.399 267.611 472.639 267.551C472.879 267.491 473.086 267.338 473.213 267.125C473.34 266.913 473.378 266.658 473.318 266.418C473.258 266.178 473.104 265.971 472.892 265.844L473.612 264.642L474.413 265.122C474.286 265.335 474.248 265.589 474.308 265.829C474.368 266.069 474.522 266.276 474.734 266.403C474.947 266.53 475.201 266.568 475.441 266.508C475.682 266.448 475.888 266.294 476.015 266.082L476.817 266.562C476.689 266.774 476.652 267.029 476.712 267.269C476.772 267.509 476.925 267.716 477.138 267.843C477.35 267.97 477.605 268.008 477.845 267.948C478.085 267.887 478.292 267.734 478.419 267.522L479.22 268.002C479.093 268.214 479.055 268.469 479.116 268.709C479.176 268.949 479.329 269.156 479.542 269.283C479.754 269.41 480.009 269.448 480.249 269.388C480.489 269.327 480.696 269.174 480.823 268.962L481.624 269.441C481.497 269.654 481.459 269.908 481.519 270.149C481.58 270.389 481.733 270.595 481.945 270.723C482.158 270.85 482.412 270.888 482.652 270.827C482.893 270.767 483.099 270.614 483.227 270.401L484.028 270.881C483.9 271.094 483.863 271.348 483.923 271.588C483.983 271.829 484.137 272.035 484.349 272.162C484.562 272.29 484.816 272.327 485.056 272.267C485.296 272.207 485.503 272.054 485.63 271.841L486.431 272.321L485.712 273.523C485.499 273.396 485.245 273.358 485.004 273.418C484.764 273.478 484.558 273.632 484.43 273.844C484.303 274.057 484.265 274.311 484.326 274.551C484.386 274.792 484.539 274.998 484.752 275.125L484.272 275.927C484.059 275.799 483.805 275.762 483.565 275.822C483.324 275.882 483.118 276.035 482.991 276.248C482.863 276.46 482.826 276.715 482.886 276.955C482.946 277.195 483.099 277.402 483.312 277.529L482.832 278.33C482.619 278.203 482.365 278.165 482.125 278.226C481.885 278.286 481.678 278.439 481.551 278.652C481.423 278.864 481.386 279.118 481.446 279.359C481.506 279.599 481.66 279.806 481.872 279.933L481.392 280.734C481.18 280.607 480.925 280.569 480.685 280.629C480.445 280.69 480.238 280.843 480.111 281.055C479.984 281.268 479.946 281.522 480.006 281.762C480.067 282.003 480.22 282.209 480.432 282.337L479.712 283.538L478.911 283.058C479.038 282.846 479.076 282.592 479.016 282.351C478.956 282.111 478.802 281.905 478.59 281.777C478.377 281.65 478.123 281.612 477.883 281.673C477.642 281.733 477.436 281.886 477.309 282.099L476.507 281.619C476.635 281.406 476.672 281.152 476.612 280.911C476.552 280.671 476.399 280.465 476.186 280.337C475.974 280.21 475.719 280.173 475.479 280.233C475.239 280.293 475.032 280.446 474.905 280.659L474.104 280.179C474.231 279.966 474.269 279.712 474.208 279.472C474.148 279.231 473.995 279.025 473.782 278.898C473.57 278.77 473.316 278.733 473.075 278.793C472.835 278.853 472.629 279.006 472.501 279.219L471.7 278.739C471.827 278.526 471.865 278.272 471.805 278.032C471.744 277.792 471.591 277.585 471.379 277.458C471.166 277.331 470.912 277.293 470.672 277.353C470.431 277.413 470.225 277.567 470.098 277.779L469.296 277.299C469.424 277.087 469.461 276.832 469.401 276.592C469.341 276.352 469.187 276.145 468.975 276.018C468.762 275.891 468.508 275.853 468.268 275.913C468.028 275.974 467.821 276.127 467.694 276.339L466.893 275.859L467.612 274.658C467.825 274.785 468.079 274.822 468.32 274.762C468.56 274.702 468.766 274.549 468.894 274.336ZM470.256 275.697L478.269 280.496C478.481 280.623 478.735 280.661 478.976 280.601C479.216 280.541 479.422 280.387 479.55 280.175L483.389 273.765C483.516 273.552 483.554 273.298 483.494 273.058C483.434 272.818 483.28 272.611 483.068 272.484L475.056 267.684C474.843 267.557 474.589 267.519 474.348 267.58C474.108 267.64 473.902 267.793 473.774 268.006L469.935 274.416C469.808 274.628 469.77 274.882 469.83 275.123C469.89 275.363 470.044 275.569 470.256 275.697Z" fill="#B885D8"/>
<path d="M472.944 274.072C473.137 273.751 474.468 271.529 475.109 270.458L478.523 272.503" stroke="#329235" stroke-width="2" stroke-linecap="round" stroke-linejoin="round"/>
<path d="M497.7 256.432L494.092 262.457M492.769 264.665L491.927 266.071M494.65 257.88L492.004 262.298" stroke="#F0EBFF" stroke-width="2" stroke-linecap="round" stroke-linejoin="round"/>
<path d="M424.407 212.53L422.482 215.743M421.28 217.751L420.438 219.157M421.156 213.857L414.781 224.5" stroke="#F0EBFF" stroke-width="2" stroke-linecap="round" stroke-linejoin="round"/>
<path d="M430.871 213.127L438.911 228.857M433.763 215.132L435.331 217.981M436.054 219.506L437.541 222.034M439.635 230.382L440.72 232.67" stroke="#CF96F2" stroke-width="2" stroke-linecap="round"/>
</g>
<path d="M327.009 314.616C328.271 308.2 334.495 304.024 340.911 305.286L631.3 362.445C637.715 363.708 641.892 369.932 640.63 376.347L610.907 527.35C609.644 533.765 603.42 537.942 597.005 536.679L306.615 479.52C300.2 478.257 296.023 472.033 297.286 465.618L327.009 314.616Z" fill="white"/>
<path d="M610.907 527.349C609.645 533.764 603.421 537.941 597.006 536.678L306.616 479.52C300.201 478.257 296.024 472.033 297.286 465.618C300.573 448.921 485.094 335.174 485.094 335.174C485.094 335.174 614.051 511.378 610.907 527.349Z" fill="#FBF4FF"/>
<path d="M327.009 314.616C328.271 308.2 334.495 304.024 340.911 305.286L631.3 362.445C637.715 363.708 641.892 369.932 640.63 376.347C636.574 396.949 508.945 436.223 471.887 453.872C466.142 456.609 459.472 455.342 455.133 450.688C427.144 420.664 322.585 337.09 327.009 314.616Z" fill="#E8BFFF"/>
<rect x="315.738" y="425.511" width="84.3491" height="11.8385" rx="5.91923" transform="rotate(11.1354 315.738 425.511)" fill="#F1DBFF"/>
<rect x="311.738" y="445.84" width="56.2327" height="5.91923" rx="2.95962" transform="rotate(11.1354 311.738 445.84)" fill="#F1DBFF"/>
<rect x="309.451" y="457.455" width="112.465" height="5.91923" rx="2.95962" transform="rotate(11.1354 309.451 457.455)" fill="#F1DBFF"/>
<ellipse cx="479.31" cy="437.347" rx="38.475" ry="39.2149" transform="rotate(11.1354 479.31 437.347)" fill="#8F27CE" fill-opacity="0.12"/>
<ellipse cx="468.125" cy="432.883" rx="39.9548" ry="39.9548" transform="rotate(11.1354 468.125 432.883)" fill="#8F27CE"/>
<path d="M462.459 462.309C460.572 466.08 459.429 469.339 459.874 471.977C460.051 472.014 460.229 472.05 460.407 472.085C482.058 476.347 503.064 462.25 507.326 440.599C511.559 419.096 497.682 398.228 476.282 393.77C473.916 396.476 472.791 400.294 473.786 403.456C473.827 403.464 473.869 403.473 473.911 403.481C490.149 406.677 500.722 422.432 497.525 438.67C494.337 454.867 478.654 465.428 462.459 462.309Z" fill="url(#paint2_linear_2898_28347)"/>
<path d="M463.841 462.542C479.538 464.823 494.43 454.407 497.528 438.67C500.625 422.934 490.791 407.651 475.401 403.813C475.884 403.882 476.369 403.964 476.853 404.06C492.55 407.15 502.684 422.818 499.488 439.056C496.292 455.294 480.976 465.953 465.279 462.864C464.794 462.768 464.315 462.661 463.841 462.542Z" fill="#582190"/>
<path fill-rule="evenodd" clip-rule="evenodd" d="M446.983 454.127C442.569 446.461 440.8 437.228 442.642 427.867C444.484 418.51 449.617 410.639 456.603 405.219C447.685 408.942 440.729 416.903 438.722 427.097C436.715 437.294 440.138 447.301 446.983 454.127Z" fill="#582190"/>
<g filter="url(#filter4_i_2898_28347)">
<path fill-rule="evenodd" clip-rule="evenodd" d="M478.51 425.162C478.336 423.717 477.816 422.331 476.979 421.132C475.715 419.319 473.82 418.067 471.668 417.621C469.516 417.176 467.264 417.57 465.356 418.726C465.175 418.836 464.998 418.952 464.825 419.074C464.702 418.99 464.578 418.908 464.452 418.829C462.548 417.625 460.342 416.992 458.082 417.001C455.822 417.009 453.598 417.659 451.661 418.877C449.723 420.095 448.149 421.833 447.114 423.896C446.08 425.958 445.627 428.263 445.806 430.551C445.985 432.839 446.789 435.019 448.128 436.847C449.467 438.675 451.288 440.077 453.385 440.896C455.482 441.716 457.9 441.928 460.126 441.494L460.618 440.337L459.706 439.78C457.792 440.154 455.823 439.979 454.021 439.275C452.218 438.571 450.654 437.365 449.503 435.794C448.352 434.223 447.661 432.349 447.507 430.383C447.353 428.416 447.743 426.435 448.632 424.663C449.521 422.89 450.874 421.396 452.539 420.349C454.205 419.302 456.116 418.744 458.058 418.736C459.971 418.729 461.839 419.257 463.459 420.261C462.502 421.275 461.779 422.507 461.361 423.866C460.812 425.65 460.823 427.544 461.375 429.288C460.423 430.8 459.929 432.56 459.96 434.345C459.993 436.231 460.61 438.048 461.725 439.537C462.84 441.026 464.395 442.111 466.168 442.636C467.292 442.969 468.468 443.066 469.625 442.93L469.937 443.651L468.701 446.56C468.469 447.105 468.714 447.73 469.248 447.957L471.548 448.935L470.415 451.6C470.183 452.145 470.429 452.77 470.962 452.997L476.393 455.306C476.927 455.532 477.548 455.275 477.779 454.73L479.704 450.2C479.81 449.951 479.82 449.674 479.731 449.42C478.621 446.255 476.566 440.346 476.239 439.216C477.417 437.333 477.502 436.429 477.578 435.619C477.581 435.583 477.585 435.547 477.588 435.511C477.594 435.454 477.599 435.398 477.606 435.341L480.647 434.51C481.101 434.386 481.577 434.58 481.815 434.986L483.06 437.114C483.309 437.539 483.817 437.729 484.285 437.573L489.535 435.817C490.141 435.615 490.441 434.921 490.174 434.341L487.931 429.462C487.823 429.225 487.632 429.039 487.395 428.938L478.51 425.162ZM466.477 420.443C467.375 421.335 468.131 422.371 468.715 423.514C468.724 423.519 468.734 423.523 468.744 423.527C469.99 424.056 470.561 425.521 470.018 426.799C469.475 428.076 468.024 428.682 466.778 428.152C465.532 427.623 464.961 426.158 465.504 424.88C465.761 424.277 466.22 423.823 466.764 423.568C466.293 422.811 465.729 422.12 465.085 421.512C464.266 422.322 463.651 423.332 463.306 424.453C462.798 426.105 462.913 427.881 463.63 429.428C464.347 430.976 465.613 432.184 467.178 432.814C468.743 433.444 470.494 433.45 472.086 432.831C473.677 432.212 475.165 431.22 475.946 429.678L476.956 430.107L477.311 430.892L478.351 432.927L482.412 431.854L484.438 435.314L487.801 434.189L486.213 430.736L478.357 427.397L476.635 426.737C476.569 424.912 476.282 423.745 475.31 422.352C474.338 420.959 472.881 419.996 471.227 419.654C469.611 419.319 467.922 419.601 466.477 420.443ZM470.944 440.51C469.594 441.001 468.133 441.047 466.77 440.644C465.407 440.24 464.212 439.407 463.355 438.262C462.498 437.118 462.023 435.721 461.998 434.271C461.982 433.348 462.149 432.432 462.484 431.578C463.445 432.997 464.802 434.102 466.399 434.744C468.436 435.564 470.714 435.572 472.784 434.767C473.774 434.382 474.682 433.824 475.471 433.128C475.471 433.128 475.618 433.419 475.685 433.591C475.752 433.763 475.827 434.082 475.842 434.376C475.858 434.67 475.725 435.476 475.596 435.78C475.467 436.085 475.493 436.024 475.363 436.328C475.234 436.633 475.075 437.181 474.496 438.107L473.985 438.924L474.25 439.842C474.583 440.996 476.516 446.559 477.642 449.773L476.287 452.961L472.724 451.447L474.276 447.795L471.01 446.406L472.209 443.584L471.772 442.634L470.944 440.51Z" fill="#582190"/>
</g>
<path d="M560.375 497.207C560.251 497.839 560.382 498.494 560.741 499.029C561.1 499.564 561.657 499.934 562.288 500.058L589.286 505.372C590.6 505.631 591.878 504.774 592.137 503.459L596.2 482.814C596.324 482.182 596.193 481.527 595.834 480.992C595.475 480.458 594.919 480.087 594.287 479.963L567.29 474.649C566.658 474.525 566.003 474.656 565.468 475.015C564.933 475.374 564.563 475.931 564.439 476.562L560.375 497.207Z" fill="#46A449"/>
<path d="M553.243 499.927C553.409 499.084 553.233 498.21 552.755 497.498C552.276 496.785 551.534 496.291 550.692 496.125L551.317 492.949C552.16 493.115 553.033 492.939 553.746 492.461C554.459 491.982 554.953 491.24 555.118 490.398C555.284 489.556 555.109 488.682 554.63 487.969C554.152 487.256 553.41 486.763 552.568 486.597L553.193 483.421C554.035 483.586 554.909 483.411 555.622 482.932C556.335 482.454 556.828 481.712 556.994 480.87C557.16 480.027 556.984 479.154 556.506 478.441C556.027 477.728 555.285 477.234 554.443 477.068L555.068 473.892C555.911 474.058 556.784 473.882 557.497 473.404C558.21 472.926 558.704 472.184 558.87 471.341C559.035 470.499 558.86 469.625 558.381 468.912C557.903 468.199 557.161 467.706 556.319 467.54L557.256 462.776L560.432 463.401C560.267 464.243 560.442 465.117 560.921 465.83C561.399 466.543 562.141 467.036 562.983 467.202C563.826 467.368 564.7 467.192 565.412 466.714C566.125 466.236 566.619 465.494 566.785 464.651L569.961 465.276C569.795 466.119 569.971 466.993 570.449 467.705C570.927 468.418 571.669 468.912 572.512 469.078C573.354 469.244 574.228 469.068 574.941 468.59C575.654 468.111 576.147 467.369 576.313 466.527L579.489 467.152C579.323 467.994 579.499 468.868 579.977 469.581C580.456 470.294 581.198 470.787 582.04 470.953C582.883 471.119 583.756 470.943 584.469 470.465C585.182 469.987 585.676 469.245 585.842 468.402L589.018 469.027C588.852 469.87 589.028 470.744 589.506 471.456C589.984 472.169 590.726 472.663 591.569 472.829C592.411 472.995 593.285 472.819 593.998 472.341C594.711 471.862 595.204 471.12 595.37 470.278L598.546 470.903C598.38 471.745 598.556 472.619 599.034 473.332C599.513 474.045 600.255 474.539 601.097 474.704C601.939 474.87 602.813 474.695 603.526 474.216C604.239 473.738 604.733 472.996 604.898 472.153L608.075 472.779L607.137 477.543C606.294 477.377 605.421 477.553 604.708 478.031C603.995 478.509 603.501 479.251 603.335 480.094C603.17 480.936 603.345 481.81 603.824 482.523C604.302 483.236 605.044 483.729 605.886 483.895L605.261 487.071C604.419 486.905 603.545 487.081 602.832 487.559C602.119 488.038 601.626 488.78 601.46 489.622C601.294 490.464 601.47 491.338 601.948 492.051C602.427 492.764 603.169 493.258 604.011 493.423L603.386 496.6C602.543 496.434 601.67 496.609 600.957 497.088C600.244 497.566 599.75 498.308 599.584 499.151C599.419 499.993 599.594 500.867 600.073 501.58C600.551 502.292 601.293 502.786 602.135 502.952L601.51 506.128C600.668 505.962 599.794 506.138 599.081 506.616C598.368 507.095 597.875 507.837 597.709 508.679C597.543 509.521 597.719 510.395 598.197 511.108C598.676 511.821 599.418 512.314 600.26 512.48L599.322 517.244L596.146 516.619C596.312 515.777 596.136 514.903 595.658 514.19C595.179 513.477 594.437 512.984 593.595 512.818C592.753 512.652 591.879 512.828 591.166 513.306C590.453 513.785 589.96 514.527 589.794 515.369L586.618 514.744C586.783 513.901 586.608 513.028 586.129 512.315C585.651 511.602 584.909 511.108 584.067 510.942C583.224 510.777 582.351 510.952 581.638 511.431C580.925 511.909 580.431 512.651 580.265 513.493L577.089 512.868C577.255 512.026 577.079 511.152 576.601 510.439C576.123 509.726 575.381 509.233 574.538 509.067C573.696 508.901 572.822 509.077 572.109 509.555C571.396 510.034 570.903 510.776 570.737 511.618L567.561 510.993C567.727 510.15 567.551 509.277 567.073 508.564C566.594 507.851 565.852 507.357 565.01 507.191C564.167 507.026 563.294 507.201 562.581 507.68C561.868 508.158 561.374 508.9 561.208 509.742L558.032 509.117C558.198 508.275 558.023 507.401 557.544 506.688C557.066 505.975 556.324 505.482 555.481 505.316C554.639 505.15 553.765 505.326 553.052 505.804C552.339 506.283 551.846 507.025 551.68 507.867L548.504 507.242L549.442 502.477C550.284 502.643 551.158 502.468 551.871 501.989C552.584 501.511 553.077 500.769 553.243 499.927ZM559.283 502.765L591.044 509.017C591.886 509.182 592.76 509.007 593.473 508.528C594.186 508.05 594.68 507.308 594.845 506.466L599.847 481.057C600.013 480.214 599.837 479.34 599.359 478.628C598.88 477.915 598.138 477.421 597.296 477.255L565.534 471.004C564.692 470.838 563.818 471.013 563.105 471.492C562.393 471.97 561.899 472.712 561.733 473.555L556.732 498.964C556.566 499.806 556.742 500.68 557.22 501.393C557.698 502.105 558.44 502.599 559.283 502.765Z" fill="#B885D8"/>
<path d="M566.145 494.314C566.395 493.041 568.129 484.232 568.965 479.986L582.497 482.65" stroke="#329235" stroke-width="2" stroke-linecap="round" stroke-linejoin="round"/>
<path d="M626.182 407.741L621.482 431.621M619.759 440.376L618.662 445.948M617.934 416.039L614.487 433.551" stroke="#F0EBFF" stroke-width="2" stroke-linecap="round" stroke-linejoin="round"/>
<path d="M335.644 350.552L333.138 363.288M331.571 371.248L330.474 376.82M326.6 358.694L318.296 400.881" stroke="#F0EBFF" stroke-width="2" stroke-linecap="round" stroke-linejoin="round"/>
<path d="M357.426 344.917L402.102 386.785M369.209 348.064L377.664 355.516M381.813 359.64L389.629 366.139M406.251 390.909L412.475 397.095" stroke="#CF96F2" stroke-width="2" stroke-linecap="round"/>
<g filter="url(#filter5_f_2898_28347)">
<path d="M505.83 4.50169C507.835 2.01561 511.476 1.62575 513.962 3.63091L626.498 94.3976C628.985 96.4027 629.374 100.044 627.369 102.53L580.171 161.049C578.165 163.535 574.524 163.924 572.038 161.919L459.502 71.1526C457.016 69.1475 456.626 65.5066 458.632 63.0205L505.83 4.50169Z" fill="white"/>
<path d="M580.172 161.048C578.167 163.534 574.526 163.924 572.04 161.919L459.503 71.152C457.017 69.1468 456.628 65.506 458.633 63.0199C463.852 56.549 569.496 49.3494 569.496 49.3494C569.496 49.3494 585.164 154.858 580.172 161.048Z" fill="#FBF4FF"/>
<path d="M505.83 4.50169C507.835 2.01561 511.476 1.62575 513.962 3.63091L626.498 94.3976C628.985 96.4027 629.374 100.044 627.369 102.53C620.93 110.514 556.82 98.4598 536.785 97.6601C533.679 97.5362 531.084 95.4715 530.267 92.4722C524.997 73.1257 498.805 13.2113 505.83 4.50169Z" fill="#E8BFFF"/>
<rect x="475.732" y="49.8794" width="41.2049" height="5.78315" rx="2.89157" transform="rotate(38.8881 475.732 49.8794)" fill="#F1DBFF"/>
<rect x="469.379" y="57.7573" width="27.4699" height="2.89157" rx="1.44579" transform="rotate(38.8881 469.379 57.7573)" fill="#F1DBFF"/>
<rect x="465.748" y="62.2588" width="54.9398" height="2.89157" rx="1.44579" transform="rotate(38.8881 465.748 62.2588)" fill="#F1DBFF"/>
<ellipse cx="543.753" cy="92.2048" rx="18.7952" ry="19.1567" transform="rotate(38.8881 543.753 92.2048)" fill="#8F27CE" fill-opacity="0.12"/>
<ellipse cx="539.933" cy="87.7301" rx="19.5181" ry="19.5181" transform="rotate(38.8881 539.933 87.7301)" fill="#8F27CE"/>
<path d="M530.79 99.1622C529.116 100.363 527.881 101.512 527.473 102.754C527.541 102.81 527.61 102.866 527.679 102.922C536.069 109.689 548.357 108.374 555.125 99.9831C561.846 91.6498 560.594 79.472 552.356 72.6764C550.718 73.3083 549.363 74.7031 549.074 76.2964C549.09 76.3093 549.106 76.3223 549.122 76.3353C555.415 81.4109 556.402 90.6268 551.326 96.9197C546.264 103.197 537.081 104.194 530.79 99.1622Z" fill="url(#paint3_linear_2898_28347)"/>
<path d="M531.335 99.5769C537.602 104.134 546.41 103.018 551.328 96.9198C556.247 90.8213 555.472 81.9773 549.692 76.8172C549.885 76.9572 550.076 77.103 550.264 77.2544C556.347 82.1608 557.164 91.2396 552.088 97.5325C547.012 103.825 537.967 104.949 531.883 100.043C531.696 99.8915 531.513 99.7361 531.335 99.5769Z" fill="#582190"/>
<path fill-rule="evenodd" clip-rule="evenodd" d="M525.962 92.1061C525.797 87.7875 527.132 83.3923 530.059 79.7642C532.983 76.1381 536.993 73.9029 541.246 73.1487C536.544 72.7295 531.725 74.5889 528.539 78.5397C525.351 82.4921 524.555 87.5976 525.962 92.1061Z" fill="#582190"/>
<g filter="url(#filter6_i_2898_28347)">
<path fill-rule="evenodd" clip-rule="evenodd" d="M546.18 86.7551C546.434 86.0907 546.524 85.3731 546.435 84.6647C546.301 83.5934 545.766 82.6207 544.937 81.9387C544.108 81.2567 543.045 80.9148 541.957 80.9805C541.854 80.9868 541.751 80.9967 541.649 81.0101C541.615 80.9459 541.58 80.8823 541.543 80.8193C540.994 79.8658 540.184 79.0903 539.205 78.5799C538.226 78.0696 537.117 77.8447 536.002 77.9305C534.888 78.0164 533.812 78.4095 532.895 79.0658C531.979 79.7221 531.259 80.6154 530.816 81.6453C530.373 82.6752 530.225 83.8008 530.388 84.8955C530.551 85.9902 531.019 87.0106 531.739 87.8418C532.459 88.673 533.456 89.315 534.518 89.6335L534.993 89.2454L534.725 88.797C533.813 88.5233 533.002 87.9998 532.383 87.2854C531.764 86.571 531.362 85.694 531.221 84.7531C531.081 83.8122 531.209 82.8448 531.59 81.9596C531.97 81.0744 532.589 80.3066 533.377 79.7425C534.164 79.1785 535.089 78.8405 536.047 78.7668C537.005 78.693 537.959 78.8863 538.8 79.3249C539.629 79.7569 540.316 80.4099 540.788 81.2124C540.144 81.4334 539.551 81.8016 539.061 82.2937C538.418 82.9402 537.992 83.7615 537.834 84.6412C537.078 85.078 536.464 85.7265 536.072 86.505C535.657 87.328 535.51 88.2542 535.654 89.1515C535.797 90.0487 536.223 90.8712 536.87 91.5016C537.28 91.9012 537.766 92.2107 538.297 92.4153L538.268 92.7979L537.072 93.7743C536.848 93.9571 536.811 94.2832 536.991 94.5027L537.762 95.4485L536.666 96.3432C536.442 96.526 536.406 96.8521 536.585 97.0716L538.408 99.3049C538.587 99.5244 538.914 99.5542 539.138 99.3714L541.001 97.851C541.103 97.7673 541.171 97.6496 541.19 97.5199C541.43 95.899 541.885 92.8771 542.001 92.3141C542.939 91.7678 543.181 91.3965 543.398 91.0637C543.408 91.0488 543.418 91.0339 543.427 91.0192C543.443 90.9959 543.458 90.9728 543.473 90.9498L544.977 91.2824C545.202 91.332 545.363 91.5242 545.374 91.7539L545.428 92.9568C545.439 93.1972 545.615 93.395 545.853 93.4338L548.522 93.8693C548.83 93.9195 549.118 93.6879 549.134 93.3762L549.275 90.7569C549.282 90.6301 549.241 90.5061 549.162 90.4085L546.18 86.7551ZM542.052 81.9777C542.237 82.5678 542.328 83.1875 542.32 83.8146C542.323 83.8185 542.327 83.8225 542.33 83.8266C542.748 84.3391 542.662 85.1021 542.136 85.5308C541.611 85.9595 540.846 85.8916 540.428 85.3791C540.01 84.8666 540.096 84.1035 540.622 83.6748C540.87 83.4723 541.171 83.3806 541.465 83.3943C541.433 82.9595 541.347 82.5323 541.206 82.123C540.668 82.2874 540.173 82.5838 539.768 82.99C539.173 83.5887 538.819 84.3824 538.777 85.2146C538.735 86.0468 539.007 86.857 539.54 87.4854C540.074 88.1138 540.829 88.5148 541.658 88.6091C542.487 88.7035 543.356 88.6132 544.044 88.1239L544.383 88.539L544.358 88.9594L544.345 90.0759L546.345 90.5358L546.433 92.492L548.143 92.771L548.242 90.9169L545.606 87.6864L545.011 87.0093C545.398 86.2055 545.539 85.6357 545.436 84.8123C545.332 83.9889 544.922 83.2413 544.285 82.7172C543.662 82.2049 542.868 81.9423 542.052 81.9777ZM539.418 91.6692C538.722 91.574 538.08 91.2619 537.583 90.7774C537.085 90.2929 536.758 89.6607 536.648 88.9711C536.538 88.2815 536.651 87.5696 536.97 86.937C537.173 86.5341 537.453 86.1764 537.792 85.8833C537.885 86.715 538.22 87.5016 538.765 88.1427C539.459 88.9603 540.442 89.4819 541.52 89.6047C542.035 89.6634 542.554 89.6289 543.054 89.5074C543.054 89.5074 543.052 89.6666 543.041 89.7563C543.031 89.846 542.991 90.0009 542.931 90.1315C542.87 90.2621 542.63 90.5805 542.505 90.6826C542.38 90.7847 542.405 90.7643 542.279 90.8664C542.154 90.9686 541.961 91.1695 541.5 91.438L541.093 91.6752L540.999 92.1322C540.88 92.7069 540.451 95.5515 540.206 97.1972L538.895 98.2672L537.7 96.8019L539.201 95.5762L538.105 94.2331L539.265 93.2858L539.292 92.7756L539.418 91.6692Z" fill="#582190"/>
</g>
<path d="M565.182 136.524C564.985 136.768 564.892 137.082 564.926 137.394C564.959 137.707 565.116 137.994 565.361 138.191L575.823 146.63C576.333 147.041 577.08 146.961 577.491 146.451L583.944 138.451C584.141 138.206 584.233 137.893 584.2 137.58C584.166 137.267 584.01 136.98 583.765 136.783L573.303 128.344C573.058 128.147 572.745 128.055 572.432 128.088C572.119 128.122 571.832 128.278 571.635 128.523L565.182 136.524Z" fill="#46A449"/>
<path d="M561.48 136.077C561.744 135.75 561.866 135.333 561.822 134.916C561.777 134.499 561.569 134.116 561.242 133.853L562.235 132.622C562.561 132.886 562.979 133.008 563.396 132.964C563.813 132.919 564.195 132.711 564.459 132.384C564.722 132.058 564.845 131.64 564.8 131.223C564.755 130.806 564.547 130.424 564.221 130.161L565.213 128.93C565.54 129.193 565.957 129.316 566.374 129.271C566.791 129.226 567.174 129.018 567.437 128.692C567.7 128.365 567.823 127.947 567.778 127.53C567.734 127.113 567.525 126.731 567.199 126.468L568.192 125.237C568.518 125.5 568.936 125.623 569.353 125.579C569.77 125.534 570.152 125.325 570.415 124.999C570.678 124.673 570.801 124.255 570.757 123.838C570.712 123.421 570.504 123.039 570.177 122.775L571.666 120.929L572.897 121.922C572.634 122.248 572.511 122.666 572.556 123.083C572.6 123.5 572.809 123.882 573.135 124.145C573.462 124.409 573.879 124.532 574.296 124.487C574.713 124.442 575.096 124.234 575.359 123.907L576.59 124.9C576.326 125.227 576.204 125.644 576.248 126.061C576.293 126.478 576.501 126.86 576.828 127.124C577.154 127.387 577.572 127.51 577.989 127.465C578.406 127.421 578.788 127.212 579.051 126.886L580.282 127.878C580.019 128.205 579.896 128.622 579.941 129.039C579.985 129.456 580.194 129.839 580.52 130.102C580.847 130.365 581.264 130.488 581.682 130.443C582.099 130.399 582.481 130.19 582.744 129.864L583.975 130.857C583.712 131.183 583.589 131.601 583.633 132.018C583.678 132.435 583.887 132.817 584.213 133.08C584.539 133.344 584.957 133.466 585.374 133.422C585.791 133.377 586.173 133.169 586.437 132.842L587.667 133.835C587.404 134.161 587.281 134.579 587.326 134.996C587.371 135.413 587.579 135.795 587.906 136.059C588.232 136.322 588.65 136.445 589.067 136.4C589.484 136.355 589.866 136.147 590.129 135.82L591.36 136.813L589.871 138.659C589.544 138.396 589.127 138.273 588.71 138.318C588.293 138.363 587.911 138.571 587.647 138.898C587.384 139.224 587.261 139.642 587.306 140.059C587.35 140.476 587.559 140.858 587.885 141.121L586.893 142.352C586.566 142.089 586.149 141.966 585.731 142.011C585.314 142.055 584.932 142.264 584.669 142.59C584.406 142.917 584.283 143.334 584.328 143.751C584.372 144.168 584.581 144.551 584.907 144.814L583.914 146.045C583.588 145.781 583.17 145.659 582.753 145.703C582.336 145.748 581.954 145.956 581.691 146.283C581.427 146.609 581.305 147.027 581.349 147.444C581.394 147.861 581.602 148.243 581.929 148.506L580.936 149.737C580.61 149.474 580.192 149.351 579.775 149.396C579.358 149.44 578.976 149.649 578.712 149.975C578.449 150.302 578.326 150.719 578.371 151.136C578.416 151.554 578.624 151.936 578.951 152.199L577.461 154.045L576.231 153.053C576.494 152.726 576.617 152.308 576.572 151.891C576.527 151.474 576.319 151.092 575.992 150.829C575.666 150.566 575.248 150.443 574.831 150.487C574.414 150.532 574.032 150.741 573.769 151.067L572.538 150.074C572.801 149.748 572.924 149.33 572.879 148.913C572.835 148.496 572.626 148.114 572.3 147.851C571.973 147.587 571.556 147.465 571.139 147.509C570.722 147.554 570.34 147.762 570.076 148.089L568.845 147.096C569.109 146.77 569.231 146.352 569.187 145.935C569.142 145.518 568.934 145.136 568.607 144.872C568.281 144.609 567.863 144.486 567.446 144.531C567.029 144.576 566.647 144.784 566.384 145.11L565.153 144.118C565.416 143.791 565.539 143.374 565.494 142.957C565.45 142.54 565.241 142.157 564.915 141.894C564.588 141.631 564.171 141.508 563.754 141.553C563.337 141.597 562.954 141.806 562.691 142.132L561.46 141.139C561.723 140.813 561.846 140.395 561.802 139.978C561.757 139.561 561.549 139.179 561.222 138.916C560.896 138.652 560.478 138.53 560.061 138.574C559.644 138.619 559.262 138.827 558.998 139.154L557.768 138.161L559.257 136.315C559.583 136.578 560.001 136.701 560.418 136.656C560.835 136.612 561.217 136.403 561.48 136.077ZM563.446 138.678L575.754 148.605C576.081 148.869 576.498 148.991 576.915 148.947C577.332 148.902 577.715 148.694 577.978 148.367L585.92 138.52C586.183 138.194 586.306 137.776 586.262 137.359C586.217 136.942 586.008 136.56 585.682 136.297L573.373 126.369C573.047 126.106 572.629 125.983 572.212 126.028C571.795 126.072 571.413 126.281 571.15 126.607L563.208 136.454C562.944 136.781 562.821 137.198 562.866 137.615C562.911 138.032 563.119 138.414 563.446 138.678Z" fill="#B885D8"/>
<path d="M568.334 136.585C568.732 136.091 571.486 132.677 572.813 131.032L578.057 135.262" stroke="#329235" stroke-width="2" stroke-linecap="round" stroke-linejoin="round"/>
<path d="M613.981 112.815L606.517 122.069M603.781 125.462L602.039 127.621M608.528 114.526L603.054 121.312" stroke="#F0EBFF" stroke-width="2" stroke-linecap="round" stroke-linejoin="round"/>
<path d="M501.39 22.0024L497.409 26.938M494.921 30.0228L493.179 32.1821M495.628 23.4649L482.441 39.8141" stroke="#F0EBFF" stroke-width="2" stroke-linecap="round" stroke-linejoin="round"/>
<path d="M512.088 24.5205L521.878 52.7828M516.466 28.561L518.426 33.706M519.282 36.4327L521.182 41.0203M522.734 55.5095L524.017 59.5996" stroke="#CF96F2" stroke-width="2" stroke-linecap="round"/>
</g>
<path d="M316.377 566H13.9291C-35.7438 572.904 96.386 625 159.967 625C223.549 625 316.934 582.319 323.888 575.415C329.451 569.891 323 566.837 316.377 566Z" fill="#8F27CE" fill-opacity="0.15"/>
<path d="M318.82 566.188H12.8681C-17.1114 576.532 87.8672 604.61 160.852 603.132C233.837 601.654 340.248 584.66 318.82 566.188Z" fill="#8F27CE" fill-opacity="0.15"/>
<path opacity="0.986" fill-rule="evenodd" clip-rule="evenodd" d="M165.732 248.602C165.528 248.879 165.49 249.178 165.62 249.499C172.37 263.31 173.866 277.663 170.105 292.558C165.705 307.123 156.324 316.804 141.96 321.6C141.596 326.789 141.298 331.984 141.063 337.187C139.165 337.728 137.221 337.953 135.232 337.859C133.011 336.276 131.031 334.407 129.289 332.253C126.932 329.294 125.884 325.93 126.149 322.161C126.649 320.733 127.658 319.985 129.176 319.918C143.516 320.84 154.691 315.383 162.704 303.547C165.214 298.63 166.485 293.397 166.517 287.848C166.667 283.961 166.667 280.073 166.517 276.186C165.913 268.184 164.007 260.521 160.798 253.199C160.5 253.049 160.199 253.049 159.901 253.199C149.932 257.337 139.616 258.645 128.952 257.124C128.64 258.322 128.304 259.518 127.943 260.712C126.683 264.045 125.337 267.334 123.906 270.58C121.074 275.355 117.45 279.43 113.029 282.802C106.407 286.475 99.9793 286.176 93.7424 281.905C93.2356 281.429 92.8633 280.868 92.6211 280.223C94.0474 281.311 95.6173 282.171 97.3307 282.802C105.032 284.845 111.498 282.864 116.73 276.859C122.067 270.141 125.395 262.516 126.71 253.984C130.141 254.316 133.579 254.541 137.026 254.657C140.697 254.549 144.359 254.325 148.015 253.984C151.708 253.696 155.297 252.911 158.78 251.629C158.905 251.543 158.979 251.431 159.004 251.293C161.258 250.389 163.5 249.492 165.732 248.602Z" fill="#F2CAB8"/>
<path fill-rule="evenodd" clip-rule="evenodd" d="M159.005 251.294C158.98 251.432 158.906 251.544 158.78 251.63C155.298 252.912 151.709 253.697 148.016 253.985C151.732 253.411 155.394 252.514 159.005 251.294Z" fill="#D2BCBB"/>
<path fill-rule="evenodd" clip-rule="evenodd" d="M135.233 337.86C122.082 339.19 108.926 340.461 95.7621 341.672C95.724 339.279 95.7621 336.887 95.8742 334.496C97.6033 331.413 99.0229 328.199 100.135 324.853C100.761 322.496 100.985 320.103 100.808 317.676C100.288 314.628 99.541 311.638 98.5654 308.705C96.9619 306.646 94.8314 305.711 92.1738 305.902C88.7403 305.027 86.1612 303.046 84.4366 299.959C81.5638 294.751 80.5546 289.219 81.4091 283.363C84.5039 279.989 88.2424 278.943 92.6223 280.224C92.8646 280.869 93.2368 281.43 93.7437 281.906C99.9805 286.176 106.408 286.475 113.031 282.803C117.451 279.43 121.075 275.356 123.907 270.58C125.338 267.335 126.684 264.045 127.944 260.712C128.305 259.519 128.642 258.323 128.953 257.124C139.617 258.645 149.934 257.337 159.902 253.2C160.2 253.05 160.501 253.05 160.799 253.2C164.008 260.522 165.915 268.184 166.518 276.187C166.668 280.074 166.668 283.961 166.518 287.849C166.487 293.397 165.215 298.63 162.705 303.547C154.692 315.384 143.517 320.841 129.178 319.919C127.659 319.986 126.65 320.734 126.15 322.161C125.885 325.931 126.933 329.295 129.29 332.253C131.032 334.408 133.013 336.277 135.233 337.86Z" fill="#FEE1CE"/>
<path fill-rule="evenodd" clip-rule="evenodd" d="M156.09 264.297C157.621 263.972 158.855 264.42 159.79 265.642C161.548 269.239 161.699 272.902 160.239 276.631C159.409 278.523 158.025 279.159 156.09 278.538C154.701 277.07 153.917 275.313 153.735 273.267C153.322 270.597 153.695 268.056 154.856 265.642C155.314 265.223 155.724 264.774 156.09 264.297Z" fill="#2A1108"/>
<path fill-rule="evenodd" clip-rule="evenodd" d="M133.664 273.271C135.196 272.946 136.429 273.395 137.364 274.617C139.123 278.213 139.273 281.876 137.813 285.606C136.983 287.498 135.599 288.133 133.664 287.512C132.276 286.044 131.491 284.287 131.309 282.242C130.896 279.572 131.269 277.03 132.43 274.617C132.888 274.197 133.298 273.749 133.664 273.271Z" fill="#2A1108"/>
<path fill-rule="evenodd" clip-rule="evenodd" d="M86.1202 280.67C87.4346 280.35 87.8831 280.799 87.466 282.016C86.4589 282.782 85.4114 283.492 84.3258 284.147C83.2424 284.408 82.8297 283.997 83.0922 282.913C84.1419 282.196 85.1512 281.448 86.1202 280.67Z" fill="#FFF0E6"/>
<path opacity="0.99" fill-rule="evenodd" clip-rule="evenodd" d="M81.4084 283.364C80.554 289.219 81.5632 294.751 84.436 299.959C86.1606 303.046 88.7397 305.027 92.1732 305.902C94.8307 305.712 96.9613 306.646 98.5648 308.706C99.5403 311.638 100.287 314.628 100.807 317.676C100.985 320.104 100.76 322.496 100.135 324.853C99.0223 328.199 97.6027 331.414 95.8736 334.496C95.7614 336.887 95.7233 339.28 95.7614 341.673C93.9 341.988 91.9938 342.212 90.0427 342.346C89.6592 342.344 89.3228 342.269 89.0335 342.121C89.5425 342.202 89.9529 342.052 90.2669 341.673C90.462 339.075 90.7222 336.496 91.0518 333.936C91.0003 333.846 90.9263 333.809 90.8276 333.824C94.436 332.981 96.7168 330.739 97.6677 327.096C98.7801 321.887 98.9303 316.654 98.1162 311.397C98.0108 310.258 97.5264 309.323 96.6585 308.594C94.833 308.592 93.0388 308.368 91.2761 307.921C85.037 305.569 80.9621 301.195 79.0536 294.801C77.8202 290.536 78.6051 286.723 81.4084 283.364Z" fill="#F0C9B8"/>
<path fill-rule="evenodd" clip-rule="evenodd" d="M88.36 288.745C89.6361 288.86 90.7574 289.346 91.724 290.203C93.9913 292.242 95.8214 294.597 97.2185 297.267C97.3912 297.85 97.3531 298.411 97.1064 298.949C96.613 299.134 96.2026 299.022 95.8729 298.613C95.1777 297.145 94.3188 295.799 93.2939 294.576C92.0559 295.553 91.271 296.824 90.9391 298.389C90.2237 298.762 89.663 298.613 89.2571 297.94C89.8021 296.103 90.6991 294.458 91.9483 293.006C90.8808 291.828 89.6473 290.856 88.2479 290.091C88.0954 289.62 88.1335 289.172 88.36 288.745Z" fill="#F3CBB9"/>
<path fill-rule="evenodd" clip-rule="evenodd" d="M154.74 290.314C155.859 290.276 156.272 290.799 155.974 291.884C153.908 295.649 150.695 297.593 146.33 297.715C145.012 297.803 144.599 297.243 145.097 296.033C148.232 296.085 150.961 295.076 153.283 293.006C153.832 292.131 154.316 291.234 154.74 290.314Z" fill="#6B2514"/>
<path fill-rule="evenodd" clip-rule="evenodd" d="M82.3054 313.188C82.6867 313.152 83.0612 313.189 83.4269 313.3C84.1424 313.994 84.9655 314.517 85.8941 314.87C86.3764 316.031 86.0018 316.554 84.7726 316.44C83.853 315.887 82.994 315.251 82.1932 314.534C82.0407 314.063 82.0788 313.614 82.3054 313.188Z" fill="#4384CF"/>
<path fill-rule="evenodd" clip-rule="evenodd" d="M86.7943 317.001C88.2006 316.91 88.6492 317.508 88.1401 318.795C87.1464 319.188 86.5498 318.852 86.3457 317.786C86.4265 317.464 86.5767 317.203 86.7943 317.001Z" fill="#4787D1"/>
<path opacity="0.993" fill-rule="evenodd" clip-rule="evenodd" d="M147.792 336.959C147.918 338.005 148.216 338.977 148.689 339.874C148.954 341.233 149.29 342.579 149.699 343.911C149.963 344.977 150.376 345.949 150.932 346.827C152.796 352.633 154.59 358.464 156.314 364.319C156.38 364.938 156.119 365.312 155.53 365.441C153.404 365.673 151.273 365.86 149.138 366.001C155.864 372.161 161.618 379.076 166.406 386.746C166.422 386.845 166.384 386.919 166.294 386.97C157.169 379.935 146.965 375.039 135.682 372.281C130.41 371.23 125.103 371.006 119.759 371.608C104.197 373.817 88.649 376.096 73.1118 378.448C70.7301 389.682 69.4227 401.045 69.1872 412.536C68.2341 448.637 72.0466 484.221 80.6247 519.287C82.1744 525.564 83.9686 531.77 86.0071 537.901C90.6629 548.747 97.429 558.054 106.303 565.822C110.566 568.74 115.126 571.131 119.983 572.999C132.109 575.771 144.37 576.668 156.763 575.69C165.256 572.429 167.012 567.009 162.033 559.431C161.352 558.825 160.755 558.152 160.239 557.412C148.959 546.955 137.745 536.414 126.599 525.791C120.275 491.247 113.771 456.71 107.088 422.18C106.938 421.357 106.938 420.536 107.088 419.713C116.536 453.68 126.03 487.618 135.57 521.53C151.679 534.948 167.79 548.368 183.899 561.785C189.979 566.688 196.034 571.586 202.065 576.475C191.746 582.644 180.607 586.569 168.649 588.249C163.404 589.052 158.133 589.538 152.838 589.707C143.007 589.393 133.325 588.009 123.796 585.558C116.994 583.539 110.715 580.512 104.958 576.475C100.708 573.059 97.3079 568.946 94.7535 564.14C88.7992 552.705 84.1637 540.745 80.849 528.258C76.3816 511.812 73.0176 495.143 70.757 478.246C68.8127 480.639 66.8705 483.03 64.9261 485.423C64.0874 502.167 63.3024 518.913 62.5713 535.658C55.8008 537.809 48.8485 539.043 41.7146 539.359C33.1136 539.875 24.5915 539.278 16.1483 537.565C12.6419 536.782 9.12855 536.033 5.6078 535.322C4.33599 535.109 3.13976 534.699 2.01955 534.089C2.01955 533.416 2.01955 532.743 2.01955 532.07C3.56586 532.947 5.2104 533.582 6.9534 533.976C17.545 535.863 28.1977 536.497 38.9113 535.883C40.9544 515.401 42.9727 494.918 44.9665 474.434C51.3087 468.092 57.6622 461.738 64.0291 455.371C63.5895 447.307 63.3271 439.233 63.2441 431.151C63.1208 420.76 63.9057 410.444 65.5989 400.202C66.478 397.118 67.0746 393.978 67.393 390.783C68.9741 384.534 70.6561 378.329 72.439 372.169C71.2347 371.898 70.6741 371.151 70.757 369.926C74.1524 361.048 77.4783 352.152 80.7369 343.238C82.6723 342.857 84.6167 342.558 86.5678 342.341C83.2397 351.279 79.9497 360.25 76.7001 369.253C76.9984 369.328 77.2989 369.403 77.5971 369.477C102.042 367.596 126.487 365.727 150.932 363.871C150.789 362.727 150.526 361.605 150.147 360.507C147.617 352.654 145.112 344.805 142.634 336.959C144.056 336.836 145.476 336.687 146.895 336.51C147.31 336.474 147.611 336.624 147.792 336.959Z" fill="#CBC7C4"/>
<path fill-rule="evenodd" clip-rule="evenodd" d="M142.633 336.963C145.112 344.809 147.617 352.658 150.146 360.511C150.525 361.609 150.788 362.731 150.931 363.875C126.486 365.731 102.041 367.6 77.5963 369.481C77.298 369.406 76.9975 369.332 76.6992 369.257C79.9488 360.254 83.2388 351.283 86.5669 342.345C87.4034 342.385 88.2265 342.31 89.0338 342.121C89.3231 342.268 89.6595 342.343 90.043 342.345C91.9942 342.212 93.9004 341.987 95.7618 341.672C108.926 340.46 122.082 339.19 135.233 337.86C137.222 337.953 139.166 337.729 141.064 337.187C141.57 337.026 142.095 336.951 142.633 336.963Z" fill="#F0EBE8"/>
<path opacity="0.271" fill-rule="evenodd" clip-rule="evenodd" d="M147.795 336.962C148.268 337.86 148.567 338.831 148.692 339.878C148.219 338.98 147.921 338.008 147.795 336.962Z" fill="#383636"/>
<path opacity="0.098" fill-rule="evenodd" clip-rule="evenodd" d="M148.689 339.878C149.519 342.146 150.269 344.464 150.932 346.831C150.376 345.954 149.963 344.982 149.699 343.915C149.291 342.583 148.954 341.237 148.689 339.878Z" fill="#2F2F2E"/>
<path opacity="0.999" fill-rule="evenodd" clip-rule="evenodd" d="M166.405 386.748C172.25 395.97 177.222 405.688 181.319 415.903C189.004 435.374 195.434 455.259 200.606 475.558C201.33 478.848 202.041 482.138 202.736 485.425C201.687 484.412 200.752 483.29 199.933 482.061C187.941 456.228 175.531 430.662 162.705 405.363C160.908 402.066 159.114 398.776 157.322 395.495C156.939 395.172 156.529 394.983 156.089 394.934C157.17 396.836 158.105 398.818 158.892 400.877C169.794 429.92 180.747 458.962 191.747 488.004C196.154 491.214 200.563 494.427 204.979 497.648C205.268 497.758 205.569 497.796 205.876 497.76C225.185 511.124 244.472 524.542 263.737 538.016C264.246 538.41 264.618 538.895 264.858 539.474C264.391 540.525 264.093 541.647 263.961 542.838C262.739 547.583 260.832 552.068 258.242 556.293C252.196 565.932 244.831 574.493 236.152 581.972C236.203 582.062 236.278 582.1 236.376 582.084C236.376 582.234 236.302 582.308 236.152 582.308C235.916 582.275 235.692 582.313 235.479 582.42C230.906 586.204 225.898 589.308 220.453 591.727C216.053 588.18 211.642 584.627 207.222 581.075C205.401 579.644 203.683 578.112 202.064 576.477C196.033 571.588 189.978 566.69 183.898 561.788C167.789 548.37 151.678 534.95 135.569 521.532C126.028 487.621 116.535 453.683 107.087 419.716C106.937 420.539 106.937 421.359 107.087 422.182C113.77 456.713 120.274 491.25 126.598 525.793C137.744 536.417 148.957 546.957 160.238 557.415C160.754 558.155 161.35 558.828 162.032 559.433C167.011 567.011 165.255 572.432 156.762 575.692C144.369 576.67 132.108 575.773 119.982 573.001C115.125 571.133 110.565 568.742 106.302 565.825C97.4278 558.056 90.6617 548.749 86.0059 537.904C83.9673 531.772 82.1732 525.567 80.6235 519.29C72.0453 484.223 68.2328 448.639 69.1859 412.539C69.4214 401.048 70.7289 389.684 73.1106 378.451C88.6477 376.099 104.196 373.819 119.758 371.61C125.102 371.009 130.408 371.233 135.681 372.283C146.964 375.042 157.168 379.938 166.293 386.973C166.383 386.921 166.421 386.847 166.405 386.748Z" fill="#F0EBE8"/>
<path opacity="0.996" fill-rule="evenodd" clip-rule="evenodd" d="M72.439 372.17C70.6561 378.331 68.9741 384.536 67.393 390.784C67.0746 393.98 66.478 397.12 65.5989 400.204C63.9057 410.446 63.1208 420.762 63.2441 431.152C63.3271 439.235 63.5895 447.308 64.0291 455.373C57.6621 461.74 51.3087 468.093 44.9665 474.436C42.9727 494.92 40.9543 515.402 38.9113 535.885C28.1977 536.499 17.545 535.864 6.95339 533.978C5.2104 533.584 3.56586 532.949 2.01955 532.072C4.12989 509.569 6.26041 487.066 8.41112 464.568C29.7036 433.716 51.0463 402.915 72.439 372.17Z" fill="#F0EBE8"/>
<path fill-rule="evenodd" clip-rule="evenodd" d="M114.603 387.645C114.724 387.658 114.801 387.732 114.827 387.869C113.143 390.863 112.21 394.079 112.024 397.513C111.632 403.839 112.006 410.119 113.145 416.351C117.169 428.1 121.055 439.912 124.807 451.785C127.487 458.704 129.954 465.73 132.208 472.866C136.254 486.728 140.214 500.632 144.094 514.58C165.9 531.781 187.765 548.899 209.692 565.936C220.098 557.071 228.582 546.681 235.146 534.763C236.969 531.202 238.277 527.464 239.071 523.55C239.737 523.956 240.374 524.405 240.977 524.896C241.134 525.885 241.058 526.856 240.753 527.811C239.293 532.227 237.348 536.414 234.922 540.37C227.25 553.308 217.869 564.894 206.776 575.131C206.149 575.499 205.55 575.909 204.982 576.365C204.193 576.342 203.594 575.968 203.188 575.243C181.107 557.125 159.093 538.921 137.142 520.635C127.945 487.885 118.75 455.142 109.557 422.406C108.03 417.468 107.095 412.422 106.754 407.268C106.85 399.688 109.465 393.146 114.603 387.645Z" fill="#CBC7C4"/>
<path opacity="0.997" fill-rule="evenodd" clip-rule="evenodd" d="M202.737 485.426C203.502 489.138 204.137 492.876 204.643 496.64C205.049 497.043 205.462 497.418 205.877 497.761C205.57 497.797 205.269 497.759 204.98 497.649C200.564 494.428 196.155 491.215 191.748 488.005C180.748 458.963 169.795 429.921 158.893 400.878C158.106 398.819 157.171 396.837 156.09 394.935C156.529 394.984 156.94 395.173 157.323 395.496C159.115 398.777 160.909 402.067 162.706 405.363C175.531 430.663 187.942 456.229 199.934 482.062C200.752 483.291 201.688 484.413 202.737 485.426Z" fill="#CBC7C4"/>
<path opacity="0.995" fill-rule="evenodd" clip-rule="evenodd" d="M2.02021 534.092C3.14041 534.702 4.33665 535.112 5.60846 535.325C9.12921 536.036 12.6426 536.785 16.149 537.568C24.5921 539.281 33.1142 539.878 41.7153 539.362C48.8492 539.046 55.8014 537.812 62.572 535.662C62.0562 542.921 61.7557 550.172 61.6749 557.415C57.6449 559.378 53.3838 560.685 48.8918 561.34C35.5655 563.625 22.2591 563.551 8.97245 561.116C7.07606 560.62 5.20703 560.06 3.3658 559.434C2.20254 559.095 1.19334 558.496 0.338214 557.64C0.0962309 556.92 -0.0159021 556.171 0.00181487 555.397C0.5562 548.25 1.229 541.149 2.02021 534.092Z" fill="#F0EBE8"/>
<path fill-rule="evenodd" clip-rule="evenodd" d="M59.4296 538.352C59.7278 538.352 60.0284 538.352 60.3266 538.352C59.9544 544.4 59.692 550.455 59.5417 556.517C54.8209 558.399 49.9229 559.632 44.8523 560.217C42.4645 560.603 40.0723 560.715 37.6758 560.554C37.994 560.141 38.2557 559.693 38.4607 559.208C38.6684 556.06 38.9676 552.92 39.3578 549.789C39.5074 547.62 39.5074 545.454 39.3578 543.285C39.2219 542.566 38.9602 541.893 38.5728 541.267C44.2995 541.023 49.9813 540.388 55.6171 539.361C56.9425 539.121 58.2118 538.784 59.4296 538.352Z" fill="#CBC7C4"/>
<path opacity="0.141" fill-rule="evenodd" clip-rule="evenodd" d="M264.86 539.475C264.784 540.607 264.634 541.729 264.411 542.839C264.261 542.839 264.113 542.839 263.963 542.839C264.095 541.648 264.394 540.527 264.86 539.475Z" fill="#53504F"/>
<path opacity="0.988" fill-rule="evenodd" clip-rule="evenodd" d="M263.961 542.838C264.112 542.838 264.26 542.838 264.41 542.838C264.412 543.179 264.562 543.439 264.858 543.623C265.778 544.154 266.599 544.789 267.325 545.529C263.515 557.821 256.935 568.4 247.59 577.263C249.034 578.193 250.604 578.866 252.299 579.281C254.302 579.862 256.321 580.384 258.355 580.851C259.55 581.001 260.748 581.001 261.943 580.851C270.602 579.644 279.048 577.55 287.285 574.572C290.658 573.607 294.096 573.011 297.601 572.777C303.36 572.71 309.115 572.56 314.87 572.329C320.656 572.069 326.262 570.947 331.69 568.965C332.048 567.108 331.302 565.874 329.447 565.264C327.229 564.002 324.836 563.179 322.27 562.798C315.841 561.782 309.337 561.147 302.759 560.891C302.333 560.485 302.221 560.001 302.423 559.434C303.04 559.29 303.674 559.214 304.329 559.209C309.716 559.647 315.098 560.131 320.476 560.667C323.291 561.127 326.056 561.764 328.774 562.573C333.829 564.168 335.213 567.382 332.923 572.217C332.017 573.248 330.934 574.033 329.671 574.572C321.963 577.162 314.04 578.319 305.899 578.048C300.878 577.249 296.018 577.81 291.322 579.73C283.111 583.163 274.74 586.155 266.204 588.7C259.332 590.245 252.53 590.021 245.796 588.027C242.27 586.704 239.355 584.574 237.049 581.636C236.821 581.791 236.596 581.941 236.377 582.084C236.278 582.1 236.204 582.062 236.152 581.972C244.831 574.493 252.196 565.933 258.243 556.294C260.833 552.069 262.739 547.583 263.961 542.838Z" fill="#F3CAB8"/>
<path fill-rule="evenodd" clip-rule="evenodd" d="M7.40124 545.305C11.6167 544.917 13.1493 546.711 11.9993 550.688C10.8967 552.177 9.43876 552.662 7.62554 552.146C5.57434 550.998 4.93869 549.315 5.71901 547.099C6.17389 546.384 6.73463 545.785 7.40124 545.305Z" fill="#9E9E9E"/>
<path opacity="0.997" fill-rule="evenodd" clip-rule="evenodd" d="M267.325 545.529C271.369 548.061 275.778 549.593 280.557 550.127C289.947 551.163 299.366 551.762 308.814 551.921C315.038 552.035 320.644 553.903 325.634 557.528C327.449 558.725 328.496 560.407 328.774 562.573C326.056 561.764 323.291 561.127 320.476 560.667C315.098 560.131 309.716 559.647 304.329 559.21C303.674 559.214 303.04 559.29 302.423 559.434C302.221 560.001 302.333 560.486 302.759 560.892C309.337 561.147 315.841 561.782 322.27 562.798C321.768 563.096 321.692 563.506 322.046 564.031C324.116 564.639 326.134 565.388 328.101 566.274C328.965 566.496 329.413 566.16 329.447 565.265C331.302 565.875 332.048 567.108 331.69 568.965C326.262 570.948 320.656 572.069 314.87 572.329C309.115 572.56 303.36 572.71 297.601 572.778C294.096 573.011 290.658 573.607 287.285 574.572C279.048 577.55 270.602 579.645 261.943 580.851C260.748 581.001 259.55 581.001 258.355 580.851C256.321 580.385 254.302 579.862 252.299 579.281C250.604 578.866 249.034 578.194 247.59 577.263C256.935 568.4 263.515 557.821 267.325 545.529Z" fill="#FEE1CE"/>
<path fill-rule="evenodd" clip-rule="evenodd" d="M312.626 554.5C314.391 554.653 316.073 555.101 317.673 555.846C318.005 556.754 317.706 557.203 316.775 557.192C315.555 556.878 314.322 556.615 313.074 556.407C312.092 555.953 311.942 555.319 312.626 554.5Z" fill="#FFF0E7"/>
<path opacity="0.996" fill-rule="evenodd" clip-rule="evenodd" d="M61.6749 557.415C62.581 557.868 63.478 558.317 64.3661 558.761C64.3863 558.985 64.3101 559.171 64.1419 559.321C48.9344 566.258 33.0111 568.725 16.3732 566.722C11.6876 565.971 7.05275 565.038 2.46875 563.919C2.73765 562.425 3.03659 560.929 3.36581 559.433C5.20704 560.059 7.07607 560.62 8.97246 561.115C22.2591 563.551 35.5655 563.625 48.8918 561.34C53.3838 560.685 57.6449 559.377 61.6749 557.415Z" fill="#F3CAB8"/>
<path opacity="0.998" fill-rule="evenodd" clip-rule="evenodd" d="M64.3636 558.762C67.1535 559.513 69.9949 560 72.8857 560.22C76.4089 560.242 79.9209 560.39 83.4262 560.668C85.2248 560.931 86.7184 561.716 87.9115 563.023C88.0237 565.183 87.0504 566.641 84.9961 567.396C83.2468 568.015 81.4527 568.464 79.6137 568.742C75.7967 569.087 71.9842 569.462 68.1761 569.863C65.8752 570.431 63.6325 571.178 61.4482 572.106C58.0976 574.23 54.5094 575.874 50.6834 577.04C47.6379 577.56 44.5722 577.708 41.4885 577.488C38.3145 577.159 35.1747 576.636 32.0693 575.919C25.9395 575.845 19.8094 575.768 13.6795 575.694C11.6528 575.466 9.7838 574.793 8.07288 573.676C6.17626 572.487 4.38214 571.178 2.6905 569.751C2.47924 567.82 2.40456 565.876 2.46623 563.92C7.05023 565.039 11.6851 565.972 16.3707 566.724C33.0086 568.726 48.9319 566.259 64.1394 559.323C64.3076 559.173 64.3838 558.986 64.3636 558.762Z" fill="#FEE1CE"/>
<path fill-rule="evenodd" clip-rule="evenodd" d="M322.271 562.797C324.837 563.178 327.23 564.001 329.448 565.264C329.414 566.158 328.966 566.495 328.102 566.273C326.136 565.387 324.117 564.638 322.047 564.03C321.693 563.505 321.769 563.095 322.271 562.797Z" fill="#FEEFE6"/>
<path opacity="0.981" fill-rule="evenodd" clip-rule="evenodd" d="M87.9164 563.021C89.4885 565.034 89.6768 567.203 88.477 569.524C88.0195 570.02 87.5351 570.468 87.0193 570.87C86.5596 570.847 86.185 570.998 85.898 571.318C84.8484 571.444 83.8773 571.742 82.9825 572.215C78.7843 572.462 74.5972 572.875 70.4236 573.449C69.6768 573.747 68.9278 574.048 68.181 574.346C65.1108 576.889 61.7468 578.984 58.089 580.625C51.6189 583.021 45.0412 583.357 38.3536 581.635C37.8748 581.215 37.2767 581.065 36.5595 581.186C33.4184 580.482 30.2412 580.033 27.0282 579.84C25.1058 579.858 23.1995 580.045 21.3094 580.401C19.0495 580.583 16.8068 580.545 14.5814 580.289C13.3154 579.654 11.9698 579.168 10.5446 578.831C9.98194 578.513 9.4585 578.138 8.97476 577.71C8.68478 577.6 8.38561 577.562 8.0777 577.598C7.97162 577.282 7.74735 577.134 7.4049 577.149C4.84827 575.335 3.2784 572.868 2.69531 569.748C4.38695 571.175 6.18108 572.485 8.0777 573.673C9.78862 574.79 11.6577 575.463 13.6843 575.692C19.8142 575.766 25.9443 575.842 32.0741 575.916C35.1796 576.633 38.3193 577.156 41.4933 577.486C44.577 577.705 47.6427 577.557 50.6882 577.037C54.5142 575.871 58.1024 574.227 61.453 572.103C63.6373 571.175 65.88 570.428 68.181 569.861C71.989 569.459 75.8015 569.085 79.6185 568.739C81.4575 568.461 83.2516 568.013 85.0009 567.394C87.0552 566.638 88.0285 565.18 87.9164 563.021Z" fill="#F1C8B7"/>
<path fill-rule="evenodd" clip-rule="evenodd" d="M219.56 575.356C218.748 577.303 219.122 578.985 220.681 580.402C222.251 581.203 223.745 581.091 225.166 580.066C225.133 580.301 225.171 580.526 225.279 580.739C226.712 582.291 228.468 583.3 230.549 583.766C227.537 586.114 224.285 588.097 220.793 589.709C215.936 585.787 211.114 581.824 206.328 577.823C208.939 575.437 211.556 573.044 214.177 570.647C215.548 572.69 217.342 574.26 219.56 575.356Z" fill="#CBC7C4"/>
<path opacity="0.075" fill-rule="evenodd" clip-rule="evenodd" d="M87.016 570.871C86.7289 571.192 86.3543 571.342 85.8945 571.319C86.1816 570.999 86.5562 570.848 87.016 570.871Z" fill="#614439"/>
<path opacity="0.09" fill-rule="evenodd" clip-rule="evenodd" d="M85.8963 571.318C85.0014 571.791 84.0302 572.09 82.9805 572.215C83.8754 571.742 84.8466 571.444 85.8963 571.318Z" fill="#584742"/>
<path fill-rule="evenodd" clip-rule="evenodd" d="M225.162 580.066C223.74 581.091 222.247 581.203 220.677 580.403C219.118 578.985 218.744 577.303 219.555 575.357C220.986 573.5 222.78 573.087 224.938 574.123C226.925 576.045 227.001 578.028 225.162 580.066Z" fill="#9E9E9E"/>
<path fill-rule="evenodd" clip-rule="evenodd" d="M109.668 573.784C110.729 573.938 111.701 574.351 112.584 575.017C113.829 575.603 115.101 576.125 116.397 576.587C116.839 577.426 116.615 577.913 115.724 578.045C113.603 577.433 111.584 576.574 109.668 575.466C109.381 574.905 109.381 574.344 109.668 573.784Z" fill="#F2EEEB"/>
<path opacity="0.024" fill-rule="evenodd" clip-rule="evenodd" d="M7.40039 577.151C7.74289 577.135 7.96719 577.283 8.07328 577.6C7.73078 577.615 7.50648 577.467 7.40039 577.151Z" fill="#422B25"/>
<path opacity="0.024" fill-rule="evenodd" clip-rule="evenodd" d="M8.07227 577.598C8.38023 577.562 8.67944 577.6 8.96945 577.71C9.45326 578.139 9.97677 578.513 10.5395 578.832C11.9649 579.168 13.3107 579.655 14.5769 580.29C12.1311 580 9.96309 579.103 8.07227 577.598Z" fill="#282220"/>
<path fill-rule="evenodd" clip-rule="evenodd" d="M120.879 578.946C123.913 580.02 126.979 581.029 130.074 581.973C132.666 582.617 135.281 583.139 137.923 583.543C138.446 584.696 138.071 585.182 136.802 585.001C131.271 584.348 125.965 582.89 120.879 580.628C120.298 580.069 120.298 579.508 120.879 578.946Z" fill="#F2EEEC"/>
<path opacity="0.506" fill-rule="evenodd" clip-rule="evenodd" d="M36.5566 581.188C37.2739 581.067 37.8721 581.217 38.351 581.637C37.7163 581.533 37.1181 581.383 36.5566 581.188Z" fill="#7B655D"/>
<path opacity="0.999" fill-rule="evenodd" clip-rule="evenodd" d="M155.191 211.372C158.299 211.823 160.28 213.617 161.134 216.755C161.675 218.545 161.937 220.377 161.919 222.249C161.796 224.387 161.684 226.518 161.583 228.641C162.045 228.886 162.531 228.923 163.04 228.753C163.617 228.216 164.139 227.655 164.61 227.071C164.624 227.193 164.698 227.268 164.834 227.295C166.664 226.343 168.459 225.334 170.217 224.268C170.8 224.013 171.396 223.826 172.011 223.707C173.406 224.321 174.341 225.368 174.814 226.847C175.249 229.906 174.651 232.747 173.02 235.369C171.179 238.567 168.75 241.221 165.732 243.33C162.693 245.067 159.479 246.412 156.088 247.367C149.979 249.008 143.774 250.129 137.474 250.731C133.426 250.88 129.389 250.806 125.364 250.507C124.328 251.094 123.619 251.954 123.233 253.086C121.168 260.58 117.954 267.532 113.59 273.943C110.881 277.839 107.142 279.783 102.376 279.774C98.8173 279.246 95.2672 278.685 91.7238 278.092C84.951 277.318 80.2033 280.046 77.4829 286.277C74.1257 298.812 78.4988 307.446 90.6025 312.18C92.0019 313.429 93.2354 314.812 94.3029 316.329C94.5697 316.675 94.6437 317.049 94.5271 317.45C93.3766 316.074 92.1432 314.766 90.8267 313.526C90.0732 313.294 89.6247 313.556 89.4811 314.311C91.208 316.15 92.816 318.094 94.3029 320.141C94.4531 320.665 94.4531 321.188 94.3029 321.711C93.5 320.629 92.7532 319.507 92.0602 318.347C91.1631 317.301 90.2661 316.254 89.369 315.208C88.7254 314.489 88.0144 313.854 87.2385 313.301C86.079 312.965 85.6686 313.376 86.005 314.535C88.8958 317.126 91.2865 320.116 93.1815 323.505C93.3722 324.167 93.1838 324.69 92.6209 325.075C91.6879 323.208 90.6406 321.413 89.4811 319.693C88.2297 319.28 87.8171 319.729 88.2477 321.038C89.3623 322.591 90.1472 324.236 90.6025 325.972C90.0082 325.49 89.4475 324.967 88.9205 324.402C86.6845 321.043 84.0315 318.015 80.959 315.32C72.9303 308.412 65.4174 300.974 58.4203 293.005C55.8413 289.643 53.5986 286.055 51.6923 282.24C50.1808 278.651 49.2097 274.913 48.7769 271.027C48.6737 268.78 48.6737 266.537 48.7769 264.299C48.5055 263.952 48.1691 263.69 47.7677 263.514C46.227 263.118 44.7311 262.594 43.2824 261.944C42.0245 261.21 41.6134 260.126 42.0489 258.693C43.0094 256.951 44.1682 255.382 45.525 253.983C46.1238 253.609 46.7204 253.236 47.3191 252.862C47.4896 252.957 47.678 253.031 47.8798 253.086C49.5416 252.71 51.2236 252.449 52.9258 252.301C53.2599 251.848 53.1859 251.474 52.7015 251.18C50.4925 251.091 48.51 250.381 46.7585 249.049C46.6037 248.551 46.4154 248.065 46.1978 247.591C46.5275 246.779 46.902 245.994 47.3191 245.237C50.9993 243.1 54.9599 241.642 59.2052 240.863C63.8004 230.546 71.051 222.697 80.959 217.316C98.2477 208.608 116.265 206.739 135.007 211.709C139.647 213.076 144.097 214.908 148.351 217.203C149.658 215.596 151.116 214.138 152.724 212.83C153.52 212.294 154.343 211.808 155.191 211.372Z" fill="#102087"/>
<path fill-rule="evenodd" clip-rule="evenodd" d="M50.6873 245.909C51.8557 245.683 52.3423 246.132 52.145 247.255C51.3017 247.733 50.5168 248.294 49.7902 248.937C48.6307 249.273 48.2203 248.862 48.5567 247.703C49.3103 247.136 50.0189 246.538 50.6873 245.909Z" fill="#797EC8"/>
<path fill-rule="evenodd" clip-rule="evenodd" d="M45.9777 256.674C47.1394 256.451 47.5499 256.9 47.2112 258.02C46.3209 258.781 45.4619 259.566 44.6322 260.374C43.3808 260.657 42.9697 260.171 43.3987 258.917C44.3016 258.2 45.1614 257.452 45.9777 256.674Z" fill="#797EC8"/>
<path fill-rule="evenodd" clip-rule="evenodd" d="M74.011 225.725C78.5434 225.53 83.0287 225.866 87.4669 226.734C88.7408 227.55 89.1512 228.709 88.7004 230.211C88.124 231.197 87.2651 231.646 86.1214 231.556C83.2956 231.159 80.4541 230.934 77.5992 230.883C73.9774 231.002 70.3891 231.339 66.8345 231.893C68.3146 229.964 69.9585 228.17 71.7683 226.51C72.4815 226.097 73.2283 225.835 74.011 225.725Z" fill="#797EC8"/>
<path fill-rule="evenodd" clip-rule="evenodd" d="M93.0735 229.762C95.7984 229.46 97.1058 230.656 96.9982 233.35C96.3254 235.064 95.0919 235.624 93.2978 235.032C91.3243 233.305 91.2503 231.548 93.0735 229.762Z" fill="#797EC8"/>
<path fill-rule="evenodd" clip-rule="evenodd" d="M165.734 248.6C163.503 249.49 161.26 250.387 159.006 251.291C155.395 252.511 151.733 253.408 148.017 253.982C144.362 254.323 140.699 254.547 137.028 254.655C133.581 254.539 130.143 254.314 126.712 253.982C125.398 262.514 122.07 270.139 116.732 276.857C111.5 282.862 105.034 284.843 97.333 282.8C95.6196 282.169 94.0497 281.309 92.6234 280.221C88.2435 278.94 84.505 279.987 81.4101 283.361C78.6068 286.72 77.8218 290.533 79.0553 294.798C80.9638 301.192 85.0387 305.566 91.2778 307.918C93.0405 308.365 94.8347 308.589 96.6602 308.591C97.5281 309.32 98.0125 310.255 98.1179 311.394C98.932 316.651 98.7817 321.884 97.6694 327.093C96.7185 330.736 94.4377 332.978 90.8293 333.821C89.3043 333.973 88.0708 333.45 87.1289 332.251C86.2834 329.51 84.8616 327.118 82.8678 325.074C81.3563 323.591 79.8245 322.133 78.2704 320.701C71.908 315.835 65.9649 310.49 60.4412 304.666C50.7978 293.645 46.2004 280.787 46.6489 266.092C44.8906 265.858 43.1707 265.447 41.4908 264.859C39.7729 263.792 39.2122 262.259 39.8088 260.261C40.8137 257.35 42.72 255.257 45.5276 253.982C44.1707 255.381 43.012 256.95 42.0514 258.692C41.6159 260.125 42.027 261.209 43.2849 261.943C44.7337 262.593 46.2295 263.117 47.7702 263.513C48.1716 263.689 48.508 263.951 48.7794 264.298C48.6762 266.536 48.6762 268.779 48.7794 271.026C49.2122 274.912 50.1833 278.65 51.6949 282.24C53.6011 286.054 55.8438 289.642 58.4228 293.004C65.4199 300.973 72.9328 308.411 80.9616 315.319C84.034 318.014 86.6871 321.042 88.923 324.402C89.45 324.966 90.0107 325.489 90.605 325.971C90.1497 324.235 89.3648 322.59 88.2502 321.038C87.8196 319.728 88.2323 319.279 89.4837 319.692C90.6431 321.412 91.6905 323.207 92.6234 325.074C93.1863 324.689 93.3747 324.166 93.1841 323.504C91.289 320.115 88.8983 317.125 86.0076 314.534C85.6712 313.375 86.0816 312.964 87.241 313.3C88.017 313.853 88.7279 314.488 89.3715 315.207C90.2686 316.253 91.1657 317.3 92.0627 318.346C92.7557 319.506 93.5025 320.628 94.3054 321.71C94.4556 321.187 94.4556 320.664 94.3054 320.14C92.8185 318.093 91.2105 316.149 89.4837 314.31C89.6272 313.555 90.0757 313.293 90.8293 313.525C92.1457 314.765 93.3792 316.073 94.5297 317.449C94.6463 317.048 94.5723 316.674 94.3054 316.328C93.2379 314.811 92.0044 313.428 90.605 312.179C78.5014 307.445 74.1282 298.811 77.4854 286.276C80.2058 280.046 84.9535 277.317 91.7263 278.091C95.2697 278.684 98.8199 279.245 102.379 279.773C107.145 279.782 110.883 277.838 113.592 273.942C117.956 267.531 121.17 260.579 123.236 253.085C123.621 251.953 124.33 251.093 125.366 250.506C129.392 250.805 133.429 250.879 137.477 250.73C143.776 250.128 149.982 249.007 156.091 247.366C159.482 246.411 162.695 245.066 165.734 243.329C168.753 241.22 171.181 238.566 173.023 235.368C174.653 232.746 175.252 229.905 174.817 226.846C174.344 225.367 173.408 224.32 172.014 223.706C176.021 222.655 178.376 224.224 179.078 228.416C179.522 233.739 177.952 238.374 174.368 242.32C171.89 244.988 169.013 247.082 165.734 248.6Z" fill="#0E0553"/>
<path fill-rule="evenodd" clip-rule="evenodd" d="M159.006 243.217C160.015 243.142 160.426 243.59 160.239 244.563C155.335 246.892 150.177 248.013 144.765 247.927C144.61 247.463 144.648 247.014 144.877 246.581C149.807 246.264 154.516 245.143 159.006 243.217Z" fill="#0E0553"/>
<path fill-rule="evenodd" clip-rule="evenodd" d="M47.3217 245.236C46.9046 245.993 46.5301 246.778 46.2004 247.59C46.418 248.064 46.6063 248.55 46.7611 249.048C48.5126 250.38 50.4951 251.09 52.7041 251.179C53.1885 251.473 53.2625 251.847 52.9284 252.3C51.2262 252.448 49.5442 252.709 47.8824 253.085C47.6806 253.03 47.4922 252.956 47.3217 252.861C45.42 252.49 44.4476 251.332 44.4063 249.385C44.6238 247.483 45.5949 246.101 47.3217 245.236Z" fill="#0E0553"/>
<path fill-rule="evenodd" clip-rule="evenodd" d="M113.929 260.262C114.31 260.226 114.684 260.263 115.05 260.374C115.18 260.574 115.254 260.798 115.274 261.046C113.433 265.057 110.966 268.645 107.873 271.811C106.714 272.148 106.304 271.737 106.64 270.578C109.555 267.477 111.984 264.038 113.929 260.262Z" fill="#0E0553"/>
<path fill-rule="evenodd" clip-rule="evenodd" d="M118.638 257.57C119.107 257.529 119.555 257.604 119.984 257.795C119.652 260.469 118.793 263.011 117.405 265.42C116.093 265.902 115.644 265.454 116.059 264.074C117.12 261.977 117.979 259.809 118.638 257.57Z" fill="#0E0553"/>
<path fill-rule="evenodd" clip-rule="evenodd" d="M114.377 266.317C115.386 266.241 115.797 266.69 115.611 267.662C115.214 268.665 114.503 269.076 113.48 268.896C113.238 268.509 113.202 268.097 113.368 267.662C113.76 267.247 114.097 266.799 114.377 266.317Z" fill="#0E0553"/>
<path fill-rule="evenodd" clip-rule="evenodd" d="M111.686 270.578C112.516 270.394 113.038 270.693 113.256 271.475C111.341 274.249 108.95 276.529 106.079 278.315C104.92 278.651 104.51 278.24 104.846 277.081C107.607 275.405 109.885 273.237 111.686 270.578Z" fill="#0E0553"/>
<path fill-rule="evenodd" clip-rule="evenodd" d="M104.061 272.82C105.537 272.709 105.911 273.27 105.182 274.502C103.666 274.672 103.294 274.111 104.061 272.82Z" fill="#0E0553"/>
<path fill-rule="evenodd" clip-rule="evenodd" d="M164.613 227.07C164.142 227.654 163.619 228.215 163.043 228.752C162.534 228.922 162.047 228.885 161.585 228.64C161.686 226.517 161.798 224.386 161.922 222.249C161.939 220.376 161.677 218.545 161.137 216.754C160.282 213.616 158.302 211.822 155.194 211.372C157.53 210.445 159.849 210.482 162.146 211.484C163.906 213.248 164.915 215.379 165.173 217.875C165.44 220.976 165.252 224.041 164.613 227.07Z" fill="#0E0553"/>
<path fill-rule="evenodd" clip-rule="evenodd" d="M129.852 214.287C135.855 215.104 141.536 216.935 146.896 219.781C147.378 221.093 146.929 221.541 145.55 221.127C140.574 218.621 135.342 216.827 129.852 215.745C129.567 215.259 129.567 214.773 129.852 214.287Z" fill="#0E0553"/>
<path fill-rule="evenodd" clip-rule="evenodd" d="M118.19 216.754C125.837 216.656 133.314 217.74 140.616 220.006C141.101 221 140.802 221.486 139.719 221.463C136.082 220.573 132.417 219.788 128.73 219.109C125.227 218.716 121.713 218.454 118.19 218.324C117.894 217.793 117.894 217.27 118.19 216.754Z" fill="#0E0553"/>
<path fill-rule="evenodd" clip-rule="evenodd" d="M128.73 220.566C130.156 220.694 131.576 220.881 132.991 221.127C133.801 221.369 134.025 221.855 133.664 222.585C133.303 222.714 132.931 222.789 132.543 222.809C131.291 222.504 130.022 222.317 128.73 222.248C128.149 221.689 128.149 221.128 128.73 220.566Z" fill="#0E0553"/>
<path fill-rule="evenodd" clip-rule="evenodd" d="M142.859 221.463C144.236 221.581 144.536 222.217 143.756 223.37C142.635 223.519 142.224 223.033 142.522 221.912C142.684 221.79 142.796 221.64 142.859 221.463Z" fill="#0E0553"/>
<path fill-rule="evenodd" clip-rule="evenodd" d="M135.458 222.136C137.865 222.377 140.143 223.05 142.298 224.155C142.554 224.907 142.292 225.356 141.513 225.5C139.576 224.866 137.631 224.23 135.682 223.594C135.194 223.168 135.117 222.683 135.458 222.136Z" fill="#0E0553"/>
<path fill-rule="evenodd" clip-rule="evenodd" d="M165.958 239.853C167.349 239.811 167.649 240.372 166.855 241.535C165.772 242.264 164.651 242.937 163.491 243.554C162.112 243.968 161.664 243.519 162.146 242.208C163.507 241.53 164.776 240.745 165.958 239.853Z" fill="#0E0553"/>
<defs>
<filter id="filter0_f_2898_28347" x="162.891" y="55.8901" width="251.639" height="179.654" filterUnits="userSpaceOnUse" color-interpolation-filters="sRGB">
<feFlood flood-opacity="0" result="BackgroundImageFix"/>
<feBlend mode="normal" in="SourceGraphic" in2="BackgroundImageFix" result="shape"/>
<feGaussianBlur stdDeviation="0.5" result="effect1_foregroundBlur_2898_28347"/>
</filter>
<filter id="filter1_i_2898_28347" x="275.596" y="142.517" width="31.21" height="23.1292" filterUnits="userSpaceOnUse" color-interpolation-filters="sRGB">
<feFlood flood-opacity="0" result="BackgroundImageFix"/>
<feBlend mode="normal" in="SourceGraphic" in2="BackgroundImageFix" result="shape"/>
<feColorMatrix in="SourceAlpha" type="matrix" values="0 0 0 0 0 0 0 0 0 0 0 0 0 0 0 0 0 0 127 0" result="hardAlpha"/>
<feOffset dx="0.3"/>
<feComposite in2="hardAlpha" operator="arithmetic" k2="-1" k3="1"/>
<feColorMatrix type="matrix" values="0 0 0 0 0 0 0 0 0 0 0 0 0 0 0 0 0 0 0.05 0"/>
<feBlend mode="normal" in2="shape" result="effect1_innerShadow_2898_28347"/>
</filter>
<filter id="filter2_f_2898_28347" x="398.27" y="196.269" width="110.906" height="96.8054" filterUnits="userSpaceOnUse" color-interpolation-filters="sRGB">
<feFlood flood-opacity="0" result="BackgroundImageFix"/>
<feBlend mode="normal" in="SourceGraphic" in2="BackgroundImageFix" result="shape"/>
<feGaussianBlur stdDeviation="2" result="effect1_foregroundBlur_2898_28347"/>
</filter>
<filter id="filter3_i_2898_28347" x="446.375" y="242.328" width="11.8037" height="12.4678" filterUnits="userSpaceOnUse" color-interpolation-filters="sRGB">
<feFlood flood-opacity="0" result="BackgroundImageFix"/>
<feBlend mode="normal" in="SourceGraphic" in2="BackgroundImageFix" result="shape"/>
<feColorMatrix in="SourceAlpha" type="matrix" values="0 0 0 0 0 0 0 0 0 0 0 0 0 0 0 0 0 0 127 0" result="hardAlpha"/>
<feOffset dx="0.3"/>
<feComposite in2="hardAlpha" operator="arithmetic" k2="-1" k3="1"/>
<feColorMatrix type="matrix" values="0 0 0 0 0 0 0 0 0 0 0 0 0 0 0 0 0 0 0.05 0"/>
<feBlend mode="normal" in2="shape" result="effect1_innerShadow_2898_28347"/>
</filter>
<filter id="filter4_i_2898_28347" x="445.768" y="417.001" width="44.5039" height="38.3872" filterUnits="userSpaceOnUse" color-interpolation-filters="sRGB">
<feFlood flood-opacity="0" result="BackgroundImageFix"/>
<feBlend mode="normal" in="SourceGraphic" in2="BackgroundImageFix" result="shape"/>
<feColorMatrix in="SourceAlpha" type="matrix" values="0 0 0 0 0 0 0 0 0 0 0 0 0 0 0 0 0 0 127 0" result="hardAlpha"/>
<feOffset dx="0.3"/>
<feComposite in2="hardAlpha" operator="arithmetic" k2="-1" k3="1"/>
<feColorMatrix type="matrix" values="0 0 0 0 0 0 0 0 0 0 0 0 0 0 0 0 0 0 0.05 0"/>
<feBlend mode="normal" in2="shape" result="effect1_innerShadow_2898_28347"/>
</filter>
<filter id="filter5_f_2898_28347" x="455.35" y="0.349121" width="175.302" height="164.852" filterUnits="userSpaceOnUse" color-interpolation-filters="sRGB">
<feFlood flood-opacity="0" result="BackgroundImageFix"/>
<feBlend mode="normal" in="SourceGraphic" in2="BackgroundImageFix" result="shape"/>
<feGaussianBlur stdDeviation="1" result="effect1_foregroundBlur_2898_28347"/>
</filter>
<filter id="filter6_i_2898_28347" x="530.323" y="77.9126" width="18.9521" height="21.5786" filterUnits="userSpaceOnUse" color-interpolation-filters="sRGB">
<feFlood flood-opacity="0" result="BackgroundImageFix"/>
<feBlend mode="normal" in="SourceGraphic" in2="BackgroundImageFix" result="shape"/>
<feColorMatrix in="SourceAlpha" type="matrix" values="0 0 0 0 0 0 0 0 0 0 0 0 0 0 0 0 0 0 127 0" result="hardAlpha"/>
<feOffset dx="0.3"/>
<feComposite in2="hardAlpha" operator="arithmetic" k2="-1" k3="1"/>
<feColorMatrix type="matrix" values="0 0 0 0 0 0 0 0 0 0 0 0 0 0 0 0 0 0 0.05 0"/>
<feBlend mode="normal" in2="shape" result="effect1_innerShadow_2898_28347"/>
</filter>
<linearGradient id="paint0_linear_2898_28347" x1="297.794" y1="153.531" x2="319.503" y2="146.272" gradientUnits="userSpaceOnUse">
<stop stop-color="#7220A2"/>
<stop offset="1" stop-color="#4E0B73"/>
</linearGradient>
<linearGradient id="paint1_linear_2898_28347" x1="454.015" y1="249.5" x2="462.223" y2="253.745" gradientUnits="userSpaceOnUse">
<stop stop-color="#7220A2"/>
<stop offset="1" stop-color="#4E0B73"/>
</linearGradient>
<linearGradient id="paint2_linear_2898_28347" x1="475.578" y1="436.386" x2="507.326" y2="440.599" gradientUnits="userSpaceOnUse">
<stop stop-color="#7220A2"/>
<stop offset="1" stop-color="#4E0B73"/>
</linearGradient>
<linearGradient id="paint3_linear_2898_28347" x1="542.358" y1="90.9399" x2="555.125" y2="99.9831" gradientUnits="userSpaceOnUse">
<stop stop-color="#7220A2"/>
<stop offset="1" stop-color="#4E0B73"/>
</linearGradient>
</defs>
</svg>
