<svg width="1366" height="948" viewBox="0 0 1366 948" fill="none" xmlns="http://www.w3.org/2000/svg">
<mask id="mask0_242_586" style="mask-type:alpha" maskUnits="userSpaceOnUse" x="0" y="0" width="1366" height="948">
<rect opacity="0.9" width="1366" height="948" fill="url(#paint0_linear_242_586)"/>
</mask>
<g mask="url(#mask0_242_586)">
<rect y="-75.1057" width="1366" height="1141.61" fill="url(#paint1_linear_242_586)"/>
<path d="M402.828 550.222C480 550.222 503.295 572.394 592.9 572.394C682.505 572.394 712.209 546.131 788.854 546.131C865.5 546.131 868.048 569.165 1018.75 569.165C1169.45 569.165 1224 514.056 1366 514.056V1089.87C933.963 1090.66 0 1089.87 0 1089.87V514.472C67 514.472 118.173 572.394 213.209 572.394C308.244 572.394 325.656 550.222 402.828 550.222Z" fill="#380F52" fill-opacity="0.1"/>
<path d="M402.828 790.559C480 790.559 503.295 812.732 592.9 812.732C682.505 812.732 712.209 786.469 788.854 786.469C865.5 786.469 868.048 809.503 1018.75 809.503C1169.45 809.503 1224 754.394 1366 754.394V1330.2C933.963 1330.99 0 1330.2 0 1330.2V754.81C67 754.81 118.173 812.732 213.209 812.732C308.244 812.732 325.656 790.559 402.828 790.559Z" fill="#380F52" fill-opacity="0.1"/>
<path d="M247.035 97.9095C356.24 97.9095 389.204 129.286 516.003 129.286C642.801 129.286 684.835 92.1217 793.294 92.1217C901.754 92.1217 905.36 124.716 1118.61 124.716C1331.86 124.716 1409.06 46.7329 1610 46.7329V1164.14C998.634 1165.25 -323 1164.14 -323 1164.14V47.3211C-228.189 47.3211 -155.775 129.286 -21.292 129.286C113.191 129.286 137.83 97.9095 247.035 97.9095Z" fill="#380F52" fill-opacity="0.1"/>
<path d="M455.035 205.561C564.24 205.561 597.204 236.937 724.003 236.937C850.801 236.937 892.835 199.773 1001.29 199.773C1109.75 199.773 1113.36 232.368 1326.61 232.368C1539.86 232.368 1617.06 154.384 1818 154.384V969.201C1206.63 970.318 -115 969.201 -115 969.201V154.972C-20.1895 154.972 52.2246 236.937 186.708 236.937C321.191 236.937 345.83 205.561 455.035 205.561Z" fill="#380F52" fill-opacity="0.1"/>
<path d="M225.035 325.723C334.24 325.723 367.204 357.099 494.003 357.099C620.801 357.099 662.835 319.935 771.294 319.935C879.754 319.935 883.36 352.529 1096.61 352.529C1309.86 352.529 1387.06 274.546 1588 274.546V1089.36C976.634 1090.48 -345 1089.36 -345 1089.36V275.134C-250.189 275.134 -177.775 357.099 -43.292 357.099C91.1914 357.099 115.83 325.723 225.035 325.723Z" fill="#380F52" fill-opacity="0.1"/>
<path d="M455.035 421.698C564.24 421.698 597.204 453.074 724.003 453.074C850.801 453.074 892.835 415.91 1001.29 415.91C1109.75 415.91 1113.36 448.504 1326.61 448.504C1539.86 448.504 1617.06 370.521 1818 370.521V1185.34C1206.63 1186.45 -115 1185.34 -115 1185.34V371.109C-20.1895 371.109 52.2246 453.074 186.708 453.074C321.191 453.074 345.83 421.698 455.035 421.698Z" fill="#380F52" fill-opacity="0.1"/>
<path d="M455.035 668.712C564.24 668.712 597.204 700.088 724.003 700.088C850.801 700.088 892.835 662.924 1001.29 662.924C1109.75 662.924 1113.36 695.519 1326.61 695.519C1539.86 695.519 1617.06 617.535 1818 617.535V1432.35C1206.63 1433.47 -115 1432.35 -115 1432.35V618.123C-20.1895 618.123 52.2246 700.088 186.708 700.088C321.191 700.088 345.83 668.712 455.035 668.712Z" fill="#380F52" fill-opacity="0.1"/>
<path d="M364.52 876.796C469.7 876.796 501.449 908.297 623.574 908.297C745.699 908.297 786.183 870.986 890.645 870.986C995.107 870.986 998.58 903.709 1203.97 903.709C1409.36 903.709 1483.71 825.417 1677.25 825.417V1643.46C1088.42 1644.58 -184.503 1643.46 -184.503 1643.46V826.008C-93.1873 826.008 -23.4424 908.297 106.084 908.297C235.61 908.297 259.341 876.796 364.52 876.796Z" fill="white"/>
<path d="M1000.49 36.2729C907.664 36.2729 879.645 9.9067 771.87 9.9067C664.094 9.9067 628.367 41.1366 536.179 41.1366C443.991 41.1366 440.926 13.7464 259.667 13.7464C78.4081 13.7464 12.7927 79.2781 -158 79.2781V-605.435C361.645 -606.374 1485 -605.435 1485 -605.435V78.7838C1404.41 78.7838 1342.86 9.9067 1228.56 9.9067C1114.25 9.9067 1093.31 36.2729 1000.49 36.2729Z" fill="white"/>
</g>
<defs>
<linearGradient id="paint0_linear_242_586" x1="0" y1="948" x2="830.849" y2="147.041" gradientUnits="userSpaceOnUse">
<stop stop-color="#473873"/>
<stop offset="0.607469" stop-color="#582598"/>
<stop offset="1" stop-color="#AB50E2"/>
</linearGradient>
<linearGradient id="paint1_linear_242_586" x1="0" y1="1066.5" x2="976.924" y2="284.438" gradientUnits="userSpaceOnUse">
<stop stop-color="#473873"/>
<stop offset="0.515" stop-color="#683BA0"/>
<stop offset="1" stop-color="#AB50E2"/>
</linearGradient>
</defs>
</svg>
