<svg width="105" height="40" viewBox="0 0 105 40" fill="none" xmlns="http://www.w3.org/2000/svg">
<path fill-rule="evenodd" clip-rule="evenodd" d="M24.5587 26.2036C25.6439 25.5699 26.5654 24.6776 27.2325 23.5953C28.2413 21.9587 28.5951 20.0064 28.224 18.1237C27.8529 16.2411 26.7839 14.5647 25.2279 13.4254C25.0798 13.317 24.9284 13.2143 24.7739 13.1172C24.7992 12.9899 24.8222 12.862 24.8428 12.7336C25.1546 10.7907 24.9136 8.80008 24.147 6.98564C23.3804 5.17121 22.1185 3.60494 20.5034 2.46305C18.8882 1.32117 16.9839 0.648949 15.0046 0.522029C13.0253 0.395102 11.0496 0.818518 9.29965 1.74462C7.54973 2.67073 6.09506 4.0628 5.09928 5.76422C4.10349 7.46564 3.6061 9.40891 3.66306 11.3754C3.72002 13.342 4.36487 15.3595 5.4575 17.0014H6.53763L6.67157 16.0773C5.73248 14.6661 5.209 13.023 5.16004 11.3328C5.11108 9.64257 5.53859 7.97235 6.39445 6.50999C7.25032 5.04763 8.50059 3.85116 10.0046 3.05519C11.5087 2.2592 13.2068 1.89528 14.908 2.00437C16.6092 2.11346 18.2459 2.69122 19.6341 3.67267C21.0223 4.65411 22.1069 6.0003 22.7658 7.55979C23.4147 9.09562 23.6254 10.7783 23.3757 12.4241C22.2513 12.0015 21.0337 11.8413 19.8187 11.9695C18.2225 12.1378 16.7272 12.7936 15.5332 13.8341C14.0173 13.5849 12.4586 13.7891 11.0573 14.4239C9.57578 15.095 8.34576 16.2131 7.54273 17.6185C6.73969 19.024 6.40464 20.6451 6.58538 22.2506C6.69995 23.2684 7.01809 24.2469 7.5148 25.1314L7.04927 25.6287H4.33199C3.82331 25.6287 3.41094 26.0395 3.41094 26.5463V28.73H0.921053C0.41237 28.73 0 29.1408 0 29.6476V34.8044C0 35.3112 0.412369 35.722 0.921053 35.722H5.15195C5.38486 35.722 5.60784 35.6353 5.77837 35.4772C7.90915 33.5024 11.8924 29.8299 12.6773 29.1811C14.5631 29.4844 15.3065 29.2439 15.9727 29.0283C16.0026 29.0186 16.0323 29.009 16.062 28.9995C16.1087 28.9845 16.1552 28.9698 16.2019 28.9555L17.8817 31.117C18.1327 31.44 18.1393 31.8892 17.8978 32.2193L16.6336 33.9477C16.3809 34.2932 16.4011 34.7666 16.6822 35.0895L19.8361 38.7118C20.2001 39.1298 20.8498 39.1341 21.2194 38.7211L24.3252 35.25C24.4756 35.0819 24.5587 34.8646 24.5587 34.6394V26.2036ZM24.2466 14.9138C23.8426 15.941 23.2776 16.9031 22.5688 17.763C22.569 17.7722 22.569 17.7815 22.569 17.7908C22.569 18.9742 21.6018 19.9335 20.4088 19.9335C19.2157 19.9335 18.2485 18.9742 18.2485 17.7908C18.2485 16.6074 19.2157 15.6481 20.4088 15.6481C20.9725 15.6481 21.4857 15.8622 21.8704 16.213C22.3116 15.5752 22.6684 14.8848 22.9327 14.1591C22.0163 13.7783 21.0109 13.6284 20.0079 13.7342C18.5297 13.8901 17.1642 14.5898 16.1807 15.6953C15.1971 16.8008 14.667 18.2318 14.6949 19.7059C14.7228 21.18 15.3067 22.5903 16.3315 23.6583C17.3562 24.7264 18.6415 25.5843 20.1245 25.6851V26.6436L19.6224 27.1977L18.3622 28.73L20.5768 31.6294L18.5207 34.4404L20.5411 36.7608L22.7396 34.3038V26.8445L22.6827 25.234C24.1039 24.5573 24.9306 23.9276 25.706 22.6697C26.4814 21.4117 26.7533 19.9113 26.468 18.4643C26.1893 17.0503 25.3984 15.7877 24.2466 14.9138ZM9.87288 25.3652C9.03065 24.4466 8.50241 23.2877 8.3635 22.0537C8.22458 20.8197 8.48209 19.5737 9.09929 18.4935C9.7165 17.4133 10.6619 16.554 11.8005 16.0382C12.5259 15.7096 13.3061 15.5311 14.0942 15.5081C13.2955 16.7659 12.8776 18.2353 12.9061 19.7392C12.9424 21.6572 13.7021 23.492 15.0354 24.8817C15.6727 25.546 16.4189 26.0855 17.235 26.482C17.235 26.482 17.0547 26.7 16.941 26.8128C16.8273 26.9256 16.5999 27.0947 16.3725 27.2075C16.1451 27.3203 15.4629 27.4895 15.1787 27.4895C14.8944 27.4895 14.9513 27.4895 14.667 27.4895C14.3828 27.4895 13.8956 27.5491 12.9685 27.3999L12.1498 27.2683L11.5127 27.7949C10.7115 28.4572 6.96091 31.9133 4.79668 33.9176H1.81917V30.5344H5.2301V27.4331H7.86619L8.47049 26.7564L9.87288 25.3652Z" fill="#511B72"/>
<path d="M33.9387 30.1333V9.6709H39.0286V17.6541L45.3042 9.6709H50.9436L43.4533 18.9222L51.5798 30.1333H45.9983L40.4746 22.5824L39.0286 24.3692V30.1333H33.9387Z" fill="#511B72"/>
<path d="M57.4729 30.4215C54.1182 30.4215 50.3586 27.8853 50.3586 22.64C50.3586 17.3947 54.1182 14.8586 57.4729 14.8586C60.1046 14.8586 61.5217 16.2996 61.6373 16.5589H61.7241V15.1468H66.7272V30.1333H61.7241V28.7211H61.6373C61.5217 28.9805 60.1046 30.4215 57.4729 30.4215ZM55.275 22.64C55.275 24.7439 56.8077 26.012 58.5429 26.012C60.336 26.012 61.8398 24.7727 61.8398 22.64C61.8398 20.5073 60.336 19.2681 58.5429 19.2681C56.8077 19.2681 55.275 20.5361 55.275 22.64Z" fill="#511B72"/>
<path d="M75.6607 30.4215C72.306 30.4215 68.5465 27.8853 68.5465 22.64C68.5465 17.3947 72.306 14.8586 75.6607 14.8586C78.2924 14.8586 79.7095 16.2996 79.8252 16.5589H79.9119V15.1468H84.9151V30.1333H79.9119V28.7211H79.8252C79.7095 28.9805 78.2924 30.4215 75.6607 30.4215ZM73.4628 22.64C73.4628 24.7439 74.9956 26.012 76.7308 26.012C78.5238 26.012 80.0276 24.7727 80.0276 22.64C80.0276 20.5073 78.5238 19.2681 76.7308 19.2681C74.9956 19.2681 73.4628 20.5361 73.4628 22.64Z" fill="#511B72"/>
<path d="M87.4573 30.1333V15.1468H92.4604V19.2392C92.9521 16.7607 94.3981 14.8586 97.0587 14.8586C97.4057 14.8586 97.7817 14.8874 98.1866 15.0027V19.758C97.8106 19.6715 97.4925 19.6427 97.0876 19.6427C94.0799 19.6427 92.4604 21.6025 92.4604 24.3116V30.1333H87.4573Z" fill="#511B72"/>
<path d="M99.9967 30.1333V15.1468H105V30.1333H99.9967ZM99.9967 13.9651V9.6709H105V13.9651H99.9967Z" fill="#511B72"/>
</svg>
