<svg width="150" height="150" viewBox="0 0 150 150" fill="none" xmlns="http://www.w3.org/2000/svg">
<path d="M81.9444 137.5V123.611H95.8333V137.5H81.9444ZM68.0556 123.611V88.8889H81.9444V123.611H68.0556ZM123.611 102.778V75H137.5V102.778H123.611ZM109.722 75V61.1111H123.611V75H109.722ZM26.3889 88.8889V75H40.2778V88.8889H26.3889ZM12.5 75V61.1111H26.3889V75H12.5ZM75 26.3889V12.5H88.8889V26.3889H75ZM22.9167 43.75H43.75V22.9167H22.9167V43.75ZM12.5 54.1667V12.5H54.1667V54.1667H12.5ZM22.9167 127.083H43.75V106.25H22.9167V127.083ZM12.5 137.5V95.8333H54.1667V137.5H12.5ZM106.25 43.75H127.083V22.9167H106.25V43.75ZM95.8333 54.1667V12.5H137.5V54.1667H95.8333ZM109.722 137.5V116.667H95.8333V102.778H123.611V123.611H137.5V137.5H109.722ZM81.9444 88.8889V75H109.722V88.8889H81.9444ZM54.1667 88.8889V75H40.2778V61.1111H81.9444V75H68.0556V88.8889H54.1667ZM61.1111 54.1667V26.3889H75V40.2778H88.8889V54.1667H61.1111ZM28.125 38.5417V28.125H38.5417V38.5417H28.125ZM28.125 121.875V111.458H38.5417V121.875H28.125ZM111.458 38.5417V28.125H121.875V38.5417H111.458Z" fill="url(#paint0_linear_4107_40715)"/>
<defs>
<linearGradient id="paint0_linear_4107_40715" x1="12.5" y1="75" x2="137.5" y2="75" gradientUnits="userSpaceOnUse">
<stop stop-color="#9F32E1"/>
<stop offset="1" stop-color="#430DAE"/>
</linearGradient>
</defs>
</svg>
