<svg width="351" height="350" viewBox="0 0 351 350" fill="none" xmlns="http://www.w3.org/2000/svg">
<g opacity="0.5">
<path d="M46.4903 56.8605C45.9381 56.8605 45.4903 57.3082 45.4903 57.8605V89.9419C45.4903 90.2909 45.6724 90.6147 45.9706 90.7962L71.403 106.27C71.8589 106.547 72.4523 106.417 72.7512 105.975L76.1717 100.916C76.4943 100.439 76.3482 99.7887 75.8525 99.4955L54.511 86.8693C54.2068 86.6893 54.0202 86.3621 54.0202 86.0086V57.8605C54.0202 57.3082 53.5725 56.8605 53.0202 56.8605H46.4903Z" fill="#8F27CE"/>
<path d="M91.6962 79.2871C91.0833 79.2871 90.6156 79.8333 90.6903 80.4416C91.3299 85.6439 90.9004 90.924 89.4227 95.966C87.8356 101.381 85.0771 106.393 81.3372 110.657C77.5972 114.92 72.9646 118.333 67.7584 120.662C62.5522 122.99 56.896 124.179 51.1794 124.145C29.0016 124.145 11.3732 106.763 11.3732 84.8943C11.3732 63.0261 29.0016 45.6436 51.1794 45.6436C54.6852 45.6436 58.0588 46.0786 61.2611 46.9101C61.9085 47.0783 62.5526 46.5979 62.5526 45.929V36.514C62.5526 36.0485 62.2316 35.6435 61.7764 35.5459C58.3726 34.8164 54.8251 34.4291 51.1794 34.4291C22.7464 34.4291 0 56.8581 0 84.8943C0 112.931 22.7464 135.36 51.1794 135.36C58.3882 135.389 65.5213 133.91 72.1078 131.021C78.6943 128.132 84.5844 123.898 89.389 118.599C94.1936 113.299 97.8036 107.055 99.9805 100.279C102.067 93.7849 102.791 86.9436 102.114 80.1707C102.063 79.6663 101.636 79.2871 101.129 79.2871H91.6962Z" fill="#8F27CE"/>
<path d="M91.2281 71.9854C90.8399 72.3633 90.2213 72.3633 89.8331 71.9854L68.5622 51.2805C68.1589 50.8879 68.1589 50.24 68.5622 49.8474L77.4744 41.1724C77.863 40.7941 78.4824 40.7945 78.8704 41.1734L89.8327 51.8756C90.221 52.2546 90.8406 52.2549 91.2292 51.8762L125.956 18.0396C126.344 17.6614 126.963 17.6612 127.351 18.0393L136.264 26.7149C136.667 27.1075 136.667 27.7555 136.264 28.1481L91.2281 71.9854Z" fill="#8F27CE"/>
</g>
<path d="M302.452 225.826C305.431 230.509 304.332 234.166 304.39 239.688C304.693 271.229 300.645 304.577 299.228 336.032C299.228 336.104 298.65 335.699 298.577 337.318C296.148 334.022 298.013 340.441 296.972 341.192H106.158C105.999 339.009 105.537 336.885 105.19 334.745C102.095 315.795 97.4396 247.682 100.028 230.336C102.385 245.716 103.917 261.472 105.19 277.055C106.1 288.272 102.891 298.535 109.701 307.338C114.414 313.438 123.972 318.931 131.302 321.201C156.287 328.934 252.511 327.98 277.641 319.914C311.46 309.058 294.832 282.533 302.452 257.078V225.826Z" fill="#461B63"/>
<path d="M302.452 225.825V257.077C294.832 282.533 311.46 309.058 277.64 319.914C252.511 327.98 156.301 328.934 131.302 321.2C123.986 318.931 114.428 313.452 109.7 307.338C102.89 298.535 106.1 288.271 105.189 277.054C103.917 261.457 102.399 245.716 100.027 230.335C101.126 223.021 105.117 222.443 111.305 220.665L296.957 221.315C299.256 222.587 300.963 223.512 302.437 225.825H302.452Z" fill="#58217C"/>
<path d="M214.454 267.717C215.307 267.688 217.563 267.471 217.996 268.035C211.403 274.886 205.605 282.533 200.588 290.585C200.01 291.51 199.041 296.497 198.65 297.032C197.537 298.549 188.948 301.599 187.372 301.224C185.796 300.848 181.531 293.317 179.955 291.886C185.261 287.867 186.548 288.098 191.884 291.568C193.98 288.474 201.441 269.061 203.494 268.367C204.015 268.194 212.965 267.76 214.454 267.717Z" fill="#FFFEFF"/>
<path d="M164.498 162.671C164.383 163.408 165.019 163.235 165.149 163.321L189.324 188.459L202.222 174.278L215.755 188.459L241.217 163.321V162.671C252.076 167.08 281.775 175.435 288.281 182.648C302.147 198.028 348.141 280.596 350.816 299.619C351.351 303.421 350.715 308.798 348.878 312.18C347.678 310.72 351.466 301.888 349.196 301.874C346.319 308.523 326.669 317.355 320.192 317.341C314.799 317.326 306.89 310.966 307.294 305.733C317.994 306.774 329.185 311.776 336.632 300.905L288.614 189.731L287.963 219.378L115.844 218.092L114.557 191.017L67.1756 300.905C74.5497 311.516 85.2782 307.222 95.8621 305.733C99.1442 307.049 90.6569 315.91 88.1266 316.69C80.6947 318.989 53.859 308.87 54.2783 298.65C58.8618 274.38 87.1867 225.319 101.342 203.593C103.901 199.662 115.888 181.246 118.418 179.424C120.081 178.225 130.578 174.857 133.571 173.628C143.634 169.45 154.478 166.762 164.513 162.671H164.498Z" fill="#CB64F3"/>
<path d="M348.865 312.195C343.414 322.27 310.593 333.213 299.228 336.046C300.645 304.577 304.693 271.244 304.39 239.703C304.332 234.195 305.431 230.524 302.452 225.84C300.978 223.527 299.271 222.602 296.972 221.33L111.32 220.68C105.132 222.458 101.141 223.036 100.042 230.35C97.4396 247.682 102.11 315.809 105.204 334.76C104.409 334.731 104.438 335.453 104.553 336.046C92.6682 333.126 57.0993 321.201 53.6292 308.654C52.1978 303.493 53.5569 302.452 54.2799 298.665C53.8605 308.885 80.6963 319.004 88.1281 316.705C90.6584 315.925 99.1458 307.064 95.8636 305.748C85.2797 307.223 74.5512 311.516 67.1772 300.92L114.559 191.032L115.846 218.107L287.964 219.393L288.615 189.746L336.633 300.92C329.187 311.79 317.996 306.789 307.296 305.748C306.891 310.966 314.786 317.327 320.193 317.356C326.685 317.37 346.321 308.538 349.198 301.889C351.453 301.918 347.665 310.75 348.88 312.195H348.865Z" fill="#B02EFB"/>
<path d="M241.205 163.321L215.743 188.459L202.209 174.278L189.312 188.459L165.137 163.321C168.853 165.808 187.143 183.024 188.661 183.298L202.195 169.768L216.379 183.298L241.19 163.321H241.205Z" fill="#B02EFB"/>
<path d="M288.269 182.648C281.762 175.435 252.063 167.08 241.205 162.671C237.995 161.37 226.977 154.143 224.447 154.287C223.001 149.56 221.223 143.07 221.223 138.17V136.883C225.922 133.775 230.476 130.219 233.469 125.276C239.397 120.997 245.615 116.834 249.591 110.459C251.268 110.835 252.223 111.24 254.102 111.11C257.76 110.849 261.1 109.404 263.775 106.6C277.092 128.788 296.12 155.675 288.269 182.648Z" fill="#1A2E3E"/>
<path d="M265.712 82.1123C268.185 91.089 271.9 98.0563 263.775 106.599C261.114 109.404 257.76 110.849 254.102 111.109C254.405 110.126 256.921 110.271 257.326 109.505C258.497 107.25 258.309 79.6694 257.326 76.3158L265.712 82.1123Z" fill="#EFBEEF"/>
<path d="M145.155 76.9521C145.473 78.3109 146.369 77.2702 147.092 76.9521C147.179 85.1338 147.324 93.2431 147.743 101.439C147.859 103.738 147.859 106.224 147.743 108.522C147.714 109.144 147.989 109.838 147.092 109.809C146.745 109.708 146.066 109.924 145.806 109.809C145.704 109.765 144.244 108.782 143.868 108.522C143.796 108.464 142.914 107.554 142.581 107.236C135.193 100.109 135.048 90.9303 140.008 82.4306C140.788 81.0863 144.36 78.3977 145.169 76.9521H145.155Z" fill="#EFBEEF"/>
<path d="M252.815 71.8058C252.107 71.6034 248.752 73.5693 247.653 70.5193C247.205 69.2472 248.029 65.9659 247.653 64.3903C234.915 11.1665 159.223 17.44 155.478 71.1553C154.885 71.1842 152.022 72.4996 150.967 72.4418C154.292 59.9815 151.907 53.867 161.276 41.8258C189.399 5.71688 253.668 24.1472 252.815 71.7913V71.8058Z" fill="#B02EFB"/>
<path d="M252.815 71.8059C256.083 72.7455 256.372 73.0635 257.326 76.3159C258.28 79.5683 258.497 107.25 257.326 109.505C256.921 110.271 254.405 110.141 254.102 111.109C252.222 111.24 251.268 110.835 249.591 110.459C246.699 109.823 246.12 111.818 245.079 107.886C244.617 106.151 244.53 73.8152 245.079 72.1239C245.701 70.1869 247.075 71.9649 247.653 70.5194C248.738 73.5694 252.106 71.6035 252.815 71.8059Z" fill="#CF6BF7"/>
<path d="M147.092 109.823C147.974 109.837 147.714 109.158 147.742 108.536L155.478 109.505L147.742 101.453C147.323 93.2429 147.193 85.148 147.092 76.9664C149.116 76.0701 150.446 74.3933 150.967 72.4564C152.022 72.5142 154.885 71.1988 155.478 71.1698C156.403 71.1265 159.599 70.9386 159.989 71.4879C158.616 77.6602 161.811 105.934 159.989 109.505C158.5 112.439 149.217 110.488 147.092 109.823Z" fill="#CF6BF7"/>
<path d="M250.877 37.6485C255.778 49.8487 262.212 69.4498 265.697 82.1125L257.311 76.316C256.357 73.0636 256.067 72.7456 252.8 71.806C253.653 24.1619 189.383 5.73157 161.26 41.8405C151.891 53.8817 154.277 59.9962 150.951 72.4565C150.431 74.3935 149.1 76.0703 147.076 76.9665C146.353 77.2845 145.457 78.3253 145.139 76.9665C150.098 68.0766 147.9 55.862 149.65 46.0325C159.251 -7.95745 228.465 -18.1917 250.862 37.6485H250.877Z" fill="#1A2E3E"/>
<path d="M180.622 154.302C183.615 154.475 199.925 168.54 202.86 168.482C207.111 167.21 221.671 154.475 224.462 154.302C226.992 154.157 238.01 161.37 241.219 162.686V163.336L216.408 183.313L202.224 169.783L188.69 183.313C187.172 183.038 168.882 165.822 165.166 163.336C165.036 163.249 164.414 163.437 164.515 162.686C167.566 161.442 177.745 154.143 180.637 154.302H180.622Z" fill="#FFFEFF"/>
<path d="M247.652 70.5195C247.074 71.9795 245.7 70.1871 245.079 72.124C244.529 73.8298 244.616 106.166 245.079 107.886C242.288 110.56 240.524 112.584 237.343 114.969C238.167 109.245 242.1 82.8642 240.567 79.2071C240.047 77.9784 233.136 76.5762 231.863 75.0151L232.514 78.2386C226.99 72.8468 220.47 78.5999 213.818 77.5881C210.782 75.9402 224.836 72.4565 225.747 72.7601C212.72 66.183 201.456 56.9317 192.549 45.3676C187.532 50.6871 165.902 65.1278 164.514 71.4736C162.403 81.0284 167.622 115.432 172.9 124.322C174.707 127.372 183.686 135.77 183.86 136.565C184.076 137.548 182.269 147.161 181.922 149.127C181.618 150.89 181.72 152.697 180.635 154.287C177.758 154.114 167.564 161.428 164.514 162.671C154.479 166.762 143.635 169.451 133.572 173.628C113.618 149.459 130.318 129.366 142.594 107.25C142.926 107.568 143.808 108.493 143.881 108.537C135.697 127.256 117.869 143.908 130.665 165.895C128.598 145.816 134.584 126.302 145.818 109.823C146.079 109.939 146.773 109.722 147.105 109.823C149.231 110.488 158.499 112.439 160.002 109.505C161.824 105.935 158.629 77.6459 160.002 71.488C159.612 70.9243 156.417 71.1266 155.491 71.17C159.251 17.4547 234.928 11.1812 247.667 64.405C248.043 65.9806 247.218 69.2475 247.667 70.534L247.652 70.5195Z" fill="#1A2E3E"/>
<path d="M197.698 40.8717C198.754 40.8428 208.542 54.7342 211.232 56.9892C219.314 63.7109 232.66 66.8621 240.569 74.7112C230.491 72.8176 218.042 65.8936 209.945 59.5622C208.123 58.1312 189.139 41.0741 197.698 40.8717Z" fill="#F9AE98"/>
<path d="M147.742 108.537C147.858 106.238 147.858 103.752 147.742 101.454L155.478 109.505L147.742 108.537Z" fill="#B02EFB"/>
<path d="M224.447 154.302C221.656 154.461 207.111 167.21 202.845 168.482C199.91 168.54 183.6 154.475 180.607 154.302C181.692 152.712 181.591 150.919 181.894 149.141L184.468 140.757C190.28 145.036 197.857 149.17 205.419 148.491C209.598 148.115 221.642 143.2 221.208 138.184C221.208 143.084 222.986 149.56 224.432 154.302H224.447Z" fill="#F17F67"/>
<path d="M249.591 110.474C245.615 116.848 239.412 121.011 233.47 125.29L222.51 127.863C222.813 127.198 223.348 123.425 223.16 122.703C225.112 121.329 227.469 120.505 229.609 119.479C232.082 118.294 234.438 117.181 236.694 115.605C237.301 115.171 237.301 114.984 237.345 114.955C240.526 112.57 242.29 110.546 245.08 107.872C246.121 111.803 246.699 109.809 249.591 110.445V110.474Z" fill="#D7D6DA"/>
<path d="M221.222 136.898V138.184C221.642 143.2 209.612 148.129 205.433 148.491C197.871 149.17 190.295 145.036 184.482 140.757L184.801 136.883C197.568 147.334 208.34 145.412 221.222 136.883V136.898Z" fill="#F17F67"/>
<path d="M223.16 122.717C223.363 123.44 222.828 127.213 222.51 127.877C219.632 134.05 202.889 132.59 205.752 124.004C206.793 120.867 209.15 120.823 210.914 118.843C213.849 118.843 222.22 119.262 223.16 122.717Z" fill="#1A2E3E"/>
<path d="M210.912 118.843C209.148 120.823 206.806 120.867 205.751 124.003C198.955 124.553 193.388 121.474 189.629 115.952L212.517 114.983L213.168 116.27C212.214 116.949 211.65 118.019 210.912 118.843Z" fill="#FFFEFF"/>
<path d="M237.344 114.983C237.344 114.983 237.315 115.2 236.693 115.634C237.199 103.636 240.279 91.6383 238.949 79.5394C237.922 93.185 235.681 107.105 229.608 119.493C227.469 120.52 225.112 121.344 223.16 122.717C222.22 119.277 213.848 118.857 210.913 118.843C211.65 118.019 212.214 116.949 213.169 116.27L212.518 114.983L189.63 115.952C193.389 121.474 198.956 124.553 205.751 124.003C202.888 132.575 219.632 134.05 222.509 127.877L233.469 125.304C230.476 130.234 225.921 133.79 221.222 136.912C208.339 145.44 197.568 147.363 184.8 136.912L184.482 140.786L181.909 149.17C182.241 147.204 184.063 137.591 183.846 136.608C183.673 135.799 174.694 127.415 172.886 124.365C167.623 115.475 162.404 81.0716 164.5 71.5168C165.903 65.1709 187.519 50.7447 192.536 45.4108C201.443 56.9749 212.706 66.2262 225.733 72.8033C224.823 72.5142 210.768 75.9834 213.805 77.6313C220.456 78.6431 226.977 72.89 232.5 78.2818L231.85 75.0583C233.122 76.605 240.033 78.0216 240.554 79.2503C242.086 82.9074 238.154 109.303 237.33 115.012L237.344 114.983Z" fill="#F9AE98"/>
<path d="M236.692 115.634C234.437 117.209 232.065 118.322 229.607 119.508C235.68 107.12 237.936 93.1994 238.948 79.5537C240.278 91.6527 237.198 103.636 236.692 115.648V115.634Z" fill="#F29477"/>
<path d="M219.617 80.8259C222.162 80.609 229.304 83.6735 226.066 86.6224L223.81 85.0178C225.285 89.5568 220.108 94.7895 217.361 89.5279C215.901 86.7236 218.692 82.0256 215.424 85.6539L213.486 85.0034C214.788 83.4856 217.636 80.9849 219.617 80.8114V80.8259Z" fill="#051E2C"/>
<path d="M182.226 80.8258C185.176 80.3921 188.313 82.3291 190.28 84.3673L189.311 85.9718L187.055 85.0033C184.193 101.656 180.506 84.7142 179.638 84.6853C179.522 84.6853 178.423 87.3739 177.382 85.6538C176.443 84.1215 181.272 80.9559 182.212 80.8258H182.226Z" fill="#051E2C"/>
<path d="M177.715 73.0924C181.706 72.3841 187.793 75.2607 191.581 76.6339C185.263 79.5539 176.992 72.095 171.917 78.8889C171.339 76.7929 176.616 73.2803 177.715 73.0924Z" fill="#0C1121"/>
<path d="M198.349 105.313C200.33 107.785 202.383 107.163 205.116 106.918C202.759 109.375 197.814 109.534 198.349 105.313Z" fill="#F17F67"/>
<rect x="96.8184" y="336.13" width="214.181" height="13.5105" rx="6.75525" fill="#311A3E"/>
</svg>
