<svg width="1366" height="451" viewBox="0 0 1366 451" fill="none" xmlns="http://www.w3.org/2000/svg">
<g clip-path="url(#clip0_1_2)">
<mask id="mask0_1_2" style="mask-type:alpha" maskUnits="userSpaceOnUse" x="0" y="0" width="1366" height="451">
<path opacity="0.9" d="M1366 0H0V451H1366V0Z" fill="url(#paint0_linear_1_2)"/>
</mask>
<g mask="url(#mask0_1_2)">
<path d="M1366 -35.7307H0V507.377H1366V-35.7307Z" fill="url(#paint1_linear_1_2)"/>
<path d="M402.828 261.762C480 261.762 503.295 272.31 592.9 272.31C682.505 272.31 712.209 259.816 788.854 259.816C865.5 259.816 868.048 270.774 1018.75 270.774C1169.45 270.774 1224 244.556 1366 244.556V518.493C933.963 518.869 0 518.493 0 518.493V244.754C67 244.754 118.173 272.31 213.209 272.31C308.244 272.31 325.656 261.762 402.828 261.762Z" fill="#380F52" fill-opacity="0.1"/>
<path d="M402.828 376.099C480 376.099 503.295 386.648 592.9 386.648C682.505 386.648 712.209 374.154 788.854 374.154C865.5 374.154 868.048 385.112 1018.75 385.112C1169.45 385.112 1224 358.894 1366 358.894V632.827C933.963 633.203 0 632.827 0 632.827V359.092C67 359.092 118.173 386.648 213.209 386.648C308.244 386.648 325.656 376.099 402.828 376.099Z" fill="#380F52" fill-opacity="0.1"/>
<path d="M247.035 46.5793C356.24 46.5793 389.204 61.5063 516.003 61.5063C642.801 61.5063 684.835 43.8259 793.294 43.8259C901.754 43.8259 905.36 59.3322 1118.61 59.3322C1331.86 59.3322 1409.06 22.2327 1610 22.2327V553.826C998.634 554.354 -323 553.826 -323 553.826V22.5125C-228.189 22.5125 -155.775 61.5063 -21.292 61.5063C113.191 61.5063 137.83 46.5793 247.035 46.5793Z" fill="#380F52" fill-opacity="0.1"/>
<path d="M455.035 97.7933C564.24 97.7933 597.204 112.72 724.003 112.72C850.801 112.72 892.835 95.0397 1001.29 95.0397C1109.75 95.0397 1113.36 110.546 1326.61 110.546C1539.86 110.546 1617.06 73.4464 1818 73.4464V461.086C1206.63 461.618 -115 461.086 -115 461.086V73.7261C-20.1895 73.7261 52.2246 112.72 186.708 112.72C321.191 112.72 345.83 97.7933 455.035 97.7933Z" fill="#380F52" fill-opacity="0.1"/>
<path d="M225.035 154.959C334.24 154.959 367.204 169.886 494.003 169.886C620.801 169.886 662.835 152.205 771.294 152.205C879.754 152.205 883.36 167.712 1096.61 167.712C1309.86 167.712 1387.06 130.612 1588 130.612V518.25C976.634 518.783 -345 518.25 -345 518.25V130.892C-250.189 130.892 -177.775 169.886 -43.292 169.886C91.1914 169.886 115.83 154.959 225.035 154.959Z" fill="#380F52" fill-opacity="0.1"/>
<path d="M455.035 200.618C564.24 200.618 597.204 215.545 724.003 215.545C850.801 215.545 892.835 197.864 1001.29 197.864C1109.75 197.864 1113.36 213.371 1326.61 213.371C1539.86 213.371 1617.06 176.271 1818 176.271V563.912C1206.63 564.44 -115 563.912 -115 563.912V176.551C-20.1895 176.551 52.2246 215.545 186.708 215.545C321.191 215.545 345.83 200.618 455.035 200.618Z" fill="#380F52" fill-opacity="0.1"/>
<path d="M455.035 318.132C564.24 318.132 597.204 333.059 724.003 333.059C850.801 333.059 892.835 315.378 1001.29 315.378C1109.75 315.378 1113.36 330.885 1326.61 330.885C1539.86 330.885 1617.06 293.785 1818 293.785V681.424C1206.63 681.957 -115 681.424 -115 681.424V294.065C-20.1895 294.065 52.2246 333.059 186.708 333.059C321.191 333.059 345.83 318.132 455.035 318.132Z" fill="#380F52" fill-opacity="0.1"/>
<path d="M364.52 417.126C469.7 417.126 501.449 432.112 623.574 432.112C745.699 432.112 786.183 414.361 890.645 414.361C995.107 414.361 998.58 429.929 1203.97 429.929C1409.36 429.929 1483.71 392.683 1677.25 392.683V781.857C1088.42 782.39 -184.503 781.857 -184.503 781.857V392.964C-93.1873 392.964 -23.4424 432.112 106.084 432.112C235.61 432.112 259.341 417.126 364.52 417.126Z" fill="white"/>
<path d="M1000.49 17.2564C907.664 17.2564 879.645 4.71303 771.87 4.71303C664.094 4.71303 628.367 19.5703 536.179 19.5703C443.991 19.5703 440.926 6.53973 259.667 6.53973C78.4081 6.53973 12.7927 37.7157 -158 37.7157V-288.029C361.645 -288.475 1485 -288.029 1485 -288.029V37.4805C1404.41 37.4805 1342.86 4.71303 1228.56 4.71303C1114.25 4.71303 1093.31 17.2564 1000.49 17.2564Z" fill="white"/>
</g>
</g>
<defs>
<linearGradient id="paint0_linear_1_2" x1="1.79028e-05" y1="451" x2="313.931" y2="-185.142" gradientUnits="userSpaceOnUse">
<stop stop-color="#473873"/>
<stop offset="0.607469" stop-color="#582598"/>
<stop offset="1" stop-color="#AB50E2"/>
</linearGradient>
<linearGradient id="paint1_linear_1_2" x1="6.84804e-05" y1="507.375" x2="418.366" y2="-196.619" gradientUnits="userSpaceOnUse">
<stop stop-color="#473873"/>
<stop offset="0.515" stop-color="#683BA0"/>
<stop offset="1" stop-color="#AB50E2"/>
</linearGradient>
<clipPath id="clip0_1_2">
<rect width="1366" height="451" fill="white"/>
</clipPath>
</defs>
</svg>
