<svg width="111" height="160" viewBox="0 0 111 160" fill="none" xmlns="http://www.w3.org/2000/svg">
<g clip-path="url(#clip0_124_5573)">
<path d="M97.2983 81.2922C98.5223 103.132 77.7304 121.938 56.7539 119.838C86.483 121.549 106.162 86.4039 88.0815 61.3904C87.1161 60.0517 86.3669 59.0261 85.2168 57.8278C83.1328 55.6687 80.9856 53.9792 78.4585 52.3814C74.8182 50.0819 72.059 48.8782 67.9122 47.7717C67.6801 47.7123 66.7515 47.5719 67.1947 47.1455C83.4599 50.1791 96.3381 64.235 97.293 81.2922H97.2983Z" fill="#EF9E23"/>
<path d="M56.7471 119.833C50.8172 119.239 45.7841 117.209 40.7773 113.965L53.0647 96.7838C54.7265 97.4477 56.4675 97.3883 57.9764 97.831L48.3534 109.879C51.5083 111.374 54.9059 112.27 58.3879 112.497C76.8479 113.701 91.3035 94.7056 87.4628 76.461C87.2359 75.3814 84.081 66.9122 83.2632 67.0309L69.6464 84.0017C69.2613 83.354 68.0162 82.1988 67.3937 81.6968C71.4666 75.43 76.1515 69.5787 80.7045 63.6789L83.469 66.8204L88.0748 61.374C106.155 86.3876 86.4709 121.533 56.7471 119.822V119.833Z" fill="#FECD4C"/>
<path d="M62.8902 85.0626L56.9496 92.3928C55.2139 91.9826 53.8897 90.9624 52.2383 90.401L50.1913 95.2213C51.1515 95.7017 52.059 96.3926 53.0561 96.792L40.7688 113.973C37.4714 111.836 35.3717 110.06 32.7812 107.059L53.8738 81.5C56.5803 83.589 59.9252 83.5188 62.8849 85.0626H62.8902Z" fill="#FFDE8D"/>
<path d="M65.9711 67.4685C70.0334 68.9313 67.8176 69.7356 68.0181 73.4385C65.7812 72.8663 64.2512 71.9487 61.8771 71.8677C59.503 71.7867 55.4142 72.5208 55.9365 75.7434C56.0526 76.4721 56.9917 77.1576 57.572 77.5246C60.574 79.3869 64.0401 78.9928 67.4008 81.7134C68.0234 82.2153 69.2684 83.3705 69.6536 84.0182C72.3179 88.5146 70.8512 94.7491 66.0713 97.0054C65.4488 97.3023 62.9058 97.7125 62.7951 97.8421C62.3835 98.3441 63.0958 101.081 62.3835 101.405C62.2358 101.475 59.2392 101.502 59.1073 101.405C58.3581 100.859 60.173 98.4844 57.9835 97.8421C56.4694 97.3994 54.7337 97.4588 53.0718 96.7949C52.0747 96.3954 51.1672 95.7045 50.207 95.2241L52.254 90.4039C53.9001 90.9652 55.2243 91.98 56.9653 92.3957C59.313 92.9516 64.1984 93.3565 65.5648 90.8249C67.0421 88.0828 65.0584 86.1882 62.9006 85.0654C59.9461 83.5216 56.596 83.5918 53.8895 81.5028C48.8934 77.6434 50.5183 69.9245 56.0421 67.4685C56.6066 67.2148 58.6588 67.0367 58.9068 66.8423C59.6085 66.2864 58.9279 63.9815 59.3183 63.7008C59.4502 63.6036 62.4627 63.6036 62.5946 63.7008C62.9217 63.9383 62.5049 66.4159 62.6948 66.7398C62.7898 66.8963 65.491 67.3012 65.9711 67.4739V67.4685Z" fill="white"/>
<path d="M85.1998 57.8287C83.7384 59.8151 82.1979 61.7475 80.6943 63.6961C76.1413 69.5906 71.4564 75.4472 67.3835 81.7141C64.0228 78.9936 60.5566 79.3876 57.5547 77.5254L61.8544 71.8684C64.2338 71.9494 65.7585 72.867 67.9955 73.4392C67.795 69.7363 70.0055 68.932 65.9485 67.4692L78.4362 52.3877C80.9633 53.9855 83.1106 55.675 85.1945 57.8341L85.1998 57.8287Z" fill="#FFDE8D"/>
<path d="M67.193 47.1438C66.7499 47.5756 67.6784 47.7106 67.9105 47.77C72.052 48.8765 74.8165 50.0748 78.4568 52.3797L65.969 67.4612C65.4889 67.2885 62.7878 66.8837 62.6928 66.7271C62.5029 66.4033 62.9196 63.9257 62.5925 63.6882C62.4607 63.591 59.4482 63.591 59.3163 63.6882C58.9311 63.9689 59.6064 66.2737 58.9048 66.8297C58.6568 67.0294 56.6045 67.2075 56.04 67.4558C50.5215 69.9119 48.8966 77.6308 53.8875 81.4902L32.7949 107.049C24.4592 97.376 21.721 85.0474 25.0131 72.4812C32.7421 54.0261 46.6913 43.3114 67.193 47.133V47.1438Z" fill="#FECD4C"/>
<path d="M55.7222 56.7801C56.0071 55.7221 53.1529 56.6668 52.7519 56.7801C47.1912 58.3725 41.0608 63.0362 37.7001 67.7809C37.6368 67.8726 37.0406 68.6715 37.7001 68.515C30.984 76.2825 30.5461 89.0213 35.1413 98.0519C19.9154 73.454 47.5975 43.2316 72.5097 57.0932C66.4795 54.9988 61.7471 54.8423 55.7169 56.7801H55.7222Z" fill="#EF9E23"/>
<path d="M55.7229 56.7831C49.7243 58.7101 41.8845 63.6815 37.7061 68.5126C37.0466 68.6691 37.6428 67.8702 37.7061 67.7785C41.0668 63.0338 47.192 58.37 52.7579 56.7777C53.1589 56.6643 56.0131 55.7197 55.7282 56.7777L55.7229 56.7831Z" fill="#F7B629"/>
<path d="M88.089 61.3926L83.4833 66.8391L80.7188 63.6975C82.2223 61.7489 83.7629 59.8165 85.2243 57.8301C86.3797 59.023 87.1236 60.054 88.089 61.3926Z" fill="#FECD4C"/>
<path d="M87.461 76.4708L58.3861 112.507C54.9041 112.28 51.5065 111.384 48.3516 109.889L57.9746 97.8408C60.1693 98.4831 58.3492 100.858 59.0983 101.403C59.2302 101.5 62.2269 101.474 62.3746 101.403C63.0816 101.079 62.3746 98.3428 62.7861 97.8408C62.8969 97.7058 65.4398 97.2956 66.0624 97.0041C70.8475 94.7478 72.3089 88.5133 69.6446 84.0169L83.2614 67.0462C84.0792 66.9274 87.2341 75.3966 87.461 76.4762V76.4708Z" fill="#FECD4C"/>
<path d="M87.4655 76.4668C91.3063 94.7115 76.8453 113.701 58.3906 112.503L87.4655 76.4668Z" fill="#F7B629"/>
<path d="M56.957 92.3976L62.8976 85.0674C65.0554 86.1901 67.0391 88.0848 65.5618 90.8269C64.1954 93.3638 59.3048 92.9536 56.9623 92.3976H56.957Z" fill="#FECD4C"/>
<path d="M61.8784 71.8694L57.5787 77.5263C56.993 77.1647 56.0592 76.4738 55.9432 75.7451C55.4209 72.5226 59.5993 71.7939 61.8837 71.8694H61.8784Z" fill="#FECD4C"/>
<path d="M103.555 149.817C103.892 149.792 104.775 149.829 104.838 149.817V151.637C103.545 150.911 98.7974 151.712 97.3179 152.365C97.3621 151.699 96.6586 150.38 97.135 149.639C97.9457 149.954 102.469 149.904 103.555 149.82V149.817Z" fill="#E39D85"/>
<path d="M97.5036 9.99847C99.5036 13.7753 97.1346 19.5969 94.7529 22.8172C94.4058 23.2893 91.9642 25.925 91.633 26C91.5226 26.025 91.3838 25.9875 91.267 26L91.0841 25.8187C90.3995 23.2956 91.0052 24.3398 91.7276 23.8177C92.8506 23.0048 93.9674 21.1664 93.6551 19.7282C93.3428 18.29 92.0241 19.1185 91.9137 19.0904C90.9074 18.859 90.5289 12.9374 89.8948 12.7279C85.98 14.138 83.2986 13.9692 81.0904 10.1829C81.0147 11.6399 82.0178 12.9812 83.0178 13.9098C82.2891 14.4288 78.7876 13.5064 78.5226 13.6377C78.3428 13.7253 77.7245 16.386 77.6961 16.7299C77.3049 15.7419 77.7497 13.991 77.5131 13.1844C77.4374 12.9218 76.0999 11.9463 75.8633 11.5492C73.9894 8.39769 75.2292 3.87673 77.7907 1.4568C78.4469 1.54434 77.6456 4.18 78.5257 4.54893C79.3775 3.28582 79.8538 1.80384 81.0021 0.731445C79.8317 8.43521 91.5036 13.9316 97.5131 10.0047L97.5036 9.99847Z" fill="#101C2D"/>
<path d="M97.503 9.99893C91.4936 13.9258 79.8216 8.42941 80.992 0.725653C81.0992 0.625605 81.5188 -0.0122069 81.6355 -0.00282728C83.7175 5.34979 90.3642 3.27065 93.9257 5.45296C94.6324 5.88442 97.0614 9.16415 97.503 9.99893Z" fill="#252E3B"/>
<path d="M109.243 78.7264C107.723 78.2386 106 78.7608 104.473 78.545C104.161 78.5013 103.171 78.3387 103.007 78.0917C102.748 76.4722 102.331 74.8526 101.906 73.2737C100.966 69.7845 100.003 66.2609 99.7037 62.6373L97.3188 55.365C97.3251 63.5283 95.956 72.9267 96.7699 81.0025C96.8015 81.3089 96.9087 82.7408 96.9529 82.8221C96.9939 82.894 98.3819 82.4626 98.6027 82.9128C92.5523 83.3724 87.2999 83.8007 81.1737 83.4568C79.5523 83.3661 75.5302 83.3912 74.2021 82.9128C74.016 82.844 73.7605 82.6689 73.4671 82.6408L73.65 52.6418C73.1832 52.4292 73.1926 53.6516 73.1011 54.0049C72.1327 57.7255 71.5554 61.643 69.7983 65.0947C66.0254 64.7727 62.2273 60.727 59.8929 57.9131C59.3567 57.2659 55.6974 52.2791 55.6721 51.9133C55.6532 51.6444 56.7163 49.9842 56.956 49.6403C57.4229 48.9712 58.6469 48.0395 59.1579 47.2767L68.9718 55.0961L74.568 39.0039C76.6027 36.3307 80.4482 36.4964 82.8235 34.1859C82.8803 35.0207 83.4387 36.4901 84.1989 36.9122C87.3251 38.6599 89.8172 34.361 92.18 33.0947C92.5176 34.4735 96.3756 35.0863 97.5933 35.6397C99.4418 36.4839 101.609 37.9002 102.82 39.5479C106.54 44.6097 109.997 70.488 109.792 77.185C109.748 78.6295 109.246 78.6357 109.243 78.7295V78.7264Z" fill="white"/>
<path d="M101.908 73.2742L100.99 84.7298C100.927 84.092 100.735 83.3916 100.716 82.7288C100.013 82.832 99.3122 82.857 98.6056 82.9101C98.3848 82.4599 96.9936 82.8914 96.9557 82.8195C96.9116 82.7382 96.8043 81.3062 96.7728 80.9998C95.962 72.9271 97.328 63.5257 97.3217 55.3623L99.7065 62.6346C100.003 66.2582 100.968 69.7787 101.908 73.271V73.2742Z" fill="#E5C6F8"/>
<path d="M69.8047 65.0917C71.5618 61.6401 72.1391 57.7194 73.1075 54.002C73.2621 56.1905 74.0507 64.0444 71.7321 65.0917C70.9908 65.4263 70.4987 65.1511 69.8047 65.0917Z" fill="#E5C6F8"/>
<path d="M104.841 151.637C105.532 152.024 107.756 158.603 107.775 159.819C103.708 159.772 99.5632 159.838 95.4844 159.819C95.6263 157.527 97.1752 154.491 97.3203 152.365C98.803 151.712 103.551 150.911 104.841 151.637Z" fill="#511B72"/>
<path d="M100.895 154.363C101.239 154.328 103.923 154.238 103.923 154.635C102.756 155.385 96.3208 154.829 100.895 154.363Z" fill="#FEFEFF"/>
<path d="M101.082 153.272C101.407 153.247 103.558 153.15 103.558 153.544L99.0627 154.182C98.2331 153.622 100.801 153.294 101.082 153.272Z" fill="#FEFEFF"/>
<path d="M101.083 155.454C101.417 155.413 104.111 155.335 104.111 155.726C103.199 156.511 97.2405 155.938 101.083 155.454Z" fill="#FEFEFF"/>
<path d="M109.241 78.7261C109.02 83.2096 111.547 85.5013 110.89 89.7252C110.843 90.041 110.285 92.1889 110.155 92.2702C109.812 92.486 109.37 91.9826 109.329 91.9982C109.146 92.0608 109.004 93.0487 108.871 93.18C108.805 93.2457 107.405 94.1899 107.313 94.1805C106.755 94.1243 107.064 92.6423 106.578 92.5454C106.348 93.3051 106.729 94.1587 106.029 94.7277C105.323 94.7214 105.2 89.3907 105.203 88.6372C104.506 93.0863 103.338 92.0389 103.184 88.2745C103.029 84.5102 105.181 82.1841 104.468 78.5479C105.994 78.7636 107.717 78.2446 109.237 78.7292L109.241 78.7261Z" fill="#F6C1AA"/>
<path d="M59.1626 47.2736C58.6516 48.0365 57.4276 48.9682 56.9607 49.6373C55.273 48.2303 53.3645 48.1459 51.3645 47.0923C50.844 46.8171 46.9071 44.0064 46.8692 43.7281C46.9828 42.4588 48.3203 43.872 49.0711 43.7281C47.6295 42.9152 43.4812 40.1139 47.9702 41.3645C43.7241 38.3724 46.6516 38.9508 49.437 40.2733L47.0522 37.9097C47.2856 37.0999 52.3771 39.673 52.8314 40.0013C52.8913 38.8414 52.0017 37.8002 53.1973 36.9092C53.7241 38.0566 55.5317 39.5824 56.0396 40.4547C57.3361 42.6745 57.3266 45.4071 59.1594 47.2736H59.1626Z" fill="#F6C1AA"/>
<path d="M91.0809 25.8194C89.6234 27.7641 87.9042 29.2241 85.4846 29.8182C85.2102 29.887 82.3837 29.6712 84.0178 30.5467C87.002 32.1412 90.9736 29.1366 91.2638 26.0007C91.3805 25.9882 91.5225 26.0257 91.6298 26.0007C92.2102 28.011 91.7212 31.2189 92.1787 33.0917C89.819 34.3579 87.3269 38.6569 84.1976 36.9091C83.4373 36.4839 82.879 35.0176 82.8222 34.1828C82.7749 33.4825 83.4499 30.284 83.3711 30.0933C83.2102 29.6869 79.9011 30.2152 78.7843 27.1856C78.1787 25.5411 77.5446 18.5408 77.6834 16.7305C77.7086 16.3897 78.3301 13.7259 78.5099 13.6384C78.7717 13.5102 82.2764 14.4325 83.0051 13.9104C82.0051 12.9787 81.0052 11.6374 81.0777 10.1836C83.2859 13.9729 85.9673 14.1386 89.8821 12.7286C90.513 12.9412 90.8947 18.8597 91.9011 19.0911C92.0115 19.1161 93.3175 18.2188 93.6424 19.7289C93.9673 21.239 92.838 23.0086 91.7149 23.8184C90.9957 24.3405 90.39 23.2962 91.0714 25.8194H91.0809Z" fill="#F6C1AA"/>
<path d="M91.2594 26.0007C90.9692 29.1366 86.9976 32.1412 84.0133 30.5466C82.3793 29.6743 85.2058 29.8869 85.4802 29.8182C87.8998 29.2241 89.6159 27.764 91.0764 25.8193L91.2594 26.0007Z" fill="#E39D85"/>
<path d="M80.9922 25.4535C82.3329 26.0569 84.0837 25.6849 85.396 25.0908C86.008 27.4295 81.7272 29.0615 80.9922 25.4535Z" fill="#C1716D"/>
<path d="M85.3912 25.0916C84.0789 25.6857 82.3281 26.0577 80.9875 25.4543C80.9433 25.2386 80.1862 25.1291 80.896 24.5445C82.2272 24.7852 85.101 23.9817 85.3912 25.0885V25.0916Z" fill="#FEFEFF"/>
<path d="M79.6169 18.5474C80.6611 18.2066 80.986 20.1169 80.1658 20.3671C79.0302 20.711 78.8062 18.81 79.6169 18.5474Z" fill="#101C2D"/>
<path d="M79.0627 16.9093C79.3781 16.8249 81.7977 16.9812 81.1731 17.7284C80.7062 18.2849 76.7724 17.5221 79.0627 16.9093Z" fill="#101C2D"/>
<path d="M85.8516 16.909C89.3279 16.3681 87.003 19.0601 84.9336 17.453C84.9778 17.2811 85.7191 16.9278 85.8516 16.909Z" fill="#101C2D"/>
<path d="M86.2186 18.5475C87.2628 18.2661 87.3669 20.5484 86.4016 20.5484C85.5688 20.5484 85.5246 18.7351 86.2186 18.5475Z" fill="#101C2D"/>
<path d="M100.988 84.7256C101.953 94.4678 102.148 104.814 103.006 114.725C104.006 126.28 105.275 137.817 106.309 149.36C105.801 149.382 105.306 149.717 104.842 149.814C104.779 149.826 103.896 149.789 103.559 149.814C102.625 137.817 101.063 125.874 99.8897 113.905C99.3755 108.659 99.5112 96.2062 97.8708 91.9041C96.5143 88.3399 85.9875 86.0075 82.5522 84.5411C82.0916 84.3441 82.0885 83.45 80.9023 83.8126L81.1768 83.45C87.303 83.7939 92.5553 83.3656 98.6058 82.906C99.3124 82.8528 100.013 82.8247 100.716 82.7246C100.735 83.3843 100.928 84.0846 100.991 84.7256H100.988Z" fill="#511B72"/>
<path d="M81.1736 83.4534L80.8992 83.8161C82.0853 83.4534 82.0916 84.3476 82.549 84.5445C85.9843 86.014 96.508 88.3464 97.8676 91.9075C99.508 96.2096 99.3724 108.663 99.8866 113.909C101.06 125.88 102.622 137.821 103.555 149.817C102.47 149.901 97.9433 149.951 97.1358 149.636C96.5553 149.407 96.6026 149.389 96.4008 148.817C93.7951 141.397 93.7951 130.004 91.4481 122.182L87.4134 102.544C87.2209 98.9703 85.9844 95.4561 85.5774 91.9075C84.1074 91.1259 82.7383 89.6877 80.9907 89.5439C80.4954 90.2911 83.814 93.2175 84.2935 93.9085L82.6437 152.634C82.3566 153.372 76.8897 153.303 75.855 152.906C75.5837 144.658 74.8866 136.423 74.5711 128.178C73.9907 113.108 73.7351 97.998 74.2052 82.9062C75.5301 83.3877 79.5522 83.3596 81.1768 83.4503L81.1736 83.4534Z" fill="#5E3B8C"/>
<path d="M87.4107 102.544C87.7672 109.247 86.8619 117.154 86.6757 123.998C86.4202 133.54 85.9407 143.079 85.9407 152.634C85.5906 153.015 84.6663 152.75 84.4738 153.178C84.2467 153.678 85.8366 158.768 85.5748 159.816C79.0196 159.8 72.4234 160.006 65.8555 159.997C65.7073 159.997 65.783 159.634 65.7641 159.634C65.3445 156.936 69.477 156.814 71.5432 155.817C72.0574 155.567 75.7704 153.178 75.8555 152.909C76.8902 153.303 82.354 153.375 82.6442 152.637L84.294 93.9115C83.8145 93.2205 80.4959 90.2972 80.9912 89.5469C82.7388 89.6907 84.1079 91.1289 85.5779 91.9105C85.9849 95.4591 87.2215 98.9733 87.4139 102.547L87.4107 102.544Z" fill="#511B72"/>
<path d="M79.2451 153.272C79.4407 153.185 83.4343 153.185 83.5574 153.363C84.1725 155.142 79.9012 155.198 79.2451 154.907C78.835 154.726 78.835 153.45 79.2451 153.272Z" fill="#B4C5CC"/>
<path d="M25.0385 159.819C18.884 159.841 12.6505 159.741 6.51172 159.819C6.69153 157.965 7.24989 156.174 7.61267 154.364C9.06061 155.361 13.4549 155.627 14.4013 154.001L25.0417 159.819H25.0385Z" fill="#101C2D"/>
<path d="M24.3072 4.54688L20.547 5.63803C18.1495 6.78859 15.3766 8.51131 15.0422 11.2752C21.0959 12.679 29.241 12.5133 32.7457 6.54785C33.1179 6.79172 33.7962 7.00433 34.1211 7.27633C41.2441 13.2261 37.8277 27.6769 33.1116 34.3677C32.4618 34.0019 31.5627 33.9112 31.0927 33.6392C29.8593 32.9295 29.8435 32.1572 29.9918 30.7315C30.0485 30.1813 30.2441 29.953 30.3577 29.459C34.9791 29.1964 35.7615 23.2873 36.0454 19.5511C36.1116 18.6819 36.2094 10.5467 35.4019 10.5498C34.1242 13.4887 31.1179 14.9957 28.5217 16.6403L29.1653 17.2781C27.5564 17.078 24.7993 17.4594 23.2946 18.0066C23.0391 18.1004 23.0138 18.61 22.7457 18.7351C21.7772 19.1759 20.4271 18.1566 20.8183 21.008C21.0864 22.9746 23.099 23.4936 23.2031 23.7344C23.6384 24.7349 22.14 31.582 21.3672 32.917C18.7772 33.9769 14.2599 35.6464 12.5627 37.9163C10.8656 40.1862 9.37977 47.6867 8.89397 50.7351C1.78987 44.9604 0.537503 33.5892 7.79302 27.3705C2.27252 29.2339 -0.462497 37.4629 1.37347 42.6373C1.69523 43.5378 2.69208 44.3413 2.74886 45.273C-1.75903 41.3867 -0.131266 31.7477 3.39239 27.7269C4.9823 25.9136 7.56274 24.5817 9.26305 22.637C15.4334 15.5773 12.3041 5.74121 24.3072 4.54688Z" fill="#101C2D"/>
<path d="M32.7464 6.54782C29.2417 12.5132 21.0966 12.6789 15.043 11.2751C15.3774 8.51441 18.1502 6.79169 20.5477 5.638L24.308 4.54684C28.3016 4.14977 29.5382 4.45617 32.7464 6.54782Z" fill="#252E3B"/>
<path d="M17.5167 68.3654C23.9805 68.7093 30.5167 68.6186 36.9615 68.184C36.9458 69.3252 38.9899 75.9941 39.3464 78.0013C39.4631 78.661 39.6114 79.3426 39.7123 80.0023C40.2202 83.3321 40.501 86.2616 40.6303 89.6383C41.0877 101.75 40.1634 115.548 38.9805 127.638C38.542 132.125 38.1161 138.159 37.1445 142.455C36.8984 143.549 36.7249 145.068 35.6776 145.637C35.1697 145.913 33.4 146.113 32.7439 146.181L30.542 145.909L30.359 87.1839C30.8164 86.4023 34.8764 81.3623 34.7628 81.0028C34.2581 79.4145 29.441 84.6765 28.8921 85.1861C28.5041 90.7513 26.6902 96.4947 26.3243 102.004C24.889 108.554 24.0215 115.223 22.8385 121.823C21.441 129.617 19.7596 137.374 18.4347 145.187C18.2581 145.484 17.2833 145.769 16.9679 145.825C15.0436 146.166 11.0656 145.756 9.26438 144.915C8.96785 144.778 8.11612 144.606 7.98047 144.277C8.80697 134.129 9.88583 123.974 10.7313 113.822C11.2675 107.397 11.9962 101.016 12.0152 94.55L14.8574 95.0941C16.3464 94.4938 15.0877 91.8675 14.9489 90.4574C14.8385 89.3444 15.1287 87.8561 14.9489 86.8213C14.7218 85.5175 12.9332 83.7041 12.747 82.8224C12.5262 81.7688 12.9111 80.0492 12.747 78.9143C13.1035 78.8111 13.5672 78.8861 13.848 78.4609C14.3653 75.053 14.6272 71.592 15.1319 68.1872C15.8543 67.9621 16.8574 68.3341 17.5167 68.3685V68.3654Z" fill="#511B72"/>
<path d="M32.7438 146.181C31.1129 146.353 29.2075 146.397 27.6081 146C27.3432 145.935 25.4504 145.29 25.4062 145.181C26.0309 138.015 26.8132 130.84 26.8731 123.636C26.9331 116.514 25.8542 109.035 26.3242 102.001C26.6902 96.4916 28.504 90.7482 28.8921 85.183C29.4409 84.6765 34.258 79.4145 34.7627 80.9997C34.8763 81.3592 30.8163 86.3992 30.3589 87.1808L30.5419 145.906L32.7438 146.178V146.181Z" fill="#511B72"/>
<path d="M21.3705 32.9104L28.0677 42.5463L31.0961 33.6357C31.5661 33.9046 32.4651 33.9984 33.115 34.3642C34.6765 35.2427 36.2632 36.2432 37.3358 37.7283C39.3737 40.5547 42.6797 59.0325 43.3894 63.5472C44.2222 68.8341 44.8342 74.1743 44.6733 79.5456C44.1118 79.3987 43.6323 79.9927 43.5724 79.999C42.7743 80.1209 40.7522 79.4206 39.7207 79.999C39.6197 79.3393 39.4715 78.6608 39.3547 77.998L39.9036 79.3612H40.6386C39.7743 69.0249 40.3421 58.5135 38.1623 48.3616C38.0771 54.3708 37.8752 60.8177 37.5188 66.9989C37.503 67.2615 36.9699 68.115 36.9699 68.1807C30.5219 68.6153 23.9856 68.706 17.5251 68.362C18.4935 67.2459 18.8595 65.1792 18.992 63.7254C19.4367 58.848 18.7869 53.239 18.3484 48.3616C17.1623 54.943 16.1213 61.565 15.1371 68.1807C14.6323 71.5855 14.3705 75.0466 13.8531 78.4545C13.5724 78.8828 13.1087 78.8046 12.7522 78.9078C12.2412 79.0579 9.27271 79.4987 8.90047 79.4518C8.74905 79.4331 7.891 79.1829 7.79952 78.9985C7.26955 69.6814 7.43359 59.9423 8.90047 50.7253C9.38627 47.6769 10.8058 40.2671 12.5692 37.9065C14.3326 35.546 18.7838 33.9671 21.3737 32.9072L21.3705 32.9104Z" fill="white"/>
<path d="M39.3459 78.0016C38.9894 75.9943 36.9453 69.3255 36.961 68.1843C36.961 68.1186 37.4973 67.2651 37.5099 67.0025C37.8632 60.8213 38.0651 54.3744 38.1535 48.3652C40.3333 58.5171 39.7654 69.0316 40.6298 79.3647H39.8948L39.3459 78.0016Z" fill="#E5C6F8"/>
<path d="M17.5177 68.3656C16.8584 68.3312 15.8552 67.9592 15.1328 68.1843C16.117 61.5686 17.158 54.9497 18.3442 48.3652C18.7827 53.2395 19.4293 58.8516 18.9877 63.729C18.8552 65.1828 18.4893 67.2495 17.5208 68.3656H17.5177Z" fill="#E5C6F8"/>
<path d="M45.5824 160.001C39.4751 160.01 33.3332 159.801 27.2386 159.819C27.0335 158.062 28.0335 155.955 28.1565 154.364C29.472 155.345 34.1975 155.502 34.9452 154.001L45.5856 160.001H45.5824Z" fill="#101C2D"/>
<path d="M16.2347 147.454C15.7868 148.614 15.3515 149.821 14.9508 151C14.7521 151.584 14.607 153.645 14.4019 154.001C13.4556 155.627 9.06123 155.364 7.61328 154.364C8.10224 151.925 8.73 149.358 9.08016 146.91L16.2347 147.454Z" fill="#F6C1AA"/>
<path d="M16.9677 145.819C16.6554 146.341 16.4504 146.891 16.2327 147.454L9.07812 146.91C9.14437 146.441 8.85415 145.431 9.26109 144.909C11.0623 145.747 15.0403 146.16 16.9646 145.819H16.9677Z" fill="#E39D85"/>
<path d="M35.68 145.638C35.8377 146.313 35.5444 147.06 35.497 147.639C32.8409 148.27 30.4403 148.301 27.7936 147.639C27.7336 147.12 27.4813 146.594 27.6106 146.004C29.2131 146.404 31.1185 146.357 32.7463 146.185C33.4056 146.116 35.1753 145.916 35.68 145.641V145.638Z" fill="#E39D85"/>
<path d="M35.4964 147.636C35.4081 148.727 35.2693 153.351 34.9475 153.998C34.1999 155.502 29.4744 155.343 28.1589 154.361C28.3166 152.338 28.0296 149.671 27.793 147.633C30.4397 148.296 32.8434 148.264 35.4964 147.633V147.636Z" fill="#F6C1AA"/>
<path d="M12.747 78.9121C12.9111 80.0502 12.5262 81.7666 12.747 82.8203C12.9331 83.7051 14.7218 85.5153 14.9489 86.8191C15.1287 87.854 14.8385 89.3422 14.9489 90.4552C15.0877 91.8653 16.3464 94.4916 14.8574 95.0919L12.0152 94.5479C10.6934 94.4197 9.69339 90.6929 9.44733 89.3672C8.81642 85.9687 9.62399 82.8203 8.89844 79.4593C9.27068 79.5061 12.2391 79.0653 12.7502 78.9152L12.747 78.9121Z" fill="#F6C1AA"/>
<path d="M43.5658 79.9994C43.7551 84.5297 47.7835 86.0055 46.6857 91.1799C46.3955 92.543 45.2441 92.0053 44.5753 93.0902C44.0359 91.6551 43.8024 93.1308 43.4743 93.0902C43.2725 93.0652 43.2031 92.5993 43.1084 92.5462C42.9381 92.4461 42.6258 92.9401 42.4649 92.6368C42.0075 91.7645 43.2567 88.1127 42.3734 86.909L41.7299 90.0918L40.6289 89.6385C40.5027 86.2618 40.222 83.3323 39.7109 80.0025C40.7425 79.4241 42.7646 80.1245 43.5627 80.0025L43.5658 79.9994Z" fill="#E39D85"/>
<path d="M30.3583 29.4565C30.2448 29.9505 30.0492 30.1788 29.9924 30.729C25.8946 31.9234 23.5886 30.8572 23.3867 26.4551C25.2826 28.4654 27.535 29.616 30.3583 29.4565Z" fill="#E39D85"/>
<path d="M30.3587 29.4563C27.5354 29.6158 25.2861 28.4652 23.3871 26.4548C23.5858 30.857 25.895 31.9231 29.9928 30.7288C29.8445 32.1576 29.8603 32.9268 31.0937 33.6365L28.0653 42.5471L21.3682 32.9111C22.141 31.5761 23.6395 24.729 23.2041 23.7285C23.1 23.4878 21.0874 22.9656 20.8193 21.0022C20.4281 18.1508 21.7783 19.17 22.7467 18.7292C23.018 18.6073 23.0401 18.0945 23.2956 18.0007C24.8003 17.4536 27.5574 17.0721 29.1663 17.2722L28.5227 16.6344C31.119 14.9899 34.1253 13.4829 35.4029 10.5439C36.2104 10.5377 36.1095 18.676 36.0464 19.5452C35.7625 23.2845 34.9802 29.1937 30.3587 29.4532V29.4563Z" fill="#F6C1AA"/>
<path d="M32.7432 25.8205L29.6234 25.4578C28.8694 23.5788 32.5918 25.1952 33.7495 24.7293C33.6675 25.2014 33.0745 25.5297 32.7401 25.8205H32.7432Z" fill="#FEFEFF"/>
<path d="M34.1187 18.182C35.2323 18.0319 35.002 19.9985 34.4846 20.183C33.2733 20.6176 33.1376 18.3164 34.1187 18.182Z" fill="#511B72"/>
<path d="M27.6954 18.1826C28.626 17.9575 28.8594 19.9678 28.0613 20.1836C27.0581 20.4525 26.9509 18.3639 27.6954 18.1826Z" fill="#511B72"/>
<path d="M32.741 25.8207C31.7094 26.7211 30.3782 27.3402 29.6211 25.458L32.741 25.8207Z" fill="#D2887A"/>
<path d="M34.1181 16.3659C34.544 16.3377 35.3579 16.6817 35.6765 17.0037L33.2001 17.2757C32.7427 16.7661 34.0203 16.3721 34.1181 16.3659Z" fill="#101C2D"/>
</g>
<defs>
<clipPath id="clip0_124_5573">
<rect width="111" height="160" fill="white"/>
</clipPath>
</defs>
</svg>
