<svg width="150" height="150" viewBox="0 0 150 150" fill="none" xmlns="http://www.w3.org/2000/svg">
<g clip-path="url(#clip0_2006_20319)">
<g opacity="0.5">
<path fill-rule="evenodd" clip-rule="evenodd" d="M105.564 4.00003C111.584 3.98992 114.887 6.98767 115.469 12.9953C115.097 16.8703 113.648 20.2724 111.123 23.2034C105.756 29.1363 99.1868 33.0113 91.4145 34.8265C90.6989 34.3657 90.6322 33.8259 91.2123 33.2094C96.9026 31.1738 102.023 28.2105 106.575 24.3152C109.377 21.7804 111.366 18.7159 112.538 15.1178C113.3 11.5561 112.12 8.89386 109.001 7.13321C105.948 6.21549 103.49 7.0564 101.623 9.65998C100.533 11.4651 100.701 13.1146 102.128 14.6124C104.069 15.3017 105.449 14.7297 106.272 12.8942C107.776 12.306 108.382 12.8457 108.091 14.5114C106.771 16.9714 104.715 17.8811 101.926 17.2403C98.7542 15.7525 97.6424 13.2945 98.5905 9.86212C99.8498 6.61169 102.174 4.65901 105.564 4.00003Z" fill="#511B72"/>
<path fill-rule="evenodd" clip-rule="evenodd" d="M120.733 22.7961C125.467 22.1776 128.667 24.0656 130.335 28.4561C130.931 32.6121 129.28 35.4077 125.383 36.8449C122.894 37.4675 120.907 36.76 119.419 34.7225C118.764 33.6956 118.797 32.7172 119.52 31.7914C119.858 31.656 120.194 31.656 120.531 31.7914C121.789 34.678 123.741 35.2844 126.393 33.6107C128.271 31.3063 128.271 29.014 126.393 26.7379C124.384 25.3552 122.227 25.0844 119.925 25.9293C118.813 26.3821 117.802 26.9885 116.893 27.7486C114.669 30.1076 112.446 32.4645 110.222 34.8235C104.999 38.9512 99.0699 41.2092 92.4336 41.5952C92.0919 40.908 92.2274 40.3339 92.8379 39.877C98.8839 38.9411 104.273 36.5821 109.009 32.8021C111.166 30.4431 113.321 28.0862 115.478 25.7272C117.034 24.3769 118.785 23.4005 120.733 22.7961Z" fill="#511B72"/>
<path fill-rule="evenodd" clip-rule="evenodd" d="M64.323 149.54C53.8622 141.175 43.2821 132.954 32.5868 124.878C32.3159 124.573 32.0814 124.236 31.8793 123.868C31.8126 114.029 31.7439 104.193 31.6772 94.3551C28.1377 91.8445 24.6346 89.2834 21.1658 86.6737C20.7312 85.948 20.7979 85.2749 21.368 84.6523C25.0328 80.753 28.5035 76.7102 31.7782 72.5238C26.2072 61.2464 20.6483 49.9952 15.1016 38.7663C14.9661 38.2953 14.9661 37.8223 15.1016 37.3513C16.1527 33.9937 17.1634 30.6261 18.1337 27.2442C18.2934 26.8218 18.5299 26.4519 18.8412 26.1325C19.8115 25.7322 20.8222 25.4634 21.8733 25.3239C39.7143 22.3039 57.5694 19.3385 75.4407 16.4297C76.3847 16.2943 77.3267 16.2943 78.2707 16.4297C79.0207 16.9553 79.2572 17.6628 78.9782 18.5522C77.6926 21.6692 76.4454 24.8024 75.2386 27.9517C80.5064 38.6571 85.8631 49.3362 91.3088 59.9911C102.41 65.5581 113.427 71.2524 124.359 77.072C127.83 81.4848 131.298 85.8995 134.769 90.3123C135.412 92.2973 134.705 93.0715 132.647 92.6369C131.042 91.8667 129.425 91.2947 127.795 90.9187C128.402 92.5641 128.772 94.2479 128.907 95.9722C128.671 96.4776 128.301 96.8475 127.795 97.084C126.698 97.3245 125.62 97.6277 124.561 97.9936C124.393 108.909 124.292 119.825 124.258 130.74L123.55 131.448C104.371 137.32 85.2365 143.318 66.1422 149.439C65.5399 149.54 64.9334 149.572 64.323 149.54Z" fill="#511B72"/>
<path fill-rule="evenodd" clip-rule="evenodd" d="M88.3705 59.9862C70.3355 63.7622 52.3126 67.6029 34.2978 71.5082C34.1421 71.4799 34.0067 71.4112 33.8935 71.3061C31.579 66.7438 29.321 62.1632 27.1217 57.5605C24.2433 52.0057 21.4133 46.4144 18.6318 40.7828C18.3165 40.2875 18.1143 39.7478 18.0254 39.1657C31.6982 36.7804 45.3771 34.4234 59.0601 32.0907C60.8308 31.6298 62.6501 31.2923 64.5179 31.08C67.2852 30.5342 70.0808 29.9945 72.9067 29.4629C73.2605 29.5134 73.4283 29.7156 73.4121 30.0693C75.2091 33.4612 76.9617 36.8976 78.6678 40.3785C78.5586 40.3906 78.4899 40.4573 78.4656 40.5806C79.7432 42.9336 80.8549 45.3593 81.801 47.8577C82.8986 49.58 83.9416 51.3325 84.9341 53.1134C86.1894 55.3551 87.3356 57.6454 88.3705 59.9862Z" fill="#B889B3"/>
<path fill-rule="evenodd" clip-rule="evenodd" d="M78.6709 40.3828C80.8136 44.6015 82.9037 48.8465 84.9373 53.1177C83.9448 51.3368 82.9017 49.5843 81.8041 47.862C80.8581 45.3636 79.7463 42.9379 78.4688 40.585C78.493 40.4616 78.5617 40.3949 78.6709 40.3828Z" fill="#B396AC"/>
<path fill-rule="evenodd" clip-rule="evenodd" d="M75.6464 18.7539H76.2528C75.3775 21.4767 74.4012 24.1713 73.3218 26.8395C73.152 27.0659 72.9155 27.2014 72.6143 27.2438C54.3528 30.4781 36.0914 33.7123 17.834 36.9466C18.5253 33.961 19.4026 31.0299 20.4618 28.1535C38.8749 24.9475 57.2697 21.8143 75.6464 18.7539Z" fill="#9D729E"/>
<path fill-rule="evenodd" clip-rule="evenodd" d="M88.381 62.4141C88.5831 70.1965 88.6498 78.0113 88.5831 85.8624V86.0646C80.6794 88.0577 72.7959 90.1458 64.9326 92.3309C55.4037 86.1838 45.9697 79.8831 36.6328 73.4308C53.8694 69.6952 71.1181 66.0223 88.381 62.4141Z" fill="#956B98"/>
<path fill-rule="evenodd" clip-rule="evenodd" d="M91.4121 62.6191C101.062 67.4786 110.63 72.4978 120.116 77.6787C110.599 80.2559 101.066 82.7827 91.5132 85.2589C91.2969 85.2529 91.1291 85.1862 91.0078 85.0568C91.1432 77.5978 91.2787 70.1186 91.4121 62.6191Z" fill="#956B98"/>
<path fill-rule="evenodd" clip-rule="evenodd" d="M88.3809 62.4204C88.5163 62.1515 88.6497 62.1515 88.7851 62.4204C88.8518 70.2715 88.7851 78.0863 88.583 85.8687C88.6497 78.0176 88.583 70.2028 88.3809 62.4204Z" fill="#9B8497"/>
<path fill-rule="evenodd" clip-rule="evenodd" d="M91.4132 62.6191C91.2798 70.1186 91.1444 77.5978 91.009 85.0568C90.8755 77.5068 91.009 70.0276 91.4132 62.6191Z" fill="#AC93B0"/>
<path fill-rule="evenodd" clip-rule="evenodd" d="M88.7705 62.4141C88.9059 66.3214 88.9726 70.2632 88.9726 74.2393C88.9726 78.2154 88.8372 82.1915 88.5684 86.0646V85.8624C88.7705 78.08 88.8372 70.2652 88.7705 62.4141Z" fill="#1B1115"/>
<path fill-rule="evenodd" clip-rule="evenodd" d="M125.152 82.0234C127.105 84.3824 128.991 86.8081 130.812 89.3005C130.638 89.5188 130.436 89.5532 130.206 89.4016C129.003 88.9346 127.859 88.3626 126.769 87.6834C126.106 85.8277 125.567 83.9418 125.152 82.0234Z" fill="#916996"/>
<path fill-rule="evenodd" clip-rule="evenodd" d="M33.3961 74.5439C33.6084 74.5136 33.8105 74.5479 34.0026 74.645C43.2465 80.9902 52.545 87.2565 61.8981 93.4441C58.3626 97.4505 54.7584 101.392 51.0835 105.269C41.9386 98.7927 32.8099 92.2899 23.6934 85.7627C26.8953 81.9887 30.1295 78.2491 33.3961 74.5439Z" fill="#B78AB3"/>
<path fill-rule="evenodd" clip-rule="evenodd" d="M126.385 94.455C126.332 94.7239 126.199 94.926 125.98 95.0614C108.291 100.149 90.6035 105.237 72.9182 110.323C72.5079 110.117 72.239 109.779 72.1096 109.312C69.9285 104.344 67.806 99.3569 65.7422 94.354C73.2295 92.4983 80.7087 90.6123 88.1799 88.694C99.5099 85.6498 110.864 82.6176 122.241 79.5977C123.171 82.3084 123.947 85.0696 124.565 87.8854C125.244 90.0302 125.851 92.2193 126.385 94.455Z" fill="#B789B2"/>
<path fill-rule="evenodd" clip-rule="evenodd" d="M63.3078 95.7695C63.3421 112.278 63.3078 128.785 63.2067 145.294C62.855 145.039 62.4851 144.837 62.0949 144.688C53.134 137.815 44.1711 130.942 35.2101 124.069C34.8362 123.76 34.4642 123.422 34.0984 123.059C33.9973 114.031 33.9629 105.001 33.9973 95.9717C39.6916 100.065 45.4183 104.108 51.1793 108.1C52.5781 107.005 53.892 105.792 55.1211 104.462C57.755 101.458 60.4839 98.5611 63.3078 95.7695Z" fill="#966B99"/>
<path fill-rule="evenodd" clip-rule="evenodd" d="M34.0045 95.9785C33.9701 105.008 34.0045 114.038 34.1056 123.065C34.4714 123.429 34.8434 123.767 35.2173 124.076C34.6412 124.03 34.2026 123.759 33.9034 123.268C33.7356 114.137 33.77 105.04 34.0045 95.9785Z" fill="#100D04"/>
<path fill-rule="evenodd" clip-rule="evenodd" d="M122.341 98.8008L122.139 129.526C107.849 133.907 93.5641 138.287 79.2849 142.665C78.4763 143.088 77.6011 143.357 76.6571 143.474C73.0488 144.721 69.4103 145.934 65.7414 147.112C65.5049 131.481 65.4726 115.849 65.6404 100.216C67.4819 104.406 69.4022 108.55 71.4014 112.647C71.65 112.805 71.9189 112.906 72.2099 112.951C75.2906 111.99 107.9 103.222 122.341 98.8008Z" fill="#B68AB2"/>
<path fill-rule="evenodd" clip-rule="evenodd" d="M122.327 98.8076V129.533H122.125V99.0098H120.912C121.244 98.8319 121.614 98.6964 122.024 98.6055C122.18 98.6196 122.281 98.6863 122.327 98.8076Z" fill="#907C88"/>
<path fill-rule="evenodd" clip-rule="evenodd" d="M120.928 99.0039H122.14V102.642C107.7 107.063 93.2141 111.341 78.6801 115.478C77.7664 115.806 76.8891 116.176 76.0523 116.59C74.6959 117.085 74.043 115.656 73.8287 115.175C73.6144 114.694 73.291 112.62 73.291 112.62L74.7262 112.19L75.9593 111.83L81.5101 110.326C81.5101 110.326 107.734 102.618 120.928 99.0059V99.0039Z" fill="#9C719D"/>
<path fill-rule="evenodd" clip-rule="evenodd" d="M62.1094 144.688C62.4995 144.837 62.8694 145.039 63.2212 145.294C63.3222 128.785 63.3566 112.278 63.3222 95.7695C63.5911 112.135 63.5911 128.777 63.3222 145.698C62.829 145.454 62.4247 145.116 62.1094 144.688Z" fill="#9F849B"/>
<path opacity="0.15" fill-rule="evenodd" clip-rule="evenodd" d="M32.5913 124.881C43.2866 132.956 53.8667 141.177 64.3275 149.542C61.1478 150.767 57.9135 151.879 54.6247 152.877C53.9576 153.079 53.2845 153.146 52.6033 153.079C41.5583 144.497 30.576 135.871 19.6543 127.205C19.4178 126.801 19.1469 126.431 18.8457 126.094C18.8518 125.784 18.9872 125.548 19.25 125.386C23.3191 124.117 27.4306 123.005 31.5806 122.051C31.5483 122.728 31.5806 123.401 31.6817 124.072C31.8333 124.527 32.1365 124.796 32.5913 124.881Z" fill="#511B72"/>
<path fill-rule="evenodd" clip-rule="evenodd" d="M122.34 98.7996C122.489 98.7733 122.625 98.8077 122.744 98.9006C122.611 109.129 122.475 119.337 122.34 129.525V98.7996Z" fill="#1D1813"/>
</g>
</g>
<defs>
<clipPath id="clip0_2006_20319">
<rect width="150" height="150" fill="white"/>
</clipPath>
</defs>
</svg>
