<svg width="305" height="314" viewBox="0 0 305 314" fill="none" xmlns="http://www.w3.org/2000/svg">
<path opacity="0.996" fill-rule="evenodd" clip-rule="evenodd" d="M120.667 52.9294C120.462 53.0522 120.286 53.2169 120.138 53.4237C117.583 56.9637 115.114 60.565 112.733 64.2277C112.426 64.7031 112.085 65.1503 111.711 65.5694C109.647 62.1963 107.402 58.9481 104.976 55.8246C103.994 54.6058 102.96 53.4288 101.873 52.2939C100.051 50.4697 98.229 48.6454 96.4071 46.8212C94.3478 45.0841 91.997 43.9072 89.3548 43.2905C87.9176 42.933 86.4601 42.6976 84.9824 42.5844C84.2922 42.4683 83.6927 42.1741 83.184 41.7017C82.9868 41.3663 82.9515 41.0133 83.0783 40.6425C83.2248 40.4623 83.4128 40.3329 83.6424 40.2541C84.6731 39.85 85.7428 39.6734 86.8513 39.7245C87.5217 39.7417 88.1917 39.7652 88.8612 39.7951C89.4441 39.8887 90.0553 39.9946 90.6948 40.1129C90.9063 40.16 91.1179 40.16 91.3295 40.1129C91.4183 39.9848 91.4183 39.8553 91.3295 39.7245C90.8002 39.2353 90.189 38.8705 89.4959 38.63C88.0939 38.2013 86.707 37.7306 85.335 37.2177C84.9238 37.0001 84.5241 36.7647 84.1361 36.5115C83.8599 36.2 83.5778 35.9057 83.2898 35.6289C83.8935 34.9025 84.6693 34.4671 85.6171 34.3225C86.9525 34.1327 88.2924 34.0974 89.6369 34.2166C90.7381 34.4305 91.8312 34.7129 92.9162 35.0639C93.209 35.0674 93.303 34.9262 93.1983 34.6403C92.7648 33.9716 92.1654 33.5126 91.4 33.2633C90.0551 32.8503 88.7152 32.4266 87.3802 31.9922C86.2524 31.6338 85.2768 31.0336 84.4535 30.1915C84.3739 30.0613 84.3387 29.92 84.3477 29.7679C85.1561 29.0854 86.0964 28.6971 87.1686 28.6027C87.8973 28.5556 88.6261 28.5556 89.3548 28.6027C90.5611 28.7334 91.76 28.91 92.9515 29.1323C92.9756 29.1915 93.0226 29.2151 93.0925 29.2029C94.0381 29.6176 94.9902 30.0413 95.9487 30.474C96.1422 30.4802 96.2245 30.3861 96.1956 30.1915C96.0071 29.5207 95.6075 29.0146 94.9967 28.6733C93.6582 28.0507 92.3888 27.3211 91.1884 26.4843C90.7974 26.2104 90.48 25.8692 90.2364 25.4604C90.1971 25.292 90.2089 25.1272 90.2716 24.9661C90.5398 24.6783 90.8689 24.4782 91.2589 24.3659C92.3786 24.0666 93.507 24.0431 94.6441 24.2952C98.3122 25.1723 101.545 26.8552 104.341 29.3442C104.368 29.3049 104.403 29.2814 104.447 29.2736C104.376 29.7222 104.294 30.1694 104.2 30.6152C104.155 31.1347 104.167 31.6525 104.235 32.1687C104.415 32.1967 104.567 32.1496 104.694 32.0275C105.318 29.8368 106.211 27.7654 107.373 25.8135C107.77 25.2519 108.193 24.7105 108.643 24.1893C109.147 23.6714 109.7 23.2242 110.3 22.8476C112.031 22.6155 112.842 23.3688 112.733 25.1073C112.163 26.4135 111.693 27.7551 111.323 29.1323C110.633 31.9396 110.727 34.7172 111.605 37.4648C111.774 37.8735 111.962 38.2736 112.169 38.6653C115.02 43.4103 117.853 48.165 120.667 52.9294Z" fill="#EFD1BD"/>
<path opacity="0.996" fill-rule="evenodd" clip-rule="evenodd" d="M196.55 22.8454C197.821 23.659 198.844 24.7182 199.618 26.023C200.716 27.9163 201.562 29.9171 202.157 32.0252C202.28 32.1488 202.433 32.1959 202.615 32.1665C202.749 31.2325 202.679 30.3145 202.404 29.4125C202.412 29.3697 202.436 29.3461 202.474 29.3419C204.857 27.3123 207.537 25.7706 210.514 24.7167C211.866 24.2709 213.254 24.0826 214.675 24.1517C215.5 24.224 216.205 24.5418 216.79 25.105C216.559 25.669 216.183 26.128 215.662 26.482C214.516 27.2559 213.317 27.9385 212.065 28.5298C211.352 28.8787 210.882 29.4319 210.655 30.1893C210.656 30.3564 210.738 30.4505 210.902 30.4717C211.845 30.0171 212.797 29.5934 213.758 29.2007C213.828 29.2128 213.875 29.1892 213.899 29.1301C215.091 28.9077 216.29 28.7312 217.496 28.6004C219.115 28.3702 220.642 28.6291 222.08 29.3772C222.229 29.4513 222.346 29.5572 222.432 29.695C222.536 29.8664 222.525 30.0311 222.397 30.1893C221.669 30.9416 220.811 31.4948 219.823 31.8487C218.336 32.309 216.855 32.7798 215.38 33.261C214.656 33.5387 214.08 33.9977 213.652 34.638C213.548 34.9239 213.642 35.0651 213.934 35.0617C214.587 34.8884 215.233 34.6883 215.874 34.4614C216.318 34.3637 216.765 34.2813 217.214 34.2143C218.68 34.0781 220.137 34.1369 221.586 34.3908C222.362 34.5667 222.997 34.9551 223.49 35.556C223.281 35.8674 223.046 36.1616 222.785 36.4387C222.276 36.7993 221.736 37.1053 221.163 37.3566C219.532 37.838 217.934 38.4029 216.367 39.0514C216.056 39.2217 215.785 39.4453 215.556 39.7222C215.521 39.8615 215.51 40.0028 215.521 40.1459C216.345 40.0372 217.168 39.9195 217.989 39.7928C219.237 39.6954 220.483 39.7072 221.727 39.8281C222.543 39.9315 223.271 40.2258 223.913 40.7108C223.844 40.7328 223.798 40.7799 223.772 40.8521C223.839 40.9621 223.886 41.0799 223.913 41.2051C223.832 41.3673 223.75 41.5321 223.666 41.6994C223.059 42.2438 222.341 42.538 221.515 42.5821C218.315 42.8417 215.307 43.7361 212.489 45.2655C211.81 45.7326 211.152 46.2269 210.514 46.7484C208.645 48.6196 206.776 50.4909 204.907 52.3622C201.181 56.4361 197.937 60.8613 195.175 65.6377C193.212 62.8376 191.285 60.0131 189.392 57.164C188.569 56.0106 187.747 54.8572 186.924 53.7039C186.71 53.4314 186.487 53.1724 186.254 52.9271C189.073 48.0824 191.929 43.2571 194.822 38.4512C195.878 36.1094 196.231 33.6615 195.88 31.1073C195.623 29.0863 195.059 27.1562 194.188 25.3169C193.871 23.9375 194.4 23.1019 195.775 22.8101C196.037 22.7622 196.296 22.774 196.55 22.8454Z" fill="#F0D1BD"/>
<path opacity="0.95" fill-rule="evenodd" clip-rule="evenodd" d="M196.551 22.8457C197.005 22.9072 197.428 23.0602 197.82 23.3047C199.206 24.3865 200.37 25.6693 201.311 27.1532C201.737 27.8646 202.125 28.5943 202.475 29.3422C202.437 29.3465 202.413 29.37 202.404 29.4128C202.679 30.3149 202.75 31.2329 202.616 32.1668C202.434 32.1963 202.281 32.1492 202.157 32.0256C201.563 29.9174 200.717 27.9167 199.619 26.0234C198.844 24.7185 197.822 23.6593 196.551 22.8457Z" fill="#DBB29E"/>
<path opacity="0.956" fill-rule="evenodd" clip-rule="evenodd" d="M110.301 22.8457C109.7 23.2222 109.148 23.6694 108.643 24.1874C108.193 24.7085 107.77 25.2499 107.374 25.8115C106.211 27.7634 105.318 29.8348 104.694 32.0256C104.568 32.1477 104.415 32.1948 104.236 32.1668C104.167 31.6505 104.156 31.1327 104.2 30.6133C104.294 30.1674 104.377 29.7202 104.447 29.2716C105.485 26.8329 107.06 24.8204 109.172 23.2341C109.529 23.0433 109.906 22.9138 110.301 22.8457Z" fill="#DBB29E"/>
<path opacity="0.981" fill-rule="evenodd" clip-rule="evenodd" d="M216.79 25.1055C217.341 25.7753 217.424 26.505 217.037 27.2945C216.858 27.4973 216.658 27.6739 216.437 27.8241C215.575 28.2436 214.729 28.6791 213.898 29.1305C213.829 29.1183 213.781 29.1419 213.757 29.2011C212.796 29.5939 211.844 30.0175 210.901 30.4722C210.738 30.451 210.655 30.3569 210.654 30.1897C210.881 29.4324 211.352 28.8792 212.065 28.5303C213.317 27.9389 214.515 27.2564 215.661 26.4824C216.183 26.1284 216.558 25.6694 216.79 25.1055Z" fill="#DAB29D"/>
<path opacity="0.982" fill-rule="evenodd" clip-rule="evenodd" d="M90.2708 24.9648C90.208 25.126 90.1963 25.2907 90.2355 25.4591C90.4792 25.8679 90.7966 26.2092 91.1876 26.4831C92.388 27.3198 93.6574 28.0495 94.9959 28.6721C95.6067 29.0134 96.0063 29.5195 96.1948 30.1903C96.2237 30.3849 96.1414 30.479 95.9479 30.4728C94.9894 30.04 94.0373 29.6164 93.0917 29.2017C93.0676 29.1425 93.0206 29.1189 92.9507 29.1311C92.0035 28.645 91.0632 28.139 90.1298 27.6129C89.4807 26.9134 89.3984 26.1484 89.8829 25.3179C90.0031 25.1857 90.1324 25.0679 90.2708 24.9648Z" fill="#DAB29E"/>
<path opacity="0.99" fill-rule="evenodd" clip-rule="evenodd" d="M222.431 29.6973C223.244 30.3749 223.338 31.1399 222.713 31.9922C222.239 32.3475 221.721 32.63 221.161 32.8396C219.845 33.3222 218.528 33.7812 217.212 34.2166C216.763 34.2836 216.316 34.366 215.872 34.4637C215.232 34.6906 214.586 34.8907 213.933 35.064C213.64 35.0674 213.546 34.9262 213.651 34.6403C214.079 33.9999 214.655 33.5409 215.378 33.2633C216.854 32.7821 218.335 32.3113 219.821 31.851C220.809 31.4971 221.667 30.9439 222.395 30.1916C222.523 30.0334 222.534 29.8686 222.431 29.6973Z" fill="#DAB29D"/>
<path opacity="0.988" fill-rule="evenodd" clip-rule="evenodd" d="M84.3491 29.7656C84.3401 29.9178 84.3753 30.059 84.4549 30.1893C85.2782 31.0314 86.2538 31.6316 87.3816 31.99C88.7166 32.4243 90.0565 32.848 91.4014 33.261C92.1668 33.5104 92.7662 33.9694 93.1997 34.638C93.3044 34.9239 93.2104 35.0652 92.9177 35.0617C91.8327 34.7107 90.7395 34.4282 89.6383 34.2143C88.4444 33.8119 87.2455 33.3999 86.0416 32.9786C85.3759 32.7042 84.7412 32.3746 84.1375 31.99C83.5369 31.1869 83.6074 30.4454 84.3491 29.7656Z" fill="#DAB29D"/>
<path opacity="0.984" fill-rule="evenodd" clip-rule="evenodd" d="M83.2905 35.627C83.5785 35.9038 83.8606 36.1981 84.1368 36.5096C84.5248 36.7628 84.9245 36.9982 85.3357 37.2158C86.7077 37.7287 88.0946 38.1994 89.4965 38.6281C90.1896 38.8686 90.8009 39.2334 91.3301 39.7226C91.419 39.8534 91.419 39.9829 91.3301 40.111C91.1186 40.1581 90.907 40.1581 90.6954 40.111C90.056 39.9927 89.4448 39.8868 88.8618 39.7932C87.6618 39.3807 86.4629 38.9453 85.2652 38.4868C84.5034 38.2172 83.8335 37.8053 83.2552 37.2511C83.0131 36.7021 83.0248 36.1607 83.2905 35.627Z" fill="#DAB29E"/>
<path opacity="0.983" fill-rule="evenodd" clip-rule="evenodd" d="M223.489 35.5566C224.014 36.3236 223.92 37.018 223.207 37.6398C222.697 37.9773 222.157 38.2598 221.585 38.4871C220.387 38.9456 219.188 39.381 217.988 39.7935C217.167 39.9202 216.344 40.0379 215.52 40.1466C215.509 40.0034 215.52 39.8622 215.555 39.7229C215.784 39.4459 216.054 39.2224 216.366 39.0521C217.932 38.4036 219.531 37.8387 221.162 37.3573C221.734 37.1059 222.275 36.7999 222.784 36.4393C223.045 36.1623 223.28 35.8681 223.489 35.5566Z" fill="#DAB39E"/>
<path opacity="0.999" fill-rule="evenodd" clip-rule="evenodd" d="M223.912 40.7129C224.4 41.3728 224.459 42.0789 224.088 42.8313C223.628 43.3623 223.052 43.7036 222.36 43.8552C220.518 44.3812 218.661 44.852 216.789 45.2675C215.478 45.7586 214.302 46.4648 213.263 47.386C212.125 48.3604 211.056 49.4079 210.054 50.5283C207.682 53.3267 205.472 56.2455 203.425 59.2845C200.938 62.9693 198.576 66.7354 196.337 70.5828C196.294 70.5906 196.258 70.6141 196.232 70.6534C192.816 64.8727 189.419 59.0823 186.041 53.2823C186.059 53.1287 186.129 53.011 186.253 52.9292C186.485 53.1745 186.709 53.4334 186.923 53.7059C187.746 54.8593 188.568 56.0127 189.391 57.166C191.284 60.0151 193.211 62.8397 195.174 65.6398C197.935 60.8633 201.18 56.4382 204.906 52.3643C206.775 50.493 208.644 48.6217 210.513 46.7504C211.151 46.2289 211.809 45.7346 212.487 45.2675C215.305 43.7382 218.314 42.8438 221.514 42.5842C222.34 42.5401 223.057 42.2459 223.665 41.7015C223.748 41.5341 223.831 41.3694 223.912 41.2072C223.884 41.0819 223.838 40.9642 223.771 40.8541C223.796 40.782 223.843 40.7349 223.912 40.7129Z" fill="#DAB19D"/>
<path opacity="0.999" fill-rule="evenodd" clip-rule="evenodd" d="M83.0778 40.6406C82.9511 41.0114 82.9864 41.3645 83.1836 41.6998C83.6923 42.1723 84.2918 42.4664 84.982 42.5825C86.4596 42.6957 87.9171 42.9311 89.3544 43.2887C91.9966 43.9053 94.3474 45.0823 96.4067 46.8194C98.2285 48.6436 100.05 50.4678 101.872 52.292C102.959 53.427 103.993 54.6039 104.975 55.8227C107.401 58.9462 109.646 62.1945 111.71 65.5675C112.084 65.1484 112.425 64.7012 112.733 64.2258C115.114 60.5631 117.582 56.9618 120.138 53.4218C120.285 53.2151 120.461 53.0503 120.667 52.9275C120.714 53.0217 120.76 53.1159 120.808 53.21C117.565 58.8082 114.321 64.4103 111.076 70.0162C110.927 70.2457 110.762 70.4576 110.582 70.6518C107.243 64.9208 103.611 59.3894 99.686 54.0574C97.6881 51.3505 95.3961 48.9143 92.81 46.7488C91.905 46.0837 90.9177 45.5659 89.8481 45.1953C88.0446 44.8144 86.2581 44.3672 84.4883 43.8536C83.7285 43.7033 83.129 43.3149 82.69 42.6884C82.4549 42.147 82.4549 41.6057 82.69 41.0643C82.7718 40.8747 82.9011 40.7335 83.0778 40.6406Z" fill="#DAB19D"/>
<path opacity="0.997" fill-rule="evenodd" clip-rule="evenodd" d="M177.931 66.9098C177.569 67.7416 177.122 68.5184 176.591 69.2401C176.259 68.1162 175.67 67.1394 174.828 66.3096C174.476 66.2627 174.347 66.4156 174.44 66.7686C175.445 67.6499 175.997 68.7562 176.098 70.0874C175.715 70.7822 174.899 72.1353 174.899 72.1353L174.264 73.1945L169.045 82.0213C169.045 82.0213 169.023 82.2697 167.988 83.716C167.854 82.9936 167.654 82.2875 167.388 81.5976C167.076 81.0433 166.782 80.4784 166.507 79.9029C167.884 78.7215 168.578 77.2153 168.587 75.3835C170.392 73.9348 171.285 72.0518 171.267 69.7344C171.17 69.0909 170.875 68.573 170.385 68.1809C169.598 67.0938 168.54 66.6701 167.212 66.9098C167.289 66.8465 167.289 66.7876 167.212 66.7333C165.31 66.3931 163.523 65.7341 161.852 64.7561C159.179 63.2577 156.793 61.3864 154.694 59.1422C154.33 58.6961 154.001 58.2254 153.707 57.7299C153.492 57.6264 153.293 57.6499 153.107 57.8005C152.252 59.074 151.242 60.2155 150.075 61.2253C147.453 63.4719 144.514 65.1902 141.259 66.3802C140.754 66.542 140.237 66.6361 139.708 66.6626C139.646 66.7126 139.598 66.7715 139.567 66.8392C138.227 66.6631 137.192 67.1339 136.464 68.2515C136.283 68.3251 136.131 68.4428 136.005 68.6045C135.849 68.8708 135.731 69.1533 135.653 69.4519C135.483 71.2259 135.954 72.803 137.063 74.1831C137.416 74.6303 137.816 75.0305 138.262 75.3835C138.273 77.2379 138.989 78.7441 140.413 79.9029C139.622 81.0616 139.106 82.3327 138.862 83.716C138.601 83.3601 138.156 82.5862 138.156 82.5862L137.874 82.0919L132.585 73.1945L131.889 72.3014C131.889 72.3014 131.117 70.7725 130.751 70.0874C130.879 68.7705 131.431 67.6642 132.409 66.7686C132.5 66.4007 132.37 66.2594 132.021 66.3449C131.519 66.8594 131.084 67.4244 130.716 68.0396C130.508 68.4407 130.379 68.8644 130.328 69.3107C129.792 68.5899 129.345 67.8131 128.988 66.9804C129.567 65.7538 130.484 64.8712 131.739 64.3324C131.966 64.2369 132.201 64.178 132.444 64.1558C132.332 58.9078 134.26 54.5886 138.227 51.1981C142.858 47.6539 147.924 46.8653 153.425 48.8325C159.192 46.7958 164.423 47.7255 169.116 51.6218C172.785 54.9801 174.548 59.1581 174.405 64.1558C176.003 64.5384 177.143 65.4799 177.826 66.9804C177.852 66.9411 177.888 66.9176 177.931 66.9098Z" fill="#6C2912"/>
<path opacity="0.995" fill-rule="evenodd" clip-rule="evenodd" d="M120.809 53.2109C122.97 56.8333 125.133 60.4582 127.297 64.0856C123.66 70.4033 120.04 76.7354 116.436 83.0808C113.827 80.1969 111.253 77.2777 108.714 74.3247C108.668 74.1062 108.692 73.8943 108.785 73.6891C109.386 72.6725 109.985 71.6604 110.583 70.6527C110.763 70.4585 110.928 70.2467 111.077 70.0172C114.322 64.4112 117.566 58.8091 120.809 53.2109Z" fill="#F0EBE8"/>
<path fill-rule="evenodd" clip-rule="evenodd" d="M137.029 53.2816C138.257 53.2751 139.48 53.3575 140.696 53.5288C141.354 53.7985 141.495 54.234 141.119 54.8351C141.004 54.962 140.863 55.0444 140.696 55.0823C139.722 55.0289 138.746 54.9701 137.769 54.9057C137.058 54.8781 136.365 54.9722 135.689 55.1882C135.625 55.0971 135.637 55.003 135.724 54.9057C136.126 54.3364 136.561 53.795 137.029 53.2816Z" fill="#AA4C2B"/>
<path fill-rule="evenodd" clip-rule="evenodd" d="M167.072 53.3521C168.012 53.3403 168.953 53.3521 169.893 53.3874C170.399 53.9194 170.845 54.4961 171.233 55.1174C170.828 55.152 170.428 55.0931 170.034 54.9409C168.815 54.8574 167.604 54.9163 166.402 55.1174C166.222 55.0989 166.046 55.0636 165.873 55.0115C165.347 54.4266 165.418 53.9323 166.084 53.5286C166.424 53.4719 166.753 53.413 167.072 53.3521Z" fill="#AA4C2B"/>
<path opacity="0.995" fill-rule="evenodd" clip-rule="evenodd" d="M186.041 53.2812C189.419 59.0813 192.816 64.8717 196.231 70.6524C196.258 70.6131 196.293 70.5896 196.337 70.5818C196.336 70.7095 196.372 70.8272 196.443 70.9349C197.025 71.8883 197.589 72.8534 198.135 73.83C198.183 74.0419 198.183 74.2537 198.135 74.4656C195.544 77.3297 192.97 80.2016 190.413 83.0805C186.799 76.7627 183.203 70.4307 179.623 64.0853C181.709 60.4483 183.848 56.847 186.041 53.2812Z" fill="#F0EBE8"/>
<path fill-rule="evenodd" clip-rule="evenodd" d="M142.952 53.918C143.457 53.9178 143.845 54.1297 144.115 54.5535C144.164 55.3993 143.776 55.7406 142.952 55.5774C142.46 55.3339 142.284 54.9455 142.423 54.4123C142.548 54.1812 142.724 54.0165 142.952 53.918Z" fill="#A94B2B"/>
<path fill-rule="evenodd" clip-rule="evenodd" d="M163.475 53.918C164.354 53.9596 164.648 54.3832 164.357 55.189C163.601 55.944 163.048 55.8263 162.699 54.836C162.718 54.6574 162.777 54.4927 162.876 54.3417C163.069 54.1826 163.268 54.0414 163.475 53.918Z" fill="#A94B2B"/>
<path fill-rule="evenodd" clip-rule="evenodd" d="M167.211 66.9111C166.908 66.9724 166.602 66.9841 166.295 66.9464C162.595 66.0714 159.374 64.3296 156.633 61.7209C155.578 60.6417 154.603 59.5001 153.706 58.2961C153.56 58.1445 153.395 58.1209 153.213 58.2255C150.581 61.9971 147.114 64.6922 142.81 66.3109C142.043 66.5559 141.267 66.7678 140.483 66.9464C140.158 67.0057 139.852 66.9704 139.566 66.8405C139.598 66.7728 139.645 66.714 139.707 66.664C140.236 66.6374 140.754 66.5433 141.259 66.3815C144.514 65.1915 147.452 63.4732 150.074 61.2266C151.242 60.2169 152.252 59.0753 153.107 57.8018C153.292 57.6512 153.492 57.6277 153.706 57.7312C154 58.2267 154.33 58.6975 154.694 59.1435C156.793 61.3877 159.179 63.259 161.852 64.7574C163.522 65.7354 165.309 66.3944 167.211 66.7346C167.289 66.7889 167.289 66.8478 167.211 66.9111Z" fill="#532312"/>
<path fill-rule="evenodd" clip-rule="evenodd" d="M167.213 66.9098C168.541 66.6701 169.599 67.0938 170.387 68.1809C171.26 71.052 170.509 73.4175 168.13 75.2776C167.551 75.673 166.916 75.9322 166.226 76.0544C165.013 78.9397 162.968 81.0115 160.09 82.2684C159.61 82.4718 159.116 82.625 158.609 82.7274C158.586 83.7753 158.609 84.8113 158.68 85.8345C158.609 85.8818 158.539 85.9284 158.468 85.9757C156.797 87.1655 155.117 88.3427 153.426 89.5064C151.73 88.313 150.025 87.1366 148.313 85.9757C148.313 85.9524 148.313 85.9284 148.313 85.9051C148.336 85.1156 148.312 84.3388 148.242 83.5748C148.242 83.2923 148.242 83.0099 148.242 82.7274C147.402 82.5523 146.602 82.2585 145.845 81.8447C143.663 80.6648 142.029 78.958 140.943 76.7252C140.863 76.5183 140.804 76.3065 140.767 76.0897C139.459 75.8637 138.389 75.2282 137.558 74.1831C136.44 72.8033 135.947 71.2263 136.077 69.4519C136.129 69.0246 136.258 68.6245 136.465 68.2515C137.193 67.1339 138.228 66.6631 139.568 66.8392C139.854 66.9691 140.16 67.0044 140.485 66.9451C141.269 66.7664 142.045 66.5546 142.812 66.3096C147.115 64.6909 150.582 61.9958 153.214 58.2242C153.397 58.1196 153.562 58.1432 153.708 58.2948C154.604 59.4988 155.58 60.6404 156.635 61.7196C159.376 64.3283 162.597 66.0701 166.296 66.9451C166.604 66.9828 166.909 66.9711 167.213 66.9098Z" fill="#D8AF9B"/>
<path fill-rule="evenodd" clip-rule="evenodd" d="M153.39 59.4961C155.728 62.7184 158.713 65.1546 162.346 66.8047C163.483 67.3041 164.67 67.5747 165.908 67.6168C166.551 67.6058 167.186 67.5352 167.812 67.4049C168.901 67.3854 169.654 67.8797 170.069 68.8878C170.108 70.8791 169.473 72.621 168.165 74.1133C167.48 74.7559 166.669 75.1209 165.731 75.2078C165.649 75.2904 165.567 75.3723 165.485 75.455C165.039 76.4421 164.522 77.3834 163.933 78.2795C162.843 79.5259 161.561 80.5258 160.09 81.2806C159.408 81.5631 158.703 81.7749 157.974 81.9162C157.825 81.9967 157.696 82.1026 157.586 82.2339C157.482 83.428 157.447 84.6285 157.48 85.8353C157.098 85.9913 156.722 86.1679 156.352 86.3649C155.381 86.951 154.405 87.5279 153.425 88.0949C152.084 87.3175 150.744 86.5407 149.405 85.7647C149.403 84.5812 149.356 83.4047 149.264 82.2339C149.142 82.0842 148.989 81.9783 148.806 81.9162C147.73 81.7192 146.719 81.3421 145.773 80.7863C144.73 80.0576 143.778 79.2215 142.917 78.2795C142.321 77.3439 141.78 76.3793 141.295 75.3843C141.237 75.3257 141.177 75.2664 141.119 75.2078C139.952 75.1358 139.024 74.6295 138.333 73.6896C137.196 72.2296 136.703 70.5819 136.852 68.7466C137.562 67.4799 138.608 67.0915 139.991 67.5814C141.938 67.5236 143.795 67.0763 145.562 66.2398C148.257 64.9208 150.573 63.1201 152.508 60.8378C152.838 60.4107 153.133 59.9635 153.39 59.4961Z" fill="#EFD1BD"/>
<path opacity="0.999" fill-rule="evenodd" clip-rule="evenodd" d="M127.296 64.0859C127.432 64.2864 127.549 64.4983 127.649 64.7215C125.077 69.2464 122.515 73.7775 119.962 78.3147C122.939 82.6385 126.054 86.8633 129.306 90.99C131.578 93.6663 133.93 96.2791 136.358 98.8282C137.15 94.8498 138.42 91.0366 140.167 87.3887C140.285 87.0907 140.368 86.7849 140.413 86.4707C140.6 86.7285 140.788 86.9876 140.978 87.2475C141.964 86.9516 142.504 87.3047 142.6 88.3067C143.255 88.5567 143.913 88.7918 144.574 89.0128C144.564 88.9387 144.576 88.8681 144.61 88.801C145.585 87.7298 146.561 86.6593 147.536 85.588C147.756 85.545 147.944 85.6036 148.1 85.7646C148.134 85.8641 148.204 85.9107 148.312 85.9058C148.312 85.9291 148.312 85.9531 148.312 85.9764C147.262 87.3484 146.227 88.7374 145.209 90.1427C146.554 92.283 148.012 94.3421 149.581 96.3214C149.722 96.3687 149.864 96.3687 150.005 96.3214C150.256 95.9225 150.514 95.5341 150.78 95.1563C151.003 95.5687 151.309 95.9217 151.697 96.2155C151.741 96.8221 151.67 97.4103 151.486 97.9809C151.497 97.7909 151.486 97.6031 151.45 97.4159C151.214 97.1674 150.967 96.9322 150.71 96.7098C150.428 96.945 150.169 97.2041 149.934 97.4866C149.823 97.5664 149.706 97.5784 149.581 97.5219C147.728 94.96 145.93 92.3585 144.186 89.719C144.055 89.5629 143.901 89.4337 143.728 89.3306C143.184 89.1371 142.644 88.9373 142.106 88.7304C142.053 88.4988 142.018 88.2636 142 88.0242C141.738 87.6041 141.408 87.5568 141.013 87.883C139.988 91.0938 139.095 94.3421 138.333 97.6278C138.123 98.6559 137.958 99.6918 137.839 100.735C137.674 102.62 137.487 104.504 137.275 106.384C137.32 109.331 137.484 112.274 137.769 115.211C138.407 118.054 139.782 120.467 141.894 122.449C142.857 123.254 143.95 123.807 145.174 124.108C148.318 123.369 151.503 123.051 154.73 123.155C155.976 123.262 157.223 123.38 158.467 123.508C159.551 123.711 160.632 123.912 161.711 124.108C163.485 123.579 164.977 122.614 166.19 121.213C167.532 119.539 168.472 117.657 169.011 115.564C169.225 113.354 169.413 111.142 169.575 108.926C169.622 108.031 169.622 107.137 169.575 106.243C169.367 103.86 169.108 101.483 168.799 99.1107C168.022 95.366 167.058 91.6708 165.908 88.0242C165.762 87.8018 165.55 87.6839 165.273 87.6712C165.096 87.7058 164.955 87.7997 164.85 87.9536C164.826 88.1888 164.802 88.4246 164.779 88.6598C164.218 88.9097 163.643 89.1336 163.051 89.3306C162.185 90.4166 161.398 91.5585 160.689 92.7554C159.54 94.3379 158.4 95.9267 157.268 97.5219C157.175 97.5692 157.08 97.5692 156.986 97.5219C156.715 97.238 156.433 96.9675 156.14 96.7098C155.883 96.9322 155.636 97.1674 155.4 97.4159C155.364 97.5791 155.353 97.7436 155.364 97.9102C155.248 97.4414 155.154 96.9591 155.082 96.4627C155.342 96.0609 155.659 95.6958 156.034 95.3681C156.068 95.301 156.08 95.2304 156.07 95.1563C156.338 95.532 156.596 95.9203 156.845 96.3214C156.986 96.3687 157.127 96.3687 157.268 96.3214C158.831 94.347 160.288 92.2992 161.641 90.178C160.643 88.7318 159.585 87.3315 158.467 85.9764C158.538 85.9291 158.608 85.8825 158.679 85.8352C158.846 85.6339 159.058 85.5513 159.314 85.588C160.364 86.6988 161.375 87.8399 162.346 89.0128C162.955 88.7819 163.567 88.5581 164.18 88.342C164.263 87.9501 164.428 87.597 164.673 87.2828C164.852 87.2086 165.041 87.1733 165.238 87.1769C165.474 87.2044 165.71 87.2164 165.943 87.2122C166.098 86.9523 166.262 86.7052 166.436 86.4707C166.496 86.7567 166.579 87.0392 166.683 87.3181C168.417 90.9978 169.687 94.8343 170.492 98.8282C172.8 96.3751 175.057 93.8803 177.262 91.3431C180.635 87.119 183.844 82.7762 186.888 78.3147C184.352 73.7891 181.79 69.2816 179.201 64.7921C179.307 64.5327 179.448 64.2974 179.624 64.0859C183.204 70.4314 186.801 76.7633 190.414 83.0812C188.743 84.9659 187.074 86.8492 185.407 88.7304C185.238 88.7226 185.108 88.7932 185.019 88.9422C184.427 89.6173 183.851 90.3001 183.291 90.99C183.127 91.108 182.986 91.2492 182.868 91.4137C182.751 91.5521 182.634 91.6934 182.516 91.8374C182.347 91.9356 182.229 92.0768 182.163 92.2611C179.95 94.6415 177.787 97.0664 175.675 99.5344C173.972 101.436 172.267 103.343 170.562 105.254C170.812 107.482 170.989 109.718 171.091 111.963C171.118 113.683 171.071 115.401 170.95 117.117C170.752 119.272 170.224 121.344 169.363 123.331C168.741 124.651 167.813 125.686 166.577 126.438C165.556 125.823 164.451 125.411 163.263 125.203C161.142 124.766 159.002 124.472 156.845 124.32C156.624 124.262 156.389 124.227 156.14 124.214C154.33 124.167 152.52 124.167 150.71 124.214C149.823 124.23 148.953 124.313 148.1 124.461C145.849 124.684 143.639 125.119 141.471 125.768C141.03 125.987 140.583 126.187 140.131 126.368C139.164 125.764 138.4 124.964 137.839 123.967C136.619 121.6 135.961 119.081 135.865 116.411C135.761 114.529 135.737 112.646 135.794 110.762C135.948 108.923 136.113 107.087 136.288 105.254C134.622 103.353 132.941 101.47 131.245 99.605C129.109 97.1363 126.946 94.6881 124.757 92.2611C124.64 92.0966 124.498 91.9553 124.334 91.8374C124.242 91.6305 124.101 91.4653 123.911 91.3431C123.817 91.2019 123.699 91.084 123.558 90.99C122.94 90.2408 122.305 89.4994 121.654 88.7657C121.587 88.7318 121.517 88.7198 121.443 88.7304C119.776 86.8492 118.107 84.9659 116.436 83.0812C120.039 76.7358 123.659 70.4037 127.296 64.0859Z" fill="#CAC6C3"/>
<path fill-rule="evenodd" clip-rule="evenodd" d="M127.648 64.7207C128.094 65.4714 128.54 66.2246 128.988 66.9804C129.345 67.813 129.791 68.5898 130.328 69.3106C130.451 69.5814 130.592 69.8403 130.751 70.0874C131.116 70.7725 131.516 71.4315 131.95 72.0646C132.126 72.4646 132.338 72.8412 132.585 73.1944C134.348 76.1631 136.111 79.1289 137.874 82.0919C137.968 82.2564 138.062 82.4216 138.156 82.5862C138.365 82.983 138.601 83.3601 138.861 83.716C139.396 84.6227 139.913 85.5407 140.413 86.4699C140.367 86.7842 140.284 87.0899 140.166 87.3879C138.419 91.0359 137.15 94.8491 136.358 98.8275C133.929 96.2783 131.578 93.6656 129.305 90.9893C126.053 86.8626 122.938 82.6377 119.961 78.314C122.515 73.7767 125.077 69.2456 127.648 64.7207Z" fill="#F0EBE8"/>
<path fill-rule="evenodd" clip-rule="evenodd" d="M179.2 64.791C181.789 69.2805 184.351 73.7881 186.887 78.3137C183.843 82.7751 180.634 87.1179 177.261 91.342C175.056 93.8792 172.8 96.374 170.491 98.8272C169.686 94.8332 168.417 90.9967 166.682 87.317C166.578 87.0381 166.495 86.7556 166.436 86.4696C166.952 85.5517 167.47 84.6337 167.987 83.7157C168.226 83.3817 168.438 83.0286 168.622 82.6565C168.779 82.4594 168.92 82.2476 169.045 82.0209C170.785 79.0784 172.524 76.1366 174.264 73.1941C174.492 72.8553 174.704 72.5022 174.898 72.1349C175.316 71.4645 175.715 70.7819 176.097 70.0871C176.297 69.8284 176.462 69.5459 176.591 69.2397C177.121 68.518 177.568 67.7413 177.931 66.9094C178.319 66.1794 178.742 65.4732 179.2 64.791Z" fill="#F0EBE8"/>
<path fill-rule="evenodd" clip-rule="evenodd" d="M130.753 70.087C130.595 69.84 130.453 69.5811 130.33 69.3103C130.381 68.864 130.51 68.4403 130.718 68.0392C131.085 67.424 131.521 66.859 132.023 66.3445C132.372 66.259 132.501 66.4003 132.411 66.7682C131.433 67.6638 130.881 68.7701 130.753 70.087Z" fill="#A94B2B"/>
<path fill-rule="evenodd" clip-rule="evenodd" d="M176.593 69.2395C176.464 69.5457 176.299 69.8282 176.099 70.0869C175.998 68.7556 175.446 67.6494 174.442 66.768C174.348 66.4151 174.477 66.2621 174.83 66.309C175.672 67.1389 176.26 68.1157 176.593 69.2395Z" fill="#A94B2B"/>
<path fill-rule="evenodd" clip-rule="evenodd" d="M146.338 66.7693C147.519 66.7142 148.212 67.2791 148.418 68.464C148.612 69.4591 148.388 70.3418 147.748 71.1121C146.874 71.7315 146.133 71.6021 145.527 70.7237C145.099 69.8103 145.028 68.8688 145.315 67.8991C145.549 67.4187 145.889 67.0421 146.338 66.7693Z" fill="#37180B"/>
<path fill-rule="evenodd" clip-rule="evenodd" d="M159.595 66.7674C160.717 66.7006 161.41 67.2185 161.676 68.321C161.81 69.163 161.692 69.9632 161.323 70.7219C160.528 71.7233 159.705 71.7468 158.855 70.7925C158.274 69.699 158.25 68.5927 158.784 67.4736C159.027 67.195 159.297 66.9597 159.595 66.7674Z" fill="#37180B"/>
<path fill-rule="evenodd" clip-rule="evenodd" d="M137.946 69.2405C138.066 69.2292 138.184 69.2409 138.299 69.2758C139.417 70.1852 140.17 71.3385 140.556 72.7359C140.448 72.9793 140.271 73.0381 140.027 72.9124C139.902 72.4282 139.702 71.981 139.427 71.5708C139.24 71.7919 139.099 72.0391 139.004 72.3122C138.639 72.3733 138.51 72.2203 138.616 71.8532C138.732 71.5275 138.885 71.2215 139.075 70.9352C138.794 70.4309 138.406 70.0307 137.911 69.7348C137.862 69.5633 137.873 69.3985 137.946 69.2405Z" fill="#DBB29E"/>
<path fill-rule="evenodd" clip-rule="evenodd" d="M168.553 69.2401C168.946 69.1873 169.075 69.3521 168.941 69.7344C168.44 70.0129 168.075 70.413 167.848 70.9348C167.984 71.2114 168.113 71.4939 168.236 71.7822C168.286 71.9516 168.274 72.1163 168.201 72.2765C168.052 72.3717 167.923 72.3482 167.813 72.2059C167.694 71.9683 167.577 71.7329 167.46 71.4997C167.173 71.9348 166.961 72.4056 166.826 72.912C166.562 73.0515 166.409 72.9809 166.367 72.7002C166.728 71.3058 167.456 70.1524 168.553 69.2401Z" fill="#DAB29E"/>
<path fill-rule="evenodd" clip-rule="evenodd" d="M114.533 73.1937C113.061 73.6709 112.673 74.6124 113.369 76.0183C114.347 76.9667 115.31 76.9434 116.261 75.9477C116.365 75.7599 116.447 75.572 116.508 75.3828C116.676 75.6582 116.888 75.9053 117.142 76.1242C117.731 76.6199 118.319 77.1142 118.905 77.6071C118.072 79.0646 117.226 80.5122 116.367 81.9499C114.001 79.3577 111.674 76.7336 109.385 74.0764C110.251 72.5185 111.144 70.9767 112.065 69.4512C112.352 69.9079 112.622 70.3787 112.876 70.8635C113.429 71.6423 113.981 72.419 114.533 73.1937Z" fill="#CBC7C3"/>
<path fill-rule="evenodd" clip-rule="evenodd" d="M190.345 75.3122C190.744 76.5479 191.567 76.9596 192.813 76.5479C193.782 75.9519 194.053 75.1166 193.624 74.0411C193.172 73.3989 192.549 73.1165 191.756 73.1937C191.957 73.1467 192.169 73.0996 192.39 73.0525C193.279 71.9078 194.078 70.7074 194.788 69.4512C195.617 70.8047 196.428 72.1699 197.221 73.5468C197.356 73.7444 197.426 73.9562 197.433 74.1823C195.128 76.7838 192.813 79.3732 190.486 81.9499C189.605 80.5136 188.758 79.054 187.947 77.5718C188.763 76.9631 189.538 76.3043 190.275 75.5946C190.34 75.5106 190.363 75.4167 190.345 75.3122Z" fill="#CBC7C3"/>
<path fill-rule="evenodd" clip-rule="evenodd" d="M160.373 76.0188C160.436 75.6318 160.331 75.302 160.056 75.0301C159.237 74.1793 158.239 73.6733 157.058 73.5119C154.101 72.8818 151.187 73.0231 148.313 73.9356C147.579 74.285 146.98 74.7908 146.515 75.4538C146.48 75.641 146.469 75.8288 146.48 76.0188C146.249 74.9376 146.625 74.1259 147.608 73.5826C149.419 72.8684 151.299 72.5271 153.25 72.5586C155.181 72.5413 157.061 72.8356 158.892 73.4413C160.107 73.9104 160.601 74.7696 160.373 76.0188Z" fill="#E3E1E0"/>
<path fill-rule="evenodd" clip-rule="evenodd" d="M114.532 73.1953C115.987 73.2159 116.645 73.9455 116.507 75.3844C116.447 75.5736 116.364 75.7614 116.26 75.9493C115.31 76.9449 114.346 76.9682 113.369 76.0199C112.672 74.614 113.06 73.6725 114.532 73.1953Z" fill="#9D9D9D"/>
<path fill-rule="evenodd" clip-rule="evenodd" d="M160.372 76.0179C160.349 76.0652 160.325 76.1118 160.301 76.1591C159.772 76.33 159.232 76.342 158.679 76.1944C157.738 75.8639 156.798 75.5349 155.858 75.2058C154.334 74.9134 152.805 74.8894 151.274 75.1352C150.198 75.4318 149.14 75.7848 148.101 76.1944C147.809 76.2431 147.515 76.2784 147.219 76.3003C146.997 76.3102 146.798 76.2629 146.62 76.1591C146.573 76.1118 146.526 76.0652 146.479 76.0179C146.468 75.8279 146.479 75.6401 146.514 75.4529C146.979 74.7899 147.578 74.2841 148.312 73.9347C151.186 73.0222 154.1 72.8809 157.057 73.511C158.238 73.6724 159.236 74.1784 160.055 75.0293C160.33 75.3011 160.435 75.6309 160.372 76.0179Z" fill="#FCFBFB"/>
<path fill-rule="evenodd" clip-rule="evenodd" d="M191.755 73.1941C192.548 73.1168 193.171 73.3993 193.624 74.0415C194.053 75.1169 193.782 75.9523 192.813 76.5483C191.567 76.96 190.744 76.5483 190.344 75.3125C190.218 74.1994 190.688 73.4933 191.755 73.1941Z" fill="#9D9D9D"/>
<path fill-rule="evenodd" clip-rule="evenodd" d="M160.301 76.1607C160.163 77.1775 159.692 78.0369 158.891 78.7381C158.512 79.082 158.089 79.3532 157.621 79.5502C157.395 79.2783 157.161 79.0072 156.916 78.7381C155.977 78.193 154.966 78.0044 153.883 78.1732C153.713 78.1951 153.561 78.2537 153.425 78.3497C152.24 77.9847 151.1 78.0906 150.005 78.6675C149.763 78.8822 149.562 79.1293 149.405 79.409C149.347 79.5022 149.266 79.5495 149.158 79.5502C147.816 78.8299 146.924 77.7354 146.479 76.2666C146.502 76.1939 146.549 76.1586 146.62 76.1607C146.797 76.2645 146.997 76.3118 147.219 76.3019C147.515 76.28 147.809 76.2447 148.101 76.196C149.139 75.7864 150.197 75.4334 151.274 75.1368C152.805 74.891 154.333 74.9151 155.858 75.2074C156.797 75.5365 157.738 75.8655 158.679 76.196C159.231 76.3436 159.772 76.3316 160.301 76.1607Z" fill="#3D0D07"/>
<path fill-rule="evenodd" clip-rule="evenodd" d="M170.386 68.1797C170.876 68.5719 171.17 69.0898 171.267 69.7332C171.286 72.0506 170.392 73.9336 168.587 75.3824C168.578 77.2141 167.884 78.7203 166.507 79.9017C166.783 80.4772 167.077 81.0421 167.388 81.5964C167.654 82.2863 167.855 82.9925 167.988 83.7149C167.471 84.6328 166.953 85.5508 166.436 86.4688C166.262 86.7033 166.098 86.9504 165.943 87.2103C165.71 87.2145 165.474 87.2025 165.238 87.175C165.041 87.1714 164.852 87.2067 164.673 87.2809C164.428 87.5951 164.263 87.9482 164.18 88.3401C163.567 88.5562 162.955 88.78 162.346 89.0109C161.375 87.838 160.364 86.6969 159.314 85.5861C159.058 85.5494 158.846 85.632 158.679 85.8333C158.608 84.8101 158.585 83.7742 158.608 82.7263C159.115 82.6239 159.609 82.4706 160.089 82.2673C162.967 81.0103 165.012 78.9385 166.225 76.0532C166.915 75.931 167.55 75.6719 168.129 75.2764C170.508 73.4164 171.259 71.0508 170.386 68.1797Z" fill="#50200F"/>
<path fill-rule="evenodd" clip-rule="evenodd" d="M136.464 68.252C136.257 68.6249 136.128 69.0251 136.076 69.4524C135.945 71.2268 136.439 72.8038 137.557 74.1836C138.388 75.2287 139.457 75.8642 140.766 76.0902C140.802 76.3069 140.862 76.5188 140.942 76.7257C142.027 78.9585 143.661 80.6653 145.843 81.8452C146.601 82.259 147.4 82.5528 148.241 82.7279C148.241 83.0104 148.241 83.2928 148.241 83.5753C148.286 84.3323 148.24 85.0617 148.1 85.7643C147.944 85.6033 147.755 85.5447 147.536 85.5878C146.561 86.659 145.585 87.7295 144.609 88.8007C144.575 88.8678 144.563 88.9384 144.574 89.0126C143.913 88.7916 143.254 88.5564 142.599 88.3064C142.504 87.3044 141.964 86.9514 140.977 87.2472C140.788 86.9874 140.599 86.7282 140.413 86.4705C139.914 85.5412 139.397 84.6232 138.862 83.7165C139.106 82.3332 139.622 81.0621 140.413 79.9033C138.989 78.7445 138.273 77.2383 138.262 75.384C137.816 75.0309 137.416 74.6308 137.063 74.1836C135.954 72.8035 135.483 71.2264 135.653 69.4524C135.731 69.1538 135.849 68.8713 136.005 68.605C136.131 68.4433 136.283 68.3256 136.464 68.252Z" fill="#4F200F"/>
<path fill-rule="evenodd" clip-rule="evenodd" d="M157.621 79.5501C157.029 79.8855 156.394 80.1326 155.717 80.2915C153.753 80.7081 151.826 80.5902 149.934 79.9384C149.651 79.8438 149.393 79.7146 149.158 79.5501C149.265 79.5494 149.347 79.502 149.405 79.4088C149.562 79.1292 149.763 78.882 150.004 78.6674C151.1 78.0905 152.24 77.9845 153.425 78.3496C153.561 78.2536 153.713 78.195 153.883 78.1731C154.966 78.0043 155.976 78.1928 156.916 78.738C157.16 79.007 157.395 79.2782 157.621 79.5501Z" fill="#922B1D"/>
<path fill-rule="evenodd" clip-rule="evenodd" d="M148.241 83.5742C148.31 84.3383 148.334 85.115 148.311 85.9045C148.203 85.9094 148.133 85.8628 148.1 85.7633C148.239 85.0607 148.286 84.3312 148.241 83.5742Z" fill="#926553"/>
<path fill-rule="evenodd" clip-rule="evenodd" d="M148.312 85.9766C150.024 87.1375 151.729 88.3139 153.425 89.5073C155.116 88.3436 156.797 87.1664 158.467 85.9766C159.585 87.3317 160.643 88.7319 161.641 90.1781C160.288 92.2994 158.831 94.3472 157.268 96.3216C157.127 96.3689 156.986 96.3689 156.845 96.3216C156.596 95.9205 156.338 95.5321 156.07 95.1564C155.237 93.5563 154.355 91.9788 153.425 90.4253C152.494 91.9795 151.612 93.5563 150.78 95.1564C150.514 95.5342 150.256 95.9226 150.005 96.3216C149.864 96.3689 149.722 96.3689 149.581 96.3216C148.012 94.3423 146.554 92.2831 145.209 90.1428C146.227 88.7376 147.262 87.3486 148.312 85.9766Z" fill="#F0EBE8"/>
<path fill-rule="evenodd" clip-rule="evenodd" d="M151.486 97.9796C150.501 104.236 149.467 110.485 148.383 116.728C148.391 116.897 148.461 117.026 148.594 117.116C148.642 117.372 148.678 117.631 148.7 117.893C150.125 119.296 151.57 120.673 153.037 122.024C153.475 122.139 153.85 122.045 154.166 121.741C155.494 120.458 156.822 119.176 158.15 117.893C158.168 117.586 158.25 117.303 158.397 117.045C158.425 116.942 158.449 116.836 158.468 116.728C157.406 110.459 156.372 104.185 155.365 97.909C155.353 97.7423 155.365 97.5778 155.4 97.4147C155.636 97.1661 155.883 96.931 156.14 96.7085C156.433 96.9663 156.715 97.2367 156.987 97.5206C157.08 97.5679 157.175 97.5679 157.269 97.5206C158.4 95.9254 159.54 94.3366 160.689 92.7541C161.399 91.5572 162.186 90.4154 163.052 89.3293C163.643 89.1323 164.219 88.9085 164.779 88.6585C164.803 88.4233 164.827 88.1875 164.85 87.9523C164.956 87.7984 165.097 87.7045 165.273 87.6699C165.55 87.6826 165.762 87.8005 165.908 88.0229C167.059 91.6695 168.022 95.3647 168.799 99.1094C169.108 101.482 169.367 103.859 169.575 106.241C169.622 107.136 169.622 108.03 169.575 108.925C169.413 111.141 169.225 113.353 169.011 115.563C168.472 117.656 167.532 119.538 166.19 121.212C164.978 122.613 163.485 123.578 161.712 124.107C160.633 123.911 159.552 123.71 158.468 123.507C157.223 123.379 155.977 123.261 154.73 123.154C151.503 123.05 148.318 123.368 145.174 124.107C143.95 123.806 142.857 123.253 141.895 122.447C139.782 120.466 138.407 118.053 137.769 115.209C137.484 112.273 137.32 109.33 137.275 106.383C137.487 104.502 137.675 102.619 137.84 100.734C137.958 99.6906 138.123 98.6547 138.333 97.6265C139.095 94.3408 139.988 91.0926 141.013 87.8817C141.409 87.5555 141.738 87.6028 142 88.0229C142.018 88.2623 142.053 88.4975 142.106 88.7291C142.644 88.936 143.185 89.1358 143.728 89.3293C143.902 89.4324 144.055 89.5616 144.187 89.7177C145.93 92.3573 147.728 94.9587 149.582 97.5206C149.706 97.5771 149.824 97.5651 149.934 97.4853C150.169 97.2028 150.428 96.9437 150.71 96.7085C150.967 96.931 151.214 97.1661 151.451 97.4147C151.486 97.6018 151.497 97.7896 151.486 97.9796Z" fill="#F0EBE8"/>
<path fill-rule="evenodd" clip-rule="evenodd" d="M185.408 88.7291C185.4 88.7729 185.377 88.8082 185.337 88.835C185.584 89.0236 185.819 89.2234 186.043 89.4352C186.817 90.5608 187.487 91.7613 188.053 93.0366C189.285 96.1747 189.402 99.3523 188.405 102.57C188.031 103.107 188.09 103.589 188.582 104.017C189.006 104.132 189.359 104.026 189.639 103.699C189.993 103.876 190.321 104.088 190.627 104.335C194.246 107.383 195.551 111.244 194.541 115.916C194.24 116.822 193.922 117.717 193.589 118.599C193.623 119.034 193.859 119.293 194.294 119.376C194.635 119.264 194.94 119.1 195.211 118.881C196.683 119.682 198.011 120.694 199.195 121.918C199.434 122.192 199.657 122.474 199.865 122.765C199.856 122.917 199.891 123.058 199.971 123.189C201.567 125.456 202.131 127.975 201.664 130.745C201.556 131.728 201.226 132.623 200.676 133.428C200.329 133.976 199.918 134.47 199.442 134.911C199.441 134.209 199.43 133.503 199.407 132.792C199.242 132.604 199.077 132.604 198.913 132.792C198.952 133.756 198.834 134.698 198.561 135.617C198.465 135.724 198.36 135.818 198.243 135.9C198.249 135.669 198.225 135.433 198.173 135.193C198.055 135.099 197.938 135.099 197.82 135.193C197.692 135.516 197.587 135.846 197.503 136.182C197.213 136.392 196.895 136.556 196.551 136.676C196.527 136.618 196.503 136.558 196.48 136.5C196.656 135.573 196.668 134.644 196.515 133.71C196.388 133.576 196.235 133.541 196.057 133.605C196.089 134.578 196.053 135.555 195.951 136.535C195.932 136.664 195.873 136.77 195.775 136.853C195.59 136.911 195.403 136.946 195.211 136.959C195.436 135.227 195.166 133.579 194.4 132.016C194.272 131.882 194.12 131.846 193.941 131.91C193.9 131.973 193.877 132.043 193.871 132.122C194.254 132.945 194.525 133.804 194.682 134.699C194.735 135.455 194.724 136.208 194.646 136.959C193.644 136.991 192.704 136.767 191.826 136.288C191.457 136.186 191.163 136.292 190.944 136.606C190.486 137.405 189.909 138.111 189.216 138.724C189.193 138.677 189.169 138.63 189.146 138.583C189.413 136.678 189.425 134.772 189.181 132.863C189.089 132.665 188.936 132.606 188.723 132.687C188.678 132.809 188.655 132.939 188.652 133.075C188.946 134.913 188.934 136.749 188.617 138.583C188.549 138.846 188.467 139.105 188.37 139.36C188.135 139.524 187.9 139.689 187.665 139.854C187.641 139.819 187.617 139.783 187.594 139.748C188.096 138.318 188.273 136.846 188.123 135.335C188.012 133.784 187.648 132.301 187.03 130.886C186.668 130.743 186.515 130.86 186.572 131.239C187.664 133.831 187.876 136.491 187.206 139.218C187.108 139.532 186.991 139.838 186.854 140.136C186.551 140.282 186.234 140.376 185.902 140.419C186.88 135.396 185.811 130.877 182.693 126.861C182.085 126.228 181.462 125.628 180.824 125.06C182.462 120.112 182.003 115.392 179.449 110.902C178.746 109.846 177.877 108.952 176.839 108.219C176.873 106.831 176.873 105.442 176.839 104.052C176.624 102.493 176.236 100.986 175.676 99.5331C177.788 97.0651 182.028 92.1085 182.028 92.1085L182.369 91.767C182.369 91.767 182.752 91.5508 182.869 91.4124C183.482 91.8813 184.034 92.4229 184.526 93.0366C185.508 94.4376 186.308 95.9445 186.924 97.5559C187.172 97.8539 187.348 97.8186 187.453 97.45C186.73 95.4481 185.708 93.6241 184.385 91.9774C184.051 91.6073 183.687 91.2776 183.292 90.9888C183.852 90.2989 184.428 89.616 185.02 88.9409C185.109 88.7919 185.239 88.7213 185.408 88.7291Z" fill="#6B2912"/>
<path fill-rule="evenodd" clip-rule="evenodd" d="M121.441 88.7303C121.515 88.7197 121.586 88.7317 121.653 88.7656C122.304 89.4993 122.938 90.2407 123.557 90.99C122.582 91.7893 121.771 92.7306 121.124 93.8145C120.544 94.8709 120.003 95.9541 119.502 97.0628C119.414 97.245 119.39 97.4328 119.431 97.6277C119.623 97.8268 119.787 97.8035 119.925 97.5571C120.592 95.7614 121.509 94.1132 122.675 92.6141C123.057 92.1494 123.469 91.7258 123.91 91.343C124.1 91.4652 124.385 91.7682 124.385 91.7682L124.756 92.261C124.756 92.261 129.108 97.1362 131.244 99.6049C131.182 99.5957 131.135 99.619 131.103 99.6755C130.063 102.379 129.734 105.168 130.116 108.043C129.569 108.543 129.017 109.049 128.458 109.562C127.55 110.627 126.821 111.804 126.272 113.092C125.046 116.378 124.787 119.744 125.496 123.19C125.706 123.843 125.87 124.501 125.99 125.167C124.249 126.534 122.933 128.228 122.041 130.252C120.615 133.521 120.25 136.911 120.948 140.42C120.641 140.4 120.347 140.33 120.066 140.208C119.263 138.451 119.028 136.615 119.361 134.7C119.519 133.444 119.836 132.232 120.313 131.064C120.188 130.788 120.012 130.753 119.784 130.958C118.975 132.998 118.622 135.116 118.726 137.313C118.821 138.143 118.998 138.955 119.255 139.749C119.232 139.785 119.208 139.82 119.185 139.855C118.916 139.692 118.669 139.503 118.444 139.29C117.931 137.238 117.849 135.167 118.197 133.076C118.254 132.676 118.101 132.559 117.739 132.723C117.423 134.652 117.411 136.581 117.704 138.513C117.68 138.584 117.656 138.655 117.633 138.725C116.962 138.136 116.41 137.454 115.976 136.677C115.668 136.27 115.28 136.164 114.812 136.36C114.001 136.786 113.131 136.986 112.203 136.96C112.04 135.711 112.146 134.488 112.52 133.288C112.693 132.918 112.846 132.542 112.978 132.158C112.937 131.878 112.784 131.807 112.52 131.946C111.721 133.501 111.427 135.149 111.639 136.889C111.39 136.925 111.166 136.878 110.969 136.748C110.904 136.445 110.857 136.139 110.828 135.83C110.813 135.083 110.801 134.342 110.792 133.606C110.655 133.553 110.526 133.565 110.404 133.641C110.193 134.57 110.182 135.5 110.369 136.43C110.346 136.513 110.322 136.595 110.299 136.677C110.07 136.575 109.835 136.492 109.593 136.43C109.511 136.348 109.429 136.266 109.347 136.183C109.289 135.847 109.183 135.529 109.029 135.23C108.892 135.178 108.763 135.189 108.641 135.265C108.619 135.48 108.619 135.692 108.641 135.901C108.524 135.807 108.406 135.712 108.289 135.618C108.026 134.697 107.909 133.756 107.936 132.794C107.772 132.605 107.607 132.605 107.442 132.794C107.425 133.503 107.413 134.209 107.407 134.912C106.325 133.84 105.584 132.569 105.186 131.099C105.139 129.805 105.139 128.51 105.186 127.215C105.39 126.224 105.708 125.27 106.138 124.355C106.114 124.283 106.067 124.247 105.997 124.249C107.309 121.923 109.166 120.182 111.568 119.024C111.624 118.991 111.648 118.945 111.639 118.883C111.846 118.978 112.034 119.107 112.203 119.271C112.845 119.443 113.198 119.196 113.261 118.53C112.973 117.835 112.703 117.129 112.45 116.411C111.339 112.508 112.068 109 114.636 105.89C115.099 105.378 115.604 104.919 116.152 104.513C116.268 104.433 116.338 104.327 116.364 104.195C116.626 104.017 116.908 103.876 117.21 103.771C117.354 103.809 117.472 103.891 117.562 104.018C118.397 104.124 118.761 103.759 118.656 102.924C118.021 101.586 117.728 100.174 117.774 98.6869C117.729 95.3497 118.705 92.3606 120.701 89.7189C120.735 89.6518 120.747 89.5812 120.736 89.5071C120.983 89.2719 121.242 89.0481 121.512 88.8362C121.472 88.8094 121.449 88.7741 121.441 88.7303Z" fill="#6B2912"/>
<path opacity="0.979" fill-rule="evenodd" clip-rule="evenodd" d="M120.738 89.5078C120.748 89.582 120.736 89.6526 120.702 89.7197C118.706 92.3613 117.731 95.3504 117.776 98.6877C117.729 100.175 118.023 101.587 118.657 102.925C118.763 103.76 118.398 104.125 117.564 104.019C117.473 103.892 117.356 103.809 117.211 103.772C115.377 98.2661 116.553 93.5109 120.738 89.5078Z" fill="#4F1F0D"/>
<path opacity="0.977" fill-rule="evenodd" clip-rule="evenodd" d="M186.041 89.4355C189.797 92.9154 191.172 97.1763 190.167 102.217C190.011 102.721 189.834 103.215 189.638 103.7C189.357 104.026 189.004 104.132 188.58 104.017C188.088 103.59 188.03 103.107 188.404 102.57C189.401 99.3526 189.283 96.175 188.051 93.0369C187.485 91.7616 186.815 90.5611 186.041 89.4355Z" fill="#4F1F0E"/>
<path fill-rule="evenodd" clip-rule="evenodd" d="M123.559 90.9883C123.7 91.0822 123.818 91.2001 123.912 91.3414C123.471 91.7241 123.059 92.1478 122.678 92.6124C121.511 94.1116 120.594 95.7597 119.927 97.5554C119.79 97.8019 119.625 97.8252 119.434 97.626C119.393 97.4311 119.416 97.2433 119.504 97.0611C120.006 95.9525 120.546 94.8692 121.126 93.8129C121.774 92.7289 122.585 91.7876 123.559 90.9883Z" fill="#A84B2A"/>
<path fill-rule="evenodd" clip-rule="evenodd" d="M183.292 90.9883C183.687 91.2771 184.051 91.6069 184.385 91.9769C185.708 93.6236 186.73 95.4476 187.453 97.4495C187.348 97.8181 187.172 97.8534 186.924 97.5554C186.308 95.944 185.508 94.4371 184.526 93.0361C184.034 92.4225 183.482 91.8808 182.869 91.412C182.987 91.2474 183.128 91.1062 183.292 90.9883Z" fill="#A94B2B"/>
<path fill-rule="evenodd" clip-rule="evenodd" d="M156.07 95.1569C156.08 95.2311 156.068 95.3017 156.035 95.3688C155.659 95.6964 155.342 96.0615 155.083 96.4633C155.154 96.9597 155.248 97.442 155.365 97.9109C156.372 104.187 157.406 110.461 158.468 116.73C158.449 116.838 158.425 116.944 158.397 117.047C156.84 118.453 155.312 119.901 153.813 121.39C153.626 121.545 153.415 121.591 153.178 121.531C151.659 120.046 150.132 118.575 148.594 117.118C148.461 117.028 148.391 116.899 148.383 116.73C149.467 110.487 150.501 104.238 151.486 97.9815C151.671 97.411 151.741 96.8227 151.697 96.2162C151.309 95.9224 151.003 95.5693 150.781 95.1569C151.613 93.5568 152.494 91.98 153.425 90.4258C154.355 91.9793 155.237 93.5568 156.07 95.1569Z" fill="#1E1F26"/>
<path opacity="0.998" fill-rule="evenodd" clip-rule="evenodd" d="M131.247 99.6035C132.943 101.468 134.624 103.351 136.289 105.253C136.114 107.085 135.949 108.921 135.796 110.761C135.739 112.645 135.763 114.528 135.866 116.41C135.963 119.08 136.621 121.598 137.841 123.965C138.402 124.963 139.165 125.763 140.133 126.366C140.188 126.413 140.234 126.472 140.274 126.543C140.037 127.081 139.849 127.635 139.71 128.202C137.823 133.303 135.978 138.434 134.174 143.596C134.02 143.937 133.868 144.266 133.715 144.585C132.167 144.368 130.933 143.615 130.013 142.325C129.784 141.984 129.572 141.631 129.378 141.266C127.354 142.966 125.015 143.884 122.361 144.02C119.642 143.935 117.444 142.829 115.767 140.701C115.412 140.169 115.071 139.628 114.745 139.077C112.218 139.768 109.844 139.427 107.622 138.053C105.635 136.507 104.519 134.471 104.272 131.945C104.037 129.192 104.613 126.626 106 124.248C106.07 124.246 106.117 124.281 106.141 124.354C105.711 125.269 105.393 126.222 105.189 127.214C105.142 128.508 105.142 129.803 105.189 131.098C105.587 132.568 106.328 133.839 107.41 134.911C107.416 134.208 107.428 133.502 107.445 132.792C107.61 132.604 107.775 132.604 107.939 132.792C107.912 133.755 108.029 134.696 108.292 135.617C108.409 135.711 108.527 135.805 108.644 135.899C108.622 135.69 108.622 135.478 108.644 135.264C108.766 135.188 108.895 135.176 109.032 135.228C109.186 135.528 109.292 135.846 109.35 136.182C109.432 136.264 109.514 136.346 109.596 136.429C109.838 136.491 110.073 136.574 110.302 136.676C110.325 136.593 110.349 136.512 110.372 136.429C110.185 135.499 110.196 134.569 110.407 133.64C110.529 133.563 110.658 133.552 110.795 133.604C110.804 134.34 110.816 135.082 110.83 135.829C110.86 136.137 110.907 136.444 110.972 136.747C111.169 136.877 111.393 136.924 111.642 136.888C111.43 135.147 111.724 133.5 112.523 131.945C112.787 131.806 112.94 131.876 112.981 132.157C112.849 132.54 112.696 132.917 112.523 133.287C112.149 134.486 112.043 135.71 112.206 136.959C113.134 136.985 114.004 136.784 114.815 136.358C115.283 136.163 115.671 136.269 115.979 136.676C116.413 137.452 116.965 138.135 117.636 138.724C117.659 138.653 117.683 138.583 117.707 138.512C117.414 136.58 117.426 134.65 117.742 132.722C118.104 132.557 118.257 132.675 118.2 133.075C117.852 135.166 117.934 137.237 118.447 139.289C118.672 139.502 118.919 139.691 119.187 139.854C119.211 139.818 119.235 139.783 119.258 139.748C119.001 138.954 118.824 138.142 118.729 137.312C118.625 135.115 118.978 132.996 119.787 130.956C120.015 130.752 120.191 130.787 120.316 131.062C119.839 132.231 119.522 133.443 119.364 134.699C119.031 136.613 119.266 138.449 120.069 140.207C120.35 140.328 120.644 140.399 120.951 140.419C120.253 136.909 120.618 133.52 122.044 130.25C122.936 128.227 124.252 126.532 125.993 125.166C125.873 124.5 125.709 123.841 125.499 123.189C124.79 119.743 125.049 116.377 126.275 113.091C126.824 111.802 127.553 110.626 128.461 109.56C129.02 109.047 129.572 108.541 130.119 108.042C129.737 105.167 130.066 102.377 131.106 99.6741C131.138 99.6176 131.185 99.5943 131.247 99.6035Z" fill="#4F1F0E"/>
<path opacity="0.998" fill-rule="evenodd" clip-rule="evenodd" d="M175.676 99.5332C176.236 100.986 176.623 102.493 176.839 104.053C176.873 105.442 176.873 106.831 176.839 108.219C177.877 108.952 178.746 109.846 179.449 110.902C182.003 115.392 182.461 120.112 180.824 125.06C181.462 125.628 182.085 126.228 182.693 126.861C185.81 130.877 186.88 135.396 185.901 140.419C186.234 140.377 186.551 140.282 186.854 140.136C186.99 139.838 187.108 139.532 187.206 139.219C187.875 136.491 187.664 133.831 186.571 131.239C186.515 130.861 186.667 130.743 187.03 130.886C187.648 132.301 188.012 133.784 188.123 135.335C188.272 136.847 188.096 138.318 187.594 139.748C187.617 139.783 187.641 139.819 187.665 139.854C187.899 139.69 188.135 139.524 188.37 139.36C188.467 139.106 188.549 138.846 188.617 138.583C188.934 136.749 188.946 134.913 188.652 133.075C188.655 132.939 188.678 132.81 188.722 132.687C188.936 132.606 189.088 132.665 189.181 132.863C189.425 134.772 189.413 136.679 189.146 138.583C189.169 138.63 189.193 138.677 189.216 138.724C189.909 138.111 190.485 137.405 190.944 136.606C191.163 136.292 191.457 136.186 191.825 136.288C192.703 136.767 193.644 136.991 194.646 136.959C194.724 136.208 194.735 135.455 194.682 134.699C194.525 133.804 194.254 132.945 193.871 132.122C193.877 132.043 193.9 131.973 193.941 131.91C194.12 131.846 194.272 131.882 194.4 132.016C195.165 133.579 195.435 135.227 195.211 136.959C195.402 136.946 195.59 136.911 195.775 136.853C195.873 136.77 195.932 136.664 195.951 136.535C196.053 135.555 196.089 134.578 196.057 133.605C196.235 133.541 196.388 133.576 196.515 133.711C196.668 134.644 196.656 135.573 196.48 136.5C196.503 136.558 196.527 136.618 196.55 136.676C196.895 136.556 197.213 136.392 197.503 136.182C197.586 135.846 197.692 135.516 197.82 135.193C197.938 135.1 198.055 135.1 198.172 135.193C198.225 135.433 198.249 135.669 198.243 135.9C198.359 135.818 198.465 135.725 198.56 135.617C198.834 134.698 198.952 133.756 198.913 132.793C199.077 132.604 199.242 132.604 199.407 132.793C199.43 133.503 199.441 134.209 199.442 134.911C199.918 134.47 200.329 133.976 200.676 133.428C201.226 132.623 201.555 131.728 201.663 130.745C202.131 127.975 201.567 125.456 199.971 123.189C199.891 123.058 199.856 122.917 199.865 122.765C202.175 125.773 203.034 129.162 202.439 132.934C201.456 137.063 198.847 139.228 194.611 139.43C193.76 139.422 192.926 139.304 192.108 139.077C189.878 143.147 186.492 144.666 181.952 143.632C180.293 143.145 178.8 142.357 177.474 141.266C176.59 143.136 175.144 144.242 173.137 144.585C173.008 144.316 172.879 144.034 172.749 143.738C170.915 138.514 169.046 133.312 167.142 128.132C166.968 127.562 166.78 126.997 166.578 126.437C167.814 125.685 168.742 124.649 169.364 123.33C170.224 121.342 170.753 119.271 170.951 117.116C171.005 117.063 171.04 116.992 171.056 116.904C171.176 115.246 171.187 113.598 171.092 111.961C170.989 109.717 170.813 107.481 170.563 105.253C172.268 103.341 173.972 101.435 175.676 99.5332Z" fill="#4F1F0E"/>
<path opacity="0.974" fill-rule="evenodd" clip-rule="evenodd" d="M116.366 104.193C116.341 104.325 116.27 104.431 116.154 104.511C115.607 104.918 115.101 105.377 114.638 105.888C112.07 108.999 111.342 112.506 112.452 116.41C112.705 117.128 112.976 117.834 113.263 118.528C113.2 119.195 112.848 119.442 112.205 119.27C112.037 119.106 111.849 118.976 111.641 118.881C110.685 117.073 110.321 115.143 110.548 113.091C111.122 109.213 113.061 106.247 116.366 104.193Z" fill="#4F1F0D"/>
<path opacity="0.978" fill-rule="evenodd" clip-rule="evenodd" d="M190.627 104.336C193.143 105.832 194.87 107.974 195.81 110.762C196.458 112.891 196.504 115.033 195.951 117.188C195.759 117.784 195.512 118.349 195.211 118.883C194.94 119.101 194.635 119.265 194.294 119.377C193.859 119.294 193.623 119.035 193.589 118.6C193.922 117.718 194.24 116.823 194.541 115.917C195.551 111.245 194.246 107.384 190.627 104.336Z" fill="#4F1F0D"/>
<path fill-rule="evenodd" clip-rule="evenodd" d="M150.146 112.598C150.416 112.563 150.558 112.68 150.569 112.951C150.44 113.606 150.335 114.265 150.251 114.928C150.105 115.08 149.94 115.103 149.758 114.999C149.759 114.172 149.888 113.371 150.146 112.598Z" fill="#F2F2F2"/>
<path fill-rule="evenodd" clip-rule="evenodd" d="M171.092 111.961C171.187 113.598 171.176 115.246 171.057 116.904C171.041 116.992 171.005 117.062 170.951 117.116C171.072 115.4 171.119 113.682 171.092 111.961Z" fill="#6B4436"/>
<path fill-rule="evenodd" clip-rule="evenodd" d="M149.652 115.705C150.174 115.713 150.268 115.913 149.934 116.305C149.51 116.268 149.416 116.067 149.652 115.705Z" fill="#E5E4E5"/>
<path fill-rule="evenodd" clip-rule="evenodd" d="M158.396 117.047C158.25 117.305 158.167 117.587 158.15 117.894C156.822 119.177 155.493 120.46 154.165 121.743C153.85 122.046 153.474 122.14 153.037 122.025C151.57 120.674 150.124 119.297 148.7 117.894C148.677 117.632 148.642 117.373 148.594 117.117C150.131 118.574 151.659 120.045 153.178 121.531C153.414 121.591 153.626 121.544 153.812 121.39C155.311 119.9 156.839 118.453 158.396 117.047Z" fill="#C7C3C0"/>
<path fill-rule="evenodd" clip-rule="evenodd" d="M193.519 120.787C194.241 120.86 194.9 121.107 195.493 121.529C197.079 122.646 198.313 124.07 199.196 125.801C199.527 126.446 199.692 127.129 199.689 127.849C199.525 128.037 199.36 128.037 199.196 127.849C198.896 126.331 198.238 124.989 197.221 123.824C196.398 122.864 195.423 122.099 194.294 121.529C194.064 121.444 193.828 121.373 193.589 121.317C193.433 121.159 193.409 120.982 193.519 120.787Z" fill="#A94B2B"/>
<path fill-rule="evenodd" clip-rule="evenodd" d="M138.65 122.836C138.77 122.825 138.888 122.837 139.003 122.871C139.502 123.765 140.172 124.506 141.013 125.096C141.059 125.449 140.907 125.578 140.554 125.484C139.754 124.872 139.108 124.131 138.615 123.26C138.567 123.112 138.579 122.97 138.65 122.836Z" fill="#FCFCFC"/>
<path fill-rule="evenodd" clip-rule="evenodd" d="M167.848 122.836C167.968 122.825 168.086 122.837 168.201 122.871C168.242 122.934 168.265 123.005 168.271 123.083C168.147 123.39 167.995 123.684 167.813 123.966C167.354 124.519 166.849 125.025 166.297 125.484C165.93 125.527 165.789 125.373 165.873 125.025C166.732 124.472 167.39 123.742 167.848 122.836Z" fill="#FCFCFB"/>
<path fill-rule="evenodd" clip-rule="evenodd" d="M156.844 124.319C153.926 124.193 151.012 124.241 148.1 124.46C148.952 124.312 149.822 124.229 150.709 124.213C152.519 124.166 154.329 124.166 156.139 124.213C156.388 124.226 156.623 124.261 156.844 124.319Z" fill="#ACA8A7"/>
<path fill-rule="evenodd" clip-rule="evenodd" d="M156.845 124.32C159.002 124.472 161.141 124.767 163.263 125.203C164.45 125.411 165.555 125.823 166.577 126.439C166.779 126.999 166.967 127.564 167.142 128.134C167.144 128.204 167.108 128.251 167.036 128.275C164.518 127.358 161.979 126.793 159.419 126.58C154.081 125.933 148.779 126.132 143.516 127.18C142.22 127.454 140.963 127.843 139.743 128.345C139.711 128.304 139.699 128.257 139.708 128.204C139.847 127.637 140.035 127.083 140.272 126.545C140.233 126.474 140.186 126.415 140.131 126.368C140.583 126.188 141.03 125.988 141.471 125.768C143.639 125.12 145.849 124.684 148.1 124.462C151.012 124.242 153.927 124.195 156.845 124.32Z" fill="#17181D"/>
<path fill-rule="evenodd" clip-rule="evenodd" d="M167.144 128.132C169.047 133.311 170.916 138.513 172.75 143.737C172.881 144.033 173.01 144.316 173.138 144.585C173.977 146.83 174.776 149.089 175.536 151.364C174.57 151.696 174.135 152.379 174.231 153.412C184.67 184.192 195.072 214.98 205.438 245.775C203.62 247.193 201.645 248.382 199.514 249.341C196.707 250.615 193.815 251.651 190.839 252.448C190.78 252.52 190.757 252.602 190.769 252.695C190.718 252.666 190.683 252.619 190.663 252.554C188.891 253.015 187.092 253.344 185.268 253.543C175.042 217.883 164.804 182.222 154.555 146.562C154.442 146.207 154.266 145.889 154.026 145.609C153.682 145.499 153.33 145.475 152.968 145.538C152.578 145.885 152.331 146.32 152.228 146.844C142.041 182.41 131.815 217.952 121.55 253.472C121.432 253.394 121.326 253.394 121.233 253.472C119.539 253.303 117.87 252.996 116.226 252.554C116.178 252.606 116.131 252.654 116.085 252.695C116.085 252.625 116.085 252.554 116.085 252.484C111.158 251.264 106.574 249.275 102.333 246.517C101.996 246.302 101.691 246.055 101.416 245.775C111.799 214.997 122.201 184.233 132.622 153.482C132.759 152.389 132.301 151.706 131.247 151.434C132.084 149.156 132.907 146.873 133.716 144.585C133.868 144.266 134.02 143.937 134.174 143.596C135.979 138.434 137.824 133.303 139.71 128.202C139.701 128.254 139.713 128.302 139.745 128.343C140.965 127.841 142.222 127.452 143.518 127.178C148.781 126.13 154.083 125.931 159.421 126.578C161.981 126.791 164.52 127.356 167.038 128.273C167.11 128.249 167.146 128.202 167.144 128.132Z" fill="#1E1F25"/>
<path opacity="0.989" fill-rule="evenodd" clip-rule="evenodd" d="M185.265 253.545C183.997 253.618 182.727 253.63 181.457 253.58C180.458 253.5 179.494 253.277 178.566 252.909C170.199 218.683 161.819 184.459 153.424 150.236C145.043 184.461 136.663 218.686 128.283 252.909C127.355 253.277 126.391 253.5 125.391 253.58C123.999 253.648 122.613 253.613 121.23 253.474C121.324 253.396 121.429 253.396 121.548 253.474C131.812 217.954 142.038 182.412 152.225 146.846C152.328 146.322 152.575 145.887 152.966 145.54C153.327 145.477 153.68 145.501 154.024 145.611C154.264 145.891 154.44 146.209 154.553 146.564C164.802 182.224 175.04 217.884 185.265 253.545Z" fill="#16171D"/>
<path opacity="0.992" fill-rule="evenodd" clip-rule="evenodd" d="M131.246 151.434C132.3 151.705 132.758 152.388 132.621 153.481C122.2 184.233 111.798 214.996 101.415 245.774C101.218 245.661 101.03 245.531 100.85 245.386C100.289 244.838 99.7252 244.309 99.1579 243.797C98.9339 243.49 98.7459 243.16 98.5938 242.809C109.478 212.349 120.362 181.891 131.246 151.434Z" fill="#292A31"/>
<path opacity="0.992" fill-rule="evenodd" clip-rule="evenodd" d="M175.534 151.365C186.388 181.626 197.237 211.896 208.081 242.175C208.203 242.424 208.25 242.682 208.222 242.952C208.043 243.36 207.796 243.713 207.481 244.011C206.824 244.622 206.142 245.21 205.436 245.777C195.071 214.981 184.669 184.193 174.23 153.413C174.134 152.38 174.568 151.698 175.534 151.365Z" fill="#292A31"/>
<path opacity="0.996" fill-rule="evenodd" clip-rule="evenodd" d="M99.1569 243.799C99.7241 244.31 100.288 244.84 100.849 245.388C101.029 245.532 101.217 245.662 101.414 245.776C101.688 246.056 101.994 246.303 102.33 246.517C106.571 249.276 111.155 251.265 116.082 252.484C116.082 252.555 116.082 252.626 116.082 252.696C115.341 254.274 114.566 255.828 113.755 257.357C112.616 257.319 111.487 257.272 110.37 257.216C110.676 257.216 110.981 257.216 111.287 257.216C111.803 255.88 112.308 254.538 112.803 253.191C112.856 253.11 112.844 253.039 112.768 252.979C108.733 251.9 104.996 250.17 101.555 247.789C100.907 247.288 100.272 246.77 99.6505 246.235C99.425 245.95 99.1899 245.68 98.9453 245.423C99.1024 245.011 99.267 244.598 99.439 244.187C99.3579 244.047 99.2638 243.918 99.1569 243.799Z" fill="#D9B19C"/>
<path opacity="0.996" fill-rule="evenodd" clip-rule="evenodd" d="M207.481 244.01C207.478 244.086 207.455 244.157 207.41 244.222C207.572 244.568 207.713 244.921 207.833 245.281C207.844 245.355 207.832 245.426 207.798 245.493C207.247 246.162 206.624 246.762 205.929 247.293C203.802 248.9 201.499 250.218 199.018 251.248C197.365 251.874 195.696 252.451 194.011 252.978C194.527 254.389 195.044 255.801 195.562 257.215C196.432 257.148 197.302 257.077 198.172 257.003C197.507 257.148 196.826 257.23 196.126 257.25C195.115 257.274 194.104 257.309 193.094 257.356C192.306 255.795 191.53 254.242 190.767 252.695C190.755 252.602 190.778 252.52 190.837 252.448C193.813 251.651 196.705 250.615 199.512 249.341C201.643 248.382 203.617 247.193 205.436 245.775C206.141 245.209 206.823 244.621 207.481 244.01Z" fill="#D8B09C"/>
<path opacity="0.997" fill-rule="evenodd" clip-rule="evenodd" d="M98.9457 245.422C99.1903 245.679 99.4254 245.949 99.6509 246.234C100.273 246.768 100.907 247.287 101.555 247.787C104.996 250.169 108.734 251.899 112.768 252.978C112.845 253.038 112.856 253.109 112.804 253.189C112.309 254.537 111.803 255.878 111.287 257.214C110.982 257.214 110.676 257.214 110.37 257.214C106.408 256.965 102.647 255.964 99.0868 254.213C98.047 253.646 97.0833 252.976 96.1953 252.201C97.1122 249.941 98.029 247.682 98.9457 245.422Z" fill="#EFD1BD"/>
<path opacity="0.997" fill-rule="evenodd" clip-rule="evenodd" d="M207.834 245.281C208.811 247.567 209.751 249.874 210.655 252.201C209.244 253.403 207.669 254.357 205.93 255.061C203.427 256.041 200.84 256.688 198.173 257.003C197.303 257.077 196.433 257.148 195.563 257.215C195.045 255.801 194.528 254.389 194.012 252.978C195.697 252.451 197.366 251.875 199.019 251.248C201.5 250.219 203.803 248.9 205.93 247.294C206.625 246.763 207.247 246.163 207.799 245.493C207.833 245.426 207.845 245.355 207.834 245.281Z" fill="#EFD1BD"/>
<path fill-rule="evenodd" clip-rule="evenodd" d="M98.5933 249.236C98.732 249.219 98.8614 249.242 98.9812 249.306C99.0272 249.525 99.0036 249.736 98.9107 249.942C98.5387 250.71 98.1861 251.487 97.8528 252.272C97.4869 252.377 97.3459 252.236 97.4297 251.849C97.8116 250.971 98.1995 250.099 98.5933 249.236Z" fill="#FCEADE"/>
<path fill-rule="evenodd" clip-rule="evenodd" d="M207.905 249.237C208.025 249.225 208.143 249.237 208.258 249.272C208.655 250.126 209.043 250.985 209.421 251.849C209.512 252.217 209.383 252.358 209.034 252.273C208.627 251.436 208.239 250.589 207.87 249.731C207.821 249.559 207.832 249.395 207.905 249.237Z" fill="#FCEADF"/>
<path d="M155.513 112.555L145.562 114.313L245.108 192.066L249.09 187.76C251.524 185.127 251.121 180.961 248.227 178.844L158.57 113.265C157.691 112.622 156.586 112.365 155.513 112.555Z" fill="#6B2BA6"/>
<path opacity="0.29" d="M121.865 275.418C119.584 275.418 117.736 277.125 117.736 279.203C117.736 281.281 119.584 282.987 121.865 282.987L175.325 288.479C177.6 288.479 194.121 279.389 194.121 277.311C194.121 275.233 188.808 275.418 186.533 275.418H121.865Z" fill="black"/>
<path d="M268.967 253.671C269.477 253.358 270.039 253.14 270.626 253.025L292.637 248.746C297.076 247.883 298.18 242.038 294.361 239.616L251.468 212.406C250.455 211.764 249.245 211.507 248.058 211.682L190.312 220.224C189.9 220.285 189.497 220.397 189.113 220.558L149.579 237.106C148.529 237.545 147.661 238.329 147.117 239.328L129.779 271.182C127.965 274.514 130.377 278.572 134.171 278.572H226.936C227.858 278.572 228.763 278.317 229.549 277.835L268.967 253.671Z" fill="#0E001C" fill-opacity="0.25"/>
<path d="M239.979 251.486L228.348 272.723V278.888L239.979 257.652V251.486Z" fill="#89749D"/>
<path d="M228.348 272.721H63.4648V278.886H228.348V272.721Z" fill="#BBBCBE"/>
<path d="M203.719 123.219H183.194V159.526H203.719V123.219Z" fill="#9F54E5"/>
<path d="M203.719 123.219H183.194V127.329H203.719V123.219Z" fill="#6B2BA6"/>
<path d="M239.979 251.487C239.979 248.265 237.378 245.648 234.156 245.627L91.8687 244.718C84.8855 244.673 79.2006 250.322 79.2006 257.305L228.348 272.724L239.979 251.487Z" fill="#9F4ECE"/>
<path d="M228.348 272.721C228.348 265.911 222.827 260.391 216.017 260.391H75.7956C68.9855 260.391 63.4648 265.911 63.4648 272.721H228.348Z" fill="#C883EF"/>
<path d="M76.3691 173.9L66.5696 176.819L58.3929 183.588L50.2506 193.306H73.0298L76.3691 173.9Z" fill="#6218A8"/>
<path d="M233.82 245.662L223.558 262.446L217.742 170.992L233.82 178.185V245.662Z" fill="#D5B3EA"/>
<path opacity="0.2" d="M131.442 271.352C129.424 271.352 127.776 273.048 127.776 275.129C127.776 277.194 129.424 278.887 131.442 278.887H192.758C193.852 278.259 193.442 277.631 192.982 275.129C192.521 272.626 190.71 271.352 188.698 271.352H131.442Z" fill="black"/>
<path opacity="0.2" d="M125.257 264.502C123.254 264.502 121.617 266.044 121.617 267.936C121.617 269.813 123.254 271.352 125.257 271.352H187.297C187.297 270.496 187.297 269.813 187.297 267.936C187.297 266.044 184.098 264.502 182.101 264.502H125.257Z" fill="black"/>
<path d="M115.636 277.518C113.346 277.518 106.225 279.916 106.225 282.656C106.225 285.101 111.843 286.424 114.133 286.424C114.133 286.424 172.931 288.461 175.326 288.479C177.72 288.497 181.141 283.323 182.167 281.611C183.194 279.898 184.821 279.107 185.246 276.148C185.246 273.703 183.391 271.695 181.107 271.695H173.615L115.636 277.518Z" fill="#606060"/>
<path d="M123.67 265.529C121.618 265.529 111.355 270.83 111.355 272.722C111.355 274.6 115.768 276.833 117.821 276.833C117.821 276.833 172.588 278.203 173.956 277.86C175.325 277.518 177.035 275.462 178.745 273.407C180.456 271.352 180.748 270.841 180.748 268.963C180.748 267.071 179.081 265.529 177.035 265.529H123.67Z" fill="#787878"/>
<path d="M223.559 179.049L146.311 117.9L68.9381 179.049V262.445H223.546L223.559 179.049Z" fill="white"/>
<path opacity="0.2" d="M155.937 259.021C155.123 259.021 154.458 260.255 154.458 261.768C154.458 263.271 155.123 264.502 155.937 264.502H181.141C181.141 263.817 181.141 263.271 181.141 261.768C181.141 260.255 179.841 259.021 179.03 259.021H155.937Z" fill="black"/>
<path d="M69.2815 193.256L68.9395 177.148L143.691 118.141L159.249 128.176L69.2815 193.256Z" fill="#D5B3EA"/>
<path d="M150.012 124.067L68.9384 182.981L65.5176 179.898L145.564 120.984L150.012 124.067Z" fill="#6218A8"/>
<path d="M148.775 114.804C149.115 114.944 149.448 115.131 149.765 115.364L244.078 185.272C246.081 186.737 246.73 189.543 245.529 191.522C244.321 193.487 241.709 193.887 239.711 192.396L146.248 123.131L52.7837 192.4C50.7707 193.89 48.1742 193.49 46.9664 191.525C45.7555 189.546 46.4078 186.74 48.4145 185.275L142.727 115.367C144.275 114.233 147.036 113.968 148.775 114.804Z" fill="#C971FF"/>
<path d="M129.145 262.446V234.066C129.145 223.995 136.499 215.863 145.563 215.863C154.642 215.863 161.984 223.995 161.984 234.066V262.446H129.145Z" fill="#4E6B78"/>
<path d="M151.38 217.069C149.678 216.424 147.531 215.7 145.71 215.699C136.551 215.699 129.145 223.831 129.145 233.902V262.282H132.925V233.902C132.925 225.886 136.361 216.092 151.38 217.069Z" fill="#405967"/>
<path d="M124.013 259.365C122.223 259.365 115.804 260.735 115.804 264.161C115.804 266.454 118.977 266.901 120.767 266.901C120.767 266.901 169.852 269.298 170.194 269.298C170.536 269.298 173.615 267.243 174.641 266.216C175.668 265.188 176.01 264.846 176.01 262.79C176.01 260.735 173.705 259.365 171.905 259.365H124.013Z" fill="#939393"/>
<path d="M177.551 121.532C177.551 123.404 179.333 124.919 181.536 124.919H204.921C207.124 124.919 208.906 123.401 208.906 121.532C208.906 119.663 207.124 118.145 204.921 118.145H181.536C179.333 118.145 177.551 119.66 177.551 121.532Z" fill="#C971FF"/>
<path d="M118.713 261.076C116.923 261.076 115.46 262.917 115.46 265.18C115.46 267.473 116.923 269.297 118.713 269.297H169.676C171.473 269.297 172.93 267.473 172.93 265.18C172.93 262.917 171.476 261.076 169.676 261.076H118.713Z" fill="#BBBCBE"/>
<path d="M114.399 270.666C112.346 270.666 110.67 272.362 110.67 274.443C110.67 276.509 112.346 278.202 114.399 278.202H172.637C174.683 278.202 176.35 276.509 176.35 274.443C176.35 272.362 174.683 270.666 172.637 270.666H114.399Z" fill="#999999"/>
<path d="M110.026 279.572C107.735 279.572 105.881 281.58 105.881 284.025C105.881 286.47 107.735 288.478 110.026 288.478H174.947C177.231 288.478 179.086 286.47 179.086 284.025C179.086 281.58 177.231 279.572 174.947 279.572H110.026Z" fill="#7C7D7E"/>
<path d="M160.824 243.132C160.125 242.344 159.163 242.082 158.376 241.994C157.939 242.286 157.327 243.22 157.065 244.008C156.802 244.796 157.24 245.233 157.764 245.759L157.764 245.759C158.289 246.284 159.863 246.634 160.649 245.846C161.436 245.058 161.524 243.92 160.824 243.132Z" fill="#405967"/>
<ellipse cx="158.114" cy="243.284" rx="1.37395" ry="1.37573" fill="#A27629"/>
<ellipse cx="157.066" cy="243.658" rx="1.92353" ry="1.92602" fill="#E2AA49"/>
<path d="M157.547 245.524C158.041 245.056 158.349 244.393 158.349 243.659C158.349 242.924 158.041 242.261 157.547 241.793C158.377 242.007 158.99 242.761 158.99 243.658C158.99 244.556 158.377 245.31 157.547 245.524Z" fill="#B98833"/>
<path d="M156.745 242.086C156.013 242.235 155.463 242.882 155.463 243.659C155.463 244.018 155.581 244.349 155.779 244.617C155.891 244.766 156.026 244.573 155.948 244.403C155.842 244.177 155.783 243.925 155.783 243.659C155.783 242.973 156.174 242.378 156.745 242.086Z" fill="#D9D9D9"/>
<path d="M79.8845 229.86C79.8845 233.767 83.2601 236.938 87.4353 236.938H107.913C112.089 236.938 115.461 233.763 115.461 229.86V201.543C115.461 197.62 112.092 194.465 107.913 194.465H87.4353C83.2633 194.465 79.8845 197.608 79.8845 201.543V229.86Z" fill="#28A6DE"/>
<rect x="96.3047" y="194.465" width="2.73665" height="42.4729" fill="#D1D5FF"/>
<rect x="79.8848" y="217.07" width="2.74019" height="35.5764" transform="rotate(-90 79.8848 217.07)" fill="#D1D5FF"/>
<path d="M173.615 229.86C173.615 233.767 176.991 236.938 181.166 236.938H201.644C205.819 236.938 209.191 233.763 209.191 229.86V201.543C209.191 197.62 205.822 194.465 201.644 194.465H181.166C176.994 194.465 173.615 197.608 173.615 201.543V229.86Z" fill="#28A6DE"/>
<rect x="173.613" y="217.07" width="2.74019" height="35.5764" transform="rotate(-90 173.613 217.07)" fill="#D1D5FF"/>
<rect x="190.035" y="194.465" width="2.73665" height="42.4729" fill="#D1D5FF"/>
<ellipse cx="146.247" cy="168.43" rx="17.7882" ry="17.8112" fill="#28A6DE"/>
<path d="M152.405 168.431C152.405 171.836 149.648 174.596 146.247 174.596C142.847 174.596 140.09 171.836 140.09 168.431C140.09 165.026 142.847 162.266 146.247 162.266C149.648 162.266 152.405 165.026 152.405 168.431ZM142.553 168.431C142.553 170.474 144.207 172.13 146.247 172.13C148.288 172.13 149.942 170.474 149.942 168.431C149.942 166.388 148.288 164.732 146.247 164.732C144.207 164.732 142.553 166.388 142.553 168.431Z" fill="#D1D5FF"/>
<path d="M165.405 168.431C165.405 179.025 156.828 187.613 146.248 187.613C135.668 187.613 127.092 179.025 127.092 168.431C127.092 157.838 135.668 149.25 146.248 149.25C156.828 149.25 165.405 157.838 165.405 168.431ZM129.965 168.431C129.965 177.436 137.255 184.735 146.248 184.735C155.241 184.735 162.531 177.436 162.531 168.431C162.531 159.427 155.241 152.127 146.248 152.127C137.255 152.127 129.965 159.427 129.965 168.431Z" fill="#D1D5FF"/>
<rect x="144.879" y="150.619" width="2.73665" height="13.0159" fill="#D1D5FF"/>
<rect x="128.459" y="169.801" width="2.74019" height="12.9991" transform="rotate(-90 128.459 169.801)" fill="#D1D5FF"/>
<rect x="144.879" y="172.541" width="2.73665" height="13.0159" fill="#D1D5FF"/>
<rect x="150.354" y="169.801" width="2.74019" height="12.9991" transform="rotate(-90 150.354 169.801)" fill="#D1D5FF"/>
</svg>
