<svg width="100" height="100" viewBox="0 0 100 100" fill="none" xmlns="http://www.w3.org/2000/svg">
<g clip-path="url(#clip0_1877_11952)">
<path fill-rule="evenodd" clip-rule="evenodd" d="M90.1356 68.248C90.1334 68.2821 90.13 68.3152 90.1265 68.3493C89.8043 71.6373 88.5596 74.503 86.396 76.9428C86.1933 74.2753 85.6102 71.6943 84.6491 69.1998C84.4828 68.8104 84.2983 68.437 84.0968 68.0806C84.0296 67.9622 83.9601 67.845 83.8884 67.73C83.7449 67.4988 83.5935 67.2746 83.4352 67.0582C83.3555 66.9489 83.2735 66.8431 83.1903 66.7383C82.9398 66.4241 82.6711 66.1247 82.3841 65.8423C81.8102 65.2765 81.1645 64.7744 80.4459 64.3361C78.8084 63.3342 77.1253 62.4359 75.3921 61.6389C75.1883 61.5444 74.9833 61.4522 74.7783 61.3611C75.3409 60.5004 75.9228 59.6511 76.5263 58.812C76.721 58.516 76.8679 58.2086 76.9647 57.8887C76.9989 57.7748 77.0274 57.6598 77.049 57.5437C77.0536 57.5221 77.057 57.5016 77.0604 57.4811C77.0638 57.4651 77.0661 57.4503 77.0684 57.4344C77.0718 57.4116 77.0741 57.39 77.0775 57.3672C77.0866 57.308 77.0923 57.2488 77.0968 57.1885C77.0991 57.1623 77.1014 57.1361 77.1025 57.1099C77.1071 57.0393 77.1093 56.9665 77.1093 56.8936C77.1093 56.8367 77.1082 56.7809 77.1048 56.724V56.7194C77.1025 56.6625 77.098 56.6033 77.0923 56.5452C77.008 56.2504 76.8361 56.0295 76.573 55.8849C76.4785 55.8211 76.384 55.7585 76.2894 55.6959C76.6778 55.1335 77.008 54.5358 77.2813 53.9016C77.3451 53.4929 77.3451 53.083 77.2813 52.6743C77.1002 52.3191 76.8645 52.0048 76.573 51.7293C76.8941 51.1362 77.0353 50.5077 76.9977 49.8405C76.8748 49.3066 76.5605 48.9605 76.0537 48.8022C75.9 48.8136 75.7576 48.8603 75.629 48.9434C75.194 49.3305 74.8159 49.7563 74.4948 50.2185V50.124C74.5767 49.9145 74.6086 49.6948 74.5893 49.4637C74.1975 48.9548 73.7249 48.8751 73.1726 49.2269C72.905 49.4159 72.6534 49.6208 72.4176 49.8405C72.0396 49.9043 71.6775 49.9043 71.3313 49.8405C71.2368 49.935 71.1422 50.0295 71.0477 50.124C71.0454 50.099 71.0432 50.0751 71.0397 50.0512C71.0375 50.0329 71.0352 50.0147 71.0318 49.9965C71.0306 49.984 71.0284 49.9703 71.0249 49.9578C71.0227 49.9453 71.0204 49.9339 71.0181 49.9214C71.0113 49.8884 71.0033 49.8565 70.9942 49.8246C70.9908 49.8087 70.9862 49.7927 70.9805 49.7768C70.976 49.7608 70.9703 49.7449 70.9646 49.7301C70.9578 49.7085 70.9498 49.6868 70.9407 49.6663C70.9304 49.6379 70.9179 49.6094 70.9031 49.581C70.8906 49.5525 70.8769 49.524 70.861 49.4967C70.845 49.4694 70.8291 49.4421 70.812 49.4159C70.8427 49.3851 70.8746 49.3533 70.9054 49.3214C70.6355 49.0379 70.5102 48.7237 70.5284 48.3776C70.5171 48.3309 70.5034 48.2853 70.4875 48.2409C70.4818 48.2239 70.4749 48.2068 70.4681 48.1897C70.4521 48.1487 70.4351 48.11 70.4146 48.0713C70.4043 48.0497 70.3929 48.028 70.3804 48.0075C70.3724 47.9927 70.3633 47.9779 70.3542 47.9643C70.3474 47.9529 70.3405 47.9415 70.3326 47.9301C70.3064 47.8891 70.2768 47.8493 70.2449 47.8106C70.3702 47.6364 70.3554 47.5897 70.1971 47.6694C70.1925 47.6444 70.188 47.6204 70.1834 47.5954C70.1811 47.5817 70.1777 47.5669 70.1743 47.5533C70.1675 47.5203 70.1595 47.4872 70.1504 47.4554C70.1435 47.428 70.1356 47.4007 70.1287 47.3745C70.1037 47.2903 70.0741 47.2094 70.0411 47.1297C70.0171 47.0728 69.9898 47.017 69.9613 46.9612C70.0262 46.8827 70.0285 46.8121 69.9659 46.7483C69.9625 46.7438 69.9591 46.7404 69.9545 46.737C69.9465 46.729 69.9386 46.7222 69.9295 46.7165C69.9203 46.7096 69.9112 46.7039 69.901 46.6971C69.8907 46.6903 69.8794 46.6846 69.8668 46.6778C69.9101 46.6379 69.942 46.5912 69.9613 46.5354C69.9295 46.4819 69.8976 46.4273 69.8668 46.3726C69.8053 46.2633 69.7461 46.1518 69.6892 46.0391C69.6607 45.9833 69.6322 45.9263 69.6049 45.8694C69.5503 45.7556 69.4967 45.6406 69.4455 45.5233C69.3942 45.406 69.3464 45.2865 69.2997 45.167C69.3316 45.1351 69.3635 45.1032 69.3942 45.0725C68.7429 43.0186 68.3022 40.9408 68.0721 38.8391C68.0095 38.6513 67.9469 38.4623 67.8831 38.2733C67.915 38.2414 67.9469 38.2095 67.9776 38.1788C67.9036 37.9647 67.8398 37.7439 67.7886 37.5173C67.7852 37.5093 67.7817 37.5014 67.7772 37.4934C67.7726 37.4854 67.7692 37.4786 67.7647 37.4706C67.759 37.4604 67.7521 37.4501 67.7442 37.441C67.7294 37.4205 67.7123 37.4012 67.6929 37.3852C67.6861 37.3795 67.6804 37.375 67.6736 37.3704C67.6645 37.3636 67.6553 37.3579 67.6462 37.3522C67.6394 37.3477 67.6314 37.3431 67.6235 37.3397C67.6155 37.3351 67.6075 37.3317 67.5995 37.3283C67.6064 37.326 67.6121 37.3237 67.6189 37.3215C67.6257 37.3192 67.6326 37.3169 67.6383 37.3146C67.6747 37.2998 67.7066 37.2805 67.7339 37.2554C67.7419 37.2486 67.7487 37.2418 67.7544 37.2338C67.7681 37.2201 67.7783 37.2042 67.7886 37.1871C69.5024 36.3549 70.73 35.0638 71.4725 33.315C71.7458 32.5818 71.9348 31.8259 72.0396 31.0494C72.3311 29.5944 71.9849 28.3204 70.9999 27.224C70.5182 26.8301 69.983 26.7208 69.3942 26.8938C69.2371 26.9178 69.0947 26.9804 68.9695 27.0828C68.6723 28.0824 68.4047 29.09 68.1667 30.1044C67.9662 30.5678 67.7624 31.0403 67.5529 31.5208C67.5096 31.465 67.4936 31.4023 67.505 31.3318C67.7624 28.498 67.7464 25.6654 67.4583 22.8339C64.9212 21.0351 62.3237 19.3353 59.6658 17.7345C58.74 16.9501 57.7948 16.1793 56.8326 15.4199C55.9568 14.5934 55.1392 13.727 54.3762 12.8241C53.9094 12.042 53.406 11.286 52.8651 10.5573C52.5668 9.89814 52.2684 9.23667 51.9678 8.57405C51.7275 7.96609 51.5692 7.33649 51.4963 6.68527C50.8871 8.90878 49.9271 10.9547 48.6152 12.8241C46.6623 15.1364 44.4257 17.1197 41.9091 18.7728C39.9937 19.9193 38.0726 21.0681 36.1469 22.2191C35.2712 22.7041 34.391 23.1607 33.5027 23.5887C33.4105 23.9793 33.3775 24.3891 33.4082 24.8161C33.275 26.7686 33.3057 28.7189 33.5027 30.6714C33.3183 30.4255 33.1611 30.1101 33.0302 29.7265C32.7523 28.9204 32.4221 28.1325 32.0383 27.3663C31.2321 26.706 30.3666 26.6274 29.4408 27.1295C28.8908 27.5861 28.5765 28.1678 28.4967 28.8771C28.4216 28.9819 28.3749 29.1071 28.3544 29.2551C28.3077 29.8528 28.2918 30.4506 28.3077 31.0494C28.6163 33.0828 29.4977 34.8145 30.9519 36.2433C31.043 36.4334 31.1683 36.6065 31.33 36.7625C31.2321 36.9048 31.248 37.0459 31.3778 37.1871C31.6443 37.0847 31.6602 36.9742 31.4245 36.857C31.593 36.808 31.7513 36.8387 31.8971 36.9515C31.8709 37.1177 31.8413 37.2816 31.8094 37.4456C31.8026 37.4786 31.7957 37.5116 31.79 37.5446C31.7684 37.6551 31.7445 37.7655 31.7206 37.8748C31.7183 37.8896 31.7149 37.9055 31.7115 37.9203C31.6853 38.0342 31.6591 38.1469 31.6318 38.2596C31.6181 38.3165 31.6044 38.3723 31.5896 38.4281C31.5896 38.4338 31.5873 38.4383 31.5851 38.4429C31.5862 38.444 31.5851 38.444 31.5851 38.444C31.5646 38.5226 31.5441 38.6012 31.5224 38.6797C31.4917 38.797 31.4587 38.9131 31.4245 39.0281C31.4678 39.0679 31.4997 39.1146 31.519 39.1704C31.0111 41.7924 30.2709 44.4041 29.2996 47.0079C28.86 47.6933 28.5298 48.4322 28.3077 49.2269C28.3396 49.2588 28.3703 49.2906 28.4022 49.3214C28.2667 49.4694 28.1255 49.6106 27.9775 49.746C27.8693 50.0432 27.8067 50.3267 27.7884 50.5965C27.4104 50.2185 27.0323 49.8405 26.6542 49.4637C26.6087 49.3737 26.5939 49.2793 26.6075 49.1802C26.5483 49.1745 26.4891 49.1643 26.4322 49.1517C26.3752 49.1381 26.3194 49.1221 26.2636 49.1028C26.209 49.0823 26.1543 49.0595 26.1019 49.0333C26.0484 49.0071 25.9972 48.9764 25.9459 48.9434C25.5553 48.8648 25.3037 48.8796 25.1909 48.9912C24.7366 49.2815 24.5942 49.6914 24.7662 50.2185C24.7252 50.1639 24.6842 50.1104 24.6409 50.0569C24.6272 50.0386 24.6136 50.0204 24.5988 50.0033C24.5703 49.9681 24.5407 49.9328 24.5099 49.8975C24.4974 49.8815 24.4838 49.8656 24.4689 49.8496C24.4245 49.7973 24.379 49.746 24.3323 49.6959C24.2298 49.5855 24.1239 49.4796 24.0134 49.3772C23.8996 49.2724 23.7823 49.1711 23.6604 49.0743C23.6046 49.0299 23.5488 48.9855 23.4908 48.9434C22.8918 48.8159 22.4978 49.0527 22.3099 49.6527C22.2188 50.4064 22.3611 51.1157 22.7346 51.7771C22.672 51.8352 22.6128 51.8944 22.5581 51.9548C22.5308 51.9855 22.5034 52.014 22.4784 52.0447C22.4533 52.0754 22.4283 52.1062 22.4055 52.1369C22.3816 52.1677 22.3588 52.1973 22.3372 52.2291C22.3349 52.2326 22.3315 52.236 22.3292 52.2405C22.3099 52.2678 22.2916 52.2952 22.2757 52.3225C22.2552 52.3544 22.2358 52.3851 22.2199 52.417C22.2017 52.4477 22.1846 52.4796 22.1698 52.5115C22.1379 52.5764 22.1106 52.6401 22.0867 52.7062C22.0741 52.7392 22.0639 52.7711 22.0548 52.8041C22.0434 52.8405 22.0343 52.8769 22.0252 52.9134C22.0195 52.9396 22.0138 52.9658 22.0092 52.9919C22.0092 52.9999 22.0058 53.009 22.0047 53.017C22.0012 53.0398 21.9978 53.0625 21.9956 53.0853C21.9933 53.0967 21.9921 53.1069 21.991 53.1183C21.9876 53.1479 21.9853 53.1787 21.9842 53.2083C21.9819 53.2424 21.9808 53.2766 21.9808 53.3119C21.9808 53.3437 21.9819 53.3756 21.9842 53.4075C21.983 53.4212 21.9842 53.436 21.9864 53.4508C21.9876 53.469 21.9887 53.4861 21.991 53.5043C21.9921 53.5179 21.9933 53.5316 21.9956 53.5453C22.0001 53.584 22.0058 53.6227 22.0126 53.6614C22.0206 53.7024 22.0286 53.7445 22.04 53.7866C22.0457 53.8139 22.0525 53.8401 22.0605 53.8675C22.0616 53.8697 22.0616 53.8731 22.0627 53.8766C22.0719 53.9073 22.0821 53.9392 22.0924 53.9711C22.0969 53.9881 22.1026 54.0052 22.1094 54.0212C22.1128 54.0325 22.1174 54.0451 22.122 54.0576C22.1242 54.0633 22.1265 54.069 22.1288 54.0747C22.139 54.1031 22.1504 54.1305 22.1618 54.1589C22.1709 54.1805 22.18 54.201 22.1891 54.2227C22.1983 54.2443 22.2085 54.2659 22.2188 54.2876C22.2313 54.3149 22.2438 54.3422 22.2575 54.3684C22.2746 54.4014 22.2916 54.4344 22.3099 54.4686C22.6298 54.8978 22.9293 55.3384 23.2072 55.7904C23.1115 55.7779 23.0204 55.7779 22.9339 55.7893C22.8861 55.795 22.8394 55.8052 22.795 55.82C22.7756 55.8257 22.7562 55.8325 22.738 55.8394C22.705 55.8519 22.672 55.8678 22.6401 55.8849H22.4511C22.0525 56.4667 21.9739 57.0963 22.2153 57.7737C22.4123 58.1972 22.6321 58.6071 22.877 59.001C23.5773 59.9312 24.2549 60.8761 24.9074 61.8336C19.5871 63.2966 16.2027 66.6962 14.7542 72.0324C14.2873 73.6753 13.957 75.3432 13.7623 77.0373C11.3607 74.4369 10.0386 71.3516 9.79486 67.7835C9.75273 64.2325 10.4132 60.8329 11.7786 57.5847C11.7672 57.5266 11.7353 57.4959 11.6841 57.4902C12.2238 56.2549 12.8376 55.0583 13.5254 53.9016C14.9591 51.7908 16.4384 49.713 17.9655 47.6694C18.8184 46.3408 19.6212 44.9871 20.374 43.6083C20.3888 43.4524 20.4525 43.326 20.563 43.2303C21.802 40.8042 22.746 38.2539 23.3962 35.5818C23.3928 35.4953 23.3598 35.4327 23.3017 35.3928C23.9895 32.3018 24.65 29.2175 25.2854 26.139C25.6533 24.0134 26.0951 21.9037 26.6075 19.8112C26.71 19.7998 26.7727 19.7372 26.7966 19.6222C27.4058 16.9296 28.2884 14.3326 29.4408 11.8325C29.385 11.7881 29.3223 11.7721 29.2517 11.7847C30.3996 9.26741 32.0053 7.07919 34.0687 5.22228C36.0297 3.69098 38.519 1.91149 42.2655 0.767283C46.012 -0.376921 57.2448 -0.17085 60.1167 0.918705C62.9887 2.00826 64.6934 3.21281 66.0884 4.46631C69.5628 8.05945 71.8141 12.3255 72.8424 17.262C73.4813 20.7174 74.0643 24.1785 74.5893 27.6498C75.088 30.158 75.6073 32.6775 76.1482 35.2038C76.45 36.2843 76.7814 37.3545 77.1401 38.4144C77.8393 40.4763 78.7697 42.4266 79.9266 44.2698C81.8045 47.0296 83.7574 49.7358 85.7822 52.3908C86.8856 53.9062 87.7841 55.4796 88.4787 57.1099C89.9523 60.5665 90.5046 64.2791 90.1356 68.248Z" fill="#09162A"/>
<path fill-rule="evenodd" clip-rule="evenodd" d="M38.8863 5.83638C39.6572 5.62348 40.1287 5.89103 40.3029 6.63903C40.2392 7.11493 40.0809 7.55553 39.8303 7.96084C40.271 7.99272 40.7117 8.02346 41.1524 8.05534C41.3494 8.13048 41.5225 8.23978 41.6717 8.38551C41.8106 8.9115 41.7002 9.36804 41.3415 9.75514C40.295 10.6921 39.0822 11.0542 37.7054 10.8413C37.6929 10.3563 37.7715 9.88493 37.9411 9.42497C37.4048 9.49328 36.8696 9.5411 36.3355 9.56614L36.1943 9.42497C36.061 8.72251 36.2182 8.09291 36.6669 7.53618C37.3057 6.81778 38.0459 6.2508 38.8863 5.83638Z" fill="#212F49"/>
<path fill-rule="evenodd" clip-rule="evenodd" d="M71.0014 27.2246C70.5197 26.8296 69.9845 26.7203 69.3957 26.8944C69.2375 26.9184 69.0962 26.981 68.971 27.0834C68.6738 28.0831 68.4062 29.0906 68.1681 30.1051C68.1613 30.146 68.1773 30.1779 68.2148 30.1995C68.561 29.5529 69.0655 29.3639 69.726 29.6326C69.9947 29.9992 70.1052 30.4079 70.0562 30.8599C70.0198 33.1096 68.9493 34.5885 66.8449 35.2978C67.0134 33.9544 67.2344 32.6325 67.5065 31.3312C67.7639 28.4975 67.748 25.6649 67.4598 22.8322C64.9227 21.0345 62.3252 19.3347 59.6673 17.7328C58.7403 16.9496 57.7963 16.1776 56.8341 15.4194C55.9583 14.5917 55.1407 13.7264 54.3777 12.8224C53.9097 12.0403 53.4064 11.2855 52.8666 10.5557C52.5683 9.89647 52.2699 9.235 51.9693 8.57238C51.7278 7.96442 51.5707 7.33482 51.4967 6.68359C50.8886 8.90597 49.9275 10.953 48.6156 12.8213C46.6626 15.1336 44.4261 17.1169 41.9094 18.77C39.994 19.9165 38.0741 21.0653 36.1473 22.2163C35.2716 22.7013 34.3902 23.1579 33.5031 23.5859C33.4109 23.9764 33.379 24.3863 33.4086 24.8132C33.2754 26.7647 33.3061 28.7161 33.5031 30.6675C33.3186 30.4216 33.1626 30.1062 33.0305 29.7236C32.7527 28.9176 32.4224 28.1297 32.0387 27.3624C31.2324 26.702 30.367 26.6235 29.4411 27.1267C28.89 27.5832 28.5757 28.165 28.4971 28.8732C28.422 28.9779 28.3753 29.1032 28.3559 29.2512C28.3092 29.8489 28.2921 30.4466 28.3092 31.0455C28.6178 33.08 29.4992 34.8105 30.9534 36.2393C31.9293 36.9623 33.0305 37.3391 34.2592 37.3722C34.676 38.4378 35.1794 39.4454 35.7704 40.3938C37.269 43.1216 39.2527 45.451 41.7204 47.382C43.2122 48.4419 44.8178 49.3083 46.5374 49.9789C48.5758 50.7554 50.654 50.8817 52.771 50.3569C55.0143 49.692 57.0926 48.7004 59.0045 47.382C62.6657 44.949 65.0901 41.612 66.2778 37.3722C66.7925 37.3858 67.2959 37.3221 67.7889 37.1832C69.5028 36.3509 70.7304 35.0598 71.4728 33.3111C71.7461 32.5779 71.9352 31.8219 72.0399 31.0443C72.3315 29.5904 71.9853 28.3153 71.0014 27.2201V27.2246Z" fill="#FDCCA3"/>
<path fill-rule="evenodd" clip-rule="evenodd" d="M57.3047 6.8751C57.3753 6.77377 57.4698 6.75783 57.5882 6.82842C57.9902 7.01058 58.3683 7.23146 58.7213 7.4899C61.476 9.66218 64.2158 11.8504 66.9386 14.0534C66.8919 14.0853 66.8441 14.116 66.7974 14.1479C65.5117 13.5217 64.299 12.7828 63.1613 11.929C61.1457 10.3089 59.1939 8.62499 57.3058 6.87738L57.3047 6.8751Z" fill="#22314B"/>
<path fill-rule="evenodd" clip-rule="evenodd" d="M46.1603 9.04688C46.2741 9.22904 46.2582 9.41803 46.1136 9.61385C44.2164 11.8886 42.1848 14.0449 40.0212 16.0829C39.0396 16.8434 38.0329 17.5675 36.9989 18.2552C36.302 18.7128 35.5789 19.0908 34.8262 19.388C36.9989 17.5937 39.1705 15.7994 41.3433 14.0051C42.9444 12.3258 44.5501 10.6738 46.1603 9.04688Z" fill="#23324C"/>
<path fill-rule="evenodd" clip-rule="evenodd" d="M29.2536 11.7854C29.323 11.7729 29.3868 11.7888 29.4426 11.8321C28.289 14.3322 27.4076 16.9292 26.7984 19.6229C26.7756 19.7379 26.7119 19.8005 26.6094 19.8119C27.2448 17.051 28.1262 14.3755 29.2536 11.7854Z" fill="#0F1218"/>
<path fill-rule="evenodd" clip-rule="evenodd" d="M39.6048 22.3515C41.19 21.9796 42.8024 21.6838 44.4423 21.4653C45.1274 21.4069 45.8115 21.4189 46.4946 21.5013C46.8727 21.9109 46.9147 22.3519 46.6221 22.8252C46.2729 23.1161 45.8763 23.3109 45.4318 23.4083C44.7103 23.468 43.9909 23.539 43.275 23.6184C40.7693 23.8161 38.3325 24.3421 35.9665 25.198C36.8008 23.7738 38.013 22.8257 39.6037 22.352L39.6048 22.3515Z" fill="#0D1220"/>
<path fill-rule="evenodd" clip-rule="evenodd" d="M54.7863 21.4183C54.8446 21.2162 54.9715 21.1021 55.1638 21.077C58.2045 21.2493 61.076 22.0421 63.7808 23.4531C64.1211 23.7603 64.4619 24.0665 64.8022 24.3737C65.7735 25.6196 65.6544 25.754 64.4472 24.778C63.9003 24.5586 63.3431 24.3734 62.7745 24.2219C60.5568 23.7743 58.3285 23.3848 56.0904 23.054C55.7233 22.9441 55.3837 22.7779 55.0727 22.556C54.7389 22.2355 54.6444 21.8559 54.7878 21.4178L54.7863 21.4183Z" fill="#0C1221"/>
<path fill-rule="evenodd" clip-rule="evenodd" d="M54.6609 23.4943C54.4992 23.6013 54.4366 23.7585 54.4719 23.9668C54.4093 24.1433 54.3466 24.3323 54.2829 24.5338C54.1029 23.9065 54.2134 23.3395 54.6131 22.834C54.6598 23.0526 54.6757 23.2723 54.6598 23.4955L54.6609 23.4943Z" fill="#F19A60"/>
<path fill-rule="evenodd" clip-rule="evenodd" d="M48.2374 22.834C48.4424 23.5695 48.4743 24.3254 48.332 25.1008H47.8594C47.9061 24.3311 48.0325 23.5752 48.2374 22.834Z" fill="#F29459"/>
<path fill-rule="evenodd" clip-rule="evenodd" d="M53.5263 22.9277C53.8885 23.5721 53.983 24.2643 53.8099 25.0055C53.7313 24.911 53.6527 24.8165 53.5742 24.722C53.5275 24.1243 53.5115 23.5266 53.5275 22.9277H53.5263Z" fill="#F2965D"/>
<path fill-rule="evenodd" clip-rule="evenodd" d="M45.2146 28.3108C44.6851 27.5127 43.9608 26.9935 43.0418 26.7522C44.3537 27.7586 44.6213 29.0019 43.8447 30.4819C43.1216 31.5248 42.1923 31.7605 41.0581 31.1901C39.8966 30.0106 39.7235 28.7036 40.5389 27.2713C40.8475 26.9514 41.2096 26.7157 41.6252 26.5632C41.1834 26.5472 40.7427 26.5791 40.3031 26.6577C39.4821 26.874 38.6633 27.0789 37.8468 27.2713C37.676 27.1791 37.5496 27.0368 37.4688 26.8467C39.4183 25.8607 41.4328 25.7036 43.5133 26.3742C44.3993 26.693 45.0449 27.2759 45.4492 28.1207C45.5107 28.4839 45.4321 28.5465 45.2135 28.3097L45.2146 28.3108Z" fill="#040403"/>
<path fill-rule="evenodd" clip-rule="evenodd" d="M62.8776 27.0828C61.871 26.7082 60.8324 26.5352 59.7608 26.5636C60.7402 27.0418 61.2446 27.8285 61.272 28.9249C61.2754 30.2114 60.6775 31.0607 59.4773 31.474C58.2224 31.5423 57.4514 30.9605 57.1633 29.7275C56.9014 28.5048 57.2635 27.5143 58.2497 26.7526C57.2556 26.92 56.5632 27.471 56.1715 28.4057C56.0633 28.3784 55.9995 28.2998 55.9824 28.1701C56.2865 27.2684 56.8843 26.6388 57.7771 26.2813C59.8554 25.6312 61.8698 25.7883 63.8217 26.7537C63.5791 27.0486 63.2637 27.1579 62.8776 27.0839V27.0828Z" fill="#050404"/>
<path fill-rule="evenodd" clip-rule="evenodd" d="M62.878 27.0819C62.9452 27.1673 63.0397 27.1992 63.1616 27.1764C63.7367 29.0345 63.2015 30.4986 61.5559 31.5676C60.2748 32.2086 58.9846 32.2405 57.683 31.6621C57.2753 31.349 56.9758 30.9563 56.7857 30.4815C56.5329 29.8018 56.3279 29.1085 56.1719 28.4037C56.5625 27.469 57.256 26.918 58.2501 26.7506C57.2639 27.5111 56.9018 28.5028 57.1637 29.7255C57.4518 30.9585 58.2228 31.5415 59.4777 31.472C60.678 31.0587 61.2758 30.2083 61.2724 28.9229C61.2439 27.8276 60.7406 27.0409 59.7613 26.5616C60.8328 26.5331 61.8714 26.7062 62.878 27.0808V27.0819Z" fill="#FCFBFB"/>
<path fill-rule="evenodd" clip-rule="evenodd" d="M45.2151 28.311C44.7129 31.9303 42.7929 32.9846 39.4529 31.4749C38.0056 30.4264 37.4704 29.026 37.8473 27.2727C38.6638 27.0803 39.4825 26.8753 40.3036 26.659C40.7443 26.5805 41.185 26.5486 41.6257 26.5645C41.2101 26.7171 40.8479 26.9528 40.5393 27.2727C39.7251 28.7061 39.8982 30.0119 41.0586 31.1914C42.1928 31.7618 43.1209 31.5262 43.8451 30.4833C44.6218 29.0032 44.3542 27.76 43.0423 26.7535C43.9613 26.9938 44.6844 27.5129 45.2151 28.3122V28.311Z" fill="#FBFBFA"/>
<path fill-rule="evenodd" clip-rule="evenodd" d="M67.5065 31.3318C67.494 31.4012 67.5099 31.465 67.5532 31.5208C67.7627 31.0403 67.9677 30.5678 68.167 30.1045C68.1613 30.1454 68.1761 30.1773 68.2137 30.199C68.561 29.5523 69.0643 29.3633 69.7248 29.632C69.9936 29.9974 70.104 30.4073 70.0551 30.8593C70.0186 33.109 68.9482 34.5879 66.8438 35.2972C67.0134 33.9538 67.2332 32.632 67.5054 31.3306L67.5065 31.3318Z" fill="#F2A474"/>
<path fill-rule="evenodd" clip-rule="evenodd" d="M31.3316 29.2542C31.5662 29.2348 31.7871 29.2827 31.9932 29.3954C32.4818 29.9464 32.9692 30.4974 33.4577 31.0485C33.5966 32.4443 33.8016 33.8287 34.0715 35.2041C34.0396 35.2667 34.0089 35.3304 33.977 35.393C32.525 34.8693 31.4387 33.9255 30.7178 32.5604C30.2771 31.332 30.4821 30.2299 31.3316 29.2553V29.2542Z" fill="#F3A777"/>
<path fill-rule="evenodd" clip-rule="evenodd" d="M51.4494 28.4992H51.8275C51.799 30.1705 51.8457 31.8384 51.9687 33.5041C52.1486 33.9572 52.4002 34.3671 52.7248 34.7314C52.9218 36.5177 52.119 37.3523 50.3163 37.2338C50.2207 37.1348 50.2047 37.0244 50.2696 36.9037L50.5999 36.5735C51.0041 36.4346 51.3822 36.2456 51.7329 36.0065C51.9311 35.8312 52.0245 35.6115 52.0165 35.3451C51.9049 34.7917 51.7011 34.2726 51.4027 33.7864C51.3674 32.024 51.3833 30.2605 51.4494 28.498V28.4992Z" fill="#F19258"/>
<path fill-rule="evenodd" clip-rule="evenodd" d="M23.3012 35.3926C23.3604 35.4324 23.3912 35.495 23.3957 35.5816C22.7466 38.2548 21.8015 40.8039 20.5625 43.2301C21.7161 40.7026 22.6294 38.0897 23.3012 35.3926Z" fill="#10131B"/>
<path fill-rule="evenodd" clip-rule="evenodd" d="M49.4649 40.6821C51.2151 40.4692 52.8834 40.7367 54.4709 41.4847C55.2691 41.9458 55.2213 42.2134 54.3296 42.2874C52.1444 41.8092 49.9557 41.7944 47.7647 42.2407C47.324 42.3033 46.8833 42.3033 46.4426 42.2407C46.3128 42.0005 46.3754 41.8115 46.6316 41.6737C47.5404 41.2024 48.4844 40.8722 49.4649 40.6821Z" fill="#C52A29"/>
<path fill-rule="evenodd" clip-rule="evenodd" d="M67.7888 37.1875C67.7489 37.2558 67.6863 37.3025 67.5998 37.3287C67.6875 37.3651 67.7501 37.4289 67.7888 37.5177C67.84 37.7442 67.9027 37.9651 67.9778 38.1791L67.8833 38.2736C67.946 38.4626 68.0097 38.6516 68.0724 38.8406C68.3024 40.9423 68.7431 43.019 69.3945 45.0728L69.2999 45.1673C69.4856 45.6489 69.7065 46.1055 69.9616 46.537C69.9422 46.5927 69.9103 46.6394 69.867 46.6781C70.0208 46.759 70.0515 46.8535 69.9616 46.9616C70.0766 47.1836 70.1551 47.4193 70.1973 47.6698C70.3544 47.5901 70.3704 47.6379 70.244 47.8109C70.3806 47.9772 70.4751 48.1662 70.5275 48.3779C70.5093 48.724 70.6357 49.0394 70.9056 49.3218L70.8111 49.4163C70.9489 49.6303 71.0274 49.866 71.0468 50.1244L71.3304 49.8409C71.6765 49.9035 72.0387 49.9035 72.4167 49.8409C71.9407 50.3168 71.5 50.82 71.0946 51.3517C69.6359 52.587 68.2511 53.9088 66.9381 55.3183C66.2458 56.105 65.5523 56.8917 64.8599 57.6796C64.639 57.6169 64.4192 57.5532 64.1983 57.4906C63.9535 57.4314 63.7337 57.3209 63.5367 57.1604C62.6314 56.2564 61.7978 55.2967 61.0337 54.28C60.6465 53.8451 60.2217 53.4682 59.7583 53.1472C59.5635 53.1483 59.3745 53.1802 59.1912 53.2416H59.0966C59.0169 51.2914 58.9862 49.34 59.0021 47.3874C62.6632 44.9544 65.0877 41.6174 66.2754 37.3776C66.7901 37.3902 67.2934 37.3275 67.7865 37.1886L67.7888 37.1875Z" fill="#0B1424"/>
<path fill-rule="evenodd" clip-rule="evenodd" d="M41.7207 47.3867C43.2125 48.4478 44.8181 49.3131 46.5377 49.9837C48.576 50.7601 50.6543 50.8865 52.7712 50.3616C55.0146 49.6968 57.0928 48.7051 59.0048 47.3867C58.9889 49.3393 59.0196 51.2907 59.0993 53.2409V53.7134C58.6712 53.833 58.2624 54.006 57.8718 54.2326C57.3206 54.4478 56.7546 54.6049 56.1716 54.7051C53.0423 55.0432 50.02 54.6333 47.1036 53.4778C45.3442 52.748 43.6589 51.8816 42.0509 50.8808C42.0316 51.0277 41.9838 51.1541 41.9097 51.2588C41.9359 49.9632 41.8733 48.6721 41.7207 47.3867Z" fill="#EE9C6D"/>
<path fill-rule="evenodd" clip-rule="evenodd" d="M70.0084 62.4953C69.9161 62.6148 69.8842 62.7401 69.9138 62.8733C71.9408 60.9412 73.7982 58.8634 75.4869 56.6411L76.1952 55.9329C76.3171 55.8862 76.4435 55.8703 76.5733 55.8862C76.8364 56.0308 77.0083 56.2517 77.0926 56.5477C77.17 57.3697 76.981 58.1257 76.5255 58.8145C75.9219 59.6536 75.34 60.5029 74.7786 61.3636C74.2161 61.9203 73.6968 62.5181 73.2197 63.1579C71.5582 66.0725 69.7328 68.8744 67.7411 71.5624C66.4315 73.0618 64.9044 74.2732 63.1598 75.1977C62.5062 75.4675 61.8446 75.7202 61.1761 75.9536C60.2822 76.943 59.4008 77.9346 58.5319 78.9286C56.1212 77.0546 53.822 75.0394 51.6367 72.8853C52.008 72.5905 52.3541 72.2762 52.6753 71.9415C53.5806 71.1935 54.4312 70.3761 55.225 69.4857C56.1234 68.666 56.957 67.7837 57.728 66.8421C59.6251 64.5526 61.4676 62.222 63.2532 59.8539C63.6552 59.3405 64.0811 58.8372 64.5286 58.3431C64.6414 58.1177 64.7518 57.898 64.8589 57.6817C65.5512 56.8949 66.2448 56.1071 66.9371 55.3204C68.249 53.9109 69.6348 52.5891 71.0936 51.3538C71.499 50.8221 71.9397 50.3189 72.4157 49.843C72.6514 49.6233 72.9042 49.4183 73.1718 49.2293C73.7241 48.8775 74.1967 48.9561 74.5885 49.465C74.6078 49.6961 74.5759 49.9159 74.4939 50.1265C73.5864 50.8381 72.7835 51.6578 72.0855 52.5823C70.2885 54.2843 68.5257 56.016 66.7959 57.7762C66.5112 58.0608 66.3062 58.3909 66.1821 58.7678C66.1981 58.8464 66.2129 58.9261 66.2288 59.0035C68.3036 56.8346 70.4126 54.6931 72.5569 52.5823C73.0921 51.9845 73.6273 51.3857 74.1626 50.788C74.2969 50.6081 74.4074 50.4191 74.4928 50.221C74.8139 49.7588 75.192 49.333 75.6259 48.9459C75.7557 48.8628 75.8969 48.8161 76.0506 48.8047C76.5574 48.9629 76.8728 49.309 76.9947 49.843C77.0322 50.5102 76.891 51.1386 76.5699 51.7318C76.8603 52.0062 77.0971 52.3215 77.2782 52.6756C77.342 53.0844 77.342 53.4942 77.2782 53.9029C77.0049 54.5371 76.6747 55.1348 76.2864 55.6972C75.8718 55.8543 75.5097 56.106 75.2 56.4532C73.5032 58.4957 71.7723 60.5097 70.0049 62.4964L70.0084 62.4953Z" fill="#FDCCA3"/>
<path fill-rule="evenodd" clip-rule="evenodd" d="M25.1913 48.9912C25.6127 48.9582 25.9908 49.0686 26.3244 49.3214C28.3582 51.3855 30.4205 53.4166 32.5113 55.4124C33.2845 56.3323 34.0555 57.2443 34.8253 58.1505C34.9801 58.3874 35.1225 58.639 35.25 58.9065C36.292 60.2147 37.3465 61.5057 38.4146 62.7786C40.4098 65.5292 42.6451 68.0795 45.1208 70.4271C45.1527 70.5216 45.2153 70.5842 45.3099 70.6161C45.6913 71.092 46.132 71.5007 46.632 71.8434C44.6152 73.8438 42.537 75.7792 40.3984 77.651C40.2492 77.7546 40.092 77.8331 39.9258 77.8866C39.3849 77.1409 38.787 76.4328 38.1311 75.7622C35.8912 75.1553 33.9871 74.0054 32.4168 72.3159C30.1552 69.456 28.077 66.4651 26.1832 63.3444C25.7789 62.8162 25.3542 62.3129 24.9078 61.8336C24.2553 60.875 23.5777 59.9312 22.8774 59.001C22.6325 58.6071 22.4128 58.1972 22.2158 57.7737C21.9743 57.0963 22.0529 56.4667 22.4515 55.8849H22.6405C23.0607 55.8519 23.391 56.009 23.6324 56.3574C24.5764 57.4902 25.5216 58.6242 26.4656 59.757C27.4757 60.8613 28.5143 61.9315 29.5824 62.9676C29.4651 62.5452 29.2442 62.1672 28.9208 61.8348C27.4962 60.3479 26.1434 58.8063 24.8588 57.2079C24.4022 56.7513 23.9455 56.2948 23.4889 55.8382C23.3989 55.7927 23.3044 55.7767 23.2053 55.7915C22.9275 55.3396 22.628 54.899 22.308 54.4697C21.7557 53.453 21.898 52.5559 22.7328 51.7783C22.3592 51.1168 22.2169 50.4087 22.308 49.6538C22.4959 49.0538 22.8899 48.8182 23.4889 48.9457C23.9774 49.3077 24.4022 49.7324 24.7643 50.2208C24.5935 49.6925 24.7347 49.2838 25.1891 48.9935L25.1913 48.9912Z" fill="#FDCCA3"/>
<path fill-rule="evenodd" clip-rule="evenodd" d="M30.9535 36.2441C31.9295 36.9671 33.0306 37.3451 34.2594 37.377C34.6762 38.4426 35.1795 39.449 35.7705 40.3986C37.2703 43.1264 39.2528 45.4558 41.7205 47.3868C41.8731 48.6721 41.9358 49.9621 41.9096 51.2588C41.8595 51.8896 41.7957 52.5192 41.7205 53.1476C41.3413 53.1317 40.9633 53.1476 40.5875 53.1943C39.254 54.7142 37.8692 56.1783 36.431 57.5855C35.8958 57.7745 35.3605 57.9635 34.8253 58.1525C34.0555 57.2463 33.2846 56.3332 32.5114 55.4144C30.4206 53.4186 28.3583 51.3875 26.3245 49.3234C25.9908 49.0706 25.6127 48.9602 25.1914 48.9932C25.3041 48.8816 25.5558 48.8668 25.9475 48.9465C26.1502 49.0797 26.3712 49.1583 26.6092 49.1822C26.5955 49.2812 26.6103 49.3757 26.6559 49.4657L27.7889 50.5985C27.8071 50.3287 27.8698 50.0463 27.978 49.7492C28.126 49.6137 28.2683 49.4714 28.4027 49.3245L28.3082 49.23C28.5303 48.4353 28.8616 47.6953 29.3001 47.011C30.2726 44.4073 31.0116 41.7955 31.5195 39.1735C31.5001 39.1177 31.4683 39.0711 31.425 39.0324C31.6254 38.3549 31.7837 37.6627 31.8976 36.9546C31.7518 36.843 31.5947 36.8111 31.425 36.8601C31.6607 36.9785 31.6448 37.0878 31.3783 37.1902C31.2496 37.0491 31.2337 36.9079 31.3316 36.7656C31.1699 36.6096 31.0446 36.4365 30.9535 36.2464V36.2441Z" fill="#0B1425"/>
<path fill-rule="evenodd" clip-rule="evenodd" d="M59.0987 53.2402H59.1932C59.1636 53.6375 59.1943 54.0144 59.2877 54.373C59.1454 55.1005 58.8459 55.7608 58.3904 56.3563C56.2711 59.5453 53.5951 62.1581 50.3621 64.1938C47.6769 62.4223 45.3151 60.2819 43.2779 57.7726C42.6117 56.8857 41.982 55.9726 41.3887 55.0345C41.4866 54.4072 41.5971 53.7776 41.7189 53.1457C41.7941 52.5172 41.8578 51.8876 41.9079 51.2569C41.9831 51.1521 42.0298 51.0258 42.0492 50.8789C43.6582 51.8797 45.3425 52.7461 47.1018 53.4759C50.0171 54.6314 53.0405 55.0413 56.1698 54.7032C56.7528 54.603 57.3188 54.4459 57.87 54.2307C58.2606 54.0041 58.6694 53.8311 59.0976 53.7115V53.239L59.0987 53.2402Z" fill="#FDCCA3"/>
<path fill-rule="evenodd" clip-rule="evenodd" d="M41.7192 53.1455C41.5974 53.7774 41.4869 54.407 41.389 55.0343C41.9823 55.9735 42.612 56.8855 43.2782 57.7724C45.3154 60.2817 47.6772 62.4221 50.3624 64.1936C53.5954 62.1568 56.2715 59.5451 58.3907 56.3561C58.8462 55.7618 59.1446 55.1003 59.2881 54.3728C59.4019 53.947 59.5602 53.5371 59.7606 53.1455C60.2241 53.4665 60.6489 53.8445 61.0361 54.2783C61.8002 55.2939 62.6337 56.2548 63.539 57.1587C63.7349 57.3193 63.9558 57.4297 64.2007 57.4889C64.1335 57.5743 64.039 57.6062 63.9171 57.5834C63.7474 58.3325 63.4958 59.0566 63.161 59.7557C63.1724 59.8126 63.2043 59.8445 63.2555 59.8502C61.4699 62.2183 59.6285 64.5477 57.7302 66.8384C56.9604 67.781 56.1257 68.6622 55.2272 69.482C54.7239 68.915 54.1887 68.3799 53.6216 67.8767C52.6764 66.7268 51.6219 65.6885 50.457 64.7606C49.3216 65.7545 48.266 66.8247 47.2923 67.9712C46.5009 68.7306 45.7766 69.5492 45.1196 70.4269C42.6439 68.0782 40.4085 65.5291 38.4134 62.7784C37.7336 61.0536 37.0719 59.323 36.4297 57.5845C37.8668 56.1773 39.2527 54.7132 40.5862 53.1933C40.9631 53.1466 41.34 53.1307 41.7192 53.1466V53.1455Z" fill="#FDFBF8"/>
<path fill-rule="evenodd" clip-rule="evenodd" d="M59.7616 53.1465C59.5611 53.5393 59.404 53.948 59.289 54.3738C59.1956 54.0152 59.1648 53.6372 59.1945 53.241C59.3767 53.1795 59.5657 53.1476 59.7616 53.1465Z" fill="#C1BAB8"/>
<path fill-rule="evenodd" clip-rule="evenodd" d="M25.0026 50.123C27.5147 52.8714 30.1122 55.5469 32.7951 58.1496C32.8896 58.3067 32.9841 58.4638 33.0787 58.622C33.1527 58.7587 33.1367 58.8839 33.032 59C31.0551 56.8824 29.0247 54.8046 26.9396 52.7678C26.3452 52.0164 25.7154 51.2923 25.0504 50.5955C24.9524 50.4259 24.9365 50.2688 25.0037 50.123H25.0026Z" fill="#F18A47"/>
<path fill-rule="evenodd" clip-rule="evenodd" d="M22.9238 51.7285C23.3383 51.8105 23.6686 52.0302 23.9157 52.39C25.9529 54.7729 28.0938 57.0715 30.3383 59.2837C30.59 59.5979 30.8416 59.9133 31.0944 60.2275C31.1867 60.3459 31.2186 60.4723 31.189 60.6055C29.8088 59.2256 28.4229 57.84 27.0325 56.4499C25.6409 54.8867 24.271 53.3122 22.9238 51.7285Z" fill="#F18C4A"/>
<path fill-rule="evenodd" clip-rule="evenodd" d="M22.6406 55.8854C22.8069 55.7943 22.9959 55.7635 23.2077 55.7909C23.3068 55.7772 23.4013 55.792 23.4913 55.8375C23.9479 56.2941 24.4046 56.7506 24.8612 57.2072C26.1446 58.8056 27.4986 60.3483 28.9232 61.8341C29.2466 62.1677 29.4664 62.5445 29.5848 62.9669C28.5166 61.9309 27.4781 60.8607 26.468 59.7563C25.524 58.6235 24.5788 57.4895 23.6348 56.3567C23.3933 56.0095 23.0631 55.8512 22.6429 55.8842L22.6406 55.8854Z" fill="#F18D4B"/>
<path fill-rule="evenodd" clip-rule="evenodd" d="M74.4962 50.123V50.2175C74.4097 50.4156 74.3004 50.6046 74.166 50.7845C73.6308 51.3822 73.0956 51.9811 72.5603 52.5788C70.4172 54.6908 68.3071 56.8312 66.2322 59C66.2163 58.9215 66.2004 58.8429 66.1855 58.7643C66.3097 58.3875 66.5147 58.0573 66.7993 57.7727C68.5291 56.0126 70.2919 54.2809 72.0889 52.5788C72.787 51.6543 73.5898 50.8358 74.4974 50.123H74.4962Z" fill="#F18A48"/>
<path fill-rule="evenodd" clip-rule="evenodd" d="M76.1009 51.729C76.2409 51.7039 76.3662 51.7358 76.4789 51.8235C74.8437 53.6952 73.1902 55.5521 71.5196 57.3954C70.4765 58.486 69.3901 59.5244 68.2605 60.5115C68.1637 60.4636 68.1478 60.401 68.2138 60.3225C69.3731 58.9745 70.6006 57.6845 71.8977 56.4504C73.2836 54.861 74.6843 53.2865 76.1009 51.729Z" fill="#F18D4C"/>
<path fill-rule="evenodd" clip-rule="evenodd" d="M36.4318 57.5851C37.0741 59.3236 37.7357 61.0542 38.4155 62.779C37.3485 61.5062 36.2929 60.2162 35.2509 58.9069C35.1234 58.6394 34.981 58.3878 34.8262 58.151C35.3614 57.962 35.8966 57.773 36.4318 57.584V57.5851Z" fill="#D1DFE7"/>
<path fill-rule="evenodd" clip-rule="evenodd" d="M64.2007 57.4902C64.4216 57.5529 64.6414 57.6166 64.8623 57.6792L64.532 58.3407C64.0845 58.8348 63.6597 59.338 63.2566 59.8515C63.2054 59.8458 63.1735 59.8139 63.1621 59.757C63.4958 59.0591 63.7474 58.335 63.9182 57.5847C64.0401 57.6075 64.1346 57.5756 64.2018 57.4902H64.2007Z" fill="#D0DEE7"/>
<path fill-rule="evenodd" clip-rule="evenodd" d="M76.2911 55.6965C76.3856 55.7591 76.4801 55.8228 76.5746 55.8854C76.4448 55.8706 76.3184 55.8854 76.1966 55.9321C75.9608 56.1678 75.724 56.4046 75.4883 56.6403C73.8006 58.8638 71.9433 60.9404 69.9152 62.8725C69.8855 62.7393 69.9163 62.614 70.0097 62.4945C71.777 60.5078 73.508 58.4938 75.2047 56.4513C75.5144 56.104 75.8766 55.8524 76.2911 55.6953V55.6965Z" fill="#F18C4A"/>
<path fill-rule="evenodd" clip-rule="evenodd" d="M11.6838 57.4902C11.735 57.4959 11.7669 57.5278 11.7783 57.5847C10.4141 60.8329 9.75246 64.2325 9.7946 67.7835C9.57482 64.1926 10.2046 60.7612 11.6838 57.4902Z" fill="#11141C"/>
<path fill-rule="evenodd" clip-rule="evenodd" d="M47.2927 67.9718C47.7938 68.6584 48.2504 69.3825 48.6626 70.1441C48.7401 70.5711 48.7241 70.9798 48.616 71.3714C48.6456 71.1119 48.6137 70.8602 48.5214 70.6155C48.0306 70.1646 47.558 69.6921 47.1048 69.1992C46.532 69.7092 45.9342 70.1817 45.3101 70.6155C45.2156 70.5836 45.153 70.521 45.1211 70.4265C45.7782 69.5498 46.5024 68.7312 47.2939 67.9707L47.2927 67.9718Z" fill="#B3CCDA"/>
<path fill-rule="evenodd" clip-rule="evenodd" d="M48.6144 71.3715C48.6452 71.754 48.6144 72.132 48.5199 72.5043C48.1236 72.1867 47.7148 71.8884 47.2923 71.6072C47.0361 71.5776 46.8163 71.6561 46.6307 71.8428C46.1308 71.5002 45.6901 71.0914 45.3086 70.6155C45.9326 70.1818 46.5305 69.7093 47.1033 69.1992C47.5576 69.6933 48.0291 70.1647 48.5199 70.6155C48.6121 70.8592 48.644 71.1119 48.6144 71.3715Z" fill="#D2DFE8"/>
<path fill-rule="evenodd" clip-rule="evenodd" d="M40.869 79.6824C40.7916 79.761 40.713 79.7291 40.6333 79.5879C36.3595 82.2361 32.0618 84.8479 27.7402 87.4254C27.2904 85.1894 26.8338 82.9545 26.3714 80.7208C25.5697 77.3883 24.3729 74.2085 22.782 71.1834C22.3459 70.465 21.8744 69.7717 21.3654 69.1057C21.2459 68.8939 21.0728 68.7675 20.845 68.7277C21.5738 69.8992 22.2821 71.0946 22.9711 72.3163C23.4004 73.2396 23.7785 74.1834 24.1041 75.1489C24.6701 77.1606 25.2372 79.1747 25.8043 81.1932C26.204 83.3632 26.598 85.5355 26.9852 87.7089C26.9533 87.8342 26.9214 87.9605 26.8907 88.0869C24.9001 89.2972 23.0155 90.6406 21.2333 92.1195C17.283 89.7856 14.329 87.2387 12.8281 84.9401C13.0331 82.2942 13.344 79.6608 13.7619 77.0377C13.9566 75.3436 14.2869 73.6756 14.7538 72.0328C16.2023 66.6966 19.5867 63.297 24.907 61.834C25.3522 62.3133 25.7781 62.8177 26.1824 63.3448C28.0761 66.4655 30.1544 69.4563 32.416 72.3163C33.9863 74.0069 35.8915 75.1557 38.1303 75.7625C38.7862 76.4331 39.384 77.1413 39.925 77.8881C39.9147 77.9462 39.8828 77.9929 39.8304 78.0293C40.1425 78.6065 40.4886 79.1576 40.869 79.6824Z" fill="#D2DFE7"/>
<path fill-rule="evenodd" clip-rule="evenodd" d="M53.6214 67.8789C54.1885 68.3821 54.7237 68.9172 55.227 69.4842C54.4321 70.3734 53.5826 71.192 52.6773 71.94C52.6511 71.291 52.5885 70.6455 52.4883 70.0045C52.855 69.2872 53.2319 68.5791 53.6214 67.88V67.8789Z" fill="#CBDBE4"/>
<path fill-rule="evenodd" clip-rule="evenodd" d="M53.6218 67.877C53.2323 68.5772 52.8543 69.2853 52.4887 70.0015C52.5889 70.6425 52.6516 71.288 52.6778 71.9369C52.3566 72.2717 52.0104 72.587 51.6392 72.8808C53.8245 75.036 56.1236 77.05 58.5344 78.924C58.6711 79.072 58.8282 79.1972 59.007 79.302C59.1026 79.4318 59.1972 79.557 59.2905 79.68C57.842 81.7259 56.3935 83.7718 54.9462 85.8177C54.8881 85.8279 54.8403 85.8598 54.805 85.9122C54.6091 85.7334 54.436 85.5444 54.2857 85.3452C53.3519 84.4367 52.376 83.5714 51.3579 82.7482C49.4209 80.7319 47.4679 78.7339 45.5024 76.7517C44.0038 77.7365 42.5234 78.7441 41.0635 79.7733C41.0009 79.7414 40.9371 79.7107 40.8745 79.6788C40.4941 79.154 40.148 78.6041 39.8359 78.0257C39.8883 77.9893 39.9202 77.9426 39.9305 77.8845C40.0967 77.831 40.2539 77.7513 40.403 77.6489C42.5416 75.7771 44.6199 73.8417 46.6366 71.8413C46.8222 71.6535 47.042 71.5749 47.2982 71.6056C47.7207 71.8868 48.1295 72.1851 48.5258 72.5028C48.6192 72.1305 48.6511 71.7525 48.6203 71.37C48.7285 70.9783 48.7445 70.5696 48.667 70.1426C48.2559 69.381 47.7993 68.6569 47.2971 67.9704C48.2707 66.8239 49.3252 65.7537 50.4617 64.7598C51.6255 65.6877 52.68 66.726 53.6263 67.8759L53.6218 67.877Z" fill="#572567"/>
<path fill-rule="evenodd" clip-rule="evenodd" d="M50.6934 72.6936C50.8039 72.6731 50.8984 72.7039 50.977 72.7881C49.2324 74.1168 47.4058 75.3293 45.4984 76.4234C45.4039 76.486 45.3094 76.486 45.2148 76.4234C46.8831 74.9251 48.7086 73.6819 50.6934 72.6936Z" fill="#371B4D"/>
<path fill-rule="evenodd" clip-rule="evenodd" d="M86.7916 81.0371C86.7016 81.1669 86.6105 81.2967 86.5183 81.4264C83.7249 85.3486 80.6366 88.5399 77.3535 91.0992C77.1964 90.933 77.0358 90.7668 76.8741 90.6017C76.8593 90.5869 76.8445 90.5721 76.8308 90.5584C76.742 90.4685 76.6532 90.3786 76.5621 90.2898C76.4721 90.1998 76.381 90.111 76.2899 90.0222C75.4222 89.3903 74.5396 88.7755 73.6457 88.1801C73.6138 88.0549 73.5819 87.9285 73.5512 87.8033C73.9748 85.6059 74.3688 83.4018 74.7321 81.1931C75.3311 78.9206 75.9608 76.6549 76.6213 74.3939C77.4708 72.3138 78.5105 70.3624 79.7381 68.5385C78.8521 69.3969 78.1279 70.3726 77.5653 71.4656C76.0007 74.4997 74.8357 77.6796 74.0705 81.0041C73.6377 83.1991 73.2437 85.4033 72.8896 87.6143C68.8595 85.064 64.7987 82.5615 60.706 80.1069C60.173 79.7619 59.6059 79.4944 59.0058 79.3043C58.827 79.1995 58.6699 79.0743 58.5332 78.9263C59.4021 77.9324 60.2835 76.9407 61.1774 75.9513C61.8459 75.718 62.5075 75.4663 63.1611 75.1965C63.2511 75.1487 63.3411 75.0997 63.4299 75.0508C63.4766 75.0246 63.5233 74.9984 63.5688 74.9722C63.6144 74.9472 63.6599 74.921 63.7043 74.8948C63.7647 74.8607 63.825 74.8254 63.8842 74.7889C63.9628 74.7423 64.0414 74.6944 64.12 74.6466C64.2179 74.5851 64.3158 74.5225 64.4126 74.4599C64.4935 74.4075 64.5743 74.354 64.654 74.2982C64.6973 74.2698 64.7406 74.2402 64.7839 74.2106C64.867 74.1525 64.9501 74.0944 65.0321 74.0352C65.1061 73.9817 65.1802 73.9271 65.253 73.8724C65.3123 73.8292 65.3703 73.7848 65.4295 73.7381C65.4364 73.7335 65.4443 73.7278 65.4512 73.7221C65.466 73.7108 65.4819 73.6994 65.4967 73.6868C65.5058 73.68 65.5138 73.6732 65.5229 73.6664C65.5753 73.6265 65.6277 73.5844 65.6789 73.5434C65.6789 73.5434 65.6797 73.5426 65.6812 73.5411C65.6892 73.5343 65.6983 73.5275 65.7074 73.5195C65.8429 73.4113 65.9762 73.2998 66.1082 73.1859C66.1561 73.1461 66.2016 73.1051 66.2483 73.0641C66.2517 73.0607 66.2563 73.0572 66.2597 73.0538C66.2688 73.0459 66.2779 73.0379 66.287 73.0288C66.3508 72.9741 66.4134 72.9172 66.4761 72.8592C66.5581 72.784 66.6389 72.7089 66.7198 72.6314C66.7778 72.5745 66.8371 72.5176 66.8951 72.4607C66.9247 72.4311 66.9543 72.4026 66.9828 72.373C67.0546 72.3013 67.1263 72.2284 67.1969 72.1544C67.2322 72.118 67.2664 72.0827 67.3005 72.0463C67.3017 72.044 67.3039 72.0417 67.3062 72.0394C67.3484 71.995 67.3916 71.9495 67.4326 71.9039C67.4349 71.9017 67.436 71.9005 67.4383 71.8982C67.4611 71.8743 67.4827 71.8493 67.5055 71.8242C67.518 71.8106 67.5317 71.7958 67.5442 71.7821C67.6114 71.7093 67.6775 71.6341 67.7424 71.5601C69.7329 68.8721 71.5595 66.0702 73.221 63.1556C73.3405 62.9951 73.4612 62.838 73.5865 62.6831C73.656 62.5966 73.7277 62.5101 73.7994 62.4247C73.8552 62.3587 73.911 62.2926 73.968 62.2277C74.0329 62.1526 74.0978 62.0797 74.1638 62.0057C74.2299 61.9317 74.2971 61.8589 74.3643 61.7871C74.4986 61.6425 74.6376 61.5002 74.7776 61.3613C74.9826 61.4524 75.1876 61.5446 75.3914 61.6391C77.1246 62.4361 78.8077 63.3344 80.4453 64.3363C81.1638 64.7746 81.8095 65.2767 82.3834 65.8425C82.6704 66.1249 82.9391 66.4243 83.1897 66.7385C83.2728 66.8433 83.3548 66.9491 83.4345 67.0584C83.5928 67.2748 83.7443 67.499 83.8877 67.7302C83.9583 67.8451 84.0278 67.9624 84.0961 68.0808C84.2977 68.4372 84.4822 68.8106 84.6484 69.2C85.6095 71.6945 86.1926 74.2755 86.3953 76.943C86.5581 78.3047 86.6902 79.6697 86.7904 81.0371H86.7916Z" fill="#D1DFE7"/>
<path fill-rule="evenodd" clip-rule="evenodd" d="M76.8742 90.6023C77.0359 90.7674 77.1964 90.9336 77.3536 91.0998C77.1475 91.2603 76.9414 91.4186 76.7341 91.5746C70.9002 87.8152 65.1483 83.9295 59.4773 79.9185C59.4124 79.8172 59.3657 79.7079 59.3361 79.5883C59.2985 79.6099 59.2826 79.6407 59.2883 79.6828C59.1949 79.5599 59.1015 79.4346 59.0059 79.3048C59.606 79.495 60.1731 79.7625 60.706 80.1075C64.7987 82.5621 68.8596 85.0646 72.8896 87.6148C73.2438 85.4038 73.6378 83.1997 74.0705 81.0046C74.8358 77.6802 76.0007 74.5003 77.5654 71.4662C78.1279 70.3732 78.8522 69.3975 79.7382 68.5391C78.5106 70.363 77.4709 72.3144 76.6214 74.3944C75.9609 76.6555 75.3311 78.9212 74.7322 81.1936C74.3689 83.4023 73.9749 85.6065 73.5513 87.8038C73.582 87.9291 73.6139 88.0554 73.6458 88.1807C74.5397 88.7761 75.4222 89.3909 76.29 90.0228C76.3811 90.1116 76.4722 90.2004 76.5621 90.2903C76.6532 90.3791 76.7421 90.4691 76.8309 90.559C76.8446 90.5727 76.8594 90.5875 76.8742 90.6023Z" fill="#AEC6D6"/>
<path fill-rule="evenodd" clip-rule="evenodd" d="M41.0587 79.7747C34.9675 83.8756 28.9844 88.1416 23.113 92.5704C22.8818 92.6273 22.6666 92.7104 22.4673 92.8232C22.046 92.5909 21.6349 92.3564 21.234 92.1184C23.0162 90.6395 24.9008 89.2961 26.8914 88.0858C26.9221 87.9594 26.954 87.8331 26.9859 87.7078C26.5987 85.5344 26.2047 83.3621 25.805 81.1921C25.2379 79.1735 24.6708 77.1595 24.1048 75.1478C23.7792 74.1823 23.4011 73.2385 22.9718 72.3152C22.2828 71.0935 21.5745 69.8981 20.8457 68.7266C21.0735 68.7664 21.2465 68.8928 21.3661 69.1045C21.8751 69.7706 22.3466 70.4639 22.7827 71.1823C24.3736 74.2074 25.5704 77.3872 26.3721 80.7196C26.8345 82.9534 27.2911 85.1883 27.7409 87.4243C32.0625 84.8468 36.3602 82.235 40.634 79.5868C40.7137 79.728 40.7923 79.7599 40.8697 79.6813C40.9335 79.7121 40.9961 79.7439 41.0587 79.7747Z" fill="#AEC6D6"/>
<path fill-rule="evenodd" clip-rule="evenodd" d="M54.283 85.3477C54.4345 85.5469 54.6076 85.7347 54.8023 85.9146C54.8388 85.8623 54.8854 85.8304 54.9435 85.8201C53.8048 87.29 52.6079 88.7222 51.3541 90.1169C51.2107 90.0861 51.0843 90.1009 50.9761 90.1636C50.7552 89.9746 50.5354 89.7856 50.3145 89.5966C51.6411 88.1757 52.9644 86.7594 54.2819 85.3477H54.283Z" fill="#AAC5D7"/>
<path fill-rule="evenodd" clip-rule="evenodd" d="M76.7342 91.5741C71.669 95.3711 66.1608 97.7027 60.5638 98.9232C60.5353 98.9301 60.508 98.9358 60.4795 98.9414C58.5459 97.1073 56.0577 94.7859 54.4714 93.3548C54.3632 93.2569 54.2585 93.1635 54.1583 93.0747C54.0524 92.9802 53.9521 92.8914 53.8576 92.8083C53.8383 92.9552 53.7904 93.0804 53.7164 93.1851C53.7312 93.0257 53.7153 92.8675 53.6686 92.7138C52.8122 91.8098 51.9149 90.9593 50.9766 90.1635C51.0859 90.1009 51.2111 90.085 51.3546 90.1168C52.6084 88.7222 53.8052 87.2899 54.944 85.8201C56.3925 83.7742 57.841 81.7283 59.2884 79.6824C59.2827 79.6403 59.2986 79.6095 59.3362 79.5879C59.3658 79.7074 59.4125 79.8167 59.4774 79.9181C65.1484 83.929 70.9003 87.8148 76.7342 91.5741Z" fill="#D1DFE7"/>
<path fill-rule="evenodd" clip-rule="evenodd" d="M54.2815 85.3474C52.964 86.7591 51.6419 88.1766 50.3152 89.5975C49.6251 90.3648 48.8849 91.0889 48.0958 91.7686C48.0479 92.1773 48.032 92.586 48.0479 92.9971C47.9705 92.668 47.9227 92.3219 47.9067 91.9576C47.8726 91.9906 47.8361 92.0236 47.8008 92.0566C46.038 93.7177 43.026 96.8646 40.7826 99.1632C40.6653 99.1427 40.5481 99.1222 40.4308 99.1017C33.6187 97.879 27.3783 95.5325 22.4668 92.824C22.6661 92.7113 22.8813 92.6282 23.1125 92.5712C28.9839 88.1424 34.967 83.8764 41.0582 79.7755C42.5193 78.7463 43.9985 77.7387 45.4983 76.7539C47.4649 78.7361 49.4167 80.7353 51.3538 82.7504C52.3718 83.5736 53.3489 84.4389 54.2815 85.3474Z" fill="#D1DFE7"/>
<path fill-rule="evenodd" clip-rule="evenodd" d="M50.3155 89.5968C50.5364 89.7858 50.7562 89.9748 50.9771 90.1638C51.9155 90.9596 52.8128 91.8101 53.6691 92.7129C53.7158 92.8678 53.7318 93.0249 53.7158 93.1854C53.8252 94.094 53.8889 95.007 53.9049 95.9235C53.9197 96.0841 53.9049 96.2423 53.8582 96.396C53.742 95.4545 53.6635 94.5095 53.6225 93.5634C53.3036 93.4234 52.9893 93.2503 52.6784 93.0443C52.4085 93.0192 52.1569 92.9406 51.9223 92.8086C51.5351 92.878 51.1422 92.7835 50.7414 92.5251C50.2631 92.6298 49.8691 92.8666 49.5605 93.2332C49.0401 93.3471 48.662 93.6306 48.4274 94.0826C48.5037 94.1122 48.5664 94.1589 48.6165 94.2237C48.5254 94.4879 48.3523 94.6769 48.0972 94.7907C48.0186 95.8917 47.956 96.9926 47.9082 98.0958C47.8615 97.8772 47.8455 97.6575 47.8615 97.4344V95.2621C47.9503 94.5232 48.0129 93.7672 48.0505 92.9953C48.0346 92.5854 48.0505 92.1756 48.0972 91.768C48.8875 91.0883 49.6277 90.3642 50.3166 89.5957L50.3155 89.5968Z" fill="#461E5A"/>
<path fill-rule="evenodd" clip-rule="evenodd" d="M47.8598 95.2621C47.8894 95.0025 47.8598 94.7509 47.7653 94.5073C47.7265 94.5471 47.6856 94.5893 47.6423 94.6337C47.5546 94.7236 47.4555 94.8261 47.3485 94.9377C47.3155 94.9718 47.2824 95.006 47.2483 95.0413C47.2152 95.0754 47.1811 95.1096 47.1469 95.146C46.081 96.2572 44.3478 98.0799 42.9893 99.5019C42.9722 99.4997 42.954 99.4974 42.9358 99.494C42.2127 99.3972 41.4952 99.2856 40.7835 99.1627C40.6662 99.1422 40.5489 99.1217 40.4316 99.1012C42.7866 96.8128 46.0378 93.7081 47.8017 92.0561C47.837 92.0231 47.8734 91.99 47.9076 91.957C47.9236 92.3214 47.9714 92.6675 48.0488 92.9965C48.0112 93.7673 47.9486 94.5232 47.8598 95.2621Z" fill="#ACC6D7"/>
<path fill-rule="evenodd" clip-rule="evenodd" d="M54.0465 99.8642C54.0101 99.8665 53.9736 99.8699 53.9372 99.8722C51.8476 100.022 49.7648 100.037 47.707 99.9371C47.7435 98.9773 47.7902 98.0381 47.8289 97.6328C47.8289 97.6179 47.8312 97.6043 47.8334 97.5918C47.8357 97.5679 47.838 97.5462 47.8403 97.528C47.8425 97.5155 47.8437 97.5041 47.846 97.4939C47.8471 97.4847 47.8482 97.4756 47.8505 97.4688C47.8528 97.454 47.8562 97.4438 47.8585 97.4358C47.8437 97.6589 47.8585 97.8787 47.9063 98.0973C47.953 96.994 48.0168 95.892 48.0953 94.791C48.3493 94.6783 48.5224 94.4893 48.6146 94.2252C48.5645 94.1592 48.5019 94.1125 48.4256 94.0829C48.6602 93.6309 49.0382 93.3474 49.5587 93.2335C49.8673 92.8658 50.2613 92.6301 50.7396 92.5254C51.1393 92.7838 51.5333 92.8783 51.9204 92.8089C52.155 92.9409 52.4067 93.0195 52.6754 93.0446C52.9875 93.2506 53.3018 93.4237 53.6206 93.5637C53.6616 94.511 53.7413 95.4548 53.8563 96.3975C53.903 96.2426 53.919 96.0855 53.9042 95.925C53.9065 95.9409 53.9087 95.958 53.911 95.9774C53.9133 95.9956 53.9156 96.0161 53.9167 96.0388C53.9178 96.0582 53.9201 96.0798 53.9213 96.1015C53.9759 96.7333 54.0169 98.3648 54.0465 99.8642Z" fill="#572667"/>
<path fill-rule="evenodd" clip-rule="evenodd" d="M47.8596 95.2626V97.4349C47.8573 97.4429 47.8539 97.4531 47.8516 97.4679C47.8493 97.4748 47.8482 97.4839 47.847 97.493C47.8447 97.5032 47.8436 97.5146 47.8413 97.5271C47.8391 97.5454 47.8368 97.567 47.8345 97.5909C47.8322 97.6034 47.8311 97.6171 47.8299 97.6319C47.7833 98.0497 47.7297 99.0209 47.691 99.9351C46.1059 99.8565 44.5355 99.7097 42.9891 99.5025C42.972 99.5002 42.9538 99.4979 42.9355 99.4945C44.3248 98.06 46.0762 96.2463 47.1467 95.1465C47.1808 95.1101 47.215 95.0759 47.248 95.0418C47.2822 95.0065 47.3152 94.9723 47.3482 94.9382C47.4553 94.8266 47.5544 94.7241 47.642 94.6342C47.6853 94.5898 47.7263 94.5477 47.765 94.5078C47.8584 94.7515 47.8892 95.0031 47.8596 95.2626Z" fill="#CEDDE6"/>
<path fill-rule="evenodd" clip-rule="evenodd" d="M60.5622 98.9235C60.5337 98.9304 60.5064 98.9361 60.478 98.9418C58.3405 99.4051 56.1894 99.7046 54.0462 99.864C54.0098 99.8662 53.9733 99.8696 53.9369 99.8719C53.9528 98.3702 53.9631 96.7342 53.921 96.1012C53.9198 96.0795 53.9175 96.0579 53.9164 96.0385C53.9153 96.0158 53.913 95.9953 53.9107 95.9771C53.9084 95.9577 53.9062 95.9406 53.9039 95.9247C53.8879 95.0082 53.8242 94.0951 53.7148 93.1854C53.7889 93.0807 53.8367 92.9555 53.856 92.8086C53.9506 92.8917 54.0508 92.9805 54.1567 93.075C54.2569 93.1638 54.3617 93.2572 54.4698 93.3551C56.1017 94.8101 58.6445 97.1281 60.5622 98.9235Z" fill="#ADC7D8"/>
</g>
<defs>
<clipPath id="clip0_1877_11952">
<rect width="100" height="100" fill="white"/>
</clipPath>
</defs>
</svg>
