<svg width="100" height="100" viewBox="0 0 100 100" fill="none" xmlns="http://www.w3.org/2000/svg">
<g clip-path="url(#clip0_1877_12008)">
<path fill-rule="evenodd" clip-rule="evenodd" d="M65.5844 52.2871C64.8915 52.271 64.1999 52.2213 63.512 52.1394C63.481 52.0599 63.4325 51.9941 63.3643 51.9419C63.2836 51.7644 63.2041 51.5856 63.1271 51.408C63.0253 51.1783 62.9272 50.9486 62.8316 50.7176C62.7695 50.5699 62.7087 50.4221 62.6491 50.2744C62.6068 50.1701 62.5646 50.0658 62.5237 49.9615C62.4541 49.7864 62.3858 49.6101 62.3188 49.435C62.2704 49.3096 62.2232 49.1842 62.1772 49.0588C62.0146 48.6217 61.8581 48.1834 61.7104 47.7439C61.6632 47.6023 61.616 47.4595 61.5701 47.318C61.5241 47.1752 61.4782 47.0336 61.4335 46.8908C61.395 46.7667 61.3565 46.6425 61.318 46.5183C61.1827 46.0713 61.0535 45.6243 60.9331 45.1736C60.9095 45.0879 60.8871 45.0035 60.8648 44.9166C60.835 44.8061 60.8064 44.6956 60.7791 44.5838C60.7493 44.4696 60.7208 44.3541 60.6922 44.2374C60.6612 44.1108 60.6301 43.9853 60.6016 43.8587C60.5966 43.8413 60.5916 43.8227 60.5879 43.8041C60.5631 43.6973 60.5382 43.5893 60.5146 43.4825C60.4699 43.2925 60.4277 43.1013 60.388 42.9101C60.3619 42.7859 60.3358 42.6617 60.311 42.5376C60.2961 42.468 60.2812 42.3973 60.2688 42.3277C60.2402 42.1887 60.2142 42.0508 60.1881 41.913C60.0776 41.3307 59.9795 40.7446 59.8938 40.1573C59.8777 40.0505 59.8628 39.945 59.8491 39.8382C59.7547 39.1727 59.6765 38.5034 59.6144 37.8304C59.4344 35.7258 59.3189 33.6212 59.2692 31.5153C59.3984 30.8051 59.3984 30.0973 59.2692 29.3933C59.3351 29.2294 59.3996 29.0643 59.4654 28.9004C59.3996 28.1429 59.3351 27.3868 59.2692 26.6306C59.3015 26.5971 59.3351 26.5648 59.3673 26.5313C59.2953 26.1314 59.1972 25.7366 59.0718 25.348C59.1165 25.307 59.1488 25.2573 59.1699 25.199C58.9303 24.7693 58.7825 24.3087 58.7254 23.8182C58.5081 23.4048 58.2933 22.9925 58.0847 22.584C58.2002 22.4002 58.1505 22.2525 57.9369 22.1407C57.9034 22.2724 57.8711 22.404 57.8376 22.5356C57.8264 22.1941 57.7768 21.9309 57.6898 21.7459C56.9995 21.3051 56.3265 20.8457 55.6697 20.3664C55.5666 20.2919 55.4648 20.2174 55.363 20.1404C55.0948 19.9418 54.8291 19.7381 54.5658 19.532C54.4628 19.4525 54.361 19.3706 54.2591 19.2899C54.1077 19.1682 53.9574 19.0453 53.8072 18.9211C53.5439 18.7038 53.2844 18.484 53.0274 18.2605C53.0051 18.2407 52.9827 18.2208 52.9604 18.2009C52.8387 18.0954 52.7182 17.9886 52.599 17.8806C52.4736 17.7676 52.3482 17.6546 52.224 17.5404C52.2178 17.5342 52.2116 17.5292 52.2054 17.523C52.075 17.4025 51.9459 17.2821 51.818 17.1604C51.7162 17.0636 51.6156 16.968 51.5163 16.8711C50.7787 16.1559 50.0685 15.4109 49.3844 14.6349C49.2043 14.43 49.0255 14.2239 48.8492 14.0153C48.7275 13.8725 48.6083 13.7272 48.4891 13.5819C48.3476 13.4094 48.2073 13.2368 48.0682 13.0617C46.6477 11.2029 45.6606 9.13058 45.1081 6.84468C45.0634 7.00609 45.0162 7.16627 44.9678 7.3252C44.9454 7.39846 44.9218 7.47296 44.8982 7.54622C44.8399 7.72626 44.779 7.90506 44.7157 8.08262C44.6946 8.14346 44.6722 8.20306 44.6499 8.26266C44.5928 8.41787 44.5332 8.57059 44.4723 8.72083C44.373 8.96792 44.2675 9.21129 44.1557 9.45093C44.1123 9.54778 44.0663 9.64215 44.0204 9.73651C43.9868 9.80605 43.9521 9.87558 43.9173 9.94511C43.8776 10.0258 43.8354 10.1065 43.7931 10.186C43.5908 10.5734 43.3735 10.9496 43.1413 11.3184C43.0556 11.455 42.9662 11.5916 42.8756 11.7257C42.7998 11.8387 42.7216 11.9504 42.6421 12.0609C42.5813 12.1491 42.518 12.236 42.4534 12.3229C42.1144 12.7823 41.7494 13.2256 41.3582 13.654C37.0807 18.376 31.9824 21.9284 26.0622 24.3112C25.8076 26.0123 25.6425 27.7233 25.5692 29.443C25.3271 29.1065 25.0912 28.765 24.8603 28.4198C24.6293 28.0734 24.4058 27.7245 24.1873 27.3706C23.0971 26.5189 22.0777 26.6182 21.129 27.6661C20.759 28.21 20.4958 28.8023 20.3393 29.443C19.9569 32.2603 20.8944 34.4965 23.1517 36.1529C23.3765 36.3975 23.7055 36.5627 24.1388 36.6459C24.1004 37.0357 24.0569 37.4244 24.0097 37.8118C23.996 37.9335 23.9799 38.0539 23.965 38.1756C23.9377 38.3842 23.9104 38.5916 23.8806 38.8002C23.862 38.9342 23.8433 39.0684 23.8222 39.2025C23.7875 39.4458 23.749 39.6892 23.7092 39.9325C23.6881 40.0666 23.6658 40.2007 23.6422 40.3349C23.6198 40.4677 23.5962 40.6018 23.5726 40.7359C23.5515 40.8576 23.5292 40.9793 23.5068 41.101C23.4783 41.2512 23.4497 41.4027 23.4199 41.5542C23.374 41.7926 23.3256 42.0322 23.2759 42.2706C23.2573 42.3588 23.2386 42.4457 23.22 42.5338C23.107 43.064 22.9853 43.593 22.855 44.1207C22.7693 44.4721 22.6786 44.8235 22.5843 45.1736C22.5222 45.407 22.4589 45.6392 22.3931 45.8714C22.3273 46.1036 22.2614 46.3358 22.1919 46.5668C22.1249 46.7965 22.0553 47.0249 21.9846 47.2546C21.8939 47.5439 21.802 47.8333 21.7064 48.1213C21.6493 48.2964 21.5909 48.4702 21.5313 48.6453C21.4581 48.8601 21.3836 49.0749 21.3078 49.2885C21.2929 49.3319 21.278 49.3754 21.2619 49.4176C21.1911 49.6175 21.1191 49.8174 21.0446 50.0161C21.0421 50.0236 21.0396 50.0298 21.0372 50.036C20.954 50.2607 20.8695 50.4855 20.7839 50.709C20.8658 50.8306 20.8335 50.9461 20.6845 51.0541C20.5591 50.9995 20.4275 50.9672 20.2897 50.9548C20.0438 50.9424 19.9135 51.0082 19.8948 51.1522C19.5931 51.3397 19.3795 51.603 19.2541 51.9419C19.1262 52.4932 19.0778 53.052 19.1064 53.6194H19.007C18.8345 53.3251 18.6035 53.0781 18.3167 52.8794C17.7679 52.7229 17.3233 52.8719 16.9844 53.3239C16.7944 53.6641 16.6628 54.0254 16.5895 54.4091C16.5399 55.6918 16.5237 56.9744 16.5399 58.257H16.4418C16.0395 57.1544 15.3988 56.9905 14.5172 57.7641C14.3781 58.1155 14.28 58.4768 14.2217 58.8493C14.172 59.6055 14.1559 60.3617 14.172 61.1191C13.5276 61.6232 12.9775 62.213 12.5206 62.886C12.389 63.0797 12.2648 63.2796 12.1493 63.4869C11.2764 65.0378 10.5699 66.6494 10.0273 68.3232C9.4959 67.1945 9.08739 66.0261 8.80305 64.8205C8.61556 64.0308 8.48146 63.2249 8.39951 62.4017C8.08288 58.483 8.57582 54.6674 9.87957 50.9548C10.5948 49.0153 11.341 47.0883 12.117 45.1736C12.5765 44.0375 13.0483 42.9051 13.5301 41.7777C14.9741 37.6827 16.1251 33.5045 16.9844 29.2455C17.7182 25.189 18.6395 21.176 19.7471 17.2064C20.5119 14.5504 21.5649 12.0175 22.9046 9.60862C26.9711 2.59943 33.0726 -0.574267 41.2105 0.085057C42.6558 0.194323 43.9707 0.654981 45.1577 1.46703C49.3434 0.976572 52.9455 2.17726 55.9627 5.0691C57.6005 6.92787 58.9154 9.00021 59.9099 11.2861C61.5191 15.4469 62.4727 19.7567 62.772 24.2131C62.9868 28.328 63.25 32.4391 63.5617 36.5478C63.9267 39.5352 64.6879 42.4097 65.8476 45.1736C65.937 45.3909 66.0314 45.6082 66.127 45.8242C67.2569 48.0506 68.3582 50.2868 69.4323 52.5342C67.5077 52.497 65.6005 52.4311 63.7094 52.3368C64.3352 52.3529 64.9598 52.3368 65.5844 52.2871Z" fill="#101C2E"/>
<path fill-rule="evenodd" clip-rule="evenodd" d="M31.7359 6.7461C32.1482 6.68154 32.4288 6.84544 32.5753 7.23904C32.5542 7.84746 32.4387 8.43973 32.2301 9.01587C32.7976 8.98731 33.3563 9.03697 33.9076 9.16362C34.2789 9.61435 34.295 10.0911 33.9573 10.594C33.401 11.2086 32.7268 11.637 31.9346 11.8767C30.8941 11.5662 30.5315 10.892 30.8494 9.85399C28.7299 9.98933 28.4343 9.29896 29.9616 7.78165C30.5179 7.35576 31.1101 7.01058 31.7384 6.7461H31.7359Z" fill="#29344B"/>
<path fill-rule="evenodd" clip-rule="evenodd" d="M57.6895 21.745C54.0079 19.397 50.8007 16.5014 48.0678 13.0608C46.6473 11.202 45.6602 9.12965 45.1077 6.84375C44.3937 9.42269 43.1434 11.6924 41.3579 13.653C37.0803 18.3751 31.982 21.9275 26.063 24.3102C25.8073 26.0113 25.6421 27.7223 25.5701 29.442C25.0858 28.7678 24.6252 28.0774 24.1881 27.3697C23.0979 26.5179 22.0773 26.6173 21.1287 27.6652C20.7586 28.2091 20.4954 28.8013 20.339 29.442C19.9565 32.2594 20.894 34.4956 23.1513 36.152C23.7411 36.4562 24.3657 36.6536 25.0262 36.7443C25.3938 36.7132 25.7551 36.7443 26.1115 36.8424C27.3395 40.5326 29.4776 43.5598 32.5259 45.9214C34.3102 47.2252 36.2832 48.1626 38.4462 48.7338C41.6559 49.4775 44.7141 49.1001 47.6233 47.5989C47.9821 47.4189 48.3447 47.2388 48.7085 47.0563C53.8999 43.7001 56.7619 38.9147 57.2934 32.6989C57.4908 31.4386 57.605 30.156 57.6386 28.851C57.6882 26.4832 57.7044 24.1141 57.6882 21.7462L57.6895 21.745ZM36.1776 32.4518C35.4488 32.9423 34.6591 33.09 33.8098 32.8963C33.3789 32.7958 32.9841 32.6157 32.6252 32.3537C31.6443 31.3033 31.2159 30.0703 31.3426 28.6536C31.2818 28.6648 31.2321 28.697 31.1948 28.7517C31.4916 26.5477 32.7581 25.4799 34.9943 25.5445C36.2521 25.7978 37.0406 26.5378 37.3622 27.7646C37.3696 28.0315 37.4032 28.2947 37.4603 28.5542C37.7881 30.1187 37.3609 31.4188 36.1776 32.4518ZM43.7754 36.6462C43.7605 36.5431 43.7779 36.4438 43.825 36.3507C44.1206 36.0874 44.4173 35.8242 44.7128 35.561C44.9848 35.2803 45.0841 34.9525 45.0083 34.5738C43.8971 33.4551 43.4699 32.1066 43.7257 30.5285C43.8474 30.3261 43.9952 30.2938 44.1702 30.4304C44.1528 30.5285 44.1864 30.5943 44.2683 30.6278C44.1789 31.5889 44.3279 32.5102 44.7128 33.3905C45.212 33.7481 45.5249 34.2249 45.6503 34.8209C45.4889 35.9198 44.8643 36.5282 43.7754 36.6462ZM49.795 32.8963C48.9804 32.5251 48.372 31.9328 47.9697 31.1195C47.6605 30.0045 47.6444 28.8858 47.9201 27.7646C47.8456 27.5026 47.894 27.2393 48.0678 26.9749C49.1555 25.4724 50.5536 25.0937 52.2622 25.84C53.371 26.5626 53.8651 27.5324 53.7422 28.7504C53.7844 29.9362 53.4889 31.0214 52.8544 32.0073C51.989 32.7995 50.9683 33.0963 49.795 32.8951V32.8963Z" fill="#FACAA0"/>
<path fill-rule="evenodd" clip-rule="evenodd" d="M48.5117 7.23932C48.6396 7.12633 48.7538 7.15986 48.8569 7.33742C51.2161 10.0256 53.6833 12.6244 56.2585 15.1326C56.3268 15.2145 56.3094 15.2803 56.2088 15.33C53.1282 13.1049 50.5617 10.4081 48.5117 7.23808V7.23932Z" fill="#2B364E"/>
<path fill-rule="evenodd" clip-rule="evenodd" d="M39.3347 9.80469C39.393 9.82828 39.4266 9.8767 39.4328 9.95245C39.1013 10.6776 38.6903 11.3518 38.1998 11.9751C35.298 15.3388 31.9257 18.1189 28.0852 20.3141C27.745 20.5352 27.3824 20.6668 27 20.709C31.6624 17.7166 35.7736 14.0822 39.3347 9.80469Z" fill="#2B354D"/>
<path fill-rule="evenodd" clip-rule="evenodd" d="M46.835 19.672C47.0672 19.6559 47.2981 19.672 47.5254 19.7217C48.5671 20.391 49.6523 20.982 50.7822 21.4985C52.0152 21.9207 53.2656 22.282 54.5321 22.5838C54.7816 22.7899 54.7816 22.9873 54.5321 23.176C51.8451 23.6864 49.4611 23.0779 47.3776 21.3508C47.1417 21.0813 46.9443 20.7858 46.7853 20.463C46.7146 20.1911 46.7307 19.9278 46.835 19.6733V19.672Z" fill="#11192A"/>
<path fill-rule="evenodd" clip-rule="evenodd" d="M38.2499 19.7708C38.4461 19.7596 38.61 19.8254 38.7429 19.9682C38.8484 20.2575 38.8658 20.5543 38.7925 20.856C38.3766 21.5687 37.8005 22.1113 37.0654 22.4838C34.9037 23.6609 32.6016 24.1054 30.158 23.8161C30.1444 23.6559 30.2102 23.5405 30.3554 23.4709C31.8914 23.0053 33.405 22.4788 34.895 21.8915C36.0696 21.2558 37.1883 20.5493 38.2499 19.7695V19.7708Z" fill="#11192A"/>
<path fill-rule="evenodd" clip-rule="evenodd" d="M53.7413 28.7518C52.9392 26.9203 51.5584 26.148 49.5966 26.4323C48.905 26.713 48.3462 27.1575 47.9191 27.7646C47.8434 27.5027 47.893 27.2394 48.0669 26.9749C49.1546 25.4725 50.5527 25.0938 52.2612 25.8401C53.37 26.5615 53.8642 27.5325 53.7413 28.7505V28.7518Z" fill="#1A1413"/>
<path fill-rule="evenodd" clip-rule="evenodd" d="M37.3607 27.7652C35.379 25.8444 33.488 25.9425 31.6863 28.0607C31.546 28.2482 31.4305 28.4456 31.3411 28.653C31.2803 28.6642 31.2306 28.6965 31.1934 28.7511C31.4901 26.5471 32.7566 25.4781 34.9929 25.5439C36.2494 25.7972 37.0391 26.5385 37.3607 27.764V27.7652Z" fill="#1A1513"/>
<path fill-rule="evenodd" clip-rule="evenodd" d="M53.7419 28.7522C53.7842 29.9392 53.4886 31.0244 52.8542 32.0091C51.9887 32.8013 50.9681 33.098 49.7947 32.8969C48.9802 32.5268 48.3717 31.9346 47.9694 31.12C47.6603 30.005 47.6441 28.8863 47.9198 27.7651C48.3469 27.1579 48.9057 26.7134 49.5973 26.4328C51.5591 26.1472 52.9398 26.9207 53.7419 28.7522Z" fill="#FBF8F5"/>
<path fill-rule="evenodd" clip-rule="evenodd" d="M49.6961 27.0748C50.7055 26.9469 51.3475 27.3741 51.6206 28.3575C52.0912 29.6538 51.8454 30.7887 50.8806 31.7621C49.6898 32.1619 48.884 31.7509 48.4631 30.5291C48.1651 29.105 48.5761 27.9527 49.6961 27.0748Z" fill="#10110F"/>
<path fill-rule="evenodd" clip-rule="evenodd" d="M37.3596 27.7643C37.3671 28.0312 37.3994 28.2945 37.4577 28.554C37.7855 30.1197 37.3584 31.4185 36.1751 32.4516C35.445 32.942 34.6565 33.0898 33.8072 32.8961C33.3764 32.7955 32.9815 32.6142 32.6227 32.3535C31.6418 31.3043 31.2134 30.0701 31.34 28.6533C31.4294 28.4472 31.5449 28.2498 31.6852 28.061C33.4856 25.9428 35.3779 25.8434 37.3596 27.7655V27.7643Z" fill="#FBF8F5"/>
<path fill-rule="evenodd" clip-rule="evenodd" d="M34.4992 27.0739C35.274 26.9919 35.8489 27.2887 36.2264 27.9616C36.8137 29.0456 36.8137 30.1308 36.2264 31.2185C35.4193 32.2305 34.5638 32.264 33.6611 31.3166C32.9856 30.2215 32.9534 29.1027 33.563 27.9616C33.8002 27.5755 34.1131 27.28 34.5005 27.0739H34.4992Z" fill="#10100F"/>
<path fill-rule="evenodd" clip-rule="evenodd" d="M23.0521 29.541C23.4656 29.5584 23.812 29.7235 24.0876 30.034C24.7991 31.175 25.1443 32.4242 25.1232 33.7838C25.1182 33.9415 25.0847 34.0892 25.0251 34.2283C23.9449 34.2035 23.1725 33.6944 22.7057 32.6986C22.1618 31.56 22.2773 30.507 23.0509 29.541H23.0521Z" fill="#EF9D6A"/>
<path fill-rule="evenodd" clip-rule="evenodd" d="M44.1707 30.4285C44.1533 30.5266 44.1868 30.5924 44.2687 30.6259C44.1806 31.5869 44.3283 32.5083 44.7133 33.3886C45.2124 33.7474 45.5253 34.2242 45.6507 34.819C45.4893 35.9179 44.8647 36.5263 43.7758 36.6442C43.7609 36.5399 43.777 36.4419 43.8255 36.3487C44.121 36.0855 44.4177 35.8223 44.7133 35.559C44.9852 35.2784 45.0845 34.9506 45.0088 34.5719C43.8975 33.4532 43.4704 32.1047 43.7261 30.5266C43.8466 30.3242 43.9956 30.2919 44.1707 30.4285Z" fill="#EE9B68"/>
<path fill-rule="evenodd" clip-rule="evenodd" d="M41.6036 39.6059C42.8875 39.4581 44.1056 39.6717 45.2554 40.2478C46.091 40.732 46.4523 41.4385 46.3406 42.3698C46.0835 42.484 45.8203 42.5002 45.5509 42.4195C44.1602 41.7154 42.7124 41.5515 41.2088 41.9265C40.5941 42.1848 39.9696 42.4145 39.3339 42.6169C38.6919 42.7038 38.4771 42.4232 38.6919 41.7775C39.3388 40.6203 40.3098 39.8964 41.6024 39.6071L41.6036 39.6059Z" fill="#CE412B"/>
<path fill-rule="evenodd" clip-rule="evenodd" d="M23.1514 36.1523C23.7412 36.4566 24.3658 36.654 25.0263 36.7446C25.3939 36.7123 25.7564 36.7446 26.1115 36.8427C27.3395 40.5329 29.4777 43.5601 32.526 45.9218V48.1915C32.4974 49.237 32.3335 50.2564 32.033 51.251C31.9585 51.1492 31.894 51.0337 31.8356 50.9058C31.7375 50.84 31.6382 50.84 31.5401 50.9058C30.3767 52.3499 29.1263 53.7144 27.7903 55.0008C26.7386 55.3187 25.7192 55.7135 24.7308 56.1854C24.7035 55.0331 24.4241 53.9479 23.8914 52.9285C23.4407 52.2518 22.8658 52.104 22.1643 52.484C22.0575 52.6156 21.9917 52.7633 21.9669 52.9285C21.9011 53.0601 21.8353 53.1917 21.7694 53.3233C21.8241 52.5175 21.5608 51.8433 20.9797 51.3006C20.6284 51.179 20.267 51.1293 19.8945 51.1529C19.9119 51.0089 20.0435 50.943 20.2894 50.9555C20.4272 50.9679 20.5588 51.0002 20.6842 51.0536C20.832 50.9455 20.8655 50.8313 20.7823 50.7084C22.5442 46.1304 23.6617 41.4431 24.1373 36.6465C23.704 36.5621 23.3749 36.3982 23.1502 36.1536L23.1514 36.1523Z" fill="#0E1726"/>
<path fill-rule="evenodd" clip-rule="evenodd" d="M93.4594 50.4598C92.4673 54.813 89.7543 57.2802 85.3191 57.8601C81.2526 58.0327 78.2912 56.3217 76.4374 52.7295C75.2963 49.9917 75.2591 47.4723 76.3257 45.1715C76.8174 44.1074 77.5462 43.0905 78.5098 42.1207C81.7468 39.6014 85.2334 39.2078 88.9695 40.9374C90.7724 42.0934 92.0427 43.504 92.7802 45.1715C93.4644 46.7149 93.6904 48.4781 93.4594 50.4598Z" fill="#E43B28"/>
<path fill-rule="evenodd" clip-rule="evenodd" d="M80.7811 43.7501C81.0692 43.7464 81.3324 43.8283 81.5708 43.9972C82.5753 45.0179 83.5947 46.0211 84.6303 47.007C85.6981 45.9888 86.751 44.9521 87.7878 43.8991C88.1293 43.8184 88.4583 43.8519 88.7749 43.9972C89.2232 44.3449 89.551 44.772 89.762 45.2799C89.7496 45.44 89.7 45.589 89.6143 45.7244C88.5452 46.7934 87.4761 47.8625 86.4071 48.9316C87.5122 50.0031 88.5812 51.1057 89.6143 52.2369C89.6888 52.5138 89.6565 52.777 89.5162 53.0266C89.1611 53.5146 88.7004 53.8436 88.1342 54.0137C87.9741 54.0013 87.825 53.9516 87.6897 53.866L84.5818 50.7581L81.4739 53.866C81.1747 54.0485 80.8779 54.0485 80.5862 53.866C80.0858 53.4823 79.7232 53.0055 79.5009 52.4356C79.522 52.294 79.5717 52.1624 79.6487 52.0407C80.7029 51.0027 81.7384 49.951 82.7566 48.8832C81.6701 47.7793 80.601 46.6618 79.5494 45.5282C79.4835 45.3308 79.4835 45.1333 79.5494 44.9359C79.8846 44.4517 80.2968 44.0568 80.7823 43.7514L80.7811 43.7501Z" fill="#FCF9F6"/>
<path fill-rule="evenodd" clip-rule="evenodd" d="M63.7083 52.3364C60.8462 52.2706 57.9854 52.2533 55.1234 52.2868C54.7174 52.4619 54.4057 52.7425 54.186 53.1261C54.0854 53.8947 54.0022 54.6509 53.9389 55.3959C53.1926 55.191 52.4687 54.9278 51.7684 54.6062C50.6261 53.4552 49.5409 52.2545 48.5115 51.0041C47.9441 50.798 47.7132 51.0116 47.8212 51.6461H47.7231C47.6585 50.2989 47.6262 48.9492 47.625 47.6007C47.9838 47.4207 48.3464 47.2407 48.7102 47.0581C53.9016 43.7019 56.7636 38.9165 57.2951 32.7008C57.4925 31.4405 57.6067 30.1578 57.6403 28.8529C57.6899 26.485 57.7061 24.1159 57.6899 21.748C57.7768 21.9331 57.8265 22.1963 57.8377 22.5377C57.87 22.4061 57.9035 22.2745 57.9358 22.1429C58.1493 22.2546 58.199 22.4024 58.0835 22.5874C58.2934 22.9959 58.5069 23.4069 58.7255 23.8204C58.7826 24.3108 58.9304 24.7715 59.17 25.2024C59.1489 25.2607 59.1166 25.3091 59.0719 25.3501C59.1973 25.7388 59.2966 26.1336 59.3674 26.5347L59.2693 26.6328C59.3351 27.3889 59.4009 28.1463 59.4668 28.9025C59.4009 29.0664 59.3351 29.2316 59.2693 29.3955C59.3997 30.0995 59.3997 30.8072 59.2693 31.5175C59.319 33.6233 59.4345 35.7279 59.6145 37.8326C60.0702 42.7235 61.3193 47.4269 63.3643 51.9441C63.4326 51.9962 63.4823 52.062 63.5121 52.1415C64.2 52.2235 64.8916 52.2731 65.5844 52.2893C64.9599 52.3389 64.3353 52.3551 63.7095 52.3389L63.7083 52.3364Z" fill="#0E1726"/>
<path fill-rule="evenodd" clip-rule="evenodd" d="M32.5247 48.19C36.7737 52.5346 41.8397 53.9488 47.7215 52.4328V51.643H47.8195C47.8357 52.0714 47.8195 52.4998 47.7699 52.9257C46.3842 56.2844 44.3118 59.1464 41.5529 61.5106C37.6714 59.0769 34.5139 55.9181 32.079 52.0367C32.0305 51.7759 32.0132 51.5127 32.0293 51.247C32.3298 50.2524 32.4949 49.233 32.5222 48.1875L32.5247 48.19Z" fill="#FAC99F"/>
<path fill-rule="evenodd" clip-rule="evenodd" d="M32.0331 51.2507C32.0169 51.5164 32.0331 51.7797 32.0827 52.0404C34.5164 55.9219 37.6752 59.0794 41.5566 61.5143C44.3156 59.1502 46.388 56.2882 47.7736 52.9295C47.8233 52.5036 47.8395 52.0752 47.8233 51.6468C47.7165 51.0123 47.9462 50.7988 48.5137 51.0049C49.5418 52.2552 50.6282 53.4559 51.7706 54.6069C51.8053 55.4227 51.7234 56.2447 51.5235 57.0741C50.7201 60.7184 49.322 64.1057 47.3291 67.2384C46.4786 66.1246 45.525 65.1052 44.4671 64.1789C43.5421 63.3036 42.5723 62.4803 41.5566 61.7117C40.7632 62.6206 39.9897 63.5407 39.2372 64.4744C38.4512 65.4094 37.6777 66.3643 36.9178 67.3365C36.8085 67.5165 36.6595 67.5997 36.4733 67.5836C34.7324 65.9421 33.1704 64.1491 31.786 62.2059C30.2985 59.8902 28.9674 57.4888 27.7891 55.0018C29.1251 53.7154 30.3755 52.3496 31.5389 50.9068C31.637 50.841 31.7363 50.841 31.8344 50.9068C31.8915 51.0347 31.9573 51.1501 32.0318 51.252L32.0331 51.2507Z" fill="#FBF8F5"/>
<path fill-rule="evenodd" clip-rule="evenodd" d="M32.5247 45.9219C34.309 47.2256 36.282 48.1631 38.4449 48.7342C41.6546 49.4792 44.7141 49.1005 47.6221 47.5994C47.6233 48.949 47.6556 50.2975 47.7202 51.6447V52.4344C41.8384 53.9492 36.7724 52.535 32.5234 48.1916V45.9219H32.5247Z" fill="#EF9D6A"/>
<path fill-rule="evenodd" clip-rule="evenodd" d="M84.8266 62.5985C84.8837 63.3708 84.9495 64.127 85.024 64.8682C85.0104 65.0694 84.998 65.2693 84.9868 65.4705C84.9098 66.7481 84.8564 68.0283 84.8266 69.3084C83.5812 68.9868 82.3309 68.6739 81.0768 68.371C80.5838 68.3052 80.0909 68.3052 79.5967 68.371C79.5682 68.3896 79.5396 68.4095 79.5123 68.4293C79.4576 68.4691 79.4067 68.51 79.3596 68.551C79.3124 68.5932 79.2689 68.6355 79.2292 68.6801C79.2093 68.7025 79.1895 68.7248 79.1721 68.7472C79.1361 68.7931 79.1038 68.8391 79.074 68.8863C79.0591 68.9099 79.0454 68.9334 79.033 68.9583C78.9945 69.0315 78.9647 69.106 78.9436 69.1843C78.8592 69.4847 78.8964 69.8225 79.0541 70.1975C79.0665 70.2235 79.0814 70.2484 79.0951 70.2732C79.1236 70.3229 79.1547 70.3701 79.1895 70.4135C79.2366 70.4731 79.29 70.529 79.3471 70.5787C79.3596 70.5886 79.372 70.5998 79.3856 70.6097C79.3993 70.6221 79.4142 70.632 79.4291 70.6432C79.4514 70.6594 79.475 70.6755 79.4986 70.6904C79.5309 70.7562 79.5644 70.822 79.5967 70.8878C79.0814 70.7103 78.555 70.5625 78.0186 70.4433C77.9813 70.4396 77.9441 70.4371 77.9081 70.4346C77.6945 70.4197 77.4995 70.4185 77.3245 70.4334C77.2723 70.4371 77.2214 70.4421 77.173 70.4508C77.1631 70.4508 77.1556 70.452 77.1469 70.4545C77.1246 70.457 77.1022 70.4607 77.0811 70.4657C77.055 70.4694 77.0302 70.4744 77.0054 70.4806C76.9805 70.4855 76.9557 70.4917 76.9321 70.4979C76.9085 70.5029 76.8849 70.5104 76.8626 70.5178C76.8179 70.5302 76.7744 70.5464 76.7334 70.5638C76.6912 70.5811 76.6515 70.5985 76.6142 70.6196C76.5397 70.6594 76.4727 70.7053 76.4131 70.7587C76.3982 70.7724 76.3833 70.786 76.3709 70.7997C76.3473 70.8233 76.3249 70.8493 76.3026 70.8754C76.3001 70.8791 76.2964 70.8829 76.2939 70.8878C76.2765 70.9114 76.2591 70.935 76.2442 70.9598C76.2281 70.9847 76.2144 71.0108 76.2008 71.0368C76.1995 71.0381 76.1995 71.0393 76.1995 71.0393C76.1958 71.0468 76.1921 71.0555 76.1883 71.0629C76.161 71.1213 76.1399 71.1821 76.1225 71.2479C76.1225 71.2504 76.1213 71.2541 76.1201 71.2578C76.1114 71.2914 76.1052 71.3274 76.0989 71.3634V71.3684C76.0927 71.4068 76.0878 71.4453 76.0853 71.4851C76.0816 71.5273 76.0803 71.5683 76.0803 71.6117C76.0803 71.9072 76.1511 72.2586 76.2914 72.6646C76.4317 72.8559 76.6142 72.9862 76.834 73.0583C76.834 73.1241 76.8005 73.1576 76.7347 73.1576C76.5112 73.2383 76.2802 73.3041 76.0443 73.355C73.15 73.2656 70.2557 73.1998 67.3601 73.1576C67.3204 73.1563 67.2806 73.1539 67.2409 73.1526H67.2384C62.987 72.9664 58.7169 72.7876 54.4331 72.615C53.9899 72.4337 53.677 72.1208 53.4957 71.6775C53.4795 71.0194 53.4634 70.3614 53.4473 69.7033C53.6149 65.3637 53.7664 61.0253 53.9005 56.6857C53.9141 56.2561 53.9278 55.8252 53.9402 55.3956C54.0035 54.6506 54.0855 53.8932 54.1873 53.1258C54.4058 52.7421 54.7187 52.4628 55.1248 52.2865C57.9855 52.2529 60.8476 52.2691 63.7096 52.3361C65.6007 52.4305 67.5079 52.4963 69.4325 52.5335C69.7764 52.6143 70.1377 52.6639 70.5189 52.6813C72.4261 52.7508 74.3333 52.8005 76.2417 52.8291C77.2065 55.8761 79.3447 57.833 82.6562 58.7009C83.4409 58.8263 84.2306 58.9083 85.024 58.948C85.0079 58.6823 85.0253 58.419 85.0737 58.1583C85.1395 59.246 85.106 60.3312 84.9756 61.4139C84.9557 61.6027 84.8725 61.7504 84.7285 61.8584C84.7943 61.892 84.8601 61.9243 84.9259 61.9578C84.7385 62.0459 84.5745 62.1614 84.4318 62.303C84.5311 62.5662 84.6292 62.5662 84.7285 62.303C84.7608 62.4011 84.7943 62.5004 84.8266 62.5985Z" fill="#1F3A5A"/>
<path fill-rule="evenodd" clip-rule="evenodd" d="M19.8932 51.1522C20.2657 51.1286 20.6271 51.1783 20.9784 51.2999C21.5595 51.8426 21.8228 52.5168 21.7681 53.3226C22.0078 56.7807 22.271 60.2337 22.5578 63.6843C21.7048 63.7489 20.8655 63.8805 20.041 64.0792C19.9503 60.6795 19.7206 57.2922 19.3506 53.9149C19.2662 53.8093 19.1842 53.71 19.1035 53.6194C19.075 53.0519 19.1246 52.4932 19.2513 51.9419C19.3767 51.6029 19.5915 51.3397 19.8932 51.1522Z" fill="#FACAA0"/>
<path fill-rule="evenodd" clip-rule="evenodd" d="M19.0064 53.62C19.3156 57.1326 19.4795 60.6515 19.4994 64.1791C18.7904 64.3492 18.1 64.5801 17.427 64.8694C17.2197 62.9647 17.0384 61.0563 16.8844 59.1454C16.872 58.7965 16.7578 58.4997 16.5392 58.2576C16.5231 56.9749 16.5392 55.6911 16.5889 54.4097C16.6622 54.026 16.7938 53.6647 16.9838 53.3244C17.3227 52.8725 17.7672 52.7247 18.3161 52.8799C18.6029 53.0786 18.8338 53.3257 19.0064 53.62Z" fill="#FBCBA1"/>
<path fill-rule="evenodd" clip-rule="evenodd" d="M59.958 56.4804C59.1696 56.4121 58.3799 56.3959 57.5902 56.4307C57.0277 56.7833 56.798 57.2924 56.8998 57.9604C56.6478 56.9547 57.0426 56.3624 58.0844 56.1836C58.8393 56.2792 59.5955 56.3612 60.3541 56.4307C60.2262 56.4791 60.0946 56.4953 59.9593 56.4804H59.958Z" fill="#172464"/>
<path fill-rule="evenodd" clip-rule="evenodd" d="M85.32 57.8631C85.1747 60.1962 85.0754 62.5318 85.0232 64.8698C84.9487 64.1286 84.8829 63.3724 84.8258 62.6001C84.7935 62.502 84.76 62.4027 84.7277 62.3046C84.6284 62.5678 84.5303 62.5678 84.4309 62.3046C84.5737 62.163 84.7376 62.0475 84.9251 61.9594C84.8593 61.9259 84.7935 61.8936 84.7277 61.8601C84.8717 61.752 84.9549 61.6043 84.9748 61.4155C85.1052 60.3328 85.1387 59.2476 85.0729 58.1599C85.0245 58.4206 85.0071 58.6839 85.0232 58.9496C84.2298 58.9099 83.4401 58.8279 82.6554 58.7025C79.3438 57.8346 77.2057 55.8777 76.2409 52.8307C74.3325 52.8021 72.4253 52.7524 70.5181 52.6829C70.1369 52.6655 69.7756 52.6159 69.4316 52.5352C71.7685 52.5761 74.104 52.6419 76.4384 52.7326C78.2922 56.3247 81.2535 58.0357 85.32 57.8631Z" fill="#172B45"/>
<path fill-rule="evenodd" clip-rule="evenodd" d="M59.9581 56.4795C60.7304 56.5615 61.5201 56.6112 62.3259 56.6273C62.5023 56.7043 62.65 56.8197 62.7705 56.9725C62.9306 58.2129 62.9642 59.4633 62.8686 60.7223C62.7953 61.0253 62.6153 61.2388 62.3259 61.3642C61.468 61.43 60.6137 61.4139 59.7607 61.3146C59.0033 61.2922 58.2458 61.2438 57.4909 61.1668C57.2811 61.0563 57.101 60.9085 56.9483 60.7223C56.8055 59.878 56.7571 59.0225 56.8005 58.157C56.8837 58.1235 56.916 58.0577 56.8986 57.9596C56.7968 57.2916 57.0265 56.7825 57.589 56.4299C58.3787 56.3951 59.1684 56.4112 59.9569 56.4795H59.9581Z" fill="#F3C23F"/>
<path fill-rule="evenodd" clip-rule="evenodd" d="M59.2694 56.5795C59.3675 56.5708 59.4495 56.6043 59.5165 56.6776C59.5327 56.875 59.5488 57.0724 59.5662 57.2698C59.4097 58.1191 59.3601 58.9746 59.4184 59.8351C59.4383 59.5272 59.5041 59.2304 59.6158 58.9473C59.7624 59.0963 59.9436 59.1783 60.1584 59.1944C60.2044 59.3645 60.2205 59.5458 60.2081 59.737C60.2739 59.8686 60.3397 59.8686 60.4055 59.737C60.4378 58.7499 60.4713 57.764 60.5036 56.7769C60.5446 56.7322 60.5943 56.6987 60.6514 56.6788C60.8041 57.1606 60.8699 57.6535 60.8488 58.1589C61.5094 58.1477 62.1675 58.1812 62.8218 58.257V58.6518C62.129 58.6059 61.4386 58.5401 60.7495 58.4544V59.4415C61.4299 59.5334 62.1041 59.5334 62.7721 59.4415C62.8206 59.5694 62.8367 59.701 62.8218 59.8364H60.7495C60.7656 60.2647 60.7495 60.6931 60.6998 61.119C60.1349 61.2432 59.5749 61.2109 59.0223 61.0209C58.9727 60.595 58.9565 60.1666 58.9727 59.7383H56.9997C56.9848 59.6029 56.9997 59.4713 57.0493 59.3434C57.6813 59.4403 58.3233 59.4725 58.9739 59.4415C59.0434 59.1174 59.077 58.7884 59.072 58.4544C58.4325 58.4134 57.808 58.3315 57.1971 58.2073C57.4318 58.0049 57.7111 57.923 58.0364 57.9602C58.4164 57.985 58.7951 58.0186 59.1713 58.0583C59.1825 57.5629 59.216 57.0699 59.2694 56.5782V56.5795Z" fill="#F0B932"/>
<path fill-rule="evenodd" clip-rule="evenodd" d="M56.8019 58.1582C56.7584 59.0236 56.8081 59.8791 56.9496 60.7235C57.1023 60.9085 57.2824 61.0562 57.4922 61.168C58.2472 61.245 59.0033 61.2934 59.762 61.3158C57.0527 61.8956 56.0668 60.8439 56.8019 58.1582Z" fill="#242665"/>
<path fill-rule="evenodd" clip-rule="evenodd" d="M21.9655 52.927C22.1927 54.0979 22.3417 55.2825 22.41 56.4794C22.6148 58.9106 22.7638 61.3443 22.8545 63.7817C23.0544 63.7655 23.2518 63.7817 23.4468 63.8313C23.4915 63.8723 23.525 63.922 23.5448 63.9791C21.1311 64.0561 18.8278 64.5987 16.6375 65.6069C16.4636 65.6851 16.2997 65.669 16.1445 65.5572C16.3531 65.3697 16.5841 65.2058 16.8349 65.0643C16.8672 64.8507 16.9007 64.6372 16.933 64.4223C16.7629 62.3662 16.5977 60.31 16.44 58.255H16.5381C16.7567 58.4971 16.8721 58.7939 16.8833 59.1428C17.0373 61.0537 17.2186 62.9609 17.4259 64.8669C18.0989 64.5776 18.7893 64.3466 19.4983 64.1765C19.4784 60.6502 19.3133 57.1301 19.0053 53.6174H19.1034C19.1841 53.7093 19.2661 53.8074 19.3505 53.9129C19.7205 57.2902 19.9515 60.6775 20.0409 64.0772C20.8653 63.8785 21.7035 63.7469 22.5577 63.6823C22.2721 60.233 22.0089 56.7787 21.768 53.3206C21.8338 53.189 21.8996 53.0574 21.9655 52.9258V52.927Z" fill="#EE9965"/>
<path fill-rule="evenodd" clip-rule="evenodd" d="M61.1426 64.1781C62.9691 64.075 64.8117 64.0911 66.6692 64.2277C66.2756 64.2774 65.8808 64.2935 65.4847 64.2774C64.0381 64.2389 62.5904 64.2054 61.1426 64.1793V64.1781Z" fill="#152263"/>
<path fill-rule="evenodd" clip-rule="evenodd" d="M81.8656 65.8557C81.9041 65.5167 81.8383 65.2051 81.6682 64.9183C81.5751 64.8711 81.4758 64.8537 81.3727 64.8686C81.2672 64.7767 81.1355 64.7432 80.9778 64.7705C78.6088 64.7159 76.2409 64.6501 73.873 64.5731C76.2595 64.48 78.6609 64.5122 81.0772 64.6712C81.2411 64.655 81.4062 64.6389 81.5701 64.6215L81.472 64.5234C81.7464 64.3012 81.8122 64.3496 81.6695 64.6712C81.893 64.9046 81.9923 65.1852 81.965 65.5105C81.9774 65.7142 81.9439 65.8296 81.8669 65.8557H81.8656Z" fill="#1F2561"/>
<path fill-rule="evenodd" clip-rule="evenodd" d="M61.1428 64.1768C62.5906 64.2041 64.0371 64.2364 65.4849 64.2749C65.9592 64.3718 66.4522 64.4053 66.965 64.373C68.1483 64.0589 68.5916 64.4872 68.2973 65.6556C67.7733 65.8344 67.2307 65.9002 66.6695 65.8531C65.2378 65.7711 63.7913 65.7053 62.3274 65.6556C60.5481 65.6395 58.7725 65.5737 56.9982 65.4582C56.7784 65.0348 56.7461 64.5903 56.9001 64.1259C58.3156 64.0787 59.7298 64.0949 61.1428 64.1756V64.1768Z" fill="#F3C241"/>
<path fill-rule="evenodd" clip-rule="evenodd" d="M66.965 64.3738C68.1533 63.9094 68.6636 64.3042 68.4947 65.5583C68.445 65.7396 68.3308 65.8538 68.1495 65.9035C66.5614 65.9954 66.0685 65.978 66.6695 65.8538C67.2319 65.901 67.7745 65.8352 68.2973 65.6564C68.5916 64.488 68.1483 64.0596 66.965 64.3738Z" fill="#122163"/>
<path fill-rule="evenodd" clip-rule="evenodd" d="M73.8734 64.5715C76.2413 64.6485 78.6104 64.7143 80.9782 64.7689C80.9906 64.8422 80.9745 64.908 80.9285 64.9664C78.4514 64.8136 75.9681 64.7813 73.4786 64.8683C73.6164 64.985 73.6002 65.0508 73.4289 65.0657C73.4041 64.9639 73.3221 64.8645 73.1818 64.7702C73.1495 64.7863 73.116 64.8025 73.0837 64.8198C73.1967 65.0632 73.296 65.3103 73.3792 65.5599C73.1743 65.5797 72.9769 65.5959 72.787 65.6095C72.9186 65.5114 72.9186 65.4121 72.787 65.314C72.9024 65.2731 73.0018 65.2072 73.0825 65.1166C72.9496 64.9887 72.818 64.939 72.6876 64.9688C72.7857 64.903 72.885 64.8372 72.9831 64.7714C72.0643 64.6733 71.143 64.6398 70.2204 64.6733C70.1944 65.0421 70.2279 65.4047 70.3185 65.7585C71.2299 65.8877 71.2299 65.9535 70.3185 65.956C70.2577 65.9448 70.208 65.9125 70.1708 65.8579C70.1546 65.6443 70.1385 65.4307 70.1211 65.2159C70.1285 64.9564 70.1944 64.7267 70.3185 64.5256C71.5031 64.5094 72.6864 64.5256 73.8709 64.5752L73.8734 64.5715Z" fill="#F5CF3D"/>
<path fill-rule="evenodd" clip-rule="evenodd" d="M80.9769 64.7696C81.1346 64.7435 81.2662 64.7758 81.3718 64.8677C81.2675 64.8528 81.1694 64.869 81.0762 64.9174C81.2675 64.9422 81.4475 64.9919 81.6188 65.0651C81.6847 65.3284 81.6847 65.5916 81.6188 65.8548C81.5878 66.0088 81.5059 66.1243 81.3718 66.2C78.4278 66.1665 75.4838 66.0833 72.5398 65.9529C72.1114 65.9529 71.6992 65.9865 71.3068 66.051C70.9579 66.0821 70.6289 66.0485 70.3197 65.9529C71.2311 65.9504 71.2311 65.8846 70.3197 65.7555C70.2278 65.4004 70.1955 65.0391 70.2216 64.6703C71.1454 64.638 72.0655 64.6703 72.9843 64.7684C72.8862 64.8342 72.7869 64.9 72.6888 64.9658C72.8192 64.9372 72.9508 64.9857 73.0836 65.1136C73.0017 65.2042 72.9036 65.27 72.7881 65.311C72.9197 65.4091 72.9197 65.5084 72.7881 65.6065C72.9781 65.5928 73.1755 65.5767 73.3804 65.5568C73.2972 65.306 73.1979 65.0602 73.0849 64.8168C73.1172 64.8007 73.1507 64.7845 73.183 64.7671C73.322 64.8627 73.4052 64.9608 73.4301 65.0627C73.6002 65.0478 73.6176 64.9819 73.4797 64.8652C75.9705 64.7783 78.4538 64.8118 80.9297 64.9633C80.9757 64.905 80.9918 64.8392 80.9794 64.7659L80.9769 64.7696Z" fill="#F4C042"/>
<path fill-rule="evenodd" clip-rule="evenodd" d="M56.998 65.459C58.7711 65.5745 60.548 65.6403 62.3273 65.6564C61.2594 65.7384 60.173 65.788 59.0704 65.8042C58.9624 65.9383 58.8307 65.9718 58.6755 65.9023C58.9388 65.8365 58.9388 65.7706 58.6755 65.7048C58.1826 65.6725 57.6884 65.639 57.1955 65.6067C57.1048 65.5794 57.039 65.5298 56.998 65.459Z" fill="#142562"/>
<path fill-rule="evenodd" clip-rule="evenodd" d="M72.293 66.1516C73.6737 66.1901 75.0557 66.2236 76.4376 66.2497C76.044 66.3155 75.633 66.3478 75.2047 66.3478C73.9667 66.3279 72.9958 66.2621 72.2942 66.1504L72.293 66.1516Z" fill="#031966"/>
<path fill-rule="evenodd" clip-rule="evenodd" d="M81.3735 64.8686C81.4778 64.8537 81.5759 64.8699 81.669 64.9183C81.8391 65.2051 81.905 65.5168 81.8665 65.8558C81.7833 65.8893 81.751 65.9551 81.7684 66.0532C81.674 66.2618 81.5101 66.376 81.2754 66.3984C79.9928 66.4058 78.7102 66.3884 77.4275 66.3487C77.1196 66.2518 76.7905 66.2196 76.4404 66.2506C75.0584 66.2233 73.6777 66.191 72.2957 66.1525C71.9878 66.0557 71.6587 66.0234 71.3086 66.0544C71.7022 65.9886 72.1132 65.9563 72.5416 65.9563C75.4856 66.0867 78.4295 66.1687 81.3735 66.2034C81.5064 66.1277 81.5883 66.0122 81.6206 65.8582C81.6864 65.595 81.6864 65.3318 81.6206 65.0685C81.4493 64.994 81.2692 64.9456 81.078 64.9208C81.1711 64.8736 81.2705 64.8562 81.3735 64.8711V64.8686Z" fill="#E8CC3F"/>
<path fill-rule="evenodd" clip-rule="evenodd" d="M81.7673 66.0527C81.8418 66.2663 81.7437 66.4141 81.4718 66.4973C79.8588 66.5581 78.2472 66.5246 76.6367 66.3992C76.8975 66.3507 77.1607 66.3334 77.4264 66.3495C78.7103 66.3892 79.9929 66.4054 81.2743 66.3992C81.509 66.3768 81.6741 66.2626 81.7673 66.054V66.0527Z" fill="#0B1F62"/>
<path fill-rule="evenodd" clip-rule="evenodd" d="M45.9459 99.9989H38.8398C38.8411 99.979 38.8423 99.9592 38.8423 99.9393C39.4147 89.0077 39.94 78.0748 40.4192 67.1382C40.4031 66.9408 40.3857 66.7434 40.3696 66.546C39.9909 65.8531 39.6122 65.1615 39.2347 64.4736C39.9871 63.5399 40.7607 62.6198 41.5541 61.7109C42.5698 62.4795 43.5395 63.3028 44.4646 64.1781C44.2249 65.0547 43.9617 65.9264 43.6761 66.7931C44.1045 70.7813 44.4497 74.777 44.7117 78.7826C45.1078 85.8563 45.52 92.9289 45.9459 99.9989Z" fill="#52216C"/>
<path fill-rule="evenodd" clip-rule="evenodd" d="M62.129 67.9268H59.3663C58.9913 67.8299 58.5965 67.7964 58.1818 67.8287C57.695 67.7989 57.2182 67.8312 56.7514 67.9268C56.6856 68.2881 56.6856 68.6507 56.7514 69.012L56.8991 69.1597C59.6929 69.3112 62.4891 69.4255 65.2866 69.5049C64.2659 69.5422 63.2465 69.6415 62.2271 69.8004C62.1352 69.6192 62.021 69.5869 61.8819 69.7024C61.579 69.5757 61.2512 69.5099 60.8948 69.5049C59.5252 69.4664 58.1606 69.3845 56.7998 69.2578C56.4732 68.8158 56.4248 68.339 56.652 67.8274C56.7576 67.7592 56.873 67.7095 56.9972 67.6797C59.0695 67.6996 61.1419 67.7654 63.2142 67.8771C62.8541 67.9268 62.4916 67.9429 62.129 67.9268Z" fill="#1B2661"/>
<path fill-rule="evenodd" clip-rule="evenodd" d="M63.8066 68.0274C64.0512 67.9616 64.3145 67.9293 64.5963 67.9293C65.7722 67.8647 66.1348 68.3738 65.6816 69.459C65.5586 69.5323 65.4593 69.5161 65.386 69.4093C65.6468 69.3361 65.7784 69.1548 65.7809 68.8667C65.7585 68.5998 65.6592 68.3701 65.4854 68.1764C64.9378 68.0373 64.379 67.9889 63.8079 68.0286L63.8066 68.0274Z" fill="#0C1E63"/>
<path fill-rule="evenodd" clip-rule="evenodd" d="M58.183 67.8298C58.5977 67.7987 58.9926 67.831 59.3675 67.9278C60.8786 68.0768 62.8516 68.1911 65.2878 68.273C65.5163 68.4009 65.6144 68.5983 65.5833 68.8653C65.5659 69.0292 65.5001 69.1608 65.3859 69.2601C62.5537 69.2887 59.7239 69.2068 56.8991 69.0131C56.8656 68.7511 56.9314 68.5201 57.0965 68.3227L56.8991 68.1253C57.2902 68.0433 57.6851 67.9949 58.0837 67.9775C58.1383 67.9403 58.1718 67.8906 58.1818 67.8298H58.183Z" fill="#F4C141"/>
<path fill-rule="evenodd" clip-rule="evenodd" d="M58.1816 67.8289C58.1705 67.8897 58.1382 67.9394 58.0835 67.9766C57.685 67.994 57.2901 68.0424 56.899 68.1244L57.0964 68.3218C56.9313 68.5205 56.8655 68.7502 56.899 69.0122C59.7238 69.2046 62.5523 69.2866 65.3858 69.2593C65.5 69.1599 65.5658 69.0283 65.5832 68.8644C65.6142 68.5975 65.5161 68.4 65.2877 68.2721C62.8515 68.1902 60.8773 68.0747 59.3674 67.927H62.1301C62.6703 68.0251 63.2302 68.0573 63.8076 68.0251C64.3788 67.9853 64.9375 68.035 65.4851 68.1728C65.6602 68.3665 65.7583 68.5975 65.7806 68.8632C65.7781 69.1512 65.6465 69.3325 65.3858 69.4058C65.32 69.4058 65.2877 69.4381 65.2877 69.5039C62.4902 69.4244 59.694 69.3102 56.9002 69.1587L56.7525 69.0109C56.6867 68.6496 56.6867 68.287 56.7525 67.9257C57.2193 67.8301 57.6974 67.7966 58.1829 67.8276L58.1816 67.8289Z" fill="#EDCF3C"/>
<path fill-rule="evenodd" clip-rule="evenodd" d="M67.359 73.157C70.2545 73.1992 73.1489 73.265 76.0432 73.3544C75.7613 73.8734 75.6781 74.4334 75.7961 75.0319C76.1251 75.4764 76.5038 75.8713 76.931 76.2164V76.4139C76.0618 76.6361 75.7501 77.1961 75.9935 78.0914C76.0593 78.223 76.1251 78.3546 76.1909 78.4862C76.7857 79.0834 77.3941 79.6422 78.0162 80.1637V80.5585C77.4736 81.7406 77.1445 82.991 77.0291 84.3084C76.7261 84.1134 76.3971 84.0315 76.0419 84.0613C74.9393 85.0819 73.8541 86.1175 72.7851 87.1692C71.3547 82.5986 69.8907 78.0268 68.3933 73.4525C67.9463 73.2799 67.4695 73.198 66.9629 73.2054C67.0908 73.157 67.2224 73.1408 67.3577 73.1557L67.359 73.157Z" fill="#FCFAF7"/>
<path fill-rule="evenodd" clip-rule="evenodd" d="M24.7313 56.1854C24.9548 59.9713 25.2168 63.7534 25.521 67.5342C24.8679 67.6795 24.2756 67.9589 23.7442 68.3736C22.4553 69.357 21.4843 70.5912 20.8337 72.0738C20.671 72.5295 20.6549 72.9901 20.784 73.4557C21.4049 71.402 22.5894 69.7407 24.3364 68.4729C24.704 68.2234 25.0988 68.0259 25.521 67.8807C25.6042 67.7813 25.6365 67.6659 25.6191 67.5355C26.261 65.6941 27.2804 64.0986 28.6785 62.7501C29.1926 62.2497 29.7836 62.1181 30.4554 62.3553C30.8962 62.6607 31.0439 63.0717 30.8999 63.5882C30.4392 64.8386 29.9786 66.0877 29.5179 67.3381C29.0647 69.0751 28.6376 70.8184 28.2353 72.5679C27.4828 75.2934 25.9369 77.4315 23.5977 78.9824C23.4598 79.5436 23.3121 80.1036 23.1531 80.6599C23.101 81.0945 22.8551 81.2584 22.4131 81.1528C20.1086 80.9107 17.9208 80.27 15.8509 79.2282C15.5132 79.0606 15.2177 78.847 14.9631 78.5863V78.2908C15.168 78.0189 15.3331 77.7233 15.4561 77.403C14.8129 75.7491 14.4019 74.0393 14.2231 72.2712C14.0505 68.5524 14.0344 64.8349 14.1734 61.1198C14.1573 60.3624 14.1734 59.6062 14.2231 58.85C14.2814 58.4775 14.3808 58.115 14.5186 57.7648C15.4002 56.9913 16.0409 57.1552 16.4432 58.2578C16.6009 60.3127 16.766 62.3689 16.9361 64.4251C16.9038 64.6387 16.8703 64.8523 16.838 65.0671C16.5872 65.2086 16.3563 65.3725 16.1477 65.56C16.3029 65.6717 16.468 65.6879 16.6406 65.6097C18.8321 64.6014 21.1342 64.0588 23.548 63.9818C23.5269 63.9235 23.4946 63.8751 23.4499 63.8341C23.255 63.7857 23.0575 63.7683 22.8576 63.7844C22.767 61.347 22.6192 58.9134 22.4131 56.4822C22.3448 55.2852 22.1971 54.1007 21.9686 52.9298C21.9934 52.7646 22.0592 52.6169 22.166 52.4853C22.8676 52.1041 23.4424 52.2518 23.8932 52.9298C24.4246 53.9479 24.704 55.0332 24.7325 56.1867L24.7313 56.1854Z" fill="#FACCA2"/>
<path fill-rule="evenodd" clip-rule="evenodd" d="M25.5182 67.5325H25.6163C25.6337 67.6629 25.6002 67.7783 25.5182 67.8777C25.0961 68.0229 24.7012 68.2204 24.3337 68.4699C22.5867 69.7389 21.4021 71.399 20.7813 73.4527C20.6522 72.9871 20.6683 72.5265 20.831 72.0708C21.4828 70.5882 22.4526 69.354 23.7414 68.3706C24.2729 67.9571 24.8651 67.6778 25.5182 67.5312V67.5325Z" fill="#ED9966"/>
<path fill-rule="evenodd" clip-rule="evenodd" d="M76.8337 73.0586C78.8601 73.7428 80.8666 74.4828 82.8533 75.2787C84.1645 76.2273 85.4471 77.2144 86.7012 78.2388C86.9744 78.661 86.8763 78.7591 86.4057 78.5343C85.2063 77.5894 83.9894 76.6681 82.754 75.7716C80.9275 75.0092 79.0861 74.2854 77.2273 73.6012C77.01 73.4981 76.8449 73.3504 76.7344 73.1567C76.8002 73.1567 76.8325 73.1244 76.8325 73.0586H76.8337Z" fill="#ED9865"/>
<path fill-rule="evenodd" clip-rule="evenodd" d="M90.4027 78.19C90.4189 79.639 89.9421 80.8894 88.9723 81.9398C88.4806 82.7904 87.938 83.6123 87.3445 84.407C86.1637 85.8175 84.9481 87.1995 83.6928 88.5517C83.5202 88.7715 83.3724 89.0024 83.2482 89.242C82.8174 89.689 82.4052 90.1497 82.0153 90.624C79.6673 89.5587 77.9401 87.8638 76.8351 85.5419C76.9245 85.1346 76.9903 84.7224 77.0325 84.3089C77.148 82.9915 77.477 81.7411 78.0196 80.5591C78.7621 81.2532 79.5021 81.9758 80.2397 82.7295C80.3055 82.8611 80.3055 82.9927 80.2397 83.1244C79.5468 83.6893 79.2836 84.4145 79.45 85.2948C79.481 85.3743 79.5295 85.4401 79.5978 85.4922C79.7505 84.6752 80.1453 84.001 80.7823 83.4695C80.9586 83.4186 81.1238 83.4509 81.2752 83.5676C81.5273 83.8172 81.8079 84.032 82.1146 84.2096C82.2003 84.15 82.25 84.068 82.2624 83.9625C81.1089 82.6451 79.8597 81.427 78.5125 80.3108C78.3611 80.2114 78.1972 80.1618 78.0196 80.163C77.3975 79.6415 76.7891 79.0827 76.1944 78.4855C76.1285 78.3539 76.0627 78.2223 75.9969 78.0907C75.7536 77.1942 76.0665 76.6367 76.9344 76.4132C77.0474 76.5411 77.1777 76.6565 77.3292 76.7584C78.6094 77.3829 79.892 78.0075 81.1772 78.6333C82.4834 79.7259 83.8331 80.7615 85.2225 81.7412C85.3119 81.6133 85.2958 81.4829 85.1728 81.3463C84.6439 80.8993 84.1336 80.4386 83.6431 79.9643C82.8422 79.3807 82.0525 78.7736 81.2752 78.1391C79.8511 77.4301 78.4033 76.7882 76.9331 76.2145C76.506 75.8693 76.1273 75.4745 75.7983 75.03C75.6803 74.4315 75.7623 73.8715 76.0454 73.3525C76.2813 73.3016 76.5122 73.2357 76.7357 73.155C76.8475 73.3475 77.0114 73.4953 77.2287 73.5996C79.0874 74.285 80.9276 75.0088 82.7553 75.77C83.9895 76.6665 85.2076 77.5878 86.407 78.5327C86.8776 78.7574 86.977 78.6593 86.7026 78.2372C85.4472 77.2128 84.1646 76.2257 82.8546 75.277C80.8667 74.4811 78.8614 73.7411 76.8351 73.057C76.6153 72.9849 76.434 72.8533 76.2924 72.6621C75.7262 71.0256 76.3011 70.2843 78.0196 70.442C78.556 70.56 79.0825 70.709 79.599 70.8865C81.2616 71.6216 82.9391 72.3293 84.6315 73.0085C85.8309 74.0515 87.0813 75.0213 88.3813 75.919C88.5911 75.8097 88.5911 75.662 88.3813 75.4745C87.2303 74.5196 86.0792 73.5673 84.927 72.6124C83.1464 71.8823 81.3386 71.2404 79.4997 70.6879C79.3072 70.5674 79.1594 70.4035 79.0551 70.1949C78.7336 69.4288 78.9136 68.8216 79.5978 68.3697C80.0907 68.3039 80.5849 68.3039 81.0778 68.3697C82.3319 68.6726 83.581 68.9855 84.8276 69.3071C86.109 69.661 87.1781 70.3514 88.0349 71.3795C89.0667 72.7403 90.0203 74.1546 90.8969 75.6222C91.1018 76.5435 90.9366 77.3991 90.404 78.1875L90.4027 78.19Z" fill="#FAC79D"/>
<path fill-rule="evenodd" clip-rule="evenodd" d="M79.498 70.6914C81.3357 71.2439 83.1448 71.8859 84.9254 72.616C86.0764 73.5696 87.2274 74.5232 88.3797 75.478C88.5895 75.6643 88.5895 75.812 88.3797 75.9225C87.0796 75.0248 85.8305 74.0551 84.6298 73.0121C82.9375 72.3329 81.26 71.6264 79.5974 70.8901C79.5651 70.8243 79.5316 70.7585 79.4993 70.6926L79.498 70.6914Z" fill="#ED9865"/>
<path fill-rule="evenodd" clip-rule="evenodd" d="M14.9617 78.2897V78.5852C14.5284 78.5008 14.1994 78.2698 13.9746 77.8949C14.0826 77.7868 14.2143 77.7695 14.3695 77.8452C14.583 77.9768 14.7804 78.1246 14.9617 78.2897Z" fill="#24102A"/>
<path fill-rule="evenodd" clip-rule="evenodd" d="M13.974 77.8945C14.1987 78.2708 14.5278 78.5005 14.9611 78.5849C15.2156 78.8444 15.5112 79.0592 15.8489 79.2268C17.9188 80.2673 20.1066 80.9093 22.4111 81.1514C22.8531 81.257 23.099 81.0931 23.1511 80.6585C23.6999 80.6485 23.9955 80.9118 24.0389 81.4482C23.7633 83.2225 23.4007 84.9658 22.9537 86.6781C22.8059 86.7265 22.6743 86.7923 22.5589 86.8755C19.3442 86.9934 16.3841 86.1876 13.6772 84.458C13.0067 83.9688 12.3822 83.4249 11.8023 82.8301C11.6906 82.6091 11.6409 82.3782 11.6546 82.1398C12.3797 80.687 13.1532 79.2728 13.974 77.897V77.8945Z" fill="#52216B"/>
<path fill-rule="evenodd" clip-rule="evenodd" d="M76.9316 76.2168C78.4018 76.7904 79.8495 77.4311 81.2737 78.1414C82.051 78.7759 82.8407 79.3843 83.6416 79.9666C84.132 80.4409 84.6424 80.9003 85.1713 81.3486C85.2942 81.4839 85.3104 81.6156 85.221 81.7434C83.8303 80.7638 82.4819 79.7282 81.1756 78.6356C79.8893 78.0098 78.6066 77.3852 77.3277 76.7606C77.1775 76.6588 77.0459 76.5434 76.9329 76.4155V76.218L76.9316 76.2168Z" fill="#ED9966"/>
<path fill-rule="evenodd" clip-rule="evenodd" d="M78.0176 80.1641C78.1964 80.1641 78.3603 80.2125 78.5105 80.3118C79.8565 81.4281 81.1068 82.6449 82.2603 83.9636C82.2479 84.0679 82.1983 84.1498 82.1126 84.2106C81.8059 84.0331 81.5265 83.8183 81.2732 83.5687C81.1205 83.452 80.9566 83.4185 80.7803 83.4706C80.1445 84.002 79.7497 84.6763 79.5957 85.4933C79.5274 85.4411 79.4778 85.3753 79.448 85.2959C79.2816 84.4143 79.5448 83.6904 80.2377 83.1254C80.3035 82.9938 80.3035 82.8622 80.2377 82.7306C79.5001 81.9769 78.7601 81.253 78.0176 80.5602V80.1653V80.1641Z" fill="#EE9B68"/>
<path fill-rule="evenodd" clip-rule="evenodd" d="M78.2891 94.5766C73.5919 96.5235 68.0479 98.0458 61.9414 99.0155C61.7862 99.0404 61.6297 99.064 61.4733 99.0876C58.7528 99.506 55.923 99.8139 53.0076 100H45.9475C45.5216 92.9301 45.1094 85.8576 44.7133 78.7839C44.4513 74.7783 44.1061 70.7826 43.6777 66.7944C43.9633 65.9277 44.2266 65.056 44.4662 64.1794C45.5241 65.1045 46.4777 66.1251 47.3282 67.2376C49.3211 64.1062 50.7192 60.7177 51.5226 57.0746C51.5648 56.8983 51.602 56.7232 51.6331 56.5481C51.6455 56.4823 51.6567 56.4165 51.6666 56.3507C51.6741 56.3085 51.6803 56.2663 51.6865 56.2241C51.6964 56.157 51.7051 56.09 51.7125 56.0229C51.7237 55.936 51.7324 55.8478 51.7411 55.7609C51.7486 55.674 51.756 55.5883 51.761 55.5014V55.4977C51.7659 55.4294 51.7684 55.3599 51.7709 55.2916C51.7721 55.2581 51.7734 55.2245 51.7746 55.191C51.7784 54.9961 51.7771 54.8024 51.7684 54.6074C52.47 54.929 53.1926 55.191 53.9401 55.3971C53.9277 55.8267 53.914 56.2576 53.9004 56.6872C53.7663 61.0268 53.6148 65.3652 53.4472 69.7048C53.4633 70.3629 53.4794 71.021 53.4956 71.6791C53.6769 72.1223 53.9898 72.4352 54.433 72.6165C58.7168 72.7891 62.9869 72.9679 67.2383 73.1542C67.2197 73.1542 67.1998 73.1554 67.1812 73.1579C67.1688 73.1579 67.1564 73.1604 67.144 73.1629C67.1303 73.1641 67.1166 73.1666 67.1017 73.1691C67.057 73.1778 67.0111 73.1914 66.9664 73.2088C67.473 73.2001 67.9498 73.2833 68.3968 73.4546C69.8942 78.0289 71.3582 82.602 72.7873 87.1713C72.6917 87.3017 72.5924 87.4333 72.4918 87.5662C73.5907 90.3587 75.3675 92.6123 77.821 94.3258C77.9762 94.4139 78.1327 94.4971 78.2891 94.5766Z" fill="#D3DFE7"/>
<path fill-rule="evenodd" clip-rule="evenodd" d="M83.7894 91.6119C83.6379 91.787 83.4877 91.9621 83.3362 92.1371C81.7903 93.0088 80.1029 93.8246 78.2876 94.5758C78.1311 94.4963 77.9747 94.4131 77.8195 94.3249C75.3659 92.6115 73.5891 90.3578 72.4902 87.5653C72.5908 87.4325 72.6901 87.3009 72.7858 87.1705C73.8548 86.1188 74.94 85.0832 76.0426 84.0626C76.3977 84.0328 76.7268 84.1147 77.0298 84.3097C77.0086 84.517 76.9813 84.7232 76.9478 84.928C76.9317 85.0311 76.913 85.1329 76.8944 85.236C76.8745 85.339 76.8547 85.4408 76.8323 85.5427C77.9374 87.8646 79.6646 89.5582 82.0126 90.6248C82.4037 90.1517 82.8147 89.6911 83.2468 89.2428C83.8862 89.9295 84.0675 90.7192 83.7894 91.6119Z" fill="#51216B"/>
<path fill-rule="evenodd" clip-rule="evenodd" d="M63.9565 82.5326C63.4014 86.2452 62.8762 89.9628 62.3771 93.684C62.2355 95.4609 62.089 97.2389 61.9412 99.0145C61.786 99.0393 61.6296 99.0629 61.4731 99.0865C61.3837 98.9214 61.3068 98.7488 61.2422 98.5687C61.3217 97.5021 61.3701 96.4331 61.3899 95.3615C62.0381 90.8655 62.5981 86.3595 63.0674 81.8423C63.2388 79.0796 63.2562 76.3169 63.1171 73.5529C63.2152 73.5492 63.281 73.5989 63.3145 73.7007C63.9552 76.6111 64.17 79.5551 63.9565 82.5326Z" fill="#AFC4D5"/>
<path fill-rule="evenodd" clip-rule="evenodd" d="M22.9531 86.6777C22.4639 90.1171 21.9585 93.5528 21.4395 96.9848C20.9652 96.8519 20.4971 96.7141 20.0352 96.5738C20.9279 93.4125 21.6704 90.2128 22.2627 86.9733C22.4303 86.9894 22.5942 86.9732 22.7556 86.9248C22.6973 86.8789 22.6315 86.8615 22.5582 86.8752C22.6737 86.792 22.8053 86.7262 22.9531 86.6777Z" fill="#AFC4D5"/>
<path fill-rule="evenodd" clip-rule="evenodd" d="M71.3067 86.8746C72.002 86.8299 72.1337 87.0608 71.7016 87.5649C69.6205 88.5459 67.7133 89.7788 65.9775 91.2651C65.682 91.4899 65.451 91.4402 65.2871 91.1174C65.8248 90.2668 66.5151 89.5603 67.3594 88.9953C68.6123 88.156 69.9272 87.4482 71.3067 86.8733V86.8746Z" fill="#AFC4D5"/>
<path fill-rule="evenodd" clip-rule="evenodd" d="M22.7561 86.9247C22.5947 86.9731 22.4308 86.9892 22.2632 86.9731C21.6709 90.2126 20.9284 93.4123 20.0356 96.5736C15.3148 95.1345 11.185 93.3205 7.84621 91.2258C7.71956 91.1451 7.5954 91.0656 7.47123 90.9849C7.16454 90.7875 6.8653 90.5863 6.57227 90.3827V84.4078C7.24649 80.797 7.953 77.1776 8.69427 73.5532C9.09284 71.7937 9.53736 70.0504 10.0266 68.3233C10.5692 66.6495 11.2757 65.0378 12.1486 63.487C12.2641 63.2796 12.3882 63.0797 12.5198 62.886C12.9768 62.213 13.5268 61.6233 14.1713 61.1191C14.1638 61.2955 14.1588 61.4705 14.1526 61.6456C14.1464 61.8219 14.1415 61.997 14.1365 62.1721C14.1266 62.5024 14.1179 62.8314 14.1104 63.1604C14.103 63.4696 14.098 63.7788 14.093 64.088C14.0918 64.1389 14.0918 64.1885 14.0905 64.2382C14.0868 64.5101 14.0831 64.7821 14.0819 65.054C14.0819 65.1036 14.0806 65.1546 14.0806 65.2055C14.0781 65.5059 14.0769 65.8077 14.0769 66.1094C14.0769 68.1619 14.1253 70.2156 14.2209 72.2705C14.3997 74.0374 14.8107 75.7472 15.4539 77.4011C15.3297 77.7227 15.1658 78.0182 14.9609 78.2901C14.7784 78.125 14.581 77.9772 14.3687 77.8456C14.2135 77.7699 14.0819 77.786 13.9738 77.8953C13.1531 79.271 12.3808 80.6865 11.6544 82.138C11.6407 82.3777 11.6904 82.6074 11.8022 82.8284C12.382 83.4244 13.0066 83.967 13.6771 84.4575C16.3839 86.1859 19.344 86.9917 22.5587 86.875C22.632 86.8613 22.6978 86.8787 22.7561 86.9247Z" fill="#D3DFE7"/>
<path fill-rule="evenodd" clip-rule="evenodd" d="M11.901 83.0754C10.514 85.7661 9.16557 88.4803 7.85438 91.217C7.85189 91.2195 7.84817 91.2232 7.84569 91.2257C7.71904 91.145 7.59487 91.0655 7.4707 90.9848C7.47567 90.9326 7.48933 90.878 7.50919 90.8221C8.67884 87.9911 10.0273 85.2607 11.5558 82.6309C11.6253 82.7178 11.7073 82.7836 11.8016 82.8283C11.7942 82.9276 11.8265 83.0096 11.901 83.0754Z" fill="#AEC3D4"/>
<path fill-rule="evenodd" clip-rule="evenodd" d="M40.4195 67.1373C39.9403 78.0739 39.415 89.0067 38.8426 99.9383C32.5461 99.4801 26.6607 98.457 21.4395 96.9832C21.9585 93.5512 22.4638 90.1155 22.953 86.6761C23.4013 84.9638 23.7626 83.2205 24.0383 81.4462C23.9948 80.9098 23.6993 80.6466 23.1505 80.6565C23.3082 80.099 23.4572 79.5403 23.595 78.979C25.9343 77.4282 27.4802 75.29 28.2326 72.5646C28.6349 70.8151 29.0633 69.0718 29.5152 67.3347C29.9759 66.0843 30.4366 64.8352 30.8972 63.5849C31.0412 63.0683 30.8935 62.6573 30.4527 62.3519C29.7822 62.1135 29.1899 62.2451 28.6771 62.7455C27.279 64.0952 26.2584 65.6907 25.6177 67.5321H25.5183C25.4662 66.8852 25.4153 66.2371 25.3668 65.5889C25.3532 65.4275 25.342 65.2661 25.3296 65.1034C25.2836 64.495 25.2377 63.8866 25.1942 63.2782C25.1843 63.1304 25.1731 62.9827 25.1632 62.8337C25.1173 62.2054 25.0738 61.5771 25.0316 60.9488C24.9819 60.2175 24.9335 59.4861 24.8876 58.7536C24.8329 57.8968 24.7808 57.0401 24.7299 56.1833C25.717 55.7115 26.7376 55.3166 27.7881 55C27.8862 55.2074 27.9855 55.4147 28.0873 55.6208C28.1134 55.6767 28.1407 55.7326 28.1693 55.7885C28.2674 55.9896 28.3667 56.1895 28.4673 56.3894C28.476 56.4068 28.4859 56.4254 28.4946 56.4428C28.615 56.6812 28.7367 56.9196 28.8609 57.1568C28.9838 57.3939 29.1092 57.6311 29.2359 57.867C29.3352 58.052 29.4345 58.2358 29.5351 58.4195C29.6357 58.6033 29.7375 58.7858 29.8406 58.9684C29.9424 59.1509 30.0467 59.3334 30.151 59.5147C30.2453 59.6798 30.3409 59.8437 30.4366 60.0076C30.8711 60.7477 31.3206 61.4802 31.785 62.2029C33.1695 64.1473 34.7315 65.9391 36.4723 67.5818C36.6585 67.5979 36.8063 67.5147 36.9168 67.3347C37.6755 66.3625 38.449 65.4076 39.235 64.4727C39.6125 65.1605 39.9912 65.8521 40.3699 66.545C40.386 66.7424 40.4034 66.9398 40.4195 67.1373Z" fill="#D3DFE7"/>
</g>
<defs>
<clipPath id="clip0_1877_12008">
<rect width="100" height="100" fill="white"/>
</clipPath>
</defs>
</svg>
