<svg width="264" height="300" viewBox="0 0 264 300" fill="none" xmlns="http://www.w3.org/2000/svg">
<path opacity="0.7" d="M191.893 228.381C191.893 232.503 162.162 235.846 125.486 235.846C88.811 235.846 28.123 228.99 28.123 224.868C28.123 220.745 57.8544 217.402 94.5299 217.402C131.205 217.402 191.893 224.258 191.893 228.381Z" fill="#0E001C" fill-opacity="0.25"/>
<path d="M135.399 126.776C135.399 158.988 109.298 185.095 77.0978 185.095C44.8994 185.095 18.7969 158.995 18.7969 126.776C18.7969 94.5713 44.8939 68.457 77.0978 68.457C109.289 68.457 135.399 94.5622 135.399 126.776Z" fill="#269EFF"/>
<path opacity="0.2" d="M46.325 143.795C35.9958 121.628 35.5315 97.7699 44.8739 78.0449C29.0441 88.4666 18.582 106.379 18.582 126.755C18.582 158.965 44.6754 185.074 76.8829 185.074C77.4583 185.074 78.0209 185.003 78.589 184.988C65.2246 173.738 53.9631 160.2 46.3323 143.81" fill="#2A0848"/>
<path d="M110.528 149.873C110.153 152.971 107.138 153.424 105.669 155.428C106.295 158.939 103.161 164.625 106.712 165.156C110.082 165.662 110.707 154.967 111.225 150.567C110.765 150.559 110.909 149.955 110.528 149.869M105.474 75.6171C103.52 77.1087 100.05 75.0361 98.0723 74.7246C96.0367 75.5788 94.2287 76.6698 91.8161 77.1561C91.4265 78.1669 91.8944 79.6677 92.1675 80.9736C94.3707 82.3414 97.395 81.7604 100.498 81.6693C99.8439 85.1645 100.03 88.3955 97.3731 89.3116C94.1067 90.4354 89.7769 87.3847 86.2701 87.2299C84.7388 87.5577 85.1394 89.8034 83.4825 90.0056C80.7623 88.3281 77.2919 87.4029 75.1561 85.1426C75.8007 84.2356 75.6459 81.826 74.8066 81.3215C68.9018 81.0137 63.6962 84.5926 59.1826 83.4069C58.62 85.3976 56.9066 86.2245 55.7122 87.5759C56.2876 93.1783 49.9586 94.5826 48.7642 99.0357C47.9503 102.07 49.5635 105.919 48.0723 109.456C51.732 112.71 51.9323 119.886 57.4474 120.571C61.149 121.03 64.2225 119.041 68.5504 118.486C70.2146 119.797 70.668 121.403 73.7633 120.571C75.3655 122.456 73.1151 127.317 74.4606 129.255C76.9951 132.916 78.8996 135.477 78.2769 140.021C78.0166 141.921 76.4325 143.618 76.5417 145.582C76.62 147.077 77.8836 148.379 78.2769 149.745C79.6025 154.404 80.0686 159.981 82.7851 163.99C83.0437 165.048 82.1952 165.01 82.4392 166.072C84.4348 167.614 90.5999 166.605 92.5117 165.376C96.4318 162.873 95.7344 156.613 99.4524 154.262C100.028 152.515 99.1648 151.098 99.1138 149.057C100.359 147.059 102.628 146.09 104.318 144.54C105.776 139.562 102.965 136.28 103.281 131.339C107.285 124.813 113.807 120.802 115.774 112.235C113.599 112.802 111.398 113.265 109.179 113.623C106.226 110.563 103.986 106.78 101.546 103.205C102.113 97.7225 96.7595 94.6263 97.7227 91.0474C98.4364 91.1457 98.0395 92.3442 98.7587 92.4352C100.241 89.4264 101.215 95.6535 101.885 96.9521C102.151 97.4639 103.289 97.7317 103.624 98.34C104.074 99.1687 103.684 100.22 103.972 101.118C104.671 103.334 107.052 104.314 107.442 106.676C107.773 108.691 107.284 109.51 108.141 110.496C114.659 107.993 121.507 105.815 123.765 99.0357C121.964 98.4037 120.937 97.0013 119.94 95.5625C119.106 96.9266 117.831 97.8446 115.772 97.9921C114.994 95.0634 113.013 93.3495 112.302 90.3498C115.37 88.9711 115.794 93.0654 117.86 93.8231H120.987C121.771 95.7191 124.244 95.934 126.933 95.9304C121.642 87.463 114.27 80.4254 105.474 75.6171Z" fill="url(#paint0_linear_2006_16518)"/>
<path d="M64.0445 72.2934C63.3398 72.3936 63.358 73.2332 62.6516 73.3334C60.4776 73.5593 58.2271 72.3353 56.3973 73.3334C56.6139 75.8596 56.1387 77.6973 56.0586 79.9321C58.4857 82.4747 62.2437 81.9101 64.7345 79.5897C64.5324 78.4605 64.9712 77.9687 65.0805 77.1564C67.5604 76.8595 67.8881 74.3989 69.2428 72.9874C71.4805 73.3662 72.2452 72.2752 73.7637 71.9456C76.0324 74.8907 80.2566 75.8669 81.4018 79.9321C81.8625 78.4969 81.6331 76.7011 83.137 77.1564C80.6954 75.8724 75.6136 72.5302 78.2774 69.5123C81.6403 71.982 84.1585 76.8704 87.0334 79.1143C87.0699 79.0287 87.1554 78.9486 87.3066 78.8903C89.2639 80.1069 86.3616 80.1215 86.6147 81.6678C87.749 81.5349 88.1368 80.6515 89.0417 80.2782C89.1055 78.8229 87.3339 79.2054 87.647 77.5024C88.9252 76.457 91.5107 76.7266 92.8526 75.7649C92.5546 74.0547 92.9468 72.296 93.9432 70.8746C88.6221 69.3048 83.1041 68.5032 77.5564 68.4941C72.8679 68.4941 68.3433 69.1061 63.9789 70.1479C64.1264 70.7398 64.1774 71.4301 64.0518 72.2934" fill="url(#paint1_linear_2006_16518)"/>
<path opacity="0.29" d="M94.1625 122.716C94.5684 122.716 94.8971 123.019 94.8971 123.388C94.8971 123.758 94.5684 124.061 94.1625 124.061L83.7169 124.454C83.3121 124.454 81.3066 123.421 81.3066 123.052C81.3066 122.683 82.2519 122.716 82.6567 122.716H94.1625Z" fill="black"/>
<path opacity="0.2" d="M73.3243 121.869C70.5753 120.092 71.1248 115.919 74.2403 114.914C75.0148 114.664 75.8483 114.664 76.6229 114.913L84.04 117.302C84.2952 117.384 84.5385 117.5 84.7637 117.645C87.3251 119.302 86.152 123.276 83.1016 123.276H76.8241C75.9602 123.276 75.1146 123.027 74.3892 122.558L73.3243 121.869Z" fill="black"/>
<path d="M75.4219 122.268H104.345V123.389H75.4219V122.268Z" fill="#BBBCBE"/>
<path d="M79.5508 95.6133H83.2939V102.095H79.5508V95.6133Z" fill="#6218A8"/>
<path d="M75.4219 122.256C75.4219 121.012 76.43 120.004 77.6736 120.004H102.05C103.293 120.004 104.302 121.012 104.302 122.256H75.4219Z" fill="#C883EF"/>
<path d="M77.3658 104.672L75.6189 105.191L74.1625 106.394L72.7188 108.121H76.7722L77.3658 104.672ZM102.256 104.672L104 105.191L105.455 106.394L106.903 108.121H102.851L102.256 104.672Z" fill="#6218A8"/>
<path opacity="0.2" d="M92.4851 121.818C92.8424 121.818 93.1343 122.172 93.1343 122.605C93.1343 123.036 92.8424 123.388 92.4851 123.388H81.6996C81.3434 123.388 81.5874 123.036 81.5874 122.605C81.5874 122.172 81.9898 121.818 82.346 121.818H92.4851Z" fill="black"/>
<path opacity="0.2" d="M93.6062 120.473C93.9638 120.473 94.2559 120.776 94.2559 121.147C94.2559 121.516 93.9638 121.818 93.6062 121.818H82.5313C82.5313 121.65 82.5313 121.516 82.5313 121.147C82.5313 120.776 83.1022 120.473 83.4587 120.473H93.6062Z" fill="black"/>
<path d="M94.3008 120.457C94.619 120.457 94.8788 120.758 94.8788 121.127C94.8788 121.501 94.619 121.799 94.3008 121.799H85.246C84.9267 121.799 84.668 121.501 84.668 121.127C84.668 120.758 84.9262 120.457 85.246 120.457H94.3008Z" fill="#BBBCBE"/>
<path d="M94.8845 121.801C95.2482 121.801 95.5453 122.104 95.5453 122.476C95.5453 122.846 95.2482 123.148 94.8845 123.148H84.5642C84.2017 123.148 83.9062 122.846 83.9062 122.476C83.9062 122.104 84.2017 121.801 84.5642 121.801H94.8845Z" fill="#999999"/>
<path d="M95.5322 123.145C95.9381 123.145 96.2669 123.448 96.2669 123.817C96.2669 124.187 95.9381 124.49 95.5322 124.49H84.0265C83.6217 124.49 83.293 124.187 83.293 123.817C83.293 123.448 83.6217 123.145 84.0265 123.145H95.5322Z" fill="#7C7D7E"/>
<path d="M76.1055 105.751L89.7444 94.8984L103.406 105.751V120.552H76.1077L76.1055 105.751Z" fill="#E7E5E5"/>
<path d="M98.3724 120.552H103.406V105.401L89.996 94.8984L89.3426 95.2622L98.3735 105.578L98.3724 120.552Z" fill="#D1D2D2"/>
<path d="M90.2314 94.4248C90.4479 94.7736 90.3296 95.2719 89.9754 95.5357L73.1951 107.959C72.8397 108.224 72.375 108.153 72.1601 107.804C71.9463 107.452 72.0618 106.953 72.4183 106.693L89.1986 94.2671C89.5539 94.0054 90.0187 94.0765 90.2325 94.427" fill="#8F27CE"/>
<path d="M89.4136 94.4247C89.1998 94.7735 89.317 95.2717 89.6723 95.5356L106.453 107.96C106.811 108.225 107.273 108.154 107.488 107.804C107.703 107.453 107.587 106.954 107.23 106.693L90.4497 94.2675C90.0916 94.0053 89.6279 94.0764 89.4141 94.4269" fill="#8F27CE"/>
<path d="M92.7961 120.565V115.532C92.7961 113.747 91.4824 112.305 89.8632 112.305C88.2412 112.305 86.9297 113.747 86.9297 115.532V120.565H92.7961Z" fill="#4E6B78"/>
<path d="M90.8066 112.48C90.5052 112.366 90.1855 112.307 89.8632 112.307C88.2412 112.307 86.9297 113.749 86.9297 115.534V120.567H88.8154V115.534C88.8154 114.113 89.6477 112.91 90.8066 112.48Z" fill="#405967"/>
<path d="M84.2546 95.3638C84.2546 95.6965 83.9375 95.9659 83.5455 95.9659H79.3849C78.9928 95.9659 78.6758 95.696 78.6758 95.3638C78.6758 95.0317 78.9928 94.7617 79.3849 94.7617H83.5455C83.9375 94.7617 84.2546 95.0311 84.2546 95.3638Z" fill="#8F27CE"/>
<path d="M84.3068 114.808C84.3068 115.497 83.7137 116.058 82.9813 116.058H79.3832C78.6513 116.058 78.0566 115.497 78.0566 114.808V109.803C78.0566 109.113 78.6513 108.553 79.3832 108.553H82.9813C83.7132 108.553 84.3068 109.114 84.3068 109.803V114.808ZM101.576 114.566C101.576 115.256 100.983 115.817 100.249 115.817H96.6515C95.918 115.817 95.3256 115.256 95.3256 114.566V109.561C95.3256 108.868 95.9175 108.311 96.6515 108.311H100.249C100.982 108.311 101.576 108.866 101.576 109.561V114.566Z" fill="#28A6DE"/>
<path opacity="0.7" d="M251.664 255.438C266.481 260.283 253.862 272.54 217.186 272.54C152.504 272.54 78.1348 255.855 78.1348 251.732C78.1348 249.998 90.4789 247.214 115.177 250.592C125.902 252.059 162.506 255.196 171.88 255.438C180.851 255.669 155.924 253.728 157.064 250.592C162.715 247.947 187.115 250.592 195.246 250.592C237.987 251.732 236.847 250.592 251.664 255.438Z" fill="#0E001C" fill-opacity="0.25"/>
<path d="M119.65 137.942C119.257 137.598 118.04 136.149 117.537 136.159C117.275 136.164 113.877 138.29 113.061 138.611C85.0836 149.625 54.6988 131.631 56.997 104.061C57.5564 97.3557 60.3802 90.8821 64.952 85.5586C62.5107 88.3521 53.1026 96.6494 52.9293 98.1491C52.9029 98.3721 51.6146 100.446 50.2998 104.383C48.9851 108.32 49.6415 110.675 49.0613 116.115C47.3245 132.398 53.6802 147.362 72.5554 151.892C86.2823 155.187 91.0952 150.983 103.136 148.771C104.707 148.482 107.152 148.916 107.861 148.771C109.935 148.345 115.736 139.393 119.649 137.942H119.65Z" fill="black" fill-opacity="0.3"/>
<path d="M109.764 150.257L121.424 138.578L121.422 138.574H121.918L127.126 143.47C126.405 144.003 124.687 145.798 126.134 146.141L128.221 156.25C128.032 156.664 125.325 160.594 124.084 160.801C122.843 161.008 121.891 160.585 121.422 159.603C121.202 159.142 119.905 155.596 119.933 155.375C119.958 155.188 123.028 152.956 122.91 152.705L120.057 150.59C119.422 151.015 115.899 154.362 115.593 154.374C115.221 154.387 109.772 150.695 109.764 150.257Z" fill="black" fill-opacity="0.25"/>
<path d="M152.013 170.595C151.771 170.571 151.092 170.248 150.78 170.153C150.759 170.146 150.756 170.523 150.41 170.374L128.212 150.494C127.949 150.489 127.833 151.431 127.842 151.488C127.891 151.783 130.032 156.536 130.309 157.011C132.054 160.007 136.065 163.822 138.694 166.068C138.737 166.104 138.25 166.429 139.064 167.062C141.404 168.876 143.071 168.593 145.232 169.492C147.222 170.32 149.433 172.818 151.892 171.48C152.079 171.378 152.697 170.828 152.015 170.597L152.013 170.595Z" fill="#252525" fill-opacity="0.3"/>
<path opacity="0.243" fill-rule="evenodd" clip-rule="evenodd" d="M202.241 57.6309C202.34 57.7714 202.386 57.934 202.38 58.1189C202.281 57.9784 202.235 57.8158 202.241 57.6309Z" fill="#52290D"/>
<path opacity="0.998" fill-rule="evenodd" clip-rule="evenodd" d="M193.319 69.6945C193.301 69.8532 193.208 69.9346 193.041 69.9386C192.664 69.9924 192.292 69.9692 191.925 69.8688C189.815 68.665 188.084 67.0497 186.732 65.0229C186.471 64.569 186.227 64.1041 186 63.6283C185.884 63.6051 185.768 63.5818 185.652 63.5586C180.676 64.0325 175.727 64.6717 170.805 65.4761C169.082 65.6846 167.363 65.9053 165.646 66.1385C165.73 65.8966 165.73 65.6642 165.646 65.4412C165.654 65.3982 165.677 65.3633 165.716 65.3366C172.488 64.5014 179.261 63.6762 186.035 62.8613C186.113 62.8673 186.182 62.8905 186.244 62.9311C187.424 65.8069 189.364 68.0033 192.065 69.5202C192.33 69.6913 192.62 69.7958 192.936 69.834C193.088 69.8413 193.215 69.7949 193.319 69.6945Z" fill="#E6B290"/>
<path opacity="0.999" fill-rule="evenodd" clip-rule="evenodd" d="M193.32 69.6945C193.923 68.8249 194.736 68.2322 195.759 67.9165C196.778 67.7407 197.568 68.0777 198.129 68.9275C198.295 71.7427 197.517 74.2528 195.794 76.458C194.927 77.4328 193.847 77.8511 192.553 77.7131C192.484 77.7249 192.437 77.7019 192.414 77.6434C192.309 77.3958 192.123 77.3142 191.856 77.3993C190.555 79.7233 188.778 81.5941 186.524 83.0123C185.791 84.5714 185.059 86.1284 184.328 87.684C181.647 87.4546 178.975 87.1757 176.312 86.8473C177.39 85.7784 178.494 84.7325 179.623 83.7096C179.805 83.4844 179.91 83.2285 179.936 82.9426C179.098 83.0479 178.261 83.1755 177.427 83.3261C176.394 83.3881 175.371 83.446 174.36 83.5004C172.677 83.1992 171.271 82.4092 170.143 81.1297C169.795 80.758 169.481 80.3627 169.202 79.9443C169.24 79.9401 169.263 79.9171 169.272 79.8746C167.538 77.1943 166.458 74.2655 166.03 71.0891C165.991 70.9341 165.933 70.7946 165.856 70.6707C165.678 69.1664 165.609 67.6556 165.647 66.1385C167.363 65.9053 169.083 65.6846 170.805 65.4761C175.728 64.6717 180.677 64.0325 185.652 63.5586C185.769 63.5818 185.884 63.6051 186.001 63.6283C186.227 64.1041 186.471 64.569 186.733 65.0229C188.085 67.0497 189.816 68.665 191.926 69.8688C192.292 69.9692 192.665 69.9924 193.041 69.9386C193.209 69.9346 193.302 69.8532 193.32 69.6945Z" fill="#FBD1B6"/>
<path fill-rule="evenodd" clip-rule="evenodd" d="M166.621 67.0445C166.776 67.0221 166.904 67.0686 167.005 67.184C167.068 67.8343 167.091 68.4851 167.075 69.1363C166.723 69.2972 166.561 69.181 166.587 68.7877C166.5 68.2553 166.477 67.7207 166.517 67.184C166.567 67.1461 166.602 67.0996 166.621 67.0445Z" fill="#FEE3D1"/>
<path fill-rule="evenodd" clip-rule="evenodd" d="M180.841 68.7884C180.724 68.8157 180.608 68.8506 180.493 68.893C181.119 68.9278 181.747 68.9394 182.375 68.9278C182.491 68.9278 182.607 68.9278 182.723 68.9278C182.945 68.9852 183.178 69.0317 183.42 69.0673C183.551 69.1481 183.586 69.2643 183.525 69.4159C183.458 69.5131 183.365 69.5596 183.246 69.5554C181.849 69.3642 180.455 69.3875 179.064 69.6251C178.759 69.549 178.678 69.3631 178.82 69.0673C180.258 68.2022 181.814 67.8535 183.49 68.0214C183.579 68.1749 183.579 68.3259 183.49 68.4746C182.587 68.4441 181.703 68.5487 180.841 68.7884Z" fill="#0A0807"/>
<path fill-rule="evenodd" clip-rule="evenodd" d="M170.176 68.0215C171.188 68.1088 171.757 68.6666 171.884 69.6949C171.971 70.3108 171.819 70.857 171.431 71.3335C170.839 71.7194 170.34 71.6148 169.932 71.0197C169.442 70.2355 169.349 69.3988 169.654 68.5096C169.821 68.3306 169.995 68.1679 170.176 68.0215Z" fill="#070605"/>
<path fill-rule="evenodd" clip-rule="evenodd" d="M195.132 68.5099C195.496 68.4396 195.647 68.579 195.585 68.9282C195.017 69.1368 194.541 69.4738 194.157 69.9392C193.922 70.0188 193.783 69.9375 193.738 69.6952C194.074 69.1501 194.539 68.755 195.132 68.5099Z" fill="#FEE3D1"/>
<path fill-rule="evenodd" clip-rule="evenodd" d="M180.841 68.7891C181.352 68.8356 181.863 68.882 182.374 68.9285C181.746 68.9401 181.119 68.9285 180.492 68.8937C180.607 68.8513 180.724 68.8164 180.841 68.7891Z" fill="#9C8271"/>
<path fill-rule="evenodd" clip-rule="evenodd" d="M182.725 68.9281C182.935 68.9166 183.144 68.9283 183.352 68.963C183.391 68.9897 183.414 69.0245 183.422 69.0676C183.179 69.032 182.946 68.9855 182.725 68.9281Z" fill="#9B8170"/>
<path fill-rule="evenodd" clip-rule="evenodd" d="M198.129 68.9277C198.685 69.8458 198.883 70.8451 198.722 71.926C198.464 74.033 197.569 75.8111 196.038 77.2601C195.25 77.9252 194.344 78.2279 193.319 78.1665C193.016 78.0849 192.76 77.9336 192.553 77.7133C193.846 77.8513 194.927 77.433 195.794 76.4582C197.516 74.253 198.294 71.7429 198.129 68.9277Z" fill="#E6B391"/>
<path fill-rule="evenodd" clip-rule="evenodd" d="M196.175 70.6023C196.512 70.5563 196.639 70.6957 196.559 71.0207C195.942 71.3464 195.42 71.7881 194.99 72.3455C195.45 72.9687 195.694 73.666 195.722 74.4373C195.56 74.6232 195.397 74.6232 195.234 74.4373C195.18 73.8445 194.96 73.3332 194.572 72.9033C194.273 73.2836 194.017 73.6904 193.805 74.1235C193.457 74.1698 193.329 74.0188 193.422 73.6703C194.058 72.3944 194.976 71.3717 196.175 70.6023Z" fill="#E7B594"/>
<path opacity="0.991" fill-rule="evenodd" clip-rule="evenodd" d="M165.856 70.6699C165.933 70.7938 165.991 70.9333 166.031 71.0883C166.458 74.2647 167.538 77.1935 169.272 79.8738C169.264 79.9164 169.24 79.9394 169.202 79.9436C168.935 79.8069 168.657 79.6904 168.366 79.5949C167.163 77.8608 166.314 75.9545 165.822 73.8773C165.616 73.023 165.442 72.163 165.299 71.2975C165.457 71.1777 165.631 71.0847 165.822 71.0186C165.856 70.9046 165.868 70.7884 165.856 70.6699Z" fill="#E6B594"/>
<path opacity="0.957" fill-rule="evenodd" clip-rule="evenodd" d="M165.297 71.2988C165.44 72.1643 165.614 73.0244 165.82 73.8787C166.313 75.9559 167.161 77.8622 168.364 79.5963C165.928 78.6571 164.499 76.8909 164.077 74.2971C163.995 73.4778 164.158 72.7108 164.565 71.9961C164.754 71.7024 164.998 71.4699 165.297 71.2988Z" fill="#FCD2B7"/>
<path fill-rule="evenodd" clip-rule="evenodd" d="M182.166 75.482C181.728 75.5428 181.286 75.566 180.842 75.5517C180.415 75.5507 179.997 75.5042 179.587 75.4123C179.486 75.3563 179.37 75.3215 179.238 75.3077C178.506 75.2502 177.786 75.2617 177.078 75.3425C175.881 75.4512 174.742 75.7651 173.662 76.2839C173.367 76.5962 173.088 76.9218 172.826 77.26C172.499 77.3653 172.173 77.3772 171.85 77.2949C171.271 76.4393 171.387 75.7072 172.198 75.0985C173.872 74.1103 175.684 73.5525 177.635 73.4251C179.292 73.1495 180.884 73.347 182.41 74.0177C182.507 74.5424 182.425 75.0304 182.166 75.482Z" fill="#FEFDFC"/>
<path fill-rule="evenodd" clip-rule="evenodd" d="M177.078 75.3423C177.786 75.2614 178.506 75.2499 179.239 75.3074C179.37 75.3212 179.486 75.3561 179.588 75.412C178.752 75.3556 177.916 75.3324 177.078 75.3423Z" fill="#DBC9C5"/>
<path fill-rule="evenodd" clip-rule="evenodd" d="M177.079 75.3421C177.917 75.3322 178.753 75.3554 179.588 75.4118C179.998 75.5037 180.416 75.5502 180.843 75.5512C181.275 75.6398 181.717 75.6398 182.167 75.5512C181.79 76.5218 181.186 77.3237 180.355 77.9568C178.387 79.4803 176.203 79.8987 173.803 79.2119C172.918 78.8263 172.244 78.2106 171.781 77.3641C171.79 77.3216 171.813 77.2986 171.851 77.2944C172.174 77.3767 172.5 77.3648 172.827 77.2595C173.089 76.9214 173.368 76.5957 173.663 76.2834C174.743 75.7646 175.882 75.4508 177.079 75.3421Z" fill="#651C0C"/>
<path fill-rule="evenodd" clip-rule="evenodd" d="M182.166 75.4824C182.259 75.5056 182.259 75.5289 182.166 75.5521C181.716 75.6407 181.274 75.6407 180.842 75.5521C181.287 75.5664 181.728 75.5432 182.166 75.4824Z" fill="#815954"/>
<path fill-rule="evenodd" clip-rule="evenodd" d="M192.414 77.6438C191.993 77.5009 191.795 77.6633 191.821 78.1319C191.322 79.0265 190.741 79.8632 190.079 80.6421C189.097 81.5771 188.075 82.4605 187.012 83.2917C186.761 84.7991 186.54 86.3094 186.35 87.8239C185.671 87.8267 184.997 87.78 184.328 87.6844C185.059 86.1288 185.791 84.5718 186.524 83.0128C188.778 81.5945 190.556 79.7238 191.856 77.3998C192.123 77.3147 192.309 77.3963 192.414 77.6438Z" fill="#E6B392"/>
<path opacity="0.99" fill-rule="evenodd" clip-rule="evenodd" d="M176.311 86.848C175.631 86.8766 174.957 86.8299 174.29 86.7086C174.197 86.7086 174.15 86.6619 174.15 86.5691C174.194 86.5768 174.228 86.5998 174.255 86.6389C174.323 85.6132 174.404 84.5903 174.499 83.5709C174.467 83.5151 174.421 83.4921 174.36 83.5012C175.371 83.4468 176.393 83.3889 177.427 83.3269C178.261 83.1762 179.097 83.0486 179.936 82.9434C179.909 83.2292 179.805 83.4851 179.622 83.7104C178.494 84.7332 177.39 85.7791 176.311 86.848Z" fill="#E6B493"/>
<path opacity="0.996" fill-rule="evenodd" clip-rule="evenodd" d="M174.149 86.5693C174.149 86.6621 174.195 86.7088 174.288 86.7088C174.182 86.9905 173.984 87.1529 173.696 87.1969C172.638 87.0783 171.582 86.9619 170.524 86.8482C169.93 89.5306 169.291 92.2032 168.607 94.8668C163.54 102.79 159.357 111.18 156.06 120.038C153.132 127.781 150.82 135.707 149.125 143.815C147.846 146.232 146.569 148.65 145.291 151.066C145.493 147.952 145.69 144.838 145.883 141.723C145.973 138.073 146.101 134.423 146.267 130.776C146.321 130.481 146.39 130.19 146.476 129.904C146.414 129.63 146.286 129.386 146.093 129.172C143.656 126.362 140.716 124.259 137.275 122.862C136.853 122.707 136.423 122.579 135.985 122.479C135.786 122.619 135.635 122.805 135.532 123.036C135.168 123.554 134.82 124.089 134.487 124.64C134.237 124.75 134.028 124.703 133.859 124.501C134.246 123.787 134.664 123.09 135.114 122.409C134.909 122.34 134.7 122.293 134.487 122.269C134.476 122.082 134.487 121.896 134.522 121.712C135.784 118.745 137.027 115.769 138.251 112.787C138.585 112.648 138.934 112.614 139.296 112.682C140.01 112.803 140.707 112.965 141.388 113.17C146.552 106.084 152.337 99.5064 158.744 93.4374C160.328 91.9104 162.093 90.6435 164.042 89.6373C163.158 90.5319 162.241 91.3923 161.288 92.2172C158.642 95.6721 156.366 99.3676 154.457 103.304C152.07 107.452 149.631 111.566 147.138 115.645C146.982 115.692 146.831 115.657 146.685 115.541C145.296 114.608 143.82 113.829 142.259 113.205C142.016 113.325 141.981 113.476 142.154 113.658C145.076 114.962 147.667 116.74 149.926 118.992C151.743 113.937 153.764 108.963 155.991 104.071C157.758 100.229 159.827 96.58 162.194 93.1236C163.467 91.5136 164.849 90.0034 166.342 88.5914C167.185 88.2253 168.068 87.9694 168.991 87.8244C168.758 88.1626 168.537 88.5112 168.328 88.8703C167.318 90.0585 166.377 91.2905 165.505 92.5658C165.477 92.7576 165.558 92.851 165.749 92.8447C166.713 92.7143 167.677 92.5979 168.642 92.4961C169.114 90.5689 169.579 88.6395 170.036 86.7088C169.967 86.7088 169.897 86.7088 169.827 86.7088C169.958 86.6007 170.028 86.4613 170.036 86.2904C170.197 86.2618 170.36 86.2381 170.524 86.2207C171.731 86.3553 172.939 86.4717 174.149 86.5693Z" fill="#F0EBE8"/>
<path fill-rule="evenodd" clip-rule="evenodd" d="M169.827 86.709C169.897 86.709 169.967 86.709 170.036 86.709C169.579 88.6397 169.114 90.569 168.642 92.4963C167.677 92.5981 166.713 92.7145 165.75 92.8449C165.559 92.8512 165.477 92.7578 165.506 92.566C166.377 91.2907 167.318 90.0586 168.329 88.8705C168.537 88.5114 168.758 88.1628 168.991 87.8246C169.243 87.4327 169.522 87.0611 169.827 86.709Z" fill="#B4B1AF"/>
<path opacity="0.999" fill-rule="evenodd" clip-rule="evenodd" d="M166.342 88.5898C164.85 90.0018 163.467 91.5121 162.195 93.1221C159.827 96.5784 157.759 100.228 155.991 104.069C153.765 108.961 151.743 113.935 149.927 118.991C147.667 116.738 145.076 114.96 142.155 113.657C141.982 113.475 142.017 113.323 142.259 113.203C143.821 113.827 145.296 114.606 146.686 115.539C146.831 115.656 146.983 115.69 147.139 115.644C149.631 111.565 152.071 107.451 154.458 103.302C156.366 99.3661 158.643 95.6706 161.289 92.2156C162.242 91.3908 163.159 90.5303 164.042 89.6357C164.764 89.1937 165.53 88.845 166.342 88.5898Z" fill="#B4B1AF"/>
<path fill-rule="evenodd" clip-rule="evenodd" d="M174.288 86.709C174.956 86.8303 175.63 86.877 176.31 86.8484C178.973 87.1768 181.645 87.4558 184.326 87.6852C184.995 87.7807 185.668 87.8274 186.347 87.8246C187.039 87.9397 187.736 88.0212 188.439 88.0687C188.645 88.0847 188.819 88.1663 188.961 88.3127C189.008 89.5908 189.008 90.8696 188.961 92.1477C188.911 92.1853 188.876 92.232 188.857 92.2871C188.202 92.2927 187.551 92.3276 186.905 92.3917C182.944 90.7524 178.971 89.1257 174.986 87.5108C174.832 87.4537 174.705 87.4885 174.602 87.6154C174.579 87.9885 174.602 88.3608 174.672 88.7311C175.373 91.1269 176 93.5443 176.554 95.9826C176.673 96.2992 176.894 96.4038 177.216 96.2964C179.095 95.9108 180.977 95.5622 182.862 95.2505C181.341 96.5871 179.912 98.0165 178.575 99.5387C174.285 104.55 170.289 109.779 166.586 115.227C164.594 118.214 162.618 121.212 160.661 124.222C160.563 124.372 160.505 124.534 160.487 124.71C161.423 124.756 162.352 124.861 163.275 125.024C166.394 125.87 169.31 127.159 172.023 128.894C179.348 123.102 185.25 116.129 189.728 107.976C191.144 105.331 192.189 102.542 192.865 99.6084C192.923 98.6294 193.004 97.6533 193.109 96.6799C193.161 94.8203 192.348 93.5066 190.669 92.7403C190.236 92.6079 189.817 92.4565 189.414 92.2871C189.818 92.3234 190.213 92.4049 190.599 92.5312C192.087 93.0088 193.202 93.9271 193.945 95.2854C194.299 96.7329 194.38 98.1971 194.189 99.6781C194.127 100.135 194.011 100.576 193.841 101.003C192.338 104.536 190.781 108.045 189.17 111.532C185.565 119.153 181.928 126.765 178.262 134.367C178.215 134.414 178.169 134.414 178.122 134.367C174.697 130.922 170.724 128.295 166.203 126.488C164.864 125.98 163.494 125.585 162.09 125.303C161.416 125.256 160.743 125.256 160.069 125.303C158.371 127.919 156.744 130.58 155.189 133.286C155.032 133.53 154.893 133.786 154.771 134.053C154.401 134.56 154.064 135.094 153.76 135.657C152.212 138.383 150.668 141.102 149.125 143.815C150.82 135.707 153.132 127.781 156.061 120.038C159.358 111.18 163.54 102.79 168.608 94.867C169.291 92.2034 169.931 89.5308 170.524 86.8484C171.582 86.9621 172.639 87.0785 173.696 87.1971C173.985 87.1531 174.182 86.9907 174.288 86.709Z" fill="#B5B1AF"/>
<path fill-rule="evenodd" clip-rule="evenodd" d="M173.173 89.4961C174.007 92.6233 174.832 95.761 175.648 98.9092C175.774 99.0417 175.925 99.0765 176.101 99.0138C177.159 98.6296 178.228 98.3046 179.307 98.0376C177.24 100.245 175.276 102.534 173.417 104.906C169.853 109.62 166.391 114.407 163.031 119.269C162.63 120.001 162.212 120.722 161.777 121.431C157.941 127.102 154.386 132.959 151.112 139.002C150.864 139.45 150.655 139.915 150.484 140.396C153.335 127.937 157.68 116.014 163.519 104.627C166.286 99.2738 169.503 94.2305 173.173 89.4961Z" fill="#F0EBE8"/>
<path fill-rule="evenodd" clip-rule="evenodd" d="M188.856 92.2853C189.042 92.2853 189.228 92.2853 189.414 92.2853C189.817 92.4548 190.235 92.6061 190.669 92.7386C192.347 93.5048 193.16 94.8185 193.108 96.6781C193.004 97.6515 192.922 98.6277 192.864 99.6066C192.189 102.54 191.143 105.329 189.728 107.974C185.249 116.128 179.348 123.1 172.022 128.892C169.31 127.158 166.394 125.868 163.275 125.022C162.352 124.859 161.422 124.754 160.486 124.708C160.504 124.532 160.562 124.37 160.661 124.22C162.618 121.21 164.593 118.212 166.586 115.225C170.288 109.778 174.284 104.548 178.575 99.5369C179.911 98.0148 181.34 96.5854 182.862 95.2487C180.977 95.5604 179.095 95.909 177.215 96.2946C176.893 96.402 176.672 96.2974 176.553 95.9808C176 93.5425 175.373 91.1251 174.671 88.7293C174.602 88.359 174.579 87.9867 174.602 87.6137C174.704 87.4867 174.832 87.4519 174.985 87.5091C178.97 89.1239 182.943 90.7506 186.904 92.3899C187.551 92.3258 188.202 92.2909 188.856 92.2853Z" fill="#F0EBE8"/>
<path fill-rule="evenodd" clip-rule="evenodd" d="M193.945 95.2852C194.038 95.4246 194.131 95.5641 194.224 95.7035C194.916 97.5059 194.962 99.3188 194.364 101.142C193.163 103.683 192.037 106.263 190.983 108.882C186.969 117.517 182.879 126.117 178.715 134.681C178.668 134.773 178.668 134.867 178.715 134.96C179.466 135.698 180.151 136.489 180.771 137.33C178.366 140.609 175.926 143.863 173.452 147.092C173.305 146.913 173.142 146.751 172.964 146.604C168.82 141.98 164.103 138.064 158.814 134.855C157.663 134.197 156.455 133.675 155.189 133.286C156.745 130.58 158.371 127.919 160.069 125.302C160.743 125.256 161.416 125.256 162.09 125.302C163.494 125.585 164.864 125.979 166.203 126.488C170.724 128.295 174.697 130.922 178.122 134.367C178.169 134.414 178.215 134.414 178.262 134.367C181.928 126.765 185.565 119.153 189.171 111.531C190.781 108.045 192.338 104.536 193.841 101.003C194.012 100.576 194.127 100.135 194.189 99.6779C194.38 98.1969 194.299 96.7327 193.945 95.2852Z" fill="#8F8F8F"/>
<path d="M155.043 133.317L159.924 125.18C163.611 124.964 169.233 127.621 171.312 128.978C169.504 131.057 164.804 136.897 163.72 138.199C163.503 137.765 157.754 134.764 155.043 133.317Z" fill="#F0EBE8"/>
<path opacity="0.998" fill-rule="evenodd" clip-rule="evenodd" d="M194.364 101.141C193.383 104.154 192.43 107.175 191.506 110.205C188.567 119.409 185.604 128.613 182.619 137.817C182.548 138.092 182.513 138.37 182.514 138.654C182.266 139.364 182.022 140.084 181.782 140.815C181.736 140.977 181.736 141.141 181.782 141.303C183.729 147.274 185.67 153.247 187.603 159.223C187.407 159.687 187.14 160.105 186.801 160.478C184.982 162.392 182.88 163.903 180.493 165.01C178.825 165.644 177.129 166.178 175.404 166.614C174.674 166.724 173.954 166.84 173.243 166.962C173.197 166.962 173.151 166.962 173.104 166.962C172.013 167.021 170.921 167.044 169.828 167.032C167.755 166.956 165.803 166.444 163.973 165.498C166.955 159.199 169.953 152.901 172.965 146.602C173.142 146.749 173.305 146.912 173.453 147.09C175.926 143.861 178.366 140.607 180.772 137.329C180.151 136.487 179.466 135.696 178.715 134.958C178.669 134.865 178.669 134.772 178.715 134.679C182.879 126.115 186.969 117.516 190.983 108.88C192.037 106.261 193.164 103.681 194.364 101.141Z" fill="#B4B1AF"/>
<path fill-rule="evenodd" clip-rule="evenodd" d="M146.755 117.039C146.854 117.054 146.948 117.089 147.034 117.144C148.043 117.869 148.949 118.706 149.752 119.654C148.671 122.782 147.661 125.931 146.72 129.102C145.504 127.641 144.145 126.339 142.643 125.197C143.999 122.477 145.37 119.758 146.755 117.039Z" fill="#B4B1AF"/>
<path fill-rule="evenodd" clip-rule="evenodd" d="M146.267 130.776C144.66 136.345 143.348 141.993 142.328 147.72C141.352 150.649 140.376 153.578 139.401 156.505C139.354 156.668 139.354 156.831 139.401 156.993C139.784 157.469 139.958 158.015 139.924 158.632C139.938 159.095 139.88 159.548 139.749 159.991C139.576 160.385 139.402 160.78 139.227 161.177C139.115 161.343 139.045 161.529 139.017 161.735C138.493 162.436 137.946 163.133 137.379 163.826C136.979 164.146 136.619 164.494 136.299 164.872C136.022 165.012 135.766 165.186 135.532 165.395C135.08 165.577 134.638 165.786 134.208 166.023C134.027 166.087 133.84 166.134 133.65 166.162C133.55 166.189 133.48 166.247 133.441 166.337C133.092 166.387 132.743 166.363 132.396 166.267C135.329 165.296 137.501 163.437 138.913 160.689C139.279 159.864 139.441 159.004 139.401 158.109C138.958 157.162 138.226 156.848 137.205 157.167C135.824 157.653 134.685 158.478 133.79 159.643C133.417 159.762 133.266 159.623 133.337 159.224C133.809 158.738 134.181 158.18 134.452 157.551C134.597 157.023 134.713 156.489 134.8 155.947C134.911 155.353 134.807 154.807 134.487 154.309C133.877 153.968 133.226 153.898 132.535 154.1C131.293 154.621 130.224 155.388 129.328 156.4C128.968 156.505 128.841 156.377 128.945 156.017C129.077 155.91 129.147 155.771 129.154 155.599C129.317 155.529 129.433 155.412 129.503 155.25C129.924 154.428 130.249 153.568 130.479 152.67C130.705 151.47 130.229 150.773 129.05 150.578C128.291 150.652 127.594 150.896 126.959 151.31C126.154 151.813 125.457 152.441 124.867 153.193C124.537 153.383 124.363 153.302 124.345 152.949C125.19 151.94 125.794 150.801 126.157 149.532C126.226 148.964 126.179 148.406 126.018 147.859C125.645 147.346 125.146 147.125 124.519 147.197C123.438 147.493 122.463 147.992 121.591 148.696C121.297 148.999 120.983 149.278 120.65 149.532C120.572 149.724 120.468 149.898 120.337 150.055C119.983 150.033 119.902 149.859 120.093 149.532C120.666 148.959 121.235 148.39 121.8 147.824C122.32 147.599 122.808 147.32 123.264 146.987C123.955 146.689 124.675 146.596 125.425 146.708C126.527 147.204 126.956 148.053 126.715 149.254C126.618 149.776 126.479 150.288 126.296 150.787C126.241 150.91 126.252 151.027 126.331 151.136C126.858 150.768 127.416 150.454 128.004 150.195C128.509 150.086 129.021 150.063 129.538 150.125C129.778 150.26 130.033 150.352 130.304 150.404C130.453 150.622 130.627 150.82 130.827 150.997C130.985 151.614 131.031 152.241 130.967 152.879C130.885 153.127 130.838 153.382 130.827 153.646C130.605 153.977 130.477 154.326 130.444 154.692C131.024 154.265 131.652 153.905 132.326 153.611C132.968 153.468 133.619 153.409 134.278 153.437C137.111 144.628 139.969 135.819 142.851 127.011C142.657 126.689 142.402 126.422 142.084 126.209C140.077 124.798 137.892 123.741 135.532 123.036C135.635 122.805 135.786 122.619 135.985 122.479C136.423 122.579 136.853 122.707 137.275 122.862C140.716 124.259 143.656 126.362 146.093 129.172C146.286 129.386 146.414 129.63 146.476 129.904C146.39 130.19 146.32 130.481 146.267 130.776Z" fill="#E6B494"/>
<path opacity="0.993" fill-rule="evenodd" clip-rule="evenodd" d="M135.534 123.035C137.894 123.739 140.079 124.797 142.086 126.208C142.404 126.42 142.659 126.687 142.853 127.01C139.971 135.818 137.113 144.627 134.279 153.436C133.621 153.408 132.97 153.467 132.328 153.61C131.654 153.904 131.026 154.264 130.446 154.691C130.479 154.325 130.607 153.976 130.829 153.645C130.84 153.381 130.887 153.126 130.968 152.878C131.033 152.24 130.987 151.613 130.829 150.995C130.629 150.818 130.455 150.621 130.306 150.403C130.035 150.351 129.78 150.258 129.539 150.124C129.023 150.062 128.511 150.085 128.006 150.194C127.418 150.453 126.86 150.767 126.333 151.135C126.254 151.025 126.242 150.909 126.298 150.786C126.481 150.287 126.62 149.775 126.716 149.252C126.958 148.052 126.529 147.203 125.427 146.707C124.677 146.594 123.957 146.688 123.266 146.986C122.81 147.319 122.322 147.598 121.802 147.823C121.237 148.388 120.667 148.958 120.094 149.531C119.903 149.858 119.985 150.032 120.338 150.054C120.469 149.897 120.574 149.723 120.652 149.531C120.985 149.277 121.299 148.998 121.593 148.695C122.464 147.991 123.44 147.492 124.521 147.195C125.147 147.124 125.647 147.345 126.019 147.858C126.181 148.405 126.228 148.963 126.159 149.531C125.796 150.8 125.192 151.939 124.346 152.948C124.365 153.301 124.539 153.382 124.869 153.192C125.459 152.44 126.156 151.812 126.96 151.309C127.596 150.894 128.293 150.65 129.052 150.577C130.231 150.772 130.707 151.469 130.481 152.669C130.251 153.567 129.926 154.427 129.505 155.249C129.435 155.411 129.319 155.528 129.156 155.597C129.148 155.77 129.079 155.909 128.947 156.016C128.842 156.376 128.97 156.504 129.33 156.399C130.226 155.387 131.295 154.62 132.537 154.098C133.228 153.897 133.879 153.967 134.489 154.308C134.808 154.806 134.913 155.352 134.802 155.946C134.714 156.488 134.599 157.022 134.454 157.55C134.183 158.179 133.811 158.737 133.338 159.223C133.268 159.621 133.419 159.761 133.791 159.642C134.687 158.477 135.826 157.652 137.207 157.166C138.228 156.847 138.96 157.161 139.403 158.108C139.443 159.003 139.281 159.863 138.915 160.687C137.503 163.436 135.331 165.295 132.397 166.266C131.718 166.039 131.288 165.574 131.108 164.871C130.937 164.053 130.996 163.251 131.282 162.466C131.259 162.431 131.235 162.396 131.212 162.361C130.248 163.067 129.18 163.334 128.006 163.163C127.222 162.96 126.746 162.46 126.577 161.664C126.424 160.773 126.528 159.914 126.891 159.084C126.868 159.061 126.844 159.037 126.821 159.014C125.939 159.637 124.963 159.928 123.893 159.886C122.903 159.778 122.31 159.232 122.116 158.247C122.069 157.806 122.069 157.364 122.116 156.922C122.232 156.503 122.325 156.085 122.395 155.667C121.506 156.299 120.518 156.567 119.432 156.469C118.316 156.122 117.782 155.355 117.829 154.168C117.889 153.059 118.203 152.025 118.77 151.065C119.694 149.752 120.531 148.381 121.279 146.951C124.708 140.25 128.333 133.672 132.153 127.219C132.724 126.308 133.294 125.402 133.861 124.499C134.03 124.702 134.239 124.748 134.489 124.639C134.822 124.088 135.17 123.553 135.534 123.035Z" fill="#FBD1B6"/>
<path fill-rule="evenodd" clip-rule="evenodd" d="M133.513 127.847C133.874 127.778 134.002 127.918 133.896 128.266C133.124 129.369 132.403 130.508 131.736 131.682C130.063 134.797 128.39 137.911 126.717 141.026C126.35 141.335 126.188 141.242 126.229 140.747C127.954 137.505 129.697 134.274 131.457 131.055C132.091 129.948 132.776 128.879 133.513 127.847Z" fill="#FEE3D1"/>
<path fill-rule="evenodd" clip-rule="evenodd" d="M171.642 129.938C172.246 130.25 172.827 130.61 173.384 131.018C175.452 132.552 177.369 134.26 179.135 136.143C179.491 136.52 179.805 136.926 180.076 137.363C177.861 140.319 175.653 143.282 173.454 146.254C170.729 143.376 167.848 140.691 164.811 138.2C167.079 135.439 169.357 132.685 171.642 129.938Z" fill="#B4B1AF"/>
<path fill-rule="evenodd" clip-rule="evenodd" d="M146.269 130.775C146.103 134.423 145.975 138.072 145.885 141.722C145.692 144.838 145.495 147.952 145.293 151.066C143.655 154.224 142.076 157.409 140.553 160.618C140.549 160.581 140.526 160.557 140.483 160.549C140.061 160.76 139.643 160.969 139.229 161.176C139.403 160.779 139.578 160.385 139.751 159.991C139.882 159.547 139.94 159.094 139.926 158.631C139.96 158.014 139.786 157.468 139.403 156.993C139.356 156.83 139.356 156.667 139.403 156.504C140.378 153.577 141.354 150.649 142.33 147.719C143.349 141.992 144.662 136.344 146.269 130.775Z" fill="#B4B1AF"/>
<path opacity="0.995" fill-rule="evenodd" clip-rule="evenodd" d="M180.494 165.012C180.506 174.866 180.541 184.721 180.598 194.576C184.402 204.037 188.177 213.508 191.925 222.989C191.836 223.486 191.557 223.823 191.089 224C190.963 224 190.846 224.035 190.741 224.105C189.611 224.984 188.402 225.739 187.116 226.371C187.023 226.371 186.93 226.371 186.837 226.371C182.757 216.047 178.656 205.728 174.534 195.412C174.289 186.976 174.057 178.539 173.837 170.102C173.763 170.06 173.682 170.037 173.593 170.032C170.93 170.287 168.293 170.125 165.682 169.544C165.624 169.567 165.565 169.591 165.507 169.614C162.892 174.799 160.278 179.982 157.666 185.163C157.1 186.319 156.484 187.434 155.818 188.51C156.103 185.813 156.371 183.117 156.62 180.421C156.537 180.542 156.455 180.658 156.376 180.77C157.816 178.076 159.221 175.356 160.593 172.612C161.667 170.21 162.793 167.839 163.974 165.5C165.804 166.446 167.756 166.957 169.829 167.034C170.839 167.115 171.862 167.127 172.896 167.069C172.982 167.053 173.052 167.018 173.105 166.964C173.152 166.964 173.198 166.964 173.245 166.964C173.949 166.945 174.646 166.864 175.336 166.72C175.375 166.694 175.398 166.659 175.405 166.615C177.13 166.18 178.826 165.646 180.494 165.012Z" fill="#131418"/>
<path fill-rule="evenodd" clip-rule="evenodd" d="M187.114 226.37C184.003 228.112 180.727 229.472 177.285 230.449C177.104 230.575 176.918 230.679 176.728 230.763C174.094 231.607 171.4 232.211 168.642 232.576C168.645 232.338 168.61 232.106 168.537 231.878C164.471 220.533 160.405 209.192 156.339 197.852C156.189 197.561 155.956 197.376 155.642 197.294C155.424 197.42 155.204 197.537 154.98 197.643C154.975 197.455 154.952 197.269 154.91 197.085C155.218 194.226 155.519 191.367 155.816 188.509C156.482 187.433 157.098 186.318 157.663 185.162C160.276 179.981 162.89 174.798 165.505 169.613C165.563 169.59 165.622 169.566 165.68 169.543C168.291 170.124 170.928 170.286 173.591 170.031C173.68 170.036 173.761 170.059 173.835 170.101C174.055 178.538 174.287 186.975 174.532 195.412C178.654 205.727 182.755 216.046 186.835 226.37C186.928 226.37 187.021 226.37 187.114 226.37Z" fill="#1E1F25"/>
<path d="M114.988 144.566C115.12 144.688 115.59 144.904 115.718 145.026C117.006 144.662 117.8 143.837 118.782 143.035C116.612 140.469 115.649 141.205 117.71 138.519C117.501 138.21 117.405 137.528 116.848 137.584C116.526 137.615 112.833 141.18 111.924 141.774C88.9147 156.783 58.5529 142.618 54.6357 115.839C54.3399 113.821 54.8588 111.734 53.7641 109.763C52.2968 139.376 82.0307 157.928 108.663 145.441C109.438 145.078 112.654 142.715 112.906 142.704C113.389 142.681 114.6 144.204 114.988 144.564L114.988 144.566Z" fill="#64437A"/>
<path d="M131.992 144.616L164.13 175.131C164.232 174.688 164.31 174.07 164.573 173.684C164.483 173.364 164.517 173.001 164.306 172.615L132.163 141.981L131.99 144.616L131.992 144.616Z" fill="#B97CE2"/>
<path d="M117.712 138.522C115.651 141.206 116.614 140.472 118.783 143.039C118.856 142.979 119.194 142.844 119.256 142.788C119.961 142.168 123.142 138.365 123.576 138.374C124.647 138.398 123.516 139.658 123.744 140.283L124.665 138.825C123.418 137.586 122.328 136.018 120.972 134.852C120.046 136.129 118.618 137.34 117.712 138.522Z" fill="#D9C2E4"/>
<path d="M123.742 140.283C124.106 141.282 128.215 144.366 129.14 145.408C129.794 144.44 130.436 144.355 129.798 143C129.122 143.176 125.573 139.729 124.663 138.824L123.742 140.283Z" fill="#DDDDDD"/>
<path d="M117.185 146.185L122.344 151.316C122.413 151.256 123.278 151.09 124.002 150.557C122.961 149.079 118.777 144.311 117.185 146.185Z" fill="#9C9C9B"/>
<path d="M125.873 148.835C125.21 149.515 124.791 149.975 124 150.556C123.277 151.087 122.412 151.256 122.343 151.316C121.661 151.904 120.052 153.876 121.458 154.208C124.694 153.387 124.919 150.584 126.346 148.584C126.238 148.612 125.907 148.802 125.873 148.835Z" fill="#682E93"/>
<path d="M131.994 144.617C130.918 144.679 130.901 145.083 130.352 145.974L163.104 177.071C164.187 176.808 163.967 175.845 164.133 175.132L131.992 144.617L131.994 144.617Z" fill="#C391E5"/>
<path d="M119.256 142.784C119.852 143.197 119.486 143.583 119.516 143.615C120.9 145.018 122.801 147.866 124.047 148.485C124.337 148.63 124.362 149.725 124.737 149.78C124.248 150.381 126.239 148.612 126.348 148.584C127.171 147.429 128.349 146.577 129.142 145.405C128.219 144.364 124.108 141.279 123.743 140.279C123.515 139.655 124.647 138.394 123.576 138.37C123.142 138.361 119.961 142.165 119.256 142.784Z" fill="#FDFDFD"/>
<path d="M118.783 143.037C117.802 143.839 117.008 144.663 115.72 145.027C116.06 145.35 116.409 145.823 116.707 146.198L117.186 146.186C118.777 144.312 122.961 149.08 124.002 150.558C124.793 149.976 126.341 149.092 127.004 148.412C126.629 148.356 125.703 148.766 125.024 148.134C124.345 147.501 121.694 145.062 120.309 143.658C120.279 143.626 119.852 143.198 119.256 142.786C119.194 142.842 118.856 142.977 118.783 143.037Z" fill="#7D7B7D"/>
<path d="M129.797 142.998C130.435 144.353 129.793 144.438 129.139 145.406C128.347 146.578 127.169 147.429 126.345 148.586C124.921 150.585 124.694 153.387 121.457 154.209L153.352 184.491C153.658 184.587 154.325 184.919 154.561 184.939C155.586 185.022 157.392 184.884 158.385 184.603C162.719 183.376 165.781 178.026 164.576 173.687C164.314 174.072 164.237 174.69 164.134 175.133C163.968 175.845 164.189 176.809 163.105 177.072L130.351 145.975C130.9 145.084 130.917 144.68 131.993 144.618L132.167 141.983C131.511 141.235 130.397 142.843 129.797 143L129.797 142.998Z" fill="#4C1376"/>
<path fill-rule="evenodd" clip-rule="evenodd" d="M53.7691 109.764C54.1247 102.562 56.6679 95.5513 60.9267 89.7349C89.472 50.7351 151.355 92.9368 120.976 134.849C120.481 135.532 119.843 136.194 119.219 136.843C118.674 137.41 118.138 137.967 117.715 138.519C117.661 138.438 117.614 138.332 117.564 138.22C117.425 137.904 117.265 137.543 116.853 137.584C116.687 137.601 115.624 138.558 114.509 139.562C113.462 140.504 112.369 141.487 111.929 141.774C88.9179 156.783 58.5559 142.619 54.6407 115.84C54.5414 115.163 54.5339 114.478 54.5264 113.792C54.5114 112.433 54.4965 111.072 53.7691 109.764ZM92.3121 141.43C75.4879 141.855 61.5061 128.58 61.0828 111.78C60.6596 94.9806 73.9551 81.0175 90.7793 80.5929C107.604 80.1682 121.585 93.4429 122.009 110.243C122.432 127.042 109.136 141.005 92.3121 141.43Z" fill="#A57CBC"/>
<path d="M66.729 91.9822C69.7841 88.5805 74.3696 85.0677 78.6038 83.3139C81.9869 81.9131 86.3733 80.3638 89.7139 82.3159C91.0895 82.254 92.6998 82.0757 94.0282 82.4461C98.1656 82.0319 106.123 85.9835 109.388 88.5155C119.188 96.113 123.323 108.825 119.898 120.771C118.958 124.051 117.254 127.507 114.861 129.985C114.718 130.642 113.3 132.118 112.773 132.668L113.749 133.361C136.718 109.601 112.208 72.1076 81.4322 81.5702C76.0361 83.2283 70.0251 87.4149 66.7272 91.9841L66.729 91.9822Z" fill="#77498F"/>
<path d="M64.8765 94.4177C61.4676 99.1963 58.9799 105.102 58.829 111.07L60.2485 119.882L62.1634 119.833C60.4882 113.547 60.7396 107.103 63.1271 101.037C63.8484 99.2015 66.2026 96.2087 66.564 94.8516C66.6253 94.6218 66.8324 94.0549 66.4202 93.8986L64.8764 94.4159L64.8765 94.4177Z" fill="#A57CBC"/>
<path d="M91.5753 75.3322C89.8971 75.2658 79.5907 76.1838 79.2836 76.9579C79.5576 77.1013 79.5821 77.7149 79.9031 77.7793C80.224 77.8436 85.1223 76.3032 86.3295 76.1821C104.863 74.3354 121.769 86.5491 126.195 104.468C126.274 104.788 126.783 110.651 127.512 109.218C128.672 106.94 124.019 96.0112 122.567 93.5603C116.219 82.8356 104.013 75.828 91.5753 75.3322Z" fill="#D9C2E4"/>
<path d="M66.7284 91.9804C65.9042 92.898 65.5643 93.4501 64.8738 94.4187L66.4176 93.9015C66.8297 94.0577 66.6226 94.6246 66.5613 94.8544C72.1315 87.36 80.3124 82.7401 89.7131 82.3143C86.3726 80.3623 81.9862 81.9115 78.6031 83.3122C74.3689 85.066 69.7835 88.5806 66.7284 91.9804Z" fill="#8C63A3"/>
<path d="M58.8289 111.073C58.1708 137.24 87.1535 152.696 108.599 138.032C104.448 140.724 97.8605 142.902 92.924 143.211C78.013 144.144 64.3294 134.091 60.2466 119.885L58.8271 111.074L58.8289 111.073Z" fill="#D9C2E4"/>
<path d="M105.958 137.62C101.239 140.274 97.8636 141.346 92.4073 141.549L92.9282 143.21C97.8646 142.901 104.452 140.725 108.603 138.031C110.549 136.768 112.156 135.01 113.754 133.358L112.779 132.665C110.861 134.661 108.348 136.275 105.96 137.62L105.958 137.62Z" fill="#A57CBC"/>
<path d="M89.7157 82.3136C80.3131 82.7394 72.1338 87.3594 66.5635 94.8541C66.204 96.2111 63.8498 99.2038 63.1267 101.039C60.7393 107.106 60.4879 113.549 62.1631 119.835C65.7518 133.295 78.6809 142.058 92.4053 141.549C97.8617 141.348 101.237 140.273 105.956 137.619C104.359 137.821 101.069 140.109 99.6737 140.17C98.5934 140.217 98.3355 139.484 98.2195 139.489C94.1062 139.636 90.4999 140.245 86.2475 139.552C64.4044 135.991 54.9012 109.731 69.1464 92.8756C75.1899 85.7241 84.0618 82.5995 93.3343 83.418L92.6012 82.8387C92.9699 82.8547 93.9052 82.4561 94.0283 82.4439C92.6998 82.0734 91.0895 82.2518 89.7139 82.3137L89.7157 82.3136Z" fill="#BED1DD" fill-opacity="0.5"/>
<path d="M94.0283 82.4439C93.9052 82.4561 92.97 82.8548 92.6012 82.8387L93.3343 83.4181C108.997 84.8 121.303 99.2372 120.469 114.896C120.374 116.668 118.866 119.306 119.899 120.769C123.323 108.823 119.189 96.1127 109.388 88.5133C106.124 85.9814 98.1657 82.0297 94.0283 82.4439Z" fill="#BED1DD" fill-opacity="0.5"/>
<path d="M60.2489 119.882C64.3317 134.088 78.0153 144.14 92.9263 143.208L92.4054 141.547C78.683 142.054 65.7523 133.291 62.1637 119.834L60.2489 119.882Z" fill="#A57CBC"/>
<path d="M92.11 87.0382C89.3554 86.9556 85.8798 87.3478 83.4085 88.5733C97.3103 90.284 108.213 98.5057 115.209 110.366C115.16 97.9661 104.457 87.4076 92.1118 87.0382L92.11 87.0382Z" fill="#CDD8DF"/>
<path d="M83.835 159.382C84.5948 163.182 84.5759 164.227 85.2597 164.227C86.1145 164.227 93.8078 165.652 94.9477 152.826M83.2652 156.817L82.6953 154.251" stroke="#92AC31" stroke-opacity="0.3" stroke-width="2" stroke-linecap="round" stroke-linejoin="round"/>
<path opacity="0.999" fill-rule="evenodd" clip-rule="evenodd" d="M155.189 133.285C156.454 133.674 157.662 134.196 158.813 134.854C164.102 138.064 168.819 141.979 172.963 146.603C169.951 152.901 166.954 159.2 163.971 165.499C162.791 167.838 161.664 170.209 160.591 172.611C159.219 175.355 157.814 178.075 156.374 180.769C156.112 181.274 155.81 181.75 155.467 182.198C154.911 182.697 154.261 182.988 153.516 183.07C158.651 170.064 163.81 157.06 168.99 144.058C166.859 141.716 164.535 139.601 162.02 137.713C159.982 136.368 157.845 135.206 155.607 134.226C155.341 134.105 155.062 134.047 154.77 134.052C154.892 133.785 155.032 133.529 155.189 133.285Z" fill="#E5B393"/>
<path d="M124.521 147.195C123.44 147.491 122.464 147.99 121.593 148.694C119.81 150.532 117.981 151.348 117.829 154.167C117.782 155.354 118.316 156.121 119.432 156.468C120.518 156.566 121.506 156.298 122.395 155.666C122.325 156.084 122.232 156.502 122.116 156.921C122.069 157.363 122.069 157.805 122.116 158.246C122.31 159.231 122.903 159.777 123.893 159.885C124.963 159.927 125.939 159.637 126.821 159.013L126.891 159.083C126.528 159.913 126.424 160.772 126.577 161.663C126.746 162.459 127.223 162.959 128.006 163.162C129.18 163.333 130.248 163.066 131.212 162.36C131.235 162.395 131.259 162.43 131.282 162.465C130.996 163.251 130.937 164.052 131.108 164.87C131.288 165.573 131.718 166.038 132.397 166.265C134.27 167.077 137.987 163.84 139.399 161.091C139.765 160.266 139.443 159.002 139.403 158.107C138.96 157.16 138.228 156.846 137.207 157.166C135.826 157.652 134.687 158.476 133.792 159.641C133.419 159.76 133.268 159.621 133.338 159.222C133.811 158.736 134.183 158.178 134.454 157.549C134.599 157.021 134.714 156.487 134.802 155.945C134.913 155.351 134.809 154.805 134.489 154.307C133.879 153.966 133.228 153.896 132.537 154.098C131.295 154.619 130.226 155.386 129.33 156.399C128.97 156.503 128.842 156.376 128.947 156.015C129.079 155.908 129.148 155.769 129.156 155.597C129.319 155.527 129.435 155.411 129.505 155.248C129.926 154.426 130.251 153.566 130.481 152.668C130.707 151.468 130.231 150.771 129.052 150.576C128.293 150.65 127.596 150.894 126.96 151.308C126.156 151.811 125.459 152.439 124.869 153.191C124.539 153.381 124.365 153.3 124.346 152.947C125.192 151.938 125.796 150.799 126.159 149.53C126.228 148.962 126.181 148.404 126.019 147.857C125.647 147.345 125.147 147.124 124.521 147.195Z" fill="#FACFB7"/>
<path fill-rule="evenodd" clip-rule="evenodd" d="M154.772 134.053C155.064 134.048 155.343 134.106 155.608 134.227C157.847 135.207 159.984 136.369 162.021 137.714C164.537 139.602 166.86 141.717 168.992 144.059C163.811 157.061 158.653 170.065 153.517 183.071C153.199 183.161 152.874 183.161 152.541 183.071C151.205 182.726 150.403 181.866 150.137 180.491C150.102 180.12 150.09 179.748 150.102 179.375C149.786 179.488 149.483 179.628 149.196 179.794C148.733 179.848 148.269 179.871 147.802 179.863C146.696 179.652 145.988 179.002 145.676 177.911C145.533 177.277 145.544 176.65 145.71 176.028C145.687 176.005 145.664 175.982 145.641 175.959C143.904 176.941 142.638 176.523 141.842 174.704C141.598 173.792 141.61 172.886 141.877 171.984C141.543 172.07 141.241 172.209 140.97 172.403C140.224 172.573 139.481 172.573 138.74 172.403C137.739 172.017 137.123 171.297 136.893 170.241C136.721 169.453 136.79 168.686 137.102 167.94C138.215 165.481 139.365 163.04 140.552 160.619C142.075 157.409 143.655 154.225 145.292 151.066C146.57 148.65 147.848 146.232 149.126 143.815C150.668 141.102 152.213 138.382 153.761 135.657C154.065 135.094 154.402 134.559 154.772 134.053Z" fill="#FBD1B6"/>
<path opacity="0.993" fill-rule="evenodd" clip-rule="evenodd" d="M202.241 57.6317C202.235 57.8166 202.282 57.9793 202.381 58.1198C202.669 60.5551 202.913 62.9956 203.113 65.4411C203.55 75.7007 204.153 85.9505 204.925 96.1905C205.621 106.2 207.154 116.077 209.526 125.824C210.532 129.926 211.984 133.854 213.882 137.608C213.759 137.965 213.526 138.047 213.185 137.852C211.712 136.058 210.492 134.094 209.526 131.96C207.717 127.904 206.369 123.698 205.483 119.34C205.807 125.985 207.004 132.47 209.072 138.793C209.084 138.968 209.014 139.096 208.863 139.177C208.18 139.394 207.482 139.546 206.772 139.63C205.421 135.741 204.48 131.743 203.949 127.637C203.708 125.316 203.499 122.991 203.322 120.665C203.012 120.356 202.837 120.426 202.799 120.874C203.06 125.239 203.629 129.562 204.507 133.843C204.93 135.582 205.418 137.302 205.971 139.003C206.021 139.257 206.056 139.512 206.075 139.77C205.251 139.969 204.415 140.108 203.566 140.188C202.97 138.187 202.506 136.142 202.172 134.052C201.898 133.909 201.735 133.979 201.684 134.261C202.025 136.301 202.444 138.323 202.938 140.327C202.08 140.431 201.22 140.523 200.359 140.606C199.951 138.713 199.59 136.807 199.279 134.889C199.267 136.818 199.232 138.747 199.174 140.676C198.18 140.775 197.181 140.821 196.177 140.815C196.155 137.937 196.294 135.067 196.595 132.204C196.671 131.791 196.519 131.663 196.142 131.821C195.732 134.805 195.581 137.803 195.689 140.815C194.198 140.818 192.711 140.748 191.228 140.606C191.222 139.347 191.291 138.092 191.437 136.841C191.434 136.499 191.271 136.406 190.949 136.562C190.785 137.881 190.693 139.206 190.67 140.537C189.567 140.445 188.475 140.283 187.394 140.048C187.337 139.843 187.302 139.634 187.29 139.421C187.255 139.386 187.22 139.351 187.185 139.316C187.252 139.033 187.276 138.743 187.255 138.445C187.647 135.582 188.054 132.723 188.475 129.868C189.57 123.319 190.58 116.765 191.507 110.206C192.431 107.176 193.384 104.155 194.365 101.141C194.963 99.3177 194.917 97.5048 194.225 95.7024C194.89 90.7818 195.506 85.8549 196.072 80.9204C196.242 79.756 196.427 78.5943 196.63 77.4341C198.815 75.1773 199.605 72.5045 199 69.4155C198.458 67.9305 197.402 67.2449 195.829 67.3586C194.881 67.5887 194.067 68.0535 193.389 68.7531C193.001 68.7092 192.63 68.593 192.274 68.4045C191.257 67.8063 190.362 67.0509 189.59 66.1384C188.502 64.8631 187.642 63.4453 187.011 61.885C186.903 61.7541 186.775 61.6495 186.627 61.5713C186.068 61.5349 185.51 61.5581 184.955 61.641C177.545 62.4645 170.133 63.278 162.719 64.0814C162.093 64.1487 161.465 64.1836 160.837 64.186C160.692 61.1829 161.401 58.3938 162.963 55.8188C166.106 50.9379 170.556 47.9977 176.311 46.9984C179.556 46.4826 182.646 46.9474 185.582 48.393C186.91 49.1634 188.072 50.1396 189.067 51.3215C193.436 51.9275 197.386 53.5312 200.917 56.1326C201.425 56.5819 201.866 57.0817 202.241 57.6317Z" fill="#FC8423"/>
<path fill-rule="evenodd" clip-rule="evenodd" d="M169.968 51.8442C170.781 51.8326 171.595 51.8442 172.407 51.8791C172.923 51.8526 173.353 52.0269 173.697 52.402C173.811 53.0812 173.532 53.4763 172.861 53.5874C170.707 53.3136 168.604 53.5344 166.552 54.2498C165.791 54.5615 165.024 54.8404 164.252 55.0865C164.847 54.2348 165.521 53.4445 166.273 52.7158C167.48 52.2857 168.711 51.9952 169.968 51.8442Z" fill="#FFB14C"/>
<path fill-rule="evenodd" clip-rule="evenodd" d="M175.056 52.402C175.885 52.4049 176.199 52.7999 175.997 53.5874C175.408 54.1981 174.92 54.1284 174.533 53.3782C174.484 52.929 174.658 52.6037 175.056 52.402Z" fill="#FFB14C"/>
<g opacity="0.998">
<path fill-rule="evenodd" clip-rule="evenodd" d="M194.225 95.7025C194.132 95.563 194.038 95.4236 193.946 95.2841C193.203 93.9259 192.087 93.0076 190.6 92.5299C190.214 92.4037 189.819 92.3222 189.415 92.2859C189.229 92.2859 189.043 92.2859 188.857 92.2859C188.877 92.2308 188.912 92.1841 188.962 92.1464C189.009 90.8684 189.009 89.5896 188.962 88.3115C188.82 88.1651 188.645 88.0835 188.439 88.0674C187.736 88.02 187.039 87.9384 186.348 87.8234C186.538 86.3089 186.759 84.7987 187.01 83.2912C188.074 82.46 189.096 81.5766 190.077 80.6416C190.739 79.8627 191.321 79.026 191.82 78.1314C191.793 77.6628 191.991 77.5004 192.412 77.6433C192.436 77.7019 192.483 77.7249 192.552 77.713C192.759 77.9334 193.014 78.0847 193.318 78.1663C194.343 78.2276 195.249 77.925 196.037 77.2598C197.568 75.8109 198.463 74.0328 198.721 71.9257C198.882 70.8449 198.684 69.8455 198.128 68.9275C197.566 68.0777 196.776 67.7406 195.758 67.9165C194.735 68.2322 193.922 68.8249 193.318 69.6945C193.215 69.7948 193.087 69.8413 192.935 69.8339C192.619 69.7958 192.329 69.6912 192.064 69.5202C189.363 68.0033 187.423 65.8069 186.243 62.931C186.181 62.8905 186.112 62.8672 186.034 62.8613C179.26 63.6762 172.487 64.5013 165.715 65.3366C165.676 65.3633 165.653 65.3982 165.646 65.4412C164.438 65.5889 163.23 65.74 162.021 65.8944C161.719 65.9409 161.417 65.9409 161.115 65.8944C160.928 65.3429 160.835 64.7735 160.836 64.1861C161.465 64.1837 162.092 64.1488 162.718 64.0815C170.132 63.2781 177.544 62.4646 184.954 61.6411C185.509 61.5582 186.067 61.535 186.627 61.5714C186.775 61.6496 186.903 61.7542 187.01 61.8851C187.642 63.4454 188.501 64.8632 189.589 66.1384C190.361 67.051 191.256 67.8064 192.273 68.4046C192.629 68.5931 193.001 68.7093 193.388 68.7532C194.066 68.0536 194.88 67.5888 195.828 67.3587C197.401 67.2449 198.458 67.9306 198.999 69.4156C199.604 72.5045 198.814 75.1774 196.629 77.4341C196.427 78.5944 196.241 79.756 196.072 80.9205C195.505 85.855 194.889 90.7819 194.225 95.7025Z" fill="#D46914"/>
<path fill-rule="evenodd" clip-rule="evenodd" d="M191.506 110.206C190.58 116.765 189.569 123.319 188.474 129.868C188.053 132.723 187.646 135.582 187.254 138.445C187.06 138.917 186.898 139.405 186.766 139.909C185.298 139.659 183.88 139.241 182.514 138.654C182.513 138.371 182.548 138.092 182.619 137.817C185.604 128.613 188.567 119.41 191.506 110.206Z" fill="#D46914"/>
</g>
<g opacity="0.981">
<path fill-rule="evenodd" clip-rule="evenodd" d="M189.206 53.7266C192.141 54.381 194.813 55.6012 197.222 57.3872C198.63 58.5164 199.594 59.9458 200.115 61.6754C200.181 62.0818 200.018 62.1981 199.627 62.024C199.127 60.1966 198.116 58.7207 196.595 57.5964C194.32 56.0698 191.856 54.9309 189.206 54.1798C189.118 54.029 189.118 53.8779 189.206 53.7266Z" fill="#FFB04C"/>
<path fill-rule="evenodd" clip-rule="evenodd" d="M188.161 57.0037C189.108 57.3263 189.99 57.7796 190.809 58.3634C192.67 59.5736 194.145 61.1424 195.236 63.0699C195.567 63.7167 195.8 64.3908 195.933 65.092C195.77 65.278 195.607 65.278 195.445 65.092C194.768 63.0212 193.595 61.2897 191.925 59.8974C190.803 58.9625 189.571 58.1956 188.23 57.5964C187.986 57.4198 187.962 57.2223 188.161 57.0037Z" fill="#FFB04C"/>
<path fill-rule="evenodd" clip-rule="evenodd" d="M199.941 63.558C200.329 63.5059 200.456 63.6687 200.324 64.0461C200.162 64.2321 199.999 64.2321 199.836 64.0461C199.794 63.8673 199.828 63.7045 199.941 63.558Z" fill="#FFB04C"/>
<path fill-rule="evenodd" clip-rule="evenodd" d="M200.22 65.3709C200.365 65.3582 200.505 65.3815 200.638 65.4406C200.719 66.1833 200.73 66.9271 200.673 67.6719C200.492 67.7752 200.329 67.7519 200.185 67.6022C200.128 66.8531 200.14 66.1093 200.22 65.3709Z" fill="#FFB04C"/>
<path fill-rule="evenodd" clip-rule="evenodd" d="M200.01 77.3638C200.148 77.3471 200.275 77.3701 200.394 77.4336C200.634 80.3579 200.75 83.2864 200.742 86.2191C200.58 86.4053 200.417 86.4053 200.254 86.2191C200.234 83.543 200.13 80.8704 199.941 78.2006C199.943 77.9161 199.966 77.6372 200.01 77.3638Z" fill="#FFB04C"/>
<path fill-rule="evenodd" clip-rule="evenodd" d="M200.359 87.4743C200.826 87.4554 200.965 87.6646 200.777 88.1018C200.469 88.2127 200.306 88.0962 200.289 87.7532C200.314 87.659 200.337 87.5663 200.359 87.4743Z" fill="#FFB04C"/>
<path fill-rule="evenodd" clip-rule="evenodd" d="M200.498 89.9844C200.838 89.9168 200.988 90.0562 200.951 90.4028C201.8 97.9576 202.335 105.534 202.555 113.134C202.374 113.237 202.211 113.214 202.067 113.064C201.801 105.478 201.255 97.913 200.429 90.3679C200.434 90.234 200.457 90.1057 200.498 89.9844Z" fill="#FFB04C"/>
<path fill-rule="evenodd" clip-rule="evenodd" d="M197.501 95.2836C197.698 95.2599 197.849 95.3296 197.954 95.4928C198.001 96.3762 198.001 97.2589 197.954 98.1424C197.815 98.2351 197.675 98.2351 197.536 98.1424C197.516 97.3398 197.481 96.538 197.431 95.7368C197.436 95.5792 197.459 95.4286 197.501 95.2836Z" fill="#FFB04C"/>
<path fill-rule="evenodd" clip-rule="evenodd" d="M198.059 99.4672C198.487 99.5042 198.58 99.7015 198.337 100.06C197.989 100.106 197.861 99.9553 197.954 99.6067C198.004 99.569 198.039 99.5223 198.059 99.4672Z" fill="#FFB04C"/>
<path fill-rule="evenodd" clip-rule="evenodd" d="M198.198 101.698C198.353 101.676 198.481 101.722 198.581 101.838C198.8 105.392 198.985 108.948 199.139 112.506C199.186 115.039 199.186 117.573 199.139 120.106C198.977 120.292 198.814 120.292 198.651 120.106C198.719 114.147 198.521 108.198 198.059 102.256C198.044 102.048 198.091 101.862 198.198 101.698Z" fill="#FFB04C"/>
<path fill-rule="evenodd" clip-rule="evenodd" d="M194.364 104.697C194.502 104.68 194.629 104.703 194.748 104.766C194.801 104.948 194.789 105.122 194.713 105.289C194.578 105.341 194.45 105.33 194.329 105.254C194.279 105.062 194.29 104.876 194.364 104.697Z" fill="#FFB04C"/>
<path fill-rule="evenodd" clip-rule="evenodd" d="M194.225 106.091C194.486 106.034 194.648 106.127 194.713 106.37C194.404 109.534 194.067 112.695 193.702 115.853C193.325 116.01 193.174 115.883 193.249 115.469C193.548 112.337 193.873 109.211 194.225 106.091Z" fill="#FFB04C"/>
<path fill-rule="evenodd" clip-rule="evenodd" d="M196.177 113.901C196.314 113.884 196.441 113.907 196.56 113.97C196.494 118.689 196.367 123.408 196.177 128.125C196.023 128.214 195.872 128.214 195.724 128.125C195.712 127.916 195.701 127.706 195.689 127.497C195.826 122.962 195.988 118.429 196.177 113.901Z" fill="#FFB04C"/>
<path fill-rule="evenodd" clip-rule="evenodd" d="M193.179 116.62C193.545 116.556 193.684 116.707 193.598 117.073C193.494 118.223 193.401 119.373 193.319 120.525C192.887 120.686 192.724 120.534 192.831 120.071C192.931 118.969 193.013 117.865 193.075 116.759C193.125 116.722 193.16 116.675 193.179 116.62Z" fill="#FFB04C"/>
<path fill-rule="evenodd" clip-rule="evenodd" d="M206.772 139.63C206.556 139.719 206.324 139.766 206.075 139.769C206.055 139.512 206.02 139.257 205.97 139.002C205.417 137.302 204.929 135.581 204.506 133.842C203.629 129.562 203.059 125.239 202.799 120.873C202.837 120.426 203.011 120.356 203.321 120.664C203.498 122.991 203.708 125.316 203.949 127.637C204.479 131.743 205.42 135.74 206.772 139.63Z" fill="#FFB04C"/>
<path fill-rule="evenodd" clip-rule="evenodd" d="M192.761 122.198C192.875 122.183 192.98 122.206 193.075 122.268C192.829 125.882 192.47 129.484 191.994 133.075C191.865 133.163 191.737 133.163 191.611 133.075C191.564 132.727 191.564 132.378 191.611 132.029C191.952 128.857 192.289 125.684 192.622 122.512C192.64 122.387 192.687 122.282 192.761 122.198Z" fill="#FFB04C"/>
<path fill-rule="evenodd" clip-rule="evenodd" d="M200.847 127.428C201.002 127.405 201.13 127.451 201.23 127.567C201.283 128.738 201.457 129.889 201.753 131.018C201.644 131.38 201.47 131.414 201.23 131.123C200.866 129.912 200.738 128.681 200.847 127.428Z" fill="#FFB04C"/>
<path fill-rule="evenodd" clip-rule="evenodd" d="M196.037 129.171C196.192 129.148 196.32 129.194 196.421 129.31C196.467 129.566 196.467 129.821 196.421 130.077C196.3 130.224 196.161 130.247 196.002 130.147C195.967 129.938 195.933 129.728 195.898 129.519C195.894 129.379 195.94 129.263 196.037 129.171Z" fill="#FFB04C"/>
<path fill-rule="evenodd" clip-rule="evenodd" d="M196.177 140.815C196.014 140.815 195.851 140.815 195.689 140.815C195.581 137.803 195.732 134.805 196.142 131.82C196.519 131.663 196.67 131.79 196.595 132.204C196.294 135.066 196.154 137.937 196.177 140.815Z" fill="#FFB04C"/>
<path fill-rule="evenodd" clip-rule="evenodd" d="M201.614 132.308C202.005 132.209 202.156 132.349 202.067 132.727C201.635 132.878 201.485 132.739 201.614 132.308Z" fill="#FFB04C"/>
<path fill-rule="evenodd" clip-rule="evenodd" d="M203.565 140.187C203.367 140.246 203.158 140.293 202.938 140.327C202.443 138.323 202.025 136.301 201.683 134.261C201.735 133.978 201.897 133.909 202.171 134.052C202.505 136.141 202.969 138.186 203.565 140.187Z" fill="#FFB04C"/>
<path fill-rule="evenodd" clip-rule="evenodd" d="M191.228 140.606C191.039 140.6 190.853 140.577 190.67 140.536C190.692 139.206 190.785 137.881 190.949 136.562C191.271 136.406 191.433 136.498 191.437 136.841C191.291 138.091 191.221 139.347 191.228 140.606Z" fill="#FFB04C"/>
</g>
<path fill-rule="evenodd" clip-rule="evenodd" d="M173.383 137.052C174.41 136.863 175.142 137.234 175.578 138.167C175.743 139.746 175.034 140.478 173.452 140.364C172.855 140.161 172.471 139.754 172.302 139.143C172.129 138.165 172.489 137.468 173.383 137.052Z" fill="#EEE9E6"/>
<path fill-rule="evenodd" clip-rule="evenodd" d="M173.663 137.539C174.842 137.589 175.271 138.17 174.952 139.282C174.497 139.923 173.927 140.051 173.244 139.666C172.496 138.78 172.636 138.071 173.663 137.539Z" fill="#9F9F9F"/>
<path fill-rule="evenodd" clip-rule="evenodd" d="M150.032 144.651C150.151 144.639 150.267 144.651 150.381 144.685C150.423 144.759 150.446 144.841 150.451 144.929C150.385 145.224 150.235 145.457 149.998 145.627C149.796 145.623 149.715 145.518 149.754 145.313C149.816 145.082 149.909 144.862 150.032 144.651Z" fill="#FEE3D1"/>
<path fill-rule="evenodd" clip-rule="evenodd" d="M148.986 146.743C149.411 146.728 149.515 146.914 149.3 147.301C147.644 150.219 146.04 153.171 144.49 156.156C144.082 156.306 143.943 156.167 144.072 155.738C145.639 152.695 147.277 149.697 148.986 146.743Z" fill="#FEE3D1"/>
<path fill-rule="evenodd" clip-rule="evenodd" d="M181.4 148.068C182.533 148.003 182.894 148.491 182.481 149.532C181.912 150.038 181.424 149.968 181.017 149.323C180.806 148.795 180.933 148.376 181.4 148.068Z" fill="#F0EBE9"/>
<path fill-rule="evenodd" clip-rule="evenodd" d="M182.444 150.369C182.8 150.32 183.126 150.39 183.42 150.578C183.581 150.843 183.709 151.122 183.803 151.414C184.592 153.736 185.382 156.06 186.173 158.387C186.276 159.167 185.939 159.551 185.162 159.538C185.015 159.46 184.886 159.355 184.779 159.224C183.841 156.611 182.935 153.985 182.06 151.345C182.014 151.182 182.014 151.019 182.06 150.857C182.177 150.682 182.304 150.52 182.444 150.369Z" fill="#F4F1EF"/>
<path opacity="0.994" fill-rule="evenodd" clip-rule="evenodd" d="M136.893 168.787C136.893 168.787 136.721 169.452 136.893 170.24C137.124 171.295 137.739 172.015 138.74 172.401C138.822 172.511 138.939 172.568 139.089 172.575C139.53 172.622 139.972 172.622 140.413 172.575C140.619 172.556 140.805 172.498 140.971 172.401C141.241 172.208 141.544 172.068 141.877 171.983C141.61 172.884 141.599 173.791 141.842 174.702C142.638 176.521 143.905 176.94 145.641 175.957C145.664 175.98 145.688 176.004 145.711 176.027C145.545 176.648 145.533 177.276 145.676 177.909C145.988 179 146.696 179.651 147.802 179.862C147.975 179.908 148.16 179.932 148.359 179.932C148.658 179.943 148.937 179.897 149.196 179.792C149.484 179.626 149.786 179.487 150.102 179.374C150.09 179.746 150.102 180.118 150.137 180.489C150.403 181.864 151.205 182.724 152.542 183.069C152.466 183.078 152.42 183.124 152.402 183.209C145.579 199.904 138.737 216.592 131.874 233.272C131.82 233.392 131.727 233.461 131.595 233.482C130.143 233.608 128.715 233.515 127.309 233.203C133.61 215.688 139.953 198.187 146.338 180.699C146.106 180.478 145.862 180.269 145.606 180.071C145.025 179.411 144.666 178.644 144.526 177.77C143.314 177.727 142.303 177.262 141.494 176.375C141.337 176.131 141.197 175.876 141.075 175.608C140.89 175.005 140.727 174.401 140.587 173.796C138.516 174.073 137.053 173.259 136.196 171.355C135.688 170.201 136.022 167.834 136.022 167.834L136.893 168.787Z" fill="#131418"/>
<path fill-rule="evenodd" clip-rule="evenodd" d="M139.019 161.734C138.339 162.973 137.433 164.019 136.301 164.872C136.621 164.494 136.981 164.146 137.381 163.826C137.948 163.133 138.494 162.436 139.019 161.734Z" fill="#796154"/>
<path fill-rule="evenodd" clip-rule="evenodd" d="M175.405 166.613C175.397 166.657 175.374 166.691 175.335 166.718C174.645 166.862 173.948 166.942 173.244 166.962C173.954 166.84 174.674 166.723 175.405 166.613Z" fill="#3A3A3F"/>
<path fill-rule="evenodd" clip-rule="evenodd" d="M173.104 166.963C173.051 167.017 172.982 167.051 172.895 167.067C171.861 167.125 170.838 167.113 169.828 167.033C170.921 167.044 172.013 167.021 173.104 166.963Z" fill="#58575A"/>
<path fill-rule="evenodd" clip-rule="evenodd" d="M133.984 166.223C135.978 167.363 135.693 167.648 136.263 167.933C136.291 168.706 136.525 168.468 136.548 168.503C136.156 169.696 135.687 170.201 136.195 171.356C137.052 173.26 138.516 174.074 140.587 173.796C140.726 174.402 140.889 175.006 141.075 175.609C141.197 175.876 141.336 176.131 141.493 176.376C142.302 177.263 143.313 177.728 144.525 177.771C144.665 178.644 145.025 179.411 145.605 180.072C145.861 180.27 146.105 180.479 146.337 180.699C139.952 198.187 133.609 215.689 127.308 233.203C124.853 232.772 122.483 232.074 120.198 231.112C116.319 229.497 112.671 227.487 109.254 225.08C108.338 224.384 107.455 223.652 106.605 222.884C114.106 207.971 121.646 193.072 129.225 178.189C129.439 177.184 129.055 176.532 128.075 176.237C129.742 173.296 132.352 169.185 133.984 166.223Z" fill="#1E1F26"/>
<path fill-rule="evenodd" clip-rule="evenodd" d="M138.74 172.402C139.481 172.573 140.224 172.573 140.971 172.402C140.805 172.499 140.619 172.557 140.413 172.577C139.972 172.623 139.53 172.623 139.089 172.577C138.939 172.57 138.822 172.512 138.74 172.402Z" fill="#453C3A"/>
<path opacity="0.992" fill-rule="evenodd" clip-rule="evenodd" d="M128.075 176.236C129.056 176.532 129.439 177.183 129.225 178.189C121.646 193.072 114.107 207.97 106.606 222.883C106.176 222.512 105.781 222.105 105.421 221.663C105.219 221.495 105.01 221.344 104.793 221.21C104.457 220.803 104.178 220.362 103.957 219.885C103.993 219.669 104.051 219.46 104.131 219.258C112.113 204.916 120.094 190.575 128.075 176.236Z" fill="#292A31"/>
<path fill-rule="evenodd" clip-rule="evenodd" d="M149.197 179.793C148.938 179.898 148.659 179.944 148.36 179.932C148.161 179.932 147.976 179.909 147.803 179.863C148.27 179.87 148.734 179.847 149.197 179.793Z" fill="#514642"/>
<path opacity="0.99" fill-rule="evenodd" clip-rule="evenodd" d="M168.643 232.577C167.394 232.752 166.14 232.833 164.879 232.821C164.718 232.743 164.613 232.616 164.565 232.437C161.439 221.162 158.303 209.889 155.155 198.62C155.093 198.293 155.035 197.968 154.98 197.644C155.204 197.538 155.424 197.421 155.643 197.295C155.956 197.377 156.189 197.562 156.34 197.853C160.406 209.192 164.471 220.534 168.538 231.879C168.611 232.107 168.645 232.339 168.643 232.577Z" fill="#292A31"/>
<path opacity="0.993" fill-rule="evenodd" clip-rule="evenodd" d="M104.793 221.211C105.01 221.345 105.219 221.496 105.421 221.664C105.781 222.106 106.176 222.513 106.606 222.884C107.455 223.652 108.338 224.384 109.254 225.081C112.671 227.488 116.319 229.498 120.198 231.112C120.015 231.292 119.863 231.501 119.745 231.74C118.768 233.603 117.757 235.439 116.713 237.248C116.557 237.268 116.417 237.245 116.295 237.178C115.938 237.087 115.566 237.041 115.179 237.039C114.282 237.06 113.399 237.014 112.53 236.899C113.277 236.921 114.02 236.921 114.761 236.899C115.595 235.308 116.42 233.728 117.236 232.158C112.381 230.001 108.14 226.968 104.514 223.059C104.473 223.027 104.427 223.015 104.375 223.024C104.602 222.534 104.858 222.058 105.142 221.594C105.011 221.476 104.895 221.348 104.793 221.211Z" fill="#E5B393"/>
<path opacity="0.997" fill-rule="evenodd" clip-rule="evenodd" d="M104.376 223.022C104.428 223.013 104.474 223.025 104.516 223.057C108.142 226.966 112.383 229.999 117.237 232.157C116.421 233.726 115.596 235.307 114.762 236.898C114.021 236.92 113.278 236.92 112.532 236.898C112.315 236.915 112.106 236.891 111.904 236.828C111.438 236.676 110.95 236.606 110.441 236.619C108.156 236.292 105.926 235.745 103.749 234.981C102.864 234.642 102.005 234.248 101.17 233.795C100.735 233.546 100.34 233.244 99.9849 232.889C99.6944 232.747 99.4156 232.596 99.1484 232.436C100.874 229.284 102.617 226.146 104.376 223.022Z" fill="#FBD1B6"/>
<path opacity="0.996" fill-rule="evenodd" clip-rule="evenodd" d="M191.088 224C191.08 224.043 191.057 224.078 191.018 224.105C191.233 224.524 191.42 224.954 191.576 225.395C188.051 228.134 184.124 230.144 179.796 231.426C179.759 231.465 179.736 231.512 179.726 231.565C179.95 232.249 180.205 232.911 180.493 233.553C179.371 233.258 178.256 232.979 177.147 232.716C177.272 232.736 177.387 232.712 177.495 232.646C177.278 231.993 177.023 231.365 176.729 230.763C176.919 230.68 177.105 230.575 177.286 230.45C180.727 229.472 184.004 228.112 187.115 226.371C188.401 225.739 189.609 224.984 190.739 224.105C190.845 224.034 190.962 223.999 191.088 224Z" fill="#E3B291"/>
<path opacity="0.996" fill-rule="evenodd" clip-rule="evenodd" d="M191.574 225.395C192.791 227.898 193.953 230.432 195.06 232.995C194.014 233.669 192.876 234.11 191.644 234.32C189.584 234.601 187.516 234.67 185.44 234.529C185.108 234.432 184.759 234.385 184.395 234.389C183.052 234.259 181.751 233.98 180.491 233.553C180.203 232.911 179.948 232.249 179.725 231.565C179.734 231.512 179.758 231.465 179.794 231.426C184.123 230.144 188.049 228.134 191.574 225.395Z" fill="#FBD1B6"/>
<path fill-rule="evenodd" clip-rule="evenodd" d="M102.214 228.95C102.528 228.926 102.656 229.066 102.598 229.368C102.055 230.443 101.486 231.5 100.89 232.541C100.507 232.575 100.379 232.401 100.507 232.018C101.094 231.005 101.664 229.982 102.214 228.95Z" fill="#FEE3D1"/>
<path opacity="0.998" fill-rule="evenodd" clip-rule="evenodd" d="M99.1465 232.436C99.4137 232.596 99.6925 232.747 99.9829 232.889C100.338 233.244 100.733 233.546 101.168 233.795C102.003 234.248 102.862 234.642 103.747 234.981C105.924 235.745 108.154 236.292 110.439 236.619C110.909 236.746 111.397 236.816 111.902 236.828C112.104 236.891 112.313 236.915 112.53 236.898C113.398 237.013 114.282 237.059 115.179 237.037C115.534 237.139 115.906 237.185 116.294 237.177C116.417 237.244 116.556 237.267 116.712 237.247C116.672 237.369 116.614 237.485 116.538 237.595C116.503 240.942 116.491 244.289 116.503 247.636C115.761 248.1 114.994 248.531 114.203 248.926C111.63 249.724 109.005 250.282 106.326 250.599C102.507 251.088 98.673 251.251 94.8248 251.087C91.765 251.013 88.7212 250.758 85.6934 250.32C83.141 249.876 80.6781 249.144 78.3047 248.124C78.2797 247.052 78.3145 245.983 78.4093 244.917C78.5295 244.137 78.7618 243.394 79.1063 242.685C80.2588 240.463 81.8968 238.685 84.0205 237.351C87.1443 235.496 90.4902 234.171 94.058 233.377C95.7491 233.032 97.4453 232.718 99.1465 232.436Z" fill="#1E1F26"/>
<path opacity="0.01" fill-rule="evenodd" clip-rule="evenodd" d="M92.3164 232.785C92.4101 232.832 92.4101 232.832 92.3164 232.785V232.785Z" fill="black"/>
<path opacity="0.998" fill-rule="evenodd" clip-rule="evenodd" d="M177.146 232.715C178.255 232.978 179.371 233.257 180.492 233.552C181.752 233.979 183.053 234.258 184.396 234.388C184.728 234.485 185.077 234.532 185.441 234.528C185.707 234.585 185.986 234.62 186.278 234.632C187.393 234.679 188.508 234.679 189.624 234.632C190.314 234.569 190.987 234.464 191.645 234.319C192.877 234.109 194.015 233.668 195.061 232.994C196.076 235.175 196.669 237.476 196.838 239.897C197.088 242.663 196.936 245.406 196.385 248.124C193.818 249.092 191.17 249.754 188.439 250.112C184.387 250.776 180.309 251.16 176.205 251.262C170.905 251.172 165.689 250.463 160.557 249.135C159.304 248.807 158.096 248.377 156.932 247.846C156.522 245.137 157.184 242.742 158.919 240.664C161.097 238.37 163.641 236.592 166.551 235.33C169.926 233.823 173.458 232.952 177.146 232.715Z" fill="#1E1F26"/>
<path fill-rule="evenodd" clip-rule="evenodd" d="M184.396 234.389C184.761 234.385 185.11 234.431 185.442 234.528C185.078 234.533 184.729 234.486 184.396 234.389Z" fill="#B69989"/>
<path fill-rule="evenodd" clip-rule="evenodd" d="M191.647 234.318C190.989 234.464 190.316 234.569 189.626 234.632C188.51 234.679 187.395 234.679 186.28 234.632C185.988 234.62 185.709 234.585 185.443 234.528C187.519 234.669 189.587 234.599 191.647 234.318Z" fill="#C6A693"/>
<path fill-rule="evenodd" clip-rule="evenodd" d="M110.439 236.621C110.949 236.607 111.437 236.677 111.903 236.83C111.398 236.817 110.91 236.748 110.439 236.621Z" fill="#C3A492"/>
<path fill-rule="evenodd" clip-rule="evenodd" d="M115.178 237.037C115.565 237.039 115.936 237.085 116.293 237.177C115.905 237.185 115.533 237.139 115.178 237.037Z" fill="#9D7B68"/>
<path fill-rule="evenodd" clip-rule="evenodd" d="M84.1617 239.479C84.6151 239.454 84.7313 239.628 84.5102 240.002C84.0985 240.054 83.9824 239.88 84.1617 239.479Z" fill="#EBEAEB"/>
<path fill-rule="evenodd" clip-rule="evenodd" d="M83.6737 240.594C83.4253 240.731 83.2162 240.917 83.0464 241.152C82.8373 241.222 82.6979 241.361 82.6282 241.57C82.1749 242.069 81.7799 242.615 81.4432 243.209C81.0598 243.29 80.9088 243.139 80.9901 242.756C81.3347 242.202 81.7065 241.667 82.1054 241.152C82.4273 240.847 82.7642 240.568 83.1161 240.315C83.2315 240.27 83.3477 240.224 83.4646 240.176C83.6371 240.258 83.7069 240.398 83.6737 240.594Z" fill="#F0F0F0"/>
<path fill-rule="evenodd" clip-rule="evenodd" d="M83.6729 240.594C83.706 240.397 83.6363 240.258 83.4638 240.176C83.3469 240.224 83.2307 240.27 83.1152 240.315C83.2524 240.106 83.4383 240.059 83.6729 240.176C83.7603 240.325 83.7603 240.464 83.6729 240.594Z" fill="#ACACAD"/>
<path fill-rule="evenodd" clip-rule="evenodd" d="M161.533 240.316C161.997 240.235 162.136 240.41 161.951 240.839C161.516 240.903 161.376 240.729 161.533 240.316Z" fill="#E9E9E9"/>
<path fill-rule="evenodd" clip-rule="evenodd" d="M160.627 241.012C160.987 240.987 161.114 241.15 161.011 241.5C160.353 242.096 159.888 242.816 159.617 243.662C159.357 243.794 159.182 243.724 159.094 243.453C159.38 242.494 159.89 241.68 160.627 241.012Z" fill="#EFEFEF"/>
<path fill-rule="evenodd" clip-rule="evenodd" d="M83.0452 241.152C82.929 241.315 82.7896 241.454 82.627 241.571C82.6967 241.362 82.8361 241.222 83.0452 241.152Z" fill="#656567"/>
<path opacity="0.985" fill-rule="evenodd" clip-rule="evenodd" d="M116.502 247.637C116.5 248.758 116.488 249.874 116.468 250.984C116.298 251.237 116.078 251.435 115.805 251.576C114.536 252.179 113.212 252.62 111.832 252.901C107.736 253.702 103.599 254.143 99.4247 254.226C94.7138 254.392 90.0204 254.183 85.3443 253.598C83.4573 253.365 81.6218 252.923 79.8376 252.274C79.3551 252.085 78.9252 251.818 78.548 251.472C78.3771 251.258 78.2726 251.014 78.2344 250.74C78.3021 249.871 78.3253 248.999 78.3041 248.125C80.6775 249.145 83.1403 249.877 85.6928 250.321C88.7206 250.758 91.7644 251.014 94.8241 251.088C98.6723 251.251 102.506 251.089 106.325 250.6C109.004 250.283 111.629 249.725 114.202 248.927C114.993 248.531 115.76 248.101 116.502 247.637Z" fill="#131418"/>
<path opacity="0.987" fill-rule="evenodd" clip-rule="evenodd" d="M156.933 247.846C158.097 248.377 159.305 248.807 160.557 249.136C165.69 250.463 170.906 251.172 176.206 251.262C180.31 251.16 184.387 250.776 188.439 250.112C191.17 249.754 193.819 249.092 196.386 248.125C196.114 249.203 195.707 250.225 195.166 251.193C194.987 251.404 194.766 251.555 194.504 251.646C192.769 252.34 190.979 252.852 189.136 253.18C182.834 254.247 176.491 254.596 170.107 254.226C167.411 254.098 164.738 253.772 162.091 253.25C160.583 252.954 159.143 252.466 157.769 251.785C157.493 251.63 157.249 251.432 157.037 251.193C156.937 250.081 156.902 248.966 156.933 247.846Z" fill="#131418"/>
<path opacity="0.012" fill-rule="evenodd" clip-rule="evenodd" d="M76.1443 250.355C76.2191 250.408 76.2307 250.477 76.1792 250.565C76.1455 250.498 76.1339 250.429 76.1443 250.355Z" fill="black"/>
<path opacity="0.01" fill-rule="evenodd" clip-rule="evenodd" d="M117.899 250.355C117.978 250.551 117.989 250.76 117.934 250.983C117.899 250.775 117.888 250.566 117.899 250.355Z" fill="black"/>
<defs>
<linearGradient id="paint0_linear_2006_16518" x1="107.722" y1="78.7517" x2="57.7937" y2="147.391" gradientUnits="userSpaceOnUse">
<stop stop-color="#0ECC6A"/>
<stop offset="1" stop-color="#FFFF3E"/>
</linearGradient>
<linearGradient id="paint1_linear_2006_16518" x1="75.0009" y1="68.4941" x2="75.0009" y2="81.6678" gradientUnits="userSpaceOnUse">
<stop stop-color="#0ECC6A"/>
<stop offset="1" stop-color="#DCFF3E"/>
</linearGradient>
</defs>
</svg>
