<svg width="88" height="100" viewBox="0 0 88 100" fill="none" xmlns="http://www.w3.org/2000/svg">
<path d="M58.6861 55.2074C58.5277 55.7409 58.4006 56.3153 58.2011 56.841C58.16 56.9484 57.9644 56.8859 57.9586 56.9015C57.3053 56.1317 57.1078 55.2895 56.8691 54.3613C57.6026 54.3926 58.115 54.8362 58.6861 55.2074Z" fill="#BFD1DF"/>
<path d="M36.0351 58.8359C36.5671 59.3948 36.5613 60.3229 36.7627 61.0147C36.6121 62.8553 37.2869 65.1122 37.8521 66.8826C38.2061 67.9885 41.9673 76.7367 42.5149 76.7445L46.6927 72.7505V99.9758C38.7714 99.7374 31.5425 98.0022 24.4075 94.6511C23.4471 88.7539 24.4896 82.6749 22.8936 76.8637L21.6829 91.6263L14.9606 76.682L16.6564 90.1744C10.558 85.9967 5.26537 80.7404 1.27539 74.5052C1.47293 70.1809 2.03818 65.8958 2.60734 61.6185C5.66045 61.7259 10.0533 61.8881 13.0224 61.6185L14.4756 73.2956C15.1366 72.3968 15.2481 71.027 15.6862 70.0285C16.183 68.8991 16.9537 67.9143 17.5033 66.822C18.931 65.5148 20.5368 64.612 22.2873 63.7972C26.0152 62.0601 33.0837 60.5809 36.0332 58.8359H36.0351Z" fill="#DCE6EE"/>
<path d="M85.572 76.2599C85.9455 77.7078 86.2702 79.3785 86.5401 80.8577C83.1623 84.0681 80.4515 87.7397 76.5476 90.4167C75.9902 90.3385 75.5853 80.1679 75.6401 79.2241C75.7105 78.0263 76.2914 76.3244 76.307 75.2907C76.309 75.1402 76.4811 74.9409 76.1251 75.109C73.9521 81.2446 74.4861 87.5345 74.0656 93.9242C67.0949 97.4727 60.2298 99.368 52.3867 99.8526V72.5062C53.0224 72.6899 56.7327 76.807 57.2314 76.3185C57.7556 75.8046 60.6268 68.2895 60.9867 67.1229C61.4639 65.5753 61.8688 63.8695 62.1974 62.2828C62.213 62.2027 62.4125 61.4055 62.0761 61.4954C62.301 60.6141 62.6824 59.7719 62.6824 58.834C67.0303 60.3347 71.5777 61.5403 75.8239 63.3106C82.6734 66.1694 83.7745 69.2723 85.5739 76.2579L85.572 76.2599Z" fill="#DCE6EE"/>
<path d="M49.9616 68.0332C51.0217 69.4186 51.7376 70.8939 52.383 72.5098V99.8563C50.4584 99.9755 48.6179 100.036 46.6914 99.9774V72.7521C46.8557 71.5231 48.2796 68.9672 49.1128 68.0332C49.234 67.8984 49.3494 67.6756 49.4766 67.5486C49.4961 67.5291 49.5763 67.5681 49.5978 67.5486C49.6174 67.787 49.8814 67.9277 49.9616 68.0332Z" fill="#511B72"/>
<path d="M4.05979 56.0543C6.30708 56.0211 8.59741 55.9918 10.8427 56.0543C11.2652 56.066 13.2465 55.9253 13.3854 56.236L13.9917 61.4396C13.8763 61.7287 13.27 61.5978 13.0235 61.6213C10.0545 61.8909 5.66164 61.7287 2.60853 61.6213C2.21931 61.6076 0.566601 61.7502 0.427734 61.4396V56.1149C1.63451 55.9918 2.85301 56.0719 4.06174 56.0543H4.05979Z" fill="#511B72"/>
<path d="M24.4078 94.6547C21.564 93.3181 19.2423 91.9503 16.6567 90.178L14.9609 76.6855L21.6833 91.6299L22.8939 76.8673C24.4899 82.6766 23.4475 88.7575 24.4078 94.6547Z" fill="#BFD1DF"/>
<path d="M86.539 80.8596C86.7698 82.1199 86.9752 83.3978 87.1453 84.6718C83.2727 88.3903 78.8426 91.4972 74.0645 93.928C74.485 87.5384 73.951 81.2484 76.124 75.1128C76.48 74.9448 76.3078 75.1441 76.3059 75.2945C76.2922 76.3262 75.7093 78.0282 75.6389 79.2279C75.5842 80.1717 75.989 90.3424 76.5465 90.4205C80.4484 87.7435 83.1593 84.0719 86.539 80.8615V80.8596Z" fill="#BFD1DF"/>
<path d="M62.6746 58.8376C62.6746 59.7755 62.2952 60.6177 62.0683 61.499C61.0004 65.6708 59.1501 69.6257 57.0417 73.3579L49.9556 68.0332C49.8754 67.9277 49.6114 67.787 49.5918 67.5486C52.9696 64.2189 55.3166 62.6635 57.5854 58.1107C57.7341 57.8137 57.9414 57.503 58.0705 57.204C58.1311 57.0614 57.914 56.9891 57.9492 56.9012C57.9551 56.8855 58.1507 56.9481 58.1918 56.8406C58.3913 56.315 58.5184 55.7405 58.6768 55.207C59.1736 55.5314 62.7294 58.1615 62.7939 58.4136C62.7822 58.5933 62.6727 58.6187 62.6727 58.8376H62.6746Z" fill="white"/>
<path d="M39.9058 55.4492C40.207 55.8088 40.52 56.2582 40.7527 56.6588C43.0998 60.6899 45.7226 64.6839 49.474 67.5485C49.3468 67.6755 49.2314 67.8963 49.1102 68.0331L42.024 73.1155C39.9821 69.2836 37.9676 65.2037 36.7549 61.0162C36.5554 60.3264 36.5613 59.3963 36.0273 58.8375C36.7569 58.4056 38.9083 56.2171 39.9039 55.4492H39.9058Z" fill="white"/>
<path d="M49.1129 68.0325C48.2778 68.9665 46.8539 71.5224 46.6916 72.7514L42.5138 76.7454C41.9662 76.7376 38.205 67.9895 37.851 66.8835C37.2858 65.1112 36.611 62.8563 36.7616 61.0156C37.9743 65.2031 39.9888 69.2831 42.0307 73.1149L49.1169 68.0325H49.1129Z" fill="#BFD1DF"/>
<path d="M52.3882 72.5121C51.7427 70.8961 51.0249 69.4208 49.9668 68.0354L57.0529 73.3601C59.1613 69.6299 61.0116 65.673 62.0795 61.5012C62.4159 61.4113 62.2164 62.2085 62.2008 62.2887C61.8722 63.8753 61.4673 65.5812 60.9901 67.1288C60.6302 68.2973 57.759 75.8124 57.2348 76.3243C56.7106 76.8363 53.0258 72.6957 52.3901 72.5121H52.3882Z" fill="#BFD1DF"/>
<path d="M10.7214 26.1697C7.3319 26.3378 8.13185 26.6582 8.05752 29.558C7.36319 30.2888 7.22628 31.7406 7.21063 32.704C6.85466 32.8505 6.12121 33.4895 5.69679 33.6712C5.5012 33.5598 7.04438 29.9879 7.21063 29.4974C7.47076 28.7314 7.48641 27.3871 7.81695 26.7149C8.22182 25.8884 10.1053 25.4135 10.9659 24.415C11.5742 23.7096 11.6153 23.0296 12.0553 22.2969C12.2372 23.8171 11.6994 25.0618 10.7234 26.1697H10.7214Z" fill="#F6BE9D"/>
<path d="M14.2282 46.7409C13.7901 48.4331 12.6381 50.1233 12.0474 51.7021C11.578 52.1379 8.55029 53.5565 8.29212 52.9722C8.06132 52.4505 9.52431 52.2278 9.92722 51.9444C11.756 50.6509 12.0689 48.691 11.0773 46.7409C12.0376 46.8405 13.2268 46.7194 14.2262 46.7409H14.2282Z" fill="#F3A579"/>
<path d="M8.05588 29.5566C8.03045 30.5141 7.85442 31.4911 7.93462 32.4603C7.81531 32.4994 7.24615 32.687 7.20703 32.7026C7.22463 31.7393 7.35959 30.2874 8.05392 29.5566H8.05588Z" fill="white"/>
<path d="M12.0514 22.295C11.6113 23.0258 11.5702 23.7078 10.962 24.4132C10.1014 25.4117 8.21788 25.8865 7.81301 26.7131C7.48247 27.3872 7.46683 28.7296 7.20669 29.4956C7.04045 29.986 5.49726 33.5599 5.69285 33.6693C6.11728 33.4876 6.85073 32.8487 7.20669 32.7021C7.24386 32.6865 7.81301 32.4989 7.93428 32.4598C8.68924 32.2117 12.6753 31.4144 13.2034 31.6137C13.3775 32.7451 17.5826 37.5813 17.6237 37.9662C17.6902 38.5739 16.3406 38.6677 15.9279 38.6325C14.641 38.5173 13.9114 36.2545 12.8396 35.6077C11.5096 34.8046 8.65991 35.1427 7.14802 35.4866C6.79205 35.5667 5.43076 35.7465 5.63417 36.274C5.78869 36.6746 10.874 35.1055 12.4778 36.0923C13.5085 36.7254 14.3867 39.5275 16.0511 39.1171C16.413 40.1625 16.7494 41.1982 16.7787 42.3237L14.9011 42.3843C15.4272 45.3602 13.4029 43.8029 12.599 42.3843L9.38945 41.8391C9.31121 43.9748 8.26286 46.4486 11.0852 46.7397C12.0749 48.6899 11.7639 50.6497 9.93513 51.9433C9.53223 52.2286 8.06923 52.4494 8.30003 52.9711C8.5582 53.5553 11.5859 52.1367 12.0553 51.701C11.5311 53.1079 11.2338 54.6105 10.8446 56.0565C8.59927 55.994 6.30895 56.0233 4.06166 56.0565C4.08904 54.2314 5.06306 52.1211 4.90855 50.3097C4.64059 47.1403 2.38743 42.3823 1.88086 39.0566C4.42545 35.2443 2.37178 31.0803 4.42349 27.1977C5.8415 24.5148 9.23493 23.399 11.7502 22.0547L12.0533 22.297L12.0514 22.295Z" fill="#FED8BB"/>
<path d="M15.9276 38.6306C15.9491 38.781 16 38.9725 16.0489 39.1152C14.3844 39.5255 13.5063 36.7235 12.4755 36.0904C10.8717 35.1036 5.78644 36.6727 5.63193 36.2721C5.42852 35.7465 6.78981 35.5667 7.14577 35.4846C8.65962 35.1407 11.5093 34.8027 12.8374 35.6058C13.9092 36.2525 14.6387 38.5153 15.9257 38.6306H15.9276Z" fill="#F3A579"/>
<path d="M8.60081 38.6311C10.5645 38.4943 13.4416 39.5436 14.5956 41.2319C16.481 43.989 12.9976 40.5558 12.8392 40.4444C10.6662 38.9222 8.61059 39.1 6.17749 39.8387C4.84554 39.3111 8.35828 38.6448 8.59885 38.6291L8.60081 38.6311Z" fill="#F3A579"/>
<path d="M56.2577 48.6758C56.1951 50.62 56.3809 52.4959 56.864 54.362C57.1046 55.2921 57.3002 56.1323 57.9534 56.9022C57.9182 56.9901 58.1353 57.0605 58.0747 57.2051C57.9475 57.504 57.7383 57.8167 57.5896 58.1117C52.1366 57.5607 47.1648 55.7005 42.5705 52.787C42.6311 52.025 42.6722 49.2854 42.4492 48.6738C44.3718 49.5101 46.1634 50.7763 48.3227 50.9737C51.0022 51.218 54.026 50.1276 56.2557 48.6738L56.2577 48.6758Z" fill="#F3A579"/>
<path d="M48.023 12.0103C51.6707 16.8328 52.5254 19.162 57.8942 22.9C59.4276 23.9689 62.8015 25.4246 63.889 26.4095L63.9496 26.7729C63.5624 26.9234 60.9787 25.7295 60.3762 25.5634C59.6584 24.4652 58.1524 23.7754 56.8635 23.7481L53.2901 21.2079C51.1719 19.3496 48.2381 15.6155 47.7785 12.7978C47.7531 12.6395 47.6572 11.9439 48.021 12.0103H48.023Z" fill="#F6BE9D"/>
<path d="M65.8259 38.028C65.067 38.0631 64.4802 38.2624 63.7057 38.1491C63.5844 38.0827 64.001 37.346 64.0089 37.303C67.5979 36.8008 69.1821 30.8372 65.3408 29.5593C65.4054 29.2505 65.4288 28.1836 65.644 28.1074C71.05 28.9222 70.207 36.1404 65.8259 38.0299V38.028Z" fill="#F6BE9D"/>
<path d="M37.1215 24.5972C37.102 24.6051 36.8712 24.8513 36.7577 24.8395C36.3294 24.1849 36.3646 23.376 35.4258 23.2666C40.4269 20.8397 43.7128 16.8515 47.0534 12.6191C47.339 12.7403 47.1258 13.008 47.0534 13.1643C44.8805 17.7816 41.1213 21.5314 37.1215 24.5992V24.5972Z" fill="#F6BE9D"/>
<path d="M64.0098 37.3024C64.1721 36.2276 64.311 35.1236 64.3736 34.0352C64.9212 32.599 65.0346 31.0476 65.3417 29.5586C69.183 30.8365 67.5988 36.8002 64.0098 37.3024Z" fill="#F6BE9D"/>
<path d="M37.3661 25.4431C36.6698 25.3044 37.0551 25.2868 36.7598 24.8373C36.8732 24.851 37.104 24.6048 37.1236 24.595C39.3024 23.6532 42.4533 23.1198 44.0278 25.3825C43.9711 25.8319 41.9761 25.2164 41.6651 25.2008C40.5444 25.148 38.0702 25.5818 37.3661 25.4431Z" fill="#080C1B"/>
<path d="M57.59 58.1137C55.3212 62.6686 52.9742 64.222 49.5964 67.5516C49.5768 67.5712 49.4947 67.5321 49.4751 67.5516C45.7257 64.687 43.1029 60.693 40.7539 56.6619C41.548 56.0816 42.2462 54.833 42.4496 53.8794C42.5474 53.4241 42.5357 53.2248 42.5709 52.791C47.1653 55.7044 52.1351 57.5647 57.59 58.1157V58.1137Z" fill="#F6BE9D"/>
<path d="M56.8616 23.7507C58.1505 23.7781 59.6565 24.4659 60.3743 25.566C57.9843 24.9036 56.3433 24.7746 53.8945 25.4449C54.0764 24.2588 55.7741 23.7273 56.8616 23.7507Z" fill="#0F1931"/>
<path d="M48.0231 12.0118C47.6593 11.9454 47.7552 12.641 47.7806 12.7993C48.2402 15.617 51.1721 19.3511 53.2922 21.2094L56.8656 23.7496C55.7781 23.7262 54.0804 24.2576 53.8985 25.4437C56.3473 24.7735 57.9883 24.9025 60.3783 25.5649C60.9788 25.731 63.5645 26.9249 63.9517 26.7744L63.8911 26.411C63.9067 26.4246 64.1884 26.3934 64.2549 26.5927C64.3175 29.0567 64.515 31.5676 64.3761 34.0336C64.3155 35.122 64.1747 36.226 64.0124 37.3007C64.0065 37.3456 63.5899 38.0803 63.7092 38.1468C64.4818 38.2601 65.0685 38.0608 65.8294 38.0256C65.446 38.1917 65.1252 38.3988 64.6793 38.5102C64.3801 38.5845 63.7522 38.3695 63.6505 38.4496C63.5332 38.5415 63.0735 40.3021 62.9229 40.6284C61.4912 43.7372 59.1579 46.7874 56.2612 48.675C54.0315 50.1288 51.0078 51.2191 48.3282 50.9749C46.1689 50.7775 44.3754 49.5133 42.4547 48.675C42.2122 48.0067 40.7414 47.4518 40.3952 46.7386C41.5668 46.6721 42.4098 46.9731 43.0591 45.7108V29.9809L43.4229 30.2232C42.7677 29.2697 43.286 27.9527 43.0591 27.0773C42.6288 25.4164 38.543 26.5536 37.4282 26.1706C37.258 26.112 36.9646 25.6079 37.3675 25.4437C38.0736 25.5844 40.5458 25.1487 41.6665 25.2014C41.9756 25.2151 43.9725 25.8326 44.0292 25.3832C42.4547 23.1224 39.3058 23.6558 37.125 24.5957C41.1248 21.5279 44.882 17.7781 47.0569 13.1608C47.1293 13.0045 47.3425 12.7368 47.0569 12.6156C47.1821 12.4554 47.6437 11.6601 47.7239 11.6484C47.9371 11.6093 47.9253 11.877 48.027 12.0118H48.0231Z" fill="#FED8BB"/>
<path d="M45.0547 42.1406L53.8365 42.3223C51.5345 45.8943 47.1044 46.0272 45.0547 42.1406Z" fill="#D93E52"/>
<path d="M48.8105 33.672C49.8745 33.756 47.9832 37.6093 48.0223 37.9669C48.0888 38.5589 50.4085 39.5047 49.5362 39.8427C49.1352 39.9991 47.506 38.6176 47.416 38.2092C47.2048 37.24 48.6286 35.2684 48.3841 34.096C48.4311 33.9826 48.7166 33.6661 48.8086 33.672H48.8105Z" fill="#F3A579"/>
<path d="M50.3839 38.1492C50.6831 38.0085 51.5535 38.1765 51.2914 38.6943C50.9745 39.3216 49.7013 38.4735 50.3839 38.1492Z" fill="#F3A579"/>
<path d="M61.5844 30.7672C60.7688 29.7276 59.6285 28.8503 58.2536 28.8308C59.3665 29.9504 59.3273 31.7207 58.1929 32.8248C57.8878 32.8717 57.5749 33.0749 57.2854 33.0671C57.0879 33.0612 56.5696 32.7505 56.3779 32.7036C55.5623 31.6699 55.5662 30.6284 55.9535 29.4365C55.263 29.8175 54.7839 30.5679 54.4396 31.2518L54.3184 31.1306C54.6548 28.8757 56.9001 27.8147 58.9812 28.1058C60.0412 28.2543 62.2435 29.583 61.5844 30.7672Z" fill="#09080C"/>
<path d="M61.5829 30.7665C60.9687 31.8705 59.3786 32.6443 58.1914 32.8241C59.3258 31.722 59.3649 29.9517 58.252 28.8301C59.627 28.8496 60.7673 29.727 61.5829 30.7665Z" fill="white"/>
<path d="M56.3759 32.7046C56.3603 32.7007 56.3681 32.9235 56.0728 32.8258C55.5799 32.6636 54.5179 32.009 54.3164 31.4951C54.334 31.4052 54.3966 31.3348 54.4377 31.2528C54.7819 30.5689 55.2611 29.8185 55.9515 29.4375C55.5643 30.6294 55.5603 31.6709 56.3759 32.7046Z" fill="white"/>
<path d="M54.4386 31.2501C54.3976 31.3321 54.335 31.4025 54.3174 31.4924C54.1629 31.0976 54.2978 31.2579 54.3174 31.1289L54.4386 31.2501Z" fill="#66483B"/>
<path d="M40.3974 46.7383C40.7416 47.4515 42.2144 48.0064 42.4569 48.6747C42.6799 49.2863 42.6388 52.0258 42.5782 52.7879C42.543 53.2217 42.5547 53.421 42.4569 53.8763C41.3186 53.9193 40.6908 54.8494 39.9143 55.4493C38.9187 56.2172 36.7673 58.4057 36.0377 58.8375C33.0863 60.5825 26.0198 62.0617 22.2919 63.7988C20.5414 64.6136 18.9356 65.5164 17.5078 66.8236C18.2041 65.4441 18.7733 63.9805 19.5673 62.6498C22.7378 57.3271 27.7077 52.8172 29.9824 46.8594C33.3171 46.8418 37.1154 46.9259 40.3974 46.7383Z" fill="#080C1B"/>
<path d="M85.5751 76.2608C83.7757 69.2752 82.6745 66.1722 75.8251 63.3135C71.5789 61.5412 67.0315 60.3375 62.6836 58.8368C62.6836 58.618 62.7931 58.5926 62.8048 58.4128C62.7403 58.1607 59.1845 55.5306 58.6877 55.2062C58.1166 54.833 57.6042 54.3914 56.8707 54.3602C56.3876 52.4921 56.2018 50.6163 56.2644 48.674C59.161 46.7864 61.4944 43.7362 62.9261 40.6273C63.0747 40.303 63.5363 38.5404 63.6537 38.4486C63.7554 38.3685 64.3852 38.5834 64.6825 38.5092C65.1284 38.3998 65.4511 38.1907 65.8325 38.0246C70.2137 36.1351 71.0566 28.9189 65.6506 28.1021C65.4355 28.1783 65.412 29.2452 65.3475 29.5539C65.0404 31.0448 64.9269 32.5944 64.3793 34.0306C64.5182 31.5627 64.3206 29.0537 64.258 26.5897C64.1915 26.3904 63.9099 26.4216 63.8943 26.408C62.8068 25.4231 59.4329 23.9674 57.8995 22.8986C52.5306 19.1605 51.6759 16.8313 48.0282 12.0088C47.9265 11.876 47.9383 11.6063 47.7251 11.6454C47.6468 11.6571 47.1852 12.4543 47.0581 12.6126C43.7194 16.845 40.4316 20.8332 35.4305 23.2601C33.7328 23.0607 30.0323 23.3499 28.1038 23.3812C28.0118 23.3812 28.1038 23.135 27.9219 23.1389C29.244 14.6135 33.6624 1.67014 43.7273 0.51141C53.3893 -0.600424 61.2538 -0.688354 66.5581 8.67919C72.9362 19.9441 69.8127 34.1146 76.6113 45.4635C78.8488 49.1976 82.1406 52.5273 84.3624 56.2321C88.0786 62.4283 88.8336 69.6855 85.5731 76.2568L85.5751 76.2608Z" fill="#0F1931"/>
<path d="M39.3693 4.26446C40.2768 4.23124 39.7526 5.26296 39.7937 5.41342C39.8152 5.49158 40.6484 5.94882 40.7618 6.38065C40.8518 6.72651 40.6132 7.30881 40.6406 7.34789C40.6777 7.40456 41.4738 7.51984 41.6694 7.65076C42.1955 8.00444 43.1245 10.1304 43.3045 10.7361C41.9451 12.1782 37.963 10.4137 39.3067 8.19593C36.633 8.85053 37.7557 7.52961 37.6109 7.2287C37.564 7.12904 36.367 7.02548 36.6428 6.01916C36.6623 5.94882 37.4897 4.90928 37.5503 4.8702C37.6305 4.81744 39.2715 4.26836 39.3673 4.26446H39.3693Z" fill="#40495F"/>
<path d="M49.0581 8.98242C52.9718 15.8293 59.9367 21.2497 67.4081 23.6844C60.856 22.7719 51.988 16.0384 49.24 10.0122C49.1501 9.81288 48.8137 9.16805 49.0581 8.98438V8.98242Z" fill="#40495F"/>
<path d="M47.1195 7.17188C47.3327 7.29693 47.2271 7.51969 47.1801 7.71705C47.0589 8.22118 46.1494 9.95048 45.8482 10.4996C43.0298 15.6386 38.2203 19.7088 32.9492 22.1768C39.0261 18.5521 44.0625 13.6201 47.1195 7.17188Z" fill="#40495F"/>
<path d="M57.5933 13.0985C57.6794 13.0262 57.8848 12.991 57.8359 12.7956L56.5645 11.6467C56.8188 12.1684 57.2276 12.653 57.5933 13.0985C56.0912 14.3686 53.7559 11.4337 53.7168 10.0131C53.9535 9.58324 54.239 10.3082 54.3837 10.316C55.5221 10.3805 56.8481 9.39761 57.7752 11.1621C57.695 9.50508 58.008 9.06152 58.9859 7.89497C59.1228 7.73279 59.5081 7.87348 59.5316 7.8344C59.5825 7.74647 59.4768 7.27946 59.6529 6.98831C60.0167 6.38452 61.4679 6.96682 62.2561 6.32199C62.483 6.13636 62.7255 5.38211 62.6806 5.29418C62.3637 4.68062 55.9915 2.91028 54.9294 2.63281C57.9747 2.93373 61.8552 4.08855 64.3157 5.9605C64.3391 5.97808 64.9298 6.43532 64.5582 6.44509L63.0443 5.65763C64.8418 7.32635 62.6727 8.5144 62.5593 8.92474C62.5339 9.01267 62.9524 9.64968 62.8018 10.1343C62.5828 10.8338 61.2273 10.7263 60.6817 10.4371C61.6244 12.3931 59.8876 13.0731 58.3796 12.0101C58.4833 12.3462 57.9552 12.7527 57.9552 12.7976C57.9552 13.6495 66.0134 19.3142 67.402 19.6953C63.5763 18.6284 60.1066 16.1605 57.5914 13.1005L57.5933 13.0985Z" fill="#40495F"/>
<path d="M57.5932 13.0983C57.2275 12.6528 56.8168 12.1682 56.5645 11.6465L57.8358 12.7954C57.8847 12.9908 57.6793 13.026 57.5932 13.0983Z" fill="#626F84"/>
<path d="M42.4567 53.875C42.2533 54.8286 41.555 56.0772 40.761 56.6575C40.5282 56.2569 40.2153 55.8075 39.9141 55.448C40.6905 54.8481 41.3184 53.918 42.4567 53.875Z" fill="#BFD1DF"/>
<path d="M19.0757 25.9232L18.8938 26.1655C16.8558 26.1948 14.8139 26.1264 12.7778 26.1655C12.8228 25.7532 12.6037 24.8993 13.081 24.7137C13.4017 24.5886 18.7667 24.6668 18.9544 24.8954C19.019 24.9735 19.1266 25.8157 19.0757 25.9232Z" fill="#080C1B"/>
<path d="M35.4292 23.2618C36.37 23.3712 36.3328 24.1802 36.7612 24.8348C37.0565 25.2842 36.6712 25.3018 37.3675 25.4405C36.9646 25.6027 37.258 26.1088 37.4281 26.1674C38.5449 26.5524 42.6288 25.4151 43.0591 27.0741C43.2859 27.9495 42.7676 29.2665 43.4229 30.2201L43.0591 29.9778V45.7076C42.4097 46.9699 41.5648 46.669 40.3952 46.7354C37.1132 46.923 33.313 46.8389 29.9802 46.8565C24.7639 46.8819 19.4517 46.8468 14.2354 46.7354C13.236 46.7139 12.0468 46.835 11.0865 46.7354C8.26414 46.4442 9.31249 43.9705 9.39072 41.8347L12.6003 42.3799C13.4022 43.7985 15.4265 45.3559 14.9024 42.3799L16.78 42.3193C16.7526 41.1938 16.4143 40.1582 16.0524 39.1128C16.0035 38.9721 15.9546 38.7806 15.9312 38.6282C16.3438 38.6653 17.6934 38.5715 17.6269 37.9619C17.5858 37.5769 13.3807 32.7407 13.2066 31.6094C12.6785 31.412 8.69248 32.2092 7.93751 32.4555C7.85536 31.4863 8.03335 30.5093 8.05877 29.5518C8.1331 26.652 7.33315 26.3316 10.7227 26.1635C11.4033 26.1303 12.0996 26.1772 12.7822 26.1635C14.8183 26.1245 16.8602 26.1928 18.8982 26.1635L19.0801 25.9212C19.0273 26.2847 19.4028 26.1557 19.6258 26.1635C20.2165 26.1831 23.1874 26.273 23.5023 26.1635C23.7194 26.0873 25.1433 23.4494 25.3193 23.381C25.5599 23.2853 27.2791 23.3966 27.7407 23.381C27.8307 23.3791 27.9069 23.1387 27.9226 23.1387C28.1045 23.1348 28.0126 23.383 28.1045 23.381C30.033 23.3498 33.7335 23.0625 35.4312 23.2599L35.4292 23.2618Z" fill="#14264F"/>
<path d="M26.2827 23.9883H35.3658C35.6044 24.0743 35.6142 25.8329 35.5477 25.9853C35.3599 26.4074 26.6602 26.4347 26.2827 26.167C26.1947 26.1045 26.136 24.0469 26.2827 23.9883Z" fill="#486B90"/>
<path d="M12.9608 29.0701C13.1838 28.9939 17.4711 28.9705 17.6843 29.0701L17.8662 29.6153C17.7605 29.8361 13.2757 29.9026 12.9608 29.797C12.6107 29.6798 12.6029 29.1913 12.9608 29.0701Z" fill="white"/>
<path d="M10.4201 27.4985C12.241 27.1468 11.887 30.2596 10.1775 29.435C9.32673 29.0246 9.60838 27.6549 10.4201 27.4985Z" fill="#EB5B54"/>
<path d="M29.1922 27.9808C40.636 27.0234 41.5885 43.8103 31.1304 44.799C19.4695 45.9031 18.4134 28.8816 29.1922 27.9808Z" fill="#486B90"/>
<path d="M29.6777 28.95C39.3768 28.5396 40.1885 43.0052 30.8883 43.8337C20.6298 44.7482 19.781 29.3701 29.6777 28.95Z" fill="#0F1931"/>
<path d="M29.192 29.5569C39.2764 28.4743 39.7693 44.3566 28.9494 43.2291C21.3157 42.4338 21.2785 30.4069 29.192 29.5569Z" fill="#14264F"/>
<path d="M29.0716 30.2812C38.491 29.1655 38.6984 43.8616 28.9503 42.5016C22.2299 41.5637 22.2475 31.0902 29.0716 30.2812Z" fill="#0F1931"/>
<path d="M29.069 31.0091C36.6011 30.0321 37.7922 40.5896 31.2498 41.7776C23.485 43.1865 22.2724 31.8903 29.069 31.0091Z" fill="#A7D0E6"/>
<path d="M30.2801 32.0978C35.1561 32.2795 35.8544 39.9471 31.0077 40.6896C24.3323 41.7116 24.0448 31.8653 30.2801 32.0978Z" fill="#45ADD7"/>
<path d="M29.6773 35.1228C31.9324 34.6421 32.085 37.7393 30.4049 38.0265C28.4959 38.3528 27.8916 35.5039 29.6773 35.1228Z" fill="#2F8AC1"/>
</svg>
