<svg width="317" height="320" viewBox="0 0 317 320" fill="none" xmlns="http://www.w3.org/2000/svg">
<path opacity="0.997" fill-rule="evenodd" clip-rule="evenodd" d="M165.702 15.433C165.432 15.4292 165.168 15.474 164.91 15.5674C164.194 15.795 163.481 16.0339 162.771 16.284C162.18 16.5047 161.665 16.848 161.226 17.3141C161.094 18.0903 161.372 18.4337 162.058 18.3441C163.567 17.4352 165.178 16.8977 166.891 16.7318C167.524 16.6871 168.157 16.6722 168.792 16.6871C169.168 16.7954 169.511 16.9746 169.822 17.2245C169.724 17.2523 169.724 17.297 169.822 17.3588C174.614 21.2791 177.109 26.6087 177.309 33.3474C177.469 39.7112 175.264 44.7124 170.693 48.3507C169.869 48.9002 168.985 49.2735 168.039 49.4703C167.92 49.4405 167.802 49.4106 167.683 49.3808C167.612 49.1493 167.585 48.9104 167.604 48.6642C168.573 48.5161 169.523 48.2624 170.456 47.9028C170.693 47.59 170.641 47.366 170.297 47.2311C169.522 47.4913 168.743 47.7301 167.96 47.9476C167.86 47.9163 167.834 47.8565 167.881 47.7685C168.062 47.6308 168.26 47.5264 168.475 47.455C169.479 47.1863 170.483 46.9175 171.486 46.6488C171.697 46.4399 171.697 46.2308 171.486 46.0218C170.507 46.2161 169.53 46.4252 168.554 46.6488C168.66 46.5294 168.766 46.4099 168.871 46.2905C172.094 45.4829 174.168 43.2884 175.091 39.707C175.273 38.7013 175.326 37.6862 175.249 36.6616C175.17 36.572 175.091 36.4824 175.011 36.3929C174.611 34.3424 173.489 33.2377 171.644 33.0787C170.957 33.1667 170.271 33.2712 169.584 33.3922C169.05 33.6196 168.548 33.9182 168.079 34.2879C167.417 34.4899 166.875 34.2959 166.455 33.7057C164.368 30.5797 161.793 28.1165 158.73 26.316C157.034 25.5829 155.291 25.0454 153.501 24.7037C151.342 24.5341 149.203 24.6834 147.084 25.1516C146.344 25.2113 145.604 25.2113 144.865 25.1516C143.602 24.79 143.114 23.8794 143.4 22.4197C143.602 21.6293 143.827 20.8529 144.073 20.0908C145.328 18.6632 146.78 17.5435 148.431 16.7318C154.06 14.0132 159.818 13.5803 165.702 15.433Z" fill="#522409"/>
<path opacity="0.982" fill-rule="evenodd" clip-rule="evenodd" d="M165.701 15.4338C166.777 15.7298 167.807 16.1478 168.791 16.6878C168.157 16.673 167.523 16.6878 166.89 16.7326C165.177 16.8985 163.566 17.4359 162.057 18.3449C161.371 18.4345 161.094 18.0911 161.225 17.3148C161.665 16.8488 162.18 16.5055 162.77 16.2848C163.48 16.0347 164.193 15.7958 164.909 15.5682C165.167 15.4748 165.431 15.43 165.701 15.4338Z" fill="#7A3F1B"/>
<path fill-rule="evenodd" clip-rule="evenodd" d="M150.252 16.4171C150.767 16.3847 150.899 16.6086 150.648 17.0889C148.998 17.6486 147.493 18.5145 146.132 19.6865C145.65 20.1706 145.228 20.7081 144.865 21.2988C144.455 21.4332 144.31 21.269 144.429 20.8062C145.484 19.2309 146.818 18.0515 148.43 17.2681C149.055 17.0083 149.662 16.7247 150.252 16.4171Z" fill="#793E1B"/>
<path fill-rule="evenodd" clip-rule="evenodd" d="M151.125 17.4015C151.64 17.3691 151.773 17.593 151.521 18.0733C150.518 18.3718 149.567 18.8196 148.669 19.4169C148.26 19.5512 148.115 19.3871 148.233 18.9242C149.149 18.2793 150.114 17.7717 151.125 17.4015Z" fill="#793E1B"/>
<path opacity="0.99" fill-rule="evenodd" clip-rule="evenodd" d="M169.821 17.2246C172.426 18.5267 174.552 20.4973 176.199 23.1364C177.979 26.8266 178.732 30.7678 178.457 34.9598C178.291 36.0781 178.146 37.2127 178.021 38.3636C177.928 38.8748 177.822 39.3824 177.704 39.8863C177.238 41.2691 176.75 42.6425 176.239 44.0066C175.911 44.8663 175.502 45.6725 175.011 46.425C173.525 48.3303 171.822 49.9277 169.9 51.2171C169.466 51.6566 169.017 52.0745 168.553 52.4711C168.133 52.728 167.684 52.8326 167.207 52.7846C166.894 52.7197 166.616 52.5705 166.375 52.3368C165.645 50.8246 165.593 49.2721 166.216 47.679C166.741 46.3692 167.546 45.3392 168.633 44.5888C170.431 44.5053 171.871 43.6544 172.951 42.036C174.079 40.3686 174.554 38.4876 174.377 36.393C174.31 36.2039 174.244 36.0248 174.179 35.8556C173.773 34.4573 172.914 33.7707 171.604 33.7954C170.971 33.7752 170.376 33.9393 169.821 34.2881C169.071 34.8535 168.358 35.4656 167.682 36.1243C166.988 36.3357 166.354 36.2013 165.781 35.7212C165.556 35.4674 165.331 35.2136 165.107 34.9598C161.931 28.4518 157.058 25.6303 150.49 26.4953C148.25 27.0601 146.19 28.0753 144.31 29.5407C143.943 29.8661 143.599 30.2244 143.28 30.6156C143.11 30.742 142.925 30.8167 142.725 30.8395C142.569 30.8609 142.424 30.8311 142.29 30.75C140.806 27.1734 141.175 23.8592 143.399 20.8075C143.613 20.5503 143.838 20.3114 144.072 20.0909C143.826 20.8531 143.601 21.6294 143.399 22.4198C143.113 23.8795 143.601 24.7901 144.864 25.1517C145.604 25.2115 146.344 25.2115 147.083 25.1517C149.202 24.6835 151.341 24.5342 153.5 24.7039C155.29 25.0456 157.033 25.583 158.729 26.3162C161.792 28.1166 164.367 30.5799 166.454 33.7058C166.875 34.296 167.417 34.49 168.078 34.2881C168.547 33.9183 169.049 33.6198 169.583 33.3923C170.27 33.2713 170.956 33.1668 171.643 33.0788C173.488 33.2378 174.61 34.3425 175.011 36.393C175.09 36.4826 175.169 36.5721 175.248 36.6617C175.325 37.6863 175.272 38.7014 175.09 39.7071C174.167 43.2885 172.093 45.483 168.87 46.2907C168.765 46.4101 168.659 46.5296 168.553 46.649C169.53 46.4253 170.506 46.2162 171.485 46.022C171.696 46.2309 171.696 46.44 171.485 46.649C170.482 46.9177 169.478 47.1864 168.474 47.4551C168.259 47.5265 168.061 47.6309 167.88 47.7686C167.833 47.8567 167.859 47.9164 167.959 47.9478C168.742 47.7303 169.521 47.4914 170.296 47.2312C170.64 47.3662 170.693 47.5901 170.455 47.903C169.522 48.2625 168.572 48.5163 167.603 48.6643C167.585 48.9106 167.611 49.1495 167.682 49.3809C167.801 49.4107 167.92 49.4407 168.038 49.4705C168.984 49.2736 169.869 48.9004 170.693 48.3508C175.263 44.7125 177.468 39.7114 177.308 33.3475C177.108 26.6088 174.613 21.2793 169.821 17.359C169.723 17.2972 169.723 17.2524 169.821 17.2246Z" fill="#3A1905"/>
<path fill-rule="evenodd" clip-rule="evenodd" d="M159.68 18.0289C159.978 17.9904 160.256 18.0501 160.512 18.208C160.793 19.1104 160.516 19.5134 159.68 19.4172C159.263 18.9464 159.263 18.4836 159.68 18.0289Z" fill="#7A3F1B"/>
<path fill-rule="evenodd" clip-rule="evenodd" d="M147.163 19.6412C147.607 19.5139 147.779 19.6931 147.678 20.1786C147.12 20.5403 146.631 21.0031 146.212 21.567C145.803 21.7014 145.658 21.5372 145.776 21.0744C146.207 20.5426 146.669 20.0649 147.163 19.6412Z" fill="#793E1B"/>
<path fill-rule="evenodd" clip-rule="evenodd" d="M150.966 20.8954C151.397 20.806 151.556 20.9851 151.442 21.4328C150.699 22.0619 149.986 22.7336 149.303 23.4482C148.92 23.5526 148.774 23.3884 148.867 22.9555C149.55 22.2355 150.25 21.5488 150.966 20.8954Z" fill="#3B1905"/>
<path fill-rule="evenodd" clip-rule="evenodd" d="M149.063 21.2546C149.474 21.1656 149.619 21.3448 149.499 21.792C148.535 22.6429 147.677 23.6133 146.924 24.7031C146.512 24.8377 146.34 24.6735 146.409 24.2104C147.233 23.1446 148.117 22.1593 149.063 21.2546Z" fill="#3B1905"/>
<path fill-rule="evenodd" clip-rule="evenodd" d="M146.845 22.1517C147.254 22.1191 147.399 22.3282 147.281 22.7787C146.69 23.2379 146.175 23.7903 145.736 24.4358C145.326 24.5702 145.181 24.406 145.3 23.9432C145.782 23.2942 146.297 22.6971 146.845 22.1517Z" fill="#3B1905"/>
<path fill-rule="evenodd" clip-rule="evenodd" d="M173.624 23.4046C173.884 23.3839 174.082 23.5034 174.218 23.7629C174.582 24.4953 174.925 25.2417 175.248 26.0022C175.303 26.4486 175.144 26.5979 174.773 26.4501C174.39 25.5849 173.968 24.7489 173.505 23.9421C173.446 23.7325 173.485 23.5533 173.624 23.4046Z" fill="#793E1A"/>
<path fill-rule="evenodd" clip-rule="evenodd" d="M173.23 24.7489C173.386 24.7275 173.531 24.7573 173.665 24.8385C174.162 25.8358 174.519 26.8957 174.735 28.0183C174.641 28.4442 174.443 28.5189 174.141 28.2422C173.948 27.2316 173.631 26.2762 173.19 25.3759C173.135 25.1583 173.147 24.9494 173.23 24.7489Z" fill="#793E1A"/>
<path opacity="0.996" fill-rule="evenodd" clip-rule="evenodd" d="M167.683 36.1249C167.514 36.5085 167.237 36.6876 166.851 36.6624C166.434 36.6547 166.051 36.5203 165.702 36.2593C164.552 35.0718 163.561 33.7431 162.731 32.2734C158.211 27.1909 152.968 25.9518 147.004 28.5561C145.753 29.1653 144.684 30.0461 143.796 31.1985C143.357 32.0104 142.922 32.8165 142.488 33.6169C142.501 32.6838 142.58 31.7581 142.726 30.8402C142.926 30.8174 143.11 30.7427 143.281 30.6163C143.6 30.225 143.944 29.8667 144.311 29.5414C146.191 28.0759 148.25 27.0608 150.49 26.496C157.059 25.631 161.932 28.4525 165.108 34.9605C165.332 35.2143 165.557 35.4681 165.781 35.7219C166.355 36.202 166.989 36.3363 167.683 36.1249Z" fill="#DE9B78"/>
<path fill-rule="evenodd" clip-rule="evenodd" d="M175.13 26.8078C175.465 26.7239 175.663 26.8731 175.724 27.2557C175.836 27.6313 175.849 28.0046 175.763 28.3753C175.61 28.4419 175.465 28.4269 175.328 28.3305C175.131 27.8333 175.065 27.3258 175.13 26.8078Z" fill="#7A3E1B"/>
<path opacity="0.998" fill-rule="evenodd" clip-rule="evenodd" d="M167.684 36.1248C168.359 35.4661 169.072 34.854 169.823 34.2885C170.378 33.9398 170.972 33.7757 171.605 33.7959C172.916 33.7712 173.775 34.4578 174.18 35.8561C174.284 38.0376 173.769 40.0082 172.635 41.7678C171.545 43.0632 170.212 43.8245 168.634 44.0519C166.03 45.8355 165.04 48.4182 165.663 51.7998C165.796 52.0387 165.927 52.2775 166.059 52.5164C166.112 53.6523 166.098 54.7869 166.02 55.9202C162.88 56.2931 159.737 56.6514 156.592 56.995C157.426 56.0343 158.126 54.9594 158.691 53.7704C158.929 52.9047 158.652 52.4121 157.859 52.2925C157.687 52.2775 157.516 52.2627 157.344 52.2477C155.296 52.4958 153.25 52.481 151.204 52.2029C150.608 52.048 150.027 51.839 149.461 51.5759C148.794 51.1989 148.134 50.8258 147.481 50.4563C147.387 50.3663 147.281 50.2916 147.164 50.2323C146.725 49.6624 146.276 49.1101 145.817 48.5753C145.817 48.5454 145.817 48.5155 145.817 48.4857C145.817 48.4559 145.817 48.4259 145.817 48.3961C145.624 48.1703 145.492 47.9016 145.421 47.59C145.368 47.4706 145.315 47.4706 145.262 47.59C145.993 50.6847 146.561 53.8197 146.966 56.995C147.462 61.7925 147.832 66.5989 148.075 71.4161C144.997 75.0294 141.973 78.6723 139.003 82.3438C138.8 81.5234 138.615 80.6868 138.449 79.8358C138.12 78.4976 137.803 77.1541 137.498 75.8051C137.222 74.4087 136.892 73.0355 136.507 71.6848C136.379 71.6311 136.26 71.571 136.151 71.5057C136.237 71.408 136.29 71.288 136.309 71.1474C135.531 67.7436 134.751 64.3399 133.972 60.9362C133.742 60.2662 133.491 59.6096 133.22 58.9656C133.322 58.8268 133.375 58.6476 133.378 58.4282C133.288 56.6159 132.826 54.9439 131.992 53.4121C131.714 53.0986 131.437 52.7851 131.16 52.4716C130.934 52.277 130.683 52.1426 130.407 52.0686C129.309 52.3839 128.212 52.3988 127.119 52.1133C126.798 51.9021 126.507 51.6483 126.248 51.352C126.248 50.9639 126.248 50.5757 126.248 50.1876C126.959 49.1869 127.804 48.3509 128.783 47.6795C128.864 47.1914 128.679 47.0271 128.228 47.1869C127.615 47.8487 126.902 48.3264 126.089 48.62C125.746 48.6798 125.402 48.6798 125.059 48.62C124.935 48.4949 124.829 48.3606 124.742 48.217C124.645 47.6326 124.645 47.0354 124.742 46.4255C125.164 44.9775 126.01 43.9774 127.277 43.4249C127.385 43.2513 127.359 43.1021 127.198 42.977C126.987 42.9173 126.776 42.9173 126.564 42.977C125.937 43.4364 125.276 43.8245 124.584 44.1415C124.051 44.3016 123.628 44.1374 123.316 43.6488C123.241 43.2095 123.215 42.7616 123.237 42.3052C123.371 41.9144 123.569 41.5561 123.831 41.2304C124.556 40.2906 125.375 39.4844 126.287 38.8119C126.353 38.4089 126.208 38.2447 125.851 38.3193C125.112 38.9165 124.372 39.5135 123.633 40.1107C122.357 40.9408 121.697 40.5377 121.652 38.9015C121.656 38.3868 121.775 37.909 122.009 37.4683C122.698 36.4655 123.477 35.5698 124.346 34.7812C127.837 33.0114 131.402 32.7875 135.042 34.1094C136.8 34.7807 138.437 35.7063 139.954 36.8861C141.213 38.2503 142.229 39.8178 143.004 41.5887C142.734 40.083 142.522 38.5602 142.37 37.0205C142.317 36.065 142.317 35.1097 142.37 34.1542C142.396 33.9673 142.435 33.7882 142.489 33.6168C142.923 32.8163 143.358 32.0102 143.796 31.1983C144.685 30.0459 145.754 29.1651 147.005 28.5559C152.969 25.9516 158.212 27.1907 162.732 32.2732C163.562 33.7429 164.552 35.0716 165.703 36.2591C166.052 36.5201 166.435 36.6545 166.852 36.6622C167.237 36.6875 167.515 36.5083 167.684 36.1248Z" fill="#EFC49F"/>
<path fill-rule="evenodd" clip-rule="evenodd" d="M163.881 29.5854C164.041 29.5709 164.2 29.5859 164.356 29.6302C165.374 30.3847 166.483 30.8923 167.683 31.1529C167.847 31.2867 167.873 31.4509 167.763 31.6456C167.504 31.7428 167.239 31.7577 166.97 31.6904C165.872 31.4065 164.869 30.8989 163.96 30.1677C163.787 29.9976 163.76 29.8036 163.881 29.5854Z" fill="#3B1905"/>
<path opacity="0.063" fill-rule="evenodd" clip-rule="evenodd" d="M142.489 31.0176C142.573 31.0848 142.587 31.1744 142.528 31.2863C142.49 31.2014 142.477 31.1118 142.489 31.0176Z" fill="#F29D77"/>
<path fill-rule="evenodd" clip-rule="evenodd" d="M170.297 31.377C171.233 31.4027 172.131 31.6267 172.99 32.0487C173.131 32.3554 173.051 32.5494 172.753 32.631C171.984 32.302 171.192 32.078 170.376 31.9592C170.203 31.7892 170.176 31.5952 170.297 31.377Z" fill="#3B1905"/>
<path fill-rule="evenodd" clip-rule="evenodd" d="M174.892 31.5568C175.093 31.5213 175.265 31.5811 175.407 31.7359C175.761 33.1469 175.933 34.58 175.922 36.0354C175.726 36.1704 175.554 36.1404 175.407 35.9458C175.329 34.5946 175.131 33.266 174.812 31.9599C174.834 31.8225 174.861 31.6882 174.892 31.5568Z" fill="#3B1905"/>
<path fill-rule="evenodd" clip-rule="evenodd" d="M165.861 31.8237C166.022 31.8092 166.18 31.8242 166.336 31.8685C166.779 32.155 167.254 32.3341 167.762 32.4059C168.478 32.4265 169.192 32.3967 169.901 32.3164C170.007 32.4955 170.007 32.6747 169.901 32.8538C168.534 33.3533 167.213 33.2339 165.94 32.4955C165.765 32.2947 165.738 32.0708 165.861 31.8237Z" fill="#3B1905"/>
<path fill-rule="evenodd" clip-rule="evenodd" d="M176.001 31.9151C176.143 31.8896 176.274 31.9194 176.397 32.0047C176.75 33.1041 176.895 34.2387 176.833 35.4084C176.648 35.6473 176.463 35.6473 176.278 35.4084C176.278 34.389 176.159 33.3887 175.922 32.4077C175.938 32.2395 175.964 32.0752 176.001 31.9151Z" fill="#3B1905"/>
<path opacity="0.993" fill-rule="evenodd" clip-rule="evenodd" d="M112.461 33.7956C112.222 34.0523 112.024 34.3509 111.867 34.6913C111.213 36.5217 110.606 38.3729 110.045 40.2448C109.576 42.3564 109.233 44.4763 109.015 46.6044C109.095 46.6793 109.187 46.7092 109.292 46.6939C109.6 45.5211 110.075 44.4462 110.718 43.4693C111.055 43.3073 111.398 43.1879 111.748 43.1111C112.065 43.1111 112.382 43.1111 112.699 43.1111C112.893 43.1982 113.104 43.228 113.333 43.2006C114.153 43.306 114.84 43.6942 115.393 44.3651C114.977 44.8951 114.66 45.4923 114.442 46.1565C114.412 46.3534 114.359 46.5325 114.284 46.6939C112.758 47.6303 111.635 49.0336 110.916 50.9038C110.864 51.2023 110.864 51.501 110.916 51.7995C111.01 51.9098 111.102 51.9098 111.194 51.7995C111.726 50.8787 112.307 49.998 112.937 49.1572C113.214 48.9258 113.504 48.7168 113.808 48.5301C113.938 48.4859 114.07 48.471 114.204 48.4854C114.179 47.9904 114.205 47.5126 114.284 47.0522C114.117 48.7109 114.434 50.2336 115.234 51.6204C114.547 53.1177 114.363 54.7002 114.68 56.3677C114.759 56.4871 114.838 56.4871 114.917 56.3677C115.023 56.0939 115.181 55.8849 115.393 55.7407C115.836 55.4042 116.311 55.1354 116.819 54.9345C117.425 54.7015 118.033 54.7015 118.641 54.9345C118.641 54.9644 118.641 54.9943 118.641 55.0241C118.654 55.3539 118.641 55.6823 118.601 56.0094C118.281 57.1823 117.938 58.3468 117.571 59.5027C117.327 60.2865 117.499 60.9287 118.086 61.4285C118.646 61.7062 119.2 61.7062 119.75 61.4285C120.198 60.9394 120.568 60.4468 120.859 59.9506C121.101 59.7849 121.365 59.6648 121.652 59.5923C122.746 64.0449 123.67 68.553 124.425 73.1176C124.398 73.2368 124.372 73.3568 124.345 73.4759C122.87 75.1885 121.286 76.756 119.592 78.1784C117.638 79.8794 115.605 81.4469 113.491 82.881C113.407 82.7824 113.341 82.6633 113.293 82.5227C113.24 82.4555 113.174 82.425 113.095 82.4331C110.889 76.009 108.974 69.4703 107.351 62.8169C106.084 57.7474 105.385 52.5821 105.252 47.3209C105.195 44.174 105.578 41.0987 106.4 38.095C106.859 36.4129 107.665 34.9947 108.817 33.8404C109.763 33.1325 110.793 32.8936 111.907 33.1238C112.22 33.2239 112.405 33.4479 112.461 33.7956Z" fill="#EFC4A0"/>
<path opacity="0.996" fill-rule="evenodd" clip-rule="evenodd" d="M124.346 34.7808C123.477 35.5694 122.698 36.4651 122.009 37.468C121.775 37.9087 121.657 38.3864 121.653 38.9011C121.438 40.1575 121.781 41.1876 122.683 41.9913C122.847 42.1441 123.032 42.2486 123.237 42.3048C123.215 42.7612 123.242 43.2091 123.317 43.6484C123.383 44.5457 123.687 45.322 124.228 45.9773C124.367 46.1802 124.539 46.3295 124.743 46.4251C124.645 47.035 124.645 47.6322 124.743 48.2166C124.907 49.2081 125.409 49.8649 126.248 50.1872C126.248 50.5753 126.248 50.9635 126.248 51.3516C126.291 51.7657 126.397 52.1539 126.565 52.516C126.899 53.4007 127.48 53.9681 128.308 54.2179C125.378 55.8143 122.473 57.4565 119.593 59.1444C119.709 58.4288 119.814 57.7122 119.91 56.9946C120 56.1102 119.736 55.4086 119.117 54.8897C118.942 54.819 118.784 54.834 118.642 54.9345C118.034 54.7014 117.426 54.7014 116.82 54.9345C116.895 54.4717 117.001 54.0238 117.137 53.5909C118.314 54.1414 119.45 54.0518 120.544 53.3222C121.441 52.9295 122.326 52.5116 123.198 52.0682C123.841 50.7867 124.053 49.4133 123.831 47.9479C123.593 45.8981 122.708 44.3306 121.177 43.2453C120.815 43.1131 120.445 43.0832 120.068 43.1558C121.355 43.8303 122.24 44.9202 122.722 46.4251C122.807 46.8076 122.847 47.1957 122.841 47.5896C122.603 47.6076 122.365 47.6374 122.128 47.6792C121.983 47.6868 121.877 47.7465 121.811 47.8583C121.352 46.159 120.454 44.8303 119.117 43.8724C118.827 43.7579 118.537 43.6534 118.246 43.5588C117.287 43.3001 116.415 43.509 115.631 44.1859C115.443 43.9269 115.231 43.6731 114.998 43.4245C115.735 43.1496 116.409 42.7465 117.018 42.2153C117.155 41.7153 117.168 41.2077 117.058 40.6925C117.083 40.381 117.043 40.0824 116.939 39.7968C116.788 39.6687 116.616 39.6091 116.424 39.6177C115.618 39.8118 114.852 40.1103 114.126 40.5134C113.856 40.5649 113.618 40.6843 113.413 40.8717C113.173 40.985 112.949 41.1343 112.74 41.3196C112.674 41.9348 112.767 42.517 113.017 43.0662C112.914 43.1101 112.809 43.1251 112.7 43.111C112.383 43.111 112.066 43.111 111.749 43.111C111.729 42.2069 111.729 41.3111 111.749 40.4238C112.42 40.1163 113.093 39.8178 113.77 39.5281C113.851 39.498 113.891 39.4383 113.888 39.349C114.118 39.234 114.356 39.1444 114.601 39.0803C114.671 37.955 114.842 36.8503 115.116 35.7661C116.752 34.6254 118.508 33.8193 120.385 33.3477C120.688 33.3573 120.979 33.432 121.257 33.5716C121.996 34.0493 122.736 34.527 123.475 35.0047C123.78 35.0147 124.07 34.94 124.346 34.7808Z" fill="#6658A0"/>
<path fill-rule="evenodd" clip-rule="evenodd" d="M109.688 33.7027C109.875 33.6881 110.06 33.703 110.243 33.7475C110.328 33.9021 110.341 34.0663 110.282 34.2401C109.186 34.8222 108.341 35.7179 107.747 36.9273C107.588 37.1662 107.43 37.1662 107.271 36.9273C107.273 36.4156 107.431 35.9678 107.747 35.5837C108.316 34.8346 108.963 34.2076 109.688 33.7027Z" fill="#F8D8BB"/>
<path fill-rule="evenodd" clip-rule="evenodd" d="M129.338 33.6149C130.078 33.6001 130.817 33.6149 131.556 33.6597C131.924 33.7306 132.029 33.9545 131.873 34.3315C130.953 34.332 130.028 34.3469 129.1 34.3763C128.247 34.4678 127.427 34.7066 126.644 35.0929C126.234 35.2272 126.089 35.0631 126.208 34.6002C126.678 34.2539 127.193 34.0299 127.753 33.9284C128.291 33.8123 128.819 33.7077 129.338 33.6149Z" fill="#F8D8BB"/>
<path opacity="0.972" fill-rule="evenodd" clip-rule="evenodd" d="M112.462 33.7949C112.656 34.2229 112.67 34.6708 112.502 35.1385C112.052 36.6493 111.642 38.172 111.274 39.7067C111.222 39.88 111.196 40.0591 111.194 40.2441C111.128 40.2747 111.102 40.3344 111.115 40.4232C110.986 40.5599 110.92 40.7391 110.917 40.9607C110.773 41.789 110.707 42.6251 110.719 43.4687C110.076 44.4456 109.6 45.5204 109.293 46.6933C109.188 46.7085 109.096 46.6787 109.016 46.6037C109.233 44.4756 109.577 42.3558 110.046 40.2441C110.606 38.3722 111.214 36.521 111.868 34.6906C112.025 34.3503 112.223 34.0516 112.462 33.7949Z" fill="#E29E7A"/>
<path fill-rule="evenodd" clip-rule="evenodd" d="M142.804 34.153C142.984 34.1208 143.129 34.1806 143.24 34.3321C143.245 35.6358 143.312 36.9346 143.438 38.2285C143.486 38.8337 143.288 38.9979 142.843 38.7211C142.698 37.2617 142.645 35.7987 142.685 34.3321C142.742 34.2834 142.782 34.2236 142.804 34.153Z" fill="#F8D8BB"/>
<path fill-rule="evenodd" clip-rule="evenodd" d="M154.137 34.8705C154.549 34.7998 154.708 34.9789 154.612 35.4079C154.057 35.8707 153.503 36.3334 152.948 36.7963C153.604 36.7026 154.264 36.6727 154.929 36.7067C155.14 36.9157 155.14 37.1247 154.929 37.3337C153.865 37.3883 152.808 37.5227 151.76 37.7368C151.398 37.7728 151.279 37.5936 151.403 37.1993C152.327 36.4321 153.238 35.6558 154.137 34.8705Z" fill="#2E140C"/>
<path fill-rule="evenodd" clip-rule="evenodd" d="M119.591 35.0491C120.498 34.9483 121.291 35.232 121.968 35.9001C119.888 36.838 117.802 37.7487 115.709 38.632C115.831 38.0282 115.976 37.4311 116.145 36.8406C116.684 36.3639 117.278 35.9906 117.927 35.7209C118.484 35.4863 119.039 35.2624 119.591 35.0491Z" fill="#363353"/>
<path opacity="0.999" fill-rule="evenodd" clip-rule="evenodd" d="M146.449 35.2279C146.746 35.2182 147.036 35.263 147.321 35.3622C148.121 36.2251 148.451 37.285 148.311 38.542C148.175 39.0777 147.898 39.4807 147.479 39.7512C147.141 39.8415 146.824 39.7967 146.529 39.6169C145.526 38.4165 145.328 37.0729 145.934 35.5861C146.076 35.3955 146.248 35.2761 146.449 35.2279Z" fill="#2C120A"/>
<path opacity="0.997" fill-rule="evenodd" clip-rule="evenodd" d="M180.359 35.5877C183.087 35.2876 185.371 36.2729 187.212 38.5436C188.002 39.8785 188.53 41.3415 188.796 42.9326C189.2 45.1809 189.332 47.45 189.193 49.7401C189.138 50.8612 189.071 51.9809 188.995 53.099C189.033 54.2745 189.205 55.424 189.51 56.5475C189.888 57.3746 190.245 58.2106 190.579 59.0555C188.903 60.0319 187.596 59.584 186.657 57.712C186.544 57.4198 186.425 57.1361 186.301 56.861C186.035 56.6678 185.783 56.6827 185.548 56.9058C185.421 57.8547 185.395 58.8101 185.469 59.7721C185.817 61.8878 186.676 63.6945 188.044 65.1912C188.091 65.2324 188.144 65.2477 188.202 65.236C188.751 66.1407 189.425 66.9164 190.223 67.5649C190.29 67.7163 190.356 67.8658 190.421 68.0127C190.063 68.4257 189.666 68.7992 189.232 69.1324C188.149 69.1924 187.067 69.1924 185.984 69.1324C181.823 67.5926 179.353 64.3824 178.576 59.5034C178.441 58.9749 178.164 58.5719 177.744 58.2942C176.965 58.161 176.477 58.5342 176.279 59.4138C176.145 60.4538 176.278 61.4391 176.675 62.3697C176.912 63.4302 177.217 64.446 177.586 65.4151C177.519 65.5647 177.413 65.6695 177.269 65.7287C177.007 65.8209 176.743 65.8953 176.477 65.9526C175.161 64.6484 174.381 63.0066 174.139 61.0261C173.954 59.1487 174.218 57.3574 174.932 55.6518C176.558 51.7636 178.328 47.9717 180.24 44.2762C181.126 42.5522 181.548 40.701 181.508 38.7227C181.255 37.6048 180.872 36.5598 180.359 35.5877Z" fill="#532509"/>
<path fill-rule="evenodd" clip-rule="evenodd" d="M123.871 35.6764C124.315 35.5491 124.487 35.7282 124.386 36.2138C123.737 36.6787 123.222 37.2907 122.841 38.05C122.575 38.1522 122.416 38.0478 122.365 37.7365C122.397 37.5845 122.436 37.4353 122.484 37.2887C122.909 36.7037 123.371 36.1662 123.871 35.6764Z" fill="#F8D7BB"/>
<path opacity="0.987" fill-rule="evenodd" clip-rule="evenodd" d="M179.17 35.4961C179.252 35.5727 179.344 35.6324 179.447 35.6752C179.747 35.5952 180.05 35.5652 180.359 35.5857C180.872 36.5577 181.255 37.6027 181.507 38.7207C181.548 40.699 181.125 42.5501 180.24 44.2741C178.328 47.9697 176.558 51.7615 174.931 55.6498C174.218 57.3553 173.954 59.1466 174.139 61.0241C174.381 63.0045 175.16 64.6464 176.476 65.9505C175.601 65.9111 174.874 65.5224 174.298 64.7861C173.126 62.9991 172.585 60.9838 172.673 58.74C172.662 57.0716 172.887 55.4444 173.347 53.8583C174.187 51.4255 175.059 49.007 175.961 46.603C176.276 45.6283 176.553 44.643 176.793 43.6471C177.391 43.5478 177.867 43.2193 178.219 42.6618C178.966 41.7181 179.442 40.6133 179.645 39.3477C179.722 39.1284 179.749 38.8895 179.725 38.6311C179.985 37.8134 179.906 37.0371 179.487 36.3022C179.5 36.2134 179.474 36.1537 179.408 36.1231C179.308 35.9272 179.229 35.7182 179.17 35.4961Z" fill="#3A1904"/>
<path fill-rule="evenodd" clip-rule="evenodd" d="M179.407 36.1235C179.474 36.1541 179.5 36.2138 179.487 36.3026C179.502 36.7492 179.33 36.8985 178.972 36.7505C178.821 36.2656 178.966 36.0566 179.407 36.1235Z" fill="#FECA65"/>
<path fill-rule="evenodd" clip-rule="evenodd" d="M171.406 36.6608C171.817 36.5719 171.962 36.751 171.842 37.1982C171.435 37.5684 171.052 37.9715 170.693 38.4075C171.248 39.0483 171.551 39.8097 171.604 40.6915C171.446 40.8109 171.287 40.8109 171.129 40.6915C170.939 40.0539 170.649 39.4865 170.257 38.9897C169.831 39.551 169.475 40.1632 169.188 40.8259C168.792 40.8854 168.647 40.6914 168.752 40.2437C169.425 38.8421 170.309 37.6479 171.406 36.6608Z" fill="#E29F7C"/>
<path fill-rule="evenodd" clip-rule="evenodd" d="M179.724 38.6333C179.749 38.8917 179.722 39.1306 179.645 39.3499C179.484 39.7898 179.299 40.2227 179.09 40.6486C178.795 40.7626 178.662 40.6432 178.694 40.2904C178.839 39.7398 178.984 39.1875 179.13 38.6333C179.166 38.1224 179.166 37.6148 179.13 37.1106C179.335 36.9778 179.52 37.0077 179.684 37.2001C179.724 37.6769 179.737 38.1546 179.724 38.6333Z" fill="#FECB67"/>
<path fill-rule="evenodd" clip-rule="evenodd" d="M123.236 42.3042C123.031 42.248 122.846 42.1434 122.682 41.9907C121.78 41.187 121.437 40.1569 121.652 38.9005C121.697 40.5367 122.357 40.9398 123.632 40.1097C124.372 39.5125 125.111 38.9154 125.851 38.3183C126.207 38.2437 126.353 38.4078 126.287 38.8109C125.374 39.4834 124.555 40.2896 123.831 41.2294C123.569 41.5551 123.371 41.9134 123.236 42.3042Z" fill="#E09E7B"/>
<path fill-rule="evenodd" clip-rule="evenodd" d="M185.273 38.7207C186.439 38.9219 187.126 39.6832 187.333 41.0048C187.225 41.9096 186.777 42.2082 185.986 41.9005C185.102 41.2628 184.719 40.3521 184.837 39.1686C184.974 38.9982 185.119 38.8489 185.273 38.7207Z" fill="#7A3F1B"/>
<path opacity="0.931" fill-rule="evenodd" clip-rule="evenodd" d="M113.887 39.3484C113.889 39.4377 113.85 39.4974 113.768 39.5275C113.092 39.8172 112.419 40.1157 111.748 40.4232C111.56 40.4765 111.375 40.5063 111.193 40.5128C111.193 40.4232 111.193 40.3337 111.193 40.2441C111.195 40.0591 111.221 39.88 111.273 39.7067C112.038 39.2143 112.857 38.9605 113.729 38.9453C113.814 39.0644 113.867 39.1988 113.887 39.3484Z" fill="#353352"/>
<path fill-rule="evenodd" clip-rule="evenodd" d="M178.538 35.1387C178.79 35.1788 179.002 35.2983 179.172 35.497C179.231 35.7191 179.31 35.9281 179.41 36.124C178.968 36.0571 178.823 36.2661 178.974 36.751C179.333 36.8989 179.505 36.7497 179.489 36.3031C179.908 37.038 179.987 37.8143 179.727 38.632C179.74 38.1533 179.727 37.6756 179.687 37.1988C179.523 37.0064 179.338 36.9765 179.132 37.1093C179.169 37.6135 179.169 38.1211 179.132 38.632C178.987 39.1862 178.842 39.7385 178.697 40.2891C178.665 40.6419 178.797 40.7613 179.093 40.6473C179.301 40.2214 179.486 39.7885 179.647 39.3485C179.444 40.6142 178.968 41.719 178.221 42.6627C177.839 42.7373 177.654 42.5582 177.667 42.1253C177.867 41.3122 178.091 40.5061 178.34 39.7068C178.711 38.1984 178.777 36.6757 178.538 35.1387Z" fill="#FAA505"/>
<path fill-rule="evenodd" clip-rule="evenodd" d="M117.054 40.689C117.005 41.1369 116.912 41.5848 116.777 42.0325C116.628 42.2586 116.43 42.3781 116.183 42.3908C115.587 41.6361 114.901 41.0091 114.123 40.5098C114.849 40.1067 115.615 39.8082 116.421 39.6141C116.613 39.6055 116.785 39.6651 116.936 39.7932C117.04 40.0788 117.08 40.3774 117.054 40.689Z" fill="#81B2CD"/>
<path opacity="0.989" fill-rule="evenodd" clip-rule="evenodd" d="M111.114 40.4219C111.114 40.4816 111.141 40.5114 111.194 40.5114C111.375 40.5049 111.56 40.4751 111.748 40.4219C111.728 41.3092 111.728 42.2049 111.748 43.109C111.398 43.1859 111.055 43.3053 110.718 43.4673C110.706 42.6237 110.772 41.7877 110.916 40.9593C110.919 40.7377 110.985 40.5586 111.114 40.4219Z" fill="#514381"/>
<path fill-rule="evenodd" clip-rule="evenodd" d="M114.125 40.5117C114.902 41.011 115.589 41.638 116.185 42.3927C115.839 42.5957 115.469 42.745 115.076 42.8406C114.742 42.6587 114.438 42.4198 114.164 42.124C113.93 41.7688 113.666 41.4403 113.372 41.1387C113.335 41.0423 113.348 40.9527 113.412 40.87C113.617 40.6826 113.855 40.5632 114.125 40.5117Z" fill="#BBD5E3"/>
<path fill-rule="evenodd" clip-rule="evenodd" d="M113.41 40.8711C113.347 40.9538 113.333 41.0433 113.371 41.1398C113.664 41.4414 113.928 41.7699 114.163 42.1251C114.437 42.4209 114.74 42.6598 115.074 42.8417C114.924 42.9153 114.766 42.9899 114.599 43.0656C114.162 43.0811 113.739 43.1259 113.331 43.2C113.103 43.2274 112.891 43.1975 112.697 43.1104C112.806 43.1245 112.912 43.1095 113.014 43.0656C112.764 42.5164 112.672 41.9342 112.737 41.319C112.946 41.1337 113.171 40.9844 113.41 40.8711Z" fill="#81B3CD"/>
<path fill-rule="evenodd" clip-rule="evenodd" d="M117.058 40.6934C117.168 41.2085 117.155 41.7161 117.018 42.2161C116.409 42.7473 115.735 43.1504 114.998 43.4253C115.231 43.674 115.443 43.9277 115.632 44.1867C115.594 44.3126 115.515 44.3723 115.394 44.3658C114.841 43.6949 114.154 43.3068 113.334 43.2014C113.742 43.1273 114.165 43.0825 114.602 43.067C114.769 42.9913 114.927 42.9167 115.077 42.8431C115.471 42.7475 115.84 42.5982 116.186 42.3952C116.433 42.3825 116.631 42.263 116.78 42.0369C116.916 41.5892 117.008 41.1413 117.058 40.6934Z" fill="#554B87"/>
<path opacity="0.998" fill-rule="evenodd" clip-rule="evenodd" d="M178.459 34.959C178.445 35.0478 178.471 35.1075 178.538 35.1381C178.776 36.6752 178.711 38.1979 178.34 39.7063C178.091 40.5055 177.867 41.3117 177.666 42.1247C177.654 42.5576 177.838 42.7368 178.221 42.6622C177.868 43.2197 177.393 43.5481 176.795 43.6475C176.53 43.6194 176.346 43.7388 176.24 44.0057C176.751 42.6417 177.239 41.2682 177.706 39.8854C177.824 39.3815 177.929 38.874 178.023 38.3627C178.147 37.2118 178.292 36.0772 178.459 34.959Z" fill="#BD6C04"/>
<path fill-rule="evenodd" clip-rule="evenodd" d="M154.926 42.3055C154.472 43.5945 153.707 44.5798 152.628 45.2614C152.337 45.4755 152.02 45.5502 151.677 45.4853C151.592 45.3307 151.579 45.1665 151.638 44.9927C152.99 44.4786 153.927 43.4784 154.45 41.992C154.717 41.8915 154.876 41.9961 154.926 42.3055Z" fill="#2D130A"/>
<path fill-rule="evenodd" clip-rule="evenodd" d="M154.927 42.3047C156.2 42.8246 156.583 43.7799 156.075 45.171C155.44 45.8497 154.687 46.0736 153.817 45.8428C153.395 45.6933 152.999 45.4992 152.629 45.2606C153.708 44.5789 154.473 43.5936 154.927 42.3047Z" fill="#651D0C"/>
<path fill-rule="evenodd" clip-rule="evenodd" d="M124.743 46.4269C124.538 46.3313 124.367 46.1819 124.228 45.9791C123.687 45.3238 123.383 44.5474 123.316 43.6502C123.629 44.1388 124.051 44.303 124.584 44.1428C125.277 43.8259 125.937 43.4378 126.565 42.9784C126.776 42.9187 126.987 42.9187 127.199 42.9784C127.359 43.1034 127.386 43.2527 127.278 43.4263C126.01 43.9787 125.165 44.9789 124.743 46.4269Z" fill="#E19E7B"/>
<path fill-rule="evenodd" clip-rule="evenodd" d="M120.542 53.3202C121.518 52.2647 121.993 50.9659 121.968 49.4238C121.945 48.8966 121.892 48.3741 121.809 47.8563C121.875 47.7445 121.981 47.6848 122.126 47.6771C122.363 47.6354 122.601 47.6056 122.839 47.5876C122.845 47.1937 122.806 46.8056 122.721 46.4231C122.238 44.9182 121.353 43.8283 120.066 43.1538C120.443 43.0812 120.813 43.1111 121.176 43.2433C122.707 44.3286 123.591 45.8961 123.83 47.9459C124.051 49.4113 123.84 50.7847 123.196 52.0662C122.324 52.5095 121.439 52.9275 120.542 53.3202Z" fill="#4D4182"/>
<path fill-rule="evenodd" clip-rule="evenodd" d="M187.571 43.2873C187.833 43.2402 188.004 43.3596 188.086 43.6456C188.454 45.3827 188.585 47.1443 188.482 48.9304C188.297 49.1693 188.112 49.1693 187.927 48.9304C187.907 47.734 187.854 46.5397 187.769 45.3475C187.725 44.7586 187.606 44.1914 187.412 43.6456C187.432 43.5047 187.485 43.3853 187.571 43.2873Z" fill="#793E1A"/>
<path fill-rule="evenodd" clip-rule="evenodd" d="M118.244 43.5566C118.265 43.8913 118.133 44.1003 117.848 44.1836C116.45 44.1534 115.499 44.87 114.996 46.3333C114.811 46.2736 114.626 46.2139 114.441 46.1542C114.659 45.49 114.976 44.8928 115.392 44.3627C115.513 44.3693 115.592 44.3095 115.63 44.1836C116.413 43.5068 117.285 43.2978 118.244 43.5566Z" fill="#F3F0F2"/>
<path fill-rule="evenodd" clip-rule="evenodd" d="M186.696 43.5594C186.852 43.538 186.997 43.5679 187.132 43.649C187.327 44.8932 187.379 46.1472 187.291 47.411C187.106 47.6499 186.921 47.6499 186.736 47.411C186.716 46.2752 186.677 45.1406 186.617 44.0073C186.624 43.8498 186.65 43.7006 186.696 43.5594Z" fill="#793E1A"/>
<path fill-rule="evenodd" clip-rule="evenodd" d="M118.245 43.5605C118.535 43.6551 118.826 43.7596 119.116 43.874C120.453 44.832 121.351 46.1607 121.81 47.86C121.893 48.3778 121.945 48.9003 121.968 49.4275C121.994 50.9696 121.518 52.2684 120.542 53.3239C119.448 54.0535 118.313 54.1431 117.135 53.5926C116.842 53.337 116.525 53.1281 116.185 52.9656C115.867 52.5173 115.55 52.0694 115.234 51.622C114.434 50.2353 114.117 48.7125 114.283 47.0538C114.283 46.9345 114.283 46.815 114.283 46.6956C114.359 46.5342 114.412 46.355 114.442 46.1581C114.626 46.2179 114.811 46.2775 114.996 46.3373C114.769 47.3725 114.796 48.3877 115.075 49.3827C115.295 50.5363 115.796 51.4918 116.581 52.249C117.634 53.3486 118.795 53.5129 120.067 52.7417C120.323 52.5862 120.508 52.3622 120.621 52.0699C121.006 51.5269 121.231 50.8999 121.295 50.1889C121.437 47.9278 120.71 46.1214 119.116 44.7698C118.893 44.6138 118.656 44.5093 118.403 44.4563C118.222 44.3532 118.038 44.2636 117.848 44.1875C118.133 44.1042 118.265 43.8953 118.245 43.5605Z" fill="#D7D3D4"/>
<path fill-rule="evenodd" clip-rule="evenodd" d="M117.847 44.1865C118.036 44.2625 118.221 44.3521 118.401 44.4552C118.322 44.4552 118.243 44.4552 118.163 44.4552C118.146 44.5604 118.172 44.65 118.243 44.7239C119.258 45.2602 119.958 46.1261 120.342 47.3215C120.48 47.7285 120.585 48.1464 120.659 48.5755C120.715 49.5359 120.676 50.4913 120.54 51.4418C120.54 51.668 120.567 51.877 120.619 52.0688C120.506 52.3611 120.322 52.5851 120.065 52.7406C118.794 53.5118 117.632 53.3475 116.579 52.2479C116.718 52.2817 116.85 52.3414 116.975 52.4271C117.039 52.3995 117.092 52.3547 117.133 52.2927C117.028 52.2031 117.028 52.1136 117.133 52.024C115.87 50.5383 115.342 48.7618 115.549 46.6945C115.35 46.7123 115.178 46.7421 115.034 46.784C114.884 47.6524 114.898 48.5183 115.074 49.3816C114.794 48.3866 114.767 47.3714 114.994 46.3362C115.498 44.8729 116.448 44.1563 117.847 44.1865Z" fill="#5D67B1"/>
<path fill-rule="evenodd" clip-rule="evenodd" d="M180.28 44.7234C180.675 44.7081 180.821 44.9171 180.716 45.3504C180.214 46.6312 179.713 47.9151 179.21 49.202C178.914 49.3789 178.742 49.2894 178.695 48.9333C178.71 48.7473 178.75 48.5681 178.814 48.3959C179.326 47.1834 179.814 45.9594 180.28 44.7234Z" fill="#3B1905"/>
<path fill-rule="evenodd" clip-rule="evenodd" d="M117.295 45.2598C118.283 45.3336 119.009 45.871 119.474 46.8721C120.319 48.4485 120.345 50.031 119.553 51.6194C118.949 52.2009 118.328 52.2157 117.691 51.6642C116.493 50.3172 116.004 48.6899 116.225 46.7825C116.398 46.0874 116.754 45.5799 117.295 45.2598Z" fill="#433295"/>
<path fill-rule="evenodd" clip-rule="evenodd" d="M180.755 45.8874C181.166 45.7984 181.311 45.9776 181.191 46.4248C180.944 47.1628 180.653 47.8794 180.319 48.5745C179.897 48.7835 179.739 48.6343 179.844 48.1267C180.157 47.3742 180.461 46.6277 180.755 45.8874Z" fill="#3A1905"/>
<path fill-rule="evenodd" clip-rule="evenodd" d="M117.057 46.0666C117.259 46.0311 117.43 46.0908 117.572 46.2457C117.732 47.3544 117.705 48.4591 117.493 49.5599C117.096 49.8626 116.831 49.7432 116.701 49.2016C116.548 48.3642 116.548 47.5283 116.701 46.6936C116.837 46.495 116.956 46.286 117.057 46.0666Z" fill="#8182C2"/>
<path opacity="0.99" fill-rule="evenodd" clip-rule="evenodd" d="M174.18 35.8555C174.245 36.0247 174.312 36.2038 174.378 36.3929C174.556 38.4875 174.08 40.3685 172.952 42.0359C171.872 43.6543 170.433 44.5052 168.634 44.5887C167.548 45.3391 166.742 46.3691 166.218 47.679C165.594 49.272 165.646 50.8245 166.376 52.3367C166.618 52.5704 166.895 52.7196 167.208 52.7845C167.213 53.7612 167.292 54.7166 167.446 55.6508C166.996 55.8389 166.52 55.9285 166.02 55.9196C166.098 54.7863 166.112 53.6517 166.059 52.5158C165.927 52.2769 165.795 52.0381 165.663 51.7993C165.04 48.4176 166.03 45.8349 168.634 44.0513C170.212 43.824 171.545 43.0626 172.635 41.7672C173.769 40.0076 174.284 38.037 174.18 35.8555Z" fill="#DE9A78"/>
<path fill-rule="evenodd" clip-rule="evenodd" d="M114.284 46.6934C114.284 46.8128 114.284 46.9322 114.284 47.0516C114.205 47.512 114.179 47.9898 114.205 48.4848C114.07 48.4705 113.938 48.4853 113.808 48.5296C113.504 48.7163 113.214 48.9252 112.937 49.1566C112.308 49.9974 111.727 50.8782 111.194 51.799C111.103 51.9092 111.01 51.9092 110.917 51.799C110.864 51.5004 110.864 51.2018 110.917 50.9032C111.636 49.0331 112.758 47.6297 114.284 46.6934Z" fill="#E29F7B"/>
<path fill-rule="evenodd" clip-rule="evenodd" d="M126.248 50.1867C125.408 49.8644 124.906 49.2076 124.742 48.2161C124.829 48.3597 124.935 48.4941 125.059 48.6192C125.402 48.6789 125.746 48.6789 126.089 48.6192C126.902 48.3256 127.615 47.8479 128.228 47.1861C128.679 47.0263 128.864 47.1905 128.783 47.6787C127.804 48.35 126.958 49.1861 126.248 50.1867Z" fill="#E19E7B"/>
<path opacity="0.993" fill-rule="evenodd" clip-rule="evenodd" d="M145.817 48.3937C145.712 48.4236 145.712 48.4535 145.817 48.4833C145.817 48.5131 145.817 48.5431 145.817 48.5729C146.36 50.1597 146.849 51.7719 147.283 53.4098C147.751 55.7384 148.213 58.0672 148.67 60.3964C148.58 60.5872 148.567 60.7959 148.63 61.0234C148.987 62.6375 149.317 64.2498 149.62 65.8603C149.727 66.7578 149.912 67.6239 150.175 68.4578C150.21 69.1305 150.315 69.7871 150.492 70.4284C150.492 70.4884 150.492 70.5475 150.492 70.6076C150.433 70.5959 150.38 70.6111 150.333 70.6523C146.643 74.8551 142.933 79.0201 139.202 83.1476C139.124 82.8816 139.057 82.6129 139.004 82.3415C141.973 78.6699 144.997 75.027 148.075 71.4137C147.833 66.5965 147.463 61.7901 146.966 56.9926C146.561 53.8173 145.993 50.6823 145.263 47.5876C145.316 47.4682 145.368 47.4682 145.421 47.5876C145.493 47.8992 145.625 48.1679 145.817 48.3937Z" fill="#E29E7B"/>
<path fill-rule="evenodd" clip-rule="evenodd" d="M118.403 44.4531C118.656 44.5062 118.893 44.6107 119.116 44.7666C120.711 46.1183 121.437 47.9247 121.295 50.1857C121.231 50.8967 121.006 51.5237 120.621 52.0667C120.569 51.875 120.542 51.6659 120.542 51.4397C120.677 50.4893 120.717 49.5338 120.661 48.5734C120.587 48.1444 120.482 47.7264 120.344 47.3194C119.96 46.124 119.26 45.2581 118.245 44.7218C118.174 44.6479 118.148 44.5584 118.165 44.4531C118.245 44.4531 118.324 44.4531 118.403 44.4531Z" fill="#515AA5"/>
<path fill-rule="evenodd" clip-rule="evenodd" d="M187.966 49.5603C188.232 49.5042 188.39 49.6236 188.441 49.9186C188.38 50.6028 188.34 51.2895 188.322 51.9788C188.197 52.2523 188.012 52.312 187.768 52.1579C187.776 51.3532 187.802 50.5471 187.847 49.7395C187.904 49.6908 187.943 49.631 187.966 49.5603Z" fill="#7A3F1B"/>
<path fill-rule="evenodd" clip-rule="evenodd" d="M116.58 52.2468C115.795 51.4896 115.293 50.5341 115.074 49.3805C114.898 48.5172 114.885 47.6513 115.035 46.7829C115.179 46.741 115.351 46.7112 115.55 46.6934C115.343 48.7607 115.871 50.5372 117.134 52.0229C117.029 52.1125 117.029 52.202 117.134 52.2916C117.093 52.3536 117.04 52.3984 116.976 52.426C116.851 52.3403 116.719 52.2806 116.58 52.2468Z" fill="#5059A5"/>
<path opacity="0.974" fill-rule="evenodd" clip-rule="evenodd" d="M147.48 50.4551C148.134 50.8246 148.794 51.1977 149.461 51.5747C150.027 51.8378 150.608 52.0468 151.204 52.2017C153.25 52.4798 155.296 52.4946 157.344 52.2465C157.516 52.2615 157.687 52.2763 157.859 52.2913C158.652 52.4109 158.929 52.9035 158.691 53.7692C158.126 54.9582 157.426 56.0331 156.592 56.9938C155.928 57.0782 155.269 57.1678 154.611 57.2625C154.558 56.964 154.506 56.6654 154.452 56.3668C154.452 56.3071 154.426 56.2772 154.373 56.2772C154.384 55.2604 154.357 54.2453 154.294 53.2318C151.691 53.296 149.419 52.3704 147.48 50.4551Z" fill="#E29E7A"/>
<path opacity="0.983" fill-rule="evenodd" clip-rule="evenodd" d="M126.246 51.3516C126.506 51.6479 126.796 51.9017 127.118 52.1129C128.211 52.3984 129.307 52.3835 130.406 52.0681C130.682 52.1422 130.932 52.2766 131.158 52.4712C131.435 52.7847 131.713 53.0982 131.99 53.4117C132.824 54.9435 133.287 56.6155 133.377 58.4277C133.373 58.6472 133.32 58.8263 133.218 58.9652C132.686 57.6194 132.027 56.3653 131.237 55.2032C131.025 54.7088 130.708 54.3057 130.287 53.9939C129.953 53.7902 129.609 53.6111 129.257 53.4565C128.216 53.6112 127.319 53.2977 126.563 52.516C126.395 52.1539 126.289 51.7657 126.246 51.3516Z" fill="#E19E7A"/>
<path fill-rule="evenodd" clip-rule="evenodd" d="M115.234 51.6191C115.551 52.0666 115.867 52.5144 116.185 52.9627C115.731 53.7225 115.414 54.5584 115.234 55.4707C115.245 55.6078 115.298 55.6973 115.393 55.7394C115.181 55.8837 115.023 56.0926 114.917 56.3664C114.838 56.4858 114.759 56.4858 114.68 56.3664C114.362 54.699 114.547 53.1165 115.234 51.6191Z" fill="#E19E7B"/>
<path fill-rule="evenodd" clip-rule="evenodd" d="M116.185 52.9629C116.525 53.1254 116.842 53.3343 117.136 53.5899C117 54.0228 116.894 54.4707 116.819 54.9335C116.311 55.1344 115.836 55.4031 115.393 55.7396C115.298 55.6975 115.245 55.6079 115.234 55.4709C115.415 54.5586 115.732 53.7226 116.185 52.9629Z" fill="#514381"/>
<path opacity="0.991" fill-rule="evenodd" clip-rule="evenodd" d="M126.564 52.5156C127.32 53.2973 128.218 53.6108 129.258 53.4561C129.611 53.6107 129.955 53.7899 130.288 53.9936C130.71 54.3054 131.026 54.7084 131.239 55.2028C131.161 55.1454 131.082 55.0857 131.001 55.0236C128.482 56.328 125.947 57.582 123.395 58.7857C123.261 58.7713 123.129 58.7866 122.999 58.8304C122.525 59.0427 122.076 59.2971 121.652 59.5918C121.366 59.6644 121.102 59.7844 120.86 59.9501C120.482 60.1185 120.113 60.3129 119.751 60.5323C119.388 60.6425 119.018 60.6873 118.642 60.6667C118.628 60.277 118.642 59.8892 118.681 59.5022C118.919 58.4711 119.091 57.4261 119.196 56.3672C119.191 56.0624 119.152 55.7639 119.077 55.4715C118.992 55.2405 118.847 55.0912 118.642 55.0236C118.642 54.9938 118.642 54.9639 118.642 54.9341C118.783 54.8336 118.942 54.8186 119.117 54.8893C119.735 55.4082 120 56.1098 119.909 56.9942C119.814 57.7118 119.708 58.4284 119.592 59.1439C122.473 57.4561 125.378 55.8139 128.307 54.2175C127.479 53.9677 126.898 53.4003 126.564 52.5156Z" fill="#4E4183"/>
<path fill-rule="evenodd" clip-rule="evenodd" d="M178.695 53.1424C178.961 53.0862 179.119 53.2056 179.17 53.5007C178.882 54.2234 178.618 54.9549 178.378 55.6952C178.112 55.7875 177.953 55.683 177.902 55.3817C178.058 54.5824 178.322 53.8359 178.695 53.1424Z" fill="#3B1905"/>
<path fill-rule="evenodd" clip-rule="evenodd" d="M176.158 53.5033C176.567 53.4707 176.712 53.6798 176.594 54.1303C175.812 55.9178 175.27 57.7838 174.97 59.7285C174.588 59.7895 174.43 59.5951 174.495 59.1463C174.532 58.5372 174.625 57.9405 174.772 57.3549C175.212 56.0526 175.675 54.7688 176.158 53.5033Z" fill="#3B1905"/>
<path fill-rule="evenodd" clip-rule="evenodd" d="M118.64 55.0234C118.845 55.091 118.99 55.2403 119.076 55.4713C119.15 55.7637 119.19 56.0622 119.195 56.367C119.089 57.4259 118.917 58.4709 118.68 59.502C118.64 59.889 118.627 60.2768 118.64 60.6665C119.016 60.6871 119.386 60.6423 119.749 60.5321C120.111 60.3127 120.481 60.1183 120.858 59.9499C120.567 60.4461 120.197 60.9388 119.749 61.4278C119.199 61.7055 118.644 61.7055 118.085 61.4278C117.498 60.928 117.326 60.2858 117.57 59.502C117.936 58.3461 118.28 57.1817 118.6 56.0087C118.64 55.6816 118.653 55.3532 118.64 55.0234Z" fill="#DF9C7B"/>
<path opacity="0.997" fill-rule="evenodd" clip-rule="evenodd" d="M167.445 55.652C167.711 55.6372 167.975 55.6522 168.238 55.6968C169.013 57.2259 169.739 58.7933 170.416 60.3993C170.682 60.9699 170.88 61.5673 171.011 62.1907C166.232 64.2572 161.439 66.2869 156.631 68.2816C156.473 68.2234 156.368 68.1034 156.314 67.9233C155.788 64.4721 155.194 61.0388 154.531 57.6226C154.559 57.5017 154.585 57.3823 154.61 57.2643C155.268 57.1695 155.928 57.0799 156.591 56.9956C159.736 56.652 162.879 56.2937 166.019 55.9207C166.52 55.9297 166.995 55.8401 167.445 55.652Z" fill="#F0F0F0"/>
<path fill-rule="evenodd" clip-rule="evenodd" d="M188.201 55.7418C188.383 55.7189 188.555 55.7487 188.716 55.8314C188.809 56.3844 188.993 56.892 189.271 57.3541C189.39 57.817 189.245 57.9811 188.835 57.8468C188.769 57.7722 188.703 57.6975 188.637 57.6229C188.349 57.0204 188.203 56.3934 188.201 55.7418Z" fill="#793E1B"/>
<path opacity="0.947" fill-rule="evenodd" clip-rule="evenodd" d="M154.375 56.2773C154.428 56.2773 154.454 56.3072 154.454 56.3669C154.454 56.6655 154.454 56.9641 154.454 57.2626C153.873 57.3329 153.293 57.4076 152.711 57.4866C152.647 57.5142 152.595 57.5589 152.553 57.6209C152.216 59.5709 151.832 61.5119 151.404 63.4431C151.108 64.1409 150.791 64.8279 150.453 65.5032C150.852 63.4261 151.208 61.3364 151.523 59.2332C151.681 58.4274 151.84 57.6213 151.998 56.8148C152.71 56.7031 153.423 56.5985 154.137 56.5013C154.266 56.4801 154.345 56.4055 154.375 56.2773Z" fill="#EFEEEE"/>
<path opacity="0.965" fill-rule="evenodd" clip-rule="evenodd" d="M190.579 59.0537C190.612 59.6816 190.374 60.1142 189.866 60.3524C188.78 60.8791 187.79 60.7152 186.895 59.8598C186.728 60.7304 186.755 61.5966 186.974 62.4574C187.301 63.4355 187.71 64.3608 188.202 65.2341C188.143 65.2458 188.09 65.2305 188.043 65.1893C186.675 63.6926 185.816 61.8859 185.468 59.7702C185.395 58.8082 185.421 57.8528 185.548 56.9039C185.783 56.6808 186.034 56.6659 186.3 56.8591C186.425 57.1342 186.544 57.4179 186.657 57.7101C187.596 59.5821 188.903 60.03 190.579 59.0537Z" fill="#3A1904"/>
<path fill-rule="evenodd" clip-rule="evenodd" d="M184.558 56.7238C184.734 56.695 184.879 56.7547 184.993 56.903C184.721 59.1656 185.038 61.3153 185.944 63.3522C186.063 63.8152 185.918 63.9792 185.508 63.8448C184.438 61.6772 184.082 59.3626 184.439 56.903C184.496 56.8543 184.535 56.7945 184.558 56.7238Z" fill="#7A3E1B"/>
<path fill-rule="evenodd" clip-rule="evenodd" d="M154.454 56.3652C154.507 56.6638 154.559 56.9624 154.612 57.261C154.587 57.3789 154.561 57.4984 154.533 57.6192C155.196 61.0355 155.79 64.4688 156.316 67.92C156.37 68.1 156.475 68.2201 156.633 68.2783C161.441 66.2835 166.234 64.2538 171.013 62.1874C171.05 62.3137 171.129 62.3728 171.25 62.3665C170.938 62.6335 170.594 62.8574 170.22 63.0383C165.554 65.0716 160.893 67.1174 156.237 69.174C156.101 69.1794 155.996 69.1194 155.92 68.9949C155.761 68.4583 155.603 67.9209 155.444 67.3826C154.996 64.9068 154.56 62.4284 154.137 59.9481C153.173 61.8891 152.209 63.8293 151.245 65.7703C150.835 66.6418 150.478 67.5375 150.176 68.4574C149.913 67.6235 149.728 66.7574 149.621 65.8598C150.136 63.6653 150.585 61.4556 150.968 59.2315C151.153 59.2315 151.338 59.2315 151.523 59.2315C151.208 61.3347 150.851 63.4244 150.453 65.5016C150.791 64.8262 151.108 64.1392 151.404 63.4414C151.832 61.5102 152.216 59.5692 152.553 57.6192C152.595 57.5573 152.647 57.5125 152.711 57.4849C153.292 57.4059 153.873 57.3313 154.454 57.261C154.454 56.9624 154.454 56.6638 154.454 56.3652Z" fill="#B6B6B6"/>
<path opacity="0.988" fill-rule="evenodd" clip-rule="evenodd" d="M190.421 68.0104C190.668 68.9151 190.483 69.6765 189.866 70.2945C188.202 71.4805 186.406 71.8092 184.479 71.2798C182.301 70.8042 180.493 69.6245 179.052 67.7417C178.542 66.975 178.053 66.1993 177.586 65.4129C177.217 64.4437 176.912 63.4279 176.675 62.3674C176.278 61.4368 176.145 60.4515 176.279 59.4115C176.477 58.532 176.965 58.1587 177.744 58.2919C178.164 58.5696 178.442 58.9726 178.576 59.5011C179.353 64.3801 181.823 67.5904 185.984 69.1301C187.067 69.1901 188.149 69.1901 189.232 69.1301C189.666 68.7969 190.063 68.4234 190.421 68.0104Z" fill="#3A1804"/>
<path opacity="0.98" fill-rule="evenodd" clip-rule="evenodd" d="M123.394 58.7845C123.281 58.8499 123.202 58.9547 123.157 59.098C124.353 63.0374 125.581 66.9642 126.841 70.8767C126.894 70.9439 126.96 70.9744 127.039 70.9663C126.835 71.338 126.61 71.6963 126.365 72.0412C123.373 75.6043 120.191 78.9033 116.818 81.9388C115.956 82.6796 115.058 83.3514 114.125 83.9542C114.005 83.9533 113.912 83.8933 113.847 83.7751C113.773 83.5753 113.68 83.3962 113.57 83.2376C113.512 83.1293 113.486 83.0101 113.491 82.8794C115.605 81.4453 117.638 79.8778 119.591 78.1768C121.286 76.7544 122.87 75.1869 124.345 73.4743C124.371 73.3552 124.398 73.2352 124.424 73.116C123.67 68.5514 122.746 64.0433 121.651 59.5907C122.075 59.296 122.524 59.0416 122.998 58.8293C123.128 58.7854 123.26 58.7702 123.394 58.7845Z" fill="#E29E7A"/>
<path opacity="0.971" fill-rule="evenodd" clip-rule="evenodd" d="M150.964 59.2344C150.582 61.4584 150.132 63.6682 149.617 65.8627C149.314 64.2522 148.984 62.6399 148.627 61.0258C148.564 60.7983 148.577 60.5896 148.667 60.3988C148.656 60.4651 148.67 60.5251 148.706 60.578C149.31 59.8112 150.063 59.3634 150.964 59.2344Z" fill="#F0EFEF"/>
<path opacity="0.998" fill-rule="evenodd" clip-rule="evenodd" d="M171.248 62.3677C173.529 63.7856 174.995 65.9353 175.645 68.8168C176.108 70.7838 176.28 72.7849 176.16 74.8181C175.893 75.7219 175.537 76.5872 175.091 77.4157C174.444 78.0875 173.797 78.7593 173.15 79.4311C164.642 87.1083 156.112 94.7524 147.559 102.361C147.285 102.455 147.06 102.379 146.886 102.138C143.656 96.5949 140.407 91.0719 137.141 85.5668C137.027 85.6949 137.001 85.8444 137.062 86.0146C138.111 88.0604 139.141 90.1206 140.152 92.1951C140.182 93.6945 140.102 95.1868 139.914 96.6737C139.5 99.5364 139.104 102.403 138.725 105.273C138.663 106.544 138.676 107.813 138.765 109.079C138.739 109.154 138.712 109.229 138.686 109.303C137.442 108.613 136.307 107.747 135.279 106.706C134.625 105.703 134.096 104.629 133.694 103.481C133.383 101.063 133.383 98.6443 133.694 96.2258C134.489 90.469 136.034 84.9756 138.329 79.7446C138.359 79.7948 138.399 79.8243 138.448 79.8342C138.614 80.6851 138.799 81.5217 139.003 82.3422C139.056 82.6136 139.122 82.8823 139.201 83.1483C142.932 79.0209 146.642 74.8558 150.332 70.6531C150.379 70.6119 150.432 70.5966 150.491 70.6083C150.924 72.7177 151.32 74.8379 151.679 76.9679C151.762 76.9813 151.842 76.9661 151.917 76.9231C155.717 73.0169 159.889 69.7027 164.435 66.9806C165.609 66.3491 166.823 65.8413 168.079 65.4579C165.919 65.8341 163.886 66.6402 161.979 67.8763C158.484 70.1497 155.183 72.732 152.075 75.6243C151.643 74.0299 151.261 72.4176 150.926 70.7874C150.858 70.5447 150.712 70.4246 150.491 70.4291C150.314 69.7878 150.209 69.1312 150.174 68.4585C150.476 67.5386 150.833 66.6429 151.243 65.7714C152.208 63.8304 153.171 61.8902 154.135 59.9492C154.558 62.4295 154.994 64.9079 155.442 67.3837C155.601 67.922 155.759 68.4594 155.918 68.996C155.994 69.1205 156.099 69.1805 156.235 69.1751C160.891 67.1186 165.552 65.0727 170.218 63.0394C170.592 62.8585 170.936 62.6346 171.248 62.3677Z" fill="#F0F0F0"/>
<path fill-rule="evenodd" clip-rule="evenodd" d="M175.684 62.3664C175.86 62.3377 176.006 62.3968 176.12 62.5455C176.236 62.9701 176.368 63.3884 176.516 63.7995C176.591 64.3217 176.406 64.4713 175.961 64.2474C175.78 63.7548 175.634 63.2469 175.525 62.7247C175.545 62.584 175.598 62.464 175.684 62.3664Z" fill="#793E1A"/>
<path fill-rule="evenodd" clip-rule="evenodd" d="M186.46 64.6966C186.595 64.6823 186.727 64.6975 186.856 64.7414C187.368 65.6479 188.015 66.4092 188.797 67.0255C188.897 67.5253 188.725 67.6892 188.282 67.5181C187.58 66.8732 186.959 66.1414 186.42 65.3236C186.365 65.106 186.378 64.8973 186.46 64.6966Z" fill="#793E1B"/>
<path fill-rule="evenodd" clip-rule="evenodd" d="M150.49 70.6094C150.49 70.5494 150.49 70.4902 150.49 70.4302C150.711 70.4257 150.857 70.5458 150.926 70.7885C151.26 72.4187 151.643 74.031 152.075 75.6254C155.183 72.7331 158.483 70.1508 161.978 67.8774C163.885 66.6413 165.919 65.8352 168.079 65.459C166.823 65.8424 165.608 66.3502 164.434 66.9817C159.889 69.7038 155.716 73.018 151.916 76.9242C151.841 76.9672 151.762 76.9824 151.679 76.969C151.32 74.8389 150.924 72.7188 150.49 70.6094Z" fill="#B7B7B7"/>
<path fill-rule="evenodd" clip-rule="evenodd" d="M186.065 66.132C186.207 66.1061 186.338 66.1365 186.461 66.2216C186.938 66.9552 187.506 67.5822 188.164 68.1026C188.23 68.5057 188.085 68.6696 187.728 68.5953C186.998 68.0238 186.391 67.3216 185.906 66.4903C185.926 66.3497 185.979 66.2297 186.065 66.132Z" fill="#793E1A"/>
<path opacity="0.993" fill-rule="evenodd" clip-rule="evenodd" d="M136.148 71.5037C136.258 71.5691 136.377 71.6291 136.505 71.6828C136.889 73.0336 137.22 74.4067 137.495 75.8031C136.046 77.7047 134.633 79.6449 133.257 81.6253C130.515 85.6802 127.834 89.7853 125.215 93.9414C125.037 93.9235 124.892 93.8196 124.779 93.6279C123.602 92.0855 122.453 90.518 121.333 88.9254C121.935 88.3154 122.569 87.7484 123.234 87.2235C124.379 85.9292 125.528 84.6304 126.681 83.3272C127.982 81.533 129.158 79.6368 130.206 77.6394C130.18 77.6241 130.153 77.6098 130.127 77.5946C129.24 78.733 128.408 79.927 127.631 81.1774C125.18 84.6107 122.315 87.4923 119.035 89.8211C118.022 90.5135 116.939 91.0062 115.787 91.2991C114.364 89.4575 112.978 87.5765 111.628 85.656C111.551 85.2691 111.604 84.9108 111.786 84.5812C112.235 83.9542 112.684 83.3272 113.133 82.7002C113.17 82.6034 113.157 82.5139 113.093 82.4315C113.172 82.4234 113.238 82.4538 113.291 82.521C113.339 82.6617 113.406 82.7808 113.489 82.8793C113.484 83.0101 113.51 83.1292 113.569 83.2376C113.581 83.3603 113.568 83.4803 113.529 83.5959C113.241 83.8906 112.99 84.2193 112.776 84.5812C112.845 84.6779 112.924 84.6931 113.014 84.626C113.401 84.4226 113.771 84.1987 114.123 83.9542C115.057 83.3514 115.955 82.6796 116.817 81.9388C120.189 78.9032 123.372 75.6043 126.364 72.0411C126.609 71.6963 126.833 71.338 127.037 70.9663C127.2 70.9251 127.358 70.865 127.513 70.7871C127.559 70.8059 127.599 70.8355 127.631 70.8767C128.43 72.7711 129.248 74.6521 130.088 76.5197C132.098 74.8286 134.119 73.1563 136.148 71.5037Z" fill="#F0F0F0"/>
<path opacity="0.988" fill-rule="evenodd" clip-rule="evenodd" d="M176.159 74.8184C176.138 75.4794 176.085 76.136 176.001 76.7889C175.726 77.4097 175.409 78.0071 175.05 78.5804C173.718 79.9222 172.398 81.281 171.089 82.6559C168.064 85.4183 165.132 88.315 162.294 91.3444C157.512 96.0057 152.705 100.634 147.875 105.228C147.584 105.288 147.294 105.288 147.004 105.228C144.94 101.414 142.867 97.6072 140.784 93.8076C140.71 94.9461 140.604 96.0809 140.467 97.2113C140.02 100.069 139.624 102.935 139.279 105.81C139.225 106.917 139.251 108.022 139.358 109.124C139.365 109.349 139.432 109.543 139.556 109.707C145.618 112.295 151.851 113.012 158.254 111.856C159.246 111.656 160.223 111.387 161.185 111.05C164.086 108.627 166.238 105.537 167.642 101.779C167.832 101.143 168.043 100.516 168.276 99.8985C169.266 96.2905 170.243 92.6772 171.208 89.0603C172.061 86.8317 173.038 84.682 174.139 82.6111C174.405 82.1767 174.683 81.7584 174.971 81.3571C174.294 83.454 173.595 85.5446 172.871 87.6271C171.413 93.5353 170.066 99.4766 168.831 105.452C168.393 107.419 167.68 109.24 166.692 110.916C165.606 112.388 164.246 113.404 162.611 113.961C161.697 114.207 160.773 114.386 159.838 114.499C153.788 114.573 147.793 113.961 141.854 112.662C140.441 112.279 139.068 111.772 137.734 111.14C137.346 110.876 136.977 110.592 136.625 110.289C135.771 109.527 135.123 108.571 134.684 107.423C134.185 106.162 133.854 104.849 133.693 103.481C134.095 104.629 134.623 105.704 135.278 106.706C136.305 107.747 137.441 108.613 138.685 109.304C138.711 109.229 138.738 109.154 138.764 109.08C138.675 107.813 138.662 106.544 138.724 105.273C139.103 102.403 139.499 99.5366 139.913 96.6739C140.101 95.187 140.181 93.6947 140.15 92.1953C139.14 90.1208 138.11 88.0607 137.061 86.0148C137 85.8447 137.026 85.6951 137.14 85.567C140.406 91.0721 143.655 96.5951 146.885 102.138C147.059 102.38 147.284 102.455 147.558 102.362C156.111 94.7526 164.641 87.1085 173.149 79.4313C173.796 78.7595 174.442 78.0877 175.09 77.4159C175.536 76.5874 175.892 75.7221 176.159 74.8184Z" fill="#B4B4B4"/>
<path opacity="0.991" fill-rule="evenodd" clip-rule="evenodd" d="M137.495 75.8047C137.8 77.1536 138.117 78.4972 138.446 79.8354C138.397 79.8256 138.357 79.796 138.327 79.7459C136.032 84.9768 134.487 90.4703 133.693 96.2271C133.705 96.0452 133.693 95.8661 133.653 95.6896C130.142 97.2043 126.616 98.6822 123.076 100.123C122.786 100.183 122.495 100.183 122.205 100.123C120.019 97.2195 117.88 94.2789 115.787 91.3006C116.939 91.0077 118.022 90.5151 119.035 89.8227C122.315 87.4938 125.181 84.6123 127.632 81.179C128.408 79.9286 129.24 78.7346 130.127 77.5961C130.153 77.6114 130.18 77.6257 130.207 77.6409C129.158 79.6384 127.983 81.5346 126.681 83.3287C125.528 84.632 124.379 85.9308 123.234 87.2251C122.569 87.75 121.936 88.317 121.333 88.927C122.454 90.5196 123.602 92.0871 124.779 93.6295C124.892 93.8212 125.037 93.9251 125.215 93.943C127.834 89.7869 130.516 85.6818 133.257 81.6269C134.633 79.6464 136.046 77.7063 137.495 75.8047Z" fill="#B4B4B4"/>
<path fill-rule="evenodd" clip-rule="evenodd" d="M176.001 76.791C175.847 78.3791 175.504 79.9018 174.971 81.3592C174.683 81.7605 174.405 82.1788 174.139 82.6132C173.038 84.6841 172.061 86.8338 171.208 89.0624C170.243 92.6793 169.266 96.2926 168.276 99.9006C168.043 100.518 167.832 101.145 167.643 101.782C166.239 105.539 164.086 108.629 161.186 111.052C160.224 111.389 159.246 111.658 158.254 111.858C151.851 113.014 145.618 112.297 139.556 109.709C139.432 109.545 139.365 109.351 139.358 109.126C139.251 108.024 139.225 106.919 139.279 105.812C139.624 102.937 140.02 100.071 140.468 97.2134C140.605 96.083 140.71 94.9481 140.784 93.8097C142.867 97.6093 144.941 101.416 147.004 105.23C147.295 105.29 147.585 105.29 147.875 105.23C152.705 100.636 157.512 96.0078 162.295 91.3464C165.133 88.3171 168.064 85.4204 171.089 82.658C172.398 81.283 173.718 79.9242 175.05 78.5825C175.409 78.0092 175.726 77.4117 176.001 76.791Z" fill="#F0F0F0"/>
<path fill-rule="evenodd" clip-rule="evenodd" d="M152.313 77.3261C152.371 77.3144 152.424 77.3296 152.471 77.3708C150.288 81.1418 148.308 85.0534 146.529 89.1048C147.13 90.5997 147.883 91.9881 148.787 93.2699C149.053 93.5851 149.33 93.8834 149.619 94.1656C155.046 90.3068 160.487 86.4696 165.94 82.6556C168.676 80.9009 171.422 79.199 174.18 77.55C166.467 84.5679 158.729 91.5546 150.966 98.5098C149.785 99.5766 148.584 100.607 147.361 101.6C145.635 98.7857 143.957 95.9346 142.33 93.0459C145.353 88.1947 148.377 83.3435 151.402 78.4905C151.692 78.0874 151.996 77.6996 152.313 77.3261Z" fill="#B4B4B4"/>
<path fill-rule="evenodd" clip-rule="evenodd" d="M142.092 80.8196C142.172 80.8116 142.237 80.842 142.291 80.9092C142.967 83.118 144.037 85.0286 145.499 86.6418C144.342 88.5479 143.153 90.4289 141.934 92.2848C140.565 90.1011 139.244 87.8761 137.973 85.6117C139.332 84.0003 140.705 82.4024 142.092 80.8196Z" fill="#B4B4B4"/>
<path fill-rule="evenodd" clip-rule="evenodd" d="M116.818 82.791C116.938 82.7919 117.031 82.8519 117.095 82.9702C118.203 84.595 119.325 86.2073 120.463 87.807C119.199 88.9545 117.8 89.8502 116.264 90.4942C114.994 88.9088 113.779 87.2669 112.619 85.5677C114.159 84.8924 115.559 83.9662 116.818 82.791Z" fill="#B4B4B4"/>
<path fill-rule="evenodd" clip-rule="evenodd" d="M113.57 83.2383C113.68 83.3968 113.772 83.576 113.847 83.7757C113.912 83.8939 114.004 83.954 114.124 83.9549C113.772 84.1994 113.402 84.4233 113.015 84.6266C112.925 84.6938 112.846 84.6786 112.777 84.5819C112.991 84.22 113.242 83.8913 113.53 83.5966C113.569 83.481 113.582 83.361 113.57 83.2383Z" fill="#BCB8B7"/>
<path fill-rule="evenodd" clip-rule="evenodd" d="M141.536 84.4023C142.859 84.4498 143.347 85.196 143.002 86.6416C142.581 87.4352 141.987 87.6592 141.219 87.3134C140.512 86.8056 140.314 86.1042 140.625 85.2085C140.879 84.843 141.184 84.5743 141.536 84.4023Z" fill="#9F9F9F"/>
<path fill-rule="evenodd" clip-rule="evenodd" d="M166.099 107.96C166.581 107.941 166.7 108.179 166.455 108.677C165.988 109.449 165.473 110.181 164.91 110.871C164.554 110.945 164.409 110.782 164.474 110.378C165.094 109.634 165.635 108.828 166.099 107.96Z" fill="#EDEDED"/>
<path fill-rule="evenodd" clip-rule="evenodd" d="M136.627 110.289C136.979 110.593 137.348 110.877 137.736 111.14C139.07 111.772 140.443 112.279 141.856 112.663C147.795 113.962 153.79 114.573 159.841 114.499C159.327 114.588 158.799 114.617 158.256 114.589C164.387 162.2 170.461 209.807 176.478 257.411C176.494 257.606 176.573 257.74 176.716 257.814C176.196 258.045 175.668 258.254 175.132 258.441C173.723 258.757 172.324 259.086 170.932 259.426C169.519 259.672 168.119 259.94 166.733 260.232C165.879 260.295 165.033 260.414 164.198 260.591C162.786 260.72 161.386 260.869 159.999 261.039C159.894 261.039 159.841 261.099 159.841 261.218C156.578 261.484 153.33 261.454 150.096 261.128C150.204 261.142 150.31 261.127 150.413 261.083C147.137 218.443 143.823 175.792 140.469 133.13C140.121 132.169 139.501 131.557 138.608 131.294C138.318 131.229 138.028 131.184 137.736 131.159C137.336 124.209 136.966 117.253 136.627 110.289Z" fill="#1E1F26"/>
<path fill-rule="evenodd" clip-rule="evenodd" d="M163.721 111.006C164.242 111.078 164.321 111.332 163.958 111.767C163.549 111.902 163.404 111.738 163.523 111.275C163.605 111.197 163.672 111.107 163.721 111.006Z" fill="#ECEBEB"/>
<path fill-rule="evenodd" clip-rule="evenodd" d="M162.692 111.721C163.103 111.633 163.248 111.812 163.128 112.259C162.223 112.849 161.259 113.282 160.236 113.557C159.81 113.645 159.388 113.749 158.969 113.871C158.625 113.736 158.572 113.512 158.81 113.199C159.786 113.006 160.737 112.707 161.662 112.303C162.032 112.154 162.376 111.96 162.692 111.721Z" fill="#EEEEEE"/>
<path opacity="0.997" fill-rule="evenodd" clip-rule="evenodd" d="M162.611 113.961C162.541 114.029 162.488 114.119 162.453 114.23C163.452 120.677 164.442 127.126 165.424 133.577C166.092 136.937 166.7 140.31 167.246 143.699C167.356 144.216 167.489 144.723 167.642 145.222C169.197 155.052 170.769 164.875 172.356 174.691C172.257 174.765 172.205 174.885 172.198 175.049C174.993 193.073 177.885 211.077 180.873 229.061C180.961 229.44 181.094 229.798 181.269 230.136C184.183 235.084 187.074 240.04 189.945 245.005C188.192 246.372 186.568 247.926 185.072 249.662C185.019 249.752 185.019 249.841 185.072 249.931C185.755 250.776 186.323 251.702 186.776 252.708C186.586 252.492 186.415 252.253 186.261 251.991C185.858 252.36 185.423 252.674 184.954 252.932C184.849 253.278 184.73 253.621 184.597 253.962C184.246 254.344 183.863 254.672 183.448 254.947C183.287 254.933 183.129 254.947 182.973 254.992C182.498 255.29 182.022 255.589 181.547 255.888C180.783 256.239 180.044 256.611 179.328 257.007C178.455 257.264 177.583 257.533 176.714 257.813C176.571 257.74 176.492 257.606 176.476 257.41C170.459 209.806 164.385 162.199 158.254 114.588C158.797 114.617 159.325 114.587 159.838 114.498C160.773 114.386 161.697 114.206 162.611 113.961Z" fill="#17181D"/>
<path opacity="0.991" fill-rule="evenodd" clip-rule="evenodd" d="M137.734 131.16C138.027 131.185 138.317 131.23 138.606 131.295C139.499 131.558 140.119 132.17 140.468 133.131C143.821 175.793 147.136 218.443 150.411 261.084C150.309 261.128 150.202 261.143 150.094 261.129C148.35 261.01 146.633 260.696 144.944 260.188C144.799 260.144 144.706 260.039 144.667 259.875C142.352 216.96 140.041 174.055 137.734 131.16Z" fill="#2A2B32"/>
<path opacity="0.996" fill-rule="evenodd" clip-rule="evenodd" d="M172.358 174.693C172.334 175.137 172.466 175.495 172.754 175.768C183.483 195.804 194.179 215.853 204.841 235.916C204.662 236.714 204.345 237.43 203.89 238.065C203.988 238.22 204.068 238.384 204.128 238.558C204.031 238.511 203.939 238.451 203.851 238.379C203.55 237.89 203.221 237.428 202.86 236.991C202.453 237.039 202.057 237.158 201.672 237.349C197.551 239.513 193.643 242.066 189.946 245.007C187.076 240.043 184.184 235.087 181.271 230.138C181.095 229.801 180.963 229.442 180.875 229.063C177.886 211.08 174.994 193.076 172.199 175.052C172.206 174.888 172.259 174.768 172.358 174.693Z" fill="#1D1E25"/>
<path opacity="0.991" fill-rule="evenodd" clip-rule="evenodd" d="M204.127 238.556C204.251 238.685 204.357 238.834 204.444 239.004C202.238 239.521 200.099 240.343 198.027 241.467C195.527 243.163 193.124 245.014 190.817 247.02C190.225 247.569 189.658 248.152 189.114 248.767C189.054 248.869 189.068 248.959 189.153 249.036C191.181 252.344 193.241 255.628 195.333 258.889C194.567 260.444 193.973 262.085 193.55 263.815C193.485 263.933 193.393 263.993 193.273 263.994C193.4 263.738 193.505 263.469 193.59 263.188C193.573 263.059 193.533 262.94 193.471 262.83C191.22 259.465 188.989 256.091 186.776 252.708C186.324 251.702 185.756 250.776 185.073 249.931C185.02 249.842 185.02 249.752 185.073 249.663C186.569 247.926 188.193 246.373 189.946 245.005C193.642 242.063 197.551 239.511 201.671 237.347C202.056 237.156 202.452 237.037 202.86 236.988C203.22 237.425 203.55 237.888 203.85 238.377C203.938 238.449 204.031 238.508 204.127 238.556Z" fill="#E09C79"/>
<path opacity="0.996" fill-rule="evenodd" clip-rule="evenodd" d="M204.443 239.004C206.505 241.932 208.538 244.888 210.544 247.872C209.548 247.804 208.572 247.908 207.612 248.185C202.451 250.184 198.357 253.752 195.332 258.889C193.24 255.628 191.18 252.345 189.152 249.036C189.067 248.959 189.053 248.869 189.113 248.767C189.657 248.152 190.224 247.57 190.816 247.021C193.123 245.014 195.526 243.164 198.026 241.467C200.097 240.343 202.237 239.522 204.443 239.004Z" fill="#EFC49F"/>
<path opacity="0.998" fill-rule="evenodd" clip-rule="evenodd" d="M210.546 247.871C214.672 253.885 218.818 259.887 222.985 265.875C222.98 265.924 222.954 265.954 222.905 265.965C222.654 265.856 222.416 265.721 222.192 265.562C221.295 265.397 220.423 265.517 219.578 265.92C217.987 266.744 216.482 267.729 215.062 268.876C209.722 273.509 205.18 278.972 201.435 285.268C197.137 286.351 192.779 286.591 188.362 285.984C186.442 283.656 185.346 280.895 185.074 277.699C184.961 275.669 184.869 273.639 184.797 271.608C185.698 270.664 186.702 269.873 187.808 269.234C189.445 268.047 190.99 266.718 192.442 265.248C192.739 264.843 193.017 264.426 193.274 263.994C193.395 263.993 193.487 263.933 193.552 263.815C193.974 262.085 194.568 260.444 195.334 258.889C198.359 253.752 202.453 250.184 207.614 248.185C208.574 247.908 209.551 247.804 210.546 247.871Z" fill="#1E1F26"/>
<path fill-rule="evenodd" clip-rule="evenodd" d="M209.118 248.588C209.489 248.573 209.859 248.588 210.227 248.633C210.398 248.818 210.424 249.028 210.307 249.26C209.086 249.316 207.898 249.57 206.741 250.021C206.321 249.782 206.321 249.528 206.741 249.26C207.548 249.051 208.34 248.827 209.118 248.588Z" fill="#E4E3E4"/>
<path fill-rule="evenodd" clip-rule="evenodd" d="M205.395 249.843C205.804 249.811 205.949 250.02 205.831 250.47C205.584 250.837 205.386 250.807 205.236 250.381C205.274 250.192 205.327 250.013 205.395 249.843Z" fill="#DFDEDE"/>
<path fill-rule="evenodd" clip-rule="evenodd" d="M210.624 250.202C210.766 250.176 210.897 250.207 211.02 250.292C211.614 251.217 212.208 252.143 212.803 253.069C212.895 253.501 212.749 253.666 212.367 253.561C211.773 252.65 211.178 251.74 210.584 250.829C210.54 250.616 210.553 250.407 210.624 250.202Z" fill="#E6E6E6"/>
<path fill-rule="evenodd" clip-rule="evenodd" d="M179.328 257.008C178.72 257.315 178.086 257.569 177.427 257.769C176.671 258.039 175.905 258.263 175.129 258.441C175.665 258.254 176.194 258.045 176.713 257.814C177.583 257.534 178.454 257.265 179.328 257.008Z" fill="#986C59"/>
<path opacity="0.995" fill-rule="evenodd" clip-rule="evenodd" d="M183.45 254.947C183.358 255.016 183.279 255.105 183.212 255.215C183.397 257.905 183.582 260.592 183.767 263.277C183.689 263.305 183.637 263.365 183.608 263.456C183.709 264.424 183.774 265.41 183.806 266.412C183.836 266.462 183.876 266.492 183.925 266.502C184.011 267.815 184.091 269.128 184.163 270.443C183.663 270.932 183.108 271.335 182.499 271.652C181.661 272.062 180.79 272.376 179.884 272.592C179.513 269.309 179.183 266.024 178.894 262.74C178.696 261.678 178.498 260.618 178.3 259.56C175.597 260.374 172.851 261.03 170.06 261.53C166.816 261.976 163.567 262.319 160.315 262.56C160.262 262.171 160.196 261.783 160.117 261.396C160.061 261.264 159.968 261.204 159.84 261.217C159.84 261.098 159.893 261.038 159.998 261.038C161.321 260.979 162.641 260.89 163.96 260.769C164.047 260.708 164.126 260.649 164.197 260.59C165.032 260.413 165.878 260.294 166.733 260.231C167.954 260.092 169.168 259.897 170.377 259.649C170.59 259.635 170.775 259.561 170.932 259.425C172.323 259.085 173.722 258.756 175.131 258.44C175.906 258.262 176.673 258.038 177.428 257.768C178.088 257.568 178.722 257.314 179.33 257.007C180.045 256.611 180.784 256.238 181.548 255.887C182.024 255.589 182.499 255.29 182.974 254.992C183.13 254.947 183.289 254.932 183.45 254.947Z" fill="#E19C79"/>
<path opacity="0.997" fill-rule="evenodd" clip-rule="evenodd" d="M179.884 272.593C179.65 272.671 179.412 272.761 179.171 272.862C177.888 273.158 176.594 273.367 175.288 273.489C173.228 273.503 171.168 273.474 169.109 273.399C167.097 273.204 165.196 272.592 163.404 271.563C163.128 271.303 162.837 271.063 162.533 270.847C162.249 270.482 161.985 270.109 161.741 269.727C161.29 267.33 160.814 264.941 160.314 262.561C163.567 262.32 166.815 261.977 170.059 261.531C172.85 261.031 175.597 260.375 178.299 259.561C178.497 260.619 178.695 261.679 178.893 262.74C179.182 266.025 179.512 269.31 179.884 272.593Z" fill="#EFC49F"/>
<path fill-rule="evenodd" clip-rule="evenodd" d="M170.93 259.426C170.773 259.561 170.588 259.635 170.375 259.65C169.166 259.898 167.951 260.092 166.73 260.232C168.116 259.94 169.516 259.671 170.93 259.426Z" fill="#866152"/>
<path fill-rule="evenodd" clip-rule="evenodd" d="M164.195 260.59C164.124 260.649 164.045 260.708 163.957 260.769C162.638 260.89 161.318 260.979 159.996 261.038C161.383 260.868 162.783 260.719 164.195 260.59Z" fill="#AE7A63"/>
<path opacity="0.127" fill-rule="evenodd" clip-rule="evenodd" d="M183.766 263.279C183.802 264.355 183.854 265.43 183.924 266.504C183.875 266.494 183.836 266.464 183.805 266.414C183.774 265.412 183.708 264.427 183.607 263.458C183.636 263.367 183.688 263.307 183.766 263.279Z" fill="#956851"/>
<path opacity="0.991" fill-rule="evenodd" clip-rule="evenodd" d="M222.983 265.875C223.239 266.13 223.384 266.458 223.418 266.861C223.495 268.244 223.258 269.558 222.705 270.802C221.862 272.831 220.858 274.742 219.695 276.534C218.277 278.723 216.744 280.813 215.1 282.804C213.973 284.078 212.85 285.347 211.732 286.611C208.28 287.482 204.821 288.318 201.354 289.119C198.511 289.692 195.646 290.036 192.757 290.149C190.894 290.142 189.059 289.889 187.251 289.388C186.567 289.165 185.907 288.882 185.27 288.537C185.099 287.791 184.994 287.029 184.953 286.253C184.765 282.281 184.515 278.295 184.201 274.295C184.136 273.533 184.149 272.787 184.24 272.056C184.235 272.095 184.248 272.125 184.28 272.145C184.442 271.947 184.613 271.768 184.795 271.608C184.867 273.639 184.959 275.669 185.072 277.699C185.344 280.895 186.44 283.656 188.36 285.984C192.777 286.591 197.135 286.351 201.433 285.268C205.178 278.972 209.72 273.509 215.06 268.876C216.48 267.729 217.985 266.744 219.576 265.92C220.421 265.517 221.293 265.397 222.19 265.562C222.415 265.721 222.652 265.856 222.903 265.965C222.952 265.954 222.978 265.924 222.983 265.875Z" fill="#16171C"/>
<path opacity="0.998" fill-rule="evenodd" clip-rule="evenodd" d="M161.74 269.727C161.984 270.109 162.248 270.482 162.532 270.846C162.836 271.063 163.127 271.302 163.403 271.563C165.195 272.592 167.096 273.204 169.108 273.399C169.672 273.528 170.253 273.603 170.851 273.623C172.039 273.668 173.228 273.683 174.416 273.668C175.993 273.613 177.551 273.389 179.09 272.996C179.135 272.962 179.161 272.917 179.17 272.862C179.411 272.76 179.649 272.671 179.883 272.593C180.788 272.376 181.66 272.063 182.497 271.652C183.106 271.335 183.661 270.932 184.161 270.443C184.213 270.979 184.24 271.516 184.24 272.055C184.148 272.786 184.136 273.532 184.201 274.295C184.514 278.295 184.765 282.281 184.953 286.253C184.994 287.029 185.099 287.791 185.27 288.537C185.296 289.253 185.323 289.97 185.349 290.686C185.349 290.776 185.349 290.866 185.349 290.955C179.854 292.887 174.242 294.172 168.514 294.807C163.978 295.203 159.436 295.441 154.886 295.523C150.08 295.474 145.287 294.981 140.507 294.045C139.597 293.863 138.699 293.624 137.813 293.329C136.92 292.957 136.022 292.614 135.119 292.299C135.213 287.908 136.574 284.116 139.199 280.923C143.205 276.007 148.131 272.917 153.975 271.652C156.588 271.024 159.177 270.381 161.74 269.727Z" fill="#1E1F26"/>
<path fill-rule="evenodd" clip-rule="evenodd" d="M179.17 272.861C179.161 272.917 179.135 272.962 179.09 272.996C177.551 273.389 175.993 273.613 174.416 273.667C174.707 273.607 174.997 273.548 175.288 273.488C176.593 273.367 177.887 273.158 179.17 272.861Z" fill="#524844"/>
<path opacity="0.996" fill-rule="evenodd" clip-rule="evenodd" d="M169.107 273.4C171.167 273.475 173.226 273.504 175.287 273.49C174.996 273.55 174.706 273.609 174.416 273.669C173.227 273.684 172.039 273.669 170.85 273.624C170.252 273.605 169.672 273.529 169.107 273.4Z" fill="#C5A286"/>
<path fill-rule="evenodd" clip-rule="evenodd" d="M139.321 283.164C139.795 283.178 139.901 283.402 139.638 283.836C139.154 283.849 139.049 283.625 139.321 283.164Z" fill="#DCDCDD"/>
<path fill-rule="evenodd" clip-rule="evenodd" d="M138.687 284.149C139.082 284.134 139.228 284.343 139.122 284.776C138.089 286.734 137.508 288.854 137.379 291.136C136.979 291.432 136.78 291.298 136.785 290.733C136.968 288.365 137.602 286.171 138.687 284.149Z" fill="#E5E5E5"/>
<path opacity="0.985" fill-rule="evenodd" clip-rule="evenodd" d="M185.349 290.686C185.454 291.729 185.533 292.79 185.587 293.865C185.583 294.095 185.556 294.319 185.508 294.537C183.163 295.565 180.76 296.386 178.298 297C167.697 299.688 157.002 300.315 146.211 298.881C142.448 298.326 138.857 297.131 135.436 295.298C135.32 295.095 135.254 294.871 135.238 294.627C135.148 293.854 135.108 293.077 135.119 292.298C136.021 292.613 136.92 292.956 137.813 293.328C138.699 293.624 139.597 293.862 140.506 294.044C145.287 294.981 150.08 295.473 154.886 295.522C159.436 295.44 163.978 295.202 168.513 294.806C174.242 294.171 179.854 292.886 185.349 290.954C185.349 290.865 185.349 290.775 185.349 290.686Z" fill="#16171C"/>
<path d="M136 296.5C186 304.5 246.539 307.045 264 306.5C281.461 305.955 309.838 308.295 309.838 292.745C309.838 277.194 218.2 284.918 215.086 284.919C213.736 284.919 205.819 288.535 182.172 289.006C171 300 136 287.693 136 296.5Z" fill="#1C0036" fill-opacity="0.25"/>
<path d="M161.5 304.5C161.5 307.51 147.174 311.554 133.83 311.554C120.486 311.554 75 305.176 75 302.166C75 299.156 91.9019 297.625 104.356 298.079C116.81 298.533 161.5 301.49 161.5 304.5Z" fill="#1C0036" fill-opacity="0.25"/>
<path d="M84.3578 156.334L86.3165 157.003C85.3392 161.605 86.8187 165.585 86.7087 170.395C86.5199 178.705 85.4409 190.865 84.75 199.407C84.5321 202.113 83.0506 204.928 82.7912 207.665C78.9567 211.062 78.7658 208.265 75.9335 205.434C76.1514 207.103 77.3963 208.254 78.0894 209.899C76.5601 210.211 79.3198 211.645 78.4815 213.245C77.471 215.172 74.1428 205.876 73.7797 205.212C73.0182 203.822 71.1404 201.889 70.6445 200.972C64.706 189.972 58.7944 178.48 52.2272 167.717C51.6006 166.691 50.2042 164.082 49.092 163.923C49.1667 163.68 48.9322 163.233 49.287 163.03C57.176 164.691 62.3758 166.901 62.2181 177.313L64.569 171.064C67.3059 173.928 71.8023 179.875 72.2111 184.231C72.5223 187.561 70.8686 190.012 71.6238 192.936C74.6719 184.956 73.5992 189.348 79.656 189.142C79.5398 187.563 74.6927 185.16 74.562 184.677C74.3628 183.938 75.9875 170.969 76.7178 170.617C77.637 170.172 78.7056 172.311 79.4609 172.401C82.4177 172.761 77.8632 168.161 78.0894 165.93C78.2699 164.155 82.1583 157.01 84.3599 156.334H84.3578Z" fill="#6BA638"/>
<path d="M101.208 188.024C100.818 187.783 99.6826 187.09 99.249 187.355C98.8921 187.57 95.4165 194.939 95.3294 195.389C95.0202 197.005 95.3315 206.225 97.0931 206.771C98.3879 207.173 100.656 204.084 101.992 203.647C102.133 205.92 99.0352 207.355 98.4646 208.334C98.2094 208.771 99.1058 209.225 98.8568 209.674C97.5517 212.007 93.242 220.787 92.1962 221.503C83.3715 227.528 82.1639 214.283 82.7926 207.667C83.0519 204.932 84.5334 202.115 84.7513 199.409C85.4423 190.867 86.5212 178.704 86.7101 170.397C86.82 165.587 85.3406 161.609 86.3179 157.005L84.3591 156.336C85.7286 155.915 86.2349 155.544 87.6894 156.336C88.231 156.631 95.3439 166.142 95.3315 166.825C95.3211 167.319 90.6338 173.285 91.0218 175.306C92.7689 176.537 95.788 169.189 96.9001 170.397C97.6907 174.001 97.8359 178.527 98.8589 182.002C99.7221 184.935 101.338 184.767 101.21 188.029L101.208 188.024Z" fill="#5D8B2D"/>
<path d="M66.7242 220.162C69.6997 221.273 69.6499 224.294 70.4467 225.518C70.4674 225.551 70.9073 224.856 71.0339 225.071C72.6565 227.825 74.3289 231.143 73.777 234.667C73.4139 236.981 70.2724 238.832 70.2496 239.132C70.206 239.702 75.5303 246.093 76.5201 248.059C78.6967 252.389 80.0081 257.35 81.2219 262.12C80.7032 262.131 80.174 262.108 79.6553 262.12C77.9974 253.864 74.1111 246.546 69.2702 240.248C66.579 248.347 57.3268 251.85 52.6167 244.041C55.5175 242.254 57.194 240.659 58.1028 236.898C55.2207 237.997 53.5753 241.15 50.0707 240.245C47.4646 239.574 42.188 228.718 44.1924 227.747C50.7264 226.99 56.9969 229.397 62.6096 233.103C63.4272 230.018 64.06 226.844 64.7655 223.729C65.0062 222.668 64.4563 221.157 65.1577 219.935C65.6888 219.269 66.2532 219.983 66.7242 220.158V220.162Z" fill="#5D8B2D"/>
<path d="M127.854 185.791L120.604 193.825C118.624 194.735 116.52 196.262 114.923 197.843C114.566 197.365 114.645 196.843 114.531 196.503L114.923 194.94L114.138 195.163C113.829 193.983 112.97 189.625 111.59 189.807C110.87 189.901 102.498 201.714 102.382 202.527C102.293 203.151 102.764 203.196 102.774 203.643C102.523 203.676 102.191 203.577 101.99 203.643C100.653 204.08 98.3854 207.169 97.0907 206.767C95.329 206.222 95.0199 197.004 95.327 195.385C95.412 194.936 98.8897 187.566 99.2465 187.351C99.6802 187.089 100.815 187.779 101.205 188.02C101.595 188.261 101.427 190.003 101.99 189.582C103.548 184.338 102.759 182.511 106.889 179.093C109.509 176.923 113.032 174.252 113.746 179.093C114.363 183.272 110.431 186.999 109.632 191.145C114.927 183.373 122.218 178.046 129.42 172.844C130.4 173.822 125.524 186.103 123.934 187.351C124.221 188.072 127.35 186.009 127.854 185.789V185.791Z" fill="#6BA638"/>
<path d="M70.6396 200.968C69.6229 202.956 71.3492 205.577 72.2062 207.664C69.8905 208.848 67.0956 204.998 64.9563 204.54C61.6468 203.828 59.5739 205.797 56.3349 203.199C55.1335 202.235 54.1085 199.614 53.0046 198.735L48.6949 183.336L56.9242 186.908C55.0588 185.809 48.7385 180.004 48.3028 177.981C48.1554 177.297 48.8817 164.584 49.0871 163.92C50.1993 164.081 51.5957 166.688 52.2223 167.713C58.7896 178.477 64.7011 189.968 70.6396 200.968Z" fill="#6BA638"/>
<path d="M66.7231 220.163C66.2521 219.985 65.6877 219.272 65.1565 219.941C64.4552 221.162 65.0051 222.673 64.7644 223.734C58.0084 234.526 50.6734 226.081 46.3472 217.707L53.3999 212.798C53.1571 212.264 45.7558 215.306 43.2119 211.905C41.3009 209.352 38.4541 196.275 42.8197 195.166C46.4696 208.929 61.4465 208.149 66.7231 220.163Z" fill="#86B93B"/>
<path d="M53.0083 198.737C54.1122 199.616 55.1372 202.237 56.3386 203.202C59.5755 205.799 61.6505 203.83 64.96 204.542C67.0993 205 69.8921 208.85 72.2099 207.666C73.7225 211.349 75.7124 214.946 76.9117 218.825C76.1315 220.283 76.034 223.965 74.3637 224.627C73.4507 224.989 71.2201 223.717 71.0334 225.074C70.9068 224.859 70.4669 225.554 70.4462 225.52C69.6494 224.296 69.6992 221.276 66.7237 220.165C61.4471 208.151 46.4701 208.931 42.8203 195.168C44.5902 194.719 51.4272 197.48 53.0083 198.739V198.737Z" fill="#6BA638"/>
<path d="M100.813 269.262L95.7186 296.043C92.8422 297.777 86.1033 297.645 80.8288 297.383C82.6444 295.027 85.9062 294.547 87.0993 291.356C88.2592 288.253 88.1035 279.761 87.0993 276.626C84.6156 268.872 76.7079 272.594 71.4251 271.046C71.4064 270.956 70.6574 270.068 71.033 269.262C80.1772 269.482 91.7409 269.595 100.815 269.262H100.813Z" fill="#E34141"/>
<path d="M80.8294 297.382C78.5843 297.268 76.416 296.056 76.1276 296.042C74.3266 287.791 73.1459 279.31 71.4258 271.045C76.7086 272.591 84.6162 268.868 87.0999 276.625C88.1042 279.759 88.2598 288.251 87.0999 291.355C85.9068 294.543 82.645 295.023 80.8294 297.382Z" fill="#E95958"/>
<path d="M90.6278 262.121C91.5262 262.139 91.9495 261.669 92.1944 261.674C95.865 261.757 99.6434 262.537 103.362 262.121C104.399 266.469 105.167 269.102 100.814 269.263C91.742 269.596 80.1763 269.483 71.032 269.263C70.2207 269.244 68.2951 269.618 67.8968 268.594C68.1188 267.325 67.351 262.695 68.484 262.123C69.1853 261.768 77.9084 262.163 79.6513 262.123C80.1701 262.111 80.6992 262.135 81.2179 262.123C81.8674 262.109 82.5272 262.135 83.1767 262.123C83.8261 262.111 84.486 262.132 85.1354 262.123C86.0442 262.111 86.9697 262.111 87.8785 262.123C88.8682 262.135 89.3642 261.676 89.4451 261.676C89.7563 261.681 89.8704 262.106 90.6216 262.123L90.6278 262.121Z" fill="#E95958"/>
<path d="M114.139 195.168C114.278 195.692 114.357 195.988 114.531 196.508C114.645 196.846 114.564 197.368 114.923 197.848C110.584 202.138 107.445 207.732 104.148 213.024C103.748 212.892 102.795 204.468 102.776 203.65C102.766 203.204 102.295 203.159 102.384 202.535C102.5 201.722 110.873 189.909 111.593 189.814C112.973 189.632 113.83 193.99 114.141 195.17L114.139 195.168Z" fill="#86B93B"/>
<path d="M125.501 225.964C125.495 226.009 125.648 226.013 125.501 226.857C124.76 231.105 122.307 238.656 117.859 238.015C116.73 237.852 112.678 233.801 112.568 235.113C113.559 238.202 115.093 240.28 117.662 241.809C113.645 248.791 103.448 245.366 101.4 238.015C96.8022 244.915 93.3184 253.033 92.1917 261.672C91.9468 261.667 91.5235 262.138 90.6251 262.119C91.6958 255.333 93.5715 248.715 96.5034 242.702C97.0533 241.573 100.485 237.259 100.423 236.9C100.361 236.541 96.9827 235.508 96.5034 231.991C96.0241 228.474 97.7069 225.869 98.6593 222.842C93.1897 220.92 92.7229 225.094 91.4094 230.206C88.7805 240.438 89.5316 251.126 89.4507 261.674C89.3698 261.674 88.8738 262.133 87.8841 262.121C86.4441 248.202 88.0252 234.539 92.1938 221.501C93.2395 220.788 97.5513 212.005 98.8543 209.672C99.1033 209.225 98.207 208.772 98.4622 208.332C99.0328 207.353 102.131 205.919 101.99 203.645C102.189 203.579 102.523 203.678 102.774 203.645C102.793 204.46 103.745 212.886 104.145 213.019C107.443 207.727 110.584 202.132 114.921 197.843C116.518 196.261 118.622 194.735 120.602 193.825L127.852 185.791C129.678 184.997 134.979 182.083 136.081 185.569C136.28 186.2 134.409 197.493 134.122 198.067C133.865 198.585 124.891 203.718 125.501 204.763L132.946 202.532C125.27 207.642 122.538 219.601 115.508 224.626C114.398 225.42 106.874 228.509 106.691 229.313C105.949 232.563 111.682 227.736 112.765 227.304C116.751 225.709 121.305 224.796 125.501 225.964Z" fill="#5D8B2D"/>
<path d="M78.0862 209.896C80.7151 216.128 77.7044 213.325 77.3018 215.029C77.1462 215.691 80.7836 225.843 81.2214 227.974C83.5122 239.13 84.6264 250.664 85.141 262.12C84.4915 262.13 83.8317 262.109 83.1822 262.12C82.7755 247.916 81.0637 232.243 76.9117 218.823C75.7124 214.942 73.7205 211.347 72.2099 207.665C71.353 205.578 69.6266 202.956 70.6433 200.969C71.1392 201.886 73.0171 203.819 73.7786 205.209C74.1417 205.873 77.472 215.169 78.4804 213.243C79.3208 211.642 76.559 210.205 78.0882 209.896H78.0862Z" fill="#4D7627"/>
<path d="M129.42 172.848C122.217 178.05 114.926 183.377 109.631 191.149C110.43 187.003 114.362 183.276 113.745 179.097C115.088 178.979 114.522 175.731 114.922 174.857C116.267 171.919 126.652 171.966 129.422 172.848H129.42Z" fill="#86B93B"/>
<path d="M114.531 196.504C114.357 195.984 114.278 195.691 114.139 195.164L114.923 194.941L114.531 196.504Z" fill="#CBDA99"/>
</svg>
