<svg width="260" height="322" viewBox="0 0 260 322" fill="none" xmlns="http://www.w3.org/2000/svg">
<path opacity="0.999" fill-rule="evenodd" clip-rule="evenodd" d="M130.053 137.75C131.825 138.992 133.757 139.924 135.851 140.545C138.784 141.299 141.764 141.725 144.79 141.822C146.42 141.77 148.042 141.62 149.657 141.373C153.337 140.856 156.766 139.648 159.942 137.75C160.44 138.253 160.969 138.724 161.53 139.165C162.89 140.258 164.248 141.351 165.602 142.443C167.278 141.698 168.82 140.743 170.227 139.579C170.293 139.546 170.362 139.534 170.434 139.544C170.294 139.693 170.306 139.854 170.469 140.027C172.363 143.148 174.238 146.277 176.095 149.413C172.256 147.035 168.137 145.252 163.739 144.065C160.98 143.256 158.185 142.623 155.352 142.167C153.651 142.225 152.294 142.984 151.279 144.444C151.068 145.145 151.057 145.847 151.244 146.549C151.222 146.572 151.198 146.595 151.175 146.618C151.38 147.463 151.668 148.279 152.038 149.068C153.478 152.004 154.951 154.925 156.456 157.832C159.126 163.586 161.911 169.291 164.809 174.947C164.842 175.06 164.854 175.175 164.843 175.292C159.575 190.061 154.34 204.852 149.139 219.666C149.082 219.82 149.105 219.958 149.208 220.08C149.41 219.974 149.628 219.929 149.864 219.942C150.449 219.982 151.024 220.074 151.59 220.218C151.975 220.335 152.366 220.462 152.763 220.598C152.815 220.644 152.838 220.701 152.832 220.77C152.259 221.893 151.707 223.02 151.175 224.152C150.75 224.913 150.358 225.694 150.002 226.498C149.903 226.587 149.857 226.702 149.864 226.843C149.03 228.211 148.282 229.638 147.62 231.122C147.5 231.295 147.396 231.479 147.31 231.674C147.278 231.729 147.233 231.752 147.172 231.743C146.247 231.258 145.304 230.798 144.342 230.363C144.424 230.081 144.528 229.805 144.652 229.535C145.523 227.85 146.386 226.16 147.241 224.463C147.106 224.274 146.979 224.079 146.861 223.876C146.328 223.376 145.787 222.893 145.239 222.427C145.224 222.342 145.178 222.273 145.101 222.22C145.449 221.488 145.736 220.729 145.964 219.942C150.609 205.066 155.269 190.194 159.942 175.327C157.026 169.715 154.115 164.091 151.21 158.453C148.731 154.571 145.775 151.086 142.34 147.998C140.574 146.448 138.641 145.137 136.541 144.065C135.417 143.544 134.243 143.176 133.021 142.96C132.768 142.941 132.514 142.953 132.262 142.995C131.738 141.458 131.22 139.917 130.709 138.371C130.495 138.156 130.276 137.949 130.053 137.75Z" fill="#17181D"/>
<path fill-rule="evenodd" clip-rule="evenodd" d="M176.094 149.414C181.022 157.516 185.923 165.637 190.797 173.775C190.743 174.189 190.686 174.603 190.625 175.017C184.232 193.626 177.847 212.236 171.469 230.847C171.397 230.858 171.328 230.846 171.262 230.813C170.781 230.411 170.275 230.043 169.744 229.709C169.644 229.655 169.552 229.667 169.468 229.743C169.423 229.906 169.33 230.021 169.192 230.088C169.25 229.913 169.319 229.74 169.399 229.571C169.24 229.434 169.102 229.273 168.984 229.088C164.174 225.796 159.042 223.059 153.591 220.875C153.343 220.799 153.091 220.764 152.832 220.772C152.838 220.703 152.815 220.645 152.763 220.599C152.366 220.463 151.974 220.336 151.589 220.22C151.65 220.229 151.696 220.206 151.727 220.151C156.575 205.493 161.383 190.828 166.154 176.156C166.039 175.335 165.602 175.048 164.843 175.293C164.854 175.176 164.842 175.061 164.808 174.948C161.91 169.292 159.126 163.587 156.456 157.834C154.95 154.926 153.477 152.005 152.038 149.069C151.667 148.28 151.38 147.464 151.175 146.619C151.198 146.596 151.221 146.573 151.244 146.55C151.056 145.848 151.067 145.146 151.279 144.445C152.293 142.985 153.651 142.226 155.351 142.168C158.184 142.624 160.98 143.257 163.738 144.066C168.137 145.253 172.256 147.036 176.094 149.414Z" fill="#1E1F26"/>
<path opacity="0.999" fill-rule="evenodd" clip-rule="evenodd" d="M145.238 222.429C141.956 219.694 138.366 217.428 134.469 215.631C134.146 215.545 133.824 215.465 133.503 215.389C133.495 215.314 133.448 215.269 133.365 215.251C132.901 215.096 132.441 214.958 131.984 214.837C132.071 214.832 132.128 214.786 132.157 214.699C132.354 214.222 132.539 213.739 132.709 213.25C136.529 200.921 140.348 188.591 144.168 176.26C144.171 175.401 143.768 175.125 142.96 175.432C139.394 164.621 135.827 153.809 132.26 142.997C132.513 142.955 132.766 142.943 133.02 142.962C134.242 143.178 135.416 143.546 136.54 144.066C138.64 145.139 140.573 146.45 142.339 148C145.773 151.088 148.73 154.573 151.209 158.455C154.114 164.093 157.025 169.717 159.941 175.328C155.268 190.196 150.608 205.067 145.963 219.944C145.735 220.731 145.448 221.49 145.1 222.222C145.176 222.275 145.223 222.344 145.238 222.429Z" fill="#1E1F26"/>
<path opacity="0.986" fill-rule="evenodd" clip-rule="evenodd" d="M190.797 173.775C191.12 174.192 191.373 174.652 191.556 175.156C186.115 194.939 180.673 214.722 175.231 234.505C175.125 234.641 175.044 234.79 174.99 234.954C174.35 235.275 173.683 235.344 172.988 235.161C172.404 235.055 171.829 234.917 171.262 234.747C169.953 234.322 168.664 233.85 167.396 233.332C167.415 233.058 167.496 232.805 167.638 232.573C168.14 231.729 168.658 230.901 169.191 230.089C169.33 230.021 169.422 229.906 169.467 229.743C169.552 229.667 169.644 229.655 169.743 229.709C170.274 230.043 170.78 230.412 171.262 230.813C171.328 230.846 171.397 230.858 171.469 230.848C177.847 212.237 184.232 193.626 190.625 175.018C190.685 174.604 190.743 174.189 190.797 173.775Z" fill="#17171D"/>
<path fill-rule="evenodd" clip-rule="evenodd" d="M151.588 220.218C151.022 220.074 150.447 219.982 149.862 219.942C149.627 219.928 149.409 219.974 149.207 220.08C149.104 219.958 149.081 219.82 149.138 219.666C154.339 204.852 159.573 190.061 164.842 175.292C165.601 175.046 166.038 175.333 166.153 176.155C161.382 190.827 156.573 205.492 151.726 220.149C151.694 220.204 151.649 220.227 151.588 220.218Z" fill="#292A31"/>
<path opacity="0.989" fill-rule="evenodd" clip-rule="evenodd" d="M131.985 214.837C131.457 214.777 130.928 214.765 130.397 214.803C129.971 214.935 129.603 215.153 129.293 215.458C129.396 214.701 129.591 213.965 129.88 213.25C134.26 200.651 138.621 188.046 142.961 175.432C143.769 175.125 144.171 175.401 144.169 176.26C140.349 188.591 136.529 200.921 132.71 213.25C132.539 213.739 132.355 214.222 132.158 214.699C132.129 214.786 132.071 214.832 131.985 214.837Z" fill="#292A31"/>
<path opacity="0.988" fill-rule="evenodd" clip-rule="evenodd" d="M131.984 214.837C132.44 214.958 132.9 215.096 133.364 215.251C133.448 215.268 133.494 215.314 133.502 215.389C132.788 216.817 132.006 218.197 131.155 219.53C130.295 218.546 129.686 217.419 129.326 216.148C129.292 215.919 129.28 215.689 129.292 215.458C129.601 215.153 129.969 214.934 130.396 214.803C130.926 214.765 131.456 214.777 131.984 214.837Z" fill="#17181D"/>
<path opacity="0.999" fill-rule="evenodd" clip-rule="evenodd" d="M133.504 215.389C133.825 215.465 134.147 215.545 134.47 215.63C138.367 217.427 141.956 219.694 145.239 222.428C145.787 222.894 146.327 223.377 146.861 223.877C146.979 224.08 147.106 224.275 147.241 224.464C146.386 226.161 145.523 227.851 144.652 229.536C144.528 229.806 144.424 230.083 144.341 230.364C144.337 230.441 144.314 230.51 144.272 230.571C144.165 230.593 144.12 230.662 144.134 230.778C143.791 231.464 143.446 232.154 143.099 232.849C142.506 231.852 141.838 230.886 141.097 229.95C141.207 230.013 141.31 230.013 141.408 229.95C142.041 228.696 142.673 227.443 143.306 226.189C141.691 223.032 139.228 220.824 135.92 219.564C134.296 219.235 132.686 219.27 131.088 219.667C131.111 219.621 131.134 219.576 131.157 219.529C132.008 218.197 132.79 216.817 133.504 215.389Z" fill="#F1C8B6"/>
<path opacity="0.998" fill-rule="evenodd" clip-rule="evenodd" d="M141.097 229.951C139.018 227.472 136.418 225.781 133.296 224.879C131.913 224.568 130.532 224.568 129.155 224.879C128.727 225.017 128.312 225.19 127.912 225.396C128.973 223.485 130.031 221.576 131.087 219.668C132.685 219.271 134.296 219.236 135.919 219.565C139.228 220.825 141.69 223.033 143.305 226.19C142.672 227.444 142.04 228.697 141.407 229.951C141.31 230.014 141.206 230.014 141.097 229.951Z" fill="#FEE1CE"/>
<path fill-rule="evenodd" clip-rule="evenodd" d="M152.832 220.773C153.091 220.765 153.344 220.799 153.592 220.876C159.043 223.06 164.175 225.797 168.985 229.088C169.102 229.274 169.241 229.435 169.399 229.571C169.32 229.741 169.251 229.914 169.192 230.089C168.659 230.901 168.141 231.729 167.639 232.573C167.497 232.805 167.416 233.059 167.397 233.333C167.375 233.333 167.351 233.333 167.328 233.333C166.183 232.3 164.986 231.334 163.739 230.434C163.896 230.409 164.022 230.455 164.119 230.572C164.387 230.206 164.617 229.814 164.809 229.399C164.855 229.33 164.855 229.261 164.809 229.192C164.158 228.402 163.456 227.655 162.704 226.949C160.152 225.116 157.321 223.897 154.213 223.291C153.75 223.247 153.29 223.271 152.832 223.36C152.435 223.559 152.021 223.72 151.59 223.844C151.425 223.922 151.287 224.026 151.176 224.154C151.707 223.022 152.26 221.895 152.832 220.773Z" fill="#F1C8B6"/>
<path fill-rule="evenodd" clip-rule="evenodd" d="M130.743 222.083C131.088 222.026 131.238 222.164 131.192 222.497C130.913 222.975 130.625 223.446 130.329 223.912C129.972 224.015 129.845 223.889 129.949 223.532C130.215 223.047 130.479 222.564 130.743 222.083Z" fill="#FFF0E6"/>
<path fill-rule="evenodd" clip-rule="evenodd" d="M163.739 230.434C160.708 228.438 157.395 227.139 153.799 226.535C152.678 226.434 151.574 226.514 150.485 226.776C150.34 226.709 150.179 226.687 150.002 226.707C150.002 226.638 150.002 226.569 150.002 226.5C150.358 225.696 150.75 224.914 151.175 224.154C151.287 224.025 151.425 223.922 151.59 223.843C152.02 223.72 152.435 223.559 152.832 223.36C153.29 223.271 153.75 223.247 154.213 223.291C157.321 223.896 160.151 225.116 162.703 226.949C163.456 227.655 164.158 228.402 164.809 229.192C164.855 229.261 164.855 229.33 164.809 229.399C164.617 229.814 164.387 230.205 164.118 230.572C164.022 230.455 163.895 230.409 163.739 230.434Z" fill="#FDE0CD"/>
<path fill-rule="evenodd" clip-rule="evenodd" d="M152.142 224.36C152.486 224.348 152.613 224.509 152.521 224.843C152.33 225.195 152.111 225.529 151.866 225.844C151.555 225.901 151.429 225.775 151.486 225.464C151.688 225.083 151.906 224.715 152.142 224.36Z" fill="#FFEFE5"/>
<path opacity="0.998" fill-rule="evenodd" clip-rule="evenodd" d="M141.097 229.95C141.838 230.886 142.506 231.852 143.099 232.848C143.654 234.157 144.149 235.491 144.583 236.851C145.429 235.136 146.292 233.433 147.172 231.744C147.232 231.753 147.278 231.73 147.31 231.675C147.396 231.48 147.499 231.295 147.62 231.123C148.282 229.639 149.03 228.212 149.864 226.844C150.069 226.813 150.276 226.789 150.485 226.775C151.574 226.513 152.678 226.433 153.798 226.534C157.395 227.138 160.708 228.437 163.738 230.433C164.986 231.333 166.182 232.299 167.328 233.331C169.53 236.329 171.543 239.457 173.368 242.717C175.331 246.205 177.241 249.725 179.097 253.276C179.402 253.976 179.666 254.689 179.891 255.415C179.523 256.781 178.81 257.943 177.751 258.9C176.645 259.638 175.472 259.753 174.231 259.245C167.892 252.675 160.758 247.154 152.832 242.682C150.733 241.53 148.548 240.586 146.274 239.853C143.023 239.025 142.045 240.163 143.34 243.269C143.806 244.179 144.359 245.03 144.997 245.822C145.021 245.943 145.056 246.058 145.101 246.167C146.056 250.933 146.367 255.741 146.033 260.591C145.964 261.555 145.791 262.498 145.515 263.42C143.849 264.079 142.284 263.883 140.821 262.834C140.421 262.502 140.041 262.146 139.682 261.764C137.455 256.23 134.809 250.916 131.744 245.822C130.828 244.337 129.931 242.841 129.052 241.337C128.287 240.066 127.287 239.019 126.049 238.197C124.231 237.161 122.482 237.241 120.803 238.438C123.155 234.081 125.524 229.734 127.913 225.395C128.313 225.189 128.727 225.016 129.155 224.877C130.533 224.567 131.914 224.567 133.297 224.877C136.418 225.78 139.019 227.471 141.097 229.95ZM144.341 230.364C145.304 230.799 146.247 231.259 147.172 231.744C146.292 233.433 145.429 235.136 144.583 236.851C144.149 235.491 143.654 234.157 143.099 232.848C143.446 232.154 143.791 231.464 144.134 230.778C144.196 230.723 144.243 230.654 144.272 230.571C144.314 230.509 144.337 230.44 144.341 230.364Z" fill="#1E1F26"/>
<path fill-rule="evenodd" clip-rule="evenodd" d="M129.983 225.741C130.398 225.729 130.812 225.741 131.225 225.775C131.409 225.936 131.409 226.098 131.225 226.258C130.719 226.281 130.213 226.305 129.707 226.327C129.583 226.39 129.457 226.448 129.327 226.5C129.106 226.414 129.037 226.252 129.12 226.017C129.201 225.921 129.304 225.863 129.43 225.844C129.628 225.832 129.812 225.797 129.983 225.741Z" fill="#E6E3E1"/>
<path fill-rule="evenodd" clip-rule="evenodd" d="M132.124 225.879C132.563 225.886 132.655 226.082 132.4 226.466C132.015 226.597 131.865 226.471 131.952 226.086C132.023 226.026 132.081 225.957 132.124 225.879Z" fill="#E4E1DF"/>
<path fill-rule="evenodd" clip-rule="evenodd" d="M150 226.5C150 226.569 150 226.638 150 226.707C150.177 226.686 150.338 226.709 150.483 226.776C150.275 226.79 150.068 226.813 149.862 226.845C149.855 226.704 149.901 226.588 150 226.5Z" fill="#70645E"/>
<path fill-rule="evenodd" clip-rule="evenodd" d="M152.211 227.534C153.143 227.462 154.04 227.6 154.903 227.948C155.029 228.197 154.96 228.358 154.696 228.431C153.8 228.111 152.88 228.007 151.935 228.121C151.782 227.792 151.874 227.597 152.211 227.534Z" fill="#E7E4E2"/>
<path fill-rule="evenodd" clip-rule="evenodd" d="M128.189 227.741C128.534 227.684 128.684 227.822 128.638 228.155C127.985 229.081 127.375 230.035 126.809 231.019C126.577 231.098 126.439 231.017 126.395 230.778C126.456 230.586 126.537 230.401 126.636 230.226C127.144 229.386 127.662 228.558 128.189 227.741Z" fill="#E6E2E0"/>
<path fill-rule="evenodd" clip-rule="evenodd" d="M150.693 227.81C151.08 227.712 151.23 227.85 151.141 228.224C150.873 228.441 150.678 228.396 150.555 228.086C150.572 227.978 150.618 227.885 150.693 227.81Z" fill="#E2DEDD"/>
<path opacity="0.024" fill-rule="evenodd" clip-rule="evenodd" d="M144.271 230.57C144.242 230.654 144.195 230.722 144.133 230.777C144.119 230.661 144.164 230.592 144.271 230.57Z" fill="#282524"/>
<path opacity="0.996" fill-rule="evenodd" clip-rule="evenodd" d="M145.513 263.421C144.993 264.667 144.315 265.817 143.477 266.872C142.53 268.071 141.61 269.29 140.716 270.529C140.399 270.938 140.019 271.271 139.577 271.53C138.649 271.861 137.729 271.838 136.816 271.461C135.37 270.843 134.116 269.958 133.054 268.804C131.388 266.816 129.938 264.676 128.705 262.386C124.922 255.504 122.23 248.212 120.628 240.509C120.582 239.98 120.582 239.451 120.628 238.922C120.655 238.743 120.713 238.581 120.801 238.439C122.48 237.242 124.229 237.161 126.047 238.197C127.285 239.02 128.286 240.067 129.05 241.337C129.929 242.842 130.827 244.337 131.742 245.823C134.808 250.917 137.453 256.231 139.68 261.765C140.039 262.146 140.419 262.503 140.819 262.834C142.282 263.884 143.847 264.08 145.513 263.421Z" fill="#16171C"/>
<path opacity="0.996" fill-rule="evenodd" clip-rule="evenodd" d="M179.889 255.415C180.203 256.196 180.307 257.001 180.2 257.831C178.996 260.452 177.754 263.052 176.473 265.629C176.043 266.068 175.525 266.356 174.919 266.492C173.843 266.597 172.784 266.505 171.744 266.216C171.089 266.013 170.445 265.783 169.811 265.525C168.627 264.876 167.453 264.209 166.291 263.524C159.945 259.206 153.917 254.468 148.205 249.308C147.131 248.295 146.095 247.249 145.099 246.168C145.054 246.058 145.02 245.944 144.996 245.823C144.357 245.031 143.805 244.18 143.339 243.269C142.043 240.164 143.021 239.025 146.273 239.853C148.546 240.587 150.732 241.53 152.83 242.683C160.757 247.155 167.89 252.676 174.229 259.245C175.47 259.753 176.644 259.638 177.75 258.9C178.808 257.944 179.521 256.782 179.889 255.415Z" fill="#16171C"/>
<path d="M85.3047 140.081C85.3047 137.443 87.4437 135.305 90.0823 135.305H209.523C212.162 135.305 214.301 137.443 214.301 140.081V202.175C214.301 204.813 212.162 206.951 209.523 206.951H90.0823C87.4437 206.951 85.3047 204.813 85.3047 202.175V140.081Z" fill="white"/>
<path d="M214.301 202.173C214.301 204.811 212.162 206.949 209.523 206.949H90.0825C87.4439 206.949 85.3049 204.811 85.3049 202.173C85.3049 195.307 149.504 135.9 149.504 135.9C149.504 135.9 214.301 195.605 214.301 202.173Z" fill="#FBF4FF"/>
<path d="M85.3047 140.081C85.3047 137.443 87.4437 135.305 90.0823 135.305H209.523C212.162 135.305 214.301 137.443 214.301 140.081C214.301 148.553 166.824 174.045 153.526 183.92C151.464 185.451 148.725 185.469 146.644 183.965C133.221 174.26 85.3047 149.323 85.3047 140.081Z" fill="#E8BFFF"/>
<rect x="89.4863" y="184.859" width="34.0406" height="4.77644" rx="2.38822" fill="#F1DBFF"/>
<rect x="89.4863" y="193.217" width="22.6937" height="2.38822" rx="1.19411" fill="#F1DBFF"/>
<rect x="89.4863" y="197.994" width="45.3874" height="2.38822" rx="1.19411" fill="#F1DBFF"/>
<ellipse cx="155.178" cy="176.799" rx="15.5273" ry="15.8219" fill="#8F27CE" fill-opacity="0.12"/>
<ellipse cx="150.4" cy="175.902" rx="16.1245" ry="16.1205" fill="#8F27CE"/>
<path d="M150.451 187.993C149.997 189.633 149.799 191.012 150.181 192.022C150.254 192.023 150.327 192.023 150.4 192.023C159.306 192.023 166.525 184.806 166.525 175.903C166.525 167.06 159.404 159.881 150.582 159.783C149.856 161.039 149.709 162.638 150.349 163.812C150.366 163.812 150.383 163.812 150.4 163.812C157.079 163.812 162.494 169.225 162.494 175.903C162.494 182.563 157.107 187.966 150.451 187.993Z" fill="url(#paint0_linear_2006_16912)"/>
<path d="M151.014 187.978C157.407 187.658 162.492 182.374 162.492 175.903C162.492 169.432 157.407 164.148 151.014 163.828C151.211 163.818 151.409 163.812 151.608 163.812C158.064 163.812 163.298 169.226 163.298 175.903C163.298 182.58 158.064 187.993 151.608 187.993C151.409 187.993 151.211 187.988 151.014 187.978Z" fill="#582190"/>
<path d="M143.686 165.848C141.341 168.538 139.921 172.054 139.921 175.902C139.921 179.749 141.34 183.265 143.684 185.955C140.443 183.786 138.309 180.094 138.309 175.902C138.309 171.71 140.444 168.016 143.686 165.848Z" fill="#582190"/>
<g filter="url(#filter0_i_2006_16912)">
<path fill-rule="evenodd" clip-rule="evenodd" d="M153.91 172.037C153.728 171.478 153.414 170.97 152.99 170.561C152.348 169.942 151.499 169.593 150.613 169.585C149.726 169.576 148.865 169.908 148.2 170.514C148.136 170.572 148.075 170.631 148.016 170.693C147.961 170.669 147.906 170.647 147.85 170.625C147.002 170.297 146.079 170.218 145.185 170.398C144.291 170.577 143.461 171.008 142.788 171.641C142.116 172.274 141.628 173.085 141.379 173.982C141.131 174.879 141.131 175.826 141.38 176.718C141.629 177.61 142.118 178.411 142.79 179.03C143.463 179.649 144.293 180.062 145.187 180.223C146.081 180.384 147.056 180.28 147.903 179.934L148.008 179.438L147.603 179.289C146.875 179.586 146.081 179.67 145.313 179.532C144.544 179.393 143.831 179.038 143.253 178.506C142.675 177.974 142.255 177.286 142.04 176.519C141.826 175.753 141.826 174.938 142.04 174.167C142.254 173.396 142.673 172.699 143.251 172.155C143.829 171.611 144.542 171.241 145.311 171.087C146.067 170.935 146.848 170.998 147.568 171.269C147.268 171.745 147.078 172.289 147.018 172.86C146.94 173.609 147.092 174.358 147.447 175.005C147.187 175.678 147.129 176.413 147.28 177.117C147.44 177.862 147.826 178.533 148.384 179.035C148.941 179.538 149.642 179.846 150.385 179.916C150.856 179.96 151.329 179.907 151.777 179.763L151.956 180.024L151.693 181.272C151.644 181.506 151.79 181.734 152.019 181.782L153.006 181.99L152.765 183.134C152.716 183.367 152.862 183.596 153.091 183.644L155.421 184.135C155.65 184.183 155.876 184.032 155.925 183.799L156.334 181.856C156.357 181.749 156.339 181.638 156.284 181.545C155.598 180.378 154.323 178.199 154.106 177.777C154.426 176.94 154.389 176.575 154.356 176.249C154.354 176.234 154.353 176.22 154.351 176.205C154.349 176.182 154.347 176.16 154.345 176.137L155.484 175.571C155.655 175.486 155.858 175.526 155.984 175.668L156.643 176.413C156.775 176.562 156.991 176.598 157.164 176.5L159.106 175.396C159.33 175.268 159.395 174.97 159.244 174.761L157.975 173.005C157.914 172.92 157.824 172.861 157.722 172.839L153.91 172.037ZM148.777 171.106C149.203 171.389 149.583 171.74 149.903 172.148C149.907 172.149 149.911 172.149 149.915 172.15C150.45 172.263 150.79 172.798 150.675 173.346C150.559 173.894 150.032 174.247 149.497 174.135C148.963 174.022 148.623 173.487 148.738 172.939C148.792 172.68 148.939 172.464 149.135 172.321C148.889 172.058 148.612 171.828 148.309 171.638C148.048 172.022 147.883 172.47 147.834 172.941C147.762 173.634 147.946 174.328 148.35 174.885C148.755 175.442 149.35 175.822 150.019 175.949C150.688 176.076 151.382 175.942 151.964 175.573C152.545 175.204 153.058 174.696 153.246 174.024L153.68 174.115L153.882 174.399L154.452 175.123L155.977 174.382L157.048 175.594L158.292 174.886L157.394 173.643L154.023 172.933L153.29 172.806C153.122 172.089 152.917 171.649 152.424 171.174C151.93 170.698 151.278 170.43 150.597 170.424C149.931 170.417 149.284 170.66 148.777 171.106ZM152.11 178.702C151.614 179.002 151.039 179.134 150.468 179.08C149.897 179.027 149.358 178.79 148.93 178.404C148.501 178.017 148.205 177.501 148.082 176.929C148.003 176.565 147.998 176.19 148.064 175.826C148.555 176.312 149.179 176.644 149.861 176.774C150.731 176.94 151.634 176.765 152.391 176.285C152.753 176.056 153.069 175.764 153.327 175.427C153.327 175.427 153.408 175.531 153.448 175.593C153.488 175.656 153.543 175.777 153.572 175.892C153.601 176.007 153.611 176.337 153.584 176.467C153.556 176.598 153.562 176.572 153.534 176.702C153.507 176.833 153.486 177.062 153.329 177.474L153.191 177.837L153.367 178.18C153.589 178.611 154.788 180.662 155.484 181.847L155.196 183.215L153.667 182.893L153.997 181.326L152.596 181.031L152.851 179.82L152.603 179.479L152.11 178.702Z" fill="#582190"/>
</g>
<path d="M191.943 194.181C191.943 194.44 192.047 194.69 192.23 194.873C192.414 195.057 192.663 195.16 192.923 195.16L204.027 195.16C204.568 195.16 205.007 194.721 205.007 194.181L205.007 185.691C205.007 185.431 204.904 185.182 204.72 184.999C204.536 184.815 204.287 184.712 204.027 184.712L192.923 184.712C192.663 184.712 192.414 184.815 192.23 184.999C192.047 185.182 191.943 185.431 191.943 185.691L191.943 194.181Z" fill="#46A449"/>
<path d="M189.332 195.813C189.332 195.467 189.194 195.134 188.949 194.889C188.704 194.645 188.372 194.507 188.025 194.507L188.025 193.201C188.372 193.201 188.704 193.063 188.949 192.818C189.194 192.573 189.332 192.241 189.332 191.895C189.332 191.548 189.194 191.216 188.949 190.971C188.704 190.726 188.372 190.589 188.025 190.589L188.025 189.283C188.372 189.283 188.704 189.145 188.949 188.9C189.194 188.655 189.332 188.323 189.332 187.977C189.332 187.63 189.194 187.298 188.949 187.053C188.704 186.808 188.372 186.671 188.025 186.671L188.025 185.365C188.372 185.365 188.704 185.227 188.949 184.982C189.194 184.737 189.332 184.405 189.332 184.058C189.332 183.712 189.194 183.38 188.949 183.135C188.704 182.89 188.372 182.752 188.025 182.752L188.025 180.793L189.332 180.793C189.332 181.14 189.469 181.472 189.714 181.717C189.959 181.962 190.292 182.099 190.638 182.099C190.985 182.099 191.317 181.962 191.562 181.717C191.807 181.472 191.945 181.14 191.945 180.793L193.251 180.793C193.251 181.14 193.389 181.472 193.634 181.717C193.879 181.962 194.211 182.099 194.557 182.099C194.904 182.099 195.236 181.962 195.481 181.717C195.726 181.472 195.864 181.14 195.864 180.793L197.17 180.793C197.17 181.14 197.308 181.472 197.553 181.717C197.798 181.962 198.13 182.099 198.476 182.099C198.823 182.099 199.155 181.962 199.4 181.717C199.645 181.472 199.783 181.14 199.783 180.793L201.089 180.793C201.089 181.14 201.227 181.472 201.472 181.717C201.717 181.962 202.049 182.099 202.396 182.099C202.742 182.099 203.074 181.962 203.319 181.717C203.564 181.472 203.702 181.14 203.702 180.793L205.008 180.793C205.008 181.14 205.146 181.472 205.391 181.717C205.636 181.962 205.968 182.099 206.315 182.099C206.661 182.099 206.993 181.962 207.238 181.717C207.483 181.472 207.621 181.14 207.621 180.793L208.927 180.793L208.927 182.752C208.581 182.752 208.249 182.89 208.004 183.135C207.759 183.38 207.621 183.712 207.621 184.058C207.621 184.405 207.759 184.737 208.004 184.982C208.249 185.227 208.581 185.365 208.927 185.365L208.927 186.671C208.581 186.671 208.249 186.808 208.004 187.053C207.759 187.298 207.621 187.63 207.621 187.977C207.621 188.323 207.759 188.655 208.004 188.9C208.249 189.145 208.581 189.283 208.927 189.283L208.927 190.589C208.581 190.589 208.249 190.726 208.004 190.971C207.759 191.216 207.621 191.548 207.621 191.895C207.621 192.241 207.759 192.573 208.004 192.818C208.249 193.063 208.581 193.201 208.927 193.201L208.927 194.507C208.581 194.507 208.249 194.645 208.004 194.889C207.759 195.134 207.621 195.467 207.621 195.813C207.621 196.159 207.759 196.492 208.004 196.737C208.249 196.981 208.581 197.119 208.927 197.119L208.927 199.078L207.621 199.078C207.621 198.732 207.483 198.4 207.238 198.155C206.993 197.91 206.661 197.772 206.315 197.772C205.968 197.772 205.636 197.91 205.391 198.155C205.146 198.4 205.008 198.732 205.008 199.078L203.702 199.078C203.702 198.732 203.564 198.4 203.319 198.155C203.074 197.91 202.742 197.772 202.396 197.772C202.049 197.772 201.717 197.91 201.472 198.155C201.227 198.4 201.089 198.732 201.089 199.078L199.783 199.078C199.783 198.732 199.645 198.4 199.4 198.155C199.155 197.91 198.823 197.772 198.476 197.772C198.13 197.772 197.798 197.91 197.553 198.155C197.308 198.4 197.17 198.732 197.17 199.078L195.864 199.078C195.864 198.732 195.726 198.4 195.481 198.155C195.236 197.91 194.904 197.772 194.557 197.772C194.211 197.772 193.879 197.91 193.634 198.155C193.389 198.4 193.251 198.732 193.251 199.078L191.945 199.078C191.945 198.732 191.807 198.4 191.562 198.155C191.317 197.91 190.985 197.772 190.638 197.772C190.292 197.772 189.959 197.91 189.714 198.155C189.469 198.4 189.332 198.732 189.332 199.078L188.025 199.078L188.025 197.119C188.372 197.119 188.704 196.981 188.949 196.737C189.194 196.492 189.332 196.159 189.332 195.813ZM191.945 196.466L205.008 196.466C205.355 196.466 205.687 196.328 205.932 196.083C206.177 195.839 206.315 195.506 206.315 195.16L206.315 184.711C206.315 184.365 206.177 184.033 205.932 183.788C205.687 183.543 205.355 183.405 205.008 183.405L191.945 183.405C191.598 183.405 191.266 183.543 191.021 183.788C190.776 184.033 190.638 184.365 190.638 184.711L190.638 195.16C190.638 195.506 190.776 195.839 191.021 196.083C191.266 196.328 191.598 196.466 191.945 196.466Z" fill="#B885D8"/>
<path d="M194.004 192.585C194.004 192.061 194.004 188.439 194.004 186.693H199.57" stroke="#329235" stroke-width="2" stroke-linecap="round" stroke-linejoin="round"/>
<path d="M211.027 153.633V163.452M211.027 167.053V169.344M208.408 157.561V164.762" stroke="#F0EBFF" stroke-width="2" stroke-linecap="round" stroke-linejoin="round"/>
<path d="M91.5247 153.633V158.87M91.5247 162.143V164.434M88.5781 157.561V174.909" stroke="#F0EBFF" stroke-width="2" stroke-linecap="round" stroke-linejoin="round"/>
<path d="M99.7109 149.707L120.665 162.8M104.622 150.034L108.551 152.326M110.515 153.635L114.117 155.599M122.629 164.109L125.576 166.073" stroke="#CF96F2" stroke-width="2" stroke-linecap="round"/>
<path d="M199.353 135.303H100.025C83.7115 143.653 127.105 206.658 147.986 206.658C168.867 206.658 199.536 155.039 201.82 146.689C203.647 140.009 201.528 136.315 199.353 135.303Z" fill="#8F27CE" fill-opacity="0.15"/>
<path d="M200.223 135.303H100.034C90.2166 139.885 124.594 152.323 148.494 151.669C172.394 151.014 207.24 143.486 200.223 135.303Z" fill="#8F27CE" fill-opacity="0.15"/>
<path opacity="0.986" fill-rule="evenodd" clip-rule="evenodd" d="M148.759 36.8555C148.696 36.9409 148.685 37.033 148.725 37.1315C150.802 41.3816 151.263 45.7984 150.105 50.3817C148.751 54.8637 145.863 57.8427 141.442 59.3186C141.33 60.9153 141.238 62.514 141.166 64.1149C140.582 64.2816 139.984 64.3506 139.371 64.3219C138.688 63.8348 138.078 63.2597 137.542 62.5967C136.817 61.6863 136.494 60.6511 136.576 59.4911C136.73 59.0518 137.04 58.8217 137.507 58.801C141.921 59.0848 145.361 57.4055 147.827 53.7632C148.6 52.2501 148.991 50.6399 149.001 48.9324C149.047 47.7363 149.047 46.54 149.001 45.3438C148.815 42.8813 148.228 40.5233 147.24 38.2702C147.149 38.2242 147.056 38.2242 146.964 38.2702C143.896 39.5435 140.721 39.946 137.438 39.4779C137.343 39.8467 137.239 40.2147 137.128 40.5821C136.74 41.6076 136.326 42.6198 135.885 43.6186C135.013 45.0882 133.898 46.3419 132.537 47.3797C130.499 48.5098 128.521 48.4177 126.601 47.1036C126.445 46.9572 126.33 46.7847 126.256 46.5861C126.695 46.9208 127.178 47.1853 127.705 47.3797C130.076 48.0084 132.066 47.3987 133.676 45.5509C135.319 43.4837 136.344 41.1373 136.748 38.5117C137.804 38.614 138.863 38.683 139.923 38.7188C141.053 38.6857 142.181 38.6167 143.306 38.5117C144.443 38.4232 145.547 38.1817 146.619 37.7871C146.658 37.7607 146.681 37.7262 146.688 37.6836C147.382 37.4056 148.072 37.1296 148.759 36.8555Z" fill="#F2CAB8"/>
<path fill-rule="evenodd" clip-rule="evenodd" d="M146.687 37.6836C146.679 37.7262 146.657 37.7607 146.618 37.7871C145.546 38.1816 144.442 38.4232 143.305 38.5117C144.448 38.3351 145.576 38.0591 146.687 37.6836Z" fill="#D2BCBB"/>
<path fill-rule="evenodd" clip-rule="evenodd" d="M139.37 64.3226C135.322 64.7318 131.273 65.1229 127.221 65.4958C127.209 64.7593 127.221 64.0231 127.256 63.2874C127.788 62.3389 128.225 61.3497 128.567 60.3199C128.76 59.5947 128.829 58.8586 128.774 58.1116C128.614 57.1736 128.384 56.2534 128.084 55.3511C127.59 54.7174 126.935 54.4298 126.117 54.4885C125.06 54.2192 124.266 53.6096 123.735 52.6597C122.851 51.057 122.54 49.3547 122.803 47.5529C123.756 46.5145 124.907 46.1925 126.255 46.5867C126.329 46.7853 126.444 46.9578 126.6 47.1043C128.52 48.4184 130.498 48.5105 132.536 47.3803C133.897 46.3425 135.012 45.0888 135.884 43.6192C136.325 42.6205 136.739 41.6083 137.127 40.5827C137.238 40.2154 137.341 39.8473 137.437 39.4785C140.72 39.9467 143.895 39.5441 146.963 38.2709C147.055 38.2248 147.148 38.2248 147.239 38.2709C148.227 40.524 148.814 42.8819 149 45.3445C149.046 46.5407 149.046 47.7369 149 48.9331C148.99 50.6406 148.599 52.2508 147.826 53.7639C145.36 57.4061 141.92 59.0855 137.506 58.8017C137.039 58.8224 136.728 59.0525 136.574 59.4918C136.493 60.6517 136.815 61.6869 137.541 62.5973C138.077 63.2604 138.687 63.8354 139.37 64.3226Z" fill="#FEE1CE"/>
<path fill-rule="evenodd" clip-rule="evenodd" d="M145.79 41.6878C146.262 41.5878 146.642 41.7258 146.929 42.1018C147.471 43.2085 147.517 44.3357 147.068 45.4834C146.812 46.0656 146.386 46.2611 145.79 46.07C145.363 45.6182 145.122 45.0776 145.066 44.4482C144.939 43.6266 145.053 42.8445 145.411 42.1018C145.552 41.9728 145.678 41.8348 145.79 41.6878Z" fill="#2A1108"/>
<path fill-rule="evenodd" clip-rule="evenodd" d="M138.886 44.4475C139.358 44.3475 139.737 44.4855 140.025 44.8616C140.566 45.9683 140.613 47.0955 140.163 48.2431C139.908 48.8254 139.482 49.0209 138.886 48.8297C138.459 48.378 138.217 47.8374 138.161 47.208C138.034 46.3864 138.149 45.6042 138.507 44.8616C138.647 44.7325 138.774 44.5945 138.886 44.4475Z" fill="#2A1108"/>
<path fill-rule="evenodd" clip-rule="evenodd" d="M124.252 46.7241C124.657 46.6257 124.795 46.7637 124.666 47.1381C124.357 47.3738 124.034 47.5923 123.7 47.7938C123.367 47.8742 123.24 47.7477 123.32 47.4142C123.643 47.1936 123.954 46.9635 124.252 46.7241Z" fill="#FFF0E6"/>
<path opacity="0.99" fill-rule="evenodd" clip-rule="evenodd" d="M122.803 47.5527C122.54 49.3545 122.851 51.0568 123.735 52.6596C124.266 53.6095 125.06 54.2191 126.116 54.4884C126.934 54.4297 127.59 54.7173 128.084 55.351C128.384 56.2533 128.614 57.1735 128.774 58.1115C128.829 58.8584 128.76 59.5946 128.567 60.3198C128.225 61.3495 127.788 62.3387 127.255 63.2873C127.221 64.023 127.209 64.7592 127.221 65.4957C126.648 65.5926 126.061 65.6616 125.461 65.7027C125.343 65.7021 125.239 65.6791 125.15 65.6337C125.307 65.6584 125.433 65.6124 125.53 65.4957C125.59 64.6962 125.67 63.9026 125.771 63.1148C125.755 63.0872 125.733 63.0758 125.702 63.0803C126.813 62.8211 127.515 62.1309 127.808 61.0099C128.15 59.407 128.196 57.7968 127.946 56.1791C127.913 55.8285 127.764 55.5409 127.497 55.3165C126.935 55.3159 126.383 55.2469 125.84 55.1095C123.92 54.3856 122.666 53.0399 122.078 51.0723C121.699 49.7597 121.94 48.5865 122.803 47.5527Z" fill="#F0C9B8"/>
<path fill-rule="evenodd" clip-rule="evenodd" d="M124.944 49.209C125.336 49.2443 125.681 49.3939 125.979 49.6576C126.677 50.285 127.24 51.0096 127.67 51.8314C127.723 52.0108 127.712 52.1833 127.636 52.349C127.484 52.4059 127.358 52.3714 127.256 52.2455C127.042 51.7938 126.778 51.3797 126.462 51.0033C126.081 51.3038 125.84 51.6949 125.737 52.1765C125.517 52.2914 125.345 52.2454 125.22 52.0384C125.387 51.473 125.664 50.9669 126.048 50.5202C125.719 50.1575 125.34 49.8584 124.909 49.6231C124.862 49.4783 124.874 49.3402 124.944 49.209Z" fill="#F3CBB9"/>
<path fill-rule="evenodd" clip-rule="evenodd" d="M145.375 49.692C145.719 49.6802 145.846 49.8412 145.754 50.1751C145.119 51.3335 144.13 51.9316 142.786 51.9694C142.38 51.9965 142.253 51.824 142.407 51.4518C143.372 51.4677 144.212 51.1571 144.926 50.5201C145.095 50.2511 145.244 49.975 145.375 49.692Z" fill="#6B2514"/>
<path fill-rule="evenodd" clip-rule="evenodd" d="M123.08 56.7306C123.198 56.7196 123.313 56.731 123.425 56.7651C123.646 56.9787 123.899 57.1397 124.185 57.2482C124.333 57.6053 124.218 57.7663 123.84 57.7313C123.557 57.561 123.292 57.3655 123.046 57.1447C122.999 56.9999 123.011 56.8619 123.08 56.7306Z" fill="#4384CF"/>
<path fill-rule="evenodd" clip-rule="evenodd" d="M124.462 57.9051C124.895 57.877 125.033 58.061 124.876 58.4572C124.571 58.5781 124.387 58.4746 124.324 58.1467C124.349 58.0477 124.395 57.9672 124.462 57.9051Z" fill="#4787D1"/>
<path opacity="0.993" fill-rule="evenodd" clip-rule="evenodd" d="M143.236 64.0459C143.274 64.3678 143.366 64.6668 143.512 64.943C143.593 65.3612 143.697 65.7752 143.822 66.1852C143.904 66.5134 144.031 66.8124 144.202 67.0824C144.776 68.8691 145.328 70.6634 145.859 72.4652C145.879 72.6556 145.799 72.7706 145.617 72.8103C144.963 72.8819 144.307 72.9394 143.65 72.9828C145.72 74.8782 147.491 77.006 148.965 79.3664C148.97 79.3967 148.958 79.4195 148.93 79.4354C146.122 77.2706 142.981 75.7639 139.508 74.9151C137.885 74.592 136.252 74.523 134.607 74.7081C129.817 75.3877 125.031 76.0893 120.249 76.813C119.516 80.2697 119.114 83.7665 119.041 87.3027C118.748 98.4114 119.921 109.361 122.562 120.152C123.039 122.084 123.591 123.993 124.218 125.88C125.651 129.217 127.734 132.081 130.465 134.472C131.778 135.37 133.181 136.105 134.676 136.68C138.408 137.533 142.182 137.809 145.997 137.508C148.611 136.505 149.151 134.837 147.619 132.505C147.409 132.319 147.225 132.112 147.067 131.884C143.595 128.666 140.143 125.422 136.712 122.153C134.766 111.524 132.764 100.896 130.707 90.2701C130.661 90.0169 130.661 89.7643 130.707 89.511C133.615 99.9635 136.537 110.407 139.474 120.842C144.432 124.971 149.391 129.101 154.349 133.23C156.221 134.738 158.084 136.245 159.94 137.75C156.764 139.648 153.336 140.856 149.655 141.373C148.041 141.62 146.419 141.77 144.789 141.822C141.763 141.725 138.783 141.299 135.85 140.545C133.756 139.924 131.823 138.992 130.051 137.75C128.743 136.699 127.697 135.433 126.91 133.954C125.078 130.435 123.651 126.755 122.631 122.912C121.256 117.852 120.22 112.722 119.524 107.523C118.926 108.259 118.328 108.995 117.73 109.731C117.471 114.884 117.23 120.037 117.005 125.19C114.921 125.852 112.781 126.231 110.585 126.328C107.938 126.487 105.315 126.304 102.716 125.776C101.637 125.536 100.555 125.305 99.4716 125.086C99.0802 125.021 98.712 124.894 98.3672 124.707C98.3672 124.5 98.3672 124.293 98.3672 124.086C98.8431 124.355 99.3493 124.551 99.8858 124.672C103.146 125.253 106.425 125.448 109.722 125.259C110.351 118.956 110.972 112.653 111.586 106.35C113.538 104.398 115.494 102.443 117.454 100.484C117.318 98.0022 117.237 95.5178 117.212 93.0306C117.174 89.8333 117.416 86.6588 117.937 83.507C118.207 82.5581 118.391 81.592 118.489 80.6086C118.976 78.6858 119.493 76.7764 120.042 74.8806C119.671 74.7975 119.499 74.5675 119.524 74.1905C120.569 71.4586 121.593 68.7212 122.596 65.9782C123.192 65.8609 123.79 65.7689 124.391 65.7021C123.367 68.4526 122.354 71.213 121.354 73.9835C121.445 74.0065 121.538 74.0295 121.63 74.0525C129.154 73.4736 136.678 72.8985 144.202 72.3272C144.158 71.9752 144.077 71.6301 143.96 71.2921C143.182 68.8757 142.411 66.4603 141.648 64.0459C142.086 64.0082 142.523 63.9622 142.96 63.9079C143.087 63.8968 143.18 63.9428 143.236 64.0459Z" fill="#CBC7C4"/>
<path fill-rule="evenodd" clip-rule="evenodd" d="M141.648 64.0453C142.411 66.4597 143.182 68.8751 143.96 71.2915C144.077 71.6295 144.158 71.9746 144.202 72.3266C136.678 72.8979 129.154 73.473 121.63 74.0519C121.538 74.0289 121.445 74.0059 121.354 73.9829C122.354 71.2124 123.366 68.452 124.391 65.7016C124.648 65.7138 124.902 65.6908 125.15 65.6325C125.239 65.678 125.343 65.701 125.461 65.7016C126.061 65.6605 126.648 65.5915 127.221 65.4945C131.273 65.1217 135.322 64.7306 139.37 64.3213C139.982 64.35 140.581 64.281 141.165 64.1143C141.321 64.0647 141.482 64.0417 141.648 64.0453Z" fill="#F0EBE8"/>
<path opacity="0.271" fill-rule="evenodd" clip-rule="evenodd" d="M143.236 64.0469C143.382 64.3231 143.474 64.6221 143.512 64.944C143.367 64.6678 143.275 64.3688 143.236 64.0469Z" fill="#383636"/>
<path opacity="0.098" fill-rule="evenodd" clip-rule="evenodd" d="M143.512 64.9434C143.767 65.6413 143.998 66.3544 144.202 67.0827C144.031 66.8127 143.904 66.5137 143.822 66.1856C143.697 65.7756 143.593 65.3615 143.512 64.9434Z" fill="#2F2F2E"/>
<path opacity="0.999" fill-rule="evenodd" clip-rule="evenodd" d="M148.966 79.3668C150.765 82.2046 152.295 85.1948 153.556 88.3383C155.922 94.3299 157.901 100.449 159.493 106.695C159.716 107.708 159.934 108.72 160.148 109.732C159.825 109.42 159.538 109.075 159.286 108.697C155.595 100.747 151.775 92.8799 147.827 85.0948C147.274 84.0803 146.722 83.0679 146.17 82.0583C146.052 81.9589 145.926 81.9009 145.791 81.8858C146.123 82.471 146.411 83.081 146.653 83.7145C150.009 92.6515 153.38 101.588 156.766 110.525C158.122 111.513 159.48 112.502 160.839 113.493C160.928 113.527 161.02 113.538 161.115 113.527C167.058 117.64 172.995 121.769 178.924 125.915C179.081 126.036 179.195 126.185 179.269 126.363C179.126 126.687 179.034 127.032 178.993 127.399C178.617 128.859 178.03 130.239 177.233 131.539C175.372 134.505 173.105 137.14 170.434 139.441C170.45 139.469 170.472 139.48 170.503 139.476C170.503 139.522 170.48 139.545 170.434 139.545C170.361 139.534 170.292 139.546 170.227 139.579C168.819 140.743 167.278 141.698 165.602 142.443C164.247 141.351 162.89 140.258 161.529 139.165C160.969 138.725 160.44 138.253 159.941 137.75C158.085 136.246 156.221 134.739 154.35 133.23C149.392 129.101 144.433 124.972 139.474 120.843C136.538 110.407 133.616 99.9639 130.708 89.5115C130.662 89.7648 130.662 90.0173 130.708 90.2706C132.765 100.896 134.767 111.524 136.713 122.154C140.144 125.423 143.595 128.666 147.068 131.884C147.226 132.112 147.41 132.319 147.62 132.505C149.152 134.837 148.612 136.505 145.998 137.509C142.183 137.81 138.409 137.534 134.677 136.681C133.182 136.106 131.778 135.37 130.466 134.472C127.735 132.082 125.652 129.218 124.219 125.88C123.592 123.994 123.039 122.084 122.562 120.152C119.922 109.362 118.749 98.4119 119.042 87.3031C119.115 83.767 119.517 80.2702 120.25 76.8134C125.032 76.0898 129.818 75.3882 134.608 74.7086C136.253 74.5234 137.886 74.5924 139.509 74.9156C142.982 75.7644 146.123 77.2711 148.931 79.4359C148.959 79.42 148.971 79.3972 148.966 79.3668Z" fill="#F0EBE8"/>
<path opacity="0.996" fill-rule="evenodd" clip-rule="evenodd" d="M120.042 74.8809C119.493 76.7767 118.976 78.686 118.489 80.6088C118.391 81.5922 118.207 82.5584 117.937 83.5073C117.416 86.659 117.174 89.8335 117.212 93.0308C117.237 95.518 117.318 98.0024 117.454 100.484C115.494 102.443 113.538 104.398 111.586 106.35C110.972 112.653 110.351 118.956 109.722 125.259C106.425 125.448 103.146 125.253 99.8858 124.672C99.3493 124.551 98.8431 124.356 98.3672 124.086C99.0167 117.161 99.6725 110.237 100.334 103.313C106.888 93.8196 113.457 84.3416 120.042 74.8809Z" fill="#F0EBE8"/>
<path fill-rule="evenodd" clip-rule="evenodd" d="M133.02 79.6426C133.057 79.6467 133.08 79.6695 133.089 79.7116C132.57 80.6329 132.283 81.6225 132.226 82.6791C132.105 84.6259 132.22 86.5582 132.571 88.476C133.809 92.0915 135.005 95.7263 136.16 99.3798C136.985 101.509 137.744 103.671 138.438 105.867C139.684 110.132 140.903 114.411 142.097 118.703C148.808 123.996 155.539 129.264 162.288 134.506C165.49 131.778 168.102 128.581 170.122 124.914C170.683 123.818 171.086 122.668 171.33 121.463C171.535 121.588 171.731 121.726 171.917 121.877C171.965 122.182 171.942 122.481 171.848 122.775C171.399 124.133 170.8 125.422 170.053 126.639C167.692 130.62 164.804 134.186 161.39 137.336C161.197 137.449 161.013 137.575 160.838 137.716C160.595 137.709 160.411 137.593 160.286 137.37C153.489 131.795 146.713 126.193 139.957 120.566C137.126 110.489 134.296 100.413 131.466 90.3393C130.996 88.8197 130.708 87.2669 130.604 85.6811C130.633 83.3485 131.438 81.3354 133.02 79.6426Z" fill="#CBC7C4"/>
<path opacity="0.997" fill-rule="evenodd" clip-rule="evenodd" d="M160.149 109.731C160.384 110.873 160.58 112.023 160.736 113.181C160.861 113.306 160.988 113.421 161.115 113.526C161.021 113.537 160.928 113.526 160.839 113.492C159.48 112.501 158.123 111.512 156.767 110.524C153.381 101.587 150.009 92.6505 146.654 83.7136C146.412 83.08 146.124 82.47 145.791 81.8848C145.926 81.8999 146.053 81.9579 146.171 82.0573C146.722 83.0669 147.274 84.0793 147.827 85.0938C151.775 92.8789 155.595 100.746 159.286 108.696C159.538 109.074 159.826 109.419 160.149 109.731Z" fill="#CBC7C4"/>
<path opacity="0.995" fill-rule="evenodd" clip-rule="evenodd" d="M98.3679 124.707C98.7127 124.895 99.0809 125.021 99.4724 125.087C100.556 125.305 101.637 125.536 102.717 125.777C105.315 126.304 107.939 126.488 110.586 126.329C112.782 126.231 114.922 125.852 117.006 125.19C116.847 127.424 116.754 129.655 116.729 131.884C115.489 132.488 114.177 132.89 112.795 133.092C108.693 133.795 104.597 133.772 100.508 133.023C99.9241 132.87 99.3488 132.698 98.7821 132.505C98.424 132.401 98.1134 132.217 97.8502 131.953C97.7757 131.732 97.7412 131.501 97.7467 131.263C97.9173 129.064 98.1244 126.879 98.3679 124.707Z" fill="#F0EBE8"/>
<path fill-rule="evenodd" clip-rule="evenodd" d="M116.04 126.02C116.131 126.02 116.224 126.02 116.316 126.02C116.201 127.881 116.12 129.744 116.074 131.609C114.621 132.188 113.113 132.568 111.553 132.748C110.818 132.867 110.081 132.901 109.344 132.852C109.442 132.725 109.522 132.587 109.585 132.438C109.649 131.469 109.741 130.502 109.861 129.539C109.908 128.872 109.908 128.205 109.861 127.538C109.82 127.316 109.739 127.109 109.62 126.917C111.383 126.841 113.131 126.646 114.866 126.33C115.274 126.256 115.665 126.153 116.04 126.02Z" fill="#CBC7C4"/>
<path opacity="0.141" fill-rule="evenodd" clip-rule="evenodd" d="M179.268 126.363C179.245 126.712 179.199 127.057 179.13 127.398C179.084 127.398 179.038 127.398 178.992 127.398C179.033 127.032 179.125 126.687 179.268 126.363Z" fill="#53504F"/>
<path opacity="0.988" fill-rule="evenodd" clip-rule="evenodd" d="M178.993 127.398C179.039 127.398 179.085 127.398 179.131 127.398C179.132 127.503 179.178 127.583 179.269 127.64C179.552 127.804 179.805 127.999 180.029 128.227C178.856 132.009 176.83 135.264 173.954 137.992C174.399 138.278 174.882 138.485 175.404 138.613C176.02 138.791 176.641 138.952 177.267 139.096C177.635 139.142 178.004 139.142 178.372 139.096C181.037 138.725 183.637 138.08 186.172 137.164C187.21 136.867 188.268 136.683 189.347 136.611C191.12 136.591 192.891 136.544 194.663 136.473C196.443 136.393 198.169 136.048 199.84 135.438C199.95 134.867 199.72 134.487 199.149 134.3C198.467 133.911 197.73 133.658 196.94 133.54C194.961 133.228 192.96 133.033 190.935 132.954C190.804 132.829 190.769 132.68 190.831 132.505C191.021 132.461 191.217 132.438 191.418 132.436C193.076 132.571 194.733 132.72 196.388 132.885C197.255 133.026 198.106 133.222 198.942 133.471C200.498 133.962 200.924 134.951 200.219 136.439C199.94 136.756 199.607 136.998 199.218 137.164C196.846 137.961 194.407 138.317 191.901 138.233C190.356 137.988 188.86 138.16 187.415 138.751C184.887 139.807 182.311 140.728 179.683 141.511C177.568 141.987 175.475 141.918 173.402 141.304C172.317 140.897 171.419 140.241 170.71 139.337C170.639 139.385 170.57 139.431 170.503 139.475C170.472 139.48 170.449 139.468 170.434 139.441C173.105 137.139 175.372 134.505 177.233 131.539C178.03 130.239 178.617 128.859 178.993 127.398Z" fill="#F3CAB8"/>
<path fill-rule="evenodd" clip-rule="evenodd" d="M100.025 128.157C101.322 128.037 101.794 128.589 101.44 129.813C101.101 130.271 100.652 130.42 100.094 130.261C99.4629 129.908 99.2673 129.39 99.5075 128.709C99.6475 128.488 99.82 128.304 100.025 128.157Z" fill="#9E9E9E"/>
<path opacity="0.997" fill-rule="evenodd" clip-rule="evenodd" d="M180.028 128.227C181.272 129.006 182.629 129.477 184.1 129.641C186.991 129.96 189.89 130.144 192.798 130.193C194.713 130.229 196.439 130.803 197.975 131.919C198.533 132.287 198.856 132.805 198.941 133.471C198.105 133.222 197.254 133.026 196.387 132.885C194.732 132.72 193.075 132.571 191.417 132.436C191.216 132.438 191.02 132.461 190.831 132.505C190.768 132.68 190.803 132.829 190.934 132.954C192.959 133.033 194.961 133.228 196.94 133.54C196.785 133.632 196.761 133.759 196.871 133.92C197.508 134.107 198.129 134.338 198.734 134.61C199 134.678 199.138 134.575 199.148 134.3C199.719 134.487 199.949 134.867 199.839 135.438C198.168 136.048 196.443 136.393 194.662 136.473C192.89 136.544 191.119 136.591 189.346 136.611C188.268 136.683 187.209 136.867 186.171 137.164C183.636 138.08 181.036 138.725 178.371 139.096C178.003 139.142 177.634 139.142 177.266 139.096C176.64 138.952 176.019 138.791 175.403 138.613C174.881 138.485 174.398 138.278 173.953 137.992C176.83 135.264 178.855 132.009 180.028 128.227Z" fill="#FEE1CE"/>
<path fill-rule="evenodd" clip-rule="evenodd" d="M193.973 130.986C194.517 131.033 195.034 131.171 195.526 131.4C195.629 131.68 195.537 131.818 195.25 131.814C194.875 131.718 194.495 131.637 194.111 131.573C193.809 131.434 193.763 131.238 193.973 130.986Z" fill="#FFF0E7"/>
<path opacity="0.996" fill-rule="evenodd" clip-rule="evenodd" d="M116.729 131.885C117.008 132.024 117.284 132.162 117.558 132.299C117.564 132.368 117.54 132.425 117.489 132.471C112.808 134.606 107.907 135.365 102.786 134.749C101.343 134.518 99.9168 134.23 98.5059 133.886C98.5886 133.426 98.6806 132.966 98.782 132.506C99.3487 132.698 99.924 132.871 100.508 133.023C104.597 133.773 108.693 133.796 112.795 133.092C114.177 132.891 115.489 132.489 116.729 131.885Z" fill="#F3CAB8"/>
<path opacity="0.998" fill-rule="evenodd" clip-rule="evenodd" d="M117.558 132.299C118.417 132.53 119.292 132.68 120.181 132.747C121.266 132.754 122.347 132.8 123.426 132.885C123.979 132.966 124.439 133.208 124.806 133.61C124.841 134.275 124.541 134.723 123.909 134.956C123.37 135.146 122.818 135.284 122.252 135.37C121.077 135.476 119.904 135.591 118.732 135.715C118.024 135.889 117.333 136.119 116.661 136.405C115.63 137.059 114.525 137.564 113.348 137.923C112.41 138.083 111.467 138.129 110.517 138.061C109.54 137.96 108.574 137.799 107.618 137.578C105.731 137.555 103.845 137.532 101.958 137.509C101.334 137.439 100.759 137.232 100.232 136.888C99.6484 136.522 99.0961 136.119 98.5755 135.68C98.5104 135.086 98.4875 134.488 98.5064 133.886C99.9174 134.23 101.344 134.518 102.786 134.749C107.907 135.365 112.808 134.606 117.489 132.471C117.541 132.425 117.564 132.368 117.558 132.299Z" fill="#FEE1CE"/>
<path fill-rule="evenodd" clip-rule="evenodd" d="M196.941 133.541C197.731 133.658 198.467 133.912 199.15 134.3C199.14 134.575 199.002 134.679 198.736 134.611C198.13 134.338 197.509 134.108 196.872 133.921C196.763 133.759 196.787 133.633 196.941 133.541Z" fill="#FEEFE6"/>
<path opacity="0.981" fill-rule="evenodd" clip-rule="evenodd" d="M124.805 133.609C125.289 134.229 125.347 134.896 124.978 135.611C124.837 135.763 124.688 135.901 124.529 136.025C124.387 136.018 124.272 136.064 124.184 136.163C123.861 136.201 123.562 136.293 123.286 136.439C121.994 136.515 120.705 136.642 119.421 136.818C119.191 136.91 118.96 137.003 118.731 137.094C117.786 137.877 116.75 138.522 115.624 139.027C113.633 139.764 111.608 139.867 109.55 139.337C109.402 139.208 109.218 139.162 108.998 139.199C108.031 138.983 107.053 138.845 106.064 138.785C105.472 138.791 104.885 138.848 104.304 138.958C103.608 139.014 102.918 139.002 102.233 138.923C101.843 138.728 101.429 138.578 100.99 138.475C100.817 138.377 100.656 138.261 100.507 138.13C100.418 138.096 100.326 138.084 100.231 138.095C100.198 137.998 100.129 137.952 100.024 137.957C99.2369 137.399 98.7537 136.64 98.5742 135.68C99.0949 136.119 99.6471 136.522 100.231 136.887C100.758 137.231 101.333 137.438 101.957 137.509C103.843 137.531 105.73 137.555 107.617 137.578C108.573 137.798 109.539 137.959 110.516 138.061C111.465 138.128 112.409 138.083 113.346 137.923C114.524 137.564 115.628 137.058 116.66 136.404C117.332 136.119 118.022 135.889 118.731 135.714C119.903 135.591 121.076 135.475 122.251 135.369C122.817 135.284 123.369 135.146 123.908 134.955C124.54 134.723 124.84 134.274 124.805 133.609Z" fill="#F1C8B7"/>
<path fill-rule="evenodd" clip-rule="evenodd" d="M165.325 137.404C165.075 138.003 165.19 138.521 165.67 138.957C166.153 139.203 166.613 139.169 167.05 138.854C167.04 138.926 167.052 138.995 167.085 139.061C167.526 139.538 168.066 139.849 168.707 139.992C167.78 140.715 166.779 141.325 165.704 141.821C164.209 140.614 162.725 139.395 161.252 138.163C162.055 137.429 162.861 136.693 163.668 135.955C164.09 136.584 164.642 137.067 165.325 137.404Z" fill="#CBC7C4"/>
<path opacity="0.075" fill-rule="evenodd" clip-rule="evenodd" d="M124.529 136.024C124.44 136.123 124.325 136.169 124.184 136.162C124.272 136.063 124.387 136.017 124.529 136.024Z" fill="#614439"/>
<path opacity="0.09" fill-rule="evenodd" clip-rule="evenodd" d="M124.184 136.164C123.909 136.31 123.61 136.401 123.287 136.44C123.563 136.294 123.861 136.203 124.184 136.164Z" fill="#584742"/>
<path fill-rule="evenodd" clip-rule="evenodd" d="M167.051 138.855C166.614 139.171 166.154 139.205 165.671 138.959C165.191 138.523 165.076 138.005 165.326 137.406C165.766 136.835 166.318 136.708 166.982 137.027C167.594 137.618 167.617 138.228 167.051 138.855Z" fill="#9E9E9E"/>
<path fill-rule="evenodd" clip-rule="evenodd" d="M131.502 136.922C131.828 136.969 132.127 137.096 132.399 137.301C132.782 137.482 133.174 137.642 133.573 137.785C133.709 138.043 133.64 138.192 133.366 138.233C132.713 138.045 132.091 137.78 131.502 137.439C131.413 137.267 131.413 137.094 131.502 136.922Z" fill="#F2EEEB"/>
<path opacity="0.024" fill-rule="evenodd" clip-rule="evenodd" d="M100.025 137.957C100.13 137.953 100.199 137.998 100.232 138.095C100.127 138.1 100.058 138.054 100.025 137.957Z" fill="#422B25"/>
<path opacity="0.024" fill-rule="evenodd" clip-rule="evenodd" d="M100.232 138.096C100.327 138.085 100.419 138.097 100.509 138.13C100.657 138.262 100.819 138.377 100.992 138.475C101.43 138.579 101.845 138.729 102.234 138.924C101.482 138.835 100.814 138.559 100.232 138.096Z" fill="#282220"/>
<path fill-rule="evenodd" clip-rule="evenodd" d="M134.952 138.51C135.886 138.84 136.83 139.151 137.783 139.441C138.581 139.639 139.385 139.8 140.199 139.924C140.359 140.279 140.244 140.429 139.853 140.373C138.151 140.172 136.518 139.724 134.952 139.027C134.774 138.856 134.774 138.683 134.952 138.51Z" fill="#F2EEEC"/>
<path opacity="0.506" fill-rule="evenodd" clip-rule="evenodd" d="M108.998 139.198C109.219 139.161 109.403 139.207 109.55 139.336C109.355 139.304 109.171 139.258 108.998 139.198Z" fill="#7B655D"/>
<path opacity="0.999" fill-rule="evenodd" clip-rule="evenodd" d="M145.515 25.4C146.472 25.5386 147.081 26.0907 147.344 27.0562C147.511 27.6072 147.592 28.1708 147.586 28.747C147.548 29.4049 147.514 30.0605 147.483 30.7138C147.625 30.7891 147.775 30.8007 147.931 30.7483C148.109 30.583 148.269 30.4105 148.414 30.2308C148.419 30.2682 148.441 30.2912 148.483 30.2998C149.047 30.0067 149.599 29.6961 150.14 29.3681C150.32 29.2897 150.503 29.2322 150.692 29.1956C151.122 29.3845 151.41 29.7066 151.555 30.1618C151.689 31.1031 151.505 31.9772 151.003 32.7842C150.436 33.7683 149.689 34.585 148.76 35.2341C147.824 35.7684 146.835 36.1824 145.791 36.4763C143.911 36.9811 142.001 37.3262 140.062 37.5114C138.816 37.5573 137.573 37.5344 136.334 37.4424C136.016 37.6231 135.797 37.8876 135.679 38.2361C135.043 40.5421 134.054 42.6815 132.71 44.6541C131.877 45.8531 130.726 46.4512 129.259 46.4484C128.164 46.286 127.071 46.1135 125.98 45.9308C123.896 45.6927 122.434 46.5324 121.597 48.4497C120.564 52.307 121.91 54.9639 125.635 56.4205C126.066 56.805 126.445 57.2306 126.774 57.6972C126.856 57.8038 126.879 57.9188 126.843 58.0423C126.489 57.6189 126.109 57.2163 125.704 56.8346C125.472 56.7634 125.334 56.844 125.29 57.0761C125.821 57.6422 126.316 58.2403 126.774 58.8704C126.82 59.0314 126.82 59.1925 126.774 59.3535C126.527 59.0203 126.297 58.6753 126.084 58.3183C125.808 57.9963 125.531 57.6742 125.255 57.3522C125.057 57.1311 124.838 56.9356 124.6 56.7656C124.243 56.6621 124.116 56.7886 124.22 57.1451C125.11 57.9424 125.846 58.8626 126.429 59.9056C126.488 60.1091 126.43 60.2701 126.256 60.3887C125.969 59.8139 125.647 59.2618 125.29 58.7324C124.905 58.6054 124.778 58.7434 124.91 59.1465C125.253 59.6243 125.495 60.1304 125.635 60.6647C125.452 60.5163 125.28 60.3553 125.117 60.1816C124.429 59.1478 123.613 58.2161 122.667 57.3867C120.196 55.2611 117.883 52.9722 115.729 50.5201C114.936 49.4855 114.245 48.3813 113.659 47.2075C113.193 46.1029 112.894 44.9527 112.761 43.757C112.729 43.0654 112.729 42.3753 112.761 41.6866C112.678 41.5797 112.574 41.4993 112.451 41.4451C111.976 41.323 111.516 41.162 111.07 40.962C110.683 40.7359 110.556 40.4023 110.69 39.9613C110.986 39.4255 111.343 38.9425 111.76 38.5121C111.945 38.3971 112.128 38.2821 112.313 38.1671C112.365 38.1962 112.423 38.2193 112.485 38.2361C112.997 38.1204 113.514 38.0399 114.038 37.9945C114.141 37.855 114.118 37.74 113.969 37.6495C113.289 37.6222 112.679 37.4037 112.14 36.9939C112.092 36.8405 112.034 36.691 111.967 36.5453C112.069 36.2952 112.184 36.0537 112.313 35.8207C113.445 35.1631 114.664 34.7146 115.971 34.475C117.385 31.3001 119.617 28.8847 122.667 27.2288C127.988 24.5492 133.534 23.9741 139.303 25.5035C140.731 25.9243 142.1 26.4879 143.41 27.1943C143.812 26.6997 144.261 26.2511 144.756 25.8486C145.001 25.6834 145.254 25.5339 145.515 25.4Z" fill="#102087"/>
<path fill-rule="evenodd" clip-rule="evenodd" d="M113.349 36.0264C113.708 35.9569 113.858 36.0949 113.797 36.4405C113.538 36.5876 113.296 36.7602 113.073 36.9581C112.716 37.0616 112.589 36.9351 112.693 36.5785C112.925 36.4039 113.143 36.2198 113.349 36.0264Z" fill="#797EC8"/>
<path fill-rule="evenodd" clip-rule="evenodd" d="M111.899 39.339C112.257 39.2705 112.383 39.4085 112.279 39.7531C112.005 39.9872 111.74 40.2287 111.485 40.4777C111.1 40.5647 110.973 40.4151 111.105 40.0291C111.383 39.8084 111.648 39.5783 111.899 39.339Z" fill="#797EC8"/>
<path fill-rule="evenodd" clip-rule="evenodd" d="M120.528 29.8154C121.923 29.7553 123.303 29.8588 124.669 30.1259C125.061 30.3769 125.188 30.7334 125.049 31.1956C124.872 31.4993 124.607 31.6373 124.255 31.6097C123.385 31.4874 122.511 31.4184 121.632 31.4026C120.517 31.4392 119.413 31.5427 118.319 31.7132C118.774 31.1197 119.28 30.5676 119.837 30.0569C120.057 29.9297 120.287 29.8491 120.528 29.8154Z" fill="#797EC8"/>
<path fill-rule="evenodd" clip-rule="evenodd" d="M126.395 31.0576C127.234 30.9646 127.636 31.3327 127.603 32.1618C127.396 32.689 127.016 32.8615 126.464 32.6794C125.857 32.148 125.834 31.6073 126.395 31.0576Z" fill="#797EC8"/>
<path fill-rule="evenodd" clip-rule="evenodd" d="M148.76 36.8567C148.073 37.1308 147.383 37.4068 146.689 37.6848C145.578 38.0603 144.451 38.3364 143.307 38.513C142.182 38.6179 141.054 38.6869 139.924 38.72C138.864 38.6842 137.805 38.6152 136.749 38.513C136.345 41.1386 135.32 43.4849 133.677 45.5521C132.067 47.4 130.077 48.0096 127.706 47.3809C127.179 47.1866 126.696 46.922 126.257 46.5873C124.909 46.1931 123.758 46.5151 122.805 47.5534C121.943 48.5872 121.701 49.7604 122.081 51.073C122.668 53.0406 123.922 54.3863 125.843 55.1102C126.385 55.2476 126.937 55.3166 127.499 55.3172C127.767 55.5416 127.916 55.8292 127.948 56.1798C128.199 57.7975 128.152 59.4077 127.81 61.0106C127.517 62.1316 126.815 62.8217 125.705 63.081C125.235 63.1277 124.856 62.9667 124.566 62.5979C124.305 61.7545 123.868 61.0183 123.254 60.3895C122.789 59.933 122.317 59.4844 121.839 59.0438C119.881 57.5464 118.051 55.9016 116.351 54.1095C113.383 50.718 111.968 46.7613 112.106 42.2396C111.565 42.1675 111.035 42.041 110.518 41.86C109.99 41.5317 109.817 41.06 110.001 40.4453C110.31 39.5494 110.897 38.9053 111.761 38.513C111.343 38.9433 110.987 39.4264 110.691 39.9622C110.557 40.4032 110.683 40.7367 111.071 40.9629C111.517 41.1629 111.977 41.3239 112.451 41.4459C112.575 41.5001 112.678 41.5806 112.762 41.6875C112.73 42.3761 112.73 43.0663 112.762 43.7578C112.895 44.9536 113.194 46.1038 113.659 47.2084C114.246 48.3822 114.936 49.4864 115.73 50.5209C117.884 52.9731 120.196 55.262 122.667 57.3875C123.613 58.217 124.43 59.1486 125.118 60.1825C125.28 60.3562 125.453 60.5172 125.636 60.6656C125.495 60.1312 125.254 59.6251 124.911 59.1473C124.778 58.7443 124.905 58.6063 125.29 58.7332C125.647 59.2627 125.97 59.8148 126.257 60.3895C126.43 60.271 126.488 60.11 126.429 59.9064C125.846 58.8634 125.11 57.9433 124.221 57.146C124.117 56.7894 124.243 56.6629 124.6 56.7664C124.839 56.9364 125.058 57.1319 125.256 57.353C125.532 57.6751 125.808 57.9971 126.084 58.3192C126.298 58.6761 126.527 59.0212 126.775 59.3543C126.821 59.1933 126.821 59.0323 126.775 58.8713C126.317 58.2412 125.822 57.6431 125.29 57.077C125.335 56.8448 125.473 56.7643 125.705 56.8354C126.11 57.2171 126.489 57.6198 126.844 58.0431C126.879 57.9197 126.857 57.8046 126.775 57.6981C126.446 57.2314 126.066 56.8058 125.636 56.4214C121.91 54.9648 120.564 52.3078 121.597 48.4506C122.435 46.5332 123.896 45.6936 125.981 45.9317C127.071 46.1143 128.164 46.2869 129.26 46.4493C130.726 46.4521 131.877 45.854 132.711 44.655C134.054 42.6823 135.043 40.543 135.679 38.2369C135.798 37.8885 136.016 37.624 136.335 37.4433C137.574 37.5352 138.817 37.5582 140.063 37.5123C142.002 37.327 143.912 36.9819 145.792 36.4771C146.836 36.1833 147.825 35.7692 148.76 35.2349C149.689 34.5859 150.437 33.7692 151.004 32.785C151.505 31.9781 151.69 31.1039 151.556 30.1626C151.41 29.7075 151.122 29.3854 150.693 29.1964C151.926 28.8729 152.651 29.3559 152.867 30.6457C153.004 32.2837 152.521 33.71 151.418 34.9244C150.655 35.7455 149.769 36.3896 148.76 36.8567Z" fill="#0E0553"/>
<path fill-rule="evenodd" clip-rule="evenodd" d="M146.689 35.2004C147 35.1772 147.126 35.3152 147.069 35.6145C145.559 36.3311 143.972 36.6762 142.306 36.6496C142.258 36.5069 142.27 36.3689 142.34 36.2356C143.858 36.138 145.307 35.7929 146.689 35.2004Z" fill="#0E0553"/>
<path fill-rule="evenodd" clip-rule="evenodd" d="M112.313 35.8215C112.185 36.0545 112.069 36.296 111.968 36.5461C112.035 36.6918 112.093 36.8414 112.141 36.9947C112.68 37.4046 113.29 37.6231 113.97 37.6503C114.119 37.7409 114.142 37.8558 114.039 37.9954C113.515 38.0408 112.997 38.1213 112.486 38.2369C112.424 38.2201 112.366 38.1971 112.313 38.1679C111.728 38.0539 111.428 37.6974 111.416 37.0982C111.483 36.5132 111.782 36.0877 112.313 35.8215Z" fill="#0E0553"/>
<path fill-rule="evenodd" clip-rule="evenodd" d="M132.815 40.4453C132.932 40.4343 133.047 40.4457 133.16 40.4798C133.2 40.5414 133.223 40.6104 133.229 40.6868C132.662 41.921 131.903 43.0252 130.951 43.9994C130.594 44.1029 130.468 43.9764 130.571 43.6198C131.468 42.6657 132.216 41.6075 132.815 40.4453Z" fill="#0E0553"/>
<path fill-rule="evenodd" clip-rule="evenodd" d="M134.264 39.6171C134.408 39.6046 134.546 39.6276 134.678 39.6862C134.576 40.5092 134.312 41.2913 133.884 42.0325C133.481 42.1811 133.343 42.0431 133.47 41.6185C133.797 40.9733 134.061 40.3062 134.264 39.6171Z" fill="#0E0553"/>
<path fill-rule="evenodd" clip-rule="evenodd" d="M132.953 42.3086C133.263 42.2854 133.39 42.4234 133.332 42.7226C133.21 43.0313 132.991 43.1578 132.676 43.1022C132.602 42.9831 132.591 42.8566 132.642 42.7226C132.763 42.5949 132.866 42.4569 132.953 42.3086Z" fill="#0E0553"/>
<path fill-rule="evenodd" clip-rule="evenodd" d="M132.124 43.6198C132.38 43.5632 132.541 43.6552 132.607 43.8958C132.018 44.7495 131.282 45.4511 130.399 46.0006C130.042 46.1042 129.915 45.9777 130.019 45.6211C130.869 45.1052 131.57 44.4381 132.124 43.6198Z" fill="#0E0553"/>
<path fill-rule="evenodd" clip-rule="evenodd" d="M129.777 44.3099C130.231 44.2757 130.347 44.4482 130.122 44.8275C129.656 44.8797 129.541 44.7072 129.777 44.3099Z" fill="#0E0553"/>
<path fill-rule="evenodd" clip-rule="evenodd" d="M148.415 30.2317C148.27 30.4114 148.109 30.5839 147.932 30.7492C147.775 30.8016 147.625 30.79 147.483 30.7147C147.514 30.0614 147.549 29.4058 147.587 28.7479C147.592 28.1717 147.511 27.6081 147.345 27.0571C147.082 26.0916 146.473 25.5395 145.516 25.4009C146.235 25.1157 146.949 25.1272 147.656 25.4354C148.198 25.9784 148.508 26.634 148.588 27.4022C148.67 28.3564 148.612 29.2995 148.415 30.2317Z" fill="#0E0553"/>
<path fill-rule="evenodd" clip-rule="evenodd" d="M137.716 26.2979C139.563 26.5494 141.312 27.113 142.962 27.9887C143.11 28.3923 142.972 28.5303 142.548 28.4028C141.016 27.6316 139.405 27.0796 137.716 26.7465C137.628 26.5972 137.628 26.4477 137.716 26.2979Z" fill="#0E0553"/>
<path fill-rule="evenodd" clip-rule="evenodd" d="M134.126 27.0571C136.48 27.0268 138.781 27.3604 141.029 28.0577C141.178 28.3637 141.086 28.5132 140.753 28.5063C139.633 28.2322 138.505 27.9907 137.37 27.7817C136.292 27.6608 135.211 27.5803 134.126 27.5401C134.035 27.3769 134.035 27.2159 134.126 27.0571Z" fill="#0E0553"/>
<path fill-rule="evenodd" clip-rule="evenodd" d="M137.37 28.2303C137.809 28.2696 138.246 28.3271 138.682 28.4028C138.931 28.4773 139 28.6269 138.889 28.8514C138.778 28.8912 138.663 28.9142 138.544 28.9204C138.159 28.8267 137.768 28.7691 137.37 28.7479C137.192 28.5758 137.192 28.4032 137.37 28.2303Z" fill="#0E0553"/>
<path fill-rule="evenodd" clip-rule="evenodd" d="M141.719 28.5063C142.143 28.5426 142.236 28.7382 141.995 29.0929C141.65 29.1387 141.524 28.9892 141.616 28.6443C141.665 28.6068 141.7 28.5608 141.719 28.5063Z" fill="#0E0553"/>
<path fill-rule="evenodd" clip-rule="evenodd" d="M139.441 28.7134C140.182 28.7875 140.883 28.9946 141.547 29.3345C141.625 29.5661 141.545 29.7042 141.305 29.7485C140.709 29.5533 140.11 29.3577 139.51 29.1619C139.36 29.0309 139.336 28.8815 139.441 28.7134Z" fill="#0E0553"/>
<path fill-rule="evenodd" clip-rule="evenodd" d="M148.829 34.1652C149.257 34.1524 149.35 34.3249 149.105 34.6828C148.772 34.9072 148.427 35.1143 148.07 35.3039C147.645 35.4314 147.507 35.2934 147.656 34.8898C148.075 34.6811 148.465 34.4396 148.829 34.1652Z" fill="#0E0553"/>
<path d="M70.226 162.332H64.1625M58.0989 155.742V154.644C58.0989 153.124 57.6544 151.638 56.8216 150.374C55.9887 149.109 54.805 148.124 53.42 147.542C52.0351 146.96 50.5111 146.808 49.0408 147.105C47.5706 147.401 46.22 148.134 45.16 149.209C44.1 150.284 43.3782 151.653 43.0857 153.145C42.7933 154.636 42.9434 156.182 43.517 157.586C44.0907 158.991 45.0622 160.192 46.3086 161.036C47.555 161.881 49.0204 162.332 50.5195 162.332H55.0672M67.1943 180.781H64.1625M33.8448 190.006V191.544C33.8448 193.672 33.2224 195.753 32.0565 197.523C30.8905 199.293 29.2332 200.672 27.2943 201.487C25.3553 202.301 23.2218 202.515 21.1634 202.099C19.105 201.684 17.2143 200.659 15.7303 199.154C14.2463 197.649 13.2357 195.731 12.8262 193.643C12.4168 191.556 12.6269 189.392 13.4301 187.425C14.2332 185.459 15.5933 183.778 17.3383 182.595C19.0833 181.413 21.1349 180.781 23.2336 180.781H52.0354M73.2578 171.557H55.0672M33.8448 162.332V160.794C33.8448 158.666 33.2224 156.585 32.0565 154.815C30.8905 153.045 29.2332 151.666 27.2943 150.851C25.3553 150.037 23.2218 149.824 21.1634 150.239C19.105 150.654 17.2143 151.679 15.7303 153.184C14.2463 154.689 13.2357 156.607 12.8262 158.695C12.4168 160.782 12.6269 162.946 13.4301 164.913C14.2332 166.879 15.5933 168.56 17.3383 169.743C19.0833 170.925 21.1349 171.557 23.2336 171.557H42.1821" stroke="white" stroke-width="6" stroke-linecap="round"/>
<ellipse opacity="0.7" cx="147.085" cy="297.461" rx="77.1125" ry="11.2016" fill="#0E001C" fill-opacity="0.25"/>
<defs>
<filter id="filter0_i_2006_16912" x="141.193" y="169.584" width="18.1328" height="14.5605" filterUnits="userSpaceOnUse" color-interpolation-filters="sRGB">
<feFlood flood-opacity="0" result="BackgroundImageFix"/>
<feBlend mode="normal" in="SourceGraphic" in2="BackgroundImageFix" result="shape"/>
<feColorMatrix in="SourceAlpha" type="matrix" values="0 0 0 0 0 0 0 0 0 0 0 0 0 0 0 0 0 0 127 0" result="hardAlpha"/>
<feOffset dx="0.3"/>
<feComposite in2="hardAlpha" operator="arithmetic" k2="-1" k3="1"/>
<feColorMatrix type="matrix" values="0 0 0 0 0 0 0 0 0 0 0 0 0 0 0 0 0 0 0.05 0"/>
<feBlend mode="normal" in2="shape" result="effect1_innerShadow_2006_16912"/>
</filter>
<linearGradient id="paint0_linear_2006_16912" x1="153.625" y1="176.709" x2="166.525" y2="175.902" gradientUnits="userSpaceOnUse">
<stop stop-color="#7220A2"/>
<stop offset="1" stop-color="#4E0B73"/>
</linearGradient>
</defs>
</svg>
