<svg width="148" height="157" viewBox="0 0 148 157" fill="none" xmlns="http://www.w3.org/2000/svg">
<g filter="url(#filter0_d_1772_11646)">
<path d="M46.0333 77.5005C48.4467 74.7005 54.4132 79.6671 57.0948 82.5005V54.5C57.0948 49.4996 56.0886 44.0004 63.6306 43.5004C71.1726 43.0004 70.167 56.0004 70.167 59.5004C70.167 63.0004 73.1838 65.0004 75.6978 66.0004C78.2118 67.0004 85.2509 68.0004 89.7761 68.5004C94.3013 69.0004 98.8265 70.5004 102.849 72.5004C106.871 74.5004 104.86 88.0004 104.357 90.5004C103.854 93.0004 98.3237 113 96.8153 113.5C95.3069 114 66.1446 114 63.6306 113.5C61.1166 113 51.0612 99.5004 46.0333 91.5004C41.0053 83.5004 43.0165 81.0005 46.0333 77.5005Z" fill="white"/>
<path d="M93.8672 66.9742C90.9357 63.2493 85.9448 62.17 81.8552 64.1021C79.5803 61.7429 76.4138 60.7202 73.3439 61.15V50.0762C73.3439 44.5201 68.8719 40 63.3751 40C57.8783 40 53.4063 44.5201 53.4063 50.0762V74.3085C50.4122 73.1941 46.8986 73.5424 44.0696 75.6427C39.6549 78.9205 38.6867 85.1674 41.8814 89.6519L58.3791 112.812C60.2474 115.434 63.2716 117 66.4688 117H93.2813C97.9137 117 101.94 113.767 102.99 109.21L107.115 91.3139C107.288 90.5639 107.375 89.7969 107.375 89.0273V76.3945C107.375 69.3496 100.363 64.4726 93.8672 66.9742ZM52.1794 82.0638L56.2589 87.7905C57.6117 89.6894 60.6249 88.736 60.6249 86.3945V50.0762C60.6249 46.2984 66.1248 46.2923 66.1248 50.0762V76.3945C66.1248 77.7234 67.2021 78.8008 68.5311 78.8008H69.5623C70.8913 78.8008 71.9686 77.7234 71.9686 76.3945V71.1309C71.9686 67.353 77.4685 67.347 77.4685 71.1309V76.3945C77.4685 77.7234 78.5457 78.8008 79.8747 78.8008H80.9063C82.2353 78.8008 83.3125 77.7234 83.3125 76.3945V73.2363C83.3125 69.4585 88.8125 69.4525 88.8125 73.2363V76.3945C88.8125 77.7234 89.8897 78.8008 91.2187 78.8008H92.2499C93.5789 78.8008 94.6562 77.7234 94.6562 76.3945C94.6562 72.6166 100.156 72.6107 100.156 76.3945V89.0273C100.156 89.2511 100.131 89.4751 100.081 89.6925L95.9554 107.589C95.6579 108.88 94.5583 109.781 93.2812 109.781H66.4688C65.6012 109.781 64.7749 109.348 64.2585 108.624L47.7588 85.4635C45.5923 82.4222 50.0138 79.0241 52.1794 82.0638ZM66.4903 100.156V85.7188C66.4903 84.3897 67.4329 83.3125 68.5958 83.3125H69.4981C70.6609 83.3125 71.6036 84.3897 71.6036 85.7188V100.156C71.6036 101.485 70.6609 102.562 69.4981 102.562H68.5958C67.4328 102.562 66.4903 101.485 66.4903 100.156ZM77.8339 100.156V85.7188C77.8339 84.3897 78.7766 83.3125 79.9394 83.3125H80.8418C82.0046 83.3125 82.9472 84.3897 82.9472 85.7188V100.156C82.9472 101.485 82.0046 102.562 80.8418 102.562H79.9394C78.7766 102.562 77.8339 101.485 77.8339 100.156ZM89.1778 100.156V85.7188C89.1778 84.3897 90.1204 83.3125 91.2832 83.3125H92.1856C93.3484 83.3125 94.291 84.3897 94.291 85.7188V100.156C94.291 101.485 93.3484 102.562 92.1856 102.562H91.2832C90.1204 102.562 89.1778 101.485 89.1778 100.156Z" fill="#B885D8"/>
</g>
<defs>
<filter id="filter0_d_1772_11646" x="0" y="0" width="147.375" height="157" filterUnits="userSpaceOnUse" color-interpolation-filters="sRGB">
<feFlood flood-opacity="0" result="BackgroundImageFix"/>
<feColorMatrix in="SourceAlpha" type="matrix" values="0 0 0 0 0 0 0 0 0 0 0 0 0 0 0 0 0 0 127 0" result="hardAlpha"/>
<feOffset/>
<feGaussianBlur stdDeviation="20"/>
<feComposite in2="hardAlpha" operator="out"/>
<feColorMatrix type="matrix" values="0 0 0 0 0.592157 0 0 0 0 0.278431 0 0 0 0 1 0 0 0 0.5 0"/>
<feBlend mode="normal" in2="BackgroundImageFix" result="effect1_dropShadow_1772_11646"/>
<feBlend mode="normal" in="SourceGraphic" in2="effect1_dropShadow_1772_11646" result="shape"/>
</filter>
</defs>
</svg>
