<svg width="24" height="24" viewBox="0 0 24 24" fill="none" xmlns="http://www.w3.org/2000/svg">
<path fill-rule="evenodd" clip-rule="evenodd" d="M4.16841 9.73768C4.16841 7.68552 4.99352 5.71741 6.46223 4.26631C7.93094 2.81522 9.92293 2 12 2C14.0771 2 16.0691 2.81522 17.5378 4.26631C19.0065 5.71741 19.8316 7.68552 19.8316 9.73768V13.8983L21.87 17.9264C21.9639 18.1117 22.0082 18.3178 21.9988 18.5248C21.9893 18.7319 21.9265 18.9332 21.8162 19.1095C21.7059 19.2858 21.5518 19.4313 21.3685 19.5323C21.1853 19.6332 20.9789 19.6862 20.7691 19.6861H16.3342C16.0854 20.6348 15.5247 21.475 14.7402 22.0748C13.9558 22.6746 12.9919 23 12 23C11.0081 23 10.0442 22.6746 9.25977 22.0748C8.47531 21.475 7.91464 20.6348 7.66578 19.6861H3.23086C3.02106 19.6862 2.81474 19.6332 2.63148 19.5323C2.44823 19.4313 2.29413 19.2858 2.18383 19.1095C2.07352 18.9332 2.01067 18.7319 2.00124 18.5248C1.99182 18.3178 2.03613 18.1117 2.12996 17.9264L4.16841 13.8983V9.73768ZM10.0622 19.6861C10.2586 20.0222 10.5411 20.3012 10.8813 20.4953C11.2214 20.6893 11.6072 20.7914 12 20.7914C12.3928 20.7914 12.7786 20.6893 13.1187 20.4953C13.4589 20.3012 13.7414 20.0222 13.9378 19.6861H10.0622ZM12 4.21077C10.5164 4.21077 9.09353 4.79306 8.04445 5.82956C6.99537 6.86606 6.40601 8.27185 6.40601 9.73768V13.8983C6.40599 14.2414 6.32517 14.5797 6.16994 14.8866L4.86095 17.4754H19.1402L17.8312 14.8866C17.6756 14.5798 17.5944 14.2415 17.594 13.8983V9.73768C17.594 8.27185 17.0046 6.86606 15.9555 5.82956C14.9065 4.79306 13.4836 4.21077 12 4.21077Z" fill="white"/>
</svg>
