<svg width="24" height="24" viewBox="0 0 24 24" fill="none" xmlns="http://www.w3.org/2000/svg">
<path fill-rule="evenodd" clip-rule="evenodd" d="M18.9599 3.07265C19.2875 3.21439 19.5 3.53987 19.5 3.90002V20.1C19.5 20.5971 19.1013 21 18.6094 21H17.7188C17.2269 21 16.8281 20.5971 16.8281 20.1V17.4C16.8281 16.9029 17.2269 16.5 17.7188 16.5V15.6H14.1562C13.6665 15.6 13.2687 15.2005 13.2656 14.7056C13.2553 13.0368 13.2925 11.2437 13.9212 9.32524C14.5541 7.39365 15.7628 5.40017 17.9946 3.24879C18.2525 3.0002 18.6322 2.93091 18.9599 3.07265ZM17.7188 13.8V6.17363C16.6273 7.50898 15.9903 8.73705 15.6121 9.89106C15.1787 11.2139 15.0694 12.4834 15.0494 13.8H17.7188ZM6.14062 3.90002C6.6325 3.90002 7.03125 4.30296 7.03125 4.80002V7.50002C7.03125 7.97741 7.21892 8.43524 7.55297 8.77281C7.66401 8.88502 7.7882 8.98088 7.92188 9.05887V4.80002C7.92188 4.30296 8.32062 3.90002 8.8125 3.90002C9.30438 3.90002 9.70312 4.30296 9.70312 4.80002V9.05887C9.8368 8.98088 9.961 8.88502 10.072 8.77281C10.4061 8.43524 10.5938 7.97741 10.5938 7.50002V4.80002C10.5938 4.30296 10.9925 3.90002 11.4844 3.90002C11.9763 3.90002 12.375 4.30296 12.375 4.80002V7.50002C12.375 8.45479 11.9997 9.37047 11.3316 10.0456C10.8778 10.5042 10.3141 10.8263 9.70312 10.9857V20.1C9.70312 20.5971 9.30438 21 8.8125 21C8.32062 21 7.92188 20.5971 7.92188 20.1V10.9857C7.31088 10.8263 6.74724 10.5042 6.29343 10.0456C5.62533 9.37047 5.25 8.45479 5.25 7.50002V4.80002C5.25 4.30296 5.64875 3.90002 6.14062 3.90002Z" fill="white"/>
</svg>
