<svg width="24" height="24" viewBox="0 0 24 24" fill="none" xmlns="http://www.w3.org/2000/svg">
<path fill-rule="evenodd" clip-rule="evenodd" d="M6.47268 5.95392C9.9442 3.46796 14.9542 3.67988 18.1433 6.42582L6.47268 5.95392ZM18.1435 6.42595C21.2809 9.12851 21.6755 13.423 19.1396 16.5298C16.5544 19.697 11.6735 20.7072 7.7456 18.782C7.52552 18.6741 7.27608 18.6435 7.03679 18.6949L3.74956 19.401L4.57102 16.9129C4.67909 16.5856 4.63022 16.2261 4.4388 15.9403C2.24183 12.6599 3.04994 8.40616 6.47251 5.95404M5.20062 4.14361C9.4807 1.07849 15.6034 1.32159 19.57 4.73711L19.5702 4.73724C23.5886 8.19854 24.1612 13.8678 20.8361 17.9414C17.6398 21.8572 11.8508 23.0613 7.13531 20.943L2.32799 21.9757C1.94238 22.0585 1.54236 21.9265 1.27965 21.6297C1.01693 21.3329 0.931758 20.9168 1.05643 20.5392L2.32018 16.7114C-0.206876 12.4378 1.02665 7.13393 5.20045 4.14373L5.20062 4.14361Z" fill="white"/>
</svg>
