<svg width="24" height="24" viewBox="0 0 24 24" fill="none" xmlns="http://www.w3.org/2000/svg">
<path d="M22 20.2692L16.0346 14.3029C16.996 12.9818 17.5131 11.3896 17.5115 9.75577C17.5115 5.47933 14.0322 2 9.75577 2C5.47933 2 2 5.47933 2 9.75577C2 14.0322 5.47933 17.5115 9.75577 17.5115C11.3896 17.5131 12.9818 16.996 14.3029 16.0346L20.2692 22L22 20.2692ZM9.75577 15.062C8.70616 15.0621 7.68009 14.7509 6.80733 14.1679C5.93457 13.5848 5.25431 12.756 4.8526 11.7863C4.45089 10.8166 4.34576 9.74956 4.5505 8.72011C4.75525 7.69066 5.26067 6.74505 6.00286 6.00286C6.74505 5.26067 7.69066 4.75525 8.72011 4.5505C9.74956 4.34576 10.8166 4.45089 11.7863 4.8526C12.756 5.25431 13.5848 5.93457 14.1679 6.80733C14.7509 7.68009 15.0621 8.70616 15.062 9.75577C15.0604 11.1626 14.5008 12.5113 13.506 13.506C12.5113 14.5008 11.1626 15.0604 9.75577 15.062Z" fill="white"/>
</svg>
