<svg width="24" height="24" viewBox="0 0 24 24" fill="none" xmlns="http://www.w3.org/2000/svg">
<path fill-rule="evenodd" clip-rule="evenodd" d="M10.3026 22.0978C9.85247 21.6478 9.59961 21.0373 9.59961 20.4008C9.59961 19.7643 9.85247 19.1538 10.3026 18.7037C10.7526 18.2536 11.3631 18.0008 11.9996 18.0008C12.6361 18.0008 13.2466 18.2536 13.6967 18.7037C14.1468 19.1538 14.3996 19.7643 14.3996 20.4008C14.3996 21.0373 14.1468 21.6478 13.6967 22.0978C13.2466 22.5479 12.6361 22.8008 11.9996 22.8008C11.3631 22.8008 10.7526 22.5479 10.3026 22.0978ZM10.3026 13.6978C9.85247 13.2478 9.59961 12.6373 9.59961 12.0008C9.59961 11.3643 9.85247 10.7538 10.3026 10.3037C10.7526 9.85364 11.3631 9.60078 11.9996 9.60078C12.6361 9.60078 13.2466 9.85364 13.6967 10.3037C14.1468 10.7538 14.3996 11.3643 14.3996 12.0008C14.3996 12.6373 14.1468 13.2478 13.6967 13.6978C13.2466 14.1479 12.6361 14.4008 11.9996 14.4008C11.3631 14.4008 10.7526 14.1479 10.3026 13.6978ZM10.3026 5.29784C9.85247 4.84775 9.59961 4.2373 9.59961 3.60078C9.59961 2.96426 9.85246 2.35381 10.3026 1.90372C10.7526 1.45364 11.3631 1.20078 11.9996 1.20078C12.6361 1.20078 13.2466 1.45364 13.6967 1.90372C14.1468 2.35381 14.3996 2.96426 14.3996 3.60078C14.3996 4.2373 14.1468 4.84775 13.6967 5.29784C13.2466 5.74793 12.6361 6.00078 11.9996 6.00078C11.3631 6.00078 10.7526 5.74793 10.3026 5.29784Z" fill="white"/>
</svg>
