<svg width="24" height="24" viewBox="0 0 24 24" fill="none" xmlns="http://www.w3.org/2000/svg">
<path d="M19.5 4H4.5C3.83718 4.00072 3.2017 4.26913 2.73302 4.74634C2.26433 5.22355 2.00071 5.87058 2 6.54545V17.4545C2.00071 18.1294 2.26433 18.7764 2.73302 19.2537C3.2017 19.7309 3.83718 19.9993 4.5 20H19.5C20.1628 19.9993 20.7983 19.7309 21.267 19.2537C21.7357 18.7764 21.9993 18.1294 22 17.4545V6.54545C21.9993 5.87058 21.7357 5.22355 21.267 4.74634C20.7983 4.26913 20.1628 4.00072 19.5 4ZM18.867 8.21045L12.4384 13.3014C12.313 13.4006 12.1588 13.4545 12 13.4545C11.8412 13.4545 11.687 13.4006 11.5616 13.3014L5.13304 8.21045C5.05751 8.15238 4.99407 8.0796 4.9464 7.99634C4.89873 7.91309 4.86779 7.82102 4.85538 7.72548C4.84296 7.62995 4.84932 7.53285 4.87408 7.43984C4.89884 7.34683 4.9415 7.25975 4.9996 7.18367C5.05769 7.1076 5.13006 7.04403 5.21249 6.99668C5.29492 6.94932 5.38577 6.91912 5.47977 6.90782C5.57376 6.89653 5.66903 6.90436 5.76002 6.93088C5.85102 6.95739 5.93593 7.00206 6.00982 7.06227L12 11.8059L17.9902 7.06227C18.14 6.9471 18.3283 6.89659 18.5143 6.92166C18.7004 6.94673 18.8693 7.04536 18.9845 7.19624C19.0997 7.34711 19.152 7.5381 19.13 7.72789C19.108 7.91769 19.0135 8.09104 18.867 8.21045Z" fill="white"/>
</svg>
