<svg width="24" height="24" viewBox="0 0 24 24" fill="none" xmlns="http://www.w3.org/2000/svg">
<path fill-rule="evenodd" clip-rule="evenodd" d="M21.5606 4.4929C21.8419 4.80824 22 5.23587 22 5.68176C22 6.12765 21.8419 6.55529 21.5606 6.87063L10.3115 19.4745C10.1628 19.6411 9.9863 19.7733 9.79205 19.8634C9.5978 19.9536 9.3896 20 9.17934 20C8.96908 20 8.76088 19.9536 8.56663 19.8634C8.37238 19.7733 8.19588 19.6411 8.04722 19.4745L2.45818 13.2135C2.31484 13.0584 2.2005 12.8728 2.12185 12.6677C2.04319 12.4625 2.00179 12.2418 2.00006 12.0186C1.99832 11.7953 2.0363 11.5739 2.11176 11.3672C2.18722 11.1605 2.29866 10.9728 2.43958 10.8149C2.5805 10.657 2.74806 10.5322 2.93251 10.4476C3.11695 10.3631 3.31458 10.3205 3.51386 10.3225C3.71314 10.3244 3.91007 10.3708 4.09318 10.4589C4.27628 10.547 4.44189 10.6751 4.58034 10.8358L9.17884 15.9881L19.4374 4.4929C19.5768 4.33664 19.7423 4.21268 19.9244 4.1281C20.1066 4.04353 20.3018 4 20.499 4C20.6962 4 20.8914 4.04353 21.0736 4.1281C21.2557 4.21268 21.4212 4.33664 21.5606 4.4929Z" fill="white"/>
</svg>
