<svg width="24" height="24" viewBox="0 0 24 24" fill="none" xmlns="http://www.w3.org/2000/svg">
<path d="M1.61669 8.7221C1.61669 8.7221 1.65107 8.66964 1.66513 8.64906C1.70445 8.59164 1.74478 8.53504 1.78609 8.47931C1.89121 8.337 2.04592 8.13922 2.25231 7.90459C2.66481 7.4356 3.28529 6.8177 4.13013 6.202C5.82456 4.96714 8.41031 3.75 12 3.75C15.5897 3.75 18.1754 4.96714 19.8698 6.202C20.7147 6.8177 21.3352 7.4356 21.7477 7.90459C21.9541 8.13922 22.1088 8.337 22.2139 8.47931C22.2665 8.55047 22.3067 8.60781 22.3348 8.64906C22.3489 8.66969 22.36 8.68617 22.368 8.69852L22.3779 8.71363L22.3823 8.72062L22.3829 8.72138L22.3833 8.7221C22.4719 8.86191 22.5121 9.03155 22.4968 9.20076C22.4816 9.36998 22.4118 9.52778 22.3001 9.64601L20.7952 11.2377C20.7306 11.306 20.6539 11.3591 20.5697 11.3937C20.4856 11.4283 20.3958 11.4436 20.3061 11.4386C20.2163 11.4337 20.1284 11.4087 20.0478 11.3651C19.9673 11.3215 19.8958 11.2603 19.8377 11.1853L19.8372 11.1846L19.836 11.1831L19.8341 11.1807C19.8303 11.1759 19.8237 11.1677 19.8143 11.1561C19.7848 11.1201 19.7547 11.0845 19.7242 11.0495C19.6418 10.9546 19.5152 10.815 19.3457 10.6455C19.0063 10.3061 18.4971 9.84899 17.8282 9.39089C16.4912 8.47509 14.5257 7.56114 12 7.56114C9.47425 7.56114 7.50883 8.47509 6.17176 9.39089C5.50292 9.84899 4.99371 10.3061 4.65431 10.6455C4.48475 10.815 4.35817 10.9546 4.27577 11.0495C4.24525 11.0845 4.21521 11.1201 4.18566 11.1561L4.16589 11.1807L4.16241 11.1851C4.10438 11.2602 4.03274 11.3215 3.95218 11.3651C3.87162 11.4087 3.78372 11.4337 3.69394 11.4386C3.60417 11.4436 3.51442 11.4283 3.43028 11.3937C3.34613 11.3591 3.26938 11.306 3.20477 11.2377L1.69991 9.64601C1.58813 9.52777 1.5184 9.36997 1.50316 9.20076C1.48792 9.03154 1.52815 8.8619 1.61669 8.7221Z" fill="white"/>
<path d="M5.22885 12.6215L5.23176 12.6164C5.23932 12.603 5.25451 12.5762 5.26215 12.5632C5.28609 12.5232 5.31085 12.4837 5.33639 12.4449C5.40005 12.3479 5.49278 12.2164 5.6178 12.0622C5.86795 11.7537 6.24788 11.3537 6.78334 10.9575C7.86086 10.1603 9.54036 9.39945 11.9999 9.39945C14.4595 9.39945 16.139 10.1603 17.2165 10.9575C17.752 11.3537 18.1319 11.7537 18.3821 12.0622C18.5071 12.2164 18.5999 12.3479 18.6635 12.4449C18.6891 12.4837 18.7138 12.5232 18.7377 12.5632C18.7466 12.5782 18.7538 12.5906 18.7593 12.6004L18.771 12.6215C18.8462 12.7606 18.8762 12.9232 18.8563 13.0832C18.8363 13.2432 18.7676 13.3912 18.6612 13.5032L17.2129 15.0277C17.1495 15.0945 17.0743 15.1466 16.992 15.181C16.9097 15.2154 16.8219 15.2313 16.7338 15.2278C16.6457 15.2243 16.5592 15.2014 16.4794 15.1606C16.3996 15.1197 16.3281 15.0617 16.2693 14.99L16.2613 14.9806C16.2528 14.9708 16.2381 14.9541 16.2172 14.9315C16.1534 14.8627 16.0873 14.7963 16.0191 14.7326C15.8385 14.5629 15.5641 14.3314 15.2006 14.0985C14.4749 13.6337 13.3989 13.1658 11.9999 13.1658C10.601 13.1658 9.52498 13.6337 8.79925 14.0985C8.43577 14.3314 8.16134 14.5629 7.98079 14.7326C7.91262 14.7963 7.84653 14.8627 7.78264 14.9315C7.76496 14.9506 7.74761 14.9701 7.73059 14.99C7.67172 15.0616 7.59993 15.1199 7.52014 15.1607C7.44036 15.2015 7.35387 15.2243 7.26585 15.2278C7.17782 15.2313 7.09005 15.2153 7.00778 15.181C6.9255 15.1466 6.8504 15.0944 6.78695 15.0277L5.33869 13.5032C5.23228 13.3912 5.16355 13.2432 5.14362 13.0832C5.12368 12.9232 5.15371 12.7606 5.22885 12.6215Z" fill="white"/>
<path d="M8.91175 16.3834C8.9256 16.3627 8.93981 16.3423 8.95436 16.3222C9.00134 16.2576 9.05085 16.1952 9.10276 16.1353C9.2304 15.9872 9.41817 15.7973 9.67164 15.6095C10.1836 15.2304 10.9517 14.8696 12 14.8696C13.0484 14.8696 13.8165 15.2304 14.3284 15.6095C14.5819 15.7973 14.7696 15.9872 14.8973 16.1353C14.9492 16.1952 14.9987 16.2576 15.0457 16.3222L15.1107 16.4183C15.1971 16.558 15.2357 16.7266 15.2197 16.8944C15.2037 17.0622 15.1341 17.2185 15.0231 17.3358L12.4561 20.0484C12.2018 20.3172 11.7983 20.3172 11.5439 20.0484L8.97688 17.3358C8.86592 17.2185 8.79631 17.0623 8.78029 16.8945C8.76426 16.7267 8.80285 16.5581 8.88927 16.4183L8.91175 16.3834Z" fill="white"/>
</svg>
