<svg width="24" height="24" viewBox="0 0 24 24" fill="none" xmlns="http://www.w3.org/2000/svg">
<path d="M13.4501 15.6591V13.3854C13.4501 13.2018 13.3737 13.0257 13.2378 12.8958C13.1018 12.766 12.9175 12.6931 12.7252 12.6931H11.2755C11.0832 12.6931 10.8989 12.766 10.7629 12.8958C10.627 13.0257 10.5506 13.2018 10.5506 13.3854V15.6577C9.44894 15.9269 8.45473 16.5002 7.69229 17.306C6.92984 18.1119 6.43297 19.1145 6.2638 20.1886C6.24727 20.2887 6.25362 20.391 6.28243 20.4886C6.31124 20.5861 6.36182 20.6765 6.4307 20.7536C6.49957 20.8307 6.5851 20.8927 6.68142 20.9352C6.77774 20.9777 6.88255 20.9998 6.98866 21H17.0236C17.1298 20.9998 17.2346 20.9777 17.3309 20.9352C17.4272 20.8927 17.5127 20.8307 17.5816 20.7536C17.6505 20.6765 17.7011 20.5861 17.7299 20.4886C17.7587 20.391 17.765 20.2887 17.7485 20.1886C17.5782 19.1133 17.0795 18.11 16.3149 17.3043C15.5503 16.4985 14.5537 15.9263 13.4501 15.6591ZM20.1753 10.3099L16.551 3.38634C16.4914 3.2707 16.3991 3.17327 16.2846 3.10502C16.1701 3.03676 16.038 3.00039 15.903 3H8.0977C7.96344 3.00026 7.8319 3.03613 7.71774 3.10361C7.60357 3.17109 7.51127 3.26753 7.45112 3.38218L3.82682 10.3058C3.7716 10.411 3.74539 10.528 3.75066 10.6456C3.75593 10.7632 3.79251 10.8776 3.85694 10.9779C3.92137 11.0783 4.01152 11.1613 4.11888 11.2191C4.22624 11.2769 4.34725 11.3076 4.47049 11.3083H16.3495V13.3854C16.3495 13.569 16.4259 13.7451 16.5618 13.875C16.6978 14.0048 16.8821 14.0778 17.0744 14.0778C17.2666 14.0778 17.451 14.0048 17.5869 13.875C17.7229 13.7451 17.7992 13.569 17.7992 13.3854V11.3083H19.5302C19.653 11.3075 19.7735 11.2769 19.8805 11.2194C19.9875 11.1619 20.0775 11.0794 20.142 10.9796C20.2065 10.8798 20.2433 10.766 20.2492 10.6489C20.255 10.5318 20.2296 10.4151 20.1753 10.3099Z" fill="white"/>
</svg>
