<svg width="24" height="24" viewBox="0 0 24 24" fill="none" xmlns="http://www.w3.org/2000/svg">
<path d="M13.6698 16.8788V13.8472C13.6698 13.6024 13.5818 13.3676 13.4253 13.1945C13.2688 13.0213 13.0565 12.9241 12.8351 12.9241H11.1657C10.9443 12.9241 10.732 13.0213 10.5755 13.1945C10.419 13.3676 10.331 13.6024 10.331 13.8472V16.877C9.06242 17.2358 7.91757 18.0002 7.0396 19.0747C6.16163 20.1491 5.58949 21.486 5.39468 22.9181C5.37564 23.0516 5.38296 23.188 5.41614 23.3181C5.44931 23.4481 5.50755 23.5687 5.58686 23.6715C5.66617 23.7743 5.76467 23.8569 5.87558 23.9136C5.98649 23.9703 6.10718 23.9998 6.22937 24H17.7848C17.907 23.9998 18.0277 23.9703 18.1386 23.9136C18.2495 23.8569 18.348 23.7743 18.4273 23.6715C18.5066 23.5687 18.5649 23.4481 18.598 23.3181C18.6312 23.188 18.6385 23.0516 18.6195 22.9181C18.4234 21.4844 17.8492 20.1466 16.9687 19.0723C16.0882 17.998 14.9406 17.235 13.6698 16.8788ZM21.414 9.7466L17.2406 0.515117C17.1719 0.360937 17.0656 0.231029 16.9338 0.140021C16.802 0.0490124 16.6498 0.000518613 16.4944 0H7.50644C7.35185 0.000347881 7.20037 0.0481753 7.06891 0.13815C6.93745 0.228126 6.83116 0.356713 6.7619 0.509578L2.58846 9.74106C2.52488 9.88138 2.49469 10.0373 2.50076 10.1941C2.50683 10.3509 2.54895 10.5035 2.62315 10.6373C2.69734 10.7711 2.80115 10.8817 2.92477 10.9588C3.0484 11.0359 3.18775 11.0768 3.32966 11.0778H17.0085V13.8472C17.0085 14.0921 17.0965 14.3269 17.253 14.5C17.4096 14.6731 17.6219 14.7704 17.8432 14.7704C18.0646 14.7704 18.2769 14.6731 18.4334 14.5C18.59 14.3269 18.6779 14.0921 18.6779 13.8472V11.0778H20.6712C20.8125 11.0767 20.9513 11.0359 21.0745 10.9592C21.1978 10.8826 21.3014 10.7726 21.3756 10.6395C21.4499 10.5064 21.4923 10.3547 21.4991 10.1985C21.5058 10.0424 21.4765 9.88685 21.414 9.7466Z" fill="white"/>
</svg>
