<svg width="24" height="24" viewBox="0 0 24 24" fill="none" xmlns="http://www.w3.org/2000/svg">
<path d="M17.9543 5.61189C17.3082 5.05081 16.4732 4.75572 15.618 4.78616C14.7628 4.8166 13.9509 5.1703 13.3463 5.77589L6.56031 12.5599C6.42298 12.7073 6.25738 12.8255 6.07338 12.9075C5.88938 12.9894 5.69076 13.0335 5.48935 13.0371C5.28795 13.0406 5.08789 13.0036 4.90111 12.9281C4.71434 12.8527 4.54467 12.7404 4.40223 12.598C4.25979 12.4555 4.1475 12.2859 4.07206 12.0991C3.99662 11.9123 3.95957 11.7123 3.96312 11.5108C3.96668 11.3094 4.01076 11.1108 4.09275 10.9268C4.17473 10.7428 4.29293 10.5772 4.44031 10.4399L11.2243 3.65589C11.8218 3.05864 12.532 2.58593 13.3135 2.26516C14.0951 1.94439 14.9326 1.78194 15.7774 1.78723C16.6222 1.79253 17.4576 1.96545 18.2351 2.29599C19.0126 2.62652 19.7168 3.10809 20.3068 3.71278C20.8968 4.31748 21.3609 5.03326 21.6722 5.81865C21.9835 6.60404 22.1358 7.44341 22.1204 8.28811C22.1049 9.1328 21.9219 9.96603 21.582 10.7395C21.2421 11.5129 20.7521 12.2112 20.1403 12.7939L10.6923 21.7859C10.3308 22.1386 9.90331 22.4167 9.43432 22.6042C8.96533 22.7917 8.46399 22.8851 7.95893 22.8788C6.93892 22.8663 5.96568 22.449 5.25331 21.7189C4.54094 20.9888 4.14779 20.0055 4.16035 18.9855C4.17292 17.9655 4.59017 16.9923 5.32031 16.2799L13.8063 7.79189C13.9447 7.64869 14.1103 7.5345 14.2934 7.45597C14.4764 7.37745 14.6733 7.33616 14.8724 7.33453C15.0716 7.33289 15.2691 7.37094 15.4534 7.44644C15.6377 7.52195 15.8051 7.63341 15.9459 7.77432C16.0867 7.91522 16.198 8.08275 16.2733 8.26713C16.3486 8.45151 16.3865 8.64904 16.3847 8.84821C16.3829 9.04738 16.3414 9.24419 16.2627 9.42716C16.184 9.61013 16.0696 9.77559 15.9263 9.91389L7.44631 18.4019C7.29795 18.5609 7.21652 18.7709 7.21891 18.9884C7.22131 19.2058 7.30736 19.414 7.45919 19.5697C7.61102 19.7254 7.81698 19.8166 8.0343 19.8245C8.25163 19.8323 8.46363 19.7562 8.62631 19.6119L18.0703 10.6199C18.4125 10.295 18.683 9.90211 18.8642 9.46642C19.0454 9.03073 19.1334 8.56192 19.1224 8.09018C19.1115 7.61843 19.0019 7.15421 18.8007 6.72737C18.5995 6.30054 18.3112 5.92056 17.9543 5.61189Z" fill="white"/>
</svg>
