<svg width="24" height="24" viewBox="0 0 24 24" fill="none" xmlns="http://www.w3.org/2000/svg">
<path d="M21.7893 1.48027L22.3793 2.07027C23.1923 2.88427 23.0693 4.32727 22.1023 5.29327L9.9353 17.4603L5.9933 18.9023C5.4983 19.0843 5.0163 18.8483 4.9183 18.3773C4.88529 18.2064 4.90088 18.0297 4.9633 17.8673L6.4333 13.8913L18.5663 1.75727C19.5333 0.791269 20.9763 0.666269 21.7893 1.48027ZM9.4043 2.69027C9.53562 2.69027 9.66565 2.71614 9.78698 2.76639C9.90831 2.81664 10.0185 2.8903 10.1114 2.98316C10.2043 3.07602 10.2779 3.18626 10.3282 3.30759C10.3784 3.42891 10.4043 3.55895 10.4043 3.69027C10.4043 3.82159 10.3784 3.95163 10.3282 4.07295C10.2779 4.19428 10.2043 4.30452 10.1114 4.39738C10.0185 4.49023 9.90831 4.56389 9.78698 4.61415C9.66565 4.6644 9.53562 4.69027 9.4043 4.69027H5.4043C4.87386 4.69027 4.36516 4.90098 3.99008 5.27606C3.61501 5.65113 3.4043 6.15984 3.4043 6.69027V18.6903C3.4043 19.2207 3.61501 19.7294 3.99008 20.1045C4.36516 20.4796 4.87386 20.6903 5.4043 20.6903H17.4043C17.9347 20.6903 18.4434 20.4796 18.8185 20.1045C19.1936 19.7294 19.4043 19.2207 19.4043 18.6903V14.6903C19.4043 14.4251 19.5097 14.1707 19.6972 13.9832C19.8847 13.7956 20.1391 13.6903 20.4043 13.6903C20.6695 13.6903 20.9239 13.7956 21.1114 13.9832C21.2989 14.1707 21.4043 14.4251 21.4043 14.6903V18.6903C21.4043 19.7511 20.9829 20.7686 20.2327 21.5187C19.4826 22.2688 18.4652 22.6903 17.4043 22.6903H5.4043C4.34343 22.6903 3.32602 22.2688 2.57587 21.5187C1.82572 20.7686 1.4043 19.7511 1.4043 18.6903V6.69027C1.4043 5.6294 1.82572 4.61199 2.57587 3.86184C3.32602 3.1117 4.34343 2.69027 5.4043 2.69027H9.4043Z" fill="white"/>
</svg>
