<svg width="24" height="24" viewBox="0 0 24 24" fill="none" xmlns="http://www.w3.org/2000/svg">
<path d="M1.00001 11V7.25C1.00001 6.10683 0.997216 5.12329 1.10255 4.33985C1.21274 3.5206 1.46166 2.73562 2.09864 2.09864L2.344 1.87769C2.93228 1.40179 3.62292 1.19897 4.33985 1.10255C5.12329 0.997216 6.10683 1.00001 7.25 1.00001H11C11.5652 1.00001 12.0516 0.999521 12.4526 1.02686C12.8649 1.05499 13.2781 1.1169 13.6855 1.28565C14.604 1.66624 15.3338 2.39599 15.7144 3.31446L15.8218 3.62086C15.9118 3.92823 15.952 4.23796 15.9731 4.54737C16.0005 4.94836 16 5.43483 16 6H13.5C13.5 5.40048 13.4995 5.01327 13.4792 4.71705C13.4695 4.57456 13.4561 4.47623 13.4426 4.40699L13.4048 4.27149C13.2779 3.96533 13.0347 3.72208 12.7285 3.59522C12.6765 3.57368 12.5678 3.5402 12.283 3.52076C11.9867 3.50055 11.5995 3.50001 11 3.50001H7.25C6.03616 3.50001 5.25123 3.50284 4.6731 3.58057C4.2669 3.63521 4.0699 3.71515 3.95655 3.79175L3.86622 3.86622C3.77108 3.96135 3.65347 4.13117 3.58057 4.6731C3.50284 5.25123 3.50001 6.03616 3.50001 7.25V11C3.50001 11.5995 3.50055 11.9867 3.52076 12.283C3.5402 12.5678 3.57368 12.6765 3.59522 12.7285C3.72208 13.0347 3.96533 13.2779 4.27149 13.4048L4.40699 13.4426C4.47623 13.4561 4.57456 13.4695 4.71705 13.4792C5.01327 13.4995 5.40048 13.5 6 13.5V16C5.43483 16 4.94836 16.0005 4.54737 15.9731C4.23796 15.952 3.92823 15.9118 3.62086 15.8218L3.31446 15.7144C2.39599 15.3338 1.66624 14.604 1.28565 13.6855C1.1169 13.2781 1.05499 12.8649 1.02686 12.4526C0.999521 12.0516 1.00001 11.5652 1.00001 11Z" fill="white"/>
<path d="M20.5 14.25C20.5 13.0362 20.4972 12.2512 20.4194 11.6731C20.3648 11.2669 20.2848 11.0699 20.2082 10.9565L20.1338 10.8662C20.0386 10.7711 19.8688 10.6535 19.3269 10.5806C18.7488 10.5028 17.9638 10.5 16.75 10.5H14.25C13.0362 10.5 12.2512 10.5028 11.6731 10.5806C11.2669 10.6352 11.0699 10.7152 10.9565 10.7918L10.8662 10.8662C10.7711 10.9614 10.6535 11.1312 10.5806 11.6731C10.5028 12.2512 10.5 13.0362 10.5 14.25V16.75C10.5 17.9638 10.5028 18.7488 10.5806 19.3269C10.6535 19.8688 10.7711 20.0386 10.8662 20.1338L10.9565 20.2082C11.0699 20.2848 11.2669 20.3648 11.6731 20.4194C12.2512 20.4972 13.0362 20.5 14.25 20.5H16.75C17.9638 20.5 18.7488 20.4972 19.3269 20.4194C19.8688 20.3465 20.0386 20.2289 20.1338 20.1338L20.2082 20.0435C20.2848 19.9301 20.3648 19.7331 20.4194 19.3269C20.4972 18.7488 20.5 17.9638 20.5 16.75V14.25ZM23 16.75C23 17.8932 23.0028 18.8767 22.8975 19.6602C22.801 20.3771 22.5982 21.0677 22.1223 21.656L21.9014 21.9014C21.2644 22.5383 20.4794 22.7873 19.6602 22.8975C18.8767 23.0028 17.8932 23 16.75 23H14.25C13.1068 23 12.1233 23.0028 11.3398 22.8975C10.6229 22.801 9.93228 22.5982 9.344 22.1223L9.09864 21.9014C8.46166 21.2644 8.21274 20.4794 8.10255 19.6602C7.99722 18.8767 8.00001 17.8932 8.00001 16.75V14.25C8.00001 13.1068 7.99722 12.1233 8.10255 11.3398C8.21274 10.5206 8.46166 9.73561 9.09864 9.09864L9.344 8.87769C9.93228 8.40179 10.6229 8.19897 11.3398 8.10255C12.1233 7.99722 13.1068 8.00001 14.25 8.00001H16.75C17.8932 8.00001 18.8767 7.99722 19.6602 8.10255C20.4794 8.21274 21.2644 8.46166 21.9014 9.09864L22.1223 9.344C22.5982 9.93228 22.801 10.6229 22.8975 11.3398C23.0028 12.1233 23 13.1068 23 14.25V16.75Z" fill="white"/>
</svg>
