<svg width="24" height="24" viewBox="0 0 24 24" fill="none" xmlns="http://www.w3.org/2000/svg">
<path d="M16.9763 10.6861L16.9737 10.6864H16.7635L16.7609 10.6861C16.5593 10.6861 16.3961 10.8493 16.3961 11.0509L16.3964 12.9984H16.406C16.4307 13.1753 16.5766 13.3139 16.7606 13.3139H16.976C17.16 13.3139 17.3059 13.1753 17.3308 12.9981H17.3408V11.0505C17.3408 10.8489 17.1776 10.6861 16.9763 10.6861ZM18.3331 10.6861L18.3305 10.6864H18.1206L18.118 10.6861C17.9164 10.6861 17.7532 10.8493 17.7532 11.0509V12.9984H17.7632C17.7878 13.1753 17.9337 13.3139 18.1177 13.3139H18.3331C18.5171 13.3139 18.6633 13.1753 18.688 12.9981H18.6979V11.0505C18.6978 10.9538 18.6593 10.8611 18.5909 10.7928C18.5225 10.7244 18.4298 10.6861 18.3331 10.6861Z" fill="white"/>
<path d="M12 0C5.37216 0 0 5.37376 0 12.0006C0 18.6275 5.37216 24 12 24C18.6278 24 24 18.6278 24 12.0006C24 5.37344 18.6278 0 12 0ZM12 20.8195C7.13632 20.8195 3.1808 16.8637 3.1808 12.0006C3.17919 9.93727 3.90426 7.93924 5.2288 6.35712L9.55808 10.6864H5.67008L5.66752 10.6861C5.46592 10.6861 5.30272 10.8493 5.30272 11.0509L5.30304 11.0518H5.3024V12.9494C5.3024 13.151 5.4656 13.3142 5.6672 13.3142H12.1856L17.6432 18.7718C16.0611 20.0962 14.0632 20.8211 12 20.8195ZM18.7715 17.6432L14.4426 13.3139H15.5507C15.752 13.3139 15.9155 13.1507 15.9155 12.9491V11.0518L15.9158 11.0506C15.9158 10.849 15.7523 10.6858 15.551 10.6858L15.5485 10.6861H11.815L6.35712 5.22848C7.93893 3.90384 9.9368 3.17874 12 3.18048C16.8634 3.18048 20.8192 7.13792 20.8192 12.0003C20.821 14.0635 20.096 16.0613 18.7715 17.6432Z" fill="white"/>
</svg>
