<svg width="24" height="24" viewBox="0 0 24 24" fill="none" xmlns="http://www.w3.org/2000/svg">
<path d="M22.5108 4.60731C22.4147 4.5035 22.2968 4.4196 22.1646 4.36088C22.0324 4.30217 21.8887 4.26992 21.7427 4.26617C19.474 4.21025 16.6032 1.92294 14.7052 1.02536C13.5328 0.472636 12.7588 0.108196 12.1775 0.0121929C12.0595 -0.004371 11.9395 -0.00405677 11.8216 0.013125C11.2404 0.109128 10.4664 0.473569 9.29493 1.02629C7.39693 1.92294 4.5262 4.21025 2.2575 4.26617C2.11136 4.27035 1.96769 4.30279 1.8354 4.36147C1.7031 4.42015 1.585 4.50382 1.48841 4.60731C1.28848 4.82103 1.18523 5.10005 1.20075 5.38466C1.6881 14.7268 5.24191 20.5085 11.4776 23.8686C11.6398 23.9553 11.8197 24 11.9986 24C12.1775 24 12.3574 23.9553 12.5205 23.8686C18.7563 20.5085 22.3091 14.7268 22.7974 5.38466C22.8143 5.10004 22.7113 4.82066 22.5108 4.60731ZM17.5522 8.28154L12.2902 15.603C12.1014 15.8658 11.8048 16.0401 11.5112 16.0401C11.2176 16.0401 10.8895 15.8882 10.6828 15.6934L6.97383 12.1953C6.85274 12.0807 6.78475 11.9255 6.78475 11.7638C6.78475 11.602 6.85274 11.4468 6.97383 11.3322L7.89021 10.4663C8.01226 10.353 8.17665 10.2895 8.34791 10.2895C8.51916 10.2895 8.68356 10.353 8.8056 10.4663L11.2176 12.7406L15.4081 6.90859C15.505 6.77514 15.6541 6.68327 15.8226 6.65306C15.9911 6.62285 16.1655 6.65675 16.3077 6.74735L17.3802 7.43335C17.5219 7.52462 17.6196 7.66506 17.6518 7.82399C17.684 7.98292 17.6482 8.14741 17.5522 8.28154Z" fill="white"/>
</svg>
