<svg width="24" height="24" viewBox="0 0 24 24" fill="none" xmlns="http://www.w3.org/2000/svg">
<path d="M13.9725 4.96925C13.9725 3.88809 13.0908 3 12.0032 3C10.9156 3 10.0275 3.88809 10.034 4.96925V10.034H4.96925C3.88809 10.034 3 10.9156 3 12.0032C3 13.0844 3.88809 13.9725 4.96925 13.9725H10.034V19.0307C10.034 20.1119 10.9156 21 12.0032 21C13.0844 21 13.9725 20.1183 13.9725 19.0307V13.9725H19.0307C20.1119 13.9725 21 13.0908 21 12.0032C21 10.9221 20.1183 10.034 19.0307 10.034H13.9725V4.96925Z" fill="white"/>
</svg>
