<svg width="24" height="24" viewBox="0 0 24 24" fill="none" xmlns="http://www.w3.org/2000/svg">
<path d="M11.4375 3.75C11.4375 3.43934 11.6893 3.1875 12 3.1875H16.5833C17.6954 3.1875 18.7677 3.60575 19.5629 4.35907C20.3591 5.11336 20.8125 6.14311 20.8125 7.22368V12.4266L20.8125 12.4341V15.0394C20.8125 16.12 20.3591 17.1497 19.5629 17.904C18.7716 18.6537 17.7058 19.0715 16.5995 19.0756L17.0808 19.9874C17.2258 20.2622 17.1206 20.6025 16.8458 20.7475C16.5711 20.8925 16.2308 20.7873 16.0858 20.5126L15.3274 19.0756H8.67248L7.91408 20.5126C7.76908 20.7873 7.42881 20.8925 7.15407 20.7475C6.87932 20.6025 6.77415 20.2622 6.91915 19.9874L7.40042 19.0756C6.2941 19.0715 5.22838 18.6537 4.43709 17.904C3.64089 17.1497 3.1875 16.12 3.1875 15.0394V12.9552C3.1875 12.6577 3.31252 12.379 3.52423 12.1784C3.73491 11.9788 4.01447 11.8716 4.3 11.8716H19.6875V7.22368C19.6875 6.46171 19.3682 5.72436 18.7892 5.17577C18.2091 4.6262 17.4161 4.3125 16.5833 4.3125H13.9628C15.1922 5.15983 15.5347 6.75166 15.63 7.57279C15.663 7.85937 15.4201 8.0921 15.1167 8.0921H8.88335C8.57993 8.0921 8.33701 7.85937 8.37001 7.57279C8.49465 6.49958 9.04144 4.10981 11.4386 3.78647C11.4378 3.77441 11.4375 3.76225 11.4375 3.75Z" fill="white"/>
</svg>
