<svg width="24" height="24" viewBox="0 0 24 24" fill="none" xmlns="http://www.w3.org/2000/svg">
<path d="M20.064 15.3439C20.484 14.3142 20.712 13.2119 20.712 12.0005C20.712 11.1282 20.58 10.2924 20.352 9.51708C19.572 9.69879 18.756 9.7957 17.904 9.7957C16.1592 9.7976 14.4395 9.37598 12.8898 8.5664C11.3402 7.75682 10.0061 6.58301 9 5.14392C7.92475 7.77356 5.89406 9.88855 3.324 11.0556C3.276 11.3584 3.276 11.6855 3.276 12.0005C3.276 13.157 3.50165 14.3022 3.94008 15.3707C4.3785 16.4392 5.0211 17.4101 5.8312 18.2279C7.46727 19.8795 9.68625 20.8074 12 20.8074C13.26 20.8074 14.472 20.5287 15.564 20.0321C16.248 21.3525 16.56 22.0066 16.536 22.0066C14.568 22.6729 13.044 23 12 23C9.096 23 6.324 21.8492 4.284 19.7777C3.04206 18.5298 2.11952 16.9957 1.596 15.3076H0V9.7957H1.308C1.70429 7.84839 2.61539 6.0457 3.94463 4.57891C5.27386 3.11212 6.97165 2.03595 8.85783 1.46459C10.744 0.893235 12.7482 0.848004 14.6578 1.3337C16.5674 1.81939 18.3112 2.81789 19.704 4.22325C21.2157 5.74426 22.2472 7.68336 22.668 9.7957H24V15.3076H23.928L19.656 19.2689L13.296 18.542V16.519H19.092L20.064 15.3439ZM8.724 11.7218C9.084 11.7218 9.432 11.8672 9.684 12.1337C9.93725 12.3915 10.0794 12.7398 10.0794 13.1028C10.0794 13.4659 9.93725 13.8142 9.684 14.072C9.432 14.3264 9.084 14.4717 8.724 14.4717C7.968 14.4717 7.356 13.866 7.356 13.1028C7.356 12.3397 7.968 11.7218 8.724 11.7218ZM15.264 11.7218C16.02 11.7218 16.62 12.3397 16.62 13.1028C16.62 13.866 16.02 14.4717 15.264 14.4717C14.508 14.4717 13.896 13.866 13.896 13.1028C13.896 12.7366 14.0401 12.3853 14.2967 12.1263C14.5532 11.8673 14.9012 11.7218 15.264 11.7218Z" fill="white"/>
</svg>
