<svg width="24" height="24" viewBox="0 0 24 24" fill="none" xmlns="http://www.w3.org/2000/svg">
<path d="M22.8321 12.1958C22.7762 12.1326 22.7076 12.0815 22.6306 12.0458C22.5537 12.01 22.4701 11.9904 22.3851 11.9881C21.0647 11.9541 19.3939 10.5618 18.2892 10.0154C17.6069 9.679 17.1564 9.45716 16.8181 9.39873C16.7494 9.38864 16.6796 9.38883 16.6109 9.39929C16.2726 9.45773 15.8221 9.67956 15.1404 10.016C14.0357 10.5618 12.3649 11.9541 11.0445 11.9881C10.9594 11.9906 10.8758 12.0104 10.7988 12.0461C10.7218 12.0818 10.6531 12.1328 10.5969 12.1958C10.4805 12.3258 10.4204 12.4957 10.4295 12.6689C10.7131 18.3555 12.7815 21.8747 16.4107 23.92C16.5051 23.9728 16.6098 24 16.7139 24C16.8181 24 16.9228 23.9728 17.0177 23.92C20.647 21.8747 22.7147 18.3555 22.999 12.6689C23.0088 12.4957 22.9488 12.3256 22.8321 12.1958ZM19.9462 14.4322L16.8836 18.8888C16.7738 19.0488 16.6012 19.1548 16.4303 19.1548C16.2594 19.1548 16.0684 19.0624 15.9481 18.9438L13.7895 16.8145C13.719 16.7448 13.6794 16.6503 13.6794 16.5519C13.6794 16.4534 13.719 16.3589 13.7895 16.2892L14.3228 15.7621C14.3938 15.6932 14.4895 15.6545 14.5892 15.6545C14.6889 15.6545 14.7845 15.6932 14.8556 15.7621L16.2594 17.1464L18.6983 13.5965C18.7547 13.5153 18.8414 13.4594 18.9395 13.441C19.0376 13.4226 19.1391 13.4432 19.2218 13.4984L19.8461 13.916C19.9286 13.9715 19.9854 14.057 20.0041 14.1537C20.0229 14.2505 20.0021 14.3506 19.9462 14.4322Z" fill="white"/>
<path d="M9.50986 12.5217C9.40685 12.7307 9.36712 12.9632 9.38505 13.3217L9.38402 13.3227C9.55673 16.7852 10.3578 19.643 11.7933 21.9243C11.6856 21.9248 11.61 21.9263 11.5846 21.9263C9.07192 21.9263 5.60342 21.2689 3.89528 20.1858C2.1966 19.1089 1 17.5249 1 15.6522V15.2609C1 14.5344 1.28943 13.8374 1.80515 13.3237C2.32088 12.81 3.02065 12.5217 3.75 12.5217H9.50986Z" fill="white"/>
<path d="M10.4286 0C11.8873 0 13.2858 0.577586 14.3172 1.60496C15.3487 2.63233 15.9286 4.02534 15.9286 5.47826C15.9286 6.93119 15.3487 8.32419 14.3172 9.35156C13.2858 10.3789 11.8873 10.9565 10.4286 10.9565C8.96988 10.9565 7.57135 10.3789 6.5399 9.35156C5.50845 8.32419 4.92857 6.93119 4.92857 5.47826C4.92857 4.02534 5.50845 2.63233 6.5399 1.60496C7.57135 0.577586 8.96988 0 10.4286 0Z" fill="white"/>
</svg>
