<svg width="24" height="24" viewBox="0 0 24 24" fill="none" xmlns="http://www.w3.org/2000/svg">
<path d="M2.25 18.75V12.9643C2.25 12.5304 2.33938 12.1366 2.51813 11.783C2.69688 11.4295 2.9325 11.1161 3.225 10.8429V8.14286C3.225 7.33929 3.50938 6.65625 4.07812 6.09375C4.64688 5.53125 5.3375 5.25 6.15 5.25H10.05C10.4237 5.25 10.7731 5.31846 11.0981 5.45539C11.4231 5.59232 11.7238 5.781 12 6.02143C12.2762 5.78036 12.5769 5.59168 12.9019 5.45539C13.2269 5.31911 13.5763 5.25064 13.95 5.25H17.85C18.6625 5.25 19.3531 5.53125 19.9219 6.09375C20.4906 6.65625 20.775 7.33929 20.775 8.14286V10.8429C21.0675 11.1161 21.3031 11.4295 21.4819 11.783C21.6606 12.1366 21.75 12.5304 21.75 12.9643V18.75H19.8V16.8214H4.2V18.75H2.25ZM12.975 10.0714H18.825V8.14286C18.825 7.86964 18.7314 7.64079 18.5442 7.45629C18.357 7.27179 18.1256 7.17921 17.85 7.17857H13.95C13.6737 7.17857 13.4424 7.27114 13.2558 7.45629C13.0693 7.64143 12.9756 7.87029 12.975 8.14286V10.0714ZM5.175 10.0714H11.025V8.14286C11.025 7.86964 10.9314 7.64079 10.7442 7.45629C10.557 7.27179 10.3256 7.17921 10.05 7.17857H6.15C5.87375 7.17857 5.64235 7.27114 5.4558 7.45629C5.26925 7.64143 5.17565 7.87029 5.175 8.14286V10.0714Z" fill="white"/>
</svg>
