<svg width="24" height="24" viewBox="0 0 24 24" fill="none" xmlns="http://www.w3.org/2000/svg">
<path fill-rule="evenodd" clip-rule="evenodd" d="M0 6.66333V9.02693C0.000131595 9.16814 0.0330078 9.30697 0.0955005 9.43021C0.157993 9.55344 0.248023 9.65698 0.357025 9.73097C0.466026 9.80496 0.590373 9.84695 0.718233 9.85293C0.846094 9.85891 0.973215 9.82869 1.0875 9.76514L2.4165 9.02693L2.982 8.71244L3 8.70251L5.106 7.53064L5.211 7.47106L6.204 6.91988L7.1085 6.4167C7.23252 6.34773 7.33675 6.24212 7.40957 6.11163C7.4824 5.98115 7.52096 5.83091 7.52096 5.67766C7.52096 5.52442 7.4824 5.37418 7.40957 5.24369C7.33675 5.11321 7.23252 5.00759 7.1085 4.93862L6.204 4.43379L5.211 3.88262L5.106 3.82303L3 2.65116L2.982 2.64288L2.4165 2.3284L1.0875 1.58853C0.973215 1.52498 0.846094 1.49476 0.718233 1.50074C0.590373 1.50672 0.466026 1.54871 0.357025 1.6227C0.248023 1.69669 0.157993 1.80023 0.0955005 1.92346C0.0330078 2.0467 0.000131595 2.18553 0 2.32674L0 6.66333ZM10.875 3.13778C10.5766 3.13778 10.2905 3.26857 10.0795 3.50138C9.86853 3.73418 9.75 4.04993 9.75 4.37917C9.75 4.70841 9.86853 5.02416 10.0795 5.25697C10.2905 5.48977 10.5766 5.62056 10.875 5.62056H21.375C21.4745 5.62056 21.5698 5.66416 21.6402 5.74176C21.7105 5.81936 21.75 5.92461 21.75 6.03436V20.1034C21.75 20.2132 21.7105 20.3184 21.6402 20.396C21.5698 20.4736 21.4745 20.5172 21.375 20.5172H7.125C7.02554 20.5172 6.93016 20.4736 6.85983 20.396C6.78951 20.3184 6.75 20.2132 6.75 20.1034V11.0065C6.75 10.6773 6.63147 10.3615 6.4205 10.1287C6.20952 9.89593 5.92337 9.76514 5.625 9.76514C5.32663 9.76514 5.04048 9.89593 4.8295 10.1287C4.61853 10.3615 4.5 10.6773 4.5 11.0065V20.1034C4.5 21.7023 5.676 23 7.125 23H21.375C22.0712 23 22.7389 22.6948 23.2312 22.1516C23.7234 21.6084 24 20.8716 24 20.1034V6.03436C24 5.26614 23.7234 4.52938 23.2312 3.98617C22.7389 3.44296 22.0712 3.13778 21.375 3.13778H10.875ZM10.125 9.75852C9.82663 9.75852 9.54048 9.88931 9.3295 10.1221C9.11853 10.3549 9 10.6707 9 10.9999C9 11.3291 9.11853 11.6449 9.3295 11.8777C9.54048 12.1105 9.82663 12.2413 10.125 12.2413H18.375C18.6734 12.2413 18.9595 12.1105 19.1705 11.8777C19.3815 11.6449 19.5 11.3291 19.5 10.9999C19.5 10.6707 19.3815 10.3549 19.1705 10.1221C18.9595 9.88931 18.6734 9.75852 18.375 9.75852H10.125ZM9 15.1379C9 14.8086 9.11853 14.4929 9.3295 14.2601C9.54048 14.0273 9.82663 13.8965 10.125 13.8965H15.375C15.6734 13.8965 15.9595 14.0273 16.1705 14.2601C16.3815 14.4929 16.5 14.8086 16.5 15.1379C16.5 15.4671 16.3815 15.7829 16.1705 16.0157C15.9595 16.2485 15.6734 16.3793 15.375 16.3793H10.125C9.82663 16.3793 9.54048 16.2485 9.3295 16.0157C9.11853 15.7829 9 15.4671 9 15.1379Z" fill="white"/>
</svg>
