<svg width="24" height="24" viewBox="0 0 24 24" fill="none" xmlns="http://www.w3.org/2000/svg">
<path fill-rule="evenodd" clip-rule="evenodd" d="M24 12C24 18.6274 18.6274 24 12 24C5.37258 24 0 18.6274 0 12C0 5.37258 5.37258 0 12 0C18.6274 0 24 5.37258 24 12ZM3.17985 12C3.17985 16.8712 7.12877 20.8201 12 20.8201C14.1115 20.8201 16.0496 20.0782 17.568 18.8408L15.393 16.6658L14.8633 16.7824C14.6913 16.8202 14.5092 16.7966 14.3571 16.7167C14.2049 16.6369 14.0952 16.5073 14.0521 16.3566C14.0089 16.2058 14.0359 16.0462 14.127 15.9128C14.195 15.8133 14.2947 15.7345 14.4124 15.6852L11.521 12.7938C11.4214 12.8904 11.3124 12.9803 11.1948 13.0623C10.6859 13.4175 10.0497 13.6027 9.39948 13.5851L8.80041 15.4267L9.4601 15.5916C9.63069 15.6342 9.77499 15.7344 9.86125 15.8703C9.94752 16.0061 9.96869 16.1664 9.9201 16.3159C9.87152 16.4654 9.75715 16.5919 9.60217 16.6675C9.44719 16.7431 9.26429 16.7617 9.09371 16.7191L6.48526 16.0667C6.31467 16.024 6.17042 15.9236 6.08424 15.7877C5.99805 15.6518 5.977 15.4915 6.0257 15.342C6.07441 15.1925 6.18889 15.066 6.34395 14.9905C6.49901 14.9149 6.68196 14.8965 6.85255 14.9392L7.51402 15.1048L8.11309 13.2632C7.55005 12.9777 7.12093 12.5264 6.90216 11.9895C6.68339 11.4526 6.68918 10.8651 6.91851 10.3316L7.56241 8.83519L5.15918 6.43196C3.92179 7.95036 3.17985 9.88854 3.17985 12ZM8.32825 7.05544L6.43197 5.15917C7.95037 3.92179 9.88854 3.17985 12 3.17985C16.8712 3.17985 20.8201 7.12877 20.8201 12C20.8201 14.1115 20.0782 16.0496 18.8408 17.568L17.4794 16.2066L17.4941 16.2034C17.6661 16.1656 17.8139 16.0694 17.905 15.9361C17.9961 15.8027 18.0231 15.6431 17.9799 15.4924C17.9368 15.3416 17.827 15.2121 17.6749 15.1322C17.5228 15.0523 17.3407 15.0287 17.1687 15.0665L16.5045 15.2127L15.9732 13.3554C16.5459 13.0856 16.9909 12.6464 17.2287 12.1159C17.4666 11.5855 17.4819 10.9983 17.2721 10.4589L15.7156 6.46076C15.6613 6.32155 15.5494 6.20531 15.4019 6.1351C15.2544 6.0649 15.0822 6.04588 14.9195 6.08181L13.7713 6.33418C14.0851 6.63537 14.2521 7.03215 14.2366 7.43979L14.6485 7.34916L15.211 8.79387L13.8925 9.06969L13.2703 11.8349C13.2605 11.8786 13.2498 11.9221 13.2381 11.9653L12.3142 11.0414L13.1107 7.50152C13.1433 7.35724 13.1128 7.20748 13.0253 7.08198C12.9378 6.95649 12.7996 6.86443 12.6382 6.82409L9.42801 6.02243C9.26681 5.98217 9.09424 5.99646 8.9445 6.06245C8.79474 6.12843 8.67873 6.24131 8.61944 6.37872L8.32825 7.05544ZM10.3024 9.02957L9.32728 8.05448L9.65355 7.29681L11.6799 7.80312L11.3429 9.30097L10.3024 9.02957Z" fill="white"/>
</svg>
