<svg width="24" height="24" viewBox="0 0 24 24" fill="none" xmlns="http://www.w3.org/2000/svg">
<path d="M19.6923 5.21739H17.0269L15.7163 3.32891C15.6461 3.22779 15.551 3.14487 15.4395 3.0875C15.328 3.03013 15.2034 3.00007 15.0769 3H8.92308C8.79657 3.00007 8.67203 3.03013 8.56049 3.0875C8.44896 3.14487 8.35387 3.22779 8.28365 3.32891L6.97212 5.21739H4.30769C3.69565 5.21739 3.10868 5.45101 2.67591 5.86685C2.24313 6.28269 2 6.84669 2 7.43478V17.7826C2 18.3707 2.24313 18.9347 2.67591 19.3505C3.10868 19.7664 3.69565 20 4.30769 20H19.6923C20.3043 20 20.8913 19.7664 21.3241 19.3505C21.7569 18.9347 22 18.3707 22 17.7826V7.43478C22 6.84669 21.7569 6.28269 21.3241 5.86685C20.8913 5.45101 20.3043 5.21739 19.6923 5.21739ZM15.4615 12.2391C15.4615 12.897 15.2585 13.54 14.8782 14.087C14.4978 14.634 13.9572 15.0603 13.3247 15.312C12.6922 15.5638 11.9962 15.6296 11.3247 15.5013C10.6532 15.373 10.0364 15.0562 9.55232 14.591C9.06822 14.1259 8.73854 13.5332 8.60497 12.888C8.47141 12.2428 8.53996 11.5741 8.80196 10.9663C9.06395 10.3585 9.50763 9.83907 10.0769 9.47359C10.6461 9.10812 11.3154 8.91304 12 8.91304C12.9181 8.91304 13.7985 9.26347 14.4477 9.88723C15.0968 10.511 15.4615 11.357 15.4615 12.2391Z" fill="white"/>
</svg>
