<svg width="23" height="23" viewBox="0 0 23 23" fill="none" xmlns="http://www.w3.org/2000/svg">
<path d="M23 11.5C23 17.8513 17.8513 23 11.5 23C5.14873 23 0 17.8513 0 11.5C0 5.14873 5.14873 0 11.5 0C17.8513 0 23 5.14873 23 11.5ZM3.04736 11.5C3.04736 16.1683 6.83173 19.9526 11.5 19.9526C16.1683 19.9526 19.9526 16.1683 19.9526 11.5C19.9526 6.83173 16.1683 3.04736 11.5 3.04736C6.83173 3.04736 3.04736 6.83173 3.04736 11.5Z" fill="white"/>
<path d="M9.4098 6.33364C10.0855 6.23597 10.8014 6.9771 11.0075 7.99973C11.2137 9.01661 10.8414 9.92434 10.1657 10.0278C9.4957 10.1312 8.77415 9.39005 8.56227 8.36741C8.35039 7.35053 8.73407 6.4428 9.4098 6.33364ZM13.5043 6.33364C14.1858 6.4428 14.5637 7.35053 14.3633 8.36741C14.1457 9.39005 13.4299 10.1312 12.7541 10.0278C12.0727 9.92434 11.7004 9.01661 11.9123 7.99973C12.1185 6.9771 12.8343 6.23597 13.5043 6.33364ZM6.34609 8.9764C6.99892 8.69489 7.88654 9.2062 8.35039 10.0967C8.78561 11.0044 8.63672 11.9581 7.98961 12.2396C7.34251 12.5211 6.46062 12.0156 6.00822 11.1136C5.55582 10.2116 5.71617 9.25216 6.34609 8.9764ZM16.6539 8.9764C17.2838 9.25216 17.4442 10.2116 16.9918 11.1136C16.5394 12.0156 15.6575 12.5211 15.0104 12.2396C14.3633 11.9581 14.2144 11.0044 14.6496 10.0967C15.1135 9.2062 16.0011 8.69489 16.6539 8.9764ZM15.6976 15.1696C15.7205 15.7097 15.3082 16.3072 14.8157 16.5312C13.7906 17.0023 12.5766 16.0257 11.437 16.0257C10.2974 16.0257 9.07194 17.0425 8.06406 16.5312C7.4914 16.2497 7.09627 15.5029 7.17072 14.8824C7.27379 14.0264 8.29885 13.5667 8.90587 12.9405C9.71331 12.1305 10.286 10.608 11.437 10.608C12.5823 10.608 13.1893 12.1075 13.9624 12.9405C14.5981 13.6414 15.6575 14.2332 15.6976 15.1696Z" fill="white"/>
</svg>
