<svg width="24" height="24" viewBox="0 0 24 24" fill="none" xmlns="http://www.w3.org/2000/svg">
<path fill-rule="evenodd" clip-rule="evenodd" d="M2.25709 17.0169L10.3637 2.95695C10.5344 2.66481 10.7747 2.42328 11.0614 2.25567C11.348 2.08805 11.6715 2 12.0004 2C12.3294 2 12.6528 2.08805 12.9395 2.25567C13.2262 2.42328 13.4664 2.66481 13.6371 2.95695L21.7437 17.0169C21.9108 17.3176 21.9991 17.6586 22 18.0058C22.0009 18.353 21.9143 18.6944 21.7488 18.996C21.5833 19.2977 21.3446 19.5491 21.0566 19.7252C20.7686 19.9013 20.4412 19.9961 20.107 20H3.8938C3.55947 19.9964 3.23189 19.9019 2.94367 19.7258C2.65545 19.5498 2.41667 19.2984 2.2511 18.9966C2.08553 18.6948 1.99896 18.3533 2.00001 18.0059C2.00106 17.6586 2.0897 17.3176 2.25709 17.0169ZM12.0004 7.47098C12.305 7.47098 12.5972 7.59669 12.8126 7.82047C13.028 8.04425 13.149 8.34775 13.149 8.66422V12.2439C13.149 12.5604 13.028 12.8639 12.8126 13.0877C12.5972 13.3115 12.305 13.4372 12.0004 13.4372C11.6958 13.4372 11.4037 13.3115 11.1883 13.0877C10.9729 12.8639 10.8518 12.5604 10.8518 12.2439V8.66422C10.8518 8.34775 10.9729 8.04425 11.1883 7.82047C11.4037 7.59669 11.6958 7.47098 12.0004 7.47098ZM10.8518 15.8237C10.8518 15.5072 10.9729 15.2037 11.1883 14.9799C11.4037 14.7561 11.6958 14.6304 12.0004 14.6304H12.0096C12.3142 14.6304 12.6064 14.7561 12.8218 14.9799C13.0372 15.2037 13.1582 15.5072 13.1582 15.8237C13.1582 16.1401 13.0372 16.4436 12.8218 16.6674C12.6064 16.8912 12.3142 17.0169 12.0096 17.0169H12.0004C11.6958 17.0169 11.4037 16.8912 11.1883 16.6674C10.9729 16.4436 10.8518 16.1401 10.8518 15.8237Z" fill="white"/>
</svg>
