<svg width="24" height="24" viewBox="0 0 24 24" fill="none" xmlns="http://www.w3.org/2000/svg">
<path d="M11 19H10C9.71667 19 9.47933 18.904 9.288 18.712C9.09667 18.52 9.00067 18.2827 9 18C8.99933 17.7173 9.09533 17.48 9.288 17.288C9.48067 17.096 9.718 17 10 17H11V14.9C9.68333 14.6667 8.604 14.0373 7.762 13.012C6.92 11.9867 6.49933 10.7993 6.5 9.45C6.5 7.93333 7.03767 6.646 8.113 5.588C9.18833 4.53 10.484 4.00067 12 4C13.516 3.99933 14.812 4.52867 15.888 5.588C16.964 6.64733 17.5013 7.93467 17.5 9.45C17.5 10.8 17.079 11.9877 16.237 13.013C15.395 14.0383 14.316 14.6673 13 14.9V17H14C14.2833 17 14.521 17.096 14.713 17.288C14.905 17.48 15.0007 17.7173 15 18C14.9993 18.2827 14.9033 18.5203 14.712 18.713C14.5207 18.9057 14.2833 19.0013 14 19H13V20C13 20.2833 12.904 20.521 12.712 20.713C12.52 20.905 12.2827 21.0007 12 21C11.7173 20.9993 11.48 20.9033 11.288 20.712C11.096 20.5207 11 20.2833 11 20V19ZM12 13C12.9667 13 13.7917 12.6583 14.475 11.975C15.1583 11.2917 15.5 10.4667 15.5 9.5C15.5 8.53333 15.1583 7.70833 14.475 7.025C13.7917 6.34167 12.9667 6 12 6C11.0333 6 10.2083 6.34167 9.525 7.025C8.84167 7.70833 8.5 8.53333 8.5 9.5C8.5 10.4667 8.84167 11.2917 9.525 11.975C10.2083 12.6583 11.0333 13 12 13Z" fill="white"/>
</svg>
