<svg width="24" height="24" viewBox="0 0 24 24" fill="none" xmlns="http://www.w3.org/2000/svg">
<path d="M12.0017 4.49025C13.1443 3.49481 14.6349 2.96315 16.1675 3.00443C17.7 3.04572 19.1582 3.65682 20.2426 4.71225C21.3258 5.76693 21.9537 7.18515 21.9975 8.67619C22.0414 10.1672 21.4979 11.6181 20.4785 12.7315L11.9997 21L3.52277 12.7315C2.50216 11.6176 1.95818 10.1654 2.00251 8.67317C2.04684 7.18093 2.67611 5.76183 3.76114 4.70721C4.84616 3.6526 6.30462 3.04248 7.83707 3.00214C9.36952 2.96179 10.8597 3.49426 12.0017 4.49025ZM18.8268 6.08806C18.1042 5.38561 17.1331 4.97887 16.1125 4.95117C15.0919 4.92347 14.0991 5.27692 13.3375 5.93909L12.0027 7.10556L10.6668 5.94006C9.9086 5.2798 8.92052 4.92567 7.90366 4.94975C6.8868 4.97382 5.91756 5.37429 5.19318 6.06965C4.46879 6.76502 4.04369 7.70303 4.00438 8.69281C3.96508 9.6826 4.31451 10.6498 4.98158 11.3975L12.0007 18.2435L19.0197 11.3985C19.684 10.654 20.0335 9.69189 19.9977 8.70626C19.9619 7.72064 19.5434 6.78494 18.8268 6.08806Z" fill="white"/>
</svg>
