<svg width="24" height="24" viewBox="0 0 24 24" fill="none" xmlns="http://www.w3.org/2000/svg">
<path d="M12 21.8926C6.477 21.8926 2 17.4156 2 11.8926C2 6.36958 6.477 1.89258 12 1.89258C17.523 1.89258 22 6.37058 22 11.8926C22 17.4146 17.523 21.8926 12 21.8926ZM12 6.89258C11.7348 6.89258 11.4804 6.99793 11.2929 7.18547C11.1054 7.37301 11 7.62736 11 7.89258V12.8926C11 13.1578 11.1054 13.4121 11.2929 13.5997C11.4804 13.7872 11.7348 13.8926 12 13.8926C12.2652 13.8926 12.5196 13.7872 12.7071 13.5997C12.8946 13.4121 13 13.1578 13 12.8926V7.89258C13 7.62736 12.8946 7.37301 12.7071 7.18547C12.5196 6.99793 12.2652 6.89258 12 6.89258ZM12 16.8926C12.2652 16.8926 12.5196 16.7872 12.7071 16.5997C12.8946 16.4121 13 16.1578 13 15.8926C13 15.6274 12.8946 15.373 12.7071 15.1855C12.5196 14.9979 12.2652 14.8926 12 14.8926C11.7348 14.8926 11.4804 14.9979 11.2929 15.1855C11.1054 15.373 11 15.6274 11 15.8926C11 16.1578 11.1054 16.4121 11.2929 16.5997C11.4804 16.7872 11.7348 16.8926 12 16.8926Z" fill="white"/>
</svg>
