<svg width="24" height="24" viewBox="0 0 24 24" fill="none" xmlns="http://www.w3.org/2000/svg">
<path fill-rule="evenodd" clip-rule="evenodd" d="M18.7777 11.6706H17.7638L17.7963 19.6143C17.7963 19.6149 17.7963 19.6155 17.7963 19.6162C17.7962 19.6273 17.7952 19.6546 17.7896 19.708L17.7789 19.8111V19.9927L17.7401 19.9889L17.5948 20L17.5893 20L17.5735 20L16.4513 19.9963H6.46567L6.46163 19.996L6.43138 19.9939L6.27156 19.9825L6.21932 19.9872V16.39L6.2228 16.3566V11.6669H5.19474L12.0129 5.31825L18.7777 11.6706ZM12.7424 3.25971L21.6127 11.5891C21.8906 11.8489 22.0295 12.1457 21.9948 12.4796C21.9948 13.1097 21.5311 13.6109 20.9828 13.6656C20.9499 13.6689 20.9168 13.6706 20.8834 13.6706H19.772L19.7963 19.6143C19.7963 19.7145 19.7893 19.8147 19.7789 19.9149V20.5159C19.7789 21.3359 19.1572 22 18.3897 22H17.834C17.7958 22 17.7575 22 17.7193 21.9963C17.6707 22 17.6221 22 17.5735 22L16.4447 21.9963H6.44559C6.39352 21.9963 6.34145 21.9926 6.28938 21.9889C6.24773 21.9926 6.20593 21.9963 6.16427 21.9963H5.60857C4.84101 21.9963 4.21932 21.3322 4.21932 20.5122V16.3568C4.21932 16.3234 4.21932 16.2863 4.2228 16.2529V13.6669H3.1114C2.48624 13.6669 2 13.1474 2 12.4759C2 12.142 2.10419 11.8451 2.34731 11.5854L11.2489 3.29682C11.492 3.0371 11.7699 3 12.013 3C12.2561 3 12.534 3.0742 12.7424 3.25971Z" fill="white"/>
</svg>
