<svg width="24" height="24" viewBox="0 0 24 24" fill="none" xmlns="http://www.w3.org/2000/svg">
<path fill-rule="evenodd" clip-rule="evenodd" d="M12 0L19.1642 4.14736V12.4421L12.8064 16.1213C12.7013 16.2097 12.5808 16.2801 12.4494 16.3279L11.9999 16.5881L4.83581 12.4408V4.14736L12 0ZM13.2314 13.126L16.7892 11.0671V6.85845L13.2314 8.79472V13.126ZM12.0917 6.70558L15.5667 4.81439L12 2.74964L8.47908 4.78791L12.0917 6.70558ZM7.21081 6.80905V11.066L10.8564 13.1765V8.74422L7.21081 6.80905ZM12 19.2376C11.6851 19.2376 11.383 19.363 11.1603 19.5863C10.9376 19.8096 10.8125 20.1124 10.8125 20.4282C10.8125 20.7439 10.9376 21.0468 11.1603 21.2701C11.383 21.4933 11.6851 21.6188 12 21.6188C12.3149 21.6188 12.617 21.4933 12.8397 21.2701C13.0624 21.0468 13.1875 20.7439 13.1875 20.4282C13.1875 20.1124 13.0624 19.8096 12.8397 19.5863C12.617 19.363 12.3149 19.2376 12 19.2376ZM9.48093 17.9025C10.149 17.2327 11.0552 16.8563 12 16.8563C12.9448 16.8563 13.851 17.2327 14.5191 17.9025C14.9025 18.287 15.1896 18.7501 15.3645 19.254C15.4289 19.2432 15.495 19.2376 15.5625 19.2376H20.3125C20.9683 19.2376 21.5 19.7706 21.5 20.4282C21.5 21.0857 20.9683 21.6188 20.3125 21.6188H15.5625C15.495 21.6188 15.4289 21.6131 15.3645 21.6023C15.1896 22.1062 14.9025 22.5694 14.5191 22.9538C13.851 23.6237 12.9448 24 12 24C11.0552 24 10.149 23.6237 9.48093 22.9538C9.09746 22.5694 8.81044 22.1062 8.63548 21.6023C8.57109 21.6131 8.50495 21.6188 8.4375 21.6188H3.6875C3.03166 21.6188 2.5 21.0857 2.5 20.4282C2.5 19.7706 3.03166 19.2376 3.6875 19.2376H8.4375C8.50495 19.2376 8.57109 19.2432 8.63548 19.254C8.81043 18.7501 9.09746 18.287 9.48093 17.9025Z" fill="white"/>
</svg>
