<svg width="24" height="24" viewBox="0 0 24 24" fill="none" xmlns="http://www.w3.org/2000/svg">
<path d="M9.77778 7.11111C9.77778 6.7595 9.88205 6.41578 10.0774 6.12343C10.2727 5.83108 10.5504 5.60321 10.8752 5.46866C11.2001 5.3341 11.5575 5.2989 11.9024 5.36749C12.2472 5.43609 12.564 5.6054 12.8126 5.85403C13.0613 6.10266 13.2306 6.41943 13.2992 6.76428C13.3678 7.10914 13.3326 7.46659 13.198 7.79144C13.0635 8.11628 12.8356 8.39393 12.5432 8.58928C12.2509 8.78462 11.9072 8.88889 11.5556 8.88889C11.0841 8.88889 10.6319 8.70159 10.2985 8.36819C9.96508 8.03479 9.77778 7.58261 9.77778 7.11111ZM24 12C24 14.3734 23.2962 16.6934 21.9776 18.6668C20.6591 20.6402 18.7849 22.1783 16.5922 23.0865C14.3995 23.9948 11.9867 24.2324 9.65892 23.7694C7.33115 23.3064 5.19295 22.1635 3.51472 20.4853C1.83649 18.807 0.693605 16.6689 0.230582 14.3411C-0.232441 12.0133 0.00519943 9.60051 0.913451 7.4078C1.8217 5.21508 3.35977 3.34094 5.33316 2.02236C7.30655 0.703788 9.62663 0 12 0C15.1815 0.00352914 18.2317 1.26894 20.4814 3.51862C22.7311 5.76829 23.9965 8.81848 24 12ZM21.3333 12C21.3333 10.154 20.7859 8.34953 19.7604 6.81468C18.7348 5.27982 17.2772 4.08354 15.5717 3.37712C13.8663 2.67071 11.9896 2.48587 10.1792 2.846C8.36867 3.20613 6.70563 4.09505 5.40034 5.40034C4.09505 6.70563 3.20614 8.36867 2.84601 10.1792C2.48588 11.9896 2.67071 13.8663 3.37713 15.5717C4.08355 17.2772 5.27982 18.7348 6.81468 19.7604C8.34954 20.7859 10.154 21.3333 12 21.3333C14.4745 21.3307 16.847 20.3465 18.5967 18.5967C20.3465 16.847 21.3307 14.4745 21.3333 12ZM13.3333 16.0756V12.4444C13.3333 11.8551 13.0992 11.2898 12.6825 10.8731C12.2657 10.4563 11.7005 10.2222 11.1111 10.2222C10.7962 10.2218 10.4914 10.3327 10.2505 10.5355C10.0096 10.7383 9.84822 11.0198 9.79499 11.3301C9.74175 11.6405 9.80007 11.9597 9.95962 12.2311C10.1192 12.5026 10.3696 12.7088 10.6667 12.8133V16.4444C10.6667 17.0338 10.9008 17.599 11.3175 18.0158C11.7343 18.4325 12.2995 18.6667 12.8889 18.6667C13.2038 18.6671 13.5087 18.5561 13.7495 18.3534C13.9904 18.1506 14.1518 17.8691 14.205 17.5587C14.2583 17.2484 14.1999 16.9292 14.0404 16.6578C13.8808 16.3863 13.6304 16.18 13.3333 16.0756Z" fill="white"/>
</svg>
