<svg width="24" height="24" viewBox="0 0 24 24" fill="none" xmlns="http://www.w3.org/2000/svg">
<path d="M3.75 18.4167C3.75 18.9029 3.94315 19.3692 4.28697 19.713C4.63079 20.0568 5.0971 20.25 5.58333 20.25H18.4167C18.9029 20.25 19.3692 20.0568 19.713 19.713C20.0568 19.3692 20.25 18.9029 20.25 18.4167V5.58333C20.25 5.0971 20.0568 4.63079 19.713 4.28697C19.3692 3.94315 18.9029 3.75 18.4167 3.75H5.58333C5.0971 3.75 4.63079 3.94315 4.28697 4.28697C3.94315 4.63079 3.75 5.0971 3.75 5.58333V18.4167ZM12 6.5H17.5V12H15.6667V8.33333H12V6.5ZM6.5 12H8.33333V15.6667H12V17.5H6.5V12Z" fill="white"/>
</svg>
