<svg width="139" height="160" viewBox="0 0 139 160" fill="none" xmlns="http://www.w3.org/2000/svg">
<g clip-path="url(#clip0_124_5205)">
<path d="M92.859 88.3264C92.6065 89.18 92.4039 90.0992 92.0859 90.9402C92.0204 91.1122 91.7087 91.0121 91.6993 91.0371C90.6581 89.8053 90.3432 88.4578 89.9629 86.9727C91.132 87.0227 91.9487 87.7324 92.859 88.3264Z" fill="#BFD1DF"/>
<path d="M56.7577 94.1348C57.6057 95.029 57.5963 96.5141 57.9174 97.6208C57.6774 100.566 58.7529 104.177 59.6539 107.01C60.2182 108.779 66.2131 122.777 67.086 122.789L73.745 116.399V159.961C61.1191 159.579 49.5968 156.803 38.2242 151.441C36.6935 142.005 38.3551 132.278 35.8113 122.98L33.8815 146.601L23.1667 122.689L25.8695 144.278C16.1492 137.593 7.71322 129.183 1.35352 119.206C1.66838 112.287 2.56934 105.431 3.47653 98.5869C8.34295 98.7589 15.3449 99.0184 20.0772 98.5869L22.3935 117.271C23.4472 115.833 23.6249 113.641 24.3233 112.044C25.1151 110.236 26.3434 108.661 27.2194 106.913C29.4952 104.821 32.0547 103.377 34.8448 102.073C40.7868 99.2935 52.0534 96.9268 56.7546 94.1348H56.7577Z" fill="#DCE6EE"/>
<path d="M135.715 122.015C136.31 124.332 136.828 127.005 137.258 129.372C131.874 134.509 127.553 140.384 121.331 144.667C120.442 144.542 119.797 128.268 119.884 126.758C119.997 124.842 120.922 122.118 120.947 120.464C120.95 120.224 121.225 119.905 120.657 120.174C117.194 129.991 118.045 140.055 117.375 150.279C106.264 155.957 95.3215 158.989 82.8203 159.765V116.009C83.8335 116.303 89.7474 122.891 90.5424 122.109C91.3778 121.287 95.9543 109.262 96.528 107.396C97.2886 104.919 97.934 102.19 98.4577 99.6511C98.4826 99.523 98.8006 98.2473 98.2644 98.3911C98.6229 96.9811 99.2308 95.6335 99.2308 94.1328C106.161 96.534 113.409 98.4631 120.177 101.296C131.095 105.87 132.85 110.835 135.718 122.012L135.715 122.015Z" fill="#DCE6EE"/>
<path d="M78.9586 108.849C80.6482 111.066 81.7892 113.426 82.818 116.012V159.767C79.7504 159.958 76.8168 160.055 73.7461 159.961V116.399C74.008 114.433 76.2775 110.343 77.6056 108.849C77.7988 108.633 77.9828 108.277 78.1854 108.073C78.2166 108.042 78.3444 108.105 78.3787 108.073C78.4099 108.455 78.8307 108.68 78.9586 108.849Z" fill="#511B72"/>
<path d="M5.79311 89.6837C9.37511 89.6306 13.0257 89.5837 16.6046 89.6837C17.278 89.7025 20.436 89.4774 20.6573 89.9745L21.6238 98.3004C21.4398 98.7632 20.4734 98.5537 20.0806 98.5912C15.3482 99.0227 8.34634 98.7632 3.47992 98.5912C2.85954 98.5693 0.225249 98.7976 0.00390625 98.3004V89.7807C1.9274 89.5837 3.86961 89.7119 5.79622 89.6837H5.79311Z" fill="#511B72"/>
<path d="M38.2235 151.445C33.6907 149.306 29.9902 147.118 25.8689 144.282L23.166 122.693L33.8809 146.605L35.8106 122.984C38.3545 132.279 36.6929 142.009 38.2235 151.445Z" fill="#BFD1DF"/>
<path d="M137.258 129.372C137.626 131.388 137.954 133.433 138.225 135.472C132.052 141.421 124.991 146.392 117.375 150.282C118.045 140.058 117.194 129.994 120.658 120.177C121.225 119.908 120.951 120.227 120.948 120.467C120.926 122.118 119.997 124.841 119.885 126.761C119.797 128.271 120.443 144.545 121.331 144.67C127.551 140.386 131.871 134.512 137.258 129.375V129.372Z" fill="#BFD1DF"/>
<path d="M99.228 94.1353C99.228 95.636 98.6232 96.9835 98.2615 98.3936C96.5594 105.069 93.6102 111.397 90.2496 117.368L78.9549 108.849C78.827 108.68 78.4062 108.455 78.375 108.073C83.7589 102.746 87.4999 100.257 91.1162 92.9722C91.3532 92.497 91.6836 91.9998 91.8894 91.5215C91.986 91.2932 91.64 91.1776 91.6961 91.0369C91.7054 91.0119 92.0172 91.1119 92.0827 90.9399C92.4006 90.0989 92.6033 89.1797 92.8558 88.3262C93.6476 88.8452 99.3153 93.0535 99.4181 93.4568C99.3994 93.7444 99.2248 93.7851 99.2248 94.1353H99.228Z" fill="white"/>
<path d="M62.934 88.7129C63.4141 89.2882 63.9129 90.0073 64.2838 90.6482C68.0248 97.0982 72.2054 103.489 78.1848 108.072C77.9821 108.276 77.7982 108.629 77.6049 108.848L66.3102 116.98C63.0555 110.849 59.8445 104.321 57.9117 97.6204C57.5937 96.5167 57.603 95.0285 56.752 94.1343C57.9148 93.4433 61.344 89.9416 62.9308 88.7129H62.934Z" fill="white"/>
<path d="M77.6078 108.848C76.2766 110.343 74.0071 114.432 73.7484 116.399L67.0894 122.79C66.2165 122.777 60.2215 108.78 59.6572 107.01C58.7563 104.174 57.6808 100.566 57.9208 97.6211C59.8536 104.321 63.0647 110.849 66.3193 116.981L77.6141 108.848H77.6078Z" fill="#BFD1DF"/>
<path d="M82.8204 116.014C81.7916 113.428 80.6475 111.068 78.9609 108.851L90.2556 117.371C93.6163 111.402 96.5655 105.071 98.2676 98.3961C98.8038 98.2522 98.4858 99.5279 98.4609 99.656C97.9372 102.195 97.2918 104.924 96.5312 107.4C95.9576 109.27 91.3811 121.295 90.5456 122.114C89.7101 122.933 83.8367 116.308 82.8235 116.014H82.8204Z" fill="#BFD1DF"/>
<path d="M16.4131 41.8647C11.0104 42.1336 12.2855 42.6464 12.167 47.2861C11.0603 48.4555 10.8421 50.7785 10.8172 52.3198C10.2498 52.5543 9.08071 53.5767 8.40421 53.8675C8.09246 53.6893 10.5522 47.974 10.8172 47.1892C11.2318 45.9636 11.2567 43.8126 11.7836 42.737C12.4289 41.4145 15.4311 40.6548 16.8028 39.0571C17.7723 37.9284 17.8378 36.8404 18.5392 35.668C18.8291 38.1004 17.9718 40.092 16.4162 41.8647H16.4131Z" fill="#F6BE9D"/>
<path d="M22.0085 74.7776C21.3102 77.4852 19.474 80.1896 18.5325 82.7159C17.7843 83.4131 12.9584 85.6829 12.5469 84.7481C12.1791 83.9133 14.5109 83.5569 15.1532 83.1036C18.068 81.0338 18.5668 77.8979 16.9862 74.7776C18.5169 74.9371 20.4124 74.7432 22.0054 74.7776H22.0085Z" fill="#F3A579"/>
<path d="M12.1635 47.2852C12.123 48.8172 11.8424 50.3804 11.9703 51.9312C11.7801 51.9937 10.8729 52.2938 10.8105 52.3189C10.8386 50.7775 11.0537 48.4545 12.1604 47.2852H12.1635Z" fill="white"/>
<path d="M18.5352 35.6678C17.8338 36.8371 17.7683 37.9282 16.7988 39.0569C15.4271 40.6546 12.4249 41.4143 11.7796 42.7368C11.2527 43.8155 11.2278 45.9634 10.8132 47.189C10.5482 47.9738 8.08848 53.6922 8.40023 53.8673C9.07673 53.5765 10.2458 52.5541 10.8132 52.3196C10.8724 52.2946 11.7796 51.9945 11.9729 51.932C13.1762 51.5349 19.5297 50.2593 20.3714 50.5782C20.6489 52.3884 27.3515 60.1266 27.417 60.7425C27.523 61.7149 25.3719 61.8649 24.7141 61.8087C22.6628 61.6242 21.5 58.0037 19.7916 56.9688C17.6717 55.6838 13.1295 56.2247 10.7196 56.7749C10.1523 56.9031 7.98248 57.1908 8.3067 58.0349C8.55298 58.6759 16.6585 56.1653 19.2148 57.7442C20.8578 58.7572 22.2575 63.2406 24.9105 62.584C25.4872 64.2567 26.0235 65.9138 26.0702 67.7147L23.0774 67.8116C23.916 72.5733 20.6894 70.0814 19.4081 67.8116L14.2923 66.9393C14.1676 70.3566 12.4966 74.3148 16.9952 74.7806C18.5726 77.9009 18.0769 81.0368 15.1621 83.1065C14.5199 83.563 12.188 83.9163 12.5559 84.7511C12.9674 85.6859 17.7933 83.4161 18.5415 82.7189C17.706 84.97 17.2321 87.3743 16.6117 89.6879C13.0328 89.5878 9.38224 89.6347 5.80023 89.6879C5.84388 86.7677 7.39639 83.3911 7.15011 80.4928C6.72301 75.4216 3.13165 67.8085 2.32422 62.4871C6.38009 56.3873 3.10671 49.7246 6.37697 43.5122C8.63716 39.2195 14.046 37.4343 18.0551 35.2832L18.5383 35.6709L18.5352 35.6678Z" fill="#FED8BB"/>
<path d="M24.7109 61.8048C24.7452 62.0456 24.8263 62.352 24.9042 62.5802C22.2512 63.2368 20.8515 58.7533 19.2086 57.7403C16.6522 56.1614 8.5467 58.672 8.30042 58.0311C7.9762 57.1901 10.146 56.9024 10.7134 56.7711C13.1263 56.2208 17.6685 55.6799 19.7853 56.9649C21.4937 57.9998 22.6565 61.6203 24.7078 61.8048H24.7109Z" fill="#F3A579"/>
<path d="M13.033 61.8062C16.163 61.5874 20.7488 63.2663 22.5882 65.9676C25.5934 70.3792 20.0412 64.8858 19.7886 64.7076C16.3251 62.2721 13.0486 62.5566 9.17043 63.7384C7.04741 62.8942 12.6464 61.8281 13.0299 61.8031L13.033 61.8062Z" fill="#F3A579"/>
<path d="M88.9978 77.8742C88.8981 80.9851 89.1942 83.9866 89.9643 86.9724C90.3477 88.4606 90.6595 89.805 91.7007 91.0369C91.6446 91.1776 91.9906 91.2901 91.894 91.5215C91.6914 91.9999 91.3578 92.5001 91.1209 92.9722C82.4293 92.0905 74.5046 89.1141 67.1816 84.4524C67.2782 83.2331 67.3437 78.8497 66.9883 77.8711C70.0528 79.2092 72.9084 81.2352 76.3501 81.551C80.6211 81.9418 85.4408 80.1972 88.9947 77.8711L88.9978 77.8742Z" fill="#F3A579"/>
<path d="M75.8698 19.2083C81.684 26.9246 83.0463 30.6514 91.6039 36.6324C94.048 38.3426 99.4257 40.6719 101.159 42.2477L101.256 42.8292C100.638 43.07 96.5202 41.1597 95.56 40.8939C94.4158 39.1368 92.0154 38.0331 89.9609 37.9894L84.2653 33.9249C80.889 30.9515 76.2128 24.9767 75.4802 20.4683C75.4396 20.215 75.2869 19.102 75.8667 19.2083H75.8698Z" fill="#F6BE9D"/>
<path d="M104.249 60.8363C103.039 60.8925 102.104 61.2114 100.869 61.0301C100.676 60.9238 101.34 59.7451 101.352 59.6763C107.073 58.8728 109.598 49.3307 103.475 47.2859C103.578 46.7919 103.616 45.0848 103.959 44.9629C112.575 46.2667 111.232 57.816 104.249 60.8394V60.8363Z" fill="#F6BE9D"/>
<path d="M58.4958 39.3472C58.4647 39.3598 58.0968 39.7537 57.916 39.7349C57.2333 38.6875 57.2894 37.3932 55.793 37.2181C63.7644 33.3349 69.0018 26.9537 74.3265 20.1816C74.7817 20.3755 74.4419 20.8038 74.3265 21.0539C70.863 28.4419 64.8711 34.4417 58.4958 39.3504V39.3472Z" fill="#F6BE9D"/>
<path d="M101.352 59.6756C101.61 57.956 101.832 56.1895 101.931 54.448C102.804 52.15 102.985 49.6676 103.475 47.2852C109.597 49.3299 107.072 58.8721 101.352 59.6756Z" fill="#F6BE9D"/>
<path d="M58.8824 40.6997C57.7726 40.4777 58.3868 40.4495 57.916 39.7304C58.0968 39.7523 58.4647 39.3584 58.4959 39.3427C61.9688 37.8358 66.9911 36.9822 69.5006 40.6027C69.4102 41.3218 66.2304 40.337 65.7347 40.312C63.9484 40.2276 60.0047 40.9216 58.8824 40.6997Z" fill="#080C1B"/>
<path d="M91.1206 92.9756C87.5043 100.264 83.7633 102.749 78.3794 108.077C78.3482 108.108 78.2173 108.045 78.1861 108.077C72.2098 103.493 68.0293 97.1027 64.2852 90.6526C65.5509 89.7241 66.6638 87.7262 66.988 86.2005C67.1439 85.472 67.1252 85.1531 67.1813 84.459C74.5043 89.1206 82.4259 92.0971 91.1206 92.9788V92.9756Z" fill="#F6BE9D"/>
<path d="M89.9636 37.9895C92.0181 38.0332 94.4185 39.1338 95.5627 40.894C91.7531 39.8341 89.1375 39.6278 85.2344 40.7002C85.5243 38.8024 88.2303 37.952 89.9636 37.9895Z" fill="#0F1931"/>
<path d="M75.8688 19.2088C75.2889 19.1025 75.4417 20.2155 75.4822 20.4688C76.2148 24.9772 80.8879 30.952 84.2673 33.9254L89.963 37.9898C88.2297 37.9523 85.5237 38.8027 85.2337 40.7005C89.1368 39.6281 91.7524 39.8345 95.562 40.8944C96.5191 41.1601 100.64 43.0704 101.258 42.8297L101.161 42.2482C101.186 42.2701 101.635 42.22 101.741 42.5389C101.841 46.4815 102.156 50.4991 101.934 54.4448C101.838 56.1862 101.613 57.9527 101.354 59.6723C101.345 59.7442 100.681 60.9198 100.871 61.0261C102.103 61.2074 103.038 60.8885 104.25 60.8322C103.639 61.098 103.128 61.4294 102.417 61.6076C101.94 61.7264 100.94 61.3825 100.778 61.5107C100.591 61.6576 99.8579 64.4746 99.6179 64.9968C97.3359 69.9711 93.6167 74.8516 88.9997 77.8718C85.4457 80.1979 80.6261 81.9425 76.3551 81.5517C72.9134 81.236 70.0546 79.2131 66.9932 77.8718C66.6067 76.8025 64.2623 75.9146 63.7105 74.7734C65.5779 74.6671 66.9215 75.1486 67.9565 73.1289V47.9603L68.5364 48.348C67.492 46.8223 68.3182 44.715 67.9565 43.3143C67.2707 40.6568 60.7582 42.4764 58.9813 41.8636C58.71 41.7698 58.2424 40.9632 58.8846 40.7005C60.01 40.9256 63.9506 40.2284 65.7369 40.3129C66.2294 40.3347 69.4124 41.3227 69.5028 40.6036C66.9932 36.9862 61.9741 37.8398 58.498 39.3436C64.8733 34.435 70.8621 28.4352 74.3287 21.0472C74.4441 20.7971 74.7839 20.3687 74.3287 20.1749C74.5282 19.9185 75.264 18.646 75.3918 18.6273C75.7316 18.5647 75.7129 18.9931 75.875 19.2088H75.8688Z" fill="#FED8BB"/>
<path d="M71.1387 67.4199L85.1362 67.7107C81.4669 73.426 74.4058 73.6386 71.1387 67.4199Z" fill="#D93E52"/>
<path d="M77.1242 53.8673C78.8201 54.0018 75.8055 60.1673 75.8678 60.7394C75.9738 61.6868 79.6712 63.2 78.2808 63.7409C77.6417 63.991 75.0448 61.7806 74.9014 61.1271C74.5647 59.5764 76.8342 56.4217 76.4446 54.5458C76.5194 54.3644 76.9745 53.8579 77.1211 53.8673H77.1242Z" fill="#F3A579"/>
<path d="M79.6344 61.0293C80.1114 60.8042 81.4987 61.0731 81.081 61.9016C80.5759 62.9052 78.5464 61.5483 79.6344 61.0293Z" fill="#F3A579"/>
<path d="M97.4897 49.2206C96.1897 47.5573 94.3722 46.1535 92.1806 46.1222C93.9545 47.9137 93.8921 50.7463 92.084 52.5128C91.5976 52.5879 91.0988 52.913 90.6374 52.9005C90.3226 52.8911 89.4964 52.394 89.1909 52.319C87.8909 50.6651 87.8972 48.9986 88.5144 47.0914C87.414 47.7011 86.6502 48.9017 86.1015 49.996L85.9082 49.8021C86.4444 46.1941 90.0233 44.4964 93.3403 44.9623C95.03 45.1999 98.5403 47.3259 97.4897 49.2206Z" fill="#09080C"/>
<path d="M97.4897 49.2214C96.5108 50.9879 93.9763 52.226 92.084 52.5137C93.8921 50.7503 93.9545 47.9177 92.1806 46.123C94.3722 46.1543 96.1897 47.5581 97.4897 49.2214Z" fill="white"/>
<path d="M89.189 52.3194C89.164 52.3131 89.1765 52.6695 88.7058 52.5132C87.9202 52.2537 86.2274 51.2063 85.9062 50.384C85.9343 50.2402 86.0341 50.1277 86.0995 49.9963C86.6482 48.9021 87.412 47.7015 88.5125 47.0918C87.8952 48.999 87.889 50.6654 89.189 52.3194Z" fill="white"/>
<path d="M86.0991 49.9927C86.0336 50.124 85.9338 50.2365 85.9058 50.3804C85.6595 49.7488 85.8746 50.0052 85.9058 49.7988L86.0991 49.9927Z" fill="#66483B"/>
<path d="M63.7068 74.7773C64.2555 75.9185 66.6029 76.8065 66.9895 77.8757C67.3449 78.8543 67.2794 83.2377 67.1828 84.4571C67.1267 85.1512 67.1454 85.4701 66.9895 86.1986C65.1751 86.2673 64.1744 87.7556 62.9367 88.7154C61.3499 89.9441 57.9207 93.4458 56.7579 94.1368C52.0535 96.9288 40.79 99.2956 34.8481 102.075C32.0579 103.379 29.4984 104.823 27.2227 106.915C28.3325 104.708 29.2397 102.366 30.5054 100.237C35.5589 91.72 43.4804 84.504 47.1061 74.9712C52.4214 74.943 58.4756 75.0775 63.7068 74.7773Z" fill="#080C1B"/>
<path d="M135.715 122.015C132.847 110.838 131.092 105.873 120.174 101.299C113.406 98.4632 106.158 96.5373 99.2277 94.1361C99.2277 93.786 99.4022 93.7453 99.4209 93.4577C99.3181 93.0544 93.6504 88.846 92.8586 88.327C91.9483 87.7299 91.1315 87.0233 89.9624 86.9733C89.1924 83.9843 88.8963 80.9828 88.996 77.8751C93.613 74.8548 97.3322 69.9743 99.6142 65C99.8512 64.481 100.587 61.6609 100.774 61.5139C100.936 61.3858 101.94 61.7297 102.414 61.6109C103.125 61.4358 103.639 61.1012 104.247 60.8355C111.23 57.8121 112.574 46.2659 103.957 44.959C103.614 45.0809 103.577 46.788 103.474 47.282C102.984 49.6675 102.803 52.1469 101.931 54.4449C102.152 50.4961 101.837 46.4816 101.737 42.5391C101.631 42.2201 101.182 42.2702 101.157 42.2483C99.4241 40.6725 94.0464 38.3433 91.6022 36.633C83.0447 30.652 81.6824 26.9252 75.8682 19.2089C75.7061 18.9963 75.7248 18.5648 75.385 18.6274C75.2603 18.6461 74.5246 19.9218 74.3219 20.175C69.0004 26.9471 63.7598 33.3283 55.7884 37.2114C53.0824 36.8925 47.1841 37.3553 44.1102 37.4053C43.9637 37.4053 44.1102 37.0114 43.8203 37.0176C45.9277 23.3766 52.9702 2.66645 69.0128 0.812424C84.4133 -0.966569 96.9488 -1.10726 105.403 13.8813C115.57 31.9057 110.591 54.5793 121.427 72.7382C124.994 78.713 130.241 84.0406 133.782 89.9685C139.705 99.8827 140.909 111.495 135.712 122.009L135.715 122.015Z" fill="#0F1931"/>
<path d="M62.0677 6.81766C63.5142 6.76451 62.6788 8.41532 62.7442 8.65606C62.7785 8.78112 64.1066 9.51273 64.2874 10.2037C64.4308 10.7571 64.0505 11.6888 64.0941 11.7513C64.1533 11.842 65.4222 12.0265 65.7339 12.2359C66.5725 12.8018 68.0533 16.2035 68.3401 17.1727C66.1735 19.4801 59.8262 16.6568 61.968 13.1082C57.7063 14.1556 59.4958 12.0421 59.2651 11.5606C59.1903 11.4011 57.2824 11.2354 57.7219 9.62528C57.7531 9.51273 59.0718 7.84942 59.1685 7.78689C59.2963 7.70247 61.9119 6.82391 62.0646 6.81766H62.0677Z" fill="#40495F"/>
<path d="M77.5124 14.3691C83.7505 25.3245 94.852 33.9975 106.761 37.8931C96.3172 36.433 82.1824 25.659 77.8023 16.0168C77.6589 15.6979 77.1227 14.6662 77.5124 14.3723V14.3691Z" fill="#40495F"/>
<path d="M74.4222 11.4668C74.762 11.6669 74.5937 12.0233 74.5189 12.3391C74.3256 13.1457 72.8759 15.9127 72.3959 16.7913C67.9035 25.014 60.2376 31.5266 51.8359 35.4754C61.522 29.6757 69.5496 21.7843 74.4222 11.4668Z" fill="#40495F"/>
<path d="M91.1203 20.9527C91.2575 20.837 91.5848 20.7808 91.5069 20.4681L89.4805 18.6297C89.8858 19.4645 90.5373 20.2399 91.1203 20.9527C88.7261 22.985 85.0038 18.2889 84.9414 16.0159C85.3186 15.3281 85.7738 16.488 86.0045 16.5005C87.8189 16.6037 89.9325 15.0311 91.4102 17.8543C91.2824 15.203 91.7812 14.4933 93.34 12.6268C93.5582 12.3673 94.1723 12.5924 94.2097 12.5298C94.2908 12.3892 94.1224 11.6419 94.403 11.1761C94.9829 10.21 97.2961 11.1417 98.5524 10.1099C98.914 9.81289 99.3006 8.60605 99.2289 8.46536C98.7239 7.48363 88.5671 4.651 86.8743 4.20703C91.7282 4.68852 97.9133 6.53629 101.835 9.53151C101.873 9.55964 102.814 10.2913 102.222 10.3069L99.8088 9.0469C102.674 11.7169 99.2164 13.6179 99.0356 14.2744C98.9951 14.4151 99.6622 15.4344 99.4222 16.2098C99.073 17.3291 96.9126 17.1571 96.0428 16.6944C97.5455 19.824 94.7771 20.9121 92.3735 19.2112C92.5388 19.749 91.697 20.3993 91.697 20.4712C91.697 21.8344 104.541 30.8982 106.755 31.5079C100.657 29.8008 95.1263 25.852 91.1172 20.9558L91.1203 20.9527Z" fill="#40495F"/>
<path d="M91.1203 20.9519C90.5373 20.2391 89.8826 19.4637 89.4805 18.6289L91.5068 20.4673C91.5848 20.78 91.2574 20.8362 91.1203 20.9519Z" fill="#626F84"/>
<path d="M66.9903 86.1973C66.666 87.723 65.5531 89.7209 64.2874 90.6494C63.9164 90.0085 63.4176 89.2894 62.9375 88.7141C64.1751 87.7543 65.1759 86.266 66.9903 86.1973Z" fill="#BFD1DF"/>
<path d="M29.7296 41.4756L29.4397 41.8633C26.1913 41.9102 22.9366 41.8008 19.6913 41.8633C19.763 41.2036 19.4138 39.8373 20.1745 39.5403C20.6858 39.3402 29.2371 39.4652 29.5364 39.8311C29.6392 39.9561 29.8107 41.3036 29.7296 41.4756Z" fill="#080C1B"/>
<path d="M55.7914 37.2146C57.2909 37.3897 57.2316 38.6841 57.9144 39.7315C58.3851 40.4506 57.771 40.4787 58.8808 40.7007C58.2386 40.9602 58.7062 41.77 58.9774 41.8638C60.7575 42.4797 67.2669 40.6601 67.9527 43.3145C68.3144 44.7152 67.4882 46.8224 68.5326 48.3482L67.9527 47.9605V73.129C66.9177 75.1488 65.571 74.6673 63.7067 74.7736C58.4755 75.0737 52.4182 74.9393 47.106 74.9674C38.7916 75.0081 30.3245 74.9518 22.0101 74.7736C20.4171 74.7392 18.5216 74.933 16.9909 74.7736C12.4924 74.3077 14.1634 70.3496 14.2881 66.9323L19.4039 67.8046C20.6821 70.0744 23.9087 72.5663 23.0732 67.8046L26.066 67.7076C26.0223 65.9068 25.483 64.2497 24.9063 62.577C24.8283 62.3519 24.7504 62.0455 24.713 61.8016C25.3708 61.861 27.5219 61.711 27.4159 60.7355C27.3504 60.1196 20.6478 52.3814 20.3703 50.5711C19.5286 50.2554 13.1751 51.531 11.9718 51.9249C11.8408 50.3742 12.1245 48.8109 12.165 47.2789C12.2835 42.6391 11.0085 42.1264 16.4111 41.8575C17.496 41.8044 18.6058 41.8794 19.6938 41.8575C22.9391 41.795 26.1938 41.9044 29.4422 41.8575L29.7322 41.4698C29.648 42.0514 30.2466 41.845 30.6019 41.8575C31.5434 41.8888 36.2789 42.0326 36.7808 41.8575C37.1269 41.7356 39.3964 37.5148 39.677 37.4053C40.0604 37.2521 42.8007 37.4304 43.5365 37.4053C43.6799 37.4022 43.8014 37.0177 43.8264 37.0177C44.1163 37.0114 43.9698 37.4085 44.1163 37.4053C47.1902 37.3553 53.0885 36.8957 55.7945 37.2115L55.7914 37.2146Z" fill="#14264F"/>
<path d="M41.2166 38.377H55.6943C56.0746 38.5145 56.0902 41.3284 55.9842 41.5723C55.685 42.2476 41.8183 42.2914 41.2166 41.863C41.0763 41.763 40.9828 38.4707 41.2166 38.377Z" fill="#486B90"/>
<path d="M19.9799 46.5103C20.3352 46.3883 27.1688 46.3508 27.5086 46.5103L27.7985 47.3826C27.6302 47.7359 20.4818 47.8422 19.9799 47.6734C19.4218 47.4858 19.4094 46.7041 19.9799 46.5103Z" fill="white"/>
<path d="M15.928 43.9938C18.8304 43.431 18.2662 48.4115 15.5415 47.0921C14.1853 46.4356 14.6343 44.2439 15.928 43.9938Z" fill="#EB5B54"/>
<path d="M45.8494 44.7643C64.0899 43.2323 65.6082 70.0923 48.9389 71.6743C30.3524 73.4408 28.6689 46.2056 45.8494 44.7643Z" fill="#486B90"/>
<path d="M46.6235 46.3145C62.0832 45.6579 63.377 68.8036 48.5532 70.1292C32.2019 71.5925 30.8489 46.9867 46.6235 46.3145Z" fill="#0F1931"/>
<path d="M45.8499 47.284C61.9237 45.5519 62.7093 70.9643 45.4633 69.1603C33.2957 67.8878 33.2364 48.644 45.8499 47.284Z" fill="#14264F"/>
<path d="M45.6575 48.4445C60.6713 46.6593 61.0018 70.1739 45.4642 67.9978C34.7524 66.4971 34.7805 49.7389 45.6575 48.4445Z" fill="#0F1931"/>
<path d="M45.6576 49.6079C57.6631 48.0446 59.5617 64.9372 49.1336 66.8382C36.7571 69.0924 34.8243 51.0179 45.6576 49.6079Z" fill="#A7D0E6"/>
<path d="M47.5866 51.3502C55.3585 51.641 56.4714 63.9095 48.7463 65.0976C38.1062 66.7328 37.648 50.9782 47.5866 51.3502Z" fill="#45ADD7"/>
<path d="M46.6229 56.1903C50.2173 55.4212 50.4605 60.3767 47.7826 60.8363C44.7399 61.3584 43.7766 56.8 46.6229 56.1903Z" fill="#2F8AC1"/>
</g>
<defs>
<clipPath id="clip0_124_5205">
<rect width="139" height="160" fill="white"/>
</clipPath>
</defs>
</svg>
