<svg width="212" height="308" viewBox="0 0 212 308" fill="none" xmlns="http://www.w3.org/2000/svg">
<g clip-path="url(#clip0_124_5506)">
<path d="M197.781 288.398C198.426 288.35 200.113 288.422 200.233 288.398V291.901C197.763 290.504 188.696 292.045 185.87 293.303C185.954 292.021 184.611 289.481 185.521 288.055C187.069 288.663 195.709 288.566 197.781 288.404V288.398Z" fill="#E39D85"/>
<path d="M186.219 19.2472C190.038 26.5177 185.514 37.7242 180.965 43.9233C180.302 44.8321 175.639 49.9058 175.006 50.0502C174.795 50.0984 174.53 50.0262 174.307 50.0502L173.958 49.7012C172.65 44.8442 173.807 46.8544 175.187 45.8493C177.332 44.2845 179.465 40.7455 178.868 37.977C178.272 35.2085 175.753 36.8034 175.542 36.7492C173.62 36.3038 172.897 24.9047 171.686 24.5014C164.209 27.2158 159.088 26.8908 154.871 19.6023C154.726 22.407 156.642 24.9889 158.552 26.7764C157.16 27.7755 150.473 26.0001 149.966 26.2528C149.623 26.4214 148.442 31.5431 148.388 32.2052C147.641 30.3033 148.49 26.9329 148.038 25.3801C147.894 24.8746 145.339 22.9968 144.887 22.2324C141.309 16.1657 143.676 7.46288 148.569 2.80451C149.822 2.97303 148.292 8.04668 149.972 8.75687C151.599 6.32537 152.509 3.47257 154.702 1.4082C152.467 16.2379 174.759 26.8186 186.237 19.2593L186.219 19.2472Z" fill="#101C2D"/>
<path d="M186.218 19.2477C174.741 26.807 152.448 16.2264 154.684 1.39666C154.888 1.20407 155.69 -0.0237179 155.913 -0.00566224C159.889 10.2981 172.584 6.29577 179.386 10.4967C180.736 11.3273 185.375 17.6408 186.218 19.2477Z" fill="#252E3B"/>
<path d="M208.638 151.548C205.734 150.609 202.445 151.614 199.529 151.199C198.932 151.115 197.04 150.802 196.727 150.326C196.233 147.209 195.438 144.091 194.624 141.052C192.829 134.335 190.991 127.552 190.419 120.576L185.864 106.577C185.876 122.292 183.261 140.384 184.816 155.929C184.876 156.519 185.081 159.276 185.165 159.432C185.244 159.571 187.895 158.74 188.316 159.607C176.76 160.492 166.729 161.316 155.028 160.654C151.932 160.48 144.25 160.528 141.713 159.607C141.358 159.474 140.87 159.137 140.31 159.083L140.659 101.335C139.767 100.926 139.785 103.279 139.611 103.959C137.761 111.121 136.658 118.663 133.302 125.307C126.097 124.687 118.843 116.899 114.384 111.482C113.36 110.237 106.371 100.637 106.323 99.9328C106.287 99.4152 108.317 96.2193 108.775 95.5573C109.667 94.2693 112.004 92.4758 112.98 91.0072L131.724 106.06L142.412 75.0821C146.298 69.9362 153.643 70.2552 158.18 65.8075C158.288 67.4145 159.354 70.2432 160.806 71.0557C166.777 74.4201 171.537 66.1445 176.05 63.707C176.694 66.3612 184.063 67.5409 186.388 68.6061C189.919 70.2312 194.058 72.9576 196.372 76.1293C203.475 85.8734 210.078 135.689 209.687 148.581C209.602 151.361 208.645 151.373 208.638 151.554V151.548Z" fill="#FEFEFF"/>
<path d="M194.624 141.051L192.871 163.103C192.75 161.875 192.383 160.527 192.347 159.251C191.003 159.449 189.665 159.498 188.316 159.6C187.894 158.733 185.237 159.564 185.165 159.425C185.08 159.269 184.876 156.512 184.815 155.923C183.267 140.383 185.876 122.285 185.864 106.57L190.419 120.569C190.985 127.545 192.829 134.322 194.624 141.045V141.051Z" fill="#BED9E7"/>
<path d="M133.314 125.301C136.67 118.656 137.773 111.109 139.623 103.953C139.918 108.166 141.424 123.285 136.996 125.301C135.58 125.945 134.64 125.415 133.314 125.301Z" fill="#BED9E7"/>
<path d="M200.233 291.9C201.553 292.647 205.8 305.31 205.837 307.651C198.07 307.561 190.154 307.687 182.363 307.651C182.634 303.239 185.593 297.395 185.87 293.303C188.702 292.045 197.769 290.504 200.233 291.9Z" fill="#511B72"/>
<path d="M192.696 297.149C193.353 297.083 198.48 296.908 198.48 297.673C196.251 299.117 183.96 298.046 192.696 297.149Z" fill="#FEFEFF"/>
<path d="M193.051 295.048C193.671 294.999 197.78 294.813 197.78 295.571L189.195 296.799C187.61 295.722 192.514 295.09 193.051 295.048Z" fill="#FEFEFF"/>
<path d="M193.052 299.249C193.691 299.171 198.836 299.02 198.836 299.772C197.095 301.283 185.714 300.182 193.052 299.249Z" fill="#FEFEFF"/>
<path d="M208.638 151.548C208.216 160.178 213.042 164.59 211.789 172.721C211.699 173.329 210.632 177.464 210.385 177.62C209.728 178.035 208.885 177.066 208.807 177.097C208.457 177.217 208.186 179.119 207.933 179.372C207.806 179.498 205.131 181.316 204.957 181.297C203.89 181.189 204.481 178.336 203.553 178.15C203.113 179.612 203.842 181.255 202.504 182.351C201.155 182.339 200.92 172.077 200.926 170.627C199.594 179.191 197.365 177.175 197.07 169.928C196.775 162.682 200.884 158.204 199.522 151.205C202.438 151.62 205.728 150.621 208.632 151.554L208.638 151.548Z" fill="#F6C1AA"/>
<path d="M112.991 91.0023C112.015 92.4708 109.678 94.2644 108.786 95.5523C105.563 92.844 101.918 92.6815 98.0977 90.6532C97.1036 90.1236 89.5845 84.7129 89.5122 84.1773C89.7291 81.7337 92.2837 84.4541 93.7176 84.1773C90.9642 82.6124 83.0414 77.2198 91.6149 79.6272C83.5053 73.8675 89.0965 74.9809 94.4165 77.5268L89.8616 72.9767C90.3075 71.4179 100.032 76.3712 100.899 77.0031C101.014 74.7703 99.3148 72.7661 101.598 71.0508C102.604 73.2596 106.057 76.1967 107.027 77.8758C109.503 82.149 109.485 87.4092 112.985 91.0023H112.991Z" fill="#F6C1AA"/>
<path d="M173.951 49.7024C171.168 53.4459 167.884 56.2566 163.263 57.4001C162.739 57.5325 157.34 57.1172 160.461 58.8024C166.161 61.8719 173.746 56.0881 174.3 50.0514C174.523 50.0274 174.795 50.0996 174.999 50.0514C176.108 53.9214 175.174 60.0964 176.048 63.7015C171.541 66.139 166.781 74.4146 160.805 71.0502C159.353 70.2317 158.286 67.409 158.178 65.802C158.087 64.4539 159.377 58.2969 159.226 57.9297C158.919 57.1473 152.599 58.1645 150.466 52.3325C149.309 49.1667 148.098 35.6911 148.363 32.2064C148.411 31.5504 149.598 26.4225 149.942 26.254C150.442 26.0073 157.135 27.7827 158.527 26.7776C156.617 24.9841 154.707 22.4021 154.846 19.6035C159.063 26.898 164.185 27.217 171.662 24.5026C172.867 24.9119 173.596 36.305 175.518 36.7504C175.728 36.7986 178.223 35.0712 178.843 37.9782C179.464 40.8852 177.307 44.2917 175.162 45.8505C173.788 46.8556 172.632 44.8454 173.933 49.7024H173.951Z" fill="#F6C1AA"/>
<path d="M174.301 50.0502C173.747 56.0869 166.161 61.8707 160.462 58.8012C157.341 57.1221 162.739 57.5313 163.263 57.3989C167.884 56.2554 171.162 53.4447 173.951 49.7012L174.301 50.0502Z" fill="#E39D85"/>
<path d="M154.684 48.997C157.244 50.1586 160.588 49.4424 163.094 48.2988C164.263 52.8007 156.087 55.9424 154.684 48.997Z" fill="#C1716D"/>
<path d="M163.094 48.2999C160.588 49.4434 157.244 50.1596 154.684 48.998C154.599 48.5828 153.153 48.3721 154.509 47.2466C157.051 47.7101 162.54 46.1633 163.094 48.2939V48.2999Z" fill="#FEFEFF"/>
<path d="M152.057 35.7031C154.052 35.0471 154.672 38.7244 153.106 39.2059C150.937 39.868 150.509 36.2087 152.057 35.7031Z" fill="#101C2D"/>
<path d="M151.003 32.5494C151.605 32.3869 156.226 32.6879 155.033 34.1263C154.142 35.1976 146.629 33.7291 151.003 32.5494Z" fill="#101C2D"/>
<path d="M163.968 32.5489C170.608 31.5077 166.167 36.6897 162.215 33.5961C162.299 33.2651 163.715 32.585 163.968 32.5489Z" fill="#101C2D"/>
<path d="M164.667 35.7025C166.661 35.1608 166.86 39.5544 165.017 39.5544C163.426 39.5544 163.342 36.0636 164.667 35.7025Z" fill="#101C2D"/>
<path d="M192.877 163.098C194.72 181.852 195.094 201.767 196.732 220.846C198.642 243.091 201.064 265.299 203.041 287.52C202.071 287.562 201.125 288.206 200.239 288.392C200.118 288.417 198.432 288.344 197.787 288.392C196.003 265.299 193.021 242.308 190.78 219.269C189.798 209.17 190.057 185.198 186.924 176.917C184.333 170.055 164.228 165.566 157.667 162.743C156.787 162.364 156.781 160.642 154.516 161.341L155.04 160.642C166.74 161.304 176.772 160.48 188.328 159.595C189.677 159.493 191.015 159.439 192.358 159.246C192.395 160.516 192.762 161.864 192.883 163.098H192.877Z" fill="#511B72"/>
<path d="M155.033 160.649L154.509 161.347C156.775 160.649 156.787 162.37 157.66 162.749C164.221 165.578 184.321 170.068 186.917 176.923C190.05 185.205 189.791 209.177 190.773 219.276C193.015 242.321 195.997 265.306 197.78 288.399C195.708 288.561 187.062 288.658 185.52 288.05C184.411 287.611 184.501 287.574 184.116 286.473C179.139 272.191 179.139 250.259 174.657 235.201L166.951 197.398C166.583 190.519 164.221 183.754 163.444 176.923C160.637 175.418 158.022 172.65 154.684 172.373C153.738 173.812 160.076 179.445 160.992 180.775L157.841 293.822C157.293 295.242 146.852 295.11 144.875 294.345C144.357 278.468 143.026 262.615 142.423 246.744C141.315 217.735 140.827 188.647 141.724 159.596C144.255 160.523 151.937 160.468 155.039 160.643L155.033 160.649Z" fill="#5E3B8C"/>
<path d="M166.945 197.398C167.626 210.302 165.897 225.523 165.541 238.697C165.053 257.066 164.137 275.429 164.137 293.821C163.468 294.556 161.703 294.044 161.336 294.869C160.902 295.832 163.938 305.63 163.438 307.646C150.918 307.616 138.32 308.013 125.776 307.995C125.493 307.995 125.638 307.297 125.602 307.297C124.8 302.103 132.693 301.868 136.639 299.948C137.621 299.467 144.713 294.869 144.875 294.351C146.852 295.109 157.287 295.248 157.841 293.828L160.992 180.781C160.076 179.451 153.738 173.823 154.684 172.379C158.022 172.656 160.637 175.424 163.444 176.929C164.222 183.76 166.583 190.525 166.951 197.404L166.945 197.398Z" fill="#511B72"/>
<path d="M151.353 295.05C151.727 294.881 159.354 294.881 159.589 295.224C160.764 298.649 152.606 298.757 151.353 298.197C150.57 297.848 150.57 295.393 151.353 295.05Z" fill="#B4C5CC"/>
<path d="M47.8201 307.65C36.0654 307.692 24.1601 307.499 12.4355 307.65C12.779 304.081 13.8454 300.632 14.5383 297.147C17.3037 299.067 25.6965 299.579 27.504 296.449L47.8261 307.65H47.8201Z" fill="#101C2D"/>
<path d="M46.4226 8.75L39.2409 10.8505C34.6619 13.0653 29.366 16.3815 28.7274 21.7019C40.2892 24.4043 55.8457 24.0853 62.5394 12.6019C63.2503 13.0713 64.5457 13.4806 65.1663 14.0042C78.7706 25.4575 72.2456 53.2753 63.2383 66.1551C61.9971 65.4509 60.28 65.2763 59.3823 64.7527C57.0266 63.3865 56.9964 61.8999 57.2796 59.1555C57.3881 58.0962 57.7616 57.6568 57.9785 56.7059C66.8051 56.2004 68.2992 44.8253 68.8415 37.6331C68.968 35.9599 69.1548 20.2996 67.6124 20.3056C65.1723 25.9631 59.4305 28.864 54.472 32.0298L55.7011 33.2576C52.6283 32.8724 47.3625 33.6067 44.4886 34.6599C44.0006 34.8405 43.9524 35.8215 43.4403 36.0622C41.5906 36.9109 39.012 34.9488 39.759 40.4377C40.2712 44.2234 44.1151 45.2225 44.3139 45.6859C45.1454 47.6119 42.2835 60.7925 40.8074 63.3624C35.8609 65.4027 27.2332 68.6166 23.9917 72.9861C20.7503 77.3556 17.9126 91.7941 16.9847 97.6622C3.41654 86.546 1.02463 64.6564 14.882 52.6855C4.33835 56.2726 -0.88528 72.1134 2.62124 82.0742C3.23579 83.8075 5.13967 85.3543 5.24812 87.1478C-3.36154 79.6667 -0.25266 61.1115 6.47721 53.3716C9.51379 49.8809 14.4422 47.317 17.6896 43.5734C29.4745 29.9835 23.4977 11.0491 46.4226 8.75Z" fill="#101C2D"/>
<path d="M62.5386 12.6023C55.8449 24.0858 40.2884 24.4047 28.7266 21.7024C29.3652 16.388 34.6611 13.0718 39.2401 10.8509L46.4219 8.75045C54.0494 7.98609 56.4112 8.57591 62.5386 12.6023Z" fill="#252E3B"/>
<path d="M33.4576 131.601C45.8027 132.263 58.2864 132.088 70.5954 131.252C70.5653 133.448 74.4694 146.286 75.1502 150.15C75.3732 151.42 75.6563 152.732 75.8491 154.002C76.8192 160.412 77.3554 166.051 77.6024 172.551C78.476 195.867 76.7107 222.427 74.4514 245.701C73.6139 254.337 72.8005 265.953 70.9448 274.223C70.4749 276.329 70.1435 279.254 68.1432 280.349C67.1732 280.879 63.7932 281.264 62.54 281.397L58.3346 280.873L57.9852 167.826C58.8588 166.322 66.6129 156.62 66.396 155.928C65.432 152.87 56.2319 163 55.1835 163.981C54.4425 174.694 50.9781 185.75 50.2792 196.354C47.5379 208.963 45.881 221.801 43.6217 234.506C40.9526 249.51 37.7413 264.442 35.2108 279.483C34.8734 280.055 33.0117 280.602 32.4092 280.711C28.734 281.367 21.1365 280.578 17.6963 278.959C17.13 278.694 15.5032 278.363 15.2441 277.731C16.8227 258.195 18.8832 238.647 20.4979 219.105C21.5221 206.736 22.9139 194.453 22.9501 182.006L28.3785 183.053C31.2223 181.898 28.8184 176.842 28.5533 174.128C28.3424 171.985 28.8967 169.12 28.5533 167.128C28.1195 164.619 24.7033 161.128 24.3478 159.43C23.9261 157.402 24.6611 154.092 24.3478 151.907C25.0287 151.709 25.9143 151.853 26.4506 151.035C27.4386 144.474 27.9387 137.812 28.9027 131.258C30.2824 130.824 32.1984 131.54 33.4576 131.607V131.601Z" fill="#511B72"/>
<path d="M62.5394 281.397C59.4245 281.728 55.7855 281.813 52.7308 281.048C52.2247 280.922 48.6097 279.682 48.5254 279.471C49.7183 265.677 51.2125 251.864 51.327 237.998C51.4415 224.287 49.3809 209.891 50.2786 196.349C50.9775 185.744 54.4419 174.688 55.183 163.975C56.2313 163 65.4314 152.871 66.3954 155.922C66.6123 156.615 58.8582 166.316 57.9846 167.821L58.334 280.868L62.5394 281.391V281.397Z" fill="#511B72"/>
<path d="M40.8138 63.3517L53.6048 81.9009L59.3888 64.748C60.2865 65.2656 62.0036 65.4462 63.2447 66.1504C66.2271 67.8416 69.2576 69.7675 71.3061 72.6263C75.1982 78.0671 81.5124 113.637 82.868 122.328C84.4586 132.505 85.6274 142.785 85.3202 153.125C84.2477 152.842 83.3319 153.985 83.2174 153.997C81.6931 154.232 77.8311 152.884 75.861 153.997C75.6682 152.727 75.385 151.421 75.1621 150.145L76.2104 152.77H77.6142C75.9634 132.872 77.0479 112.638 72.8847 93.0955C72.722 104.663 72.3364 117.073 71.6556 128.972C71.6254 129.478 70.6072 131.121 70.6072 131.247C58.2922 132.084 45.8085 132.258 33.4694 131.596C35.3191 129.448 36.018 125.469 36.271 122.671C37.1205 113.282 35.8794 102.484 35.0419 93.0955C32.7765 105.765 30.7883 118.512 28.9085 131.247C27.9445 137.801 27.4445 144.464 26.4564 151.024C25.9201 151.849 25.0345 151.698 24.3537 151.897C23.3776 152.186 17.7081 153.034 16.9972 152.944C16.708 152.908 15.0692 152.426 14.8945 152.071C13.8823 134.136 14.1956 115.388 16.9972 97.6455C17.925 91.7774 20.6363 77.5134 24.0042 72.9694C27.3722 68.4254 35.8734 65.386 40.8199 63.3457L40.8138 63.3517Z" fill="#FEFEFF"/>
<path d="M75.1507 150.152C74.4699 146.288 70.5658 133.45 70.5959 131.253C70.5959 131.127 71.6201 129.484 71.6442 128.978C72.319 117.08 72.7046 104.669 72.8733 93.1016C77.0366 112.644 75.9521 132.884 77.6029 152.776H76.1991L75.1507 150.152Z" fill="#DAEBF3"/>
<path d="M33.4572 131.602C32.198 131.536 30.2821 130.82 28.9023 131.253C30.7821 118.518 32.7704 105.777 35.0357 93.1016C35.8732 102.485 37.1083 113.288 36.2648 122.677C36.0118 125.475 35.3129 129.454 33.4632 131.602H33.4572Z" fill="#DAEBF3"/>
<path d="M87.0605 307.999C75.3962 308.017 63.6656 307.614 52.0254 307.65C51.6338 304.267 53.5437 300.211 53.7787 297.147C56.2911 299.037 65.3164 299.338 66.7444 296.449L87.0665 307.999H87.0605Z" fill="#101C2D"/>
<path d="M31.0053 283.846C30.1497 286.079 29.3183 288.402 28.5531 290.671C28.1735 291.797 27.8964 295.763 27.5048 296.449C25.6973 299.579 17.3045 299.073 14.5391 297.147C15.4729 292.453 16.6719 287.511 17.3407 282.799L31.0053 283.846Z" fill="#F6C1AA"/>
<path d="M32.4028 280.699C31.8063 281.704 31.4147 282.763 30.999 283.846L17.3344 282.799C17.4609 281.896 16.9066 279.952 17.6838 278.947C21.1241 280.56 28.7215 281.355 32.3967 280.699H32.4028Z" fill="#E39D85"/>
<path d="M68.1434 280.35C68.4447 281.65 67.8844 283.088 67.794 284.201C62.721 285.417 58.136 285.477 53.0811 284.201C52.9666 283.202 52.4846 282.191 52.7316 281.054C55.7923 281.824 59.4314 281.734 62.5402 281.403C63.7995 281.27 67.1795 280.885 68.1434 280.356V280.35Z" fill="#E39D85"/>
<path d="M67.795 284.195C67.6263 286.296 67.3612 295.197 66.7466 296.443C65.3187 299.338 56.2933 299.031 53.7809 297.141C54.0822 293.247 53.5339 288.114 53.082 284.189C58.137 285.465 62.728 285.405 67.795 284.189V284.195Z" fill="#F6C1AA"/>
<path d="M24.3465 151.902C24.6598 154.093 23.9248 157.397 24.3465 159.426C24.702 161.129 28.1182 164.614 28.552 167.123C28.8954 169.115 28.3411 171.98 28.552 174.123C28.8171 176.837 31.221 181.893 28.3772 183.048L22.9487 182.001C20.4243 181.754 18.5144 174.58 18.0444 172.028C16.8394 165.486 18.3818 159.426 16.9961 152.956C17.707 153.046 23.3765 152.197 24.3526 151.908L24.3465 151.902Z" fill="#F6C1AA"/>
<path d="M83.2101 153.997C83.5716 162.718 91.2655 165.559 89.1688 175.52C88.6145 178.144 86.4154 177.109 85.1381 179.197C84.1079 176.434 83.662 179.275 83.0354 179.197C82.6498 179.149 82.5173 178.252 82.3365 178.15C82.0112 177.957 81.4147 178.908 81.1074 178.324C80.2338 176.645 82.6197 169.615 80.9327 167.298L79.7036 173.425L77.6009 172.553C77.3599 166.052 76.8237 160.413 75.8477 154.003C77.8178 152.89 81.6798 154.238 83.2041 154.003L83.2101 153.997Z" fill="#E39D85"/>
<path d="M57.9831 56.7016C57.7662 57.6526 57.3927 58.0919 57.2842 59.1512C49.4578 61.4503 45.0536 59.398 44.668 50.9238C48.289 54.7938 52.5908 57.0086 57.9831 56.7016Z" fill="#E39D85"/>
<path d="M57.9846 56.7012C52.5922 57.0082 48.2964 54.7933 44.6694 50.9234C45.049 59.3975 49.4593 61.4499 57.2857 59.1508C57.0025 61.9013 57.0326 63.3818 59.3884 64.748L53.6044 81.901L40.8135 63.3517C42.2896 60.7818 45.1514 47.6012 44.32 45.6752C44.1212 45.2118 40.2772 44.2067 39.7651 40.427C39.018 34.9381 41.5967 36.9001 43.4464 36.0515C43.9645 35.8168 44.0067 34.8298 44.4947 34.6492C47.3686 33.596 52.6344 32.8617 55.7071 33.2469L54.478 32.0191C59.4366 28.8533 65.1784 25.9524 67.6185 20.2949C69.1609 20.2829 68.9681 35.9492 68.8476 37.6224C68.3053 44.8206 66.8111 56.1957 57.9846 56.6952V56.7012Z" fill="#F6C1AA"/>
<path d="M62.5402 49.7019L56.5815 49.0037C55.1415 45.3866 62.251 48.4982 64.4621 47.6014C64.3055 48.5102 63.1728 49.1422 62.5341 49.7019H62.5402Z" fill="#FEFEFF"/>
<path d="M65.1671 34.9981C67.2939 34.7092 66.8541 38.4949 65.866 38.85C63.5524 39.6866 63.2934 35.2569 65.1671 34.9981Z" fill="#511B72"/>
<path d="M52.8998 34.9986C54.6772 34.5653 55.123 38.4352 53.5987 38.8505C51.6828 39.3681 51.4779 35.3477 52.8998 34.9986Z" fill="#511B72"/>
<path d="M62.5407 49.7021C60.5705 51.4354 58.028 52.6271 56.582 49.0039L62.5407 49.7021Z" fill="#D2887A"/>
<path d="M65.1661 31.5012C65.9795 31.447 67.5339 32.109 68.1424 32.7289L63.4129 33.2526C62.5392 32.2715 64.9793 31.5132 65.1661 31.5012Z" fill="#101C2D"/>
</g>
<defs>
<clipPath id="clip0_124_5506">
<rect width="212" height="308" fill="white"/>
</clipPath>
</defs>
</svg>
