<svg width="20" height="20" viewBox="0 0 20 20" fill="none" xmlns="http://www.w3.org/2000/svg">
<path d="M8.93934 8.93934C9.22064 8.65804 9.60218 8.5 10 8.5C10.3978 8.5 10.7794 8.65804 11.0607 8.93934C11.342 9.22064 11.5 9.60218 11.5 10C11.5 10.3978 11.342 10.7794 11.0607 11.0607C10.7794 11.342 10.3978 11.5 10 11.5C9.60218 11.5 9.22064 11.342 8.93934 11.0607C8.65804 10.7794 8.5 10.3978 8.5 10C8.5 9.60218 8.65804 9.22064 8.93934 8.93934Z" fill="#8F27CE"/>
<path fill-rule="evenodd" clip-rule="evenodd" d="M6.52721 6.52721C6.86477 6.18964 7.32261 6 7.8 6H12.2C13.195 6 14 6.805 14 7.8V12.2C14 12.6774 13.8104 13.1352 13.4728 13.4728C13.1352 13.8104 12.6774 14 12.2 14H7.8C6.805 14 6 13.195 6 12.2V7.8C6 7.32261 6.18964 6.86477 6.52721 6.52721ZM13.0669 6.93306C12.9497 6.81585 12.7908 6.75 12.625 6.75C12.4592 6.75 12.3003 6.81585 12.1831 6.93306C12.0658 7.05027 12 7.20924 12 7.375C12 7.54076 12.0658 7.69973 12.1831 7.81694C12.3003 7.93415 12.4592 8 12.625 8C12.7908 8 12.9497 7.93415 13.0669 7.81694C13.1842 7.69973 13.25 7.54076 13.25 7.375C13.25 7.20924 13.1842 7.05027 13.0669 6.93306ZM11.7678 8.23223C11.2989 7.76339 10.663 7.5 10 7.5C9.33696 7.5 8.70107 7.76339 8.23223 8.23223C7.76339 8.70107 7.5 9.33696 7.5 10C7.5 10.663 7.76339 11.2989 8.23223 11.7678C8.70107 12.2366 9.33696 12.5 10 12.5C10.663 12.5 11.2989 12.2366 11.7678 11.7678C12.2366 11.2989 12.5 10.663 12.5 10C12.5 9.33696 12.2366 8.70107 11.7678 8.23223Z" fill="#8F27CE"/>
<path fill-rule="evenodd" clip-rule="evenodd" d="M10 20C15.5228 20 20 15.5228 20 10C20 4.47715 15.5228 0 10 0C4.47715 0 0 4.47715 0 10C0 15.5228 4.47715 20 10 20ZM15 7.9C15 6.3 13.7 5 12.1 5H7.9C7.13087 5 6.39325 5.30553 5.84939 5.84939C5.30553 6.39325 5 7.13087 5 7.9V12.1C5 13.7 6.3 15 7.9 15H12.1C12.8691 15 13.6068 14.6945 14.1506 14.1506C14.6945 13.6068 15 12.8691 15 12.1V7.9Z" fill="#8F27CE"/>
</svg>
