<svg width="20" height="20" viewBox="0 0 20 20" fill="none" xmlns="http://www.w3.org/2000/svg">
<g clip-path="url(#clip0_92_4850)">
<path fill-rule="evenodd" clip-rule="evenodd" d="M2.92969 2.92891C4.80312 1.05422 7.34844 0 10 0C12.6516 0 15.1969 1.05422 17.0703 2.92891C18.9453 4.80359 20 7.34891 20 10C20 12.6511 18.9453 15.1964 17.0703 17.0711C15.1969 18.9458 12.6516 20 10 20C7.34844 20 4.80312 18.9458 2.92969 17.0711C1.05469 15.1964 0 12.6511 0 10C0.000536638 7.34779 1.05433 4.80435 2.92969 2.92891ZM10.357 7.38217C9.3851 7.78675 7.44135 8.62404 4.52572 9.89404C4.05229 10.0823 3.80385 10.2665 3.78197 10.4465C3.7435 10.7506 4.12431 10.8705 4.64176 11.0335C4.71273 11.0559 4.78628 11.079 4.86166 11.1036C5.3726 11.2695 6.0601 11.4637 6.41635 11.4714C6.74135 11.4784 7.10228 11.3448 7.50072 11.0708C10.2257 9.23217 11.6304 8.30279 11.7195 8.28279C11.782 8.26873 11.8679 8.25092 11.9257 8.30295C11.9851 8.35482 11.9788 8.45326 11.9726 8.47967C11.9357 8.64027 10.4455 10.0258 9.67 10.7468C9.4262 10.9735 9.25304 11.1345 9.21791 11.1711C9.13942 11.2526 9.05941 11.3297 8.98251 11.4039C8.50833 11.861 8.15258 12.2039 9.00229 12.7637C9.41428 13.0351 9.74313 13.2591 10.0718 13.483C10.4249 13.7235 10.7779 13.9639 11.2335 14.2628C11.3507 14.3396 11.4626 14.4193 11.5716 14.497C11.9857 14.7922 12.3577 15.0574 12.8179 15.0151C13.0851 14.9906 13.3617 14.7394 13.5007 13.99C13.832 12.2189 14.4835 8.3817 14.6335 6.80045C14.6476 6.66201 14.6304 6.48467 14.6179 6.40686C14.6038 6.32897 14.5757 6.21803 14.4757 6.136C14.3554 6.03873 14.171 6.01826 14.0882 6.01959C13.7117 6.02639 13.1351 6.22701 10.357 7.38217Z" fill="#8F27CE"/>
</g>
<defs>
<clipPath id="clip0_92_4850">
<rect width="20" height="20" fill="white"/>
</clipPath>
</defs>
</svg>
