<svg width="20" height="20" viewBox="0 0 20 20" fill="none" xmlns="http://www.w3.org/2000/svg">
<g clip-path="url(#clip0_1_11834)">
<path d="M6.86828 0.547466C4.80517 1.24888 3.02595 2.58019 1.79196 4.34584C0.557968 6.11149 -0.0657563 8.21842 0.0124029 10.3572C0.0905622 12.4959 0.866486 14.5537 2.2262 16.2283C3.58592 17.9029 5.45776 19.1061 7.56678 19.6611C9.27661 20.0934 11.068 20.1124 12.787 19.7164C14.3442 19.3736 15.7839 18.6403 16.9651 17.5884C18.1944 16.4602 19.0868 15.0249 19.5461 13.4369C20.0454 11.71 20.1343 9.89389 19.8058 8.12808H10.2043V12.0314H15.7649C15.6537 12.654 15.4156 13.2482 15.0647 13.7784C14.7138 14.3087 14.2573 14.7641 13.7226 15.1174C13.0436 15.5576 12.2782 15.8538 11.4755 15.9869C10.6704 16.1336 9.84465 16.1336 9.03959 15.9869C8.22364 15.8216 7.45176 15.4916 6.7731 15.0178C5.68284 14.2615 4.86421 13.187 4.43401 11.9476C3.99655 10.6851 3.99655 9.31633 4.43401 8.05378C4.74023 7.16879 5.24646 6.36302 5.9149 5.69659C6.67985 4.91995 7.64829 4.3648 8.71399 4.09206C9.77968 3.81931 10.9014 3.83951 11.9562 4.15043C12.7801 4.39831 13.5336 4.8314 14.1565 5.41519C14.7835 4.80389 15.4094 4.19101 16.0343 3.57655C16.3569 3.24613 16.7086 2.93153 17.0264 2.5932C16.0755 1.72602 14.9594 1.05124 13.742 0.607542C11.525 -0.181364 9.09925 -0.202565 6.86828 0.547466Z" fill="white"/>
<path d="M6.86981 0.548234C9.10059 -0.202307 11.5263 -0.181664 13.7435 0.606729C14.9611 1.05345 16.0767 1.73147 17.0263 2.60188C16.7036 2.9402 16.3633 3.25639 16.0342 3.58522C15.4083 4.19758 14.7829 4.80782 14.1581 5.41595C13.5351 4.83217 12.7817 4.39908 11.9577 4.1512C10.9033 3.83919 9.7816 3.81782 8.71562 4.08945C7.64964 4.36108 6.6806 4.91521 5.91481 5.69104C5.24637 6.35746 4.74015 7.16324 4.43393 8.04822L1.08984 5.51081C2.28682 3.18455 4.35932 1.40514 6.86981 0.548234Z" fill="#E33629"/>
<path d="M0.200028 8.02151C0.379768 7.1485 0.678175 6.30307 1.08727 5.50781L4.43135 8.05155C3.99389 9.3141 3.99389 10.6829 4.43135 11.9454C3.3172 12.7886 2.2025 13.636 1.08727 14.4876C0.0631518 12.4898 -0.249186 10.2135 0.200028 8.02151Z" fill="#F8BD00"/>
<path d="M10.2038 8.12695H19.8054C20.1338 9.89276 20.045 11.7088 19.5457 13.4358C19.0863 15.0238 18.194 16.4591 16.9646 17.5873C15.8854 16.7621 14.8014 15.9431 13.7222 15.1179C14.2572 14.7642 14.7139 14.3083 15.0648 13.7774C15.4157 13.2466 15.6537 12.6518 15.7644 12.0287H10.2038C10.2022 10.7292 10.2038 9.42807 10.2038 8.12695Z" fill="#587DBD"/>
<path d="M1.08594 14.4894C2.20117 13.6463 3.31587 12.7989 4.43002 11.9473C4.86107 13.187 5.68088 14.2616 6.77234 15.0175C7.4531 15.489 8.22665 15.8164 9.04367 15.9787C9.84873 16.1254 10.6745 16.1254 11.4795 15.9787C12.2822 15.8455 13.0477 15.5493 13.7267 15.1091C14.8059 15.9344 15.8899 16.7533 16.9691 17.5786C15.7881 18.6311 14.3484 19.3649 12.791 19.7081C11.0721 20.1041 9.28068 20.0852 7.57085 19.6528C6.21854 19.2989 4.95539 18.6751 3.86058 17.8205C2.70178 16.9188 1.75533 15.7826 1.08594 14.4894Z" fill="#319F43"/>
</g>
<defs>
<clipPath id="clip0_1_11834">
<rect width="20" height="20" fill="white"/>
</clipPath>
</defs>
</svg>
