<svg width="100" height="100" viewBox="0 0 100 100" fill="none" xmlns="http://www.w3.org/2000/svg">
<path fill-rule="evenodd" clip-rule="evenodd" d="M73.3855 28.8612C73.2227 28.1035 72.8617 27.4593 72.3022 26.9299C71.5418 26.3226 70.836 26.3691 70.1822 27.0708C69.8744 28.4577 69.4668 29.8091 68.9567 31.1222C69.0661 29.6176 69.1769 28.1103 69.2863 26.6003C69.2535 25.5293 69.1755 24.4611 69.051 23.397C68.6133 23.107 68.1579 22.8553 67.6846 22.6433C66.2745 21.7037 64.8615 20.7613 63.4459 19.8161C61.6651 18.4456 59.9376 17.0013 58.2634 15.483C56.7055 14.0578 55.3706 12.4561 54.2599 10.678C53.8715 9.9326 53.5104 9.17896 53.1766 8.41574C52.9058 7.5855 52.702 6.73748 52.5639 5.87305C52.3067 8.1203 51.616 10.2239 50.4903 12.1853C49.3031 14.0332 47.8738 15.6814 46.2037 17.1312C44.4858 18.4265 42.7583 19.6985 41.0226 20.9473C39.3471 21.9266 37.651 22.8841 35.9345 23.821C35.8456 24.0768 35.8141 24.3435 35.8401 24.6211C35.8128 26.3979 35.8442 28.1719 35.9345 29.9445C35.9249 30.1032 35.862 30.2126 35.7457 30.2741C35.6172 28.8694 34.9894 27.7547 33.8623 26.9299C33.4821 26.8725 33.1046 26.8889 32.7312 26.9764C32.1499 27.4141 31.7259 27.979 31.4591 28.6725C30.7411 31.4832 31.4167 33.9015 33.4848 35.9271C34.5243 36.6657 35.6869 37.0898 36.9713 37.1992C38.3828 41.3887 40.8325 44.8272 44.3203 47.5163C49.5452 51.1395 54.8522 51.264 60.2426 47.8924C63.9656 45.0967 66.589 41.4858 68.1086 37.0583C68.3015 36.9708 68.5053 36.9393 68.7214 36.9639C69.9579 36.7136 70.9782 36.0858 71.7838 35.0791C73.0696 33.208 73.603 31.1345 73.3855 28.8612ZM60.9962 22.1249C60.1824 22.3 59.3658 22.4258 58.5465 22.5011C58.4604 22.4669 58.381 22.419 58.3113 22.3602C58.366 21.6722 58.7284 21.1853 59.3946 20.8994C60.7623 20.5123 62.1438 20.4658 63.5403 20.7585C64.298 20.9965 65.0202 21.3097 65.7068 21.7009C66.046 21.9936 66.3757 22.3069 66.6957 22.6433C66.8175 22.7897 66.8804 22.947 66.8845 23.1138C65.0175 22.2357 63.0547 21.9061 60.9962 22.1249Z" fill="#FECBA4"/>
<path fill-rule="evenodd" clip-rule="evenodd" d="M69.7578 7.38086C72.2759 10.6293 73.8461 14.3045 74.4684 18.4038C74.4821 18.5022 74.4671 18.5966 74.4219 18.6869C73.7695 14.5275 72.2157 10.7593 69.7578 7.38086Z" fill="#101219"/>
<path fill-rule="evenodd" clip-rule="evenodd" d="M22.3678 43.7479C22.2283 44.8845 22.071 46.0156 21.8973 47.1399C21.2503 47.1919 20.6225 47.3328 20.0125 47.5639C19.7622 47.7513 19.8087 47.8293 20.1534 47.7992C21.1409 47.6501 22.1298 47.5092 23.1215 47.3752C22.7139 47.3437 22.3049 47.3123 21.8973 47.2808C22.1777 47.2343 22.4608 47.2179 22.7453 47.2343C24.8517 47.2042 26.9553 47.2507 29.0576 47.3752C29.7415 47.4039 30.3392 47.6392 30.848 48.0823C31.2392 49.0357 31.2242 49.9781 30.8015 50.9081C30.6811 51.0381 30.5403 51.1325 30.3775 51.1913C30.4322 51.0723 30.4322 50.9779 30.3775 50.9081C28.0892 50.9861 25.7968 51.0326 23.5003 51.049C23.3704 51.2884 23.4333 51.4771 23.6891 51.6139C25.7271 51.7644 27.7678 51.7958 29.8126 51.7083C30.0998 51.6919 30.383 51.644 30.6606 51.5674C30.6114 51.5018 30.5485 51.4553 30.4719 51.4265C30.4938 51.3896 30.5252 51.3732 30.5663 51.38C30.9041 51.3841 31.1394 51.5414 31.2734 51.8505C31.7371 52.7382 31.8 53.6492 31.4621 54.5834C31.2652 54.8282 31.0299 55.0156 30.755 55.1482C30.7277 54.9951 30.6333 54.9007 30.4719 54.8651C30.2558 55.0511 30.0041 55.1619 29.7182 55.1948C27.8649 55.2262 26.0129 55.2577 24.1596 55.2891C23.9243 55.4574 23.9243 55.6147 24.1596 55.7596C26.2017 56.066 28.2438 56.066 30.2831 55.7596C30.212 55.6967 30.1805 55.6174 30.1887 55.5244C30.8576 55.9416 31.1407 56.5543 31.0368 57.3613C31.1558 58.2066 30.8412 58.8194 30.0944 59.1982C29.9193 59.1421 29.747 59.0792 29.576 59.0095C29.0986 59.1463 28.6117 59.257 28.1152 59.3391C26.9841 59.3706 25.8543 59.402 24.7231 59.4335C24.5809 59.5128 24.5344 59.6222 24.5822 59.7631C24.745 59.8342 24.9187 59.8807 25.1006 59.904C26.5765 59.8931 28.0537 59.8452 29.5281 59.7631C29.669 59.9655 29.762 60.1844 29.8112 60.4224C29.9166 61.4838 29.509 62.2839 28.5871 62.8256C27.4094 63.3152 26.1839 63.5819 24.9132 63.6271C24.8421 63.5259 24.7477 63.5108 24.6301 63.5806C24.1993 64.326 23.633 64.9538 22.9341 65.4654C22.956 65.5023 22.9874 65.5187 23.0285 65.5119C22.588 65.8675 22.1326 66.2122 21.662 66.5486C21.6333 66.8783 21.5554 67.1929 21.4268 67.491C21.4295 67.5854 21.383 67.6483 21.2859 67.6798C19.4791 67.3269 17.6722 66.9658 15.8682 66.5965C14.659 66.2614 13.4964 65.8059 12.3817 65.2301C12.2983 65.1521 12.2668 65.0578 12.2873 64.947C12.855 63.478 13.3419 61.9707 13.7481 60.4251C14.2501 58.0384 14.7534 55.6516 15.2554 53.2648C15.9024 50.915 16.5302 48.5597 17.1402 46.1989C17.7625 43.0804 17.9184 39.94 17.6107 36.7777C17.7516 36.511 17.9567 36.3072 18.2235 36.1649C19.3149 35.8626 20.2095 36.1608 20.9084 37.0594C22.2543 39.0933 22.7412 41.3228 22.3692 43.7492L22.3678 43.7479Z" fill="#FECBA4"/>
<path fill-rule="evenodd" clip-rule="evenodd" d="M46.0322 0.462487C48.843 -0.210458 55.9746 -0.0367502 57.7322 0.279206C59.4898 0.595161 61.9504 1.44865 63.1636 1.96157C65.8266 3.21308 68.026 5.01854 69.759 7.37932C72.2155 10.7564 73.7707 14.5259 74.4231 18.6853C74.4682 18.5964 74.4847 18.5021 74.4696 18.4022C75.2657 23.902 76.3188 29.3663 77.6264 34.7963C78.7165 39.4892 80.7586 43.6978 83.75 47.4209C85.011 48.9008 86.2352 50.4081 87.4238 51.9428C87.8027 52.4502 88.1323 52.9836 88.4127 53.5444C90.1238 56.4044 91.2864 59.3575 91.8992 62.4008C91.9758 62.569 92.0223 62.7578 92.04 62.9657C92.5393 67.7802 91.4875 72.2091 88.8832 76.2495C88.492 73.4264 87.6905 70.725 86.48 68.1468C85.193 65.8859 83.3875 64.1748 81.0623 63.0122C80.0802 62.5211 79.1064 62.0342 78.1421 61.5514C77.8453 61.3722 77.5621 61.1684 77.2941 60.9386C77.4719 60.9181 77.6292 60.8552 77.7646 60.7499C77.6757 60.691 77.5963 60.7075 77.5293 60.7964C77.3761 60.635 77.2339 60.479 77.1053 60.3259C76.8044 60.4572 76.8044 60.6459 77.1053 60.8907L77.0109 60.9851C76.4501 60.7403 75.8839 60.505 75.3149 60.278C75.7977 60.174 75.7977 60.0482 75.3149 59.9005C75.371 59.724 75.3081 59.5667 75.1261 59.43C75.3614 59.3123 75.345 59.2029 75.0796 59.1003C75.0112 58.9485 75.0277 58.8076 75.1261 58.6763C74.9853 58.5984 74.8745 58.4876 74.7965 58.3467C73.5641 55.5687 72.1827 52.8674 70.6508 50.244C69.9012 48.2758 69.1011 46.3445 68.2476 44.4501C68.2969 44.3968 68.3283 44.3338 68.342 44.2613C67.918 43.1165 67.5883 41.9389 67.3531 40.7284C67.2546 40.5779 67.1452 40.4371 67.0235 40.3044C67.1178 40.2264 67.2122 40.1471 67.3066 40.0691C67.2108 39.8872 67.1944 39.6985 67.2601 39.5042C67.6007 38.7301 67.9139 37.945 68.2025 37.1489C68.4295 37.0764 68.6648 37.0286 68.9096 37.008C68.8535 36.9643 68.7906 36.9492 68.7209 36.9615C69.9573 36.7112 70.9777 36.0834 71.7833 35.0767C73.069 33.2056 73.6024 31.1321 73.385 28.8588C73.2222 28.1011 72.8611 27.4569 72.3017 26.9275C71.5426 26.3203 70.8354 26.3668 70.1816 27.0684C69.8739 28.4553 69.4663 29.8067 68.9575 31.1198C69.0669 29.6152 69.1763 28.1079 69.2871 26.5979C69.2543 25.5269 69.1763 24.4587 69.0519 23.3946C68.6142 23.1046 68.1587 22.8543 67.6855 22.6409C66.2739 21.7013 64.861 20.7603 63.4454 19.8151C61.6659 18.4446 59.9384 17.0002 58.2629 15.4806C56.705 14.0554 55.37 12.4538 54.258 10.6757C53.8696 9.93159 53.5085 9.17658 53.1747 8.41473C52.9053 7.58312 52.7001 6.73647 52.562 5.87067C52.3048 8.11792 51.6141 10.2229 50.4898 12.1829C49.3012 14.0308 47.8732 15.6803 46.2032 17.1288C44.4853 18.4241 42.7578 19.6961 41.0207 20.9449C39.3452 21.9242 37.6491 22.8817 35.9326 23.8186C35.8437 24.0744 35.8122 24.3411 35.8382 24.6201C35.7616 24.3876 35.7137 24.1359 35.6973 23.8665C35.3745 24.032 35.0764 24.2358 34.8028 24.4792C34.8493 24.6666 34.9437 24.8239 35.0859 24.9497C35.0121 25.3245 35.0121 25.6856 35.0859 26.033C35.0531 26.1452 35.0066 26.1452 34.945 26.033C34.9122 26.1944 34.8657 26.3517 34.8042 26.5035C34.837 26.6157 34.8835 26.6157 34.945 26.5035C34.9916 26.6581 35.0066 26.814 34.9916 26.9741C34.5347 27.0356 34.2365 26.8468 34.097 26.4092C34.0505 26.5309 34.0355 26.6567 34.0505 26.7867C33.565 26.6061 33.1245 26.669 32.732 26.9754C32.1507 27.4131 31.7267 27.978 31.46 28.6715C30.7419 31.4822 31.4162 33.9005 33.4856 35.9261C33.9794 36.4254 34.5757 36.7865 35.276 37.0094C35.1666 37.0559 35.0873 37.1352 35.0408 37.2447C34.4718 40.4836 33.4514 43.561 31.9783 46.4771C31.951 47.1309 31.6829 47.6958 31.1768 48.1732C31.0811 48.0938 30.9717 48.0624 30.8472 48.0788C30.3384 47.637 29.742 47.4004 29.0568 47.3717C26.9545 47.2472 24.8509 47.1993 22.7445 47.2308C22.4819 47.1391 22.1988 47.1077 21.8965 47.1364C22.0702 46.0121 22.2275 44.881 22.367 43.7443C22.6159 43.4161 22.8512 43.07 23.0741 42.7076C24.9836 39.243 26.3335 35.5678 27.1255 31.6847C27.7355 28.2898 28.3647 24.8991 29.0103 21.5098C29.3098 20.2186 29.623 18.9315 29.9527 17.6472C31.0688 13.3729 33.0466 9.57323 35.8888 6.2468C38.4712 3.39636 43.2214 1.13406 46.0322 0.459752V0.462487Z" fill="#0C192C"/>
<path fill-rule="evenodd" clip-rule="evenodd" d="M70.3223 29.6145C70.7162 29.553 70.983 29.7103 71.1238 30.0851C71.2401 31.7196 70.6903 33.086 69.4757 34.1829C69.2705 34.2964 69.0503 34.3429 68.8164 34.3238C68.878 33.2515 68.9874 32.1832 69.146 31.1205C69.4565 30.5446 69.8491 30.0413 70.3237 29.6132L70.3223 29.6145Z" fill="#F9A56E"/>
<path fill-rule="evenodd" clip-rule="evenodd" d="M53.7409 28.5781C53.849 28.6055 53.9119 28.6834 53.9297 28.8134C54.0788 29.9226 54.1581 31.0374 54.1649 32.1576C54.1991 32.3559 54.262 32.5447 54.3537 32.7225C54.7052 33.2313 55.0198 33.7661 55.2961 34.3241C55.6161 35.1079 55.4438 35.7521 54.7777 36.2554C54.0911 36.7095 53.3374 36.8983 52.5168 36.8203C52.3759 36.7109 52.3923 36.6329 52.5633 36.5851C53.4058 36.4305 54.0336 35.9901 54.4481 35.2665C54.511 35.0463 54.511 34.8275 54.4481 34.6073C54.0924 34.1149 53.8093 33.5814 53.6 33.0056C53.5576 31.527 53.6041 30.0512 53.7409 28.5781Z" fill="#F6A16A"/>
<path fill-rule="evenodd" clip-rule="evenodd" d="M59.4891 27.92C59.0897 28.913 59.1362 29.8868 59.6299 30.8402C59.9281 31.2177 60.2892 31.5008 60.7132 31.6882C59.5684 31.4228 58.7368 30.7622 58.217 29.709C58.1295 29.0511 58.3647 28.5327 58.9242 28.1539C59.0965 28.0444 59.2702 27.9336 59.4425 27.8242C59.4795 27.8461 59.4959 27.8776 59.4891 27.9186V27.92Z" fill="#F8F7F4"/>
<path fill-rule="evenodd" clip-rule="evenodd" d="M33.7669 29.5209C34.6327 29.5387 35.2441 29.9463 35.6039 30.7451C35.9841 31.9008 36.1264 33.0785 36.0279 34.278C35.6312 34.3738 35.2852 34.2794 34.9911 33.9949C33.6904 32.9157 33.172 31.5507 33.4359 29.897C33.5659 29.7835 33.6753 29.6577 33.7656 29.5195L33.7669 29.5209Z" fill="#F9A56E"/>
<path fill-rule="evenodd" clip-rule="evenodd" d="M43.4724 27.4492C42.6436 28.6023 42.597 29.795 43.3315 31.0301C44.3806 32.0819 45.3531 32.019 46.2517 30.8413C46.6703 29.903 46.6867 28.962 46.2982 28.0155V27.9211C46.8317 28.2507 47.2557 28.6912 47.5703 29.2396C47.6605 29.6431 47.599 30.0193 47.3815 30.3708C46.022 31.9355 44.3738 32.3281 42.4356 31.5484C41.6122 31.1819 41.0788 30.5691 40.834 29.7115C40.9653 29.0605 41.3113 28.5421 41.8708 28.1564C42.3686 27.839 42.9021 27.6038 43.4724 27.4492Z" fill="#F9F8F5"/>
<path fill-rule="evenodd" clip-rule="evenodd" d="M62.5983 27.4492C63.5885 27.6845 64.3258 28.2507 64.8127 29.1453C64.8592 29.9153 64.561 30.5281 63.9182 30.9822C62.9279 31.6305 61.8597 31.8658 60.7148 31.6893C62.4355 31.4896 63.2056 30.5158 63.0236 28.7691C62.9142 28.3287 62.7419 27.9211 62.5053 27.545C62.5053 27.482 62.5367 27.4506 62.5996 27.4506L62.5983 27.4492Z" fill="#F9F8F4"/>
<path fill-rule="evenodd" clip-rule="evenodd" d="M62.5035 27.5414C62.7387 27.9175 62.9124 28.3265 63.0218 28.7656C63.2038 30.5136 62.4351 31.4861 60.713 31.6858C60.289 31.4984 59.9279 31.2152 59.6298 30.8377C59.136 29.883 59.0895 28.9105 59.4889 27.9175C59.6202 27.7862 59.7146 27.6289 59.772 27.447C60.724 26.5498 61.6336 26.5812 62.5048 27.5414H62.5035Z" fill="#020B07"/>
<path fill-rule="evenodd" clip-rule="evenodd" d="M44.3194 26.8832C45.2126 26.8682 45.8719 27.2457 46.2986 28.0144C46.6857 28.9609 46.6706 29.9033 46.2521 30.8402C45.3535 32.0179 44.3796 32.0808 43.3319 31.029C42.5974 29.7952 42.6453 28.6012 43.4728 27.4481C43.7422 27.2348 44.0254 27.046 44.3208 26.8832H44.3194Z" fill="#020A06"/>
<path fill-rule="evenodd" clip-rule="evenodd" d="M47.1467 27.3541C47.1508 27.4567 47.1823 27.5497 47.2411 27.6372C47.1946 27.6687 47.1467 27.7001 47.1002 27.7316C45.2647 26.3146 43.3963 26.2517 41.4937 27.5428C41.1039 27.8848 40.7278 28.2459 40.3626 28.6261C40.2696 28.6822 40.2067 28.6507 40.1738 28.5317C41.1655 26.1204 42.9244 25.2723 45.4493 25.9877C46.1442 26.29 46.7091 26.7454 47.1454 27.3541H47.1467Z" fill="#090D09"/>
<path fill-rule="evenodd" clip-rule="evenodd" d="M60.9971 26.6014C60.2092 26.7122 59.5185 27.0268 58.9249 27.5438C58.5652 27.682 58.4872 27.5876 58.6896 27.2607C60.253 25.339 62.0913 25.0408 64.2017 26.3662C64.8596 26.8982 65.3302 27.5575 65.6147 28.3453C65.5832 28.3918 65.5517 28.4397 65.5203 28.4862C64.6695 27.4795 63.6013 26.8367 62.317 26.5549C61.8601 26.4783 61.4197 26.4934 60.9984 26.6014H60.9971Z" fill="#090C09"/>
<path fill-rule="evenodd" clip-rule="evenodd" d="M35.8408 24.6208C35.8134 26.3976 35.8449 28.1716 35.9352 29.9442C35.9256 30.1029 35.8627 30.2123 35.7464 30.2738C35.6178 28.8691 34.99 27.7544 33.8616 26.9296C33.4814 26.8722 33.1039 26.8886 32.7305 26.9761C33.123 26.6698 33.5634 26.6068 34.049 26.7874C34.034 26.6574 34.049 26.533 34.0955 26.4099C34.235 26.8476 34.5332 27.0363 34.99 26.9748C35.0051 26.8147 34.99 26.6574 34.9435 26.5043C34.882 26.6164 34.8355 26.6164 34.8026 26.5043C34.8642 26.3524 34.9107 26.1951 34.9435 26.0337C35.0051 26.1459 35.0516 26.1459 35.0844 26.0337C35.0105 25.6863 35.0105 25.3252 35.0844 24.9505C34.9422 24.8246 34.8492 24.6673 34.8013 24.4799C35.0762 24.2365 35.3744 24.0327 35.6958 23.8672C35.7136 24.1366 35.7601 24.3883 35.8367 24.6208H35.8408Z" fill="#0D1321"/>
<path fill-rule="evenodd" clip-rule="evenodd" d="M63.5395 20.7583C64.2973 20.9963 65.0195 21.3095 65.7061 21.7007C66.0453 21.9934 66.3749 22.3066 66.695 22.6431C66.8167 22.7894 66.8797 22.9467 66.8838 23.1136C65.0167 22.2355 63.054 21.9058 60.9955 22.1247C60.1817 22.2997 59.3651 22.4256 58.5458 22.5022C58.4596 22.4666 58.3803 22.4201 58.3105 22.3613C58.3666 21.6733 58.7277 21.1864 59.3938 20.9005C60.7616 20.5134 62.1431 20.4669 63.5395 20.7596V20.7583Z" fill="#0D1320"/>
<path fill-rule="evenodd" clip-rule="evenodd" d="M43.9431 20.571C45.5406 20.4274 46.97 20.8363 48.2297 21.7951C48.3829 22.0263 48.3993 22.2615 48.2762 22.5023C47.5184 22.4708 46.7648 22.3764 46.0153 22.2191C43.7023 22.1316 41.4729 22.5242 39.3255 23.3968C39.2626 23.3653 39.1996 23.3339 39.1367 23.3024C39.8315 22.3723 40.711 21.6652 41.7752 21.1824C42.4905 20.9061 43.2127 20.7023 43.9417 20.5696L43.9431 20.571Z" fill="#0C1320"/>
<path fill-rule="evenodd" clip-rule="evenodd" d="M47.1466 10.3008C44.5123 14.1743 41.1517 17.3298 37.0661 19.7699C36.8254 19.9231 36.5737 20.0174 36.3125 20.053C38.4134 18.3611 40.4856 16.6336 42.5304 14.8705C44.076 13.3454 45.6147 11.8231 47.1466 10.3008Z" fill="#1F2E44"/>
<path fill-rule="evenodd" clip-rule="evenodd" d="M60.4297 10.7715C62.2926 12.1461 64.1459 13.544 65.9883 14.9637C67.3889 15.8993 68.8333 16.7637 70.3228 17.5543C70.2913 17.5857 70.2599 17.6172 70.2284 17.6487C67.1797 16.549 64.4783 14.9008 62.1257 12.7028C61.4678 12.1256 60.9029 11.4814 60.4297 10.7715Z" fill="#1F2E44"/>
<path fill-rule="evenodd" clip-rule="evenodd" d="M58.4512 4.26953C61.0513 6.74657 63.8771 8.92954 66.93 10.8171C66.6783 10.88 66.428 10.88 66.1764 10.8171C63.0961 9.23045 60.522 7.04748 58.4512 4.26953Z" fill="#1F2D43"/>
<path fill-rule="evenodd" clip-rule="evenodd" d="M40.8346 6.24976C41.2435 6.23472 41.6525 6.24976 42.0587 6.29627C42.5498 6.40979 42.7221 6.70933 42.5771 7.19079C42.1381 7.62985 41.6976 8.07027 41.2586 8.50932C41.2135 8.59823 41.197 8.69261 41.2121 8.79245C41.844 8.68166 42.4718 8.57087 43.0969 8.46282C43.3253 8.65157 43.4033 8.88683 43.3321 9.16996C43.1311 9.4654 42.8958 9.73211 42.625 9.97148C42.1859 10.349 41.7455 10.7251 41.3065 11.1026C41.0999 11.2326 40.8797 11.264 40.6472 11.197C40.4078 10.9891 40.204 10.7538 40.0344 10.4899C40.0043 10.2231 40.0508 9.97147 40.1753 9.73622C39.6323 9.52558 39.1768 9.1809 38.8089 8.69944C38.746 8.51069 38.746 8.32194 38.8089 8.13455C39.3232 7.3221 39.9975 6.69429 40.8346 6.24976Z" fill="#1E2D42"/>
<path fill-rule="evenodd" clip-rule="evenodd" d="M33.4837 35.9277C34.5232 36.6663 35.6858 37.0903 36.9702 37.1998C38.3817 41.3893 40.8314 44.8278 44.3192 47.5169V50.6258C44.2235 51.3316 44.1606 52.0538 44.1305 52.7924C43.7092 52.8936 43.3632 53.1124 43.0937 53.4517C41.6206 54.643 40.2706 55.9615 39.0424 57.4086H38.948C35.8513 58.2621 32.8053 59.2674 29.8085 60.4232C29.7606 60.1852 29.6663 59.9664 29.5254 59.7639C29.6854 59.541 29.8728 59.3536 30.0903 59.199C30.8371 58.8202 31.1517 58.2074 31.0327 57.3621C31.1366 56.5551 30.8535 55.9424 30.1847 55.5252C30.3447 55.3652 30.5334 55.2407 30.7495 55.1477C31.0245 55.015 31.2597 54.8263 31.4567 54.5828C31.7945 53.6486 31.7316 52.7377 31.2679 51.85C31.1353 51.5395 30.9 51.3836 30.5608 51.3795L30.372 51.1907C30.5348 51.1319 30.6757 51.0389 30.7961 50.9076C31.2187 49.9775 31.2351 49.0351 30.8426 48.0818C30.967 48.0654 31.0764 48.0968 31.1722 48.1761C31.6783 47.6988 31.945 47.1339 31.9737 46.4801C33.4468 43.5626 34.4672 40.4852 35.0362 37.2476C35.0827 37.1382 35.162 37.0589 35.2714 37.0124C34.5711 36.7894 33.9748 36.4283 33.481 35.9291L33.4837 35.9277Z" fill="#0B1523"/>
<path fill-rule="evenodd" clip-rule="evenodd" d="M47.8995 39.791C49.8924 40.877 52.0275 41.2696 54.3062 40.9687C55.6917 40.8415 56.9952 40.4489 58.2167 39.791C58.1072 40.1877 57.8706 40.5173 57.5095 40.7799C54.179 43.4703 50.9592 43.3294 47.853 40.3559C47.7888 40.1576 47.8052 39.9702 47.8995 39.791Z" fill="#E3211B"/>
<path fill-rule="evenodd" clip-rule="evenodd" d="M68.7204 36.9651C68.7902 36.9528 68.8531 36.9679 68.9092 37.0116C68.6644 37.0335 68.4291 37.08 68.202 37.1525C67.9134 37.9486 67.6002 38.7337 67.2596 39.5078C67.1954 39.7021 67.2104 39.8908 67.3062 40.0727C67.2118 40.1507 67.1174 40.23 67.023 40.308C67.1448 40.4407 67.2542 40.5815 67.3527 40.732C67.5879 41.9425 67.9189 43.1201 68.3416 44.2649C68.3279 44.3374 68.2964 44.4004 68.2472 44.4537C69.0993 46.3481 69.9008 48.2794 70.6504 50.2476C72.1823 52.871 73.5637 55.5723 74.7961 58.3503C74.874 58.4912 74.9848 58.602 75.1257 58.6799C75.0259 58.8112 75.0108 58.9521 75.0792 59.1039C75.3459 59.2065 75.361 59.3159 75.1257 59.4336C75.3063 59.5717 75.3692 59.7276 75.3145 59.9041C75.7973 60.0518 75.7973 60.1763 75.3145 60.2816C75.8835 60.5073 76.4484 60.7439 77.0105 60.9887L77.1049 60.8943C76.804 60.6481 76.804 60.4608 77.1049 60.3295C77.2335 60.4826 77.3757 60.6399 77.5289 60.8C77.5959 60.7097 77.6752 60.6947 77.7642 60.7535C77.6274 60.8588 77.4701 60.9217 77.2936 60.9422C77.5617 61.172 77.8435 61.3758 78.1417 61.555C74.0028 59.8712 69.7627 58.4898 65.4227 57.4093H65.3284C64.1398 55.9389 62.8212 54.5875 61.3714 53.3579C61.0718 53.098 60.7272 52.9093 60.3346 52.793C60.2731 51.1613 60.2416 49.5281 60.2402 47.8937C63.9647 45.0979 66.5867 41.487 68.1077 37.0595C68.3005 36.972 68.5043 36.9405 68.7204 36.9651Z" fill="#0B1523"/>
<path fill-rule="evenodd" clip-rule="evenodd" d="M21.8951 47.1392C22.1974 47.1105 22.4806 47.1419 22.7432 47.2336C22.4587 47.2185 22.1755 47.2336 21.8951 47.2801C22.3027 47.3115 22.7117 47.343 23.1193 47.3744C22.129 47.5085 21.1388 47.6494 20.1512 47.7985C19.8066 47.8285 19.7587 47.7492 20.0104 47.5632C20.619 47.332 21.2468 47.1912 21.8951 47.1392Z" fill="#F6A26C"/>
<path fill-rule="evenodd" clip-rule="evenodd" d="M44.3207 50.6264C47.4898 53.2689 51.1486 54.6818 55.2971 54.8665C57.1162 54.9417 58.8273 54.5642 60.4317 53.7353C60.589 53.9241 60.7463 54.1128 60.9022 54.3002C60.4837 55.3247 59.9667 56.2985 59.3471 57.2204C57.3679 60.0791 54.9497 62.4973 52.0924 64.4751C48.2462 61.9611 45.3411 58.6319 43.377 54.4876C43.7189 53.9651 43.9706 53.3988 44.1306 52.7916C44.1607 52.053 44.2236 51.3308 44.3194 50.625L44.3207 50.6264Z" fill="#FECBA4"/>
<path fill-rule="evenodd" clip-rule="evenodd" d="M30.3764 51.1913L30.5652 51.3801C30.5241 51.3746 30.4927 51.3897 30.4708 51.4266C30.5474 51.4553 30.6103 51.5032 30.6596 51.5675C30.3819 51.6454 30.0988 51.6919 29.8115 51.7084C27.7667 51.7959 25.726 51.7644 23.688 51.614C23.4322 51.4758 23.3693 51.2884 23.4993 51.0491C25.7957 51.0327 28.0881 50.9848 30.3764 50.9082C30.4311 50.9766 30.4311 51.071 30.3764 51.1913Z" fill="#F9A36C"/>
<path fill-rule="evenodd" clip-rule="evenodd" d="M44.3203 47.5176C49.5452 51.1408 54.8535 51.2666 60.2426 47.8951C60.2439 49.5282 60.2754 51.1613 60.3369 52.7945C60.4149 53.1022 60.4464 53.4154 60.4313 53.7368C58.8269 54.5657 57.1145 54.9432 55.2967 54.868C51.1482 54.6847 47.4894 53.2718 44.3203 50.6279V47.5189V47.5176Z" fill="#ED9B6D"/>
<path fill-rule="evenodd" clip-rule="evenodd" d="M44.1306 52.793C43.9706 53.4003 43.7189 53.9665 43.377 54.489C43.1458 54.1717 43.0514 53.827 43.0938 53.4522C43.3633 53.113 43.708 52.8942 44.1306 52.793Z" fill="#BFD0DD"/>
<path fill-rule="evenodd" clip-rule="evenodd" d="M60.3359 52.793C60.7271 52.9106 61.0732 53.098 61.3727 53.3579C61.2154 53.6724 61.0581 53.9857 60.9022 54.3003C60.7449 54.1115 60.5876 53.9227 60.4317 53.7354C60.4467 53.4153 60.4153 53.1007 60.3373 52.793H60.3359Z" fill="#BDCDD8"/>
<path fill-rule="evenodd" clip-rule="evenodd" d="M61.3727 53.3574C62.8225 54.5871 64.141 55.9384 65.3296 57.4088C64.2669 62.2028 62.3041 66.6002 59.4414 70.5996C59.254 70.9032 59.0187 70.9497 58.7342 70.7405C57.6715 69.6298 56.5718 68.578 55.4365 67.5836C54.4586 66.4963 53.4067 65.4909 52.2797 64.5691C52.0827 64.6402 51.9104 64.7496 51.7613 64.8987C50.8805 65.7659 50.0324 66.6604 49.2173 67.5836C48.03 68.7394 46.8373 69.9006 45.6364 71.0701C42.3073 67.0803 40.1079 62.5256 39.041 57.4088C40.2679 55.9617 41.6193 54.6418 43.0924 53.4518C43.0486 53.8252 43.143 54.1712 43.3755 54.4886C45.3396 58.6329 48.2434 61.9621 52.091 64.4761C54.9482 62.4983 57.3665 60.08 59.3456 57.2214C59.9639 56.2981 60.4822 55.3243 60.9008 54.3012C61.0581 53.9866 61.2154 53.6734 61.3713 53.3588L61.3727 53.3574Z" fill="#FDFBF8"/>
<path fill-rule="evenodd" clip-rule="evenodd" d="M30.751 55.147C30.5348 55.2386 30.3461 55.3645 30.1861 55.5245C30.1779 55.6189 30.2093 55.6968 30.2804 55.7598C28.2397 56.0661 26.199 56.0661 24.1569 55.7598C23.9217 55.6134 23.9217 55.4561 24.1569 55.2892C26.0102 55.2578 27.8622 55.2263 29.7155 55.1949C30.0014 55.162 30.2531 55.0513 30.4692 54.8652C30.6306 54.9008 30.725 54.9952 30.7523 55.1484L30.751 55.147Z" fill="#F8A36C"/>
<path fill-rule="evenodd" clip-rule="evenodd" d="M38.9488 57.4078C38.9515 58.5034 39.1252 59.5703 39.4672 60.6111C40.6257 64.6228 42.4776 68.2666 45.0258 71.5397C45.1872 71.7325 45.3746 71.8898 45.5907 72.0102C45.6618 71.9514 45.7398 71.9035 45.8259 71.8693C47.0679 70.6438 48.292 69.4032 49.4998 68.1476C49.8349 68.6605 50.1495 69.1939 50.4422 69.7492C49.9156 78.8518 49.4738 90.7733 49.0566 99.8868C44 99.8868 39.2634 98.7228 33.8593 97.0719C31.2386 95.9818 28.6631 94.7877 26.1341 93.4911C25.5706 86.4019 25.0672 79.3045 24.6268 72.1989H24.3437C24.3861 79.0788 24.5106 85.956 24.7212 92.8318C23.177 92.0289 21.7312 91.0865 20.3867 90.006C20.9188 84.8631 21.485 79.7135 22.0828 74.5542C22.013 74.4899 21.9501 74.427 21.894 74.3655C22.0513 74.2861 22.1621 74.1603 22.2236 73.988C22.4548 72.1141 22.7229 70.2457 23.0252 68.3815C23.0306 68.2201 22.9677 68.0942 22.8364 68.004C22.3796 67.7837 21.9091 67.6114 21.4235 67.4856C21.5521 67.1874 21.63 66.8742 21.6587 66.5432C22.1293 66.2067 22.5847 65.862 23.0252 65.5064C23.8745 65.0961 24.5037 64.4683 24.9099 63.6216C26.182 63.5765 27.4061 63.3098 28.5838 62.8201C29.5057 62.2798 29.9133 61.4783 29.8079 60.4169C32.8047 59.2611 35.8508 58.2558 38.9474 57.4023L38.9488 57.4078Z" fill="#D3DFE6"/>
<path fill-rule="evenodd" clip-rule="evenodd" d="M65.4245 57.4082C69.7645 58.4887 74.0046 59.8702 78.1435 61.5539C79.1077 62.0367 80.0816 62.5237 81.0637 63.0147C83.3889 64.1773 85.1943 65.8898 86.4814 68.1493C87.6919 70.7276 88.4921 73.4289 88.8846 76.252C89.1718 77.5678 89.4071 78.8877 89.5917 80.209C86.4801 84.2166 82.8213 87.6087 78.6154 90.3839C79.4661 83.8828 80.4071 77.3982 81.4412 70.9286C81.4179 70.3856 81.3071 70.3706 81.1115 70.8821C79.6248 77.4734 78.5729 84.1304 77.9547 90.8558C77.3351 91.3864 76.6758 91.8734 75.9755 92.3165C72.7791 94.2601 69.4198 95.8454 65.8951 97.075C62.5317 98.2828 58.6869 99.8721 55.106 99.8721C54.8516 91.0459 54.5863 79.4239 54.2129 70.6004C54.2293 70.2858 54.2443 69.9726 54.2594 69.658C54.4728 69.2011 54.708 68.7607 54.9665 68.3395C56.2003 69.6826 57.5188 70.9546 58.9235 72.1555C59.2189 72.1473 59.4556 72.0065 59.6306 71.7315C62.544 67.6323 64.5068 63.1091 65.5189 58.1646C65.5025 57.9553 65.4396 57.7679 65.3302 57.5997C65.3644 57.5354 65.3958 57.4725 65.4245 57.4109V57.4082Z" fill="#D3DFE6"/>
<path fill-rule="evenodd" clip-rule="evenodd" d="M30.0932 59.1985C29.8757 59.3531 29.687 59.5418 29.5283 59.7634C28.0525 59.8468 26.5767 59.8933 25.1008 59.9043C24.9189 59.881 24.7466 59.8332 24.5824 59.7634C24.5346 59.6225 24.5824 59.5131 24.7233 59.4338C25.8545 59.4023 26.9843 59.3709 28.1154 59.3394C28.6119 59.2573 29.0988 59.1465 29.5762 59.0098C29.7472 59.0795 29.9195 59.1424 30.0946 59.1985H30.0932Z" fill="#F8A46D"/>
<path fill-rule="evenodd" clip-rule="evenodd" d="M24.9108 63.6261C24.5046 64.4714 23.8768 65.1006 23.026 65.5109C22.985 65.5164 22.9535 65.5014 22.9316 65.4644C23.6306 64.9543 24.1968 64.3251 24.6277 63.5796C24.7453 63.5099 24.8397 63.5263 24.9108 63.6261Z" fill="#F79B63"/>
<path fill-rule="evenodd" clip-rule="evenodd" d="M12.2854 64.9468C12.2648 65.0576 12.2963 65.1519 12.3797 65.2299C13.4945 65.8057 14.6557 66.2612 15.8662 66.5963C17.6703 66.9656 19.4771 67.3281 21.2839 67.6796C21.3811 67.6481 21.4276 67.5852 21.4248 67.4908C21.9104 67.6167 22.3823 67.789 22.8377 68.0092C22.969 68.0995 23.032 68.2253 23.0265 68.3867C22.7242 70.2496 22.4575 72.1194 22.225 73.9932C22.1634 74.1656 22.0526 74.29 21.8953 74.3707H20.2937C16.7689 74.0001 13.4083 73.0577 10.2132 71.5449C9.78096 71.3452 9.40346 71.0785 9.08203 70.7434C9.71941 68.767 10.3951 66.8042 11.1077 64.8551C11.2718 64.7963 11.4442 64.7649 11.6261 64.7608C11.8805 64.743 12.1007 64.8059 12.2854 64.9495V64.9468Z" fill="#512572"/>
<path fill-rule="evenodd" clip-rule="evenodd" d="M55.4372 67.5829C55.2348 67.799 55.0775 68.0507 54.9667 68.3366C54.7082 68.7592 54.4729 69.1983 54.2596 69.6551C54.2431 69.9697 54.2281 70.2829 54.213 70.5975C54.5878 79.421 54.8532 91.043 55.1062 99.8692C52.7017 100.061 50.8333 100.025 48.8281 99.8692C49.2439 90.7558 49.9182 78.852 50.4448 69.7495C50.1521 69.1942 49.8375 68.6607 49.5024 68.1478C49.4108 67.9604 49.3164 67.7731 49.2193 67.5829C50.0345 66.6597 50.8825 65.7652 51.7634 64.898C51.9125 64.7489 52.0848 64.6395 52.2818 64.5684C53.4088 65.4902 54.4606 66.4955 55.4386 67.5829H55.4372Z" fill="#512572"/>
<path fill-rule="evenodd" clip-rule="evenodd" d="M38.9492 57.4082H39.0436C40.1105 62.525 42.3085 67.0797 45.639 71.0695C46.8385 69.9014 48.0326 68.7388 49.2198 67.5831C49.3169 67.7732 49.4113 67.9619 49.503 68.148C48.2952 69.4036 47.0697 70.6442 45.8291 71.8697C45.743 71.9052 45.6636 71.9517 45.5939 72.0106C45.3778 71.8888 45.189 71.7315 45.029 71.54C42.4808 68.267 40.6288 64.6232 39.4703 60.6115C39.1284 59.5707 38.9561 58.5038 38.952 57.4082H38.9492Z" fill="#B3C8D6"/>
<path fill-rule="evenodd" clip-rule="evenodd" d="M65.3285 57.4082H65.4228C65.3941 57.4698 65.3627 57.5327 65.3285 57.597C65.4379 57.7652 65.5008 57.9539 65.5172 58.1618C64.5051 63.1077 62.5409 67.6296 59.629 71.7288C59.4539 72.0037 59.2186 72.1446 58.9218 72.1528C57.5171 70.9519 56.1986 69.6799 54.9648 68.3367C55.0756 68.0509 55.2329 67.7992 55.4354 67.5831C56.5706 68.5774 57.6703 69.6293 58.7331 70.7399C59.0162 70.9492 59.2528 70.9027 59.4402 70.599C62.303 66.5996 64.2671 62.2036 65.3285 57.4082Z" fill="#B5C9D7"/>
<path fill-rule="evenodd" clip-rule="evenodd" d="M10.2134 71.5417C13.4085 73.0558 16.7692 73.9968 20.2939 74.3675C20.7795 74.4455 21.2814 74.492 21.8012 74.5084C21.6535 74.5385 21.5441 74.6164 21.4716 74.7436C20.8383 79.6977 20.2898 84.6586 19.8234 89.6291C15.1579 86.0469 11.1845 81.8068 7.90461 76.9102C7.84169 76.7214 7.84169 76.5327 7.90461 76.3453C8.4271 74.6698 8.97558 73.0052 9.55278 71.3516L10.1177 71.6347C10.1751 71.6224 10.2066 71.5923 10.212 71.5403L10.2134 71.5417Z" fill="#D3DFE6"/>
<path fill-rule="evenodd" clip-rule="evenodd" d="M78.6143 90.3849C78.4215 90.5778 78.2013 90.7351 77.9551 90.8554C78.5719 84.1301 79.6251 77.4731 81.1119 70.8818C81.3075 70.3703 81.4183 70.3867 81.4415 70.9283C80.4075 77.3979 79.4651 83.8839 78.6157 90.3835L78.6143 90.3849Z" fill="#B1C6D4"/>
<path fill-rule="evenodd" clip-rule="evenodd" d="M26.1361 93.4933C25.6533 93.2991 25.1828 93.0789 24.7232 92.834C24.5139 85.9582 24.3881 79.0797 24.3457 72.2012H24.6288C25.0693 79.3081 25.5726 86.4055 26.1361 93.4933Z" fill="#B3C7D5"/>
<path fill-rule="evenodd" clip-rule="evenodd" d="M20.2947 74.3672H21.8964C21.9525 74.4287 22.0154 74.4917 22.0851 74.5559C21.4874 79.7138 20.9225 84.8649 20.3891 90.0077C20.1744 89.9188 19.987 89.7929 19.8242 89.6302C20.2906 84.6597 20.8405 79.6974 21.4724 74.7447C21.5449 74.6175 21.6557 74.5395 21.802 74.5094C21.2823 74.493 20.7803 74.4465 20.2947 74.3685V74.3672Z" fill="#B1C6D4"/>
</svg>
