<svg width="100" height="100" viewBox="0 0 100 100" fill="none" xmlns="http://www.w3.org/2000/svg">
<path fill-rule="evenodd" clip-rule="evenodd" d="M43.8998 0.638235C46.4069 -0.192898 54.8638 -0.194331 57.8947 0.529328C59.4174 0.893306 67.3835 4.40412 70.3541 8.77617C70.677 9.32643 70.9726 9.88817 71.2424 10.4585C72.0303 12.0434 72.6703 13.6942 73.1611 15.4095C73.6419 17.3999 74.0939 19.3301 74.5173 21.2016C75.0554 23.9816 75.5391 26.7845 75.9682 29.6104C76.2035 30.8642 76.469 32.1095 76.7632 33.3476C76.6584 33.4823 76.6441 33.6385 76.7158 33.8147C77.4793 36.6492 78.4939 39.3891 79.7568 42.0358C80.1313 42.7179 80.536 43.3728 80.9737 43.9976C82.8695 46.6916 84.8814 49.3068 87.0082 51.846C88.3759 53.6731 89.5297 55.6348 90.4696 57.7313C92.5692 62.8929 92.5075 68.0316 90.2831 73.1474C89.8124 74.1533 89.2039 75.0561 88.4591 75.8571C88.3429 74.9386 88.1549 74.0358 87.898 73.1474C89.0489 67.8253 88.472 62.6565 86.1673 57.6382C84.616 54.3194 82.4949 51.4233 79.8056 48.95C79.7898 48.9815 79.774 49.0116 79.7582 49.0431C83.4636 54.2735 85.3665 60.0499 85.4655 66.3736C85.3794 66.408 85.3019 66.4553 85.2316 66.5141C85.0465 66.2905 84.8441 66.1028 84.6231 65.9538C84.0936 65.5497 83.5956 65.114 83.1263 64.6455C81.7731 63.6266 80.3078 62.7711 78.7293 62.0761C77.4922 61.5359 76.2451 61.0229 74.9866 60.5342C74.9292 60.5457 74.899 60.5772 74.8933 60.6274C74.8 60.6431 74.7383 60.6116 74.7067 60.5342C74.7684 60.3995 74.7986 60.2433 74.8 60.0671C74.4541 58.1555 74.0337 56.2553 73.5371 54.3681C72.5928 51.9836 71.5955 49.6163 70.5435 47.2676C69.4443 44.2799 68.8057 41.1975 68.6248 38.0177C68.6564 37.7684 68.6866 37.519 68.7181 37.2697C69.1085 37.1522 69.4515 36.9659 69.7471 36.7094C72.1006 34.7791 73.1454 32.2872 72.8813 29.2349C72.7292 28.6832 72.5268 28.1544 72.2728 27.6472C71.9184 27.0467 71.3888 26.7028 70.6828 26.6197C71.0114 25.3128 70.6067 24.3312 69.4658 23.6764C69.1486 23.4557 68.8057 23.2852 68.4369 23.1619C68.3823 23.182 68.335 23.2121 68.2962 23.2551C68.2704 23.1691 68.223 23.1075 68.1556 23.0688C64.7042 21.3492 61.4595 19.3086 58.4243 16.9499C56.8773 15.6846 55.4895 14.2688 54.2611 12.6997C52.7356 10.6534 52.0181 8.34914 52.1085 5.78552C51.6019 10.9701 49.2154 15.0183 44.9503 17.9315C43.2856 17.1119 41.5391 16.6132 39.7108 16.4369C40.0897 16.4871 40.4327 16.4097 40.7398 16.2033C43.6788 14.2029 46.1902 11.7582 48.2711 8.86931C48.4146 8.60994 48.5394 8.3606 48.6456 8.12129C45.8429 11.185 42.8034 13.9564 39.5228 16.4369C34.17 16.4369 30.2249 18.7741 27.6877 23.4442C26.1077 26.9536 26.0144 30.5031 27.4064 34.0942C28.2546 35.937 29.4543 37.509 31.0085 38.8116C31.6658 39.2816 32.3202 39.7487 32.9731 40.213C32.3776 41.5113 31.7691 42.8039 31.1491 44.0907C30.9152 44.1924 30.743 44.2856 30.6339 44.3716C28.8315 44.833 27.0548 45.409 25.3012 46.0997C24.4545 46.4666 23.846 47.0742 23.4772 47.9211C22.7654 49.2179 22.1569 50.5563 21.6532 51.9377C20.7563 54.252 19.9139 56.5878 19.1275 58.945C18.6625 60.0599 18.1947 61.1819 17.7239 62.3083C17.0638 62.1091 16.4094 61.8913 15.7593 61.6548C15.6158 61.6577 15.5067 61.7193 15.4321 61.8411C14.6041 63.4317 13.7775 65.0209 12.9523 66.6058C13.0255 66.7734 13.1503 66.8666 13.3269 66.8867C12.6136 68.3426 11.8344 69.744 10.9877 71.091C10.2572 68.2337 10.2414 65.3677 10.9403 62.496C11.7253 59.5211 12.9107 56.7182 14.495 54.0872C16.2386 51.3044 18.0325 48.5645 19.8751 45.8662C20.9586 44.201 21.8469 42.4256 22.5415 40.5412C23.2634 38.502 23.8718 36.4314 24.3655 34.3278C24.3626 34.2274 24.3311 34.1501 24.2722 34.0942C24.875 31.0391 25.4375 27.9868 25.957 24.9388C26.2943 23.6979 26.6215 22.3279 26.94 20.8276C27.5083 18.6881 28.2259 16.6017 29.0927 14.5683C29.8346 13.1153 30.5995 11.6837 31.3845 10.2708C34.2848 5.6021 41.3196 1.49373 43.8998 0.638235Z" fill="#0A1529"/>
<path fill-rule="evenodd" clip-rule="evenodd" d="M39.6131 6.28942C39.9442 6.25841 40.165 6.39657 40.2754 6.7025C40.0111 7.10712 39.7583 7.52019 39.5172 7.94314C41.25 8.28713 41.4708 9.03856 40.1795 10.1946C40.7765 10.1551 41.3764 10.1551 41.9792 10.1946C42.2494 10.5259 42.1869 10.8008 41.7904 11.0222C40.7751 11.6284 39.6697 11.9047 38.4757 11.8497C37.9862 11.3366 37.9703 10.8008 38.4278 10.2411C38.7357 10.0057 38.958 9.73079 39.0902 9.41358C38.4409 9.68708 37.7625 9.79423 37.0537 9.73502C36.6238 9.57712 36.4814 9.28669 36.6281 8.86234C37.2832 7.62875 38.2782 6.77017 39.6116 6.28801L39.6131 6.28942Z" fill="#21314D"/>
<path fill-rule="evenodd" clip-rule="evenodd" d="M62.1437 8.29166C62.49 8.26168 62.807 8.33527 63.0962 8.51379C63.7127 8.86948 64.2693 9.29876 64.7631 9.80162C65.0947 10.19 65.0786 10.5607 64.7149 10.9123C63.6733 11.1412 62.7675 10.9191 62.0006 10.2459C61.967 9.83024 61.9202 9.41459 61.8574 9.00167C61.9012 8.74274 61.9962 8.50562 62.1437 8.2903V8.29166Z" fill="#21314D"/>
<path fill-rule="evenodd" clip-rule="evenodd" d="M56.1426 6.57227C57.5959 8.43623 59.2601 10.1023 61.1338 11.5734C63.5781 13.4733 66.1525 15.1867 68.8569 16.7151C64.5099 15.343 60.8521 12.9284 57.8848 9.47002C57.2073 8.56098 56.6265 7.59458 56.1426 6.57227Z" fill="#22314E"/>
<path fill-rule="evenodd" clip-rule="evenodd" d="M39.7592 16.4136H39.5723C42.8586 13.9478 45.9063 11.1913 48.7151 8.14258C48.6087 8.3806 48.4836 8.62718 48.3397 8.88658C46.2529 11.76 43.7374 14.1915 40.7919 16.1813C40.4841 16.3865 40.1389 16.4635 39.7607 16.4136H39.7592Z" fill="#22324F"/>
<path fill-rule="evenodd" clip-rule="evenodd" d="M71.2852 10.4277C71.684 11.0098 72.0123 11.6383 72.2714 12.3159C73.4017 15.2105 74.1677 18.2006 74.5709 21.2849C74.1461 19.3938 73.6926 17.4433 73.2102 15.432C72.7178 13.6988 72.0771 12.0307 71.2852 10.4292V10.4277Z" fill="#101116"/>
<path fill-rule="evenodd" clip-rule="evenodd" d="M39.4954 16.4277H39.6816C41.506 16.6046 43.2487 17.1049 44.9099 17.9273C50.2011 21.1867 52.2704 25.9055 51.119 32.0821C50.0207 36.1208 47.5777 39.0121 43.79 40.7533C41.9256 41.4607 39.9967 41.7741 38.0019 41.6907C38.2969 42.2356 38.5761 42.782 38.8425 43.3312C38.7222 43.2794 38.6448 43.1845 38.609 43.0494L38.516 43.1428C38.3126 42.6094 38.1107 42.0789 37.9088 41.5498C37.2701 41.557 36.6486 41.4635 36.0414 41.268C35.6434 42.2313 35.2538 43.2004 34.8744 44.1737C34.6137 44.7431 34.3187 45.2894 33.988 45.8142C34.1111 45.8904 34.1741 45.9997 34.1741 46.142C33.6944 45.7078 33.2276 45.2549 32.7736 44.7833C32.1063 44.3635 31.3903 44.2542 30.6256 44.4555C30.7344 44.3693 30.9063 44.2758 31.1397 44.1737C31.7597 42.8826 32.3655 41.5857 32.9598 40.2831C32.3082 39.8173 31.6538 39.3486 30.9994 38.877C29.4485 37.5701 28.2513 35.9928 27.405 34.1439C26.0145 30.5408 26.1076 26.9781 27.6857 23.4584C30.2175 18.7727 34.1541 16.4292 39.4954 16.4277Z" fill="#030505"/>
<path fill-rule="evenodd" clip-rule="evenodd" d="M31.4286 10.2852C30.6434 11.7025 29.8784 13.14 29.1363 14.5962C28.2708 16.636 27.5531 18.7291 26.9832 20.8752C26.666 22.3789 26.3387 23.7531 26 24.9994C26.2541 23.3233 26.6129 21.6673 27.0765 20.0329C27.9995 16.5297 29.4492 13.2809 31.4286 10.2852Z" fill="#0E1016"/>
<path fill-rule="evenodd" clip-rule="evenodd" d="M44.917 20.7762C44.8755 20.7705 44.8454 20.7863 44.824 20.8234C45.3417 21.2526 45.5906 21.7962 45.5706 22.4557C41.0481 19.4874 36.743 19.7677 32.6553 23.2954C31.9588 24.2667 31.554 25.3553 31.4425 26.5598C31.1736 28.913 31.298 31.2447 31.8158 33.555C32.1004 34.5821 32.5209 35.5462 33.0744 36.446C33.0272 36.7292 32.9643 37.0096 32.8885 37.2857C30.7102 35.6049 29.3901 33.3976 28.9252 30.6639C28.4933 26.2279 30.1252 22.7918 33.821 20.3585C36.6958 18.8451 39.6808 18.5961 42.773 19.6118C43.5253 19.9465 44.2404 20.3356 44.9184 20.7777L44.917 20.7762Z" fill="#31596D"/>
<path fill-rule="evenodd" clip-rule="evenodd" d="M45.5985 22.3467C47.2103 23.6158 48.0756 25.2848 48.1973 27.3521C48.5408 30.2597 47.8799 32.9037 46.213 35.2868C43.1822 38.5595 39.5441 39.4881 35.2987 38.0727C34.3682 37.754 33.5811 37.2354 32.9361 36.5139C32.3737 35.6026 31.949 34.6262 31.6606 33.586C31.1359 31.2478 31.0098 28.8863 31.2823 26.5017C31.3954 25.2819 31.8041 24.1794 32.5114 23.1957C36.6539 19.6231 41.0168 19.3392 45.5999 22.3453L45.5985 22.3467Z" fill="#F2D1B1"/>
<path fill-rule="evenodd" clip-rule="evenodd" d="M38.2845 21.199C40.4595 20.9536 42.3844 21.5083 44.0606 22.8643C44.2807 23.0969 44.4821 23.3438 44.6665 23.6048C44.8151 23.8033 44.8766 24.019 44.8523 24.2516C43.1403 23.3154 41.3083 22.792 39.3548 22.6799C37.3214 22.8289 35.4894 23.5069 33.8574 24.714C33.9517 23.8161 34.3704 23.0913 35.115 22.5409C36.0781 21.8615 37.1342 21.4146 38.2831 21.2004L38.2845 21.199Z" fill="#1C3D4F"/>
<path fill-rule="evenodd" clip-rule="evenodd" d="M68.2953 23.1426C68.3607 23.1812 68.4065 23.2441 68.4316 23.3285C68.4691 23.2856 68.515 23.2541 68.5679 23.2356C68.9253 23.3571 69.2576 23.5288 69.565 23.7491C70.6692 24.4028 71.0627 25.3812 70.7443 26.6871C71.4285 26.7715 71.9417 27.1134 72.2852 27.7127C70.9334 26.4125 69.8751 26.6299 69.1116 28.365C69.0324 28.3521 68.9712 28.3836 68.9308 28.4579C68.725 28.92 68.5289 29.3863 68.3412 29.8569C68.3259 29.7796 68.3106 29.701 68.2953 29.6237C68.4316 28.478 68.4914 27.3279 68.4761 26.1736C68.4761 25.374 68.4469 24.6431 68.3857 23.9822C68.2967 23.7219 68.2675 23.443 68.2953 23.1426Z" fill="#0A1222"/>
<path fill-rule="evenodd" clip-rule="evenodd" d="M69.1414 28.3636C68.813 29.0513 68.4948 29.7475 68.1897 30.4522C68.1562 30.569 68.0934 30.6003 68 30.5448C68.1941 29.5838 68.3051 28.6085 68.3328 27.6205C68.381 26.4146 68.3955 25.2073 68.381 24C68.4452 24.6578 68.4773 25.3853 68.4758 26.1811C68.4919 27.3315 68.4277 28.4761 68.2861 29.6151C68.3021 29.692 68.3182 29.7703 68.3342 29.8471C68.5313 29.3787 68.7371 28.9146 68.9531 28.4548C68.9969 28.3807 69.0597 28.3494 69.1429 28.3622L69.1414 28.3636Z" fill="#0F0C0F"/>
<path fill-rule="evenodd" clip-rule="evenodd" d="M44.0043 28.1928C42.6874 26.2704 40.9398 25.7951 38.7614 26.7669C37.6787 27.3254 36.8673 28.1378 36.3274 29.2041C36.1709 29.2817 36.0617 29.4044 36 29.5723C36.2542 27.5257 37.3929 26.2239 39.4177 25.6639C41.7181 25.276 43.3408 26.1195 44.2857 28.1928C44.1996 28.2902 44.1048 28.2902 44.0043 28.1928Z" fill="#264D63"/>
<path fill-rule="evenodd" clip-rule="evenodd" d="M44.0277 28.1191C44.5983 29.8744 44.2203 31.3764 42.8951 32.6267C40.7242 33.7619 38.7879 33.4301 37.0876 31.6297C36.5459 30.899 36.2795 30.0767 36.2852 29.1627C36.8298 28.0624 37.6481 27.224 38.7401 26.6476C40.9371 25.6448 42.6996 26.1353 44.0277 28.1191Z" fill="#DFEEF3"/>
<path fill-rule="evenodd" clip-rule="evenodd" d="M40.5985 27C42.0639 27.0465 42.9514 27.8044 43.2625 29.2724C43.3815 30.3643 43.0532 31.295 42.2804 32.0646C40.4408 32.8922 39.2723 32.3085 38.7747 30.3135C38.5109 28.7003 39.1188 27.5953 40.5971 27H40.5985Z" fill="#1B4253"/>
<path fill-rule="evenodd" clip-rule="evenodd" d="M44.9573 20.716C48.3898 23.3027 49.7809 26.7444 49.1306 31.0398C48.0704 35.7295 45.1789 38.4976 40.4546 39.3454C37.6364 39.6808 35.1045 39.0086 32.8574 37.3273C32.9351 37.0495 32.997 36.7673 33.0444 36.4823C33.6846 37.1992 34.4658 37.7145 35.3893 38.0312C39.6029 39.4361 43.2138 38.5134 46.2218 35.2631C47.8762 32.8967 48.5322 30.2682 48.1913 27.3792C48.0704 25.3237 47.2116 23.6654 45.6119 22.4059C45.632 21.7438 45.3831 21.1953 44.8609 20.7635C44.8825 20.7261 44.9142 20.7102 44.9544 20.716H44.9573Z" fill="#9CC2CE"/>
<path fill-rule="evenodd" clip-rule="evenodd" d="M24.3339 34.1426C24.3952 34.1989 24.4259 34.2768 24.4289 34.3778C23.9263 36.4967 23.3068 38.5823 22.5719 40.6362C21.8648 42.5342 20.9605 44.3225 19.8574 45.9997C21.9875 42.2903 23.4792 38.3384 24.3339 34.1426Z" fill="#0D0F15"/>
<path fill-rule="evenodd" clip-rule="evenodd" d="M76.807 33.4277C77.6946 37.2092 79.0924 40.7801 81.0006 44.142C80.566 43.5135 80.1616 42.8546 79.7885 42.1684C78.5307 39.5057 77.5216 36.7478 76.7598 33.8977C76.6869 33.7204 76.7026 33.5632 76.807 33.4277Z" fill="#0F1016"/>
<path fill-rule="evenodd" clip-rule="evenodd" d="M69.8276 36.7148C69.5332 36.9717 69.1918 37.1597 68.8032 37.2759C68.7718 37.5256 68.7418 37.7753 68.7103 38.0249C68.8889 41.2076 69.5261 44.2956 70.6205 47.2874C71.6677 49.6393 72.6606 52.0098 73.6007 54.3975C74.0951 56.2873 74.5137 58.19 74.858 60.1042C74.858 60.2807 74.8265 60.4371 74.7651 60.572C71.4934 59.4556 68.2017 58.3952 64.8914 57.3907C64.86 57.3118 64.7971 57.2817 64.7057 57.2975C63.4042 56.0218 62.0998 54.7433 60.7939 53.4619C60.5025 53.3285 60.1925 53.2352 59.8624 53.1807C59.6324 51.5807 59.5396 49.9592 59.5824 48.3163C63.4427 45.62 65.9572 41.9724 67.1273 37.3706C68.0903 37.4007 68.9903 37.1826 69.829 36.7163L69.8276 36.7148Z" fill="#091122"/>
<path fill-rule="evenodd" clip-rule="evenodd" d="M38.9866 43.3316C40.1478 45.1269 41.6293 46.6154 43.4283 47.7971V50.4957C43.366 51.3948 43.3022 52.2939 43.2398 53.1944C42.8919 53.1787 42.5455 53.1944 42.2004 53.2415C42.0526 53.2986 41.9265 53.3756 41.8221 53.4741C40.5334 54.7742 39.2417 56.0772 37.9472 57.3815C37.853 57.3658 37.7906 57.3972 37.7587 57.4743C35.5451 58.0965 33.3402 58.7487 31.1426 59.428C32.0153 58.1122 32.8662 56.7793 33.6939 55.4278C35.0986 54.1234 36.312 52.6649 37.3325 51.0552C37.8443 50.3202 38.0646 49.5139 37.9936 48.6362C37.9559 48.3822 37.8138 48.2109 37.5688 48.1239C36.7933 47.9812 36.1322 48.1824 35.5843 48.729C35.519 48.4407 35.4248 48.1624 35.3001 47.8912C34.9914 47.2776 34.6449 46.6882 34.2608 46.1231C34.2608 45.9818 34.197 45.8733 34.0723 45.7977C34.4072 45.2768 34.7072 44.7345 34.9696 44.1693C35.3538 43.2032 35.7481 42.2413 36.1511 41.2852C36.7657 41.4792 37.3949 41.572 38.0414 41.5649C38.2444 42.09 38.4502 42.6181 38.6561 43.1461L38.7503 43.0533C38.7865 43.1875 38.8648 43.2803 38.9866 43.3331V43.3316Z" fill="#091122"/>
<path fill-rule="evenodd" clip-rule="evenodd" d="M68.2403 23.0071C68.2116 23.3067 68.2431 23.5877 68.3335 23.8486C68.3492 25.0643 68.3335 26.2786 68.2862 27.4943C68.2589 28.4892 68.15 29.4713 67.9593 30.4389C68.051 30.4949 68.1141 30.4633 68.1457 30.3458C68.4453 29.6361 68.7578 28.9365 69.0804 28.2426C69.8675 26.5037 70.957 26.2858 72.3519 27.5889C72.6057 28.0964 72.8078 28.6269 72.9598 29.1774C73.2236 32.231 72.1799 34.724 69.8288 36.6551C68.9886 37.1225 68.084 37.3404 67.1177 37.3088C65.9436 41.9064 63.4204 45.5521 59.5467 48.2444C55.0953 51.4027 50.4532 51.698 45.6204 49.1318C44.8549 48.6716 44.1065 48.1885 43.3768 47.6824C41.5962 46.494 40.1325 44.9987 38.9841 43.1967C38.7175 42.649 38.4379 42.1043 38.1426 41.5609C40.1396 41.6441 42.0707 41.3315 43.9373 40.6262C47.7293 38.8901 50.1751 36.0085 51.2747 31.9801C52.4273 25.8213 50.3557 21.1162 45.0584 17.8662C49.3192 14.9516 51.7019 10.9017 52.2094 5.71484C52.1191 8.27814 52.8359 10.5848 54.3598 12.632C55.587 14.2018 56.9734 15.6197 58.5188 16.8841C61.5509 19.2453 64.791 21.2853 68.2403 23.0057V23.0071Z" fill="#F9CEAA"/>
<path fill-rule="evenodd" clip-rule="evenodd" d="M56.7229 40.8574H57.0008C56.9966 41.1937 56.8888 41.4893 56.6776 41.7427C55.0783 43.4574 53.1528 44.1285 50.8999 43.759C49.4778 43.3805 48.3691 42.545 47.5723 41.251C47.5921 41.1937 47.6219 41.144 47.6644 41.1032C49.9372 41.7909 52.2483 41.9222 54.5976 41.4969C55.3363 41.3506 56.0438 41.1379 56.7244 40.8574H56.7229Z" fill="#D33427"/>
<path fill-rule="evenodd" clip-rule="evenodd" d="M53.2414 30.144C53.3414 31.5915 53.49 33.0492 53.6855 34.5157C53.9114 34.8903 54.1751 35.2387 54.4768 35.5609C54.7572 35.988 54.789 36.4311 54.5753 36.8918C54.1645 37.9209 53.3899 38.3801 52.253 38.2693C52.0742 38.2081 51.9438 38.0973 51.8574 37.9369C52.5198 37.8014 53.064 37.4836 53.4884 36.9865C53.5748 36.7883 53.6234 36.5827 53.637 36.3684C53.3535 35.8699 53.1065 35.348 52.8958 34.7999C52.8306 33.6906 52.8306 32.5828 52.8958 31.4735C52.9928 31.023 53.108 30.5799 53.2414 30.1426V30.144Z" fill="#E58D5F"/>
<path fill-rule="evenodd" clip-rule="evenodd" d="M69.9245 29.5974C70.3089 29.5136 70.6156 29.6393 70.842 29.9744C71.2987 31.8852 70.7603 33.3758 69.2267 34.4475C68.9735 34.5717 68.711 34.6035 68.4405 34.5414C68.3896 33.2704 68.4914 31.9979 68.7458 30.7283C69.1557 30.3643 69.5481 29.9874 69.9245 29.5988V29.5974Z" fill="#EB9A6F"/>
<path fill-rule="evenodd" clip-rule="evenodd" d="M64.428 28.4836C64.3588 28.4705 64.2954 28.4865 64.2406 28.5316C64.4295 30.5599 63.5213 31.7947 61.5146 32.2344C59.1721 32.8562 57.7623 31.9869 57.2852 29.6237C57.3515 29.3106 57.3832 28.9947 57.3789 28.6743C58.8492 26.8673 60.667 26.4072 62.8293 27.2983C63.4579 27.5706 63.9912 27.9667 64.4266 28.485L64.428 28.4836Z" fill="#F5F6F5"/>
<path fill-rule="evenodd" clip-rule="evenodd" d="M59.8654 27.3174C61.1549 27.1387 61.9817 27.7022 62.3487 29.0093C62.6257 30.3567 62.1895 31.3424 61.0399 31.9693C59.7879 32.1393 58.9901 31.5903 58.6466 30.325C58.3904 29.0136 58.7962 28.012 59.8654 27.3189V27.3174Z" fill="#030505"/>
<path fill-rule="evenodd" clip-rule="evenodd" d="M64.4739 28.6061C64.0313 28.0671 63.4923 27.6553 62.8554 27.3722C60.6629 26.4471 58.8224 26.924 57.3325 28.8029C57.2507 28.8983 57.1864 28.8983 57.1426 28.8029C58.7698 26.1625 60.9594 25.4872 63.7143 26.7787C64.433 27.354 64.861 28.0943 64.9997 28.9997C64.8639 28.809 64.6886 28.6772 64.4753 28.6046L64.4739 28.6061Z" fill="#090808"/>
<path fill-rule="evenodd" clip-rule="evenodd" d="M59.9672 21.1571C61.7275 21.0581 63.3696 21.4659 64.8919 22.3787C65.4735 22.7955 65.9239 23.3336 66.2389 23.9916C66.3002 24.0891 66.3002 24.1865 66.2389 24.2854C64.259 23.1102 62.1381 22.6695 59.8731 22.9663C58.7285 23.1942 57.5825 23.4055 56.4351 23.6019C56.4023 23.3021 56.4793 23.0413 56.6674 22.8194C57.5982 21.8826 58.6972 21.328 59.9658 21.1586L59.9672 21.1571Z" fill="#0D1423"/>
<path fill-rule="evenodd" clip-rule="evenodd" d="M43.4277 47.8574C44.1546 48.351 44.8985 48.8236 45.6625 49.2752C50.4761 51.7854 55.0998 51.4951 59.5336 48.4071C59.4908 50.0142 59.5836 51.5989 59.8135 53.1611C59.8549 53.6519 59.9178 54.1385 59.9992 54.6237V54.806C56.495 56.0891 53.0193 56.0134 49.5722 54.5774C47.2518 53.6056 45.2027 52.2495 43.4277 50.5092V47.8574Z" fill="#EA996E"/>
<path fill-rule="evenodd" clip-rule="evenodd" d="M87.9967 73.2854C87.4816 70.6132 86.3895 68.2198 84.7221 66.1081C84.9416 66.2568 85.1454 66.4441 85.3305 66.6671C85.4008 66.6085 85.4783 66.5627 85.5644 66.527C85.4654 60.2175 83.5626 54.4541 79.8574 49.2355C79.8732 49.2041 79.889 49.174 79.9048 49.1426C82.594 51.6103 84.7149 54.4999 86.2661 57.8112C88.5708 62.8168 89.1476 67.9753 87.9967 73.2854Z" fill="#081121"/>
<path fill-rule="evenodd" clip-rule="evenodd" d="M33.7148 55.4283C34.0174 54.9826 34.2219 54.4916 34.3257 53.9525C34.3574 53.3045 34.3574 52.6592 34.3257 52.0154C35.19 51.1184 35.6121 50.0416 35.5934 48.7865C36.1379 48.2446 36.7948 48.0451 37.5656 48.1866C37.8105 48.2729 37.9502 48.4413 37.9877 48.6946C38.0582 49.5648 37.8393 50.3642 37.3307 51.0929C36.3151 52.689 35.1108 54.135 33.7148 55.4283Z" fill="#F9CFAC"/>
<path fill-rule="evenodd" clip-rule="evenodd" d="M34.2444 46.1988C34.6228 46.7639 34.9641 47.3533 35.2683 47.9669C35.3726 49.2898 35.0156 50.4686 34.1973 51.5017C33.9502 50.6084 33.5789 49.7707 33.0805 48.9901C32.6992 48.6519 32.2794 48.3736 31.8238 48.1524C31.8124 48.0511 31.751 47.9898 31.6382 47.9669C31.5125 47.9997 31.3883 48.0297 31.2655 48.0597C29.8446 48.1496 28.4165 48.2266 26.9827 48.2923C26.907 48.3208 26.8456 48.3679 26.7971 48.4321C28.2851 48.5634 29.7746 48.6719 31.2655 48.7575C32.1909 48.8859 32.8592 49.3669 33.2676 50.2003C33.9345 51.5431 34.0887 52.9388 33.7332 54.3873C33.6346 54.7098 33.449 54.9567 33.1748 55.1322C33.1134 53.4597 32.2908 52.3908 30.7071 51.9227C29.449 51.6102 28.1766 51.3776 26.8899 51.2249C26.7657 51.2563 26.6414 51.2863 26.5172 51.3177C26.6357 51.4703 26.7914 51.5788 26.9827 51.643C28.5479 51.957 30.1002 52.328 31.6382 52.759C32.0609 53.1857 32.3251 53.698 32.4293 54.2945C32.4907 54.9766 32.4907 55.6588 32.4293 56.3409C32.2608 56.9246 31.9509 57.4212 31.4982 57.8293C31.3826 56.9702 30.9642 56.3038 30.2416 55.8286C29.1505 55.4062 28.0323 55.0651 26.8899 54.8054C26.6828 54.7297 26.4958 54.7597 26.3315 54.8981C26.7371 55.1621 27.1712 55.3805 27.6353 55.5489C28.6007 55.7986 29.5318 56.1397 30.4286 56.5721C30.9556 57.0673 31.127 57.6723 30.9413 58.3859C30.8456 59.9556 30.0231 60.6692 28.4736 60.5265C28.6507 60.0627 28.8678 59.6131 29.1248 59.1779C28.3065 58.7726 27.4383 58.57 26.5172 58.5728C26.1273 60.251 25.5061 61.8322 24.655 63.3178C24.2209 63.783 23.7867 64.2482 23.3512 64.7134C21.5047 63.96 19.6725 63.1851 17.8574 62.3873C18.3258 61.2657 18.7914 60.1483 19.2541 59.038C19.3983 58.9396 19.5068 58.7526 19.5797 58.4801C20.2723 56.4137 21.0177 54.3659 21.8146 52.3394C21.8831 52.2238 21.8674 52.1297 21.7674 52.0597C22.2701 50.684 22.8742 49.3497 23.5825 48.0597C23.9495 47.2163 24.555 46.6112 25.3976 46.2459C27.1427 45.558 28.912 44.9844 30.7042 44.5249C31.4668 44.3251 32.1794 44.4335 32.8463 44.8502C33.299 45.3183 33.7646 45.7678 34.243 46.1988H34.2444Z" fill="#F9CEAB"/>
<path fill-rule="evenodd" clip-rule="evenodd" d="M31.714 48.1905C31.7082 48.2418 31.676 48.274 31.619 48.2857C31.4436 48.2359 31.2858 48.1714 31.1426 48.0952C31.2683 48.0645 31.3954 48.0322 31.524 48C31.6395 48.0234 31.7038 48.0879 31.714 48.1905Z" fill="#0D0A0B"/>
<path fill-rule="evenodd" clip-rule="evenodd" d="M43.1434 53.148C42.955 53.8998 42.7958 54.659 42.6672 55.4283C42.2246 54.8294 41.9062 54.165 41.7148 53.4336C41.82 53.333 41.9471 53.2543 42.0961 53.1961C42.4437 53.148 42.7928 53.1334 43.1434 53.148Z" fill="#CADCE6"/>
<path fill-rule="evenodd" clip-rule="evenodd" d="M59.8574 53.1426C60.1611 53.1964 60.4464 53.2885 60.7146 53.4203C60.5055 53.8298 60.3202 54.262 60.1572 54.714C60.1243 54.663 60.0809 54.6318 60.0283 54.6219C59.9521 54.1316 59.8955 53.6385 59.8574 53.144V53.1426Z" fill="#C7DAE3"/>
<path fill-rule="evenodd" clip-rule="evenodd" d="M41.7814 53.4277C41.9668 54.1498 42.2753 54.8056 42.7041 55.3968C43.5475 57.3601 44.6697 59.1422 46.0722 60.7416C47.718 62.4 49.4559 63.9318 51.2857 65.337C50.4267 66.1151 49.5663 66.8976 48.7016 67.6815C47.1859 68.9558 45.7099 70.2834 44.2735 71.6671C44.2126 71.7289 44.1504 71.7289 44.0895 71.6671C41.7729 68.3273 40.035 64.6855 38.876 60.743C38.525 59.6298 38.2335 58.505 38 57.3673C39.2638 56.0512 40.5247 54.7395 41.7828 53.4292L41.7814 53.4277Z" fill="#FCF9F6"/>
<path fill-rule="evenodd" clip-rule="evenodd" d="M60.7561 53.4292C62.0786 54.707 63.3967 55.9819 64.7134 57.254C63.5485 62.3595 61.5539 67.1173 58.7297 71.5274L58.5418 71.7134C57.4274 70.6717 56.3116 69.63 55.1972 68.5883C54.8633 68.3036 54.5179 68.0403 54.1609 67.7956C53.2677 66.9342 52.3571 66.0942 51.4277 65.2772C52.3455 64.4644 53.2879 63.6703 54.2549 62.8976C56.7206 60.734 58.6213 58.1698 59.9553 55.2006C60.0016 55.0804 60.0175 54.956 60.003 54.8272V54.6412C60.0608 54.6512 60.1085 54.6827 60.1447 54.7342C60.3239 54.2777 60.5277 53.8427 60.7575 53.4277L60.7561 53.4292Z" fill="#FCF9F6"/>
<path fill-rule="evenodd" clip-rule="evenodd" d="M21.6261 51.8574C21.7249 51.929 21.7404 52.0239 21.6727 52.1437C20.8853 54.2179 20.1501 56.314 19.4643 58.4291C19.3923 58.7081 19.2851 58.8995 19.1426 59.0003C19.9159 56.5974 20.7442 54.2165 21.6261 51.8574Z" fill="#F0E3BF"/>
<path fill-rule="evenodd" clip-rule="evenodd" d="M28.4762 60.5482C28.1374 61.1847 27.7723 61.8126 27.3808 62.4303C26.6316 63.2573 25.6954 63.5705 24.5723 63.3713C25.4427 61.8688 26.0781 60.2682 26.4768 58.5723C27.4174 58.5694 28.3068 58.7729 29.1437 59.1843C28.8808 59.6259 28.6588 60.0806 28.4777 60.5482H28.4762Z" fill="#060606"/>
<path fill-rule="evenodd" clip-rule="evenodd" d="M35.2884 48C35.4121 48.2702 35.5056 48.5474 35.5703 48.8347C35.589 50.0959 35.1661 51.178 34.3045 52.0795C34.3362 52.7265 34.3362 53.3763 34.3045 54.0261C34.2009 54.5679 33.9967 55.0613 33.6946 55.5092C32.8733 56.8558 32.029 58.1853 31.1631 59.4949C30.5504 60.6736 29.7377 61.7088 28.7251 62.6004C27.5111 63.6 26.2611 64.5427 24.9738 65.4286C24.3798 65.2338 23.8174 64.9864 23.2852 64.6863C23.7224 64.2228 24.1597 63.7592 24.5984 63.2957C25.7059 63.4919 26.6279 63.1833 27.3644 62.3686C27.7499 61.76 28.1094 61.1415 28.4432 60.5144C30.0038 60.6566 30.8323 59.9456 30.9287 58.3815C31.1156 57.6691 30.9445 57.0662 30.4123 56.5742C29.509 56.1434 28.5712 55.8035 27.5988 55.5547C27.1328 55.3855 26.6941 55.1694 26.2856 54.9063C26.4524 54.7684 26.6394 54.7371 26.848 54.8139C27.9987 55.0727 29.1249 55.4125 30.2239 55.8334C30.9517 56.3069 31.3731 56.9709 31.4896 57.8269C31.9456 57.4203 32.2577 56.9254 32.4274 56.3439C32.4893 55.6642 32.4893 54.9845 32.4274 54.3048C32.3224 53.7105 32.0563 53.2 31.6306 52.7748C30.0815 52.3454 28.5179 51.9743 26.9415 51.6629C26.7488 51.5989 26.592 51.4908 26.4726 51.3387C26.5977 51.3074 26.7229 51.2775 26.848 51.2463C28.144 51.3984 29.4256 51.6302 30.6928 51.9416C32.2879 52.408 33.1164 53.4744 33.1783 55.1395C33.4544 54.966 33.6429 54.7186 33.7407 54.3973C34.0988 52.954 33.9435 51.5634 33.2718 50.2253C32.8604 49.3949 32.1887 48.9171 31.2552 48.7877C29.7521 48.701 28.2519 48.5929 26.7545 48.4635C26.8034 48.3996 26.8667 48.3526 26.9415 48.3242C28.3856 48.2588 29.824 48.182 31.2552 48.0924C31.3961 48.1678 31.5515 48.2289 31.7241 48.2773C31.7816 48.2659 31.8118 48.2346 31.8176 48.1849C32.2778 48.4053 32.6993 48.6825 33.0833 49.0195C33.5853 49.7973 33.9607 50.632 34.2081 51.5221C35.0309 50.4912 35.3905 49.3167 35.2869 48H35.2884Z" fill="#E99568"/>
<path fill-rule="evenodd" clip-rule="evenodd" d="M43.3696 50.4277C45.1503 52.2077 47.2061 53.5935 49.5342 54.5852C52.9925 56.0527 56.4796 56.1301 59.9953 54.8188C60.0096 54.9478 59.9953 55.071 59.948 55.1929C58.6242 58.1651 56.7403 60.7347 54.2977 62.9016C53.3392 63.6755 52.4052 64.4694 51.4954 65.2849H51.4023C49.5514 63.8862 47.7921 62.3599 46.1245 60.7061C44.7048 59.111 43.5687 57.3368 42.7148 55.3806C42.8409 54.6239 42.9971 53.8773 43.1819 53.1378C43.2435 52.2349 43.3065 51.332 43.3681 50.4277H43.3696Z" fill="#F9CEAA"/>
<path fill-rule="evenodd" clip-rule="evenodd" d="M64.67 57.1466C64.7637 57.1306 64.8257 57.1625 64.8574 57.2407C63.9446 62.0222 62.3612 66.5864 60.1102 70.9348C59.6949 71.6127 59.2565 72.2733 58.7936 72.9178C58.7258 73.0076 58.6479 73.0236 58.5585 72.9656C56.8454 71.6823 55.2778 70.2497 53.8574 68.6694C53.9699 68.3927 54.0636 68.1103 54.1401 67.8191C54.4963 68.0668 54.8409 68.3333 55.174 68.6216C56.2858 69.6761 57.3991 70.7306 58.5109 71.7851L58.6984 71.5968C61.5162 67.1325 63.5062 62.3163 64.6685 57.148L64.67 57.1466Z" fill="#AFCBD8"/>
<path fill-rule="evenodd" clip-rule="evenodd" d="M17.7427 62.2289C19.5556 63.0338 21.3842 63.8157 23.2299 64.576C23.7577 64.8799 24.3154 65.1304 24.9044 65.3277C25.4807 65.6013 26.0684 65.8662 26.6717 66.1254C26.793 66.2003 26.8557 66.3112 26.8571 66.4537C26.3494 68.2393 25.7916 69.9917 25.1826 71.7111C24.9858 71.7269 24.7989 71.6967 24.6249 71.6175C20.6952 70.441 16.9439 68.8455 13.3723 66.8296C13.1968 66.8094 13.0727 66.7158 13 66.5473C13.8202 64.9547 14.6417 63.3578 15.4648 61.7595C15.5389 61.6371 15.6488 61.5737 15.79 61.5723C16.4361 61.8099 17.0865 62.0302 17.7427 62.2289Z" fill="#55236A"/>
<path fill-rule="evenodd" clip-rule="evenodd" d="M75 60.6661C75.0058 60.6156 75.0375 60.5838 75.0939 60.5723C76.3605 61.0647 77.6156 61.5816 78.8605 62.126C80.4492 62.8264 81.9252 63.6884 83.2857 64.7151C80.6788 63.0675 77.9174 61.7174 75 60.6676V60.6661Z" fill="#0E1017"/>
<path fill-rule="evenodd" clip-rule="evenodd" d="M64.9093 57.2866C68.2414 58.293 71.5548 59.3554 74.8481 60.4739C74.8797 60.553 74.943 60.5832 75.035 60.5674C77.94 61.614 80.6911 62.9568 83.2854 64.5972C83.7557 65.0673 84.2547 65.5043 84.7853 65.9097C86.4564 68.0346 87.5508 70.4399 88.0671 73.1269C88.3245 74.0182 88.5129 74.9239 88.6294 75.8455C88.8882 76.7714 89.1068 77.7087 89.2852 78.6576C86.3514 82.8714 82.7892 86.4641 78.5972 89.4372C78.6446 86.8954 78.8474 84.3637 79.2069 81.8449C79.6887 78.7669 80.251 75.706 80.8953 72.6596C81.0506 71.8531 81.1441 71.0408 81.1771 70.2228C78.7094 76.7067 77.474 83.3933 77.474 90.2812C73.7637 92.9222 66.9931 96.0764 65.4731 96.6544C63.953 97.2323 57.854 99.7137 54.1049 99.7137C53.9496 91.1625 53.754 79.559 53.2852 71.0192C53.2981 70.1667 53.5167 69.3688 53.9409 68.6284C55.3575 70.1983 56.9207 71.6202 58.6291 72.8925C58.7183 72.95 58.796 72.9342 58.8635 72.8451C59.3237 72.2053 59.7624 71.5483 60.1765 70.8769C62.4229 66.5624 64.0005 62.0323 64.9108 57.2852L64.9093 57.2866Z" fill="#CEDEE6"/>
<path fill-rule="evenodd" clip-rule="evenodd" d="M37.7148 57.3839C37.7463 57.3038 37.8093 57.2733 37.9008 57.2893C38.1369 58.441 38.4331 59.5795 38.7865 60.7065C39.9568 64.6988 41.7138 68.3854 44.0573 71.7648C44.1189 71.8274 44.1818 71.8274 44.2433 71.7648C45.6955 70.3655 47.1892 69.0202 48.7201 67.7302C48.7745 68.1204 48.8689 68.499 49.0006 68.8688C48.939 68.9838 48.8761 69.1105 48.8146 69.2488C47.4496 70.4485 46.0504 71.6046 44.6168 72.7141C44.4236 72.8917 44.2061 72.9863 43.9643 72.9994C43.2862 72.235 42.711 71.3964 42.2389 70.4835C40.0799 66.3135 38.5719 61.9455 37.7148 57.3839Z" fill="#B0CCD8"/>
<path fill-rule="evenodd" clip-rule="evenodd" d="M51.3733 65.2852H51.4654C52.3757 66.1095 53.2676 66.9541 54.1426 67.8217C54.069 68.11 53.9769 68.3924 53.8651 68.6677C53.446 69.41 53.2308 70.2084 53.2195 71.0645C53.6825 79.6254 53.8736 91.2576 54.0265 99.83C52.1393 100.087 50.2153 100.023 48.1426 99.83C48.59 91.1206 49.0812 79.3458 49.6192 70.6422C49.4522 70.0081 49.2681 69.3811 49.0657 68.7628C48.9354 68.3968 48.8434 68.0206 48.7882 67.6358C49.6518 66.8503 50.514 66.0677 51.3733 65.2866V65.2852Z" fill="#54236A"/>
<path fill-rule="evenodd" clip-rule="evenodd" d="M78.4565 89.4437C78.1045 89.7691 77.7136 90.0486 77.2852 90.2852C77.2852 83.4159 78.5719 76.7502 81.1423 70.2852C81.1078 71.1008 81.0105 71.9107 80.8487 72.7149C80.1791 75.7525 79.592 78.8058 79.0902 81.8735C78.7172 84.3849 78.5045 86.9079 78.455 89.4437H78.4565Z" fill="#ABC4D1"/>
<path fill-rule="evenodd" clip-rule="evenodd" d="M13.4153 66.8589C17.0017 68.8711 20.767 70.4637 24.7143 71.638C23.1789 77.8315 21.7467 84.048 20.419 90.286C15.4319 86.9068 11.2927 82.6897 8 77.6346C8.97106 75.4498 10.0295 73.3096 11.1753 71.2154C11.1237 71.1795 11.0922 71.1321 11.0822 71.0746C11.9272 69.7235 12.7049 68.3178 13.4167 66.8574L13.4153 66.8589Z" fill="#CEDEE6"/>
<path fill-rule="evenodd" clip-rule="evenodd" d="M24.7085 71.7148C24.8899 71.7936 25.0816 71.8252 25.2852 71.808C24.0846 78.2636 22.8663 84.7093 21.6318 91.1434C21.1509 90.9099 20.7011 90.6291 20.2852 90.3024C21.6524 84.0846 23.1273 77.8883 24.7085 71.7148Z" fill="#9EB8C7"/>
<path fill-rule="evenodd" clip-rule="evenodd" d="M37.641 57.5737C38.5043 62.0592 40.0232 66.3515 42.1979 70.4506C42.6735 71.348 43.2528 72.1723 43.9359 72.9237C44.1795 72.9123 44.3986 72.8193 44.5931 72.6432C46.0371 71.5526 47.4466 70.4176 48.8214 69.2369C48.8848 69.1023 48.9468 68.9778 49.0088 68.8633C49.2149 69.4773 49.4022 70.0999 49.5723 70.7297C49.0246 79.3743 48.5246 91.0661 48.0692 99.7151C42.8075 99.7151 33.7744 97.1146 32.2843 96.6694C30.7942 96.2243 27.9061 94.806 25.8006 93.6839C25.4879 89.6435 25.2227 85.6002 25.0022 81.5527C24.9762 80.8886 24.8811 80.236 24.7197 79.5933C24.6477 84.1046 24.6635 88.6144 24.7673 93.1243C23.6518 92.5446 22.5868 91.8905 21.5723 91.1649C22.7785 84.7372 23.9689 78.2981 25.142 71.8489C25.7573 70.14 26.3208 68.3982 26.8339 66.6234C26.831 66.4803 26.769 66.3715 26.6465 66.2971C26.0384 66.0395 25.4432 65.7747 24.861 65.5042C26.1508 64.614 27.4031 63.6651 28.6195 62.6575C29.634 61.7601 30.4483 60.7181 31.0622 59.5316C33.2455 58.8489 35.439 58.1963 37.6396 57.5723L37.641 57.5737Z" fill="#CEDEE5"/>
<path fill-rule="evenodd" clip-rule="evenodd" d="M25.8577 93.7151C25.461 93.5988 25.1112 93.412 24.8081 93.1534C24.7027 88.6269 24.6866 84.1003 24.7598 79.5723C24.9238 80.2173 25.0189 80.8723 25.0467 81.5389C25.2707 85.6015 25.5415 89.6597 25.8577 93.7151Z" fill="#A8C2CF"/>
</svg>
