<svg width="100" height="100" viewBox="0 0 100 100" fill="none" xmlns="http://www.w3.org/2000/svg">
<g clip-path="url(#clip0_1877_12075)">
<path fill-rule="evenodd" clip-rule="evenodd" d="M59.1276 52.2344C59.2187 52.1112 59.2355 51.9775 59.1777 51.8346C58.6792 50.7707 58.205 49.6992 57.7551 48.62C57.6655 48.4057 57.5773 48.1914 57.4892 47.9756C57.4086 47.7795 57.3281 47.582 57.2505 47.3844C57.0286 46.8342 56.8159 46.2824 56.6092 45.7277C56.5271 45.5119 56.4481 45.296 56.369 45.0802C56.3645 45.0711 56.3614 45.062 56.3584 45.0513C56.255 44.7701 56.1547 44.4874 56.0544 44.2047C55.9845 44.0072 55.9146 43.8081 55.8477 43.6089C55.8249 43.5451 55.8021 43.4798 55.7809 43.4159C55.7353 43.2837 55.6912 43.153 55.6471 43.0207C55.5711 42.7973 55.4966 42.5724 55.4252 42.3474C55.3675 42.1757 55.3127 42.0039 55.2595 41.8322C55.2155 41.7 55.1744 41.5677 55.1334 41.4355C55.0635 41.2151 54.9951 40.9932 54.9282 40.7713C54.8674 40.5722 54.8066 40.3716 54.7489 40.1694C54.7398 40.1421 54.7322 40.1147 54.723 40.0873C54.6607 39.8715 54.5969 39.6557 54.5361 39.4384C54.4738 39.224 54.413 39.0067 54.3537 38.7909C54.2899 38.5614 54.2276 38.3303 54.1653 38.0993C54.0285 37.3333 53.913 36.5642 53.8142 35.7936C53.8187 35.6006 53.8522 35.4167 53.9145 35.2419C53.8643 35.1918 53.8142 35.1416 53.764 35.0914C53.7443 34.7312 53.6941 34.3817 53.6136 34.0397C53.6212 31.2704 53.6212 28.5301 53.6136 25.8186C53.4342 25.3808 53.4008 24.9629 53.5148 24.5646C53.4403 23.443 53.34 22.341 53.2138 21.2574C52.9357 21.227 52.6849 21.1266 52.4615 20.9564C52.4205 21.002 52.3703 21.0354 52.311 21.0567C52.0876 20.9488 51.8536 20.8819 51.6089 20.8561C51.618 20.5901 51.5511 20.3561 51.4083 20.1539C50.3048 19.5019 49.2683 18.7495 48.3017 17.8984C46.7134 16.4438 45.1936 14.9239 43.7391 13.3372C42.0141 11.3248 40.8453 9.01763 40.2313 6.41861C39.5474 9.02371 38.3102 11.3294 36.5214 13.3372C32.6716 17.3862 28.1272 20.3941 22.8868 22.3593C22.6968 24.1254 22.5296 25.8961 22.3868 27.6728C21.8868 26.3368 21.0007 25.352 19.7301 24.7151C19.2346 24.6102 18.7665 24.6771 18.3258 24.9157C17.1692 25.9827 16.6843 27.302 16.8728 28.8766C17.119 30.7066 17.9382 32.2112 19.3289 33.3876C19.2453 33.4697 19.2787 33.5533 19.4292 33.6384C19.3425 33.7068 19.2757 33.7904 19.2285 33.8892C19.3228 33.8877 19.3896 33.9378 19.4292 34.0397C18.8577 36.4138 18.2057 38.7696 17.4746 41.1072C17.0856 41.9082 16.7345 42.7259 16.4214 43.5634C16.3059 43.7366 16.3059 43.9038 16.4214 44.0649C16.3408 44.0953 16.274 44.1455 16.2208 44.2154C16.0749 44.5346 15.9305 44.8553 15.7876 45.1775C15.6979 45.3766 15.6083 45.5772 15.5201 45.7778C15.2496 46.3858 14.9821 46.9968 14.7161 47.6124C14.5824 47.9209 14.4501 48.2294 14.3179 48.5395C14.3058 48.5653 14.2951 48.5927 14.283 48.62C14.2055 48.8024 14.1279 48.9848 14.0504 49.1687C13.9516 49.3997 13.8544 49.6308 13.7586 49.8633C13.4562 50.5838 13.1568 51.3072 12.8619 52.0352C12.7905 51.9395 12.7069 51.9228 12.6111 51.9851C12.6978 52.0535 12.7646 52.1371 12.8118 52.2344C12.6613 52.897 12.4956 53.5156 12.3117 54.0902C12.1491 54.4519 12.0488 54.8015 12.0108 55.1419C9.34194 56.6238 7.38742 58.7623 6.1457 61.5589C5.37058 63.6777 4.91919 65.8496 4.79304 68.0747C4.45867 67.6567 4.14103 67.2221 3.8401 66.7722C2.08619 63.55 1.41746 60.1089 1.83542 56.446C2.16067 53.733 2.84764 51.1248 3.90241 48.62C4.04072 48.2857 4.18814 47.9528 4.34165 47.623C5.82806 44.7169 7.36462 41.8443 8.95286 39.0021C10.1171 36.5733 11.0852 34.067 11.8603 31.4832C13.1598 26.618 14.3954 21.7392 15.5688 16.8451C16.4624 13.556 17.8668 10.5147 19.7802 7.72268C24.8383 1.07465 31.439 -1.28118 39.5793 0.655163C42.6767 0.539651 45.4505 1.40903 47.9004 3.26178C50.355 5.51731 52.1758 8.20753 53.3643 11.3309C54.5741 14.5744 55.3751 17.9166 55.7702 21.3561C56.1623 25.5055 56.597 29.6487 57.0727 33.7889C57.442 36.5004 58.1777 39.107 59.278 41.6088C60.5045 43.9068 61.6657 46.2444 62.7554 48.62C62.8329 48.7888 62.9105 48.9575 62.988 49.1277C63.6917 50.9379 64.1415 52.8104 64.3406 54.7407C62.8193 53.4792 61.0821 52.6432 59.1276 52.2344Z" fill="#111B2D"/>
<path fill-rule="evenodd" clip-rule="evenodd" d="M27.7497 4.91494C28.2452 4.82678 28.6632 4.96053 29.0036 5.31619C29.1875 6.01838 29.0371 6.6537 28.5522 7.22062C28.8775 7.25102 29.2118 7.26774 29.5553 7.27078C29.9885 7.56108 30.0721 7.94409 29.8061 8.42438C29.2118 9.25576 28.4094 9.75733 27.4002 9.92755C26.6935 9.87436 26.4594 9.50654 26.698 8.82411C26.7831 8.61436 26.85 8.41374 26.8986 8.22223C26.4898 8.33622 26.0718 8.35142 25.6448 8.27239C25.0459 7.93193 24.8955 7.44708 25.1934 6.81937C25.8651 5.92871 26.7178 5.29339 27.7497 4.91494Z" fill="#243042"/>
<path fill-rule="evenodd" clip-rule="evenodd" d="M44.1914 7.12109C46.2766 9.55749 48.5488 11.813 51.0079 13.8877C50.5459 13.7737 50.1112 13.5731 49.7054 13.2858C47.8588 12.041 46.2721 10.5211 44.9437 8.72458C44.6109 8.22606 44.3601 7.69105 44.1914 7.12109Z" fill="#263143"/>
<path fill-rule="evenodd" clip-rule="evenodd" d="M35.6701 8.22461C35.778 8.3006 35.7947 8.3994 35.7202 8.52555C32.3963 13.0168 28.1529 16.3591 22.9885 18.5508C22.9201 18.4672 22.9368 18.4003 23.0386 18.3502C26.0221 16.654 28.7958 14.6644 31.3598 12.3846C32.7657 10.9498 34.2019 9.56364 35.6701 8.22461Z" fill="#263244"/>
<path fill-rule="evenodd" clip-rule="evenodd" d="M51.4105 20.1537C51.3908 22.3606 51.3239 24.566 51.2099 26.7698C51.0807 29.0603 50.8132 31.3325 50.4074 33.5865C49.0745 38.7603 45.9999 42.4703 41.185 44.7152C37.773 45.9479 34.4643 45.6971 31.2604 43.9629C29.9336 43.1832 28.663 42.3305 27.4502 41.4064C25.7297 39.8044 24.3755 37.9319 23.3907 35.7919C23.1764 35.2645 22.9925 34.7295 22.8389 34.1884C21.541 34.4574 20.3722 34.1884 19.3296 33.3859C17.939 32.2095 17.1198 30.7063 16.8736 28.8749C16.6851 27.3018 17.1699 25.981 18.3265 24.9155C18.7673 24.6769 19.2354 24.61 19.7293 24.7149C20.9999 25.3517 21.886 26.3366 22.386 27.6726C22.5304 25.8959 22.6961 24.1252 22.8876 22.3591C28.1265 20.3938 32.6724 17.386 36.5221 13.337C38.311 11.3307 39.5481 9.0235 40.2321 6.41992C40.8461 9.01894 42.0164 11.3246 43.7414 13.337C45.1944 14.9237 46.7157 16.4452 48.3025 17.8982C49.2706 18.7493 50.3056 19.5017 51.4105 20.1537Z" fill="#F9CFA4"/>
<path fill-rule="evenodd" clip-rule="evenodd" d="M33.8653 26.0697C32.6038 24.4571 31.0323 24.0725 29.1538 24.9161C28.6735 25.179 28.2723 25.5301 27.9501 25.9694C27.8285 26.0423 27.6947 26.0758 27.5488 26.0697C27.6142 25.483 27.8817 24.9982 28.3513 24.6167C29.8286 23.609 31.3652 23.5087 32.9625 24.3157C33.4626 24.7307 33.7954 25.2474 33.9656 25.8691C33.9611 25.9603 33.9276 26.0271 33.8653 26.0697Z" fill="#121316"/>
<path fill-rule="evenodd" clip-rule="evenodd" d="M48.4027 26.0695C46.5333 23.9097 44.6958 23.9431 42.8887 26.1698C43.1622 25.0755 43.8644 24.3231 44.9937 23.9143C46.4953 23.4659 47.6808 23.8839 48.5531 25.1682C48.7446 25.4387 48.8282 25.7397 48.8039 26.071H48.4027V26.0695Z" fill="#111216"/>
<path fill-rule="evenodd" clip-rule="evenodd" d="M30.9579 19.3511C32.0826 19.2781 33.186 19.3952 34.2666 19.7022C34.6815 19.8663 34.9825 20.1506 35.1694 20.5548C35.1223 20.6536 35.0554 20.7357 34.9688 20.8056C33.6359 20.7068 32.2984 20.6734 30.9594 20.7053C29.5232 20.9303 28.1204 21.2814 26.7494 21.7586C26.6826 21.7252 26.6157 21.6917 26.5488 21.6583C26.9014 21.0883 27.3695 20.6369 27.9516 20.3056C28.9183 19.8329 29.9214 19.5152 30.9594 19.3526L30.9579 19.3511Z" fill="#11151F"/>
<path fill-rule="evenodd" clip-rule="evenodd" d="M44.4917 19.2505C46.1955 19.1167 47.7655 19.5013 49.2032 20.4041C49.489 20.6731 49.7565 20.9573 50.0057 21.2568C49.9221 21.2902 49.8385 21.3236 49.7549 21.3571C48.4159 20.8464 47.0283 20.5804 45.5951 20.5546C44.589 20.6838 43.5874 20.8008 42.5873 20.9057C42.4004 20.4892 42.5007 20.1548 42.8883 19.9025C43.4141 19.6335 43.9491 19.4162 44.4917 19.2505Z" fill="#11151D"/>
<path fill-rule="evenodd" clip-rule="evenodd" d="M48.4011 26.0697C48.5957 27.7371 47.9604 28.9575 46.4968 29.7297C44.5316 30.1415 43.3446 29.3558 42.9373 27.3738C42.8871 26.9741 42.8704 26.5728 42.8871 26.1701C44.6927 23.9434 46.5317 23.91 48.4011 26.0697Z" fill="#F7F6F5"/>
<path fill-rule="evenodd" clip-rule="evenodd" d="M45.0928 25.066C46.2555 25.2438 46.8239 25.9293 46.7966 27.1209C46.8422 27.9203 46.5747 28.5891 45.9941 29.1256C44.9545 29.5664 44.2356 29.2487 43.839 28.1726C43.3891 26.7607 43.8071 25.7241 45.0928 25.0645V25.066Z" fill="#121313"/>
<path fill-rule="evenodd" clip-rule="evenodd" d="M33.866 26.069C34.0986 28.8945 32.8295 30.1134 30.0558 29.7289C28.4052 29.0176 27.7031 27.7637 27.9508 25.9687C28.273 25.5294 28.6743 25.1783 29.1545 24.9154C31.0346 24.0718 32.6046 24.4549 33.866 26.069Z" fill="#F8F7F7"/>
<path fill-rule="evenodd" clip-rule="evenodd" d="M30.7576 25.0664C31.9005 25.1242 32.5525 25.7245 32.7121 26.8705C32.8778 27.9588 32.4932 28.778 31.5585 29.3267C30.3883 29.4604 29.7028 28.9437 29.5037 27.7733C29.2757 26.5589 29.6937 25.6561 30.7576 25.0664Z" fill="#131313"/>
<path fill-rule="evenodd" clip-rule="evenodd" d="M18.7278 26.6695C19.5106 26.7652 20.0957 27.165 20.4817 27.8732C21.1383 29.1576 21.456 30.5118 21.4347 31.9329C20.8009 31.9253 20.3161 31.6411 19.9817 31.0802C19.5197 30.0102 19.5364 28.9402 20.0319 27.8717C19.6398 27.396 19.1397 27.1787 18.5287 27.2197L18.3783 27.3702C18.3114 27.2364 18.3114 27.1027 18.3783 26.9689C18.5303 26.902 18.6473 26.8017 18.7294 26.668L18.7278 26.6695Z" fill="#EBA36D"/>
<path fill-rule="evenodd" clip-rule="evenodd" d="M50.4062 33.5886C50.8105 31.3346 51.078 29.0623 51.2087 26.7719C51.9595 25.369 52.5447 25.4359 52.9626 26.9725C53.2149 28.7325 52.9474 30.4029 52.1602 31.9851C51.7468 32.7162 51.1616 33.2512 50.4062 33.5886Z" fill="#ECA56F"/>
<path fill-rule="evenodd" clip-rule="evenodd" d="M40.6834 23.3628C40.7958 23.5422 40.8126 23.7428 40.7335 23.9647C40.007 25.7673 39.9067 27.6064 40.4326 29.4789C40.7654 30.2784 41.0998 31.0794 41.4357 31.8849C41.6059 33.1799 41.0557 33.9824 39.7821 34.2909C39.4234 34.2985 39.3064 34.1313 39.431 33.7893C39.7487 33.6054 40.0663 33.4215 40.384 33.2376C40.6849 33.0035 40.8855 32.7026 40.9858 32.3348C40.118 30.6842 39.6499 28.9302 39.583 27.0714C39.5693 25.7111 39.9371 24.4739 40.6864 23.3613L40.6834 23.3628Z" fill="#ECA16B"/>
<path fill-rule="evenodd" clip-rule="evenodd" d="M34.1655 36.6973C35.0819 37.0104 36.0182 37.2611 36.9726 37.4496C38.0426 37.5165 39.111 37.5165 40.181 37.4496C40.719 37.3417 41.254 37.2247 41.7845 37.0985C41.7647 37.67 41.4638 38.0211 40.8817 38.1518C38.9819 38.5531 37.1109 38.4527 35.2674 37.8509C34.7415 37.673 34.3068 37.3721 33.9648 36.948C34.053 36.8766 34.1199 36.793 34.1655 36.6973Z" fill="#C94E30"/>
<path fill-rule="evenodd" clip-rule="evenodd" d="M19.3293 33.3882C20.3704 34.1923 21.5407 34.4598 22.8387 34.1907C22.9922 34.7333 23.1761 35.2683 23.3904 35.7942C24.3768 37.9342 25.7294 39.8052 27.4499 41.4087C27.4651 42.4803 27.4316 43.5503 27.3496 44.6172C27.2812 45.3498 27.2477 46.0854 27.2493 46.8226C26.9605 46.7922 26.693 46.8256 26.4468 46.9229C25.4255 48.4458 24.1898 49.7818 22.7368 50.9324C20.6379 51.6939 18.5329 52.4447 16.4204 53.1879C14.9355 53.8126 13.4658 54.4646 12.0098 55.1425C12.0478 54.802 12.1481 54.451 12.3107 54.0892C12.4946 53.5147 12.6618 52.8961 12.8122 52.2349C12.7651 52.1362 12.6983 52.0541 12.6116 51.9842C12.7074 51.9218 12.791 51.9386 12.8624 52.0343C13.94 49.3821 15.0601 46.7755 16.2213 44.2145C16.2745 44.1445 16.3413 44.0944 16.4219 44.064C16.3064 43.9029 16.3064 43.7357 16.4219 43.5624C16.735 42.725 17.0861 41.9073 17.4751 41.1063C18.2062 38.7687 18.8582 36.4128 19.4297 34.0388C19.3901 33.9369 19.3233 33.8868 19.229 33.8883C19.2762 33.7895 19.343 33.7074 19.4297 33.6375C19.2792 33.5539 19.2458 33.4703 19.3293 33.3867V33.3882Z" fill="#0E1624"/>
<path fill-rule="evenodd" clip-rule="evenodd" d="M88.361 48.6198C87.8776 51.5395 86.1861 53.9987 83.2877 55.9943C80.0732 57.7012 76.7645 57.9018 73.3631 56.5962C69.7687 54.8195 67.7336 52.1612 67.2579 48.6198C67.1333 47.7109 67.1135 46.7442 67.1971 45.7183C68.0588 44.8535 68.7944 44.9538 69.4024 46.0193C69.413 46.9555 69.5133 47.8234 69.7048 48.6198C70.4572 51.769 72.6123 53.827 76.1703 54.7906C79.938 55.3043 82.8621 53.9835 84.9413 50.8312C85.2969 50.0774 85.5629 49.3402 85.7392 48.6198C86.5128 45.4645 85.5614 42.642 82.8865 40.154C80.1112 38.1036 77.1369 37.7708 73.965 39.1524C73.3434 39.4791 72.7749 39.8804 72.2597 40.3546C72.7111 40.6723 73.0956 41.0568 73.4133 41.5082C73.4786 41.8608 73.3616 42.145 73.0622 42.3594C71.6305 42.5205 70.1942 42.5873 68.7519 42.56C68.5346 42.4764 68.3841 42.3259 68.3005 42.1086C68.2944 40.8698 68.3613 39.6342 68.5011 38.4C68.4996 37.6644 68.8507 37.3802 69.5529 37.5474C69.91 37.8088 70.2444 38.093 70.556 38.4C72.3509 37.0336 74.3556 36.1658 76.5715 35.7934C82.1904 35.6019 86.0158 38.1082 88.0494 43.3123C88.5281 45.2244 88.6315 46.9935 88.361 48.6198Z" fill="#327CAD"/>
<path fill-rule="evenodd" clip-rule="evenodd" d="M27.4504 41.4082C28.6632 42.3323 29.9323 43.185 31.2606 43.9647C34.4644 45.6989 37.7732 45.9481 41.1852 44.717C41.1548 45.708 41.2217 46.6777 41.3858 47.6246V48.9271C39.2033 49.4925 37.0315 49.4424 34.8702 48.7767C32.0327 47.9605 29.5265 46.5728 27.3516 44.6167C27.4336 43.5497 27.4671 42.4797 27.4519 41.4082H27.4504Z" fill="#ECA56E"/>
<path fill-rule="evenodd" clip-rule="evenodd" d="M26.4473 46.9217C26.692 46.8244 26.9595 46.791 27.2497 46.8214C27.1646 47.1816 27.1312 47.5494 27.1494 47.9248C26.9154 47.5905 26.6813 47.2561 26.4473 46.9217Z" fill="#AFC6DA"/>
<path fill-rule="evenodd" clip-rule="evenodd" d="M41.3859 47.6233C41.6093 47.5944 41.8099 47.6279 41.9877 47.7236C41.8524 48.3665 41.6853 49.0019 41.4862 49.6281C41.3889 49.4168 41.3555 49.1827 41.3859 48.9259V47.6233Z" fill="#BCCDDA"/>
<path fill-rule="evenodd" clip-rule="evenodd" d="M51.4104 20.1543C51.5533 20.3564 51.6201 20.5905 51.611 20.8565C51.8557 20.8823 52.0898 20.9492 52.3132 21.0571C52.3724 21.0358 52.4226 21.0024 52.4636 20.9568C52.6871 21.127 52.9378 21.2273 53.216 21.2577C53.3436 22.3414 53.4439 23.4449 53.5169 24.5666C53.4044 24.9648 53.4379 25.3827 53.6172 25.8205C53.6248 28.532 53.6248 31.2723 53.6172 34.0416C53.6962 34.3836 53.7464 34.7347 53.7677 35.0949L53.9181 35.2453C53.8558 35.4201 53.8224 35.604 53.8178 35.7971C53.9151 36.5692 54.0321 37.3367 54.1689 38.1027C55.4273 42.8129 57.0992 47.3908 59.1814 51.838C59.2391 51.9809 59.2224 52.1147 59.1312 52.2393C57.3241 51.9931 55.5535 52.1435 53.8178 52.6907C52.9986 53.0509 52.1961 53.4339 51.4119 53.8443C49.2978 52.9613 47.1928 52.06 45.0954 51.1374C43.9115 50.1206 42.8749 48.9852 41.9873 47.7282C41.811 47.6325 41.6104 47.5991 41.3855 47.6279C41.2213 46.681 41.1545 45.7113 41.1849 44.7204C46.0013 42.4755 49.0744 38.7669 50.4073 33.5917C51.1642 33.2543 51.7478 32.7193 52.1612 31.9882C52.9485 30.406 53.216 28.7356 52.9637 26.9756C52.5442 25.439 51.9606 25.3721 51.2098 26.775C51.3238 24.5711 51.3906 22.3657 51.4104 20.1589V20.1543Z" fill="#0E1624"/>
<path fill-rule="evenodd" clip-rule="evenodd" d="M26.4463 46.9219C26.6803 47.2563 26.9144 47.5906 27.1484 47.925C27.5862 48.8339 28.1044 49.7018 28.7017 50.5316C30.9617 53.3769 33.585 55.8163 36.5715 57.8499C35.807 58.8151 35.0045 59.7513 34.1656 60.6572C33.2339 61.6071 32.3144 62.5753 31.4086 63.5647C27.6546 59.9763 24.9143 55.7327 23.1877 50.8326C23.0373 50.9891 22.8868 51.0226 22.7363 50.9329C24.1878 49.7823 25.4249 48.4463 26.4463 46.9234V46.9219Z" fill="#FCF9F5"/>
<path fill-rule="evenodd" clip-rule="evenodd" d="M41.9853 47.7227C42.8728 48.9796 43.9094 50.115 45.0933 51.1318C44.8289 55.3313 43.692 59.2754 41.6843 62.9611C40.8135 62.0234 39.9107 61.1205 38.9775 60.2542C38.1385 59.5155 37.3695 58.713 36.6719 57.8482C38.8073 55.6596 40.3955 53.1198 41.4336 50.229C41.4837 50.0314 41.5004 49.8308 41.4837 49.6271C41.6828 49.0009 41.85 48.3656 41.9853 47.7227Z" fill="#FCF9F5"/>
<path fill-rule="evenodd" clip-rule="evenodd" d="M27.35 44.6152C29.5249 46.5729 32.0311 47.959 34.8687 48.7752C37.0299 49.4409 39.2033 49.4911 41.3842 48.9257C41.3538 49.1825 41.3873 49.4166 41.4846 49.6278C41.5013 49.8315 41.4846 50.0321 41.4344 50.2297C40.3963 53.1206 38.8081 55.6603 36.6727 57.849H36.5724C33.5859 55.8153 30.9627 53.3759 28.7026 50.5307C28.1053 49.7023 27.5871 48.8329 27.1494 47.924C27.1311 47.5502 27.1646 47.1823 27.2497 46.8206C27.2481 46.0835 27.2816 45.3478 27.35 44.6152Z" fill="#F9CEA3"/>
<path fill-rule="evenodd" clip-rule="evenodd" d="M45.0937 51.1328C47.1911 52.0554 49.2961 52.9567 51.4102 53.8397C46.992 57.0832 45.5391 61.3617 47.0498 66.6722C47.9708 69.1846 49.559 71.1559 51.8115 72.5877C50.0652 72.4509 48.328 72.2335 46.5984 71.9356C44.9053 71.6864 43.3018 71.9539 41.7865 72.7381C40.94 73.2671 40.139 73.8522 39.3806 74.4921C39.3001 70.4917 38.8654 66.5324 38.0781 62.6126C38.5082 61.8709 38.8092 61.0851 38.9809 60.2567C39.9141 61.1231 40.8169 62.0259 41.6878 62.9637C43.6955 59.2764 44.8323 55.3338 45.0968 51.1343L45.0937 51.1328Z" fill="#D4DEE6"/>
<path fill-rule="evenodd" clip-rule="evenodd" d="M97.4238 61.9596C96.5925 62.3593 95.79 62.8442 95.0179 63.4126C92.9646 65.4006 90.7912 67.2397 88.5023 68.9268C88.4263 69.1001 88.3762 69.284 88.3519 69.4785C88.0524 69.0134 87.7515 68.5453 87.4491 68.0741C86.9323 67.5741 86.4475 67.074 85.9961 66.571C86.2286 66.5451 86.4292 66.612 86.5979 66.7716C89.6559 64.8322 92.5299 62.6435 95.2185 60.2041C95.679 59.891 96.1471 59.6068 96.6229 59.353C96.8493 59.28 97.0834 59.2466 97.3235 59.2527C97.0059 59.3438 96.7049 59.4943 96.4222 59.7041C94.3841 61.4079 92.3445 63.1117 90.3064 64.817C89.2182 65.5876 88.1148 66.3399 86.9977 67.0725C87.4415 67.565 87.8245 68.1 88.1512 68.676C89.0707 67.9571 89.9887 67.2397 90.9082 66.5208C92.3156 65.2137 93.7519 63.9431 95.2185 62.7104C95.6547 62.3928 96.1213 62.1253 96.6229 61.9094C96.8919 61.8654 97.1594 61.8821 97.4238 61.9596Z" fill="#EDA269"/>
<path fill-rule="evenodd" clip-rule="evenodd" d="M98.2247 60.1552C98.053 60.8057 97.7855 61.4076 97.4222 61.9608C97.1578 61.8833 96.8903 61.8666 96.6213 61.9107C96.1197 62.1265 95.6531 62.394 95.2169 62.7117C93.7503 63.9443 92.314 65.2149 90.9067 66.522C89.9871 67.241 89.0692 67.9583 88.1497 68.6773C87.8229 68.1012 87.4399 67.5662 86.9961 67.0738C88.1132 66.3412 89.2166 65.5888 90.3048 64.8182C92.3429 63.1129 94.3825 61.4091 96.4207 59.7053C96.7034 59.4956 97.0043 59.3451 97.3219 59.2539C97.8569 59.3208 98.1578 59.6202 98.2247 60.1552Z" fill="#FAD0A5"/>
<path fill-rule="evenodd" clip-rule="evenodd" d="M97.8249 62.8112C97.7505 63.1121 97.6334 63.3963 97.4738 63.6638C96.5103 64.9952 95.5072 66.2993 94.4676 67.573C92.9797 69.3619 91.3245 70.9836 89.5038 72.4367C87.2939 73.6739 85.0293 74.7925 82.7101 75.7926C81.5139 76.3109 80.3041 76.7957 79.0791 77.2486C78.6475 78.0253 78.3147 78.8445 78.076 79.7048C77.9453 79.8978 77.8116 80.0985 77.6748 80.3052C75.0895 79.4571 72.8341 78.0876 70.9084 76.1954C70.8948 75.9522 70.9449 75.7181 71.0589 75.4932C71.6319 74.5812 72.1836 73.645 72.7125 72.6859C72.8128 71.8713 72.9937 71.1083 73.252 70.397C73.939 68.5138 75.1792 66.9878 76.9726 65.819C79.4925 64.6442 81.9319 63.3401 84.2922 61.9099C84.7831 61.6211 85.3014 61.4037 85.8455 61.2578C86.2467 61.2913 86.5811 61.4585 86.8486 61.7594C86.9398 62.3294 86.8395 62.8628 86.5477 63.3629C85.5734 64.559 84.3864 65.4786 82.9882 66.12C82.8636 66.2355 82.7633 66.3692 82.6873 66.5212C83.2314 66.4179 83.7664 66.2507 84.2922 66.0197C87.5812 64.4754 90.5221 62.4373 93.1134 59.9036C93.8049 59.3139 94.574 58.8457 95.419 58.5007C96.2367 58.2348 96.6379 58.519 96.6227 59.3534C96.147 59.6072 95.6789 59.8914 95.2184 60.2045C92.5298 62.644 89.6558 64.8326 86.5978 66.772C86.4291 66.6124 86.2285 66.5455 85.996 66.5714C86.4474 67.0745 86.9322 67.5745 87.4489 68.0746C87.7514 68.5457 88.0523 69.0139 88.3517 69.4789C88.3761 69.2844 88.4262 69.1005 88.5022 68.9272C90.7911 67.2401 92.9645 65.4011 95.0178 63.413C95.7899 62.8446 96.5923 62.3598 97.4237 61.96C97.6152 62.2047 97.7489 62.4889 97.8249 62.8112Z" fill="#FACFA5"/>
<path fill-rule="evenodd" clip-rule="evenodd" d="M66.5455 68.235C65.3631 70.3461 63.4587 71.9982 60.8324 73.1883C59.6545 73.5835 58.4523 73.851 57.2228 73.9908C57.1255 73.3494 56.7577 72.9315 56.1209 72.7369C54.6922 72.4664 53.2545 72.4162 51.8091 72.5864C49.5567 71.1562 47.9684 69.1849 47.0474 66.6725C47.0124 66.5509 46.979 66.4293 46.9486 66.3093C46.9471 66.3047 46.9456 66.3002 46.9456 66.2956C46.9137 66.1755 46.8833 66.057 46.8559 65.9369C46.8544 65.9308 46.8529 65.9247 46.8513 65.9187C46.824 65.8032 46.7997 65.6892 46.7753 65.5752C46.7495 65.4536 46.7267 65.3335 46.7039 65.215C46.6659 65.0082 46.631 64.8031 46.6021 64.5994C46.33 62.6995 46.4805 60.9456 47.0535 59.3406H47.055C47.1249 59.1414 47.2024 58.9454 47.2845 58.7524C47.327 58.6551 47.3711 58.5593 47.4167 58.4621C47.7313 57.7933 48.125 57.1519 48.5961 56.5363C48.6645 56.4482 48.7344 56.36 48.8043 56.2734C48.9457 56.1001 49.0946 55.9284 49.2481 55.7597C49.4032 55.591 49.5627 55.4238 49.7299 55.2596C50.2315 54.7657 50.7908 54.293 51.4078 53.8401C52.1936 53.4312 52.9946 53.0467 53.8138 52.6865C55.5494 52.1393 57.3216 51.9903 59.1271 52.235C61.0817 52.6439 62.8188 53.4798 64.3402 54.7413C66.4042 56.6625 67.6231 59.0351 68 61.8605C68.035 64.3182 67.5516 66.443 66.5455 68.235Z" fill="#F8C431"/>
<path fill-rule="evenodd" clip-rule="evenodd" d="M56.0212 54.2398C60.447 54.0194 63.5368 55.9238 65.2938 59.9546C66.2877 63.3151 65.6692 66.3382 63.4395 69.0269C60.4713 71.7657 57.0957 72.401 53.3143 70.9313C49.7275 68.8886 48.1742 65.7971 48.653 61.6584C49.4585 57.5289 51.9145 55.056 56.0212 54.2398Z" fill="#EF9F1D"/>
<path fill-rule="evenodd" clip-rule="evenodd" d="M56.0214 54.8404C60.1447 54.5774 63.0355 56.3147 64.6936 60.0536C65.9019 64.1315 64.8152 67.4221 61.4351 69.9284C59.3195 71.1109 57.0807 71.4118 54.7189 70.8312C51.398 69.6882 49.5423 67.3658 49.1547 63.864C48.9511 60.3774 50.3053 57.6871 53.2142 55.7934C54.1246 55.3617 55.0593 55.044 56.0214 54.8404Z" fill="#F9C531"/>
<path fill-rule="evenodd" clip-rule="evenodd" d="M56.8231 56.7474C57.203 56.679 57.5207 56.7793 57.776 57.0483C57.9007 57.4055 57.9508 57.7733 57.9265 58.1517C58.5876 58.1502 59.1895 58.3341 59.7306 58.7035C60.0619 59.0834 60.112 59.5014 59.881 59.9574C59.7366 60.079 59.5695 60.1458 59.3795 60.158C58.9722 59.9635 58.5542 59.7796 58.1256 59.6063C57.4417 59.4665 56.8064 59.5652 56.2212 59.9072C55.6938 60.7371 55.861 61.3724 56.7228 61.8117C57.6544 62.07 58.5572 62.4044 59.4296 62.8148C60.802 64.0383 60.9859 65.426 59.9813 66.9747C59.3719 67.6222 58.6211 67.9551 57.7259 67.9779C57.7426 68.3806 57.7259 68.7819 57.6757 69.1816C57.3231 69.5403 56.9386 69.5738 56.5222 69.2819C56.3656 68.8624 56.2987 68.4278 56.3215 67.9794C55.4932 67.9201 54.7409 67.6526 54.0661 67.1769C53.6071 66.4093 53.791 65.8743 54.6178 65.5734C54.899 65.7315 55.1665 65.9154 55.4203 66.1251C56.3565 66.5932 57.2927 66.5932 58.2274 66.1251C58.9342 65.0961 58.7001 64.3605 57.5253 63.9197C56.3793 63.7389 55.3929 63.2556 54.5676 62.4667C53.7044 60.9939 53.9202 59.7081 55.2197 58.6077C55.5905 58.3721 55.9917 58.2217 56.4234 58.1563C56.4066 57.8204 56.4234 57.486 56.4735 57.1532C56.5434 56.9677 56.6589 56.834 56.8246 56.7519L56.8231 56.7474Z" fill="#FDF5ED"/>
<path fill-rule="evenodd" clip-rule="evenodd" d="M36.5715 57.8496H36.6718C37.3694 58.7144 38.1385 59.5169 38.9774 60.2556C38.8057 61.084 38.5047 61.8697 38.0746 62.6114C38.8619 66.5313 39.2966 70.4921 39.3771 74.491C38.0913 75.485 36.7888 76.4531 35.4681 77.3985C35.3815 77.28 35.2812 77.1629 35.1672 77.0474C35.0729 76.9775 35.0061 76.9942 34.9665 77.0976C34.8723 76.9912 34.8389 76.8574 34.8662 76.6963C34.813 71.977 34.9301 67.2654 35.2173 62.5613C34.7082 62.0096 34.3571 61.3758 34.1641 60.6569C35.003 59.751 35.8055 58.8147 36.57 57.8496H36.5715Z" fill="#583B79"/>
<path fill-rule="evenodd" clip-rule="evenodd" d="M81.485 69.4791C82.824 69.4153 84.1265 69.5992 85.3941 70.0309L85.5947 70.2315C84.891 70.1844 84.1888 70.0841 83.4897 69.9305C81.1978 69.7147 79.076 70.198 77.123 71.3836C77.1428 71.1586 77.2598 70.9747 77.4741 70.8318C78.728 70.1068 80.0655 69.657 81.4835 69.4791H81.485Z" fill="#EDA168"/>
<path fill-rule="evenodd" clip-rule="evenodd" d="M60.8337 73.1875C61.0541 73.838 61.1878 74.5053 61.2349 75.1922C59.5631 75.7105 57.8593 76.0951 56.1222 76.3458C55.2422 76.437 54.3728 76.3869 53.5156 76.1954C54.2391 76.0935 54.9732 75.978 55.7209 75.8443C56.6495 75.5677 57.1511 74.9491 57.224 73.99C58.4536 73.8502 59.6558 73.5827 60.8337 73.1875Z" fill="#C1D3E1"/>
<path fill-rule="evenodd" clip-rule="evenodd" d="M66.0458 74.5915C65.2859 74.5444 64.5169 74.628 63.7402 74.8423C61.4285 75.7786 59.0561 76.5142 56.6228 77.0477C55.6866 77.1145 54.7519 77.1145 53.8156 77.0477C52.7122 76.7407 51.5921 76.5233 50.4568 76.3956C49.7105 76.42 48.9764 76.5203 48.2515 76.6966C48.1344 76.6631 48.0174 76.6297 47.9004 76.5963C47.9217 76.537 47.9551 76.4868 48.0007 76.4458C48.3244 76.3151 48.6588 76.2148 49.0038 76.1449C50.51 76.0673 52.0131 76.0841 53.5147 76.195C54.3719 76.3865 55.2412 76.4367 56.1212 76.3455C57.8584 76.0947 59.5622 75.7102 61.234 75.1919C62.3572 74.7906 63.5092 74.4897 64.6932 74.2891C65.1582 74.3453 65.6096 74.4456 66.0458 74.59V74.5915Z" fill="#EDA46C"/>
<path fill-rule="evenodd" clip-rule="evenodd" d="M69.8542 74.9941C70.2843 75.1097 70.6855 75.2768 71.0579 75.4957C70.9439 75.7206 70.8937 75.9547 70.9074 76.1979C72.8346 78.0902 75.09 79.4596 77.6738 80.3077C77.8106 80.101 77.9428 79.9004 78.075 79.7058C78.5218 79.9657 78.7225 80.3335 78.6769 80.8093C77.9777 80.8685 77.309 80.7515 76.6722 80.4582C74.1432 79.4201 71.9546 77.8987 70.1064 75.897C69.9149 75.6264 69.8314 75.3255 69.8557 74.9941H69.8542Z" fill="#A7BFD2"/>
<path fill-rule="evenodd" clip-rule="evenodd" d="M51.8101 72.5879C53.2555 72.4162 54.6933 72.4663 56.1204 72.7384C56.7572 72.9314 57.125 73.3494 57.2238 73.9923C57.1509 74.9514 56.6493 75.5699 55.7207 75.8466C54.9729 75.9788 54.2389 76.0958 53.5154 76.1977C52.0138 76.0867 50.5107 76.07 49.0045 76.1475C48.6595 76.2174 48.3251 76.3177 48.0014 76.4484C47.9558 76.4895 47.9224 76.5396 47.9011 76.5989C48.0181 76.6324 48.1352 76.6658 48.2522 76.6992C48.9771 76.5229 49.7128 76.4226 50.4575 76.3983C51.5928 76.5244 52.7114 76.7418 53.8163 77.0503C54.7526 77.1172 55.6873 77.1172 56.6235 77.0503C59.0583 76.5168 61.4308 75.7812 63.7409 74.845C64.5176 74.6307 65.2866 74.5471 66.0465 74.5942C66.5466 75 66.6636 75.5 66.3976 76.0974C65.396 76.874 64.3094 77.5093 63.1391 78.0018C63.133 77.9471 63.0996 77.9136 63.0388 77.9015C59.9489 78.9928 56.8074 79.9123 53.6157 80.6586C52.8254 81.0203 52.8923 81.154 53.8163 81.0598C55.397 80.7543 56.9685 80.4032 58.5279 80.0065C57.9686 80.2604 57.4017 80.4944 56.8241 80.7087H56.6235C55.4395 81.0644 54.2373 81.3486 53.0139 81.5614C50.0395 81.5127 47.0652 81.4459 44.0908 81.3608C42.7731 81.8958 41.6044 82.6466 40.5815 83.6163C40.3657 83.7409 40.1651 83.8914 39.9797 84.0677C39.8961 84.1361 39.8292 84.1194 39.779 84.0175C38.4097 82.0128 37.0889 79.9746 35.8198 77.9015C35.715 77.7799 35.5979 77.6796 35.4688 77.6005V77.3999C36.7895 76.4545 38.0935 75.4864 39.3778 74.4923C40.1362 73.8525 40.9372 73.2673 41.7837 72.7384C43.299 71.9541 44.9024 71.6866 46.5955 71.9359C48.3251 72.2338 50.0623 72.4496 51.8086 72.5879H51.8101Z" fill="#FACFA4"/>
<path fill-rule="evenodd" clip-rule="evenodd" d="M34.8679 76.6978C34.8405 76.8573 34.8739 76.9911 34.9682 77.099C35.0274 77.1644 35.0943 77.2312 35.1688 77.2996C33.6474 78.245 32.0774 79.1129 30.4573 79.9062C30.4238 79.9731 30.3904 80.04 30.3569 80.1069C31.7051 83.2576 33.5441 86.0801 35.871 88.5788C35.8041 88.6456 35.7372 88.6456 35.6703 88.5788C34.7174 87.793 33.8648 86.9069 33.114 85.922C31.892 84.1969 30.7886 82.3928 29.8052 80.5081C29.749 80.4565 29.6821 80.423 29.6046 80.4078C25.0132 82.6785 20.4855 85.0678 16.0202 87.5756C14.7086 88.4207 13.4563 89.3387 12.2601 90.3327C12.2054 90.0394 12.2723 89.7734 12.4608 89.5302C13.5824 88.2094 14.9351 87.1896 16.5203 86.4722C16.1053 86.3126 15.6707 86.2792 15.2178 86.3719C14.0277 86.6029 12.8909 86.9874 11.8087 87.5255C11.6583 87.53 11.558 87.4632 11.5078 87.3249C11.8346 86.7762 12.3027 86.3916 12.9106 86.1713C13.4395 85.9843 13.9745 85.8171 14.5141 85.6697C15.619 85.6211 16.7224 85.6211 17.8228 85.6697C18.0568 85.5527 18.2909 85.4356 18.5249 85.3186C18.5173 79.5886 17.8319 73.9407 16.4701 68.3763C15.7375 65.7423 14.6022 63.3029 13.0611 61.058C12.6948 60.5914 12.2936 60.1567 11.8574 59.7555C11.7388 59.6004 11.7054 59.4333 11.7571 59.2539C12.9304 60.0929 13.8985 61.1295 14.6645 62.3621C16.5795 65.9414 17.7817 69.7503 18.2742 73.7917C18.721 77.4957 19.1222 81.2058 19.4779 84.9204C23.6681 82.7378 27.8614 80.5492 32.0592 78.3544C32.9574 77.9608 33.8602 77.5763 34.766 77.2008C34.7371 77.0093 34.7706 76.8421 34.8663 76.6993L34.8679 76.6978Z" fill="#ADC4D7"/>
<path fill-rule="evenodd" clip-rule="evenodd" d="M63.1382 77.9987C62.6838 78.2085 62.2506 78.4426 61.8357 78.7009C60.7232 79.1159 59.6213 79.5506 58.527 80.0035C56.9676 80.3987 55.3961 80.7498 53.8155 81.0568C52.8914 81.151 52.8245 81.0173 53.6149 80.6555C56.8081 79.9093 59.9496 78.9897 63.0379 77.8984C63.0987 77.9106 63.1321 77.944 63.1382 77.9987Z" fill="#EDA36B"/>
<path fill-rule="evenodd" clip-rule="evenodd" d="M35.4703 77.5996C35.5995 77.6786 35.7165 77.779 35.8214 77.9005C37.0919 79.9737 38.4112 82.0119 39.7806 84.0166C39.8307 84.1184 39.8976 84.1352 39.9812 84.0668C40.1666 83.8905 40.3672 83.74 40.583 83.6154C40.7472 84.0592 40.7973 84.5273 40.7335 85.0182C40.6925 85.0638 40.6423 85.0973 40.583 85.1185C40.121 84.807 39.703 84.4391 39.3292 84.0151C38.3929 82.6122 37.4582 81.2078 36.522 79.805C36.0873 79.1043 35.7378 78.3687 35.4688 77.5996H35.4703Z" fill="#A6BDD0"/>
<path fill-rule="evenodd" clip-rule="evenodd" d="M56.6207 80.7071C56.5234 80.7892 56.4398 80.8895 56.3699 81.008C55.8881 84.6528 55.3866 88.2959 54.8668 91.9361C54.8167 92.7036 54.7999 93.4727 54.8167 94.2418C54.7483 95.8346 54.7103 97.4351 54.7057 99.0447C50.4 99.5994 45.81 99.9277 41.0377 99.99C40.8523 95.1963 40.5818 90.4056 40.2307 85.6194C38.34 87.3004 36.4691 89.0057 34.6164 90.7323C34.5662 91.2673 34.5495 91.8008 34.5662 92.3374C34.4826 91.854 34.4325 91.3525 34.4157 90.8327C31.2651 93.9621 27.8348 96.7025 24.1218 99.0538C18.082 98.2786 12.5983 97.0566 7.95826 95.4927C7.58589 94.5002 7.28192 93.4818 7.04787 92.4377C5.5113 85.2486 4.74682 78.0017 4.75594 70.6986C4.75594 69.8246 4.76962 68.9507 4.79242 68.0753C4.91856 65.8501 5.36996 63.6782 6.14508 61.5595C7.38679 58.7628 9.34132 56.6244 12.0102 55.1425C13.4662 54.4646 14.9359 53.8125 16.4208 53.1879C18.5318 52.4446 20.6368 51.6938 22.7372 50.9323C22.8862 51.022 23.0367 50.9886 23.1871 50.832C24.9137 55.7322 27.6539 59.9757 31.408 63.5642C32.3138 62.5747 33.2333 61.6066 34.165 60.6566C34.358 61.3755 34.7091 62.0109 35.2182 62.5611C35.1893 63.0292 35.162 63.4973 35.1377 63.967C35.1179 64.3363 35.0997 64.7056 35.083 65.075C35.0662 65.3987 35.051 65.7225 35.0389 66.0462C35.0222 66.414 35.007 66.7818 34.9933 67.1496C34.9826 67.4521 34.972 67.7546 34.9629 68.057C34.9553 68.2379 34.9492 68.4187 34.9447 68.5996C34.9401 68.7075 34.9371 68.8139 34.9355 68.9203C34.9249 69.2836 34.9143 69.6468 34.9067 70.0101C34.896 70.4569 34.8869 70.9038 34.8808 71.3491C34.8778 71.4464 34.8763 71.5421 34.8763 71.6379C34.8687 72.0908 34.8641 72.5422 34.8611 72.9936C34.8565 73.4891 34.855 73.9846 34.855 74.4801C34.855 75.2203 34.858 75.959 34.8671 76.6976C34.7714 76.839 34.738 77.0062 34.7668 77.1992C33.861 77.5731 32.9582 77.9576 32.06 78.3513C27.8622 80.5475 23.6689 82.7362 19.4787 84.9187C19.123 81.2041 18.7218 77.494 18.275 73.7901C18.2187 73.3295 18.1534 72.8736 18.0789 72.4191C18.0637 72.3203 18.047 72.223 18.0288 72.1243C18.0044 71.9738 17.9771 71.8233 17.9482 71.6744C17.9224 71.5345 17.895 71.3947 17.8677 71.2564C17.8403 71.1166 17.8114 70.9782 17.781 70.8399C17.7521 70.7047 17.7218 70.5694 17.6914 70.4356C17.6655 70.3232 17.6397 70.2107 17.6138 70.0998C17.5819 69.9675 17.55 69.8353 17.5166 69.7046C17.4862 69.583 17.4543 69.4614 17.4223 69.3413C17.3904 69.2197 17.3585 69.0997 17.3236 68.9796C17.2947 68.8732 17.2643 68.7668 17.2339 68.6604C17.1913 68.5115 17.1472 68.3625 17.1017 68.2151C17.0697 68.1102 17.0378 68.0053 17.0044 67.902C16.9299 67.6634 16.8509 67.4263 16.7703 67.1907C16.7673 67.1831 16.7658 67.1755 16.7627 67.1679C16.7247 67.0569 16.6867 66.9475 16.6472 66.8365C16.6062 66.7195 16.5636 66.6025 16.5196 66.4839C16.4892 66.4018 16.4588 66.3183 16.4268 66.2362C16.398 66.1571 16.3676 66.0766 16.3357 65.9976C15.9739 65.0583 15.5666 64.1342 15.1122 63.2237C15.0666 63.131 15.0195 63.0398 14.9724 62.9471C14.8736 62.7511 14.7717 62.555 14.6669 62.3604C13.9009 61.1278 12.9312 60.0928 11.7594 59.2538C11.7077 59.4331 11.7396 59.6003 11.8597 59.7538C12.2944 60.1566 12.6956 60.5913 13.0619 61.0579C13.1577 61.1977 13.2534 61.3391 13.3461 61.4819C13.4191 61.5914 13.489 61.7008 13.5589 61.8118C13.6014 61.8771 13.6425 61.944 13.682 62.0093C13.7474 62.1142 13.8127 62.2191 13.875 62.324C13.8841 62.3392 13.8933 62.3544 13.9024 62.3696C13.9647 62.4744 14.027 62.5778 14.0863 62.6842C14.2276 62.9243 14.3614 63.1675 14.4906 63.4137C14.5392 63.5019 14.5863 63.5916 14.6319 63.6812C14.6988 63.8089 14.7641 63.9381 14.828 64.0688C14.8918 64.1995 14.9556 64.3287 15.0164 64.4609C15.0787 64.5916 15.1395 64.7224 15.1988 64.8561C15.2444 64.9549 15.2885 65.0552 15.331 65.1555C15.3614 65.2224 15.3903 65.2893 15.4177 65.3562C15.4572 65.4504 15.4967 65.5446 15.5362 65.6404C15.5423 65.6541 15.5469 65.6662 15.5514 65.6799C15.6031 65.806 15.6548 65.9337 15.7034 66.0614C15.8083 66.3319 15.9086 66.6055 16.0043 66.8821C16.0514 67.0189 16.0986 67.1572 16.1442 67.2971C16.1639 67.3563 16.1821 67.4156 16.2019 67.4749C16.2293 67.5615 16.2566 67.6497 16.284 67.7378C16.2931 67.7698 16.3037 67.8017 16.3129 67.8336C16.3326 67.8959 16.3509 67.9582 16.3691 68.0205C16.404 68.1391 16.4375 68.2576 16.4709 68.3762C17.8327 73.942 18.5182 79.59 18.5258 85.32C18.2917 85.4355 18.0576 85.5525 17.8236 85.6696C16.7232 85.6209 15.6213 85.6209 14.5164 85.6696C13.9753 85.817 13.4403 85.9842 12.9114 86.1711C12.3035 86.3915 11.8354 86.776 11.5086 87.3247C11.5588 87.463 11.6591 87.5299 11.8095 87.5254C12.8917 86.9873 14.027 86.6028 15.217 86.3718C15.6715 86.279 16.1046 86.3125 16.5211 86.4721C14.9359 87.1895 13.5817 88.2093 12.4616 89.5301C12.2716 89.7718 12.2047 90.0393 12.2609 90.3326C13.4555 89.3386 14.7079 88.4191 16.0195 87.5755C20.4848 85.0662 25.0125 82.6769 29.6039 80.4062C29.6814 80.4214 29.7483 80.4548 29.8045 80.5065C30.7879 82.3911 31.8898 84.1953 33.1117 85.9203C33.864 86.9052 34.7152 87.7913 35.6681 88.5771C35.735 88.644 35.8018 88.644 35.8687 88.5771C33.5418 86.0799 31.7043 83.256 30.3562 80.1067C30.3897 80.0399 30.4231 79.973 30.4565 79.9061C32.0752 79.1127 33.6467 78.2434 35.1681 77.2995C35.0936 77.2311 35.0267 77.1642 34.9674 77.0989C35.007 76.9955 35.0738 76.9788 35.1681 77.0487C35.2821 77.1627 35.3824 77.2797 35.469 77.3998V77.6004C35.7365 78.3695 36.0876 79.1051 36.5207 79.8058C37.457 81.2087 38.3917 82.6131 39.3279 84.0159C39.7018 84.44 40.1182 84.8078 40.5818 85.1194C40.6395 85.0981 40.6897 85.0646 40.7322 85.0191C40.7945 84.5266 40.7444 84.0585 40.5818 83.6147C41.6031 82.645 42.7719 81.8941 44.0896 81.3591C47.0639 81.4443 50.0382 81.5111 53.0126 81.5598C54.2345 81.347 55.4383 81.0628 56.6207 80.7071Z" fill="#D3DEE6"/>
<path fill-rule="evenodd" clip-rule="evenodd" d="M78.6777 80.8077C76.8402 85.1501 74.6851 89.3268 72.2108 93.3393C71.7442 94.1144 71.232 94.8455 70.6742 95.5355C66.8062 96.829 62.3591 97.8868 57.4956 98.6468C56.3086 97.6254 55.4484 96.2575 54.918 94.543C55.0973 94.1403 55.2143 93.7056 55.2691 93.239C55.8694 89.231 56.4545 85.22 57.023 81.209C57.0169 80.9947 56.95 80.8275 56.8223 80.7074C57.3999 80.4931 57.9683 80.2591 58.5276 80.0068C59.6204 79.5523 60.7238 79.1176 61.8348 78.7027C62.1844 80.1283 62.502 81.5646 62.7877 83.0131C62.8105 83.1757 62.8941 83.2761 63.0385 83.3141C62.0916 83.9737 61.1554 84.6576 60.2314 85.3689C59.4775 85.9982 58.9091 86.749 58.5276 87.626C58.7556 87.6138 58.9562 87.5318 59.1279 87.3752C59.555 87.0028 59.973 86.6183 60.3818 86.2216C60.2101 86.6654 59.9426 87.0667 59.5793 87.4254C58.9851 88.2628 58.5671 89.1824 58.327 90.1825C58.2951 90.5913 58.4121 90.6749 58.6781 90.4332C59.21 89.2994 59.8453 88.2309 60.5824 87.2247C62.2528 85.22 63.9231 83.2137 65.5949 81.209C66.0782 80.6086 66.4293 79.9399 66.6466 79.2042C67.6786 77.771 68.7486 76.3681 69.855 74.9941C69.8307 75.324 69.9143 75.6249 70.1058 75.8954C71.9539 77.8987 74.1425 79.4186 76.6715 80.4566C77.3099 80.75 77.9771 80.867 78.6777 80.8077Z" fill="#D3DEE6"/>
<path fill-rule="evenodd" clip-rule="evenodd" d="M66.6481 79.2031C66.4308 79.9388 66.0797 80.6075 65.5949 81.2079C63.9246 83.2126 62.2527 85.2174 60.5824 87.2236C59.8453 88.2298 59.21 89.2998 58.6781 90.4321C58.4136 90.6738 58.2966 90.5902 58.327 90.1813C58.5671 89.1812 58.9851 88.2632 59.5808 87.4242C59.9441 87.0656 60.2116 86.6643 60.3833 86.2205C59.9745 86.6172 59.558 87.0002 59.1294 87.3741C58.9577 87.5306 58.7571 87.6142 58.5276 87.6249C58.9091 86.7494 59.4775 85.9971 60.2313 85.3693C61.1554 84.658 62.0916 83.9726 63.0385 83.3144C64.2437 81.942 65.4474 80.571 66.6481 79.2046V79.2031Z" fill="#ACC4D6"/>
<path fill-rule="evenodd" clip-rule="evenodd" d="M69.1543 81.8105C70.3854 82.6267 71.621 83.446 72.8642 84.2667C73.5755 84.6269 74.3096 84.9263 75.0695 85.1695C75.0087 85.2561 74.9252 85.3063 74.8188 85.32C72.887 84.7804 71.1666 83.8609 69.6558 82.5629C69.4248 82.3501 69.2576 82.0993 69.1543 81.8105Z" fill="#AAC2D5"/>
<path fill-rule="evenodd" clip-rule="evenodd" d="M56.6228 80.7066H56.8234C56.9511 80.8267 57.018 80.9939 57.0241 81.2082C56.4556 85.2192 55.8705 89.2302 55.2702 93.2381C55.217 93.7048 55.0999 94.1379 54.9191 94.5407C54.8583 94.451 54.8248 94.3507 54.8188 94.2398C54.8021 93.4707 54.8188 92.7016 54.8689 91.9341C55.3887 88.2939 55.8903 84.6507 56.3721 81.006C56.442 80.8859 56.5256 80.7856 56.6228 80.7051V80.7066Z" fill="#ADC4D7"/>
<path fill-rule="evenodd" clip-rule="evenodd" d="M41.038 99.9898C40.4878 99.9974 39.9346 100 39.3799 100C37.6898 100 36.0195 99.967 34.375 99.9016C34.4008 97.4409 34.4632 94.9878 34.5665 92.5377V92.3371C34.5498 91.8006 34.5665 91.2671 34.6167 90.7321C36.4693 89.0055 38.3403 87.3001 40.231 85.6191C40.5821 90.4053 40.8526 95.196 41.038 99.9898Z" fill="#422964"/>
<path fill-rule="evenodd" clip-rule="evenodd" d="M34.5666 92.5371C34.4632 94.9872 34.4009 97.4403 34.3751 99.901C31.2989 99.7794 28.3109 99.5469 25.4414 99.214C28.2577 97.4479 30.9326 95.472 33.4632 93.2879C33.8021 92.987 34.1699 92.7362 34.5666 92.5371Z" fill="#D3DDE6"/>
<path fill-rule="evenodd" clip-rule="evenodd" d="M34.5674 92.3367V92.5374C34.1708 92.7365 33.803 92.9872 33.464 93.2882C30.9335 95.4723 28.2586 97.4481 25.4423 99.2143C25 99.1626 24.5592 99.1094 24.123 99.0532C27.836 96.7019 31.2663 93.9615 34.417 90.832C34.4337 91.3518 34.4838 91.8534 34.5674 92.3367Z" fill="#AEC5D7"/>
</g>
<defs>
<clipPath id="clip0_1877_12075">
<rect width="100" height="100" fill="white"/>
</clipPath>
</defs>
</svg>
