<svg width="24" height="24" viewBox="0 0 24 24" fill="none" xmlns="http://www.w3.org/2000/svg">
<path fill-rule="evenodd" clip-rule="evenodd" d="M5.172 3.172C4 4.343 4 6.229 4 10V10.75H20V10C20 6.229 20 4.343 18.828 3.172C17.656 2.001 15.771 2 12 2C8.229 2 6.343 2 5.172 3.172ZM17 6.25C17.1989 6.25 17.3897 6.32902 17.5303 6.46967C17.671 6.61032 17.75 6.80109 17.75 7V9C17.75 9.19891 17.671 9.38968 17.5303 9.53033C17.3897 9.67098 17.1989 9.75 17 9.75C16.8011 9.75 16.6103 9.67098 16.4697 9.53033C16.329 9.38968 16.25 9.19891 16.25 9V7C16.25 6.80109 16.329 6.61032 16.4697 6.46967C16.6103 6.32902 16.8011 6.25 17 6.25ZM4 12.25V13C4 16.771 4 18.657 5.172 19.828C5.47877 20.133 5.84597 20.3704 6.25 20.525V22C6.25 22.414 6.586 22.75 7 22.75H8C8.19891 22.75 8.38968 22.671 8.53033 22.5303C8.67098 22.3897 8.75 22.1989 8.75 22V20.953C9.645 21 10.712 21 12 21C13.288 21 14.355 21 15.25 20.953V22C15.25 22.414 15.586 22.75 16 22.75H17C17.1989 22.75 17.3897 22.671 17.5303 22.5303C17.671 22.3897 17.75 22.1989 17.75 22V20.525C18.154 20.3704 18.5212 20.133 18.828 19.828C20 18.657 20 16.771 20 13V12.25H4ZM17 13.25C17.1989 13.25 17.3897 13.329 17.5303 13.4697C17.671 13.6103 17.75 13.8011 17.75 14V16C17.75 16.1989 17.671 16.3897 17.5303 16.5303C17.3897 16.671 17.1989 16.75 17 16.75C16.8011 16.75 16.6103 16.671 16.4697 16.5303C16.329 16.3897 16.25 16.1989 16.25 16V14C16.25 13.8011 16.329 13.6103 16.4697 13.4697C16.6103 13.329 16.8011 13.25 17 13.25Z" fill="white"/>
</svg>
