<svg width="24" height="24" viewBox="0 0 24 24" fill="none" xmlns="http://www.w3.org/2000/svg">
<path d="M6 15.0008C5.16667 15.0008 4.45833 14.7091 3.875 14.1258C3.29167 13.5424 3 12.8341 3 12.0008V8.00078H16.025C16.1083 7.45078 16.3333 6.95911 16.7 6.52578C17.0667 6.09245 17.5167 5.78411 18.05 5.60078L22.675 4.05078L23.3 5.95078L18.675 7.50078C18.475 7.56745 18.3123 7.68845 18.187 7.86378C18.0617 8.03911 17.9993 8.23478 18 8.45078V12.0008C18 12.8341 17.7083 13.5424 17.125 14.1258C16.5417 14.7091 15.8333 15.0008 15 15.0008H6ZM9 21.0008V18.0008H2V16.0008H9C9.55 16.0008 10.021 16.1968 10.413 16.5888C10.805 16.9808 11.0007 17.4514 11 18.0008V21.0008H9ZM13 21.0008V18.0008C13 17.4508 13.196 16.9801 13.588 16.5888C13.98 16.1974 14.4507 16.0014 15 16.0008H22V18.0008H15V21.0008H13Z" fill="white"/>
</svg>
