<svg width="24" height="24" viewBox="0 0 24 24" fill="none" xmlns="http://www.w3.org/2000/svg">
<path d="M12.9644 3.46875V12H14.8931V3.90762C15.8534 4.47363 16.5003 5.53594 16.5003 6.75V12H18.429V6.75C18.429 3.8502 16.1266 1.5 13.2858 1.5H10.7142C7.87338 1.5 5.57099 3.8502 5.57099 6.75V12H7.49969V6.75C7.49969 5.53594 8.14661 4.47363 9.10695 3.90762V12H11.0356V3.46875H12.9644ZM4.92809 13.3125C4.44189 13.3125 3.99588 13.5914 3.7789 14.0385L3.136 15.351C2.93509 15.757 2.9592 16.241 3.19225 16.6266C3.42531 17.0121 3.83917 17.25 4.28519 17.25V21.1875C4.28519 21.9135 4.85978 22.5 5.57099 22.5C6.2822 22.5 6.85679 21.9135 6.85679 21.1875V17.25H17.1432V21.1875C17.1432 21.9135 17.7178 22.5 18.429 22.5C19.1402 22.5 19.7148 21.9135 19.7148 21.1875V17.25C20.1608 17.25 20.5747 17.0162 20.8077 16.6266C21.0408 16.2369 21.0649 15.757 20.864 15.351L20.2211 14.0385C20.0041 13.5914 19.5581 13.3125 19.0719 13.3125H4.92809Z" fill="white"/>
</svg>
