<svg width="100" height="100" viewBox="0 0 100 100" fill="none" xmlns="http://www.w3.org/2000/svg">
<path d="M64.6861 55.2074C64.5277 55.7409 64.4006 56.3153 64.2011 56.841C64.16 56.9484 63.9644 56.8859 63.9586 56.9015C63.3053 56.1317 63.1078 55.2895 62.8691 54.3613C63.6026 54.3926 64.115 54.8362 64.6861 55.2074Z" fill="#BFD1DF"/>
<path d="M42.0351 58.8359C42.5671 59.3948 42.5613 60.3229 42.7627 61.0147C42.6121 62.8553 43.2869 65.1122 43.8521 66.8826C44.2061 67.9885 47.9673 76.7367 48.5149 76.7445L52.6927 72.7505V99.9758C44.7714 99.7374 37.5425 98.0022 30.4075 94.6511C29.4471 88.7539 30.4896 82.6749 28.8936 76.8637L27.6829 91.6263L20.9606 76.682L22.6564 90.1744C16.558 85.9967 11.2654 80.7404 7.27539 74.5052C7.47293 70.1809 8.03818 65.8958 8.60734 61.6185C11.6605 61.7259 16.0533 61.8881 19.0224 61.6185L20.4756 73.2956C21.1366 72.3968 21.2481 71.027 21.6862 70.0285C22.183 68.8991 22.9537 67.9143 23.5033 66.822C24.931 65.5148 26.5368 64.612 28.2873 63.7972C32.0152 62.0601 39.0837 60.5809 42.0332 58.8359H42.0351Z" fill="#DCE6EE"/>
<path d="M91.572 76.2599C91.9455 77.7078 92.2702 79.3785 92.5401 80.8577C89.1623 84.0681 86.4515 87.7397 82.5476 90.4167C81.9902 90.3385 81.5853 80.1679 81.6401 79.2241C81.7105 78.0263 82.2914 76.3244 82.307 75.2907C82.309 75.1402 82.4811 74.9409 82.1251 75.109C79.9521 81.2446 80.4861 87.5345 80.0656 93.9242C73.0949 97.4727 66.2298 99.368 58.3867 99.8526V72.5062C59.0224 72.6899 62.7327 76.807 63.2314 76.3185C63.7556 75.8046 66.6268 68.2895 66.9867 67.1229C67.4639 65.5753 67.8688 63.8695 68.1974 62.2828C68.213 62.2027 68.4125 61.4055 68.0761 61.4954C68.301 60.6141 68.6824 59.7719 68.6824 58.834C73.0303 60.3347 77.5777 61.5403 81.8239 63.3106C88.6734 66.1694 89.7745 69.2723 91.5739 76.2579L91.572 76.2599Z" fill="#DCE6EE"/>
<path d="M55.9616 68.0332C57.0217 69.4186 57.7376 70.8939 58.383 72.5098V99.8563C56.4584 99.9755 54.6179 100.036 52.6914 99.9774V72.7521C52.8557 71.5231 54.2796 68.9672 55.1128 68.0332C55.234 67.8984 55.3494 67.6756 55.4766 67.5486C55.4961 67.5291 55.5763 67.5681 55.5978 67.5486C55.6174 67.787 55.8814 67.9277 55.9616 68.0332Z" fill="#511B72"/>
<path d="M10.0598 56.0543C12.3071 56.0211 14.5974 55.9918 16.8427 56.0543C17.2652 56.066 19.2465 55.9253 19.3854 56.236L19.9917 61.4396C19.8763 61.7287 19.27 61.5978 19.0235 61.6213C16.0545 61.8909 11.6616 61.7287 8.60853 61.6213C8.21931 61.6076 6.5666 61.7502 6.42773 61.4396V56.1149C7.63451 55.9918 8.85301 56.0719 10.0617 56.0543H10.0598Z" fill="#511B72"/>
<path d="M30.4078 94.6547C27.564 93.3181 25.2423 91.9503 22.6567 90.178L20.9609 76.6855L27.6833 91.6299L28.8939 76.8673C30.4899 82.6766 29.4475 88.7575 30.4078 94.6547Z" fill="#BFD1DF"/>
<path d="M92.539 80.8596C92.7698 82.1199 92.9752 83.3978 93.1453 84.6718C89.2727 88.3903 84.8426 91.4972 80.0645 93.928C80.485 87.5384 79.951 81.2484 82.124 75.1128C82.48 74.9448 82.3078 75.1441 82.3059 75.2945C82.2922 76.3262 81.7093 78.0282 81.6389 79.2279C81.5842 80.1717 81.989 90.3424 82.5465 90.4205C86.4484 87.7435 89.1593 84.0719 92.539 80.8615V80.8596Z" fill="#BFD1DF"/>
<path d="M68.6746 58.8376C68.6746 59.7755 68.2952 60.6177 68.0683 61.499C67.0004 65.6708 65.1501 69.6257 63.0417 73.3579L55.9556 68.0332C55.8754 67.9277 55.6114 67.787 55.5918 67.5486C58.9696 64.2189 61.3166 62.6635 63.5854 58.1107C63.7341 57.8137 63.9414 57.503 64.0705 57.204C64.1311 57.0614 63.914 56.9891 63.9492 56.9012C63.9551 56.8855 64.1507 56.9481 64.1918 56.8406C64.3913 56.315 64.5184 55.7405 64.6768 55.207C65.1736 55.5314 68.7294 58.1615 68.7939 58.4136C68.7822 58.5933 68.6727 58.6187 68.6727 58.8376H68.6746Z" fill="white"/>
<path d="M45.9058 55.4492C46.207 55.8088 46.52 56.2582 46.7527 56.6588C49.0998 60.6899 51.7226 64.6839 55.474 67.5485C55.3468 67.6755 55.2314 67.8963 55.1102 68.0331L48.024 73.1155C45.9821 69.2836 43.9676 65.2037 42.7549 61.0162C42.5554 60.3264 42.5613 59.3963 42.0273 58.8375C42.7569 58.4056 44.9083 56.2171 45.9039 55.4492H45.9058Z" fill="white"/>
<path d="M55.1129 68.0325C54.2778 68.9665 52.8539 71.5224 52.6916 72.7514L48.5138 76.7454C47.9662 76.7376 44.205 67.9895 43.851 66.8835C43.2858 65.1112 42.611 62.8563 42.7616 61.0156C43.9743 65.2031 45.9888 69.2831 48.0307 73.1149L55.1169 68.0325H55.1129Z" fill="#BFD1DF"/>
<path d="M58.3882 72.5121C57.7427 70.8961 57.0249 69.4208 55.9668 68.0354L63.0529 73.3601C65.1613 69.6299 67.0116 65.673 68.0795 61.5012C68.4159 61.4113 68.2164 62.2085 68.2008 62.2887C67.8722 63.8753 67.4673 65.5812 66.9901 67.1288C66.6302 68.2973 63.759 75.8124 63.2348 76.3243C62.7106 76.8363 59.0258 72.6957 58.3901 72.5121H58.3882Z" fill="#BFD1DF"/>
<path d="M16.7214 26.1697C13.3319 26.3378 14.1318 26.6582 14.0575 29.558C13.3632 30.2888 13.2263 31.7406 13.2106 32.704C12.8547 32.8505 12.1212 33.4895 11.6968 33.6712C11.5012 33.5598 13.0444 29.9879 13.2106 29.4974C13.4708 28.7314 13.4864 27.3871 13.817 26.7149C14.2218 25.8884 16.1053 25.4135 16.9659 24.415C17.5742 23.7096 17.6153 23.0296 18.0553 22.2969C18.2372 23.8171 17.6994 25.0618 16.7234 26.1697H16.7214Z" fill="#F6BE9D"/>
<path d="M20.2282 46.7409C19.7901 48.4331 18.6381 50.1233 18.0474 51.7021C17.578 52.1379 14.5503 53.5565 14.2921 52.9722C14.0613 52.4505 15.5243 52.2278 15.9272 51.9444C17.756 50.6509 18.0689 48.691 17.0773 46.7409C18.0376 46.8405 19.2268 46.7194 20.2262 46.7409H20.2282Z" fill="#F3A579"/>
<path d="M14.0559 29.5566C14.0305 30.5141 13.8544 31.4911 13.9346 32.4603C13.8153 32.4994 13.2461 32.687 13.207 32.7026C13.2246 31.7393 13.3596 30.2874 14.0539 29.5566H14.0559Z" fill="white"/>
<path d="M18.0514 22.295C17.6113 23.0258 17.5702 23.7078 16.962 24.4132C16.1014 25.4117 14.2179 25.8865 13.813 26.7131C13.4825 27.3872 13.4668 28.7296 13.2067 29.4956C13.0404 29.986 11.4973 33.5599 11.6929 33.6693C12.1173 33.4876 12.8507 32.8487 13.2067 32.7021C13.2439 32.6865 13.813 32.4989 13.9343 32.4598C14.6892 32.2117 18.6753 31.4144 19.2034 31.6137C19.3775 32.7451 23.5826 37.5813 23.6237 37.9662C23.6902 38.5739 22.3406 38.6677 21.9279 38.6325C20.641 38.5173 19.9114 36.2545 18.8396 35.6077C17.5096 34.8046 14.6599 35.1427 13.148 35.4866C12.7921 35.5667 11.4308 35.7465 11.6342 36.274C11.7887 36.6746 16.874 35.1055 18.4778 36.0923C19.5085 36.7254 20.3867 39.5275 22.0511 39.1171C22.413 40.1625 22.7494 41.1982 22.7787 42.3237L20.9011 42.3843C21.4272 45.3602 19.4029 43.8029 18.599 42.3843L15.3894 41.8391C15.3112 43.9748 14.2629 46.4486 17.0852 46.7397C18.0749 48.6899 17.7639 50.6497 15.9351 51.9433C15.5322 52.2286 14.0692 52.4494 14.3 52.9711C14.5582 53.5553 17.5859 52.1367 18.0553 51.701C17.5311 53.1079 17.2338 54.6105 16.8446 56.0565C14.5993 55.994 12.309 56.0233 10.0617 56.0565C10.089 54.2314 11.0631 52.1211 10.9085 50.3097C10.6406 47.1403 8.38743 42.3823 7.88086 39.0566C10.4254 35.2443 8.37178 31.0803 10.4235 27.1977C11.8415 24.5148 15.2349 23.399 17.7502 22.0547L18.0533 22.297L18.0514 22.295Z" fill="#FED8BB"/>
<path d="M21.9276 38.6306C21.9491 38.781 22 38.9725 22.0489 39.1152C20.3844 39.5255 19.5063 36.7235 18.4755 36.0904C16.8717 35.1036 11.7864 36.6727 11.6319 36.2721C11.4285 35.7465 12.7898 35.5667 13.1458 35.4846C14.6596 35.1407 17.5093 34.8027 18.8374 35.6058C19.9092 36.2525 20.6387 38.5153 21.9257 38.6306H21.9276Z" fill="#F3A579"/>
<path d="M14.6008 38.6311C16.5645 38.4943 19.4416 39.5436 20.5956 41.2319C22.481 43.989 18.9976 40.5558 18.8392 40.4444C16.6662 38.9222 14.6106 39.1 12.1775 39.8387C10.8455 39.3111 14.3583 38.6448 14.5989 38.6291L14.6008 38.6311Z" fill="#F3A579"/>
<path d="M62.2577 48.6758C62.1951 50.62 62.3809 52.4959 62.864 54.362C63.1046 55.2921 63.3002 56.1323 63.9534 56.9022C63.9182 56.9901 64.1353 57.0605 64.0747 57.2051C63.9475 57.504 63.7383 57.8167 63.5896 58.1117C58.1366 57.5607 53.1648 55.7005 48.5705 52.787C48.6311 52.025 48.6722 49.2854 48.4492 48.6738C50.3718 49.5101 52.1634 50.7763 54.3227 50.9737C57.0022 51.218 60.026 50.1276 62.2557 48.6738L62.2577 48.6758Z" fill="#F3A579"/>
<path d="M54.023 12.0103C57.6707 16.8328 58.5254 19.162 63.8942 22.9C65.4276 23.9689 68.8015 25.4246 69.889 26.4095L69.9496 26.7729C69.5624 26.9234 66.9787 25.7295 66.3762 25.5634C65.6584 24.4652 64.1524 23.7754 62.8635 23.7481L59.2901 21.2079C57.1719 19.3496 54.2381 15.6155 53.7785 12.7978C53.7531 12.6395 53.6572 11.9439 54.021 12.0103H54.023Z" fill="#F6BE9D"/>
<path d="M71.8259 38.028C71.067 38.0631 70.4802 38.2624 69.7057 38.1491C69.5844 38.0827 70.001 37.346 70.0089 37.303C73.5979 36.8008 75.1821 30.8372 71.3408 29.5593C71.4054 29.2505 71.4288 28.1836 71.644 28.1074C77.05 28.9222 76.207 36.1404 71.8259 38.0299V38.028Z" fill="#F6BE9D"/>
<path d="M43.1215 24.5972C43.102 24.6051 42.8712 24.8513 42.7577 24.8395C42.3294 24.1849 42.3646 23.376 41.4258 23.2666C46.4269 20.8397 49.7128 16.8515 53.0534 12.6191C53.339 12.7403 53.1258 13.008 53.0534 13.1643C50.8805 17.7816 47.1213 21.5314 43.1215 24.5992V24.5972Z" fill="#F6BE9D"/>
<path d="M70.0098 37.3024C70.1721 36.2276 70.311 35.1236 70.3736 34.0352C70.9212 32.599 71.0346 31.0476 71.3417 29.5586C75.183 30.8365 73.5988 36.8002 70.0098 37.3024Z" fill="#F6BE9D"/>
<path d="M43.3661 25.4431C42.6698 25.3044 43.0551 25.2868 42.7598 24.8373C42.8732 24.851 43.104 24.6048 43.1236 24.595C45.3024 23.6532 48.4533 23.1198 50.0278 25.3825C49.9711 25.8319 47.9761 25.2164 47.6651 25.2008C46.5444 25.148 44.0702 25.5818 43.3661 25.4431Z" fill="#080C1B"/>
<path d="M63.59 58.1137C61.3212 62.6686 58.9742 64.222 55.5964 67.5516C55.5768 67.5712 55.4947 67.5321 55.4751 67.5516C51.7257 64.687 49.1029 60.693 46.7539 56.6619C47.548 56.0816 48.2462 54.833 48.4496 53.8794C48.5474 53.4241 48.5357 53.2248 48.5709 52.791C53.1653 55.7044 58.1351 57.5647 63.59 58.1157V58.1137Z" fill="#F6BE9D"/>
<path d="M62.8616 23.7507C64.1505 23.7781 65.6565 24.4659 66.3743 25.566C63.9843 24.9036 62.3433 24.7746 59.8945 25.4449C60.0764 24.2588 61.7741 23.7273 62.8616 23.7507Z" fill="#0F1931"/>
<path d="M54.0231 12.0118C53.6593 11.9454 53.7552 12.641 53.7806 12.7993C54.2402 15.617 57.1721 19.3511 59.2922 21.2094L62.8656 23.7496C61.7781 23.7262 60.0804 24.2576 59.8985 25.4437C62.3473 24.7735 63.9883 24.9025 66.3783 25.5649C66.9788 25.731 69.5645 26.9249 69.9517 26.7744L69.8911 26.411C69.9067 26.4246 70.1884 26.3934 70.2549 26.5927C70.3175 29.0567 70.515 31.5676 70.3761 34.0336C70.3155 35.122 70.1747 36.226 70.0124 37.3007C70.0065 37.3456 69.5899 38.0803 69.7092 38.1468C70.4818 38.2601 71.0685 38.0608 71.8294 38.0256C71.446 38.1917 71.1252 38.3988 70.6793 38.5102C70.3801 38.5845 69.7522 38.3695 69.6505 38.4496C69.5332 38.5415 69.0735 40.3021 68.9229 40.6284C67.4912 43.7372 65.1579 46.7874 62.2612 48.675C60.0315 50.1288 57.0078 51.2191 54.3282 50.9749C52.1689 50.7775 50.3754 49.5133 48.4547 48.675C48.2122 48.0067 46.7414 47.4518 46.3952 46.7386C47.5668 46.6721 48.4098 46.9731 49.0591 45.7108V29.9809L49.4229 30.2232C48.7677 29.2697 49.286 27.9527 49.0591 27.0773C48.6288 25.4164 44.543 26.5536 43.4282 26.1706C43.258 26.112 42.9646 25.6079 43.3675 25.4437C44.0736 25.5844 46.5458 25.1487 47.6665 25.2014C47.9756 25.2151 49.9725 25.8326 50.0292 25.3832C48.4547 23.1224 45.3058 23.6558 43.125 24.5957C47.1248 21.5279 50.882 17.7781 53.0569 13.1608C53.1293 13.0045 53.3425 12.7368 53.0569 12.6156C53.1821 12.4554 53.6437 11.6601 53.7239 11.6484C53.9371 11.6093 53.9253 11.877 54.027 12.0118H54.0231Z" fill="#FED8BB"/>
<path d="M51.0547 42.1406L59.8365 42.3223C57.5345 45.8943 53.1044 46.0272 51.0547 42.1406Z" fill="#D93E52"/>
<path d="M54.8105 33.672C55.8745 33.756 53.9832 37.6093 54.0223 37.9669C54.0888 38.5589 56.4085 39.5047 55.5362 39.8427C55.1352 39.9991 53.506 38.6176 53.416 38.2092C53.2048 37.24 54.6286 35.2684 54.3841 34.096C54.4311 33.9826 54.7166 33.6661 54.8086 33.672H54.8105Z" fill="#F3A579"/>
<path d="M56.3839 38.1492C56.6831 38.0085 57.5535 38.1765 57.2914 38.6943C56.9745 39.3216 55.7013 38.4735 56.3839 38.1492Z" fill="#F3A579"/>
<path d="M67.5844 30.7672C66.7688 29.7276 65.6285 28.8503 64.2536 28.8308C65.3665 29.9504 65.3273 31.7207 64.1929 32.8248C63.8878 32.8717 63.5749 33.0749 63.2854 33.0671C63.0879 33.0612 62.5696 32.7505 62.3779 32.7036C61.5623 31.6699 61.5662 30.6284 61.9535 29.4365C61.263 29.8175 60.7839 30.5679 60.4396 31.2518L60.3184 31.1306C60.6548 28.8757 62.9001 27.8147 64.9812 28.1058C66.0412 28.2543 68.2435 29.583 67.5844 30.7672Z" fill="#09080C"/>
<path d="M67.5829 30.7665C66.9687 31.8705 65.3786 32.6443 64.1914 32.8241C65.3258 31.722 65.3649 29.9517 64.252 28.8301C65.627 28.8496 66.7673 29.727 67.5829 30.7665Z" fill="white"/>
<path d="M62.3759 32.7046C62.3603 32.7007 62.3681 32.9235 62.0728 32.8258C61.5799 32.6636 60.5179 32.009 60.3164 31.4951C60.334 31.4052 60.3966 31.3348 60.4377 31.2528C60.7819 30.5689 61.2611 29.8185 61.9515 29.4375C61.5643 30.6294 61.5603 31.6709 62.3759 32.7046Z" fill="white"/>
<path d="M60.4386 31.2501C60.3976 31.3321 60.335 31.4025 60.3174 31.4924C60.1629 31.0976 60.2978 31.2579 60.3174 31.1289L60.4386 31.2501Z" fill="#66483B"/>
<path d="M46.3974 46.7383C46.7416 47.4515 48.2144 48.0064 48.4569 48.6747C48.6799 49.2863 48.6388 52.0258 48.5782 52.7879C48.543 53.2217 48.5547 53.421 48.4569 53.8763C47.3186 53.9193 46.6908 54.8494 45.9143 55.4493C44.9187 56.2172 42.7673 58.4057 42.0377 58.8375C39.0863 60.5825 32.0198 62.0617 28.2919 63.7988C26.5414 64.6136 24.9356 65.5164 23.5078 66.8236C24.2041 65.4441 24.7733 63.9805 25.5673 62.6498C28.7378 57.3271 33.7077 52.8172 35.9824 46.8594C39.3171 46.8418 43.1154 46.9259 46.3974 46.7383Z" fill="#080C1B"/>
<path d="M91.5751 76.2608C89.7757 69.2752 88.6745 66.1722 81.8251 63.3135C77.5789 61.5412 73.0315 60.3375 68.6836 58.8368C68.6836 58.618 68.7931 58.5926 68.8048 58.4128C68.7403 58.1607 65.1845 55.5306 64.6877 55.2062C64.1166 54.833 63.6042 54.3914 62.8707 54.3602C62.3876 52.4921 62.2018 50.6163 62.2644 48.674C65.161 46.7864 67.4944 43.7362 68.9261 40.6273C69.0747 40.303 69.5363 38.5404 69.6537 38.4486C69.7554 38.3685 70.3852 38.5834 70.6825 38.5092C71.1284 38.3998 71.4511 38.1907 71.8325 38.0246C76.2137 36.1351 77.0566 28.9189 71.6506 28.1021C71.4355 28.1783 71.412 29.2452 71.3475 29.5539C71.0404 31.0448 70.9269 32.5944 70.3793 34.0306C70.5182 31.5627 70.3206 29.0537 70.258 26.5897C70.1915 26.3904 69.9099 26.4216 69.8943 26.408C68.8068 25.4231 65.4329 23.9674 63.8995 22.8986C58.5306 19.1605 57.6759 16.8313 54.0282 12.0088C53.9265 11.876 53.9383 11.6063 53.7251 11.6454C53.6468 11.6571 53.1852 12.4543 53.0581 12.6126C49.7194 16.845 46.4316 20.8332 41.4305 23.2601C39.7328 23.0607 36.0323 23.3499 34.1038 23.3812C34.0118 23.3812 34.1038 23.135 33.9219 23.1389C35.244 14.6135 39.6624 1.67014 49.7273 0.51141C59.3893 -0.600424 67.2538 -0.688354 72.5581 8.67919C78.9362 19.9441 75.8127 34.1146 82.6113 45.4635C84.8488 49.1976 88.1406 52.5273 90.3624 56.2321C94.0786 62.4283 94.8336 69.6855 91.5731 76.2568L91.5751 76.2608Z" fill="#0F1931"/>
<path d="M45.3693 4.26446C46.2768 4.23124 45.7526 5.26296 45.7937 5.41342C45.8152 5.49158 46.6484 5.94882 46.7618 6.38065C46.8518 6.72651 46.6132 7.30881 46.6406 7.34789C46.6777 7.40456 47.4738 7.51984 47.6694 7.65076C48.1955 8.00444 49.1245 10.1304 49.3045 10.7361C47.9451 12.1782 43.963 10.4137 45.3067 8.19593C42.633 8.85053 43.7557 7.52961 43.6109 7.2287C43.564 7.12904 42.367 7.02548 42.6428 6.01916C42.6623 5.94882 43.4897 4.90928 43.5503 4.8702C43.6305 4.81744 45.2715 4.26836 45.3673 4.26446H45.3693Z" fill="#40495F"/>
<path d="M55.0581 8.98242C58.9718 15.8293 65.9367 21.2497 73.4081 23.6844C66.856 22.7719 57.988 16.0384 55.24 10.0122C55.1501 9.81288 54.8137 9.16805 55.0581 8.98438V8.98242Z" fill="#40495F"/>
<path d="M53.1195 7.17188C53.3327 7.29693 53.2271 7.51969 53.1801 7.71705C53.0589 8.22118 52.1494 9.95048 51.8482 10.4996C49.0298 15.6386 44.2203 19.7088 38.9492 22.1768C45.0261 18.5521 50.0625 13.6201 53.1195 7.17188Z" fill="#40495F"/>
<path d="M63.5933 13.0985C63.6794 13.0262 63.8848 12.991 63.8359 12.7956L62.5645 11.6467C62.8188 12.1684 63.2276 12.653 63.5933 13.0985C62.0912 14.3686 59.7559 11.4337 59.7168 10.0131C59.9535 9.58324 60.239 10.3082 60.3837 10.316C61.5221 10.3805 62.8481 9.39761 63.7752 11.1621C63.695 9.50508 64.008 9.06152 64.9859 7.89497C65.1228 7.73279 65.5081 7.87348 65.5316 7.8344C65.5825 7.74647 65.4768 7.27946 65.6529 6.98831C66.0167 6.38452 67.4679 6.96682 68.2561 6.32199C68.483 6.13636 68.7255 5.38211 68.6806 5.29418C68.3637 4.68062 61.9915 2.91028 60.9294 2.63281C63.9747 2.93373 67.8552 4.08855 70.3157 5.9605C70.3391 5.97808 70.9298 6.43532 70.5582 6.44509L69.0443 5.65763C70.8418 7.32635 68.6727 8.5144 68.5593 8.92474C68.5339 9.01267 68.9524 9.64968 68.8018 10.1343C68.5828 10.8338 67.2273 10.7263 66.6817 10.4371C67.6244 12.3931 65.8876 13.0731 64.3796 12.0101C64.4833 12.3462 63.9552 12.7527 63.9552 12.7976C63.9552 13.6495 72.0134 19.3142 73.402 19.6953C69.5763 18.6284 66.1066 16.1605 63.5914 13.1005L63.5933 13.0985Z" fill="#40495F"/>
<path d="M63.5932 13.0983C63.2275 12.6528 62.8168 12.1682 62.5645 11.6465L63.8358 12.7954C63.8847 12.9908 63.6793 13.026 63.5932 13.0983Z" fill="#626F84"/>
<path d="M48.4567 53.875C48.2533 54.8286 47.555 56.0772 46.761 56.6575C46.5282 56.2569 46.2153 55.8075 45.9141 55.448C46.6905 54.8481 47.3184 53.918 48.4567 53.875Z" fill="#BFD1DF"/>
<path d="M25.0757 25.9232L24.8938 26.1655C22.8558 26.1948 20.8139 26.1264 18.7778 26.1655C18.8228 25.7532 18.6037 24.8993 19.081 24.7137C19.4017 24.5886 24.7667 24.6668 24.9544 24.8954C25.019 24.9735 25.1266 25.8157 25.0757 25.9232Z" fill="#080C1B"/>
<path d="M41.4292 23.2618C42.37 23.3712 42.3328 24.1802 42.7612 24.8348C43.0565 25.2842 42.6712 25.3018 43.3675 25.4405C42.9646 25.6027 43.258 26.1088 43.4281 26.1674C44.5449 26.5524 48.6288 25.4151 49.0591 27.0741C49.2859 27.9495 48.7676 29.2665 49.4229 30.2201L49.0591 29.9778V45.7076C48.4097 46.9699 47.5648 46.669 46.3952 46.7354C43.1132 46.923 39.313 46.8389 35.9802 46.8565C30.7639 46.8819 25.4517 46.8468 20.2354 46.7354C19.236 46.7139 18.0468 46.835 17.0865 46.7354C14.2641 46.4442 15.3125 43.9705 15.3907 41.8347L18.6003 42.3799C19.4022 43.7985 21.4265 45.3559 20.9024 42.3799L22.78 42.3193C22.7526 41.1938 22.4143 40.1582 22.0524 39.1128C22.0035 38.9721 21.9546 38.7806 21.9312 38.6282C22.3438 38.6653 23.6934 38.5715 23.6269 37.9619C23.5858 37.5769 19.3807 32.7407 19.2066 31.6094C18.6785 31.412 14.6925 32.2092 13.9375 32.4555C13.8554 31.4863 14.0333 30.5093 14.0588 29.5518C14.1331 26.652 13.3331 26.3316 16.7227 26.1635C17.4033 26.1303 18.0996 26.1772 18.7822 26.1635C20.8183 26.1245 22.8602 26.1928 24.8982 26.1635L25.0801 25.9212C25.0273 26.2847 25.4028 26.1557 25.6258 26.1635C26.2165 26.1831 29.1874 26.273 29.5023 26.1635C29.7194 26.0873 31.1433 23.4494 31.3193 23.381C31.5599 23.2853 33.2791 23.3966 33.7407 23.381C33.8307 23.3791 33.9069 23.1387 33.9226 23.1387C34.1045 23.1348 34.0126 23.383 34.1045 23.381C36.033 23.3498 39.7335 23.0625 41.4312 23.2599L41.4292 23.2618Z" fill="#14264F"/>
<path d="M32.2827 23.9883H41.3658C41.6044 24.0743 41.6142 25.8329 41.5477 25.9853C41.3599 26.4074 32.6602 26.4347 32.2827 26.167C32.1947 26.1045 32.136 24.0469 32.2827 23.9883Z" fill="#486B90"/>
<path d="M18.9608 29.0701C19.1838 28.9939 23.4711 28.9705 23.6843 29.0701L23.8662 29.6153C23.7605 29.8361 19.2757 29.9026 18.9608 29.797C18.6107 29.6798 18.6029 29.1913 18.9608 29.0701Z" fill="white"/>
<path d="M16.4201 27.4985C18.241 27.1468 17.887 30.2596 16.1775 29.435C15.3267 29.0246 15.6084 27.6549 16.4201 27.4985Z" fill="#EB5B54"/>
<path d="M35.1922 27.9808C46.636 27.0234 47.5885 43.8103 37.1304 44.799C25.4695 45.9031 24.4134 28.8816 35.1922 27.9808Z" fill="#486B90"/>
<path d="M35.6777 28.95C45.3768 28.5396 46.1885 43.0052 36.8883 43.8337C26.6298 44.7482 25.781 29.3701 35.6777 28.95Z" fill="#0F1931"/>
<path d="M35.192 29.5569C45.2764 28.4743 45.7693 44.3566 34.9494 43.2291C27.3157 42.4338 27.2785 30.4069 35.192 29.5569Z" fill="#14264F"/>
<path d="M35.0716 30.2812C44.491 29.1655 44.6984 43.8616 34.9503 42.5016C28.2299 41.5637 28.2475 31.0902 35.0716 30.2812Z" fill="#0F1931"/>
<path d="M35.069 31.0091C42.6011 30.0321 43.7922 40.5896 37.2498 41.7776C29.485 43.1865 28.2724 31.8903 35.069 31.0091Z" fill="#A7D0E6"/>
<path d="M36.2801 32.0978C41.1561 32.2795 41.8544 39.9471 37.0077 40.6896C30.3323 41.7116 30.0448 31.8653 36.2801 32.0978Z" fill="#45ADD7"/>
<path d="M35.6773 35.1228C37.9324 34.6421 38.085 37.7393 36.4049 38.0265C34.4959 38.3528 33.8916 35.5039 35.6773 35.1228Z" fill="#2F8AC1"/>
</svg>
