<svg width="100" height="100" viewBox="0 0 100 100" fill="none" xmlns="http://www.w3.org/2000/svg">
<path fill-rule="evenodd" clip-rule="evenodd" d="M75.2221 22.9486C75.2436 23.0638 75.2114 23.1615 75.1245 23.2416C74.5418 22.9252 73.9239 22.7787 73.27 22.8021C72.7516 23.1664 72.3124 23.6058 71.9522 24.1205C71.0874 25.6088 70.534 27.2045 70.2929 28.9056C70.2724 28.7533 70.2236 28.6234 70.1465 28.515C69.9268 27.2552 69.8292 25.9857 69.8536 24.7064C70.0664 24.9027 70.3104 25.0658 70.5857 25.1947C70.9986 24.2279 71.6008 23.3978 72.3915 22.7045C72.657 22.6 72.9176 22.4857 73.1723 22.3627C73.0855 18.2123 71.9308 14.4037 69.7072 10.9369C69.3217 10.4554 68.9146 10.0004 68.4871 9.56969C67.7999 8.65466 66.9868 7.87341 66.0469 7.22594C66.0459 7.07751 65.9805 6.96423 65.8517 6.88415C60.981 3.30895 55.5802 2.20251 49.6485 3.56384C48.9038 3.72106 48.1873 3.93298 47.5011 4.1986C44.5973 5.27575 42.157 7.00134 40.1804 9.37438C36.9193 13.1078 35.3254 17.4701 35.3976 22.4603C34.7787 22.6117 34.1931 22.8402 33.6406 23.1439V22.1674C34.1326 17.0599 35.9706 12.5023 39.1555 8.49548C43.3244 3.94079 48.5133 1.72692 54.7242 1.85485C63.6681 2.00329 69.8985 6.16931 73.4164 14.3549C74.4364 17.1312 75.0386 19.9955 75.2221 22.9486Z" fill="#0D1828"/>
<path fill-rule="evenodd" clip-rule="evenodd" d="M66.0462 7.22727C65.4312 6.87082 64.7802 6.59445 64.094 6.39719C63.7358 6.33176 63.3785 6.33176 63.0203 6.39719C62.7577 6.65598 62.6757 6.96555 62.7763 7.32492C62.989 7.87863 63.2985 8.36692 63.7035 8.78977C63.153 8.87082 62.6006 8.91965 62.0442 8.93625C61.6947 9.09836 61.5317 9.3757 61.5561 9.76633C61.8529 11.0241 62.6337 11.821 63.8988 12.1589C64.5274 12.4157 65.0974 12.3347 65.6069 11.9148C65.6811 11.5398 65.6323 11.1823 65.4605 10.8405C65.4927 10.7751 65.5259 10.7107 65.5581 10.6452C66.4551 11.196 67.399 11.3259 68.3888 11.0359C68.7324 10.5681 68.7646 10.0798 68.4864 9.57102C68.9139 10.0017 69.3209 10.4568 69.7065 10.9382C71.93 14.405 73.0848 18.2136 73.1716 22.364C72.9169 22.487 72.6563 22.6013 72.3908 22.7058C71.6001 23.3991 70.9979 24.2292 70.585 25.196C70.3097 25.0671 70.0657 24.904 69.8529 24.7077C68.6064 23.9021 67.3707 23.072 66.1438 22.2175C63.1579 20.6433 60.3926 18.7556 57.847 16.5534C56.3858 15.1423 55.1979 13.531 54.2843 11.7195C53.9973 11.0222 53.7699 10.3054 53.601 9.57102C52.9743 11.282 52.0959 12.8445 50.9655 14.2585C47.8665 18.0271 44.1739 21.0544 39.8869 23.3405C38.7058 23.696 37.6165 24.282 36.617 25.0984C36.3037 24.5359 35.9942 23.9822 35.6897 23.4382C35.557 23.1218 35.4593 22.7966 35.3969 22.4616C35.3246 17.4714 36.9186 13.1091 40.1797 9.3757C41.2466 9.00363 42.2881 8.56418 43.3032 8.05734C43.7151 7.89719 44.1378 7.78293 44.5721 7.71555C44.5146 8.02707 44.4004 8.32004 44.2305 8.59445C44.0138 9.97141 44.5185 10.3132 45.7435 9.61985C46.6336 9.08762 47.3657 8.38742 47.9397 7.52024C48.1515 6.83762 47.9074 6.44699 47.2076 6.34836C46.946 6.41477 46.6864 6.47922 46.4267 6.54367C46.4111 6.40988 46.4277 6.27902 46.4755 6.15305C46.986 5.83176 47.4409 5.44113 47.8421 4.98117C47.9074 4.75363 47.9074 4.52512 47.8421 4.29758C47.7435 4.21555 47.6293 4.18332 47.5004 4.19992C48.1866 3.9343 48.9031 3.72238 49.6478 3.56516C55.5795 2.20383 60.9802 3.31027 65.8509 6.88547C65.9798 6.96555 66.0452 7.07883 66.0462 7.22727Z" fill="#16243C"/>
<path fill-rule="evenodd" clip-rule="evenodd" d="M52.2836 0H57.4569C58.1763 0.0703125 58.8917 0.167969 59.6043 0.292969C69.29 2.71094 75.0334 8.89649 76.8323 18.8477C76.9582 20.6035 77.007 22.3613 76.9787 24.1211H76.5883C76.2408 23.8252 75.8503 23.5811 75.417 23.3887C75.3584 23.2305 75.293 23.084 75.2217 22.9492C75.0382 19.9961 74.436 17.1318 73.416 14.3555C69.8981 6.16992 63.6677 2.00391 54.7238 1.85547C48.5129 1.72754 43.324 3.94141 39.1552 8.49609C35.9702 12.5029 34.1322 17.0605 33.6402 22.168C33.5563 22.3447 33.4909 22.6533 33.445 23.0957C33.4772 23.1279 33.5104 23.1611 33.5426 23.1934C33.037 23.4443 32.6144 23.7861 32.2737 24.2188C32.1888 20.1016 32.9863 16.1621 34.6651 12.4023C38.2386 5.00293 44.1117 0.868164 52.2836 0Z" fill="#323D4C"/>
<path fill-rule="evenodd" clip-rule="evenodd" d="M47.5004 4.19954C47.6292 4.18294 47.7434 4.21517 47.842 4.2972C47.9074 4.52474 47.9074 4.75325 47.842 4.98079C47.4408 5.44075 46.986 5.83138 46.4755 6.15267C46.4277 6.27864 46.4111 6.4095 46.4267 6.54329C46.6863 6.47884 46.946 6.41439 47.2075 6.34798C47.9074 6.44661 48.1514 6.83724 47.9396 7.51985C47.3657 8.38704 46.6336 9.08724 45.7434 9.61946C44.5184 10.3128 44.0138 9.97103 44.2305 8.59407C44.4003 8.31966 44.5145 8.02669 44.5721 7.71517C44.1377 7.78255 43.7151 7.89681 43.3032 8.05696C42.288 8.5638 41.2466 9.00325 40.1797 9.37532C42.1563 7.00228 44.5965 5.27669 47.5004 4.19954Z" fill="#304162"/>
<path fill-rule="evenodd" clip-rule="evenodd" d="M66.0471 7.22681C66.9871 7.87427 67.8002 8.65552 68.4873 9.57056C68.7655 10.0793 68.7333 10.5676 68.3897 11.0354C67.4 11.3254 66.4561 11.1956 65.559 10.6448C65.5268 10.7102 65.4936 10.7747 65.4614 10.8401C65.6332 11.1819 65.682 11.5393 65.6079 11.9143C65.0983 12.3342 64.5283 12.4153 63.8997 12.1584C62.6347 11.8206 61.8538 11.0237 61.5571 9.76587C61.5327 9.37524 61.6957 9.0979 62.0451 8.93579C62.6015 8.91919 63.154 8.87036 63.7045 8.78931C63.2994 8.36646 62.99 7.87817 62.7772 7.32446C62.6766 6.96509 62.7586 6.65552 63.0212 6.39673C63.3794 6.3313 63.7367 6.3313 64.0949 6.39673C64.7811 6.59399 65.4322 6.87036 66.0471 7.22681Z" fill="#2F4161"/>
<path fill-rule="evenodd" clip-rule="evenodd" d="M69.8525 24.707C69.8281 25.9863 69.9258 27.2559 70.1454 28.5156C69.9765 29.7168 69.8301 30.9209 69.7061 32.1289C69.6251 33.4805 69.6417 34.8154 69.7549 36.1328C69.7764 36.4941 69.793 36.8525 69.8037 37.207C68.8062 40.1484 67.1956 42.6875 64.9721 44.8242H64.8745C64.6344 44.793 64.3737 44.7764 64.0936 44.7754C63.6192 44.1797 63.0004 43.9033 62.239 43.9453C61.3254 43.999 60.4147 44.0811 59.506 44.1895C57.6494 44.5049 57.0472 45.5303 57.7002 47.2656C58.3034 47.8691 59.0355 48.1299 59.8964 48.0469C56.5826 49.9902 53.1009 50.332 49.4522 49.0723C48.8715 48.7979 48.2858 48.5537 47.6953 48.3398C46.0906 47.5273 44.6421 46.4863 43.3517 45.2148C43.0842 44.8994 42.8402 44.5742 42.6196 44.2383C41.38 42.6367 40.4683 40.8467 39.8865 38.8672C39.9236 38.6836 40.0212 38.5371 40.1794 38.4277C40.0203 38.3799 39.8572 38.3633 39.6913 38.3789C39.6874 38.1221 39.623 37.959 39.4961 37.8906C39.0627 36.2012 38.7533 34.4766 38.5688 32.7148C38.2516 29.8887 38.1052 27.0566 38.1296 24.2188C38.7182 23.9248 39.3038 23.6318 39.8865 23.3398C44.1735 21.0537 47.8661 18.0264 50.9652 14.2578C52.0955 12.8438 52.974 11.2813 53.6006 9.57031C53.7695 10.3047 53.9969 11.0215 54.2839 11.7188C55.1975 13.5303 56.3854 15.1416 57.8466 16.5527C60.3923 18.7549 63.1575 20.6426 66.1434 22.2168C67.3703 23.0713 68.6061 23.9014 69.8525 24.707Z" fill="#FED0B0"/>
<path fill-rule="evenodd" clip-rule="evenodd" d="M78.6207 24.9326C78.1795 24.4756 77.6104 24.1846 76.9779 24.1211C77.4855 13.2188 70.8324 2.80762 59.4883 0.296875C71.5938 1.40332 79.1956 14.2852 78.6216 24.9326H78.6207Z" fill="#111B2E"/>
<path fill-rule="evenodd" clip-rule="evenodd" d="M57.5547 9.66797C60.9691 13.3945 64.9066 16.4375 69.3654 18.7988C69.2356 18.8643 69.1048 18.8643 68.975 18.7988C64.6909 17.1162 61.1282 14.4639 58.2868 10.8398C58.0183 10.459 57.7743 10.0684 57.5547 9.66797Z" fill="#334567"/>
<path fill-rule="evenodd" clip-rule="evenodd" d="M49.0612 11.3281C49.1607 11.3672 49.1773 11.4316 49.11 11.5234C47.5434 13.7588 45.7376 15.793 43.6927 17.627C42.5731 18.5615 41.3696 19.375 40.0811 20.0684C39.4847 20.3652 38.8669 20.5605 38.2266 20.6543C41.4428 18.418 44.4843 15.96 47.353 13.2813C47.9397 12.6455 48.5097 11.9941 49.0612 11.3281Z" fill="#0C1727"/>
<path fill-rule="evenodd" clip-rule="evenodd" d="M49.1599 23.2418C47.5454 22.9635 45.9192 22.8824 44.2794 22.9977C42.9783 23.2194 41.7426 23.6266 40.5703 24.2184C40.5273 24.2252 40.4951 24.2086 40.4727 24.1696C41.9514 22.0953 43.969 21.1842 46.5244 21.4352C47.5405 21.528 48.3702 21.9674 49.0135 22.7535C49.112 22.902 49.1608 23.0651 49.1599 23.2418Z" fill="#101726"/>
<path fill-rule="evenodd" clip-rule="evenodd" d="M60.1894 21.3876C62.2568 21.2255 64.1113 21.7626 65.7531 22.9989C66.1016 23.3719 66.4276 23.7626 66.7292 24.1708C65.9025 23.8622 65.0562 23.5692 64.1914 23.2919C62.6453 22.9667 61.0835 22.869 59.5061 22.9989C58.9586 23.1395 58.4051 23.204 57.8468 23.1942C57.7472 23.0917 57.7316 22.9774 57.798 22.8524C58.4276 22.0741 59.225 21.5858 60.1894 21.3876Z" fill="#101725"/>
<path fill-rule="evenodd" clip-rule="evenodd" d="M49.1599 23.2421C49.0672 23.3056 48.954 23.3388 48.8183 23.3398C45.9827 22.7099 43.2663 23.0361 40.6679 24.3163C40.6084 24.3046 40.5762 24.2714 40.5703 24.2187C41.7426 23.6269 42.9783 23.2197 44.2795 22.998C45.9193 22.8827 47.5455 22.9638 49.1599 23.2421Z" fill="#F2E7C9"/>
<path fill-rule="evenodd" clip-rule="evenodd" d="M33.6408 22.168V23.1445C32.2011 27.8613 32.2167 32.582 33.6896 37.3047C33.8604 37.7051 34.039 38.0957 34.2265 38.4766C34.0996 38.416 34.002 38.416 33.9336 38.4766C33.4495 38.2852 33.0913 37.959 32.8599 37.5C32.4988 36.7236 32.2216 35.9102 32.0302 35.0586C31.2582 31.5811 31.2094 28.1309 31.8838 24.707C31.9912 24.5225 32.122 24.3604 32.2743 24.2188C32.6149 23.7861 33.0376 23.4443 33.5432 23.1934C33.511 23.1611 33.4778 23.1279 33.4456 23.0957C33.4915 22.6533 33.5569 22.3447 33.6408 22.168Z" fill="#3E4B5C"/>
<path fill-rule="evenodd" clip-rule="evenodd" d="M48.6724 28.9055C48.2468 28.4309 47.791 27.9583 47.3059 27.4895C46.6363 27.0579 45.9042 26.8782 45.1097 26.9524C43.5587 26.8899 42.3708 27.5081 41.5469 28.8079C41.3136 28.7903 41.216 28.6594 41.2541 28.4172C41.667 27.1096 42.5455 26.2795 43.8896 25.927C46.3835 25.5139 47.9784 26.5061 48.6724 28.9055Z" fill="#111724"/>
<path fill-rule="evenodd" clip-rule="evenodd" d="M65.4601 28.9053C64.3484 27.3086 62.8198 26.6739 60.8725 27.001C59.7149 27.2364 58.8696 27.8711 58.3347 28.9053C58.3171 28.0772 58.6421 27.377 59.3108 26.8057C60.6519 25.8428 62.116 25.6143 63.7032 26.1221C64.8803 26.5674 65.629 27.3975 65.9482 28.6124C65.8925 28.8643 65.7295 28.962 65.4601 28.9053Z" fill="#101724"/>
<path fill-rule="evenodd" clip-rule="evenodd" d="M31.882 24.707C31.2075 28.1309 31.2563 31.5811 32.0284 35.0586C32.2197 35.9102 32.4969 36.7236 32.8581 37.5C32.5633 37.418 32.3036 37.2715 32.0772 37.0605C30.6658 35.4297 29.9005 33.5254 29.7834 31.3477C29.4525 29.3389 29.7775 27.4512 30.7595 25.6836C31.0318 25.2314 31.4056 24.9062 31.882 24.707Z" fill="#2A3444"/>
<path fill-rule="evenodd" clip-rule="evenodd" d="M48.6723 28.9069C48.6313 30.9137 47.6221 32.0534 45.6465 32.3249C43.4024 32.1628 42.0359 30.9909 41.5469 28.8092C42.3707 27.5094 43.5586 26.8913 45.1096 26.9538C45.9041 26.8796 46.6362 27.0592 47.3058 27.4909C47.7909 27.9596 48.2468 28.4323 48.6723 28.9069Z" fill="#F8F9F9"/>
<path fill-rule="evenodd" clip-rule="evenodd" d="M65.4595 28.9057C65.1042 30.9858 63.8675 32.1254 61.7504 32.3237C59.4624 32.3129 58.3233 31.1743 58.3341 28.9057C58.869 27.8715 59.7143 27.2368 60.8719 27.0014C62.8192 26.6743 64.3478 27.309 65.4595 28.9057Z" fill="#F9FAFA"/>
<path fill-rule="evenodd" clip-rule="evenodd" d="M44.9623 27.2464C46.3278 27.0365 47.1907 27.5902 47.5489 28.9066C47.7734 30.0755 47.465 31.0687 46.6216 31.8851C45.1302 32.4652 44.1707 31.9603 43.7421 30.3714C43.4942 29.2757 43.7382 28.3158 44.4742 27.4906C44.6519 27.4163 44.8139 27.3353 44.9623 27.2464Z" fill="#0F1827"/>
<path fill-rule="evenodd" clip-rule="evenodd" d="M46.4276 28.2229C46.9449 28.1223 47.27 28.3176 47.4037 28.8088C46.941 29.6008 46.5184 29.5842 46.1348 28.76C46.1953 28.5569 46.2929 28.3772 46.4276 28.2229Z" fill="#EFF1F2"/>
<path fill-rule="evenodd" clip-rule="evenodd" d="M78.6383 23.4375C78.7193 23.9404 78.7681 24.4609 78.7847 25C79.0561 25.2217 79.2679 25.4824 79.4192 25.7813C79.4318 25.8535 79.4153 25.9189 79.3704 25.9766C78.6344 25.5176 78.0155 25.6484 77.5158 26.3672C76.9018 27.3359 76.446 28.3779 76.1493 29.4922C75.8564 30.9434 75.6768 32.4082 75.6124 33.8867C75.5372 34.9522 75.7003 35.9775 76.1004 36.9629C75.8838 37.3818 75.6554 37.7881 75.4172 38.1836C75.2942 38.3662 75.1312 38.4961 74.9291 38.5742C74.6666 38.3262 74.4548 38.0332 74.2947 37.6953C73.4962 33.6992 73.8213 29.793 75.2708 25.9766C75.4738 25.5381 75.7012 25.1143 75.954 24.707C76.1034 24.4346 76.3152 24.2393 76.5885 24.1211H76.9789C77.6114 24.1846 78.1483 24.4453 78.5895 24.9023C78.6383 24.415 78.6549 23.9268 78.6383 23.4375Z" fill="#3E4B5C"/>
<path fill-rule="evenodd" clip-rule="evenodd" d="M35.3972 22.4609C35.4597 22.7959 35.5573 23.1211 35.69 23.4375C35.8199 24.0049 35.9985 24.5576 36.2269 25.0977C36.5929 25.3506 36.9023 25.6436 37.1542 25.9766C36.4026 29.6572 36.6466 33.2705 37.8862 36.8164C38.2542 37.6064 38.6613 38.3711 39.1064 39.1113C37.4197 39.3564 35.7925 39.1445 34.2259 38.4766C34.0385 38.0957 33.8599 37.7051 33.689 37.3047C32.2161 32.582 32.2005 27.8613 33.6402 23.1445C34.1927 22.8408 34.7784 22.6123 35.3972 22.4609Z" fill="#1E2838"/>
<path fill-rule="evenodd" clip-rule="evenodd" d="M61.4587 27.1484C62.9892 27.1934 63.7701 27.9912 63.8014 29.541C63.8179 30.4697 63.4919 31.251 62.8253 31.8848C61.3982 32.498 60.4387 32.0586 59.9458 30.5664C59.6305 29.4033 59.8745 28.3779 60.6779 27.4902C60.9375 27.3457 61.1981 27.2324 61.4587 27.1484Z" fill="#0F1929"/>
<path fill-rule="evenodd" clip-rule="evenodd" d="M62.6299 28.2234C63.2478 28.1424 63.524 28.4021 63.4596 29.0047C63.1453 29.4822 62.7871 29.5145 62.3859 29.1023C62.2814 28.7469 62.3625 28.4539 62.6299 28.2234Z" fill="#F2F4F5"/>
<path fill-rule="evenodd" clip-rule="evenodd" d="M79.418 25.7817C80.5503 27.1459 81.0705 28.725 80.9797 30.518C80.9885 32.2963 80.6469 34.0053 79.9548 35.6449C79.7489 36.1557 79.4727 36.6117 79.1252 37.0121C78.6635 37.7348 78.0446 38.2875 77.2706 38.6723C77.2481 38.351 77.378 38.1069 77.661 37.9399C77.5078 37.8803 77.378 37.7992 77.2706 37.6957C77.7625 37.8002 78.1374 37.6371 78.3931 37.2074C79.1867 36.2387 79.8045 35.1645 80.2477 33.9848C80.3668 33.2729 80.2848 32.5893 80.0036 31.934C79.4873 31.5317 79.0158 31.5971 78.5883 32.1293C77.9334 33.5375 77.2501 34.9379 76.5385 36.3285C76.4907 36.4545 76.4741 36.5854 76.4897 36.7192C76.4058 36.6254 76.3404 36.6254 76.2945 36.7192L76.5873 37.3051C76.4712 37.2865 76.3414 37.3354 76.1969 37.4516C76.3892 37.4994 76.5844 37.516 76.7825 37.5004C76.7894 37.8197 76.6264 37.9662 76.2945 37.9399C76.5317 37.9838 76.5483 38.0658 76.3433 38.184C76.273 38.0912 76.192 38.0746 76.0993 38.1352C76.3843 38.3471 76.4331 38.5912 76.2457 38.8676C76.1413 38.8002 76.028 38.7514 75.9041 38.7211C76.2008 38.686 76.234 38.6205 76.0017 38.5258C76.2252 38.4301 76.193 38.3481 75.9041 38.2817C75.8719 38.3471 75.8387 38.4115 75.8065 38.477C75.5536 38.2504 75.619 38.1205 76.0017 38.0863C75.9851 38.0541 75.9695 38.0209 75.9529 37.9887C75.8553 38.1186 75.7576 38.1186 75.66 37.9887C75.5907 38.0746 75.5097 38.1401 75.416 38.184C75.6542 37.7885 75.8826 37.3822 76.0993 36.9633C75.6991 35.9779 75.5361 34.9526 75.6112 33.8871C75.6757 32.4086 75.8553 30.9438 76.1481 29.4926C76.4448 28.3783 76.9007 27.3363 77.5146 26.3676C78.0144 25.6488 78.6332 25.518 79.3692 25.977C79.4141 25.9193 79.4307 25.8539 79.418 25.7817Z" fill="#2A3544"/>
<path fill-rule="evenodd" clip-rule="evenodd" d="M75.2217 22.9497C75.2929 23.0845 75.3583 23.2309 75.4169 23.3891C75.8503 23.5815 76.2407 23.8257 76.5882 24.1216C76.3149 24.2397 76.1031 24.435 75.9537 24.7075C75.7009 25.1147 75.4735 25.5386 75.2705 25.977C73.821 29.7934 73.4959 33.6997 74.2944 37.6958C74.4545 38.0337 74.6663 38.3266 74.9288 38.5747C74.9005 38.8921 74.7697 39.1528 74.5384 39.3559C74.5452 39.313 74.5286 39.2807 74.4896 39.2583L74.2456 39.5024C73.3651 39.6655 72.4867 39.6655 71.6101 39.5024C70.9005 39.2065 70.3959 38.7026 70.0972 37.9888C70.0123 37.2339 69.8981 36.6157 69.7556 36.1333C69.6423 34.8159 69.6257 33.4809 69.7068 32.1294C69.8307 30.9214 69.9771 29.7173 70.146 28.5161C70.2231 28.6245 70.2719 28.7544 70.2924 28.9067C70.5335 27.2055 71.0869 25.6098 71.9518 24.1216C72.3119 23.6069 72.7512 23.1675 73.2695 22.8032C73.9235 22.7798 74.5413 22.9263 75.1241 23.2427C75.2109 23.1626 75.2431 23.0649 75.2217 22.9497Z" fill="#1E2838"/>
<path fill-rule="evenodd" clip-rule="evenodd" d="M77.2709 37.6952C76.8346 37.5184 76.574 37.1922 76.4901 36.7186C76.4745 36.5848 76.491 36.454 76.5389 36.328C77.2504 34.9374 77.9337 33.537 78.5887 32.1288C79.0162 31.5965 79.4876 31.5311 80.004 31.9335C80.2851 32.5887 80.3671 33.2723 80.248 33.9842C79.8049 35.1639 79.187 36.2381 78.3934 37.2069C78.1377 37.6366 77.7629 37.7997 77.2709 37.6952Z" fill="#1A202D"/>
<path fill-rule="evenodd" clip-rule="evenodd" d="M52.1863 29.3945C52.5201 31.5342 52.2595 33.6172 51.4054 35.6445C52.0028 36.1279 52.5885 36.6328 53.1624 37.1582C52.1688 37.5322 51.3713 37.2549 50.771 36.3281C50.6265 36.0156 50.5933 35.6895 50.6734 35.3516C50.9799 34.9004 51.2083 34.4121 51.3566 33.8867C51.6026 32.3818 51.8789 30.8848 52.1863 29.3945Z" fill="#E88056"/>
<path fill-rule="evenodd" clip-rule="evenodd" d="M79.1259 37.0117C79.5173 39.8789 80.4124 42.5811 81.8102 45.1172C83.3016 47.5488 84.961 49.8604 86.7882 52.0508C87.8141 53.4522 88.6926 54.9492 89.4237 56.543C90.6575 59.2891 91.0801 62.1533 90.6926 65.1367C90.473 66.7783 89.9039 68.2764 88.9844 69.6289C88.6008 69.1699 88.552 68.6816 88.838 68.1641C90.1606 62.6973 88.9405 57.9766 85.1777 54.0039C86.7121 56.4766 87.6062 59.1787 87.8619 62.1094C87.9273 63.3789 87.9273 64.6484 87.8619 65.918C87.8297 66.0156 87.7965 66.1133 87.7643 66.2109C87.5018 65.6201 87.1933 65.0664 86.837 64.5508C86.1323 63.5527 85.3514 62.6084 84.4944 61.7188C84.4339 61.6084 84.3519 61.5107 84.2504 61.4258C83.8883 59.6221 83.367 57.8643 82.6887 56.1523C81.8121 54.3975 80.9336 52.6397 80.0532 50.8789C78.2943 47.0957 77.2694 43.124 76.9785 38.9648C77.0439 38.835 77.1415 38.7373 77.2713 38.6719C78.0454 38.2871 78.6642 37.7344 79.1259 37.0117Z" fill="#15233A"/>
<path fill-rule="evenodd" clip-rule="evenodd" d="M74.5384 39.3555C72.8751 41.5547 70.7277 43.1006 68.0961 43.9941C67.0947 44.3008 66.0864 44.5771 65.0703 44.8242H64.9727C67.1962 42.6875 68.8067 40.1484 69.8043 37.207C69.7936 36.8525 69.777 36.4941 69.7555 36.1328C69.898 36.6152 70.0122 37.2334 70.0971 37.9883C70.3958 38.7021 70.9005 39.2061 71.6101 39.502C72.4866 39.665 73.3651 39.665 74.2455 39.502L74.4896 39.2578C74.5286 39.2803 74.5452 39.3125 74.5384 39.3555Z" fill="#0E192A"/>
<path fill-rule="evenodd" clip-rule="evenodd" d="M39.8865 23.3398C39.3038 23.6318 38.7182 23.9248 38.1296 24.2188C38.1052 27.0566 38.2516 29.8887 38.5688 32.7148C38.7533 34.4766 39.0627 36.2012 39.4961 37.8906C39.9959 40.29 41.0373 42.4063 42.6196 44.2383C42.8402 44.5742 43.0842 44.8994 43.3517 45.2148C44.6421 46.4863 46.0906 47.5273 47.6953 48.3398C47.7792 49.1182 47.8124 49.8994 47.7929 50.6836C47.3839 50.8477 47.0423 51.1084 46.768 51.4648C45.8085 52.6855 44.848 53.9063 43.8885 55.127C43.4512 55.2783 43.0276 55.457 42.6196 55.6641C40.398 56.4658 38.1862 57.2959 35.9822 58.1543C33.6015 59.041 31.5361 60.3926 29.784 62.207C29.1232 62.9766 28.5863 63.8223 28.1734 64.7461H27.1973C26.925 63.2285 26.844 61.6982 26.9533 60.1563C27.2178 57.502 27.8367 54.9297 28.8079 52.4414C30.1285 49.292 31.4297 46.1338 32.7123 42.9688C33.2413 41.5 33.6483 40.0029 33.9324 38.4766C34.0007 38.416 34.0983 38.416 34.2252 38.4766C35.7918 39.1445 37.419 39.3564 39.1057 39.1113C38.6606 38.3711 38.2535 37.6064 37.8855 36.8164C36.6459 33.2705 36.4019 29.6572 37.1535 25.9766C36.9016 25.6436 36.5922 25.3506 36.2262 25.0977C35.9978 24.5576 35.8192 24.0049 35.6893 23.4375C35.9939 23.9814 36.3033 24.5352 36.6166 25.0977C37.6161 24.2813 38.7055 23.6953 39.8865 23.3398Z" fill="#0F192A"/>
<path fill-rule="evenodd" clip-rule="evenodd" d="M57.6518 40.332C57.8178 40.3164 57.9808 40.332 58.1399 40.3808C58.2395 40.4834 58.2551 40.5976 58.1887 40.7226C56.7333 42.7285 54.7655 43.5586 52.2833 43.2129C50.9012 42.8711 49.7787 42.1386 48.9158 41.0156C48.868 40.8896 48.8514 40.7588 48.867 40.625C51.4224 41.2265 53.9925 41.2754 56.5781 40.7715C56.9803 40.709 57.3375 40.5625 57.6518 40.332Z" fill="#D24432"/>
<path fill-rule="evenodd" clip-rule="evenodd" d="M42.6196 44.2383C41.0373 42.4063 39.9959 40.29 39.4961 37.8906C39.623 37.959 39.6874 38.1221 39.6913 38.3789C39.8572 38.3633 40.0203 38.3789 40.1794 38.4277C40.0212 38.5371 39.9236 38.6836 39.8865 38.8672C40.4683 40.8467 41.38 42.6367 42.6196 44.2383Z" fill="#EFE0C4"/>
<path fill-rule="evenodd" clip-rule="evenodd" d="M76.4901 36.7188C76.5741 37.1924 76.8347 37.5186 77.271 37.6953C77.3784 37.7988 77.5082 37.8799 77.6614 37.9395C77.3784 38.1064 77.2485 38.3506 77.271 38.6719C77.1412 38.7373 77.0436 38.835 76.9782 38.9648C73.7981 43.3447 69.5033 45.8516 64.0938 46.4844C64.2001 46.0391 64.2001 45.5996 64.0938 45.166C64.451 45.1104 64.777 44.9961 65.0698 44.8242C66.086 44.5771 67.0943 44.3008 68.0957 43.9941C70.7273 43.1006 72.8747 41.5547 74.5379 39.3555C74.7693 39.1523 74.9001 38.8916 74.9284 38.5742C75.1304 38.4961 75.2934 38.3662 75.4164 38.1836C75.5101 38.1396 75.5911 38.0742 75.6604 37.9883C75.758 38.1182 75.8557 38.1182 75.9533 37.9883C75.9699 38.0205 75.9855 38.0537 76.0021 38.0859C75.6194 38.1201 75.554 38.25 75.8069 38.4766C75.8391 38.4111 75.8722 38.3467 75.9045 38.2812C76.1934 38.3477 76.2256 38.4297 76.0021 38.5254C76.2344 38.6201 76.2012 38.6855 75.9045 38.7207C76.0284 38.751 76.1417 38.7998 76.2461 38.8672C76.4335 38.5908 76.3847 38.3467 76.0997 38.1348C76.1924 38.0742 76.2734 38.0908 76.3437 38.1836C76.5487 38.0654 76.5321 37.9834 76.2949 37.9395C76.6268 37.9658 76.7898 37.8193 76.7829 37.5C76.5848 37.5156 76.3896 37.5 76.1973 37.4512C76.3417 37.335 76.4716 37.2861 76.5877 37.3047L76.2949 36.7188C76.3408 36.625 76.4062 36.625 76.4901 36.7188Z" fill="#313B4B"/>
<path fill-rule="evenodd" clip-rule="evenodd" d="M64.8749 44.8239H65.0701C64.7773 44.9958 64.4513 45.11 64.094 45.1657C64.2004 45.5993 64.2004 46.0387 64.094 46.484V46.5817C63.607 46.9889 63.0535 47.2975 62.4347 47.5094C61.6948 47.6823 60.9461 47.7965 60.1897 47.8512C59.2673 48.0231 58.4698 47.7956 57.7982 47.1676C57.235 45.4479 57.8695 44.487 59.7016 44.2868C60.8378 44.1501 61.9759 44.1178 63.1179 44.1891C63.5181 44.3942 63.8598 44.6706 64.1428 45.0192C64.3917 44.9596 64.6358 44.8952 64.8749 44.8239Z" fill="#1E2737"/>
<path fill-rule="evenodd" clip-rule="evenodd" d="M64.8744 44.8245C64.6352 44.8958 64.3912 44.9602 64.1423 45.0198C63.8592 44.6711 63.5176 44.3948 63.1174 44.1897C61.9754 44.1184 60.8373 44.1506 59.7011 44.2874C57.869 44.4876 57.2345 45.4485 57.7977 47.1682C58.4693 47.7961 59.2667 48.0237 60.1891 47.8518C60.1433 47.9895 60.0457 48.054 59.8963 48.0471C59.0354 48.1301 58.3033 47.8694 57.7001 47.2659C57.0471 45.5305 57.6494 44.5051 59.5059 44.1897C60.4146 44.0813 61.3253 43.9993 62.2389 43.9456C63.0003 43.9036 63.6191 44.1799 64.0935 44.7756C64.3736 44.7756 64.6343 44.7932 64.8744 44.8245Z" fill="#F0E2C2"/>
<path fill-rule="evenodd" clip-rule="evenodd" d="M64.0937 46.582V50.0977H63.996C62.3923 51.4707 60.6354 52.626 58.7251 53.5645C55.7608 54.915 52.8647 54.7852 50.0379 53.1738C49.341 52.6885 48.6577 52.1836 47.9881 51.6602C47.9227 51.3203 47.8583 50.9951 47.7929 50.6836C47.8124 49.8994 47.7793 49.1182 47.6953 48.3398C48.2858 48.5537 48.8715 48.7979 49.4523 49.0723C53.1009 50.332 56.5826 49.9902 59.8965 48.0469C60.0458 48.0537 60.1434 47.9893 60.1893 47.8516C60.9458 47.7969 61.6944 47.6826 62.4343 47.5098C63.0531 47.2979 63.6066 46.9893 64.0937 46.582Z" fill="#F2A57C"/>
<path fill-rule="evenodd" clip-rule="evenodd" d="M63.9956 50.0977H64.0932C64.507 50.3643 64.8809 50.6895 65.2157 51.0742C66.1293 52.3613 67.1542 53.5332 68.2904 54.5898C68.1459 54.6533 67.9995 54.6855 67.8511 54.6875C67.6676 55.6191 67.4236 56.5303 67.119 57.4219C65.9253 61.3594 63.9399 64.8262 61.1649 67.8223C60.9824 67.9785 60.7871 68.0762 60.5792 68.1152C59.5475 67.04 58.507 65.9824 57.4557 64.9414C56.586 63.8105 55.6099 62.7695 54.5275 61.8164C54.3196 61.9111 54.1243 62.0244 53.9418 62.1582L51.404 64.6973C49.7446 64.7461 48.0853 64.7627 46.4259 64.7461C46.4425 64.6494 46.4103 64.584 46.3283 64.5508C45.4947 62.7002 44.8768 60.7793 44.4737 58.7891C44.2736 57.6553 44.095 56.5156 43.9369 55.3711C43.8968 55.3262 43.848 55.2939 43.7905 55.2734C43.4439 55.4629 43.0867 55.626 42.7167 55.7617C42.6572 55.75 42.625 55.7168 42.6191 55.6641C43.0271 55.457 43.4508 55.2783 43.8881 55.127C44.8476 53.9063 45.808 52.6855 46.7675 51.4648C47.0418 51.1084 47.3834 50.8477 47.7924 50.6836C47.6646 52.7891 48.2014 54.71 49.403 56.4453C50.3391 57.9688 51.4938 59.3193 52.8681 60.498C53.4079 60.9473 53.9935 61.3213 54.6251 61.6211C55.7066 61.2266 56.6827 60.6572 57.5533 59.9121C60.1829 57.7051 62.3469 55.1172 64.0444 52.1484C64.1215 51.457 64.1058 50.7734 63.9956 50.0977Z" fill="#FAFCFD"/>
<path fill-rule="evenodd" clip-rule="evenodd" d="M63.997 50.0977C64.1073 50.7734 64.1229 51.457 64.0458 52.1484C62.3483 55.1172 60.1843 57.7051 57.5548 59.9121C56.6841 60.6572 55.708 61.2266 54.6265 61.6211C53.9949 61.3213 53.4093 60.9473 52.8695 60.498C51.4952 59.3193 50.3405 57.9688 49.4044 56.4453C48.2028 54.71 47.666 52.7891 47.7938 50.6836C47.8592 50.9951 47.9237 51.3203 47.9891 51.6602C48.6587 52.1836 49.3419 52.6885 50.0388 53.1738C52.8656 54.7852 55.7617 54.915 58.7261 53.5645C60.6363 52.626 62.3932 51.4707 63.997 50.0977Z" fill="#FECEAF"/>
<path fill-rule="evenodd" clip-rule="evenodd" d="M76.9782 38.9648C77.269 43.124 78.2939 47.0957 80.0528 50.8789C80.9333 52.6396 81.8118 54.3975 82.6883 56.1523C83.3667 57.8643 83.8879 59.6221 84.25 61.4258C84.3516 61.5107 84.4335 61.6084 84.4941 61.7188C82.8162 60.4717 80.9948 59.4463 79.028 58.6426C75.4428 57.3008 71.8634 55.9492 68.2909 54.5898C67.1548 53.5332 66.1299 52.3613 65.2163 51.0742C64.8815 50.6895 64.5076 50.3643 64.0938 50.0977V46.4844C69.5033 45.8516 73.7981 43.3447 76.9782 38.9648Z" fill="#0E192A"/>
<path fill-rule="evenodd" clip-rule="evenodd" d="M44.4746 58.7891C44.4121 58.8477 44.3799 58.9287 44.377 59.0332C44.6991 60.8887 45.0895 62.7275 45.5483 64.5508H46.3291C46.4111 64.584 46.4433 64.6494 46.4267 64.7461H28.1738C28.5867 63.8223 29.1236 62.9766 29.7844 62.207C31.5365 60.3926 33.6019 59.041 35.9826 58.1543C38.1866 57.2959 40.3984 56.4658 42.62 55.6641C42.6258 55.7168 42.6581 55.75 42.7176 55.7617C43.0875 55.626 43.4448 55.4629 43.7913 55.2734C43.8489 55.2939 43.8977 55.3262 43.9377 55.3711C44.0958 56.5156 44.2745 57.6553 44.4746 58.7891Z" fill="#CEE1ED"/>
<path fill-rule="evenodd" clip-rule="evenodd" d="M57.4566 64.9414C57.2936 65.0391 57.1638 65.1689 57.0662 65.332C56.7773 65.6699 56.4678 65.9961 56.1389 66.3086C56.1223 66.4385 56.1067 66.5693 56.0901 66.6992C56.5899 71.3447 56.9803 76 57.2614 80.6641C56.4552 76.25 55.6909 71.7578 54.9676 67.1875C54.8768 66.1729 54.4044 65.4072 53.5523 64.8926C53.1521 64.7939 52.746 64.7451 52.3321 64.7461C47.6967 64.8398 43.0602 64.8721 38.4228 64.8438C35.0221 64.876 31.639 64.8438 28.2715 64.7461H46.4268C48.0861 64.7627 49.7455 64.7461 51.4049 64.6973L53.9427 62.1582C54.1252 62.0244 54.3204 61.9111 54.5284 61.8164C55.6108 62.7695 56.5869 63.8105 57.4566 64.9414Z" fill="#601A7E"/>
<path fill-rule="evenodd" clip-rule="evenodd" d="M44.4746 58.7891C44.8777 60.7793 45.4956 62.7002 46.3291 64.5508H45.5483C45.0895 62.7275 44.6991 60.8887 44.377 59.0332C44.3799 58.9287 44.4121 58.8477 44.4746 58.7891Z" fill="#A9C4DB"/>
<path fill-rule="evenodd" clip-rule="evenodd" d="M88.9845 69.6289C88.925 69.7158 88.8927 69.8135 88.8869 69.9219C88.3403 68.0879 87.657 66.2969 86.8371 64.5508C87.1934 65.0664 87.5018 65.6201 87.7644 66.2109C87.7966 66.1133 87.8298 66.0156 87.862 65.918C87.9274 64.6484 87.9274 63.3789 87.862 62.1094C87.6063 59.1787 86.7122 56.4766 85.1777 54.0039C88.9406 57.9766 90.1607 62.6973 88.8381 68.1641C88.5521 68.6816 88.6009 69.1699 88.9845 69.6289Z" fill="#0D1828"/>
<path fill-rule="evenodd" clip-rule="evenodd" d="M27.1979 64.7465H28.2716C31.6391 64.8441 35.0222 64.8764 38.4229 64.8441C38.3097 64.9857 38.3585 65.0834 38.5694 65.1371C38.6299 65.2299 38.6133 65.3109 38.5206 65.3812C38.6182 65.4135 38.7158 65.4467 38.8134 65.4789C38.4229 65.5111 38.0325 65.5443 37.6421 65.5766C37.7319 65.6039 37.7963 65.6527 37.8373 65.723C27.8245 65.7201 17.8196 65.7201 7.82247 65.723C7.77757 65.6654 7.76098 65.6 7.77367 65.5277C7.94058 65.1488 8.2334 64.9047 8.65215 64.7953C14.8337 64.7465 21.0163 64.7299 27.1979 64.7465Z" fill="#703CA6"/>
<path fill-rule="evenodd" clip-rule="evenodd" d="M67.1201 57.4219C66.1762 61.7998 64.224 65.6895 61.2635 69.0918C61.0966 69.2627 60.9014 69.3281 60.6779 69.2871C59.367 68.2363 58.1147 67.1133 56.9199 65.918C56.9229 65.7305 57.0039 65.5684 57.1639 65.4297C57.1522 65.3701 57.119 65.3379 57.0663 65.332C57.1639 65.1689 57.2938 65.0391 57.4568 64.9414C58.508 65.9824 59.5485 67.04 60.5803 68.1152C60.7882 68.0762 60.9834 67.9785 61.1659 67.8223C63.9409 64.8262 65.9263 61.3594 67.1201 57.4219Z" fill="#ABC6DC"/>
<path fill-rule="evenodd" clip-rule="evenodd" d="M68.291 54.5898C71.8635 55.9492 75.4428 57.3008 79.028 58.6426C80.9948 59.4463 82.8162 60.4717 84.4941 61.7188C85.3511 62.6084 86.132 63.5527 86.8367 64.5508C87.6566 66.2969 88.3399 68.0879 88.8865 69.9219C88.8592 70.1084 88.8914 70.2715 88.9841 70.4102C90.2101 75.7129 91.4302 81.0186 92.6445 86.3281C92.7274 86.8193 92.7928 87.3076 92.8397 87.793C92.0783 88.6523 91.2809 89.4824 90.4483 90.2832C87.0163 93.2861 83.2418 95.7764 79.1256 97.7539C79.4594 95.3486 78.9226 93.167 77.5151 91.2109C76.4482 89.9697 75.0973 89.5147 73.4643 89.8438C72.4443 89.8106 71.436 89.8916 70.4384 90.0879L69.7551 90.4297C68.1202 89.8828 66.4608 89.4102 64.7771 89.0137C63.4945 88.668 62.2256 88.7012 60.9703 89.1113C60.2246 89.3223 59.5091 89.5986 58.8229 89.9414C58.207 86.8633 57.6867 83.7715 57.2612 80.6641C56.98 76 56.5896 71.3447 56.0898 66.6992C56.1064 66.5693 56.1221 66.4385 56.1386 66.3086C56.4676 65.9961 56.777 65.6699 57.0659 65.332C57.1186 65.3379 57.1518 65.3701 57.1635 65.4297C57.0035 65.5684 56.9224 65.7305 56.9195 65.918C58.1143 67.1133 59.3666 68.2363 60.6775 69.2871C60.901 69.3281 61.0962 69.2627 61.2631 69.0918C64.2236 65.6895 66.1758 61.7998 67.1197 57.4219C67.4242 56.5303 67.6682 55.6191 67.8517 54.6875C68.0001 54.6855 68.1465 54.6533 68.291 54.5898Z" fill="#CDE0ED"/>
<path fill-rule="evenodd" clip-rule="evenodd" d="M7.77345 65.5273C7.76076 65.5996 7.77735 65.665 7.82225 65.7227C17.8194 65.7197 27.8243 65.7197 37.8371 65.7227C42.7829 65.7061 47.7278 65.7227 52.6737 65.7715C53.23 66.1006 53.6049 66.5723 53.7962 67.1875C55.3472 76.5645 56.9421 85.9395 58.579 95.3125C58.6444 95.6377 58.6444 95.9639 58.579 96.2891C58.4404 96.3457 58.3594 96.4434 58.335 96.582C58.2696 96.582 58.2374 96.6143 58.2374 96.6797H24.1718C19.3157 94.0537 14.9399 90.7666 11.0434 86.8164C9.78224 80.377 8.54553 73.9316 7.3342 67.4805C7.26881 67.1221 7.26881 66.7646 7.3342 66.4063C7.38008 66.0537 7.52649 65.7607 7.77345 65.5273Z" fill="#5C2B91"/>
<path fill-rule="evenodd" clip-rule="evenodd" d="M57.262 80.6641C57.6876 83.7715 58.2079 86.8633 58.8238 89.9414C58.9165 90.8584 59.0463 91.7705 59.2142 92.6758C59.3011 93.1016 59.3987 93.5244 59.507 93.9453C59.5295 94.4727 59.4973 94.9932 59.4094 95.5078C59.3714 95.6816 59.306 95.8447 59.2142 95.9961C59.1322 96.0293 59.1 96.0947 59.1166 96.1914C58.8784 96.3643 58.6178 96.4951 58.3357 96.582C58.3601 96.4434 58.4411 96.3457 58.5797 96.2891C58.6451 95.9639 58.6451 95.6377 58.5797 95.3125C56.9428 85.9395 55.3479 76.5645 53.7969 67.1875C53.6056 66.5723 53.2308 66.1006 52.6744 65.7715C47.7285 65.7227 42.7837 65.7061 37.8378 65.7227C37.7968 65.6523 37.7324 65.6035 37.6426 65.5762C38.033 65.5439 38.4235 65.5107 38.8139 65.4785C38.7163 65.4463 38.6187 65.4131 38.5211 65.3809C38.6138 65.3105 38.6304 65.2295 38.5699 65.1367C38.359 65.083 38.3102 64.9854 38.4235 64.8438C43.0609 64.8721 47.6973 64.8398 52.3328 64.7461C52.7466 64.7461 53.1527 64.7939 53.5529 64.8926C54.405 65.4072 54.8774 66.1729 54.9682 67.1875C55.6915 71.7578 56.4558 76.25 57.262 80.6641Z" fill="#8042AA"/>
<path fill-rule="evenodd" clip-rule="evenodd" d="M31.1026 78.0273C33.4169 77.8427 34.9621 78.8524 35.7391 81.0546C36.1363 82.6288 35.7293 83.9472 34.5189 85.0097C32.0953 86.036 30.2895 85.3681 29.1016 83.0077C28.2739 80.7206 28.9406 79.0605 31.1026 78.0273Z" fill="#8249B2"/>
<path fill-rule="evenodd" clip-rule="evenodd" d="M80.8821 63.7695C77.9128 69.1475 76.6927 74.9424 77.2217 81.1523C77.5555 83.7647 77.9294 86.3682 78.3442 88.9648C80.7396 88.6104 83.1476 88.4971 85.5673 88.623C85.8894 88.6709 86.1822 88.7842 86.4458 88.9648C85.7137 89.166 84.966 89.2803 84.2008 89.3066C81.3174 89.4922 78.4379 89.6387 75.5624 89.7461C75.5292 84.0801 75.9518 78.4492 76.8313 72.8516C77.3525 70.1787 78.2964 67.6719 79.6619 65.332C80.0455 64.791 80.4526 64.2695 80.8821 63.7695Z" fill="#95B5D0"/>
<path fill-rule="evenodd" clip-rule="evenodd" d="M69.7545 90.4301C69.9517 90.5688 70.1791 90.6342 70.4378 90.6254C71.0488 90.8842 71.6667 91.1449 72.2923 91.4067C73.7926 93.6449 74.0532 96.0209 73.0732 98.5356H72.878C72.8126 98.5356 72.7804 98.5033 72.7804 98.4379C73.0771 97.7455 73.1425 97.0297 72.9756 96.2895C72.9688 96.103 72.8712 95.9887 72.6828 95.9477C71.3494 95.8989 70.0151 95.8823 68.6808 95.8989C67.5641 95.1449 66.3606 94.5424 65.0693 94.0922C64.9511 94.0053 64.9511 93.9233 65.0693 93.8481C65.3592 93.6069 65.6852 93.4281 66.0453 93.311C65.3728 93.1801 64.755 93.31 64.1908 93.7016C63.326 94.4203 62.4797 95.1528 61.6529 95.8989C60.9043 95.9155 60.1556 95.8989 59.4079 95.85C59.5338 95.724 59.5338 95.6098 59.4079 95.5082C59.4958 94.9936 59.528 94.4731 59.5055 93.9457C60.2698 93.1977 61.0507 92.4653 61.8482 91.7485C62.3235 91.4291 62.8116 91.1362 63.3123 90.8696C62.8076 90.7983 62.3196 90.8637 61.8482 91.0649C60.9296 91.5463 60.0512 92.0834 59.2127 92.6762C59.0448 91.7709 58.915 90.8588 58.8223 89.9418C59.5085 89.599 60.2239 89.3227 60.9697 89.1117C62.2249 88.7016 63.4938 88.6684 64.7764 89.0141C66.4602 89.4106 68.1195 89.8832 69.7545 90.4301Z" fill="#FEC9A6"/>
<path fill-rule="evenodd" clip-rule="evenodd" d="M79.1263 97.754C78.611 98.0928 78.0585 98.3536 77.467 98.5352H74.6363C75.2766 96.042 74.8862 93.7315 73.465 91.6016C72.6431 90.6856 71.6348 90.3604 70.4391 90.6251C70.1805 90.6338 69.953 90.5684 69.7559 90.4297L70.4391 90.0879C71.4367 89.8917 72.445 89.8106 73.465 89.8438C75.098 89.5147 76.4489 89.9698 77.5158 91.211C78.9233 93.167 79.4602 95.3487 79.1263 97.754Z" fill="#FCFDFD"/>
<path fill-rule="evenodd" clip-rule="evenodd" d="M73.4653 91.6008C73.0749 91.5353 72.6845 91.4709 72.294 91.4055C71.6684 91.1437 71.0505 90.883 70.4395 90.6242C71.6352 90.3596 72.6435 90.6847 73.4653 91.6008Z" fill="#99B9D4"/>
<path fill-rule="evenodd" clip-rule="evenodd" d="M59.5057 93.9459C59.3974 93.525 59.2998 93.1021 59.2129 92.6763C60.0514 92.0836 60.9298 91.5465 61.8483 91.065C62.3198 90.8638 62.8078 90.7984 63.3125 90.8697C62.8117 91.1363 62.3237 91.4293 61.8483 91.7486C61.0509 92.4654 60.27 93.1978 59.5057 93.9459Z" fill="#F5A477"/>
<path fill-rule="evenodd" clip-rule="evenodd" d="M72.293 91.4062C72.6834 91.4717 73.0738 91.5361 73.4643 91.6016C74.8855 93.7314 75.2759 96.042 74.6356 98.5352H73.0738C74.0538 96.0205 73.7932 93.6445 72.293 91.4062Z" fill="#F7A77A"/>
<path fill-rule="evenodd" clip-rule="evenodd" d="M68.6822 95.8989H61.6543C62.481 95.1528 63.3273 94.4203 64.1921 93.7016C64.7563 93.31 65.3742 93.1801 66.0467 93.311C65.6865 93.4281 65.3605 93.6069 65.0706 93.8481C64.9525 93.9233 64.9525 94.0053 65.0706 94.0922C66.362 94.5424 67.5655 95.1449 68.6822 95.8989Z" fill="#F5A679"/>
<path fill-rule="evenodd" clip-rule="evenodd" d="M59.4081 95.5078C59.534 95.6094 59.534 95.7236 59.4081 95.8496C60.1558 95.8984 60.9045 95.915 61.6531 95.8984H68.681C70.0153 95.8818 71.3496 95.8984 72.683 95.9473C72.8713 95.9883 72.969 96.1025 72.9758 96.2891H72.8782C72.8235 96.1631 72.7259 96.082 72.5853 96.0449C68.1285 95.9961 63.6707 95.9795 59.2129 95.9961C59.3046 95.8447 59.37 95.6816 59.4081 95.5078Z" fill="#FFE195"/>
<path fill-rule="evenodd" clip-rule="evenodd" d="M59.2132 95.9965C63.671 95.9799 68.1288 95.9965 72.5856 96.0453C72.7262 96.0824 72.8238 96.1635 72.8784 96.2894C72.8433 96.517 72.7779 96.5004 72.6832 96.2406C68.2264 96.1918 63.7686 96.1752 59.3108 96.1918H59.1156C59.099 96.0951 59.1312 96.0297 59.2132 95.9965Z" fill="#2E0A72"/>
<path fill-rule="evenodd" clip-rule="evenodd" d="M59.3105 96.1918C63.7683 96.1752 68.2261 96.1918 72.683 96.2406C72.7776 96.5004 72.843 96.517 72.8782 96.2894H72.9758C73.1427 97.0297 73.0773 97.7455 72.7806 98.4379C72.5814 98.6654 72.3208 98.7797 71.9997 98.7797C69.8201 98.8285 67.6405 98.8451 65.4599 98.8285C63.3945 98.7309 61.3125 98.6986 59.2129 98.7309C59.4423 98.5492 59.6209 98.3217 59.7497 98.0473C59.8229 97.5521 59.7907 97.0639 59.6521 96.5824C59.5448 96.4408 59.4306 96.3109 59.3105 96.1918Z" fill="#451E75"/>
<path fill-rule="evenodd" clip-rule="evenodd" d="M24.1719 96.6797H58.2375C46.9958 96.7119 35.7708 96.8096 24.5623 96.9727C24.3934 96.9209 24.2636 96.8232 24.1719 96.6797Z" fill="#2E1444"/>
<path fill-rule="evenodd" clip-rule="evenodd" d="M59.1161 96.1914H59.3114C59.4314 96.3105 59.5456 96.4404 59.653 96.582C59.7916 97.0635 59.8238 97.5518 59.7506 98.0469C59.6218 98.3213 59.4431 98.5488 59.2138 98.7305C48.9814 98.6631 38.7646 98.6631 28.5645 98.7305H28.2716C27.0096 98.1963 25.7729 97.6104 24.5625 96.9727C35.771 96.8096 46.996 96.7119 58.2377 96.6797C58.2377 96.6143 58.2699 96.582 58.3353 96.582C58.6174 96.4951 58.878 96.3643 59.1161 96.1914Z" fill="#3D1A5D"/>
<path fill-rule="evenodd" clip-rule="evenodd" d="M72.8789 98.5352H77.4665C77.327 98.6367 77.1639 98.7012 76.9785 98.7305C75.612 98.665 74.2454 98.6006 72.8789 98.5352Z" fill="#171A27"/>
<path fill-rule="evenodd" clip-rule="evenodd" d="M28.5645 98.7302C38.7646 98.6628 48.9814 98.6628 59.2137 98.7302C61.3133 98.698 63.3953 98.7302 65.4607 98.8279C53.162 98.8503 40.8632 98.8171 28.5645 98.7302Z" fill="#310D6A"/>
<path fill-rule="evenodd" clip-rule="evenodd" d="M72.7813 98.4375C72.7813 98.5029 72.8135 98.5352 72.8789 98.5352C74.2454 98.6006 75.6119 98.665 76.9785 98.7305C76.0941 99.2051 75.1825 99.6289 74.2454 100H31.1022C30.1505 99.5957 29.2066 99.1729 28.2715 98.7305H28.5643C40.8631 98.8174 53.1618 98.8506 65.4606 98.8281C67.6412 98.8447 69.8208 98.8281 72.0004 98.7793C72.3215 98.7793 72.5821 98.665 72.7813 98.4375Z" fill="#7D5850"/>
</svg>
