<svg width="24" height="24" viewBox="0 0 24 24" fill="none" xmlns="http://www.w3.org/2000/svg">
<path d="M21.9601 9.73L20.5301 4.73C20.4719 4.52009 20.3465 4.33503 20.1731 4.20318C19.9998 4.07133 19.7879 3.99996 19.5701 4H4.43009C3.98009 4 3.59009 4.3 3.47009 4.73L2.04009 9.73C1.86009 10.36 2.34009 11 3.00009 11H5.20009L4.15009 18.88C4.1289 19.0106 4.13413 19.1441 4.16545 19.2726C4.19678 19.4011 4.25358 19.5221 4.33247 19.6283C4.41137 19.7344 4.51077 19.8237 4.62479 19.8908C4.73881 19.9579 4.86513 20.0014 4.99627 20.0188C5.12741 20.0362 5.2607 20.0271 5.38827 19.9921C5.51583 19.957 5.63507 19.8968 5.73893 19.8148C5.84278 19.7329 5.92914 19.6309 5.9929 19.515C6.05665 19.3991 6.0965 19.2716 6.11009 19.14L6.67009 15H17.3401L17.8901 19.14C17.9236 19.3769 18.0409 19.5939 18.2207 19.7517C18.4005 19.9095 18.6309 19.9976 18.8701 20C19.4701 20 19.9301 19.47 19.8501 18.88L18.8001 11H21.0001C21.6601 11 22.1401 10.36 21.9601 9.73ZM6.93009 13L7.20009 11H16.8001L17.0701 13H6.93009Z" fill="white"/>
</svg>
