<svg width="210" height="140" viewBox="0 0 210 140" fill="none" xmlns="http://www.w3.org/2000/svg">
<g clip-path="url(#clip0_2021_25428)">
<ellipse opacity="0.5" cx="102.775" cy="154.134" rx="93.7751" ry="90.1338" fill="white"/>
<path fill-rule="evenodd" clip-rule="evenodd" d="M180.947 116.825C181.948 115.551 182.495 114.092 182.588 112.45C184.635 112.201 186.252 111.244 187.442 109.579C189.015 107.362 189.607 104.901 189.219 102.196C188.847 100.307 188.232 98.5064 187.373 96.7959C188.652 95.5174 189.722 94.0819 190.586 92.4892C192.039 89.0193 191.721 85.7381 189.629 82.6455C188.486 81.2515 187.187 80.021 185.733 78.9541C185.13 78.2821 184.605 77.553 184.16 76.7666C183.943 75.4552 183.898 74.1336 184.024 72.8017C185.269 69.4754 184.767 66.4675 182.52 63.7783C180.926 62.0917 179.171 60.6107 177.256 59.3349C176.341 58.6038 175.635 57.7151 175.137 56.6689C174.932 55.3965 174.75 54.1203 174.59 52.8408C174.401 52.2346 174.173 51.642 173.906 51.0634C173.342 50.3615 172.727 49.7006 172.061 49.081C170.52 48.1781 169.358 46.9248 168.574 45.3213C168.373 44.5104 168.328 43.6901 168.438 42.8603C168.71 42.7471 168.915 42.5649 169.053 42.3134C171.065 40.5846 171.908 38.3971 171.582 35.7509C170.967 33.3816 169.44 32.265 167.002 32.4013C165.539 32.8391 164.309 33.6366 163.311 34.7939C161.954 33.6879 160.814 32.389 159.893 30.8974C156.632 29.9742 153.716 28.4476 151.143 26.3174C151.232 26.2758 151.323 26.2303 151.416 26.1806C152.001 26.3612 152.595 26.5208 153.194 26.6592C153.472 26.8927 153.701 27.1661 153.877 27.4795C154.3 27.5599 154.527 27.3776 154.561 26.9326C154.369 26.1477 153.914 25.5551 153.194 25.1552C152.582 24.8948 151.945 24.7809 151.279 24.8134C150.569 24.8084 149.885 24.8996 149.229 25.0869C147.155 22.9017 145.674 20.3497 144.785 17.4306C143.895 20.4769 142.278 23.029 139.932 25.0869C139.695 25.2071 139.445 25.2983 139.18 25.3603C137.949 25.0654 136.787 25.2248 135.694 25.8388C135.02 26.3734 134.883 26.9886 135.283 27.6845C135.707 27.4661 136.072 27.1698 136.377 26.7959C137.059 26.5643 137.743 26.4959 138.428 26.5908C137.9 27.1397 137.308 27.6182 136.651 28.0263C135.379 28.7302 134.103 29.3911 132.822 30.0088C131.526 30.1981 130.25 30.4716 128.994 30.8291C127.773 26.5131 128.206 22.3659 130.293 18.3877C134.345 11.2165 140.475 8.02639 148.682 8.81735C151.765 8.1659 154.864 8.09754 157.979 8.61227C166.675 10.6554 172.121 16.0103 174.317 24.6767C174.712 26.7307 175.122 28.7814 175.547 30.8291C175.699 31.4073 175.927 31.9541 176.231 32.4697C177.73 34.6534 179.621 36.4079 181.904 37.7334C185.73 41.1848 187.347 45.4915 186.758 50.6533C186.967 51.9603 187.582 53.0312 188.604 53.8662C189.789 54.5498 190.973 55.2334 192.158 55.917C196.882 58.8706 199.001 63.1317 198.516 68.7002C198.264 70.0682 198.014 71.4354 197.764 72.8017C197.799 73.9439 198.255 74.8782 199.131 75.6045C201.001 76.6897 202.62 78.0798 203.985 79.7744C207.068 84.4138 207.706 89.3812 205.899 94.6767C204.356 99.2496 201.28 102.212 196.67 103.563C196.609 105.497 196.22 107.366 195.508 109.169C192.608 115.551 187.755 118.103 180.947 116.825Z" fill="#792802"/>
<path fill-rule="evenodd" clip-rule="evenodd" d="M70.3415 32.1968C70.2165 30.9295 70.1025 29.6534 69.9997 28.3686C69.7929 27.135 69.2916 26.0413 68.4958 25.0874C67.8572 24.335 67.1964 23.6059 66.5134 22.8999C66.4821 22.512 66.4592 22.1019 66.445 21.6694C66.2553 21.5253 66.0502 21.5026 65.8298 21.6011C63.6277 24.6403 60.8478 27.0102 57.4899 28.7104C52.9714 30.7813 48.2318 32.0573 43.2712 32.5386C43.1986 32.8897 43.1531 33.2315 43.1345 33.564C42.7333 34.216 42.2093 34.7628 41.5622 35.2046C40.7191 34.4526 39.8761 33.7007 39.0329 32.9487C36.6205 31.7932 34.8203 32.4084 33.6325 34.7944C32.6346 38.0442 33.4778 40.7103 36.1618 42.7925C37.0491 43.3186 38.0062 43.5237 39.0329 43.4077C39.0213 44.4455 38.8846 45.4481 38.6228 46.4155C37.2896 45.9086 36.0591 45.225 34.9314 44.3647C34.7952 45.2258 34.7495 46.0918 34.7946 46.9624C34.6922 45.9788 34.5783 44.9762 34.4528 43.9546C33.1104 42.7731 31.9255 41.4514 30.8981 39.9897C30.0324 38.3222 29.235 36.6359 28.5056 34.9311C27.0294 26.7591 29.308 19.8548 35.3415 14.2183C40.3561 10.3091 46.0526 8.66843 52.4314 9.29638C58.1954 9.84891 63.2997 11.9453 67.7439 15.5854C70.5899 18.1095 72.4356 21.2314 73.281 24.9507C73.7267 27.97 72.7468 30.3854 70.3415 32.1968Z" fill="#F07606"/>
<path fill-rule="evenodd" clip-rule="evenodd" d="M151.143 26.3179C150.451 26.3563 149.768 26.3108 149.092 26.1812C148.901 25.7799 148.947 25.4153 149.229 25.0875C149.885 24.9001 150.569 24.809 151.28 24.814C151.946 24.7815 152.583 24.8954 153.194 25.1558C153.914 25.5557 154.37 26.1483 154.561 26.9332C154.527 27.3782 154.3 27.5604 153.877 27.48C153.701 27.1667 153.473 26.8932 153.194 26.6597C152.595 26.5214 152.002 26.3618 151.416 26.1812C151.323 26.2308 151.232 26.2764 151.143 26.3179Z" fill="#571900"/>
<path fill-rule="evenodd" clip-rule="evenodd" d="M139.931 25.0879C139.975 25.5433 139.906 25.999 139.726 26.4551C139.307 26.5851 138.875 26.6306 138.427 26.5918C137.742 26.4969 137.058 26.5653 136.376 26.7969C136.071 27.1708 135.706 27.4671 135.282 27.6855C134.882 26.9896 135.019 26.3744 135.693 25.8398C136.786 25.2258 137.948 25.0664 139.179 25.3613C139.444 25.2993 139.694 25.2081 139.931 25.0879Z" fill="#551901"/>
<path fill-rule="evenodd" clip-rule="evenodd" d="M66.5137 22.8998C66.4248 22.8583 66.3336 22.8127 66.2402 22.7631C63.8739 25.7898 60.9573 28.1368 57.4902 29.8041C52.9025 31.8109 48.1173 33.0642 43.1348 33.5639C43.1534 33.2314 43.1989 32.8896 43.2715 32.5385C48.2321 32.0572 52.9717 30.7812 57.4902 28.7104C60.848 27.0101 63.6279 24.6403 65.8301 21.601C66.0505 21.5026 66.2555 21.5253 66.4453 21.6694C66.4595 22.1018 66.4824 22.512 66.5137 22.8998Z" fill="#D96102"/>
<path fill-rule="evenodd" clip-rule="evenodd" d="M132.822 30.0098C132.725 32.5607 132.68 35.1128 132.686 37.666C132.708 38.0786 132.685 38.4888 132.617 38.8965C132.526 37.6205 132.435 36.3444 132.344 35.0684C131.646 35.1876 131.031 35.0053 130.498 34.5215C129.889 33.3469 129.388 32.1165 128.994 30.8301C130.25 30.4726 131.526 30.1991 132.822 30.0098Z" fill="#631D00"/>
<path fill-rule="evenodd" clip-rule="evenodd" d="M130.498 34.5215C131.03 35.0053 131.646 35.1876 132.344 35.0684C132.435 36.3444 132.526 37.6205 132.617 38.8965C132.685 38.4888 132.708 38.0786 132.685 37.666C132.812 39.8606 133.268 42.0026 134.053 44.0918C134.004 44.7389 133.936 45.4225 133.847 46.1426C133.328 47.6361 132.736 49.0943 132.07 50.5176C131.782 51.7541 131.805 52.9845 132.138 54.209C132.699 55.285 133.223 56.3787 133.711 57.4902C134.022 58.6469 133.976 59.7863 133.574 60.9082C132.409 62.7573 130.996 64.3979 129.336 65.8301C126.384 69.2083 126.361 72.5807 129.267 75.9473C128.211 78.1971 127.117 80.4301 125.986 82.6465C126.003 82.7295 126.049 82.775 126.123 82.7832C124.794 85.5787 123.358 88.3131 121.816 90.9863C121.191 91.4761 120.485 91.7952 119.697 91.9434C119.331 91.3708 119.08 90.7329 118.945 90.0293C118.633 87.5751 119.043 85.2508 120.176 83.0566C120.963 81.709 121.852 80.433 122.842 79.2285C122.392 78.5545 121.982 77.8709 121.611 77.1777C122.103 77.0422 122.605 76.8827 123.115 76.6992C123.197 76.554 123.242 76.3946 123.252 76.2207C122.635 73.3428 121.997 70.4717 121.338 67.6074C122.449 64.7495 124.113 62.243 126.328 60.0879C127.381 58.7907 127.7 57.3325 127.285 55.7129C126.792 54.7724 126.336 53.8154 125.918 52.8418C125.025 50.1618 125.116 47.5185 126.191 44.9121C127.445 42.8601 128.63 40.7638 129.746 38.623C130.322 37.3163 130.572 35.9491 130.498 34.5215Z" fill="#792803"/>
<path fill-rule="evenodd" clip-rule="evenodd" d="M28.5059 34.9316C29.2353 36.6364 30.0327 38.3227 30.8984 39.9902C31.9257 41.4519 33.1107 42.7736 34.4531 43.9551C34.5786 44.9766 34.6925 45.9793 34.7949 46.9629C34.6914 48.8395 34.509 50.7079 34.248 52.5684C34.0713 52.8139 33.8662 53.0418 33.6328 53.252C33.6328 53.7988 33.6328 54.3457 33.6328 54.8926C30.9766 56.4774 28.6297 58.437 26.5918 60.7715C27.479 56.4921 28.4132 52.2082 29.3945 47.9199C29.558 46.9003 29.6719 45.8749 29.7363 44.8438C29.5698 43.191 29.228 41.5732 28.7109 39.9902C28.4755 39.2913 28.1337 38.6533 27.6855 38.0762C27.875 37.698 27.9207 37.3334 27.8223 36.9824C28.0269 36.2771 28.2548 35.5935 28.5059 34.9316Z" fill="#D96100"/>
<path fill-rule="evenodd" clip-rule="evenodd" d="M66.5131 22.9004C67.1961 23.6064 67.8569 24.3355 68.4955 25.0879C69.2914 26.0418 69.7926 27.1355 69.9994 28.3691C70.1022 29.6539 70.2163 30.93 70.3412 32.1973C70.5604 35.0749 70.492 37.946 70.1361 40.8105C67.7888 50.9228 61.5226 54.8877 51.3373 52.7051C48.7558 51.893 46.4316 50.617 44.3647 48.877C43.5119 48.2303 42.7145 47.5012 41.9721 46.6895C41.0919 45.7182 40.3171 44.6701 39.6479 43.5449C39.4625 43.4246 39.2574 43.3789 39.0326 43.4082C38.0059 43.5241 37.0488 43.3191 36.1615 42.793C33.4775 40.7107 32.6343 38.0447 33.6322 34.7949C34.8201 32.4089 36.6202 31.7937 39.0326 32.9492C39.8758 33.7012 40.7188 34.4531 41.5619 35.2051C42.209 34.7633 42.7331 34.2165 43.1342 33.5645C48.1168 33.0647 52.9019 31.8114 57.4897 29.8047C60.9567 28.1374 63.8733 25.7904 66.2397 22.7637C66.333 22.8133 66.4242 22.8588 66.5131 22.9004Z" fill="#F8C19B"/>
<path fill-rule="evenodd" clip-rule="evenodd" d="M36.436 35.6153C36.7762 35.5877 37.0954 35.6561 37.393 35.8204C38.2583 36.5033 38.919 37.3465 39.3754 38.3497C39.4435 38.8032 39.4663 39.2589 39.4438 39.7169C39.219 39.7462 39.0139 39.7005 38.8285 39.5802C38.4839 38.0718 37.6636 36.887 36.3676 36.0255C36.3033 35.8782 36.3262 35.7415 36.436 35.6153Z" fill="#E7935B"/>
<path fill-rule="evenodd" clip-rule="evenodd" d="M56.2599 32.3339C57.2058 32.2985 57.7754 32.7542 57.9689 33.7011C58.1167 34.5972 58.0255 35.4632 57.6954 36.2988C56.4375 37.2594 55.6627 36.9403 55.3712 35.3418C55.0778 34.1497 55.3741 33.1471 56.2599 32.3339Z" fill="#0B0806"/>
<path fill-rule="evenodd" clip-rule="evenodd" d="M66.9235 32.334C68.0058 32.4859 68.5072 33.1239 68.4274 34.248C68.4191 34.8283 68.2824 35.3752 68.0173 35.8887C67.4879 36.4294 66.9639 36.4294 66.445 35.8887C65.7102 34.5659 65.8697 33.381 66.9235 32.334Z" fill="#0D0A07"/>
<path fill-rule="evenodd" clip-rule="evenodd" d="M149.229 25.0879C148.947 25.4157 148.901 25.7804 149.092 26.1816C149.768 26.3112 150.451 26.3568 151.143 26.3184C153.716 28.4486 156.632 29.9752 159.893 30.8984C160.815 32.39 161.955 33.6889 163.311 34.7949C164.309 33.6376 165.54 32.8401 167.002 32.4023C169.44 32.266 170.967 33.3826 171.583 35.752C171.908 38.3981 171.066 40.5856 169.053 42.3145C167.414 43.3303 165.637 43.6721 163.721 43.3398C162.976 44.5166 162.156 45.633 161.26 46.6895C160.724 47.2984 160.041 48.0047 159.209 48.8086C158.363 49.4508 157.543 50.1117 156.749 50.791C154.043 52.3332 151.127 53.108 147.999 53.1152C141.461 52.993 136.812 49.9852 134.053 44.0918C133.268 42.0026 132.813 39.8606 132.686 37.666C132.68 35.1128 132.726 32.5607 132.823 30.0098C134.103 29.3921 135.379 28.7312 136.651 28.0273C137.309 27.6192 137.901 27.1407 138.428 26.5918C138.877 26.6306 139.309 26.5851 139.727 26.4551C139.908 25.999 139.976 25.5433 139.932 25.0879C142.278 23.03 143.896 20.4779 144.786 17.4316C145.674 20.3507 147.155 22.9027 149.229 25.0879Z" fill="#F8C29B"/>
<path fill-rule="evenodd" clip-rule="evenodd" d="M142.256 36.0246C142.904 35.9782 143.086 36.2517 142.803 36.8449C142.259 37.2289 141.735 37.6391 141.231 38.0754C140.944 38.6155 140.967 39.1396 141.299 39.6476C141.707 39.9049 142.139 40.11 142.598 40.2629C142.746 40.637 142.632 40.865 142.256 40.9464C140.301 40.5003 139.733 39.3611 140.547 37.5285C141.143 37.0456 141.714 36.5442 142.256 36.0246Z" fill="#E8945F"/>
<path fill-rule="evenodd" clip-rule="evenodd" d="M167.822 35.6156C168.099 35.5935 168.373 35.6163 168.642 35.684C168.782 35.8274 168.804 35.9869 168.711 36.1625C167.636 36.5992 166.816 37.3283 166.25 38.35C166.114 38.7497 166.024 39.1599 165.976 39.5804C165.786 39.7245 165.581 39.7472 165.361 39.6488C165.145 38.7898 165.304 37.9922 165.839 37.2562C166.4 36.5812 167.06 36.0344 167.822 35.6156Z" fill="#E7935D"/>
<path fill-rule="evenodd" clip-rule="evenodd" d="M137.335 31.3765C137.922 31.2803 138.401 31.4626 138.77 31.9234C139.433 33.2222 139.388 34.4982 138.633 35.7515C137.791 36.3851 137.108 36.2483 136.583 35.3413C136.188 34.4032 136.142 33.4461 136.446 32.4703C136.624 31.9971 136.92 31.6324 137.335 31.3765Z" fill="#0C0806"/>
<path fill-rule="evenodd" clip-rule="evenodd" d="M150.459 31.3764C151.39 31.2824 151.96 31.6925 152.168 32.6069C152.552 33.8736 152.301 34.9902 151.416 35.9565C150.801 36.2801 150.277 36.1661 149.844 35.6147C149.338 34.6036 149.246 33.5553 149.57 32.4702C149.748 31.997 150.045 31.6324 150.459 31.3764Z" fill="#0C0806"/>
<path fill-rule="evenodd" clip-rule="evenodd" d="M65.9661 37.3926C67.0977 37.6506 67.9409 38.2886 68.4954 39.3066C68.7613 40.9072 68.1004 41.7048 66.513 41.6992C66.4416 41.6225 66.3961 41.5313 66.3763 41.4258C66.7137 41.0837 67.1012 40.7874 67.5384 40.5371C67.8702 39.7612 67.6651 39.146 66.9231 38.6914C66.5473 38.5379 66.2055 38.3328 65.8978 38.0762C65.8103 37.8349 65.8331 37.607 65.9661 37.3926Z" fill="#E8935D"/>
<path fill-rule="evenodd" clip-rule="evenodd" d="M153.604 42.7246C153.809 41.8596 153.513 41.2672 152.715 40.9473C151.159 41.3876 149.587 41.7521 147.998 42.041C149.435 41.5666 150.984 41.1564 152.646 40.8105C153.528 40.9534 153.893 41.4775 153.74 42.3828C153.717 42.6791 153.695 42.9752 153.672 43.2715C153.605 43.0947 153.582 42.9123 153.604 42.7246Z" fill="#F8DEB4"/>
<path fill-rule="evenodd" clip-rule="evenodd" d="M153.604 42.7246C153.478 43.5481 153.204 44.3229 152.783 45.0488C149.275 44.198 146.267 45.0639 143.76 47.6465C141.966 46.834 140.941 45.4668 140.684 43.5449C140.844 43.3854 141.002 43.226 141.162 43.0664C143.493 42.9406 145.772 42.5988 147.998 42.041C149.587 41.7521 151.159 41.3876 152.715 40.9473C153.513 41.2672 153.809 41.8596 153.604 42.7246Z" fill="#0A0806"/>
<path fill-rule="evenodd" clip-rule="evenodd" d="M60.3604 47.9199C59.747 46.646 58.79 45.7118 57.4893 45.1172C56.0056 44.3302 54.456 44.1252 52.8408 44.502C52.3902 43.5781 52.3447 42.6439 52.7041 41.6992C52.8721 41.5924 53.0544 41.5241 53.251 41.4941C56.6862 42.4214 60.1497 43.2188 63.6416 43.8867C64.16 44.1674 64.3195 44.6003 64.1201 45.1855C63.2327 46.5966 61.9795 47.5081 60.3604 47.9199Z" fill="#090705"/>
<path fill-rule="evenodd" clip-rule="evenodd" d="M60.3613 47.9193C56.9942 48.6739 54.4878 47.5346 52.8418 44.5014C54.457 44.1246 56.0066 44.3296 57.4902 45.1166C58.791 45.7112 59.748 46.6454 60.3613 47.9193Z" fill="#AA442C"/>
<path fill-rule="evenodd" clip-rule="evenodd" d="M152.783 45.0487C151.148 47.5519 148.824 48.6684 145.811 48.3983C145.059 48.2916 144.375 48.041 143.76 47.6463C146.267 45.0637 149.275 44.1979 152.783 45.0487Z" fill="#A8442B"/>
<path fill-rule="evenodd" clip-rule="evenodd" d="M134.053 44.0918C136.812 49.9852 141.46 52.993 147.998 53.1152C147.998 53.4799 147.998 53.8444 147.998 54.209C146.781 55.3786 145.779 56.7003 144.99 58.1738C144.855 58.1503 144.763 58.196 144.717 58.3105C142.054 59.2318 139.638 60.5761 137.471 62.3438C136.851 62.9178 136.281 63.5331 135.762 64.1895C134.61 65.8993 133.562 67.6766 132.617 69.5215C130.453 73.9415 128.288 78.362 126.123 82.7832C126.049 82.775 126.003 82.7295 125.986 82.6465C127.117 80.4301 128.211 78.1971 129.268 75.9473C126.361 72.5807 126.384 69.2083 129.336 65.8301C130.996 64.3979 132.409 62.7573 133.574 60.9082C133.977 59.7863 134.022 58.6469 133.711 57.4902C133.224 56.3787 132.699 55.285 132.139 54.209C131.805 52.9845 131.782 51.7541 132.07 50.5176C132.736 49.0943 133.328 47.6361 133.848 46.1426C133.936 45.4225 134.004 44.7389 134.053 44.0918Z" fill="#651F00"/>
<path fill-rule="evenodd" clip-rule="evenodd" d="M161.26 46.6895C161.375 47.968 161.511 49.244 161.67 50.5176C161.898 51.3618 161.83 52.1821 161.465 52.9785C158.792 56.149 155.488 58.3822 151.553 59.6777C151.188 59.6777 150.824 59.6777 150.459 59.6777C150.049 59.1538 149.57 58.6981 149.023 58.3105C148.699 57.8438 148.448 57.3424 148.271 56.8066C148.407 56.1955 148.452 55.5574 148.408 54.8926C151.792 54.7271 154.573 53.36 156.748 50.791C157.542 50.1117 158.363 49.4508 159.209 48.8086C160.04 48.0047 160.724 47.2984 161.26 46.6895Z" fill="#EEA271"/>
<path fill-rule="evenodd" clip-rule="evenodd" d="M44.3652 48.877C46.4321 50.617 48.7564 51.893 51.3379 52.7051C51.1313 52.9752 51.0174 53.2942 50.9961 53.6621C50.9723 54.3253 50.9039 54.9634 50.791 55.5762C50.9555 54.7739 50.6364 54.3866 49.834 54.4141C47.2999 53.1795 45.4769 51.3338 44.3652 48.877Z" fill="#DA814B"/>
<path fill-rule="evenodd" clip-rule="evenodd" d="M161.67 50.5176C162.317 50.683 162.842 51.0476 163.242 51.6113C164.138 52.7563 164.89 53.9868 165.498 55.3027C163.291 59.4766 160.147 62.9401 156.064 65.6934C155.587 65.193 155.132 64.6688 154.697 64.1211C154.481 64.1475 154.298 64.2614 154.15 64.4629C154.263 64.1956 154.286 63.9222 154.219 63.6426C153.329 62.3171 152.44 60.9954 151.553 59.6777C155.488 58.3822 158.792 56.149 161.465 52.9785C161.83 52.1821 161.898 51.3618 161.67 50.5176Z" fill="#EEE5DD"/>
<path fill-rule="evenodd" clip-rule="evenodd" d="M39.0333 43.407C39.2581 43.3778 39.4632 43.4234 39.6486 43.5437C40.3178 44.6689 41.0926 45.717 41.9728 46.6883C42.7152 47.5 43.5127 48.2291 44.3654 48.8758C45.477 51.3326 47.3 53.1783 49.8341 54.4129C50.6365 54.3854 50.9556 54.7727 50.7912 55.575C50.8367 55.6662 50.8823 55.7572 50.9279 55.8484C50.6667 57.002 50.5984 58.187 50.7228 59.4031C51.0196 61.41 51.3159 63.4151 51.6115 65.4187C51.6548 65.9932 51.6091 66.5401 51.4747 67.0594C50.4067 65.1066 49.1989 63.2382 47.8517 61.4539C44.548 59.0624 41.4946 56.3736 38.6915 53.3875C38.2936 52.9103 37.9289 52.4091 37.5978 51.8836C37.5702 51.3327 37.6841 50.8086 37.9396 50.3113C37.9084 50.2568 37.8628 50.2341 37.8029 50.2429C38.163 48.9894 38.4364 47.7134 38.6232 46.4148C38.885 45.4474 39.0217 44.4448 39.0333 43.407Z" fill="#EFA371"/>
<path fill-rule="evenodd" clip-rule="evenodd" d="M156.748 50.791C154.573 53.36 151.792 54.7271 148.408 54.8926C148.452 55.5574 148.407 56.1955 148.271 56.8066C148.191 55.9226 148.099 55.0566 147.998 54.209C147.998 53.8444 147.998 53.4799 147.998 53.1152C151.126 53.108 154.042 52.3332 156.748 50.791Z" fill="#DA814B"/>
<path fill-rule="evenodd" clip-rule="evenodd" d="M165.498 55.3027C165.613 55.4977 165.75 55.6801 165.908 55.8496C165.264 57.63 164.284 59.2706 162.969 60.7715C161.001 63.0139 158.791 64.9508 156.338 66.582C156.156 66.6732 155.973 66.6732 155.791 66.582C155.058 66.0104 154.511 65.3041 154.15 64.4629C154.298 64.2614 154.481 64.1475 154.697 64.1211C155.132 64.6688 155.587 65.193 156.064 65.6934C160.147 62.9401 163.291 59.4766 165.498 55.3027Z" fill="#CEC7BD"/>
<path fill-rule="evenodd" clip-rule="evenodd" d="M165.908 55.8496C168.988 57.116 171.86 58.7338 174.521 60.7031C177.821 63.8497 179.415 67.7235 179.307 72.3242C179.222 75.5356 178.812 78.703 178.076 81.8262C176.941 86.8263 175.529 91.7481 173.838 96.5918C173.723 96.6386 173.678 96.7296 173.701 96.8652C172.882 99.2325 171.765 101.466 170.352 103.564C169.781 104.134 169.213 104.704 168.643 105.273C169.306 105.297 169.944 105.366 170.557 105.479C169.176 105.358 167.945 105.7 166.865 106.504C164.214 107.858 161.435 108.861 158.525 109.512C153.582 110.711 148.568 111.417 143.486 111.631C145.298 107.982 145.456 104.108 143.965 100.01C143.675 99.3614 143.333 98.7462 142.939 98.1641C147.785 97.1109 152.525 95.6982 157.158 93.9258C157.806 93.6359 158.421 93.2941 159.004 92.9004C161.295 86.0345 163.278 79.0847 164.951 72.0508C165.028 71.5803 164.846 71.3981 164.404 71.5039C164.214 71.664 164.099 71.8691 164.062 72.1191C162.425 78.8974 160.511 85.5966 158.32 92.2168C156.458 93.2619 154.498 94.0822 152.441 94.6777C152.414 94.4204 152.346 94.1927 152.236 93.9941C152.007 84.923 152.075 75.854 152.441 66.7871C153.046 66.0259 153.614 65.2511 154.15 64.4629C154.511 65.3041 155.058 66.0104 155.791 66.582C155.973 66.6732 156.156 66.6732 156.338 66.582C158.791 64.9508 161.001 63.0139 162.969 60.7715C164.284 59.2706 165.264 57.63 165.908 55.8496Z" fill="#EDE5DC"/>
<path fill-rule="evenodd" clip-rule="evenodd" d="M147.997 54.209C148.098 55.0566 148.19 55.9226 148.27 56.8066C148.447 57.3424 148.698 57.8438 149.022 58.3105C149.569 58.6981 150.048 59.1538 150.458 59.6777C149.456 60.9082 148.452 62.1387 147.45 63.3691C146.907 63.5672 146.451 63.909 146.083 64.3945C145.949 64.4753 145.857 64.4297 145.81 64.2578C145.244 62.2632 144.97 60.2353 144.989 58.1738C145.778 56.7003 146.78 55.3786 147.997 54.209Z" fill="#EEE5DD"/>
<path fill-rule="evenodd" clip-rule="evenodd" d="M109.854 77.3141C110.348 77.1023 110.941 76.8972 111.631 76.6988C111.477 76.6648 111.34 76.5964 111.221 76.4938C111.268 76.3303 111.336 76.3303 111.426 76.4938C111.469 76.2475 111.56 76.202 111.699 76.357C111.846 76.2042 112.005 76.0675 112.178 75.9469C112.037 75.9748 111.9 75.9064 111.768 75.7418C111.928 75.6845 112.065 75.5935 112.178 75.4684C112.132 75.4455 112.087 75.4229 112.041 75.4C111.514 75.7599 110.967 75.8966 110.4 75.8102C112.265 75.518 112.926 74.4698 112.383 72.6656C111.839 71.7673 111.041 71.4028 109.99 71.5719C110.566 71.3672 111.136 71.4128 111.699 71.7086C111.588 71.3884 111.428 71.0693 111.221 70.7516C111.057 70.7989 111.057 70.8672 111.221 70.9567C110.986 71.004 110.758 71.0723 110.537 71.1617C110.492 71.1162 110.446 71.0705 110.4 71.025C110.753 70.657 110.662 70.4064 110.127 70.2731C110.719 70.2275 111.312 70.1819 111.904 70.1363C111.403 70.0908 110.902 70.0452 110.4 69.9996C110.792 69.9746 111.157 69.9063 111.494 69.7946C112.606 69.617 113.313 68.979 113.613 67.8805C113.808 66.0301 113.444 64.2985 112.52 62.6852C111.781 61.667 110.801 61.3252 109.58 61.6598C108.608 61.9711 108.061 62.6319 107.939 63.6422C107.854 63.5852 107.809 63.494 107.803 63.3688C107.935 63.0595 108.026 62.7405 108.076 62.4117C107.589 62.3598 107.27 62.0863 107.119 61.5914C107.386 61.1089 107.591 60.6531 107.734 60.2242C107.969 60.0397 108.22 59.8801 108.486 59.7457C108.317 59.714 108.18 59.6456 108.076 59.5406C110.441 58.9627 112.81 58.3932 115.186 57.8317C115.861 57.6445 116.43 57.8039 116.895 58.3102C118.046 63.4317 119.163 68.5586 120.244 73.691C120.285 74.338 120.012 74.7937 119.424 75.0582C116.263 75.9323 113.073 76.6842 109.854 77.3141Z" fill="#F6E7CC"/>
<path fill-rule="evenodd" clip-rule="evenodd" d="M144.718 58.3107C144.764 58.1961 144.856 58.1504 144.991 58.174C144.972 60.2354 145.245 62.2634 145.811 64.2579C145.859 64.4298 145.951 64.4755 146.085 64.3947C146.452 63.9092 146.909 63.5674 147.452 63.3693C147.452 63.4605 147.452 63.5515 147.452 63.6427C147.343 63.8412 147.274 64.069 147.247 64.3263C146.809 64.7186 146.421 65.1514 146.085 65.6251C145.865 65.7236 145.659 65.7009 145.469 65.5568C144.335 63.3419 144.015 61.0177 144.512 58.5841C144.615 58.4985 144.728 58.4302 144.854 58.379C144.823 58.3245 144.778 58.3018 144.718 58.3107Z" fill="#CFC8BE"/>
<path fill-rule="evenodd" clip-rule="evenodd" d="M144.717 58.3105C144.777 58.3016 144.822 58.3243 144.854 58.3788C144.728 58.43 144.614 58.4983 144.512 58.5839C144.014 61.0175 144.334 63.3417 145.469 65.5566C145.659 65.7007 145.864 65.7234 146.084 65.6249C146.42 65.1512 146.809 64.7183 147.246 64.3261C147.274 64.0688 147.342 63.841 147.451 63.6425C147.669 64.6131 147.942 65.5701 148.272 66.5136C145.403 73.0665 143.558 79.9025 142.735 87.0214C142.371 90.0206 142.121 93.0284 141.983 96.0448C141.87 96.4743 141.802 96.9301 141.778 97.412C141.708 95.4129 141.594 95.4129 141.436 97.412C140.313 97.7678 139.174 97.9045 138.018 97.8222C137.128 93.4842 136.193 89.1549 135.215 84.8339C134.925 82.9581 134.971 81.0896 135.352 79.2284C136.051 76.2642 137.099 73.4387 138.496 70.7519C138.626 70.4161 138.558 70.1427 138.291 69.9316C137.93 70.2883 137.634 70.6984 137.403 71.162C135.905 74.196 134.902 77.3862 134.395 80.7323C134.282 82.2871 134.327 83.8367 134.531 85.3808C135.282 88.7464 135.988 92.1188 136.651 95.498C135.872 96.6852 135.098 97.8702 134.326 99.0527C130.766 99.0085 127.485 99.9427 124.483 101.855C122.838 102.907 121.311 104.115 119.903 105.478C119.56 105.889 119.287 106.345 119.082 106.846C119.003 107.352 119.026 107.853 119.151 108.35C117.936 108.601 116.705 108.784 115.459 108.896C115.745 108.82 115.95 108.638 116.074 108.35C117.414 103.646 116.731 99.2714 114.024 95.2245C113.731 94.8383 113.366 94.5649 112.93 94.4042C112.816 94.4271 112.702 94.4497 112.588 94.4726C114.344 96.5489 115.415 98.9415 115.801 101.65C115.981 103.105 116.027 104.563 115.938 106.025C115.782 106.945 115.531 107.834 115.186 108.691C115.262 108.744 115.307 108.812 115.322 108.896C115.047 109.103 114.728 109.217 114.365 109.238C112.583 109.505 110.806 109.801 109.033 110.127C108.53 110.079 108.257 109.806 108.213 109.307C108.526 109.342 108.823 109.296 109.102 109.17C109.892 104.515 109.003 100.209 106.436 96.2499C106.11 96.1739 105.791 96.1966 105.479 96.3183C105.472 95.9366 105.654 95.686 106.026 95.5663C108.62 94.9057 111.217 94.3588 113.819 93.9257C115.834 93.3831 117.794 92.7222 119.697 91.9433C120.485 91.7951 121.192 91.476 121.817 90.9863C123.358 88.313 124.794 85.5786 126.123 82.7831C128.288 78.3619 130.453 73.9414 132.617 69.5214C133.562 67.6765 134.61 65.8992 135.762 64.1894C136.281 63.533 136.852 62.9178 137.471 62.3437C139.638 60.576 142.054 59.2317 144.717 58.3105Z" fill="#EDE5DC"/>
<path fill-rule="evenodd" clip-rule="evenodd" d="M50.9274 55.8496C52.0667 57.2168 53.2061 58.584 54.3454 59.9512C54.2443 59.9333 54.1532 59.9561 54.0719 60.0195C54.6764 61.3896 54.927 62.8251 54.8239 64.3262C54.3793 63.5398 53.8552 62.8106 53.2516 62.1387C53.0599 62.1886 52.9232 62.3026 52.8415 62.4805C52.4145 63.4684 52.0043 64.4483 51.611 65.4199C51.3154 63.4163 51.0191 61.4112 50.7223 59.4043C50.5979 58.1882 50.6663 57.0032 50.9274 55.8496Z" fill="#EDE4DB"/>
<path fill-rule="evenodd" clip-rule="evenodd" d="M109.033 78.6806C104.692 79.6644 100.363 80.6898 96.0449 81.7568C95.0538 82.0191 94.0513 82.1558 93.0371 82.1669C92.7966 82.0291 92.6371 81.824 92.5586 81.5517C92.1037 79.5044 91.6707 77.4537 91.2598 75.3993C91.4694 75.1608 91.7428 75.024 92.0801 74.9892C92.5099 76.7047 92.8972 78.4364 93.2422 80.1845C93.3751 80.4313 93.5346 80.6592 93.7207 80.8681C94.262 81.0267 94.8088 81.0495 95.3613 80.9364C98.9337 80.0434 102.488 79.1547 106.025 78.2704C107.337 78.0336 108.613 77.7147 109.854 77.3134C113.073 76.6835 116.263 75.9316 119.424 75.0575C120.012 74.793 120.285 74.3373 120.244 73.6903C119.163 68.5579 118.046 63.431 116.895 58.3095C116.43 57.8032 115.861 57.6438 115.186 57.831C112.81 58.3925 110.441 58.962 108.076 59.54C103.532 60.676 98.9749 61.7697 94.4043 62.8212C93.2055 63.0565 92.0206 63.3526 90.8496 63.7099C90.1052 63.9984 89.8546 64.5225 90.0977 65.2821C90.5186 66.9084 90.8604 68.549 91.123 70.204C90.8041 70.2952 90.485 70.3863 90.166 70.4775C89.7567 68.3836 89.3465 66.2873 88.9355 64.1884C88.9901 63.3361 89.4459 62.8576 90.3027 62.7528C96.295 61.3344 102.265 59.8988 108.213 58.4462C110.823 57.8962 113.421 57.281 116.006 56.6005C116.673 56.4347 117.243 56.5942 117.715 57.079C119.019 62.9309 120.272 68.7869 121.475 74.6474C121.571 75.3721 121.252 75.7823 120.518 75.8778C116.681 76.8045 112.852 77.7387 109.033 78.6806Z" fill="#E0C29A"/>
<path fill-rule="evenodd" clip-rule="evenodd" d="M108.213 58.4473C102.265 59.8999 96.295 61.3354 90.3027 62.7539C89.4459 62.8586 88.9901 63.3371 88.9355 64.1895C89.3465 66.2884 89.7567 68.3847 90.166 70.4785C89.8119 70.5357 89.4929 70.6724 89.209 70.8887C89.1177 70.5511 89.0265 70.2321 88.9355 69.9316C88.4238 67.4189 87.8769 64.9124 87.2949 62.4121C87.2989 62.2031 87.3901 62.0435 87.5684 61.9336C93.6536 60.4123 99.7604 58.9768 105.889 57.627C105.858 58.1131 105.972 58.1588 106.23 57.7637C106.745 57.661 107.246 57.5243 107.734 57.3535C107.867 57.6122 107.959 57.8856 108.008 58.1738C108.097 58.0103 108.166 58.0103 108.213 58.1738C107.881 58.3309 107.881 58.4221 108.213 58.4473Z" fill="#F5E3BE"/>
<path fill-rule="evenodd" clip-rule="evenodd" d="M94.4042 62.8223C94.5085 62.9273 94.6453 62.9956 94.8144 63.0273C94.5267 63.3333 94.2076 63.47 93.8573 63.4375C94.0675 63.5893 94.1585 63.7943 94.1308 64.0527C94.3115 64.0295 94.4711 64.075 94.6093 64.1895C94.6708 64.4655 94.7847 64.7161 94.9511 64.9414C94.7244 65.0405 94.6561 65.2001 94.746 65.4199C94.7915 65.3287 94.8372 65.2377 94.8827 65.1465C94.9377 65.3341 95.0061 65.5163 95.0878 65.6934C94.749 65.9755 94.749 66.249 95.0878 66.5137C94.9511 66.6049 94.8144 66.6959 94.6777 66.7871C94.7494 66.8817 94.8406 66.9501 94.9511 66.9922C94.7876 67.0816 94.7876 67.15 94.9511 67.1973C95.0287 66.9327 95.1883 66.7505 95.4296 66.6504C95.6525 66.7935 95.8802 66.9303 96.1132 67.0605C96.2044 67.1973 96.2044 67.334 96.1132 67.4707C96.0258 67.0977 95.8663 67.0294 95.6347 67.2656C95.787 67.4637 95.9237 67.6461 96.0448 67.8125C96.0643 68.1637 95.9959 68.5055 95.8398 68.8379C95.9542 68.6319 96.1137 68.5635 96.3183 68.6328C96.1712 68.8688 96.1483 69.1194 96.2499 69.3848C96.3116 69.0527 96.4256 69.0298 96.5917 69.3164C96.4785 69.4415 96.3418 69.5326 96.1816 69.5898C96.3772 69.6534 96.5366 69.7674 96.6601 69.9316C96.9576 69.7922 97.2994 69.6782 97.6855 69.5898C97.5943 69.681 97.5032 69.7721 97.412 69.8633C97.6145 69.9973 97.7969 70.1568 97.9589 70.3418C97.7474 70.7876 97.5196 71.2206 97.2753 71.6406C97.3543 71.8882 97.4227 72.139 97.4804 72.3926C97.5464 72.263 97.5691 72.1263 97.5487 71.9824C97.6589 72.1871 97.75 72.415 97.8222 72.666C97.9134 72.7115 98.0044 72.7572 98.0956 72.8027C99.3697 72.4979 100.646 72.2016 101.924 71.9141C102.063 71.8431 102.154 71.7291 102.197 71.5723C102.162 71.1905 102.025 70.8716 101.787 70.6152C101.972 70.458 101.949 70.3668 101.719 70.3418C101.4 70.433 101.081 70.524 100.762 70.6152C100.58 70.4107 100.375 70.2285 100.146 70.0684C100.498 69.6299 100.795 69.6299 101.035 70.0684C101.081 70.0228 101.126 69.9772 101.172 69.9316C101.192 70.3116 101.306 70.3799 101.514 70.1367C101.468 70.0912 101.422 70.0455 101.377 70C101.583 69.6585 101.766 69.294 101.924 68.9062C101.685 68.4988 101.617 68.0658 101.719 67.6074C101.937 68.765 102.393 69.8132 103.086 70.752C103.819 71.3422 104.662 71.5929 105.615 71.5039C105.41 71.5836 105.228 71.6975 105.068 71.8457C105.172 71.9019 105.309 71.9246 105.478 71.9141C105.387 72.0053 105.296 72.0963 105.205 72.1875C105.465 72.2147 105.67 72.3287 105.82 72.5293C105.845 73.0112 105.913 73.4671 106.025 73.8965C105.955 74.7411 105.864 75.5843 105.752 76.4258C105.756 76.5721 105.801 76.686 105.889 76.7676C105.503 77.332 105.298 77.2408 105.273 76.4941C105.21 76.5754 105.187 76.6665 105.205 76.7676C104.871 75.5669 104.598 74.3364 104.385 73.0762C104.021 73.03 103.702 73.1212 103.428 73.3496C103.225 74.1139 103.065 74.8885 102.949 75.6738C102.454 75.0709 101.976 74.4557 101.514 73.8281C101.178 73.7863 100.86 73.8546 100.557 74.0332C100.82 75.3234 101.139 76.5994 101.514 77.8613C101.728 77.7507 101.956 77.7051 102.197 77.7246C102.195 77.4423 102.149 77.1688 102.06 76.9043C102.182 76.6497 102.205 76.3763 102.129 76.084C102.397 76.4891 102.716 76.8536 103.086 77.1777C103.351 77.1951 103.625 77.1496 103.906 77.041C104.506 77.27 105.076 77.4524 105.615 77.5879C105.894 77.4704 106.076 77.5843 106.162 77.9297C106.129 78.053 106.083 78.1669 106.025 78.2715C102.488 79.1558 98.9336 80.0445 95.3612 80.9375C94.8088 81.0506 94.2619 81.0277 93.7206 80.8691C93.5346 80.6602 93.375 80.4323 93.2421 80.1855C92.8972 78.4375 92.5098 76.7058 92.08 74.9902C92.9728 74.5304 93.7247 73.8924 94.3359 73.0762C94.7822 72.252 94.7822 71.4317 94.3359 70.6152C94.1699 70.4035 93.9648 70.244 93.7206 70.1367C92.8516 70.0555 91.9858 70.0783 91.123 70.2051C90.8603 68.5501 90.5185 66.9095 90.0976 65.2832C89.8545 64.5236 90.1051 63.9994 90.8495 63.7109C92.0205 63.3537 93.2055 63.0576 94.4042 62.8223Z" fill="#F6E5C0"/>
<path fill-rule="evenodd" clip-rule="evenodd" d="M54.6191 60.0878C57.751 62.4695 60.0979 65.4773 61.6602 69.1112C64.0017 74.9737 66.0297 80.9437 67.7441 87.0214C66.9431 87.373 66.1228 87.7148 65.2832 88.0468C65.0288 88.1873 64.8464 88.3924 64.7363 88.662C64.7819 88.7987 64.873 88.8899 65.0098 88.9355C65.7163 88.5633 66.4454 88.2442 67.1973 87.9784C67.5202 90.9234 68.4772 93.6349 70.0684 96.1132C69.9871 96.1766 69.896 96.1995 69.7949 96.1816C66.4985 95.3714 63.2172 94.5055 59.9512 93.5839C60.2938 93.3191 60.4989 92.9545 60.5664 92.4902C61.1451 90.0981 61.6008 87.6827 61.9336 85.2441C62.4334 81.3681 61.9094 77.654 60.3613 74.1015C60.0305 73.9764 59.8482 74.0903 59.8145 74.4433C61.0775 77.8932 61.5103 81.4479 61.1133 85.1073C60.7279 87.581 60.2722 90.0419 59.7461 92.4902C59.6694 92.5615 59.5782 92.6071 59.4727 92.6269C58.6152 92.3258 57.7493 92.0524 56.875 91.8066C55.9364 91.5244 55.0478 91.1371 54.209 90.6445C54.4176 89.5872 54.577 88.5163 54.6875 87.4316C54.9849 82.9676 54.7114 78.547 53.8672 74.1698C53.3485 71.799 52.7332 69.452 52.0215 67.1288C52.2123 65.7813 52.6452 64.528 53.3203 63.3691C53.8444 63.9843 54.3685 64.5995 54.8926 65.2148C55.113 65.3132 55.318 65.2905 55.5078 65.1464C55.6058 63.6068 55.4236 62.1029 54.9609 60.6347C54.8014 60.4751 54.642 60.3157 54.4824 60.1562C54.5136 60.1016 54.5593 60.0789 54.6191 60.0878Z" fill="#EDE5DD"/>
<path fill-rule="evenodd" clip-rule="evenodd" d="M111.494 69.794C110.505 69.9488 109.707 69.6298 109.101 68.837C108.269 67.2058 107.882 65.474 107.939 63.6417C108.061 62.6313 108.607 61.9706 109.58 61.6593C110.801 61.3247 111.781 61.6665 112.519 62.6847C113.443 64.2979 113.808 66.0296 113.613 67.88C113.312 68.9785 112.606 69.6164 111.494 69.794Z" fill="#7E4B16"/>
<path fill-rule="evenodd" clip-rule="evenodd" d="M109.853 62.958C110.954 62.849 111.615 63.3502 111.835 64.4619C112.156 65.5814 112.247 66.7207 112.109 67.8798C111.146 68.7308 110.417 68.5484 109.921 67.333C109.503 66.1345 109.321 64.904 109.374 63.6415C109.51 63.3923 109.67 63.1644 109.853 62.958Z" fill="#F6E7CB"/>
<path fill-rule="evenodd" clip-rule="evenodd" d="M101.65 70.615C101.91 70.9557 101.956 71.3202 101.787 71.7088C100.552 72.0104 99.3219 72.3295 98.0957 72.6658C97.8428 72.2399 97.7744 71.7843 97.8906 71.2986C98.3812 70.4544 98.837 69.5884 99.2578 68.701C99.3624 68.4869 99.3396 68.3046 99.1895 68.1541C99.4928 67.2431 99.3106 66.4455 98.6426 65.7615C97.8518 65.5552 97.191 65.7603 96.6602 66.3768C96.3845 66.0782 96.0883 65.8047 95.7715 65.5564C96.8743 64.2984 98.1959 64.0021 99.7363 64.6678C100.938 65.9964 101.143 67.4775 100.352 69.1111C100.025 69.7869 99.6833 70.4477 99.3262 71.0935C100.096 70.9585 100.871 70.7991 101.65 70.615Z" fill="#814E17"/>
<path fill-rule="evenodd" clip-rule="evenodd" d="M108.076 59.541C108.18 59.646 108.317 59.7144 108.486 59.7461C108.22 59.8805 107.969 60.04 107.734 60.2246C107.591 60.6535 107.386 61.1093 107.119 61.5918C107.27 62.0867 107.589 62.3602 108.076 62.4121C108.026 62.7409 107.935 63.0599 107.803 63.3691C107.809 63.4944 107.854 63.5856 107.939 63.6426C107.882 65.4749 108.269 67.2067 109.102 68.8379C109.707 69.6307 110.505 69.9497 111.494 69.7949C111.157 69.9066 110.792 69.975 110.4 70C110.902 70.0455 111.403 70.0912 111.904 70.1367C111.312 70.1822 110.719 70.2279 110.127 70.2734C110.662 70.4067 110.753 70.6573 110.4 71.0254C110.446 71.0709 110.492 71.1166 110.537 71.1621C110.758 71.0727 110.986 71.0043 111.221 70.957C111.057 70.8676 111.057 70.7993 111.221 70.752C111.428 71.0697 111.588 71.3888 111.699 71.709C111.136 71.4131 110.566 71.3676 109.99 71.5723C109.661 71.7456 109.297 71.8368 108.896 71.8457C109.103 73.2393 109.422 74.6065 109.854 75.9473C110.022 75.8453 110.205 75.7997 110.4 75.8105C110.967 75.897 111.514 75.7602 112.041 75.4004C112.087 75.4232 112.132 75.4459 112.178 75.4688C112.065 75.5938 111.928 75.6849 111.768 75.7422C111.9 75.9068 112.037 75.9752 112.178 75.9473C112.005 76.0679 111.846 76.2046 111.699 76.3574C111.56 76.2024 111.469 76.2479 111.426 76.4941C111.336 76.3306 111.268 76.3306 111.221 76.4941C111.34 76.5968 111.477 76.6652 111.631 76.6992C110.941 76.8976 110.348 77.1027 109.854 77.3145C108.613 77.7157 107.337 78.0347 106.025 78.2715C106.083 78.1669 106.129 78.053 106.162 77.9297C106.076 77.5843 105.894 77.4704 105.615 77.5879C105.076 77.4524 104.506 77.27 103.906 77.041C103.625 77.1496 103.351 77.1951 103.086 77.1777C102.716 76.8536 102.397 76.4891 102.129 76.084C102.205 76.3763 102.182 76.6497 102.061 76.9043C101.931 76.3528 101.817 75.8059 101.719 75.2637C102.13 75.7885 102.563 76.2899 103.018 76.7676C103.245 76.7221 103.382 76.5853 103.428 76.3574C103.525 75.8289 103.685 75.3277 103.906 74.8535C104.051 75.5885 104.211 76.3176 104.385 77.041C104.738 77.106 105.011 77.0148 105.205 76.7676C105.187 76.6665 105.21 76.5754 105.273 76.4941C105.298 77.2408 105.503 77.332 105.889 76.7676C106.099 76.6581 106.327 76.6125 106.572 76.6309C106.572 76.3119 106.572 75.9928 106.572 75.6738C107.016 75.619 107.449 75.5278 107.871 75.4004C108.109 75.6494 108.314 75.9228 108.486 76.2207C108.765 76.1201 109.039 76.0062 109.307 75.8789C108.546 74.7988 107.84 73.6824 107.187 72.5293C106.86 72.4423 106.518 72.4423 106.162 72.5293C106.087 72.9814 106.041 73.4371 106.025 73.8965C105.913 73.4671 105.845 73.0112 105.82 72.5293C105.67 72.3287 105.465 72.2147 105.205 72.1875C105.296 72.0963 105.387 72.0053 105.479 71.9141C105.309 71.9246 105.173 71.9019 105.068 71.8457C105.228 71.6975 105.41 71.5836 105.615 71.5039C104.662 71.5929 103.819 71.3422 103.086 70.752C102.393 69.8132 101.937 68.765 101.719 67.6074C101.617 68.0658 101.685 68.4988 101.924 68.9062C101.766 69.294 101.583 69.6585 101.377 70C101.422 70.0455 101.468 70.0912 101.514 70.1367C101.306 70.3799 101.192 70.3116 101.172 69.9316C101.126 69.9772 101.081 70.0228 101.035 70.0684C100.795 69.6299 100.499 69.6299 100.146 70.0684C100.375 70.2285 100.58 70.4107 100.762 70.6152C101.081 70.524 101.4 70.433 101.719 70.3418C101.949 70.3668 101.972 70.458 101.787 70.6152C101.742 70.6152 101.696 70.6152 101.65 70.6152C100.871 70.7993 100.096 70.9587 99.3262 71.0938C99.6833 70.4479 100.025 69.7871 100.352 69.1113C101.143 67.4777 100.938 65.9966 99.7363 64.668C98.1959 64.0023 96.8743 64.2986 95.7715 65.5566C96.0883 65.8049 96.3845 66.0784 96.6602 66.377C97.191 65.7605 97.8518 65.5554 98.6426 65.7617C99.3106 66.4457 99.4928 67.2433 99.1895 68.1543C98.7768 69.2986 98.2528 70.3924 97.6172 71.4355C97.5502 71.6123 97.5274 71.7947 97.5488 71.9824C97.5692 72.1263 97.5465 72.263 97.4805 72.3926C97.4228 72.139 97.3544 71.8882 97.2754 71.6406C97.5197 71.2206 97.7475 70.7876 97.959 70.3418C97.797 70.1568 97.6146 69.9973 97.4121 69.8633C97.5033 69.7721 97.5944 69.681 97.6855 69.5898C97.2995 69.6782 96.9577 69.7922 96.6602 69.9316C96.5367 69.7674 96.3773 69.6534 96.1816 69.5898C96.3419 69.5326 96.4786 69.4415 96.5918 69.3164C96.4257 69.0298 96.3117 69.0527 96.25 69.3848C96.1484 69.1194 96.1712 68.8688 96.3184 68.6328C96.1138 68.5635 95.9543 68.6319 95.8398 68.8379C95.996 68.5055 96.0643 68.1637 96.0449 67.8125C95.9238 67.6461 95.7871 67.4637 95.6348 67.2656C95.8664 67.0294 96.0259 67.0977 96.1133 67.4707C96.2045 67.334 96.2045 67.1973 96.1133 67.0605C95.8803 66.9303 95.6525 66.7935 95.4297 66.6504C95.1884 66.7505 95.0288 66.9327 94.9512 67.1973C94.7877 67.15 94.7877 67.0816 94.9512 66.9922C94.8407 66.9501 94.7495 66.8817 94.6777 66.7871C94.8145 66.6959 94.9512 66.6049 95.0879 66.5137C94.7491 66.249 94.7491 65.9755 95.0879 65.6934C95.0061 65.5163 94.9378 65.3341 94.8828 65.1465C94.8373 65.2377 94.7916 65.3287 94.7461 65.4199C94.6561 65.2001 94.7245 65.0405 94.9512 64.9414C94.7848 64.7161 94.6709 64.4655 94.6094 64.1895C94.4712 64.075 94.3116 64.0295 94.1309 64.0527C94.1586 63.7943 94.0676 63.5893 93.8574 63.4375C94.2077 63.47 94.5268 63.3333 94.8145 63.0273C94.6453 62.9956 94.5086 62.9273 94.4043 62.8223C98.9749 61.7708 103.532 60.677 108.076 59.541Z" fill="#F6E7C7"/>
<path fill-rule="evenodd" clip-rule="evenodd" d="M121.337 67.6065C121.996 70.4708 122.634 73.3419 123.251 76.2198C123.241 76.3937 123.196 76.5531 123.114 76.6983C122.604 76.8818 122.103 77.0413 121.61 77.1768C116.923 78.2462 112.229 79.2943 107.528 80.3214C107.863 80.0917 108.319 79.9321 108.896 79.8428C108.766 79.7768 108.629 79.7541 108.485 79.7745C108.422 79.1259 108.627 78.9892 109.101 79.3643C109.09 79.1951 109.113 79.0584 109.169 78.9542C109.373 78.9587 109.555 79.027 109.716 79.1593C109.67 79.296 109.625 79.4327 109.579 79.5694C109.909 79.6356 110.228 79.5899 110.536 79.4327C110.523 79.2383 110.478 79.0332 110.399 78.8175C110.047 79.2029 109.797 79.1573 109.647 78.6807C109.427 78.8586 109.221 78.8586 109.032 78.6807C112.851 77.7389 116.68 76.8047 120.517 75.878C121.251 75.7824 121.57 75.3723 121.474 74.6475C120.271 68.7871 119.018 62.931 117.714 57.0792C117.242 56.5944 116.672 56.4348 116.005 56.6007C113.42 57.2811 110.822 57.8963 108.212 58.4464C107.88 58.4212 107.88 58.33 108.212 58.1729C108.165 58.0094 108.096 58.0094 108.007 58.1729C107.958 57.8847 107.866 57.6113 107.733 57.3526C107.245 57.5234 106.744 57.6601 106.23 57.7628C105.971 58.1579 105.857 58.1122 105.888 57.6261C109.478 56.7628 113.078 55.9197 116.689 55.0968C117.228 54.9349 117.775 54.8892 118.329 54.96C118.493 55.0835 118.607 55.2429 118.671 55.4386C119.586 59.4909 120.475 63.5469 121.337 67.6065Z" fill="#F5E7CC"/>
<path fill-rule="evenodd" clip-rule="evenodd" d="M103.428 62.9577C104.765 62.6359 105.79 63.046 106.505 64.1882C107.351 65.9321 107.625 67.755 107.325 69.6569C106.724 70.9542 105.698 71.4784 104.249 71.2292C102.862 70.4422 102.11 69.2346 101.993 67.6061C101.802 66.6557 101.756 65.6986 101.856 64.735C101.966 64.3323 102.149 63.9678 102.403 63.6413C102.742 63.3933 103.084 63.1654 103.428 62.9577Z" fill="#7F4D16"/>
<path fill-rule="evenodd" clip-rule="evenodd" d="M103.701 64.3249C104.636 64.1425 105.252 64.507 105.547 65.4187C105.978 66.6632 106.115 67.9392 105.957 69.2468C105.889 69.4974 105.729 69.6569 105.479 69.7253C104.763 69.961 104.239 69.7559 103.906 69.1101C103.413 67.7827 103.185 66.4155 103.223 65.0085C103.359 64.7593 103.519 64.5314 103.701 64.3249Z" fill="#F5E7C7"/>
<path fill-rule="evenodd" clip-rule="evenodd" d="M169.053 42.3145C168.915 42.5659 168.71 42.7481 168.437 42.8613C168.328 43.6911 168.373 44.5114 168.574 45.3223C169.358 46.9258 170.52 48.1791 172.061 49.082C172.726 49.7016 173.342 50.3625 173.906 51.0645C174.173 51.643 174.401 52.2356 174.59 52.8418C174.75 54.1213 174.932 55.3975 175.137 56.6699C175.634 57.7161 176.341 58.6048 177.256 59.3359C179.171 60.6117 180.925 62.0927 182.52 63.7793C184.767 66.4686 185.269 69.4764 184.023 72.8027C183.898 74.1346 183.943 75.4562 184.16 76.7676C184.604 77.554 185.129 78.2831 185.732 78.9551C187.187 80.022 188.486 81.2525 189.629 82.6465C191.721 85.7391 192.039 89.0203 190.586 92.4902C189.722 94.0829 188.651 95.5184 187.373 96.7969C188.232 98.5074 188.847 100.308 189.219 102.197C189.607 104.902 189.015 107.363 187.441 109.58C186.252 111.245 184.635 112.202 182.588 112.451C182.495 114.093 181.948 115.552 180.947 116.826C179.949 118.009 178.672 118.693 177.119 118.877C176.083 115.22 174.852 111.62 173.428 108.076C173.056 107.103 172.646 106.146 172.197 105.205C173.065 104.518 173.544 103.607 173.633 102.471C173.879 100.604 173.902 98.736 173.701 96.8652C173.678 96.7296 173.723 96.6386 173.838 96.5918C173.828 96.6517 173.852 96.6973 173.906 96.7285C175.636 92.0842 177.048 87.3446 178.145 82.5098C178.251 82.2518 178.228 82.0239 178.076 81.8262C178.812 78.703 179.222 75.5356 179.307 72.3242C179.415 67.7235 177.821 63.8497 174.521 60.7031C171.86 58.7338 168.988 57.116 165.908 55.8496C165.75 55.6801 165.613 55.4977 165.498 55.3027C164.89 53.9868 164.138 52.7563 163.242 51.6113C162.842 51.0476 162.317 50.683 161.67 50.5176C161.511 49.244 161.375 47.968 161.26 46.6895C162.155 45.633 162.976 44.5166 163.721 43.3398C165.636 43.6721 167.413 43.3303 169.053 42.3145Z" fill="#651F00"/>
<path fill-rule="evenodd" clip-rule="evenodd" d="M88.9357 69.9316C89.0266 70.2321 89.1178 70.5511 89.2091 70.8887C89.4931 70.6724 89.8121 70.5357 90.1662 70.4785C90.4851 70.3873 90.8042 70.2963 91.1232 70.2051C91.986 70.0783 92.8519 70.0555 93.7208 70.1367C93.965 70.244 94.1701 70.4035 94.3361 70.6152C94.7825 71.4317 94.7825 72.252 94.3361 73.0762C93.7249 73.8924 92.973 74.5304 92.0802 74.9902C91.7429 75.0251 91.4695 75.1618 91.2599 75.4004C90.8518 75.5133 90.4873 75.6956 90.1662 75.9473C89.8682 75.9938 89.6176 76.1305 89.4142 76.3574C89.1192 78.2689 88.3444 79.9552 87.09 81.416C87.0224 81.6394 86.9997 81.8673 87.0216 82.0996C87.4474 82.0188 87.7892 81.7909 88.047 81.416C88.6763 80.5678 89.2005 79.6563 89.6193 78.6816C89.7248 79.2459 89.9527 79.7699 90.3029 80.2539C90.2404 80.3105 90.1947 80.3789 90.1662 80.459C90.3855 80.7868 90.5222 81.1515 90.5763 81.5527C90.7665 81.8955 91.0399 82.1233 91.3966 82.2363C91.3966 82.0996 91.3966 81.9629 91.3966 81.8262C91.5672 82.2968 91.6811 82.798 91.7384 83.3301C91.802 83.5257 91.916 83.6851 92.0802 83.8086C93.2084 83.7107 94.325 83.5056 95.4298 83.1934C95.5437 83.2162 95.6577 83.2389 95.7716 83.2617C95.6349 83.3984 95.4982 83.5352 95.3615 83.6719C95.3926 83.7264 95.4383 83.7491 95.4982 83.7402C93.0508 86.147 90.0885 87.3547 86.6115 87.3633C84.1236 89.6465 81.6627 91.9479 79.2287 94.2676C78.9815 94.2688 78.7536 94.2004 78.5451 94.0625C75.2008 91.7205 73.5373 88.5076 73.5548 84.4238C73.6909 84.3464 73.8047 84.2553 73.8966 84.1504C76.2095 82.5486 78.4654 80.8624 80.6642 79.0918C81.5403 75.9455 83.2493 73.3707 85.7912 71.3672C86.8507 70.8426 87.8989 70.3641 88.9357 69.9316Z" fill="#F6BA91"/>
<path fill-rule="evenodd" clip-rule="evenodd" d="M99.1894 68.1543C99.3396 68.3048 99.3624 68.4871 99.2578 68.7012C98.837 69.5886 98.3812 70.4546 97.8906 71.2988C97.7744 71.7845 97.8428 72.2401 98.0957 72.666C99.3219 72.3297 100.552 72.0106 101.787 71.709C101.956 71.3204 101.91 70.9559 101.65 70.6152C101.696 70.6152 101.742 70.6152 101.787 70.6152C102.025 70.8716 102.162 71.1905 102.197 71.5723C102.154 71.7291 102.063 71.8431 101.924 71.9141C100.646 72.2016 99.3698 72.4979 98.0957 72.8027C98.0045 72.7572 97.9134 72.7115 97.8223 72.666C97.7501 72.415 97.659 72.1871 97.5488 71.9824C97.5274 71.7947 97.5502 71.6123 97.6172 71.4355C98.2528 70.3924 98.7768 69.2986 99.1894 68.1543Z" fill="#71370A"/>
<path fill-rule="evenodd" clip-rule="evenodd" d="M109.99 71.5714C111.041 71.4023 111.839 71.7668 112.383 72.6652C112.926 74.4693 112.265 75.5176 110.4 75.8097C110.205 75.7989 110.022 75.8445 109.854 75.9464C109.422 74.6056 109.103 73.2385 108.896 71.8449C109.297 71.836 109.661 71.7448 109.99 71.5714Z" fill="#824E17"/>
<path fill-rule="evenodd" clip-rule="evenodd" d="M110.127 72.2555C111.16 72.1717 111.707 72.6502 111.768 73.691C111.766 74.5585 111.333 75.037 110.469 75.1266C110.238 74.3131 110.033 73.4928 109.854 72.6656C109.914 72.4962 110.005 72.3595 110.127 72.2555Z" fill="#F6E7C9"/>
<path fill-rule="evenodd" clip-rule="evenodd" d="M105.889 76.7664C105.801 76.6848 105.756 76.5709 105.752 76.4246C105.864 75.5831 105.955 74.7399 106.025 73.8953C106.041 73.4359 106.087 72.9802 106.162 72.5281C106.518 72.4412 106.86 72.4412 107.188 72.5281C107.84 73.6812 108.546 74.7976 109.307 75.8777C109.039 76.005 108.765 76.1189 108.486 76.2195C108.314 75.9216 108.109 75.6482 107.871 75.3992C107.449 75.5266 107.016 75.6178 106.572 75.6726C106.572 75.9916 106.572 76.3107 106.572 76.6297C106.327 76.6113 106.099 76.6569 105.889 76.7664Z" fill="#824F18"/>
<path fill-rule="evenodd" clip-rule="evenodd" d="M106.846 73.623C107.139 73.9327 107.367 74.2973 107.53 74.7168C107.31 74.8286 107.082 74.9198 106.846 74.9902C106.752 74.5432 106.752 74.0875 106.846 73.623Z" fill="#F7EDD7"/>
<path fill-rule="evenodd" clip-rule="evenodd" d="M105.205 76.7675C105.011 77.0147 104.738 77.1059 104.385 77.041C104.211 76.3176 104.051 75.5885 103.906 74.8535C103.685 75.3276 103.525 75.8288 103.428 76.3574C103.382 76.5853 103.245 76.722 103.018 76.7675C102.563 76.2898 102.13 75.7885 101.719 75.2636C101.817 75.8058 101.931 76.3527 102.061 76.9042C102.149 77.1688 102.195 77.4422 102.197 77.7245C101.956 77.705 101.728 77.7507 101.514 77.8613C101.139 76.5994 100.82 75.3234 100.557 74.0331C100.86 73.8546 101.179 73.7862 101.514 73.8281C101.976 74.4556 102.454 75.0708 102.949 75.6738C103.065 74.8885 103.225 74.1138 103.428 73.3495C103.703 73.1211 104.022 73.0299 104.385 73.0761C104.598 74.3364 104.871 75.5669 105.205 76.7675Z" fill="#845019"/>
<path fill-rule="evenodd" clip-rule="evenodd" d="M55.0293 107.119C55.1387 107.425 55.3665 107.562 55.7129 107.529C55.5427 108.937 54.7679 109.461 53.3887 109.102C52.7568 108.943 52.1187 108.829 51.4746 108.76C51.1424 111.536 50.8461 114.316 50.586 117.1C50.5537 117.42 50.4397 117.694 50.2442 117.92C50.1986 117.92 50.153 117.92 50.1075 117.92C50.1906 114.961 50.4185 111.999 50.791 109.033C50.7455 108.851 50.6999 108.669 50.6543 108.486C47.8096 107.752 45.0752 106.727 42.4512 105.41C40.6672 104.219 39.0949 102.783 37.7344 101.103C35.0588 97.714 32.6889 94.1137 30.625 90.3027C28.259 85.8444 26.1171 81.2871 24.1993 76.6308C24.1081 76.3574 24.1081 76.084 24.1993 75.8105C24.4272 75.6283 24.6549 75.6283 24.8828 75.8105C28.0754 83.7557 32.0402 91.2752 36.7774 98.3691C38.4352 100.711 40.4176 102.739 42.7246 104.453C46.3976 106.483 50.3168 107.713 54.4825 108.145C54.6881 107.801 54.8705 107.459 55.0293 107.119Z" fill="#CEC7BD"/>
<path fill-rule="evenodd" clip-rule="evenodd" d="M22.3534 74.7168C22.5585 77.7697 22.7636 80.8231 22.9687 83.877C23.3338 89.3832 22.8325 94.8064 21.4647 100.146C20.5634 103.482 19.538 106.764 18.3886 109.99C18.253 110.014 18.1619 109.968 18.1151 109.854C18.2636 109.837 18.3548 109.746 18.3886 109.58C17.9937 109.037 17.6976 108.353 17.4999 107.529C16.4746 102.145 16.5202 96.7675 17.6366 91.3965C18.8618 85.6305 20.3657 79.9338 22.1483 74.3066C22.1801 74.4758 22.2484 74.6125 22.3534 74.7168Z" fill="#D86000"/>
<path fill-rule="evenodd" clip-rule="evenodd" d="M150.459 59.6777C150.825 59.6777 151.188 59.6777 151.553 59.6777C152.441 60.9954 153.329 62.3171 154.219 63.6426C154.286 63.9222 154.263 64.1956 154.151 64.4629C153.615 65.2511 153.046 66.0259 152.442 66.7871C152.076 75.854 152.007 84.923 152.237 93.9941C152.286 94.3039 152.194 94.5546 151.963 94.7461C148.727 95.8058 145.446 96.6945 142.12 97.4121C141.984 96.9653 141.939 96.5095 141.983 96.0449C142.121 93.0285 142.371 90.0207 142.735 87.0215C143.558 79.9025 145.404 73.0666 148.272 66.5137C147.942 65.5702 147.669 64.6131 147.452 63.6426C147.452 63.5514 147.452 63.4603 147.452 63.3691C148.454 62.1387 149.457 60.9082 150.459 59.6777Z" fill="#131315"/>
<path fill-rule="evenodd" clip-rule="evenodd" d="M141.982 96.0449C141.938 96.5095 141.984 96.9653 142.119 97.4121C145.445 96.6945 148.727 95.8058 151.963 94.7461C152.194 94.5546 152.285 94.3039 152.236 93.9941C152.345 94.1927 152.414 94.4204 152.441 94.6777C154.497 94.0822 156.458 93.2619 158.32 92.2168C160.51 85.5966 162.424 78.8974 164.062 72.1191C164.099 71.8691 164.214 71.664 164.404 71.5039C164.846 71.3981 165.028 71.5803 164.951 72.0508C163.278 79.0847 161.295 86.0345 159.004 92.9004C158.421 93.2941 157.806 93.6359 157.158 93.9258C152.525 95.6982 147.785 97.1109 142.939 98.1641C143.333 98.7462 143.675 99.3614 143.965 100.01C145.456 104.108 145.298 107.982 143.486 111.631C143.349 111.631 143.213 111.631 143.076 111.631C142.995 111.542 142.904 111.451 142.803 111.357C144.714 107.068 144.6 102.83 142.461 98.6426C142.392 98.5742 142.324 98.5059 142.256 98.4375C140.08 98.4594 137.938 98.6645 135.83 99.0527C135.693 99.0527 135.556 99.0527 135.42 99.0527C135.396 98.872 135.442 98.7124 135.556 98.5742C136.095 98.4162 136.642 98.3021 137.197 98.2324C137.101 97.2855 136.92 96.374 136.65 95.498C135.988 92.1189 135.282 88.7465 134.531 85.3809C134.327 83.8368 134.281 82.2872 134.394 80.7324C134.902 77.3862 135.905 74.196 137.402 71.1621C137.633 70.6985 137.93 70.2883 138.291 69.9316C138.557 70.1427 138.626 70.4162 138.496 70.752C137.099 73.4388 136.051 76.2643 135.351 79.2285C134.97 81.0897 134.925 82.9582 135.215 84.834C136.193 89.155 137.127 93.4843 138.017 97.8223C139.174 97.9046 140.313 97.7679 141.435 97.4121C141.594 95.413 141.707 95.413 141.777 97.4121C141.802 96.9302 141.87 96.4744 141.982 96.0449Z" fill="#CEC8BE"/>
<path fill-rule="evenodd" clip-rule="evenodd" d="M91.2598 75.4004C91.6707 77.4547 92.1037 79.5055 92.5586 81.5527C92.6371 81.8251 92.7966 82.0302 93.0371 82.168C94.0513 82.1569 95.0538 82.0202 96.0449 81.7578C100.363 80.6909 104.692 79.6655 109.033 78.6816C109.222 78.8595 109.427 78.8595 109.648 78.6816C109.798 79.1582 110.048 79.2038 110.4 78.8184C110.479 79.0341 110.524 79.2392 110.537 79.4336C110.229 79.5908 109.91 79.6365 109.58 79.5703C109.626 79.4336 109.671 79.2969 109.717 79.1602C109.556 79.0279 109.373 78.9596 109.17 78.9551C109.114 79.0593 109.091 79.196 109.102 79.3652C108.628 78.9901 108.423 79.1268 108.486 79.7754C108.63 79.755 108.767 79.7777 108.896 79.8438C108.32 79.933 107.864 80.0926 107.529 80.3223C103.863 81.2466 100.172 82.1353 96.4551 82.9883C96.1138 83.2161 95.7949 83.4668 95.498 83.7402C95.4382 83.7491 95.3925 83.7264 95.3613 83.6719C95.498 83.5352 95.6348 83.3984 95.7715 83.2617C95.6576 83.2389 95.5436 83.2162 95.4297 83.1934C94.3249 83.5056 93.2083 83.7107 92.0801 83.8086C91.9159 83.6851 91.8019 83.5257 91.7383 83.3301C91.681 82.798 91.5671 82.2968 91.3965 81.8262C91.047 79.9289 90.6369 78.0604 90.166 76.2207C90.166 76.1295 90.166 76.0385 90.166 75.9473C90.4872 75.6956 90.8517 75.5133 91.2598 75.4004Z" fill="#F6E5C0"/>
<path fill-rule="evenodd" clip-rule="evenodd" d="M90.166 76.2207C90.6369 78.0604 91.047 79.9289 91.3965 81.8262C91.3965 81.9629 91.3965 82.0996 91.3965 82.2363C91.0398 82.1233 90.7663 81.8955 90.5762 81.5527C90.522 81.1515 90.3853 80.7868 90.166 80.459C90.1946 80.3789 90.2403 80.3105 90.3027 80.2539C89.9526 79.7699 89.7247 79.2459 89.6191 78.6816C89.8447 77.8706 90.027 77.0503 90.166 76.2207Z" fill="#F0AA7D"/>
<path fill-rule="evenodd" clip-rule="evenodd" d="M90.1663 75.9473C90.1663 76.0385 90.1663 76.1295 90.1663 76.2207C90.0272 77.0503 89.845 77.8706 89.6194 78.6816C89.2006 79.6563 88.6764 80.5678 88.0471 81.416C87.7893 81.7909 87.4475 82.0188 87.0217 82.0996C86.9998 81.8673 87.0225 81.6394 87.0901 81.416C88.3445 79.9552 89.1193 78.2689 89.4143 76.3574C89.6177 76.1305 89.8683 75.9938 90.1663 75.9473Z" fill="#E6935D"/>
<path fill-rule="evenodd" clip-rule="evenodd" d="M197.353 82.9198C197.623 82.9038 197.852 82.995 198.036 83.1932C198.947 84.3046 199.47 85.5806 199.609 87.0213C199.725 88.5312 199.68 90.0351 199.472 91.533C199.282 92.0507 199.053 92.5519 198.788 93.0369C198.616 93.325 198.364 93.4617 198.036 93.4471C198.427 92.3853 198.724 91.2916 198.925 90.1659C199.131 88.2217 198.858 86.3533 198.105 84.5604C197.898 84.1469 197.625 83.7823 197.284 83.4666C197.205 83.2714 197.228 83.089 197.353 82.9198Z" fill="#5F1D00"/>
<path fill-rule="evenodd" clip-rule="evenodd" d="M54.3462 59.9513C54.4818 59.9278 54.5729 59.9735 54.6196 60.088C54.5598 60.0791 54.5141 60.1018 54.4829 60.1564C54.6425 60.3159 54.8019 60.4754 54.9614 60.6349C55.4241 62.1031 55.6063 63.607 55.5083 65.1466C55.3185 65.2907 55.1135 65.3134 54.8931 65.215C54.369 64.5997 53.8449 63.9845 53.3208 63.3693C52.6457 64.5282 52.2128 65.7815 52.022 67.129C52.7337 69.4522 53.349 71.7992 53.8677 74.1701C54.7119 78.5472 54.9854 82.9678 54.688 87.4318C54.5775 88.5165 54.4181 89.5874 54.2095 90.6447C55.0483 91.1373 55.9369 91.5246 56.8755 91.8068C57.7498 92.0526 58.6157 92.326 59.4732 92.6271C59.5787 92.6073 59.6699 92.5617 59.7466 92.4904C60.2727 90.0421 60.7284 87.5812 61.1138 85.1076C61.5108 81.4481 61.078 77.8935 59.8149 74.4435C59.8487 74.0905 60.031 73.9766 60.3618 74.1017C61.9099 77.6542 62.4339 81.3683 61.9341 85.2443C61.6013 87.6829 61.1456 90.0983 60.5669 92.4904C60.4994 92.9547 60.2943 93.3193 59.9517 93.5841C59.7408 93.4746 59.5131 93.4291 59.2681 93.4474C57.9017 92.91 56.489 92.4314 55.0298 92.0119C53.6612 91.4642 52.2941 90.9173 50.9282 90.3712C50.5096 90.2262 50.1678 89.9756 49.9028 89.6193C49.0027 88.2294 48.1367 86.8165 47.3052 85.381C44.4307 80.2699 41.6279 75.1203 38.897 69.9318C38.888 69.6903 39.002 69.5536 39.2388 69.5216C39.6556 69.8533 39.9746 70.2635 40.1958 70.7521C43.5554 76.9709 47.019 83.1232 50.5864 89.2091C51.5601 89.7531 52.5855 90.1633 53.6626 90.4396C54.4772 85.1774 54.3632 79.9364 53.3208 74.7169C52.7434 72.1515 52.1282 69.5994 51.4751 67.0607C51.6095 66.5414 51.6552 65.9946 51.6118 65.4201C52.0052 64.4484 52.4153 63.4685 52.8423 62.4806C52.9241 62.3027 53.0608 62.1887 53.2524 62.1388C53.8561 62.8108 54.3801 63.5399 54.8247 64.3263C54.9278 62.8253 54.6772 61.3897 54.0728 60.0197C54.154 59.9562 54.2452 59.9334 54.3462 59.9513Z" fill="#CEC7BD"/>
<path fill-rule="evenodd" clip-rule="evenodd" d="M37.8017 50.2444C37.8616 50.2355 37.9072 50.2582 37.9384 50.3128C37.6829 50.81 37.569 51.3342 37.5966 51.885C37.9277 52.4106 38.2924 52.9118 38.6904 53.3889C41.4934 56.375 44.5469 59.0638 47.8505 61.4553C49.1978 63.2396 50.4055 65.108 51.4736 67.0608C52.1267 69.5995 52.7419 72.1517 53.3193 74.717C54.3616 79.9366 54.4756 85.1775 53.6611 90.4397C52.584 90.1634 51.5586 89.7532 50.5849 89.2092C47.0175 83.1233 43.5539 76.971 40.1943 70.7522C39.9731 70.2636 39.6541 69.8534 39.2372 69.5217C39.0004 69.5537 38.8864 69.6904 38.8954 69.9319C41.6264 75.1204 44.4291 80.27 47.3036 85.3811C48.1352 86.8167 49.0011 88.2295 49.9013 89.6194C50.1663 89.9757 50.5081 90.2263 50.9267 90.3713C52.2925 90.9174 53.6597 91.4643 55.0283 92.012C56.4875 92.4316 57.9002 92.9101 59.2665 93.4475C57.965 98.0362 56.5521 102.593 55.0283 107.119C54.8694 107.459 54.687 107.801 54.4814 108.145C50.3157 107.713 46.3965 106.483 42.7236 104.453C40.4166 102.739 38.4342 100.711 36.7763 98.3694C32.0391 91.2755 28.0743 83.7559 24.8818 75.8108C24.6539 75.6286 24.4261 75.6286 24.1982 75.8108C24.107 76.0842 24.107 76.3577 24.1982 76.6311C26.1161 81.2873 28.2579 85.8447 30.624 90.303C32.6879 94.114 35.0578 97.7142 37.7333 101.104C39.0938 102.784 40.6661 104.219 42.4501 105.41C45.0742 106.727 47.8086 107.753 50.6533 108.487C50.6988 108.669 50.7444 108.851 50.79 109.033C50.4174 111.999 50.1895 114.962 50.1064 117.92C49.1357 122.509 48.1331 127.089 47.0986 131.66C40.6468 132.12 34.5857 130.799 28.915 127.696C26.3844 126.088 23.7868 124.584 21.122 123.184C20.021 122.738 18.8817 122.441 17.704 122.295C16.928 122.354 16.1532 122.377 15.3798 122.364C14.9776 122.235 14.7953 121.962 14.8329 121.543C15.9227 117.663 17.1077 113.812 18.3876 109.99C19.537 106.764 20.5624 103.483 21.4638 100.147C22.8315 94.8066 23.3329 89.3834 22.9677 83.8772C22.7626 80.8233 22.5576 77.77 22.3525 74.717C22.1727 69.5614 23.5855 64.9129 26.5908 60.7717C28.6287 58.4373 30.9756 56.4777 33.6318 54.8928C33.6318 54.346 33.6318 53.7991 33.6318 53.2522C33.8652 53.0421 34.0702 52.8142 34.247 52.5686C34.9485 51.9356 35.6321 51.2748 36.2978 50.5862C36.7585 50.3021 37.2599 50.1882 37.8017 50.2444Z" fill="#EDE5DD"/>
<path fill-rule="evenodd" clip-rule="evenodd" d="M33.7002 55.0291C33.8364 55.0174 33.9503 55.0631 34.042 55.1659C36.5585 59.5521 39.8169 63.3118 43.8174 66.4452C43.9726 66.5476 44.1093 66.5249 44.2276 66.3768C44.7319 64.4786 45.6435 62.8151 46.962 61.3866C47.0917 61.3022 47.2056 61.3249 47.3038 61.4549C47.2245 62.1162 46.951 62.7086 46.4835 63.2323C45.821 64.6749 45.1603 66.1105 44.501 67.5389C44.2091 67.6257 43.9357 67.5801 43.6807 67.4022C39.869 64.4912 36.7018 61.0049 34.1788 56.9432C33.7447 56.352 33.5851 55.714 33.7002 55.0291Z" fill="#CEC7BD"/>
<path fill-rule="evenodd" clip-rule="evenodd" d="M73.8958 84.1506C73.8039 84.2555 73.69 84.3467 73.554 84.4241C73.5365 88.5079 75.1999 91.7207 78.5442 94.0627C78.7527 94.2007 78.9806 94.269 79.2278 94.2678C79.5588 94.5581 79.5816 94.877 79.2962 95.2248C78.2894 96.118 77.3096 97.0295 76.3567 97.9592C74.4962 97.54 72.6734 97.0387 70.888 96.4553C69.4926 94.1651 68.5129 91.7042 67.9485 89.0725C67.8421 88.3774 67.865 87.6938 68.0169 87.0217C69.7183 86.0566 71.4501 85.1224 73.2122 84.219C73.4356 84.1514 73.6635 84.1288 73.8958 84.1506Z" fill="#EDE5DC"/>
<path fill-rule="evenodd" clip-rule="evenodd" d="M27.8223 36.9824C27.9207 37.3334 27.8751 37.698 27.6856 38.0762C28.1337 38.6533 28.4755 39.2913 28.711 39.9902C29.228 41.5732 29.5698 43.191 29.7364 44.8438C29.672 45.8749 29.5581 46.9003 29.3946 47.9199C28.4132 52.2082 27.479 56.4921 26.5918 60.7715C23.5866 64.9127 22.1738 69.5611 22.3535 74.7168C22.2485 74.6125 22.1802 74.4758 22.1485 74.3066C20.3658 79.9338 18.8619 85.6305 17.6367 91.3965C16.5203 96.7675 16.4748 102.145 17.5 107.529C17.6977 108.353 17.9939 109.037 18.3887 109.58C18.3549 109.746 18.2637 109.837 18.1153 109.854C14.3109 108.554 12.0779 105.911 11.416 101.924C11.5311 101.854 11.5994 101.945 11.6211 102.197C11.5682 97.6741 12.024 93.208 12.9883 88.7988C13.5177 87.0513 14.0874 85.3195 14.6973 83.6035C14.6158 83.2281 14.3879 83.1141 14.0137 83.2617C12.6569 86.3069 11.6998 89.4742 11.1426 92.7637C9.84753 96.782 9.43738 100.884 9.91213 105.068C8.854 104.233 8.05648 103.185 7.51955 101.924C6.62767 99.1568 6.3998 96.3313 6.83596 93.4473C7.31944 90.3283 8.18532 87.3205 9.43362 84.4238C11.4329 80.1977 13.3926 75.9594 15.3125 71.709C19.9008 60.2917 24.0707 48.7162 27.8223 36.9824Z" fill="#F07606"/>
<path fill-rule="evenodd" clip-rule="evenodd" d="M11.4168 101.924C11.226 101.365 11.1121 100.772 11.075 100.146C10.943 97.7689 11.0114 95.3991 11.28 93.0371C11.2742 92.9119 11.2286 92.8207 11.1433 92.7637C11.7006 89.4742 12.6576 86.3068 14.0144 83.2617C14.3886 83.1141 14.6165 83.2281 14.698 83.6035C14.0881 85.3195 13.5184 87.0513 12.989 88.7988C12.0247 93.208 11.569 97.6741 11.6218 102.197C11.6001 101.945 11.5318 101.854 11.4168 101.924Z" fill="#D96200"/>
<path fill-rule="evenodd" clip-rule="evenodd" d="M178.076 81.8262C178.228 82.0239 178.251 82.2518 178.145 82.5098C177.048 87.3446 175.636 92.0842 173.906 96.7285C173.852 96.6973 173.828 96.6517 173.838 96.5918C175.529 91.7481 176.942 86.8263 178.076 81.8262Z" fill="#5B1A10"/>
<path fill-rule="evenodd" clip-rule="evenodd" d="M67.7441 87.0215C67.8353 87.0215 67.9264 87.0215 68.0176 87.0215C67.8657 87.6936 67.8429 88.3772 67.9492 89.0723C68.5136 91.704 69.4933 94.1649 70.8887 96.4551C70.4884 96.4462 70.1237 96.355 69.7949 96.1816C69.896 96.1996 69.9871 96.1767 70.0684 96.1133C68.4772 93.635 67.5202 90.9234 67.1973 87.9785C66.4454 88.2443 65.7163 88.5634 65.0098 88.9355C64.873 88.89 64.7819 88.7988 64.7363 88.6621C64.8464 88.3925 65.0288 88.1874 65.2832 88.0469C66.1228 87.7149 66.9431 87.3731 67.7441 87.0215Z" fill="#CDC6BC"/>
<path fill-rule="evenodd" clip-rule="evenodd" d="M105.479 96.3173C105.791 96.1956 106.11 96.1729 106.436 96.2489C109.003 100.208 109.892 104.514 109.102 109.169C108.823 109.295 108.526 109.341 108.213 109.306C107.711 109.694 107.164 110.013 106.572 110.263C106.549 110.074 106.526 109.846 106.504 109.579C103.356 105.764 99.6419 102.642 95.3615 100.214C95.1793 100.123 94.9969 100.123 94.8146 100.214C93.3802 101.273 91.8763 102.23 90.3029 103.085C87.8938 103.729 86.9596 102.84 87.5002 100.419C88.439 98.7279 89.6923 97.3152 91.2599 96.1806C91.1402 96.0779 91.0035 96.0095 90.8498 95.9755C91.0189 95.9438 91.1556 95.8754 91.2599 95.7704C92.054 95.2589 92.8743 94.7804 93.7209 94.3349C95.4352 93.7477 97.167 93.7021 98.9162 94.1981C100.841 94.8548 102.755 95.5384 104.658 96.2489C104.928 96.3166 105.202 96.3394 105.479 96.3173Z" fill="#F6BA91"/>
<path fill-rule="evenodd" clip-rule="evenodd" d="M59.2676 93.4473C59.5126 93.429 59.7404 93.4745 59.9512 93.584C63.2172 94.5056 66.4985 95.3715 69.7949 96.1817C70.1237 96.355 70.4884 96.4462 70.8887 96.4551C72.6741 97.0385 74.497 97.5398 76.3574 97.959C78.1728 98.51 80.0185 99.0113 81.8945 99.4629C83.5682 98.2036 85.3683 97.1326 87.2949 96.25C88.3452 95.736 89.4389 95.5766 90.5762 95.7715C89.2482 96.8945 88.0861 98.1705 87.0898 99.5996C86.513 100.718 86.4675 101.857 86.9531 103.018C87.7677 104.052 88.7931 104.348 90.0293 103.906C91.7332 103.123 93.3283 102.166 94.8145 101.035C94.9967 100.944 95.1791 100.944 95.3613 101.035C97.4343 102.243 99.3938 103.61 101.24 105.137C103.042 106.915 104.819 108.715 106.572 110.537C106.778 112.52 105.867 113.523 103.838 113.545C104.46 115.49 103.753 116.629 101.719 116.963C101.252 116.921 100.819 116.784 100.42 116.553C100.324 116.25 100.142 115.999 99.873 115.801C97.889 114.376 95.9294 112.917 93.9941 111.426C93.8174 111.359 93.635 111.336 93.4473 111.357C93.39 111.744 93.5267 112.04 93.8574 112.246C95.7715 113.659 97.6855 115.072 99.5996 116.484C99.8714 116.613 100.145 116.727 100.42 116.826C100.46 118.358 99.7079 119.088 98.1641 119.014C97.705 119.024 97.272 118.933 96.8652 118.74C95.12 117.521 93.3883 116.268 91.6699 114.981C91.4177 114.826 91.1442 114.758 90.8496 114.775C90.8204 115 90.866 115.205 90.9863 115.391C92.6922 116.722 94.4695 117.953 96.3184 119.082C96.5321 119.186 96.6688 119.345 96.7285 119.561C96.4508 120.795 95.6761 121.274 94.4043 120.996C93.8257 120.818 93.2561 120.613 92.6953 120.381C92.5172 120.446 92.3578 120.537 92.2168 120.654C92.2569 120.498 92.2569 120.316 92.2168 120.107C91.4111 119.81 90.6365 119.491 89.8926 119.15C90.2437 118.439 90.4716 117.687 90.5762 116.895C90.2517 114.841 89.1125 114.158 87.1582 114.844C87.0443 114.958 86.9303 115.072 86.8164 115.186C86.8265 113.107 85.8011 112.172 83.7402 112.383C83.1363 112.647 82.5895 112.989 82.0996 113.408C81.12 112.632 80.0034 112.131 78.75 111.904C78.5481 112.033 78.4113 112.216 78.3398 112.451C78.2853 112.42 78.2626 112.374 78.2715 112.314C78.3632 112.13 78.3632 111.971 78.2715 111.836C71.8461 110.619 65.4203 109.412 58.9941 108.213C57.9277 107.928 56.834 107.7 55.7129 107.529C55.3664 107.562 55.1387 107.426 55.0293 107.119C56.5532 102.593 57.966 98.036 59.2676 93.4473Z" fill="#F6BA91"/>
<path fill-rule="evenodd" clip-rule="evenodd" d="M136.65 95.498C136.92 96.374 137.102 97.2855 137.197 98.2324C136.642 98.3021 136.095 98.4162 135.557 98.5742C135.442 98.7124 135.397 98.872 135.42 99.0527C135.055 99.0527 134.691 99.0527 134.326 99.0527C135.097 97.8703 135.872 96.6853 136.65 95.498Z" fill="#0D0C0C"/>
<path fill-rule="evenodd" clip-rule="evenodd" d="M134.326 99.0523C134.691 99.0523 135.055 99.0523 135.42 99.0523C135.557 99.0523 135.693 99.0523 135.83 99.0523C136.341 99.4797 136.683 100.027 136.855 100.693C137.396 102.578 137.806 104.492 138.086 106.435C138.396 108.519 137.918 110.388 136.65 112.041C136.427 112.311 136.199 112.584 135.967 112.861C133.873 115.071 131.457 116.848 128.721 118.193C129.296 117.774 129.82 117.272 130.293 116.689C130.36 116.512 130.383 116.33 130.361 116.142C130.217 116.122 130.081 116.144 129.951 116.21C127.894 118.037 125.524 119.244 122.842 119.834C121.855 120.086 120.852 120.155 119.834 120.039C119.328 119.902 118.964 119.605 118.74 119.15C121.509 118.69 124.107 117.756 126.533 116.347C127.342 115.875 128.071 115.305 128.721 114.638C128.605 114.394 128.423 114.326 128.174 114.433C125.293 116.525 122.103 117.915 118.604 118.603C117.718 118.806 116.852 118.738 116.006 118.398C115.596 118.012 115.414 117.533 115.459 116.962C116.243 116.992 117.017 116.924 117.783 116.757C120.94 115.814 123.834 114.378 126.465 112.451C126.532 112.274 126.555 112.092 126.533 111.904C126.345 111.882 126.163 111.905 125.986 111.972C122.809 114.254 119.3 115.781 115.459 116.552C114.705 116.573 114.295 116.208 114.229 115.459C114.263 114.623 114.627 113.985 115.322 113.544C115.33 113.619 115.376 113.664 115.459 113.681C117.509 112.609 119.469 111.401 121.338 110.058C121.307 110.004 121.261 109.981 121.201 109.99C121.392 109.8 121.62 109.663 121.885 109.58C122.132 109.581 122.36 109.512 122.568 109.375C123.594 108.702 124.642 108.064 125.713 107.46C126.109 107.226 126.291 106.884 126.26 106.435C126.072 106.414 125.89 106.436 125.713 106.503C125.073 107.051 124.39 107.529 123.662 107.939C122.382 108.71 121.014 108.961 119.561 108.691C119.441 108.548 119.304 108.434 119.15 108.349C119.026 107.853 119.003 107.352 119.082 106.845C119.287 106.344 119.56 105.888 119.902 105.478C121.311 104.114 122.838 102.907 124.482 101.855C127.485 99.9423 130.766 99.0081 134.326 99.0523Z" fill="#F6BA91"/>
<path fill-rule="evenodd" clip-rule="evenodd" d="M143.076 111.631C140.938 111.824 138.797 111.96 136.65 112.041C137.918 110.388 138.396 108.52 138.086 106.436C137.806 104.493 137.396 102.579 136.855 100.693C136.683 100.027 136.341 99.4801 135.83 99.0527C137.938 98.6645 140.081 98.4594 142.256 98.4375C142.324 98.5059 142.393 98.5742 142.461 98.6426C144.601 102.83 144.714 107.068 142.803 111.357C142.904 111.451 142.996 111.542 143.076 111.631Z" fill="#EDE4DC"/>
<path fill-rule="evenodd" clip-rule="evenodd" d="M19.8926 91.9434C19.9799 92.025 20.0255 92.1389 20.0293 92.2852C19.5061 96.082 19.0731 99.8873 18.7305 103.701C18.735 99.7454 19.1223 95.826 19.8926 91.9434Z" fill="#F47A06"/>
<path fill-rule="evenodd" clip-rule="evenodd" d="M173.701 96.8652C173.902 98.736 173.879 100.604 173.633 102.471C173.544 103.607 173.065 104.518 172.197 105.205C171.667 105.382 171.12 105.473 170.557 105.479C169.944 105.366 169.306 105.297 168.643 105.273C169.213 104.704 169.781 104.134 170.352 103.564C171.765 101.466 172.882 99.2325 173.701 96.8652Z" fill="#CABFB4"/>
<path fill-rule="evenodd" clip-rule="evenodd" d="M115.459 108.896C115.413 108.896 115.368 108.896 115.322 108.896C115.307 108.812 115.262 108.744 115.186 108.691C115.531 107.834 115.782 106.945 115.937 106.025C116.026 104.563 115.981 103.105 115.801 101.65C115.414 98.9416 114.343 96.549 112.588 94.4727C112.702 94.4498 112.816 94.4271 112.93 94.4043C113.366 94.5649 113.73 94.8384 114.023 95.2246C116.731 99.2715 117.414 103.646 116.074 108.35C115.95 108.638 115.745 108.82 115.459 108.896Z" fill="#CEC7BD"/>
<path fill-rule="evenodd" clip-rule="evenodd" d="M172.197 105.205C172.646 106.146 173.056 107.103 173.428 108.076C173.049 108.065 172.684 108.134 172.334 108.281C166.452 111.062 160.3 113.022 153.877 114.16C147.964 115.013 142.108 114.763 136.309 113.408C136.137 113.428 135.977 113.474 135.83 113.545C135.858 113.334 135.949 113.151 136.104 112.998C136.087 112.915 136.041 112.87 135.967 112.861C136.199 112.584 136.427 112.311 136.65 112.041C138.797 111.96 140.938 111.824 143.076 111.631C143.213 111.631 143.35 111.631 143.486 111.631C148.568 111.417 153.582 110.711 158.525 109.512C161.435 108.861 164.214 107.858 166.865 106.504C167.945 105.7 169.176 105.358 170.557 105.479C171.12 105.473 171.667 105.382 172.197 105.205Z" fill="#0E0F11"/>
<path fill-rule="evenodd" clip-rule="evenodd" d="M90.5752 95.7715C90.8031 95.7715 91.0309 95.7715 91.2588 95.7715C91.1545 95.8765 91.0177 95.9448 90.8486 95.9766C91.0023 96.0106 91.139 96.079 91.2588 96.1816C89.6912 97.3163 88.4379 98.729 87.499 100.42C86.9584 102.841 87.8926 103.73 90.3017 103.086C91.8751 102.231 93.379 101.274 94.8135 100.215C94.9957 100.124 95.1781 100.124 95.3603 100.215C99.6407 102.643 103.355 105.765 106.503 109.58C106.525 109.847 106.548 110.075 106.571 110.264C106.571 110.355 106.571 110.446 106.571 110.537C104.818 108.715 103.041 106.915 101.239 105.137C99.3929 103.61 97.4333 102.243 95.3603 101.035C95.1781 100.944 94.9957 100.944 94.8135 101.035C93.3273 102.166 91.7322 103.123 90.0283 103.906C88.7921 104.348 87.7667 104.052 86.9521 103.018C86.4665 101.857 86.512 100.718 87.0888 99.5996C88.0851 98.1705 89.2472 96.8945 90.5752 95.7715Z" fill="#E6925C"/>
<path fill-rule="evenodd" clip-rule="evenodd" d="M121.885 109.58C122.397 109.117 122.944 108.684 123.525 108.281C123.628 108.19 123.674 108.076 123.662 107.939C124.39 107.53 125.073 107.051 125.713 106.504C125.89 106.437 126.072 106.414 126.26 106.436C126.291 106.885 126.109 107.226 125.713 107.461C124.642 108.065 123.594 108.703 122.568 109.375C122.36 109.513 122.132 109.581 121.885 109.58Z" fill="#E99760"/>
<path fill-rule="evenodd" clip-rule="evenodd" d="M55.7129 107.529C56.834 107.7 57.9277 107.928 58.9941 108.213C59.868 114.049 60.7567 119.882 61.6602 125.713C60.9681 126.428 60.2617 127.112 59.541 127.764C58.4689 128.353 57.3751 128.923 56.2598 129.473C55.2035 129.979 54.1097 130.366 52.9785 130.635C52.134 126.365 51.2225 122.127 50.2441 117.92C50.4396 117.694 50.5537 117.42 50.5859 117.1C50.8461 114.316 51.1424 111.536 51.4746 108.76C52.1187 108.829 52.7568 108.944 53.3887 109.102C54.7679 109.461 55.5427 108.937 55.7129 107.529Z" fill="#EDE5DC"/>
<path fill-rule="evenodd" clip-rule="evenodd" d="M103.838 113.545C103.668 113.67 103.486 113.692 103.291 113.613C101.084 111.885 98.8961 110.13 96.7283 108.35C96.5982 108.138 96.5526 107.91 96.5916 107.666C96.7793 107.645 96.9617 107.667 97.1385 107.734C99.1953 109.472 101.292 111.159 103.428 112.793C103.716 112.966 103.852 113.216 103.838 113.545Z" fill="#E6925D"/>
<path fill-rule="evenodd" clip-rule="evenodd" d="M121.201 109.99C121.261 109.981 121.307 110.004 121.338 110.059C119.469 111.402 117.509 112.609 115.459 113.682C115.376 113.665 115.33 113.619 115.322 113.545C117.35 112.463 119.31 111.278 121.201 109.99Z" fill="#F3D2A4"/>
<path fill-rule="evenodd" clip-rule="evenodd" d="M173.428 108.075C174.852 111.619 176.083 115.219 177.119 118.876C178.876 125.811 180.243 132.83 181.221 139.931C164.404 139.931 147.588 139.931 130.771 139.931C132.09 131.06 133.776 122.264 135.83 113.544C135.977 113.473 136.137 113.428 136.309 113.407C142.108 114.762 147.964 115.012 153.877 114.159C160.3 113.021 166.452 111.062 172.334 108.28C172.684 108.133 173.049 108.065 173.428 108.075Z" fill="#171719"/>
<path fill-rule="evenodd" clip-rule="evenodd" d="M115.459 116.963C115.459 116.826 115.459 116.689 115.459 116.553C119.3 115.781 122.809 114.255 125.986 111.973C126.163 111.906 126.345 111.883 126.533 111.904C126.555 112.092 126.532 112.274 126.465 112.451C123.834 114.379 120.94 115.814 117.783 116.758C117.017 116.924 116.243 116.993 115.459 116.963Z" fill="#E7935D"/>
<path fill-rule="evenodd" clip-rule="evenodd" d="M89.8925 119.15C90.6364 119.491 91.411 119.81 92.2167 120.107C92.2568 120.316 92.2568 120.498 92.2167 120.654C91.9556 120.936 91.6366 121.141 91.2597 121.27C90.0612 121.514 89.2409 121.081 88.7987 119.971C88.7899 119.911 88.8126 119.865 88.8671 119.834C88.9815 120.154 89.1639 120.428 89.414 120.654C89.4823 120.586 89.5507 120.518 89.6191 120.449C89.4717 120.357 89.3805 120.22 89.3456 120.039C89.4707 119.693 89.6531 119.396 89.8925 119.15Z" fill="#EDA16E"/>
<path fill-rule="evenodd" clip-rule="evenodd" d="M118.739 119.151C118.639 118.985 118.594 118.803 118.603 118.604C122.102 117.916 125.292 116.526 128.173 114.434C128.422 114.327 128.604 114.395 128.72 114.639C128.07 115.306 127.341 115.876 126.532 116.348C124.106 117.757 121.508 118.691 118.739 119.151Z" fill="#E7935D"/>
<path fill-rule="evenodd" clip-rule="evenodd" d="M96.866 118.739C96.8604 119.008 96.8147 119.281 96.7293 119.559C96.6695 119.344 96.5328 119.185 96.3191 119.081C94.4703 117.952 92.6929 116.721 90.9871 115.389C90.8668 115.204 90.8211 114.999 90.8504 114.774C91.145 114.757 91.4184 114.825 91.6707 114.979C93.3891 116.267 95.1208 117.52 96.866 118.739Z" fill="#E4915C"/>
<path fill-rule="evenodd" clip-rule="evenodd" d="M128.721 118.193C126.918 119.295 124.958 119.842 122.842 119.833C125.524 119.244 127.894 118.037 129.951 116.21C130.081 116.144 130.218 116.122 130.361 116.142C130.383 116.33 130.36 116.512 130.293 116.689C129.82 117.272 129.296 117.773 128.721 118.193Z" fill="#EA9862"/>
<path fill-rule="evenodd" clip-rule="evenodd" d="M88.6619 119.696C88.3632 120.006 87.9986 120.211 87.5682 120.312C86.1572 120.382 85.3369 119.721 85.1072 118.329C85.0683 118.085 85.1138 117.857 85.2439 117.646C85.9562 116.819 86.731 116.067 87.5682 115.39C88.9081 115.011 89.6373 115.512 89.7557 116.894C89.7126 117.959 89.348 118.893 88.6619 119.696Z" fill="#F6BB92"/>
<path fill-rule="evenodd" clip-rule="evenodd" d="M84.2866 118.193C82.2366 118.485 81.2341 117.574 81.2788 115.459C81.981 114.643 82.7557 113.891 83.603 113.203C84.5123 112.822 85.2643 113.028 85.8589 113.818C86.1416 114.61 86.0961 115.385 85.7221 116.143C85.3821 116.458 85.1087 116.823 84.9018 117.236C84.5675 117.438 84.2713 117.689 84.0132 117.988C84.1384 118.026 84.2294 118.095 84.2866 118.193Z" fill="#F6BB91"/>
<path fill-rule="evenodd" clip-rule="evenodd" d="M89.8926 119.15C89.6532 119.396 89.4708 119.692 89.3457 120.039C89.3806 120.22 89.4718 120.357 89.6191 120.449C89.5508 120.517 89.4824 120.586 89.4141 120.654C89.164 120.428 88.9816 120.154 88.8672 119.834C88.8126 119.865 88.7899 119.911 88.7988 119.97C88.6843 119.924 88.6386 119.833 88.6621 119.697C89.3482 118.893 89.7128 117.959 89.7559 116.894C89.6375 115.513 88.9083 115.012 87.5684 115.39C86.7312 116.068 85.9564 116.82 85.2441 117.646C85.114 117.857 85.0685 118.085 85.1074 118.33C85.0171 118.163 84.9259 117.981 84.834 117.783C84.6491 117.923 84.4669 118.06 84.2871 118.193C84.23 118.094 84.1389 118.026 84.0137 117.988C84.2718 117.689 84.5681 117.438 84.9023 117.236C85.1092 116.823 85.3826 116.458 85.7227 116.142C86.0966 115.385 86.1421 114.61 85.8594 113.818C85.2648 113.027 84.5128 112.822 83.6035 113.203C82.7563 113.891 81.9815 114.643 81.2793 115.459C81.2194 115.321 81.1284 115.321 81.0059 115.459C80.9487 115.36 80.8577 115.292 80.7324 115.254C81.2619 114.7 81.7176 114.085 82.0996 113.408C82.5895 112.989 83.1363 112.647 83.7402 112.383C85.8011 112.172 86.8265 113.106 86.8164 115.185C86.9303 115.071 87.0443 114.957 87.1582 114.843C89.1125 114.157 90.2517 114.841 90.5762 116.894C90.4716 117.687 90.2437 118.438 89.8926 119.15Z" fill="#E48F59"/>
<path fill-rule="evenodd" clip-rule="evenodd" d="M82.0988 113.408C81.7168 114.085 81.2611 114.7 80.7316 115.254C80.8569 115.292 80.9479 115.36 81.0051 115.459C79.7351 115.97 78.8009 115.605 78.2023 114.365C78.0908 113.656 78.1135 112.973 78.2707 112.314C78.2618 112.374 78.2845 112.42 78.339 112.451C78.4105 112.216 78.5473 112.033 78.7492 111.904C80.0026 112.131 81.1192 112.632 82.0988 113.408Z" fill="#EEA270"/>
<path fill-rule="evenodd" clip-rule="evenodd" d="M100.419 116.553C100.419 116.644 100.419 116.735 100.419 116.826C100.144 116.727 99.8704 116.613 99.5986 116.484C97.6846 115.072 95.7705 113.659 93.8564 112.246C93.5257 112.04 93.389 111.744 93.4463 111.357C93.634 111.336 93.8164 111.359 93.9932 111.426C95.9284 112.917 97.888 114.376 99.8721 115.801C100.141 115.999 100.323 116.25 100.419 116.553Z" fill="#E6925C"/>
<path fill-rule="evenodd" clip-rule="evenodd" d="M50.1074 117.92C50.153 117.92 50.1986 117.92 50.2441 117.92C51.2225 122.127 52.134 126.365 52.9785 130.635C54.1097 130.366 55.2035 129.979 56.2598 129.473C57.3751 128.923 58.4689 128.353 59.541 127.764C59.6848 127.743 59.8216 127.766 59.9512 127.832C59.7975 127.947 59.7063 128.106 59.6777 128.311C60.1666 132.188 60.6679 136.062 61.1816 139.932C45.5045 139.932 29.8275 139.932 14.1504 139.932C15.1841 134.375 16.2095 128.815 17.2266 123.252C17.2972 122.875 17.4568 122.556 17.7051 122.295C18.8828 122.441 20.0221 122.737 21.123 123.184C23.7878 124.584 26.3855 126.088 28.916 127.695C34.5867 130.798 40.6479 132.12 47.0996 131.66C48.1342 127.089 49.1367 122.509 50.1074 117.92Z" fill="#171719"/>
</g>
<defs>
<clipPath id="clip0_2021_25428">
<rect width="210" height="140" rx="70" fill="white"/>
</clipPath>
</defs>
</svg>
