<svg width="30" height="31" viewBox="0 0 30 31" fill="none" xmlns="http://www.w3.org/2000/svg">
<path d="M16.8393 1.45996L29.0708 22.6448C29.2573 22.9678 29.3555 23.3343 29.3555 23.7073C29.3555 24.0803 29.2573 24.4467 29.0708 24.7698C28.8843 25.0928 28.616 25.3611 28.293 25.5476C27.97 25.7341 27.6035 25.8323 27.2305 25.8323H2.76752C2.39451 25.8323 2.02808 25.7341 1.70504 25.5476C1.38201 25.3611 1.11376 25.0928 0.927261 24.7698C0.740759 24.4467 0.642576 24.0803 0.642578 23.7073C0.64258 23.3343 0.740769 22.9678 0.927274 22.6448L13.1588 1.45996C13.9762 0.0432943 16.0204 0.0432943 16.8393 1.45996ZM14.999 18.2503C14.6233 18.2503 14.263 18.3995 13.9973 18.6652C13.7316 18.9309 13.5824 19.2912 13.5824 19.667C13.5824 20.0427 13.7316 20.403 13.9973 20.6687C14.263 20.9344 14.6233 21.0836 14.999 21.0836C15.3747 21.0836 15.7351 20.9344 16.0008 20.6687C16.2664 20.403 16.4157 20.0427 16.4157 19.667C16.4157 19.2912 16.2664 18.9309 16.0008 18.6652C15.7351 18.3995 15.3747 18.2503 14.999 18.2503ZM14.999 8.33363C14.652 8.33367 14.3171 8.46107 14.0578 8.69164C13.7985 8.92222 13.6329 9.23994 13.5923 9.58455L13.5824 9.75029V15.417C13.5828 15.778 13.721 16.1253 13.9689 16.3879C14.2168 16.6505 14.5555 16.8085 14.916 16.8296C15.2765 16.8508 15.6314 16.7335 15.9083 16.5018C16.1852 16.27 16.3631 15.9413 16.4058 15.5827L16.4157 15.417V9.75029C16.4157 9.37457 16.2664 9.01424 16.0008 8.74856C15.7351 8.48288 15.3747 8.33363 14.999 8.33363Z" fill="#771FAC"/>
</svg>
