<svg width="150" height="150" viewBox="0 0 150 150" fill="none" xmlns="http://www.w3.org/2000/svg">
<g opacity="0.5">
<path fill-rule="evenodd" clip-rule="evenodd" d="M81.9253 65.2918C81.6461 65.7809 81.3648 66.2722 81.0856 66.7613C79.6224 68.3337 77.8737 69.4883 75.8374 70.2252C71.3638 70.4204 68.0406 68.5667 65.8657 64.662C65.8237 62.4514 65.7187 60.2472 65.5508 58.0492C65.6201 57.9442 65.6914 57.8393 65.7607 57.7343C71.1454 60.3647 76.4651 60.2241 81.7154 57.3145C82.1521 59.9764 82.2213 62.6362 81.9253 65.2918Z" fill="#F0C5A0"/>
<path fill-rule="evenodd" clip-rule="evenodd" d="M137.137 62.3537C137.108 61.6987 136.827 61.1739 136.298 60.7792C134.988 60.33 133.728 60.4706 132.519 61.1991C129.779 62.9919 126.91 64.5664 123.912 65.9225L123.702 65.7126C124.825 64.3543 124.999 62.8848 124.227 61.3041C122.85 60.1914 121.485 60.2271 120.133 61.409L115.095 65.1878C112.754 67.1023 111.179 69.5165 110.371 72.4304C110.019 74.8404 109.563 77.2189 109.007 79.568C107.94 76.333 106.645 73.184 105.123 70.1211C102.938 66.5607 99.753 64.5664 95.5712 64.1381C92.9114 64.0688 90.2536 63.9975 87.5938 63.9282C86.9997 63.0885 86.2986 62.3537 85.4945 61.7239C85.293 61.5434 85.293 61.4027 85.4945 61.3041C90.3712 62.9709 94.9897 62.4461 99.3499 59.7296C101.882 57.7101 103.282 55.0859 103.549 51.8572C103.513 50.944 103.549 50.035 103.653 49.1281C103.805 49.2415 103.91 49.3821 103.968 49.548C104.462 50.2533 104.846 51.0238 105.123 51.8572C105.276 53.6311 105.207 55.3798 104.913 57.1055C105.471 57.6198 106.068 57.6555 106.697 57.2104C109.351 55.0334 110.611 52.1994 110.476 48.7082C110.212 45.8511 109.338 43.1934 107.852 40.7309C105.631 37.9451 103.742 34.9368 102.184 31.7039C101.693 30.3729 101.204 29.042 100.714 27.7152C99.6228 23.4179 98.4325 19.148 97.1457 14.9095C96.0225 11.6471 94.2381 8.81309 91.7924 6.40729C88.9311 4.28909 85.7129 3.44937 82.1356 3.88812C78.5038 1.20941 74.4102 -0.085859 69.8547 0.004411C58.8733 0.770657 51.1058 6.15957 46.5525 16.169C45.0368 20.4159 43.8465 24.7552 42.9836 29.1847C42.6331 30.1651 42.2846 31.1434 41.934 32.1237C39.841 36.1691 37.7417 40.2271 35.6361 44.2997C34.1099 48.1561 34.1099 52.0041 35.6361 55.8459C36.7403 58.2475 38.5247 59.8576 40.9893 60.6743C41.5519 60.6974 41.9025 60.4517 42.039 59.9395C40.9368 57.9137 40.6219 55.7808 41.0943 53.5366C42.1586 59.1481 45.5532 62.1921 51.2759 62.6686C53.3647 62.8491 55.3926 62.6749 57.3639 62.1438C58.8271 61.936 60.2273 61.5161 61.5625 60.8842C61.8228 61.4447 61.8228 62.0031 61.5625 62.5636C60.9705 63.0507 60.4121 63.5755 59.883 64.1381C56.9314 63.9156 53.9924 64.0541 51.066 64.558C47.875 65.2256 45.3223 66.8693 43.4035 69.4913C41.6674 72.4577 40.3385 75.6066 39.4148 78.9382C39.0642 77.0488 38.7158 75.1595 38.3652 73.2701C37.9873 71.578 37.2882 70.0372 36.2659 68.6516C33.5452 65.8428 30.5705 63.3593 27.3438 61.1991C26.4243 60.5168 25.4461 60.3762 24.4048 60.7792C22.8261 62.4272 22.8261 64.1066 24.4048 65.8176C22.7107 65.2507 21.1005 64.4446 19.5764 63.4034C17.8277 61.9506 15.8334 60.9724 13.5934 60.4643C12.6865 60.4454 12.0924 60.8653 11.809 61.7239C9.03372 61.5623 8.05334 62.8219 8.86997 65.5027C8.36404 66.5355 8.33045 67.5852 8.765 68.6516C10.52 71.2107 12.655 73.3813 15.1679 75.1595C18.7262 77.5527 22.4693 79.652 26.3991 81.4574C27.157 87.1171 27.8561 92.7852 28.4985 98.4617C29.038 103.282 30.2976 107.9 32.2772 112.317C33.7908 115.015 36.0643 116.661 39.0999 117.251C44.9591 117.433 49.0191 114.809 51.2759 109.378C50.9442 112.424 50.4194 115.504 49.7014 118.615C49.0464 120.46 48.6958 122.35 48.6518 124.283C48.9751 124.676 49.2899 125.06 49.5964 125.438C47.3985 131.595 45.9982 137.929 45.3978 144.436C45.3643 144.863 45.3999 145.283 45.5028 145.696C45.6435 145.854 45.8177 145.925 46.0276 145.906C47.3922 146.395 48.7924 146.781 50.2262 147.061C53.688 147.648 57.1161 148.245 60.5128 148.845C72.3382 150.021 84.0943 149.567 95.7811 147.48C98.273 147.01 100.723 146.38 103.129 145.591C103.353 145.436 103.494 145.226 103.549 144.961C102.881 138.512 101.621 132.179 99.7698 125.963C100.028 125.387 100.412 124.898 100.924 124.493C101.082 123.775 101.046 123.074 100.819 122.394C99.7131 118.229 98.8398 114.03 98.1953 109.798C99.0854 111.752 100.309 113.468 101.869 114.941C106.341 118.256 110.716 118.151 114.99 114.626C117.272 111.566 118.741 108.137 119.398 104.34C120.572 96.8033 121.588 89.2458 122.442 81.6673C128.746 79.2468 134.379 75.7494 139.342 71.1708C140.691 69.7496 141.006 68.1415 140.286 66.3424C141.407 63.3992 140.358 62.0703 137.137 62.3537ZM55.0546 42.8302C54.872 42.6035 54.6621 42.5678 54.4248 42.7252C53.0897 43.7203 51.6202 43.9302 50.0163 43.355C47.05 41.3019 45.824 38.4678 46.3425 34.8528C46.5399 34.074 46.924 33.4106 47.4971 32.8585C49.6174 31.79 51.4375 32.2098 52.9553 34.1181C53.2933 34.2692 53.6082 34.2335 53.9 34.0131C54.005 31.9852 54.0407 29.9552 54.005 27.9251C55.5312 27.6186 57.0007 27.1274 58.4135 26.4556C58.7473 27.035 59.2364 27.2093 59.883 26.9805C60.8151 26.0484 61.8648 25.2779 63.032 24.6712C64.4385 24.4697 65.8367 24.2598 67.2306 24.0414C67.5938 23.3151 67.4552 22.721 66.8107 22.257C71.5803 19.2718 75.1135 15.2139 77.4122 10.0811C77.9265 11.5296 78.5563 12.9298 79.3016 14.2797C81.1343 17.0214 83.1979 19.5762 85.4945 21.9421C86.8885 23.2311 88.4273 24.3164 90.113 25.196C90.5475 27.9042 90.8624 30.6332 91.0577 33.3833C91.3831 33.8074 91.7693 33.8767 92.2123 33.5933C92.523 32.848 92.7686 32.0776 92.9471 31.284C95.0841 30.1735 96.7636 30.6647 97.9854 32.7535C98.8566 35.9907 98.1218 38.7911 95.7811 41.1508C95.2101 41.7155 94.511 41.9947 93.6818 41.9905C92.7434 41.7637 91.8323 41.4845 90.9527 41.1508C90.2599 45.8616 88.1606 49.8167 84.6548 53.0118C78.3653 57.4225 71.7168 58.0187 64.7114 54.7962C59.8536 52.1595 56.6354 48.1708 55.0546 42.8302ZM81.9257 65.2927C81.6465 65.7819 81.3652 66.2731 81.086 66.7622C79.6228 68.3346 77.8741 69.4892 75.8377 70.2261C71.3641 70.4213 68.0409 68.5676 65.866 64.6629C65.8241 62.4524 65.7191 60.2481 65.5511 58.0501C65.6204 57.9452 65.6918 57.8402 65.7611 57.7352C71.1458 60.3657 76.4654 60.225 81.7158 57.3154C82.1524 59.9773 82.2217 62.6371 81.9257 65.2927ZM106.173 90.0645C103.985 90.879 101.886 91.8594 99.8747 93.0035C99.6816 88.1562 98.9133 83.3971 97.5655 78.7283C97.1541 77.9012 96.5243 77.6912 95.6761 78.0985C95.5355 78.7283 95.5355 79.3581 95.6761 79.9879C96.6712 83.9576 97.3346 87.982 97.6705 92.0589C96.9315 96.734 96.3017 101.422 95.7811 106.124C96.0456 111.181 96.8853 116.115 98.3003 120.924C98.4934 121.825 98.6341 122.734 98.7201 123.653C85.2258 128.431 71.5111 129.13 57.5738 125.753C55.4724 125.089 53.3731 124.355 51.2759 123.548C51.0618 123.439 50.9232 123.265 50.856 123.024C51.4837 120.444 52.0778 117.853 52.6404 115.256C53.371 111.65 53.6502 108.011 53.4802 104.34C52.7181 99.9102 52.0526 95.466 51.4858 91.0092C51.5803 89.2878 51.7545 87.5726 52.0106 85.8659C52.5859 83.4412 52.9343 80.9913 53.0603 78.5183C52.1345 77.8361 51.5047 78.046 51.1709 79.1481C50.1171 83.6385 49.4516 88.1877 49.1766 92.7936C46.9114 91.7125 44.6379 90.6628 42.3539 89.6447C41.7094 87.4509 41.1153 85.2466 40.5694 83.0318C41.2979 80.1537 42.1733 77.3196 43.1936 74.5297C44.8478 70.1442 47.9632 67.5201 52.5355 66.6573C54.704 66.5523 56.8726 66.5166 59.0433 66.5523C59.9901 71.6977 62.6499 75.7221 67.0207 78.6233C68.0556 78.5414 68.931 78.088 69.6448 77.2588C70.3376 78.1888 71.0009 79.1334 71.6391 80.0928C69.5713 90.2891 68.1018 100.576 67.2306 110.953C67.3188 111.41 67.4237 111.866 67.5455 112.317C69.819 114.452 72.0947 116.585 74.3682 118.72C75.3171 119.215 76.1568 119.075 76.8874 118.3C78.9468 116.31 80.9411 114.246 82.8704 112.107C82.3477 101.552 80.8782 91.1247 78.4619 80.8276C78.485 79.4462 78.9384 78.1867 79.8264 77.0488C80.3827 77.6072 81.0125 78.0607 81.7158 78.4134C81.995 78.554 82.2763 78.554 82.5555 78.4134C86.3384 75.2896 88.4377 71.2673 88.8534 66.3424C91.3789 66.292 93.898 66.397 96.4109 66.6573C99.4591 67.2598 101.733 68.9035 103.234 71.5906C105.222 75.594 106.796 79.7569 107.957 84.0815C107.403 86.0905 106.809 88.0849 106.173 90.0645Z" fill="#511B72"/>
<path fill-rule="evenodd" clip-rule="evenodd" d="M95.7827 41.1478C95.2117 41.7125 94.5126 41.9917 93.6834 41.9875C92.745 41.7608 91.8339 41.4816 90.9543 41.1478C90.2615 45.8586 88.1622 49.8137 84.6564 53.0089C78.3669 57.4195 71.7184 58.0157 64.713 54.7933C59.8552 52.1566 56.637 48.1679 55.0562 42.8273C54.8736 42.6005 54.6637 42.5648 54.4264 42.7223C53.0913 43.7174 51.6218 43.9273 50.0179 43.3521C47.0516 41.299 45.8256 38.4649 46.3441 34.8499C46.5415 34.0711 46.9256 33.4077 47.4987 32.8556C49.619 31.787 51.4391 32.2069 52.9569 34.1151C53.2949 34.2663 53.6098 34.2306 53.9016 34.0102C54.0066 31.9823 54.0423 29.9522 54.0066 27.9222C55.5328 27.6157 57.0023 27.1245 58.4151 26.4527C58.7489 27.0321 59.238 27.2063 59.8846 26.9775C60.8167 26.0454 61.8664 25.275 63.0336 24.6683C64.4401 24.4667 65.8383 24.2568 67.2322 24.0385C67.5954 23.3121 67.4568 22.718 66.8123 22.2541C71.5819 19.2689 75.1151 15.2109 77.4138 10.0781C77.9281 11.5266 78.5579 12.9269 79.3032 14.2767C81.1359 17.0184 83.1995 19.5733 85.4961 21.9392C86.8901 23.2282 88.4289 24.3135 90.1146 25.1931C90.5491 27.9012 90.864 30.6303 91.0593 33.3804C91.3847 33.8044 91.7709 33.8737 92.2139 33.5903C92.5246 32.8451 92.7702 32.0746 92.9487 31.2811C95.0857 30.1706 96.7652 30.6618 97.987 32.7506C98.8582 35.9877 98.1234 38.7882 95.7827 41.1478Z" fill="#F0C5A0"/>
<path fill-rule="evenodd" clip-rule="evenodd" d="M73.7383 45.7681C75.4975 45.6232 77.1412 45.9738 78.6716 46.8177C79.1817 47.8527 78.8312 48.3439 77.622 48.2873C75.1427 47.8632 72.7285 48.0731 70.3794 48.9171C69.2898 48.7617 69.0799 48.2369 69.7496 47.3426C70.9945 46.5448 72.3233 46.02 73.7383 45.7681Z" fill="#511B72"/>
<path fill-rule="evenodd" clip-rule="evenodd" d="M94.7302 33.3825C95.6245 33.1621 96.1829 33.477 96.4096 34.3272C96.1094 34.978 95.6539 35.5028 95.0451 35.9017C94.8498 36.8884 94.6399 37.8687 94.4153 38.8407C93.3383 39.5713 92.7442 39.29 92.6309 38.001C92.6582 36.1305 93.3572 34.5896 94.7302 33.3825Z" fill="#511B72"/>
<path fill-rule="evenodd" clip-rule="evenodd" d="M48.7562 34.6416C50.0305 34.5955 51.0445 35.0867 51.8002 36.1112C52.6462 37.3896 53.0661 38.7899 53.0598 40.3098C52.5434 40.8556 52.0186 40.8556 51.4853 40.3098C51.1746 39.5645 50.929 38.7941 50.7506 38.0005C50.5847 37.6248 50.3412 37.3099 50.0158 37.0558C49.3986 36.8585 48.8024 36.6129 48.2314 36.3211C47.9879 35.5926 48.1621 35.0321 48.7562 34.6416Z" fill="#511B72"/>
<path fill-rule="evenodd" clip-rule="evenodd" d="M73.7413 32.9627C74.2451 32.9396 74.6314 33.1495 74.8959 33.5924C75.5824 35.0452 76.3507 36.4454 77.2051 37.7911C77.4465 40.6293 76.1513 41.9246 73.3214 41.6748C72.6013 41.1772 72.53 40.6188 73.1115 39.9953C74.1989 40.0142 74.898 39.5251 75.2108 38.5258C74.3753 37.262 73.7098 35.8975 73.2164 34.4322C73.0758 34.153 73.0758 33.8717 73.2164 33.5924C73.4369 33.4098 73.6111 33.1999 73.7413 32.9627Z" fill="#511B72"/>
<path fill-rule="evenodd" clip-rule="evenodd" d="M63.4528 29.3943C65.2603 29.1361 66.3435 29.9066 66.7067 31.7036C67.0405 33.2402 66.7256 34.6048 65.762 35.7972C63.9839 36.6411 62.7579 36.1163 62.0883 34.2227C61.5005 32.2851 61.956 30.6749 63.4528 29.3943Z" fill="#511B72"/>
<path fill-rule="evenodd" clip-rule="evenodd" d="M80.6645 28.1328C82.6756 28.5422 83.5867 29.8018 83.3936 31.9116C83.5909 33.738 82.8205 34.8569 81.0844 35.2704C79.323 34.7645 78.5547 33.5742 78.7751 31.7016C78.7017 30.0978 79.3314 28.9075 80.6645 28.1328Z" fill="#511B72"/>
<path fill-rule="evenodd" clip-rule="evenodd" d="M77.9379 19.9484C80.8203 19.7993 83.2345 20.7776 85.1805 22.8874C85.487 23.4899 85.5563 24.1197 85.3905 24.7768C84.4164 25.0119 83.6124 24.697 82.9763 23.8321C82.0463 23.2968 81.0659 22.8769 80.0373 22.5725C78.8281 22.4906 77.6398 22.5599 76.4684 22.7824C75.9457 22.2303 75.9121 21.6362 76.3635 20.998C76.8736 20.5887 77.3984 20.2381 77.9379 19.9484Z" fill="#511B72"/>
<path fill-rule="evenodd" clip-rule="evenodd" d="M134.62 62.5645H135.25C135.285 63.3349 134.937 63.8597 134.2 64.1389C131.504 65.6609 128.775 67.1304 126.013 68.5475C125.217 69.3557 125.217 70.1954 126.013 71.0666L125.803 71.2766C123.873 71.4193 121.984 71.7699 120.135 72.3262C119.066 72.7377 118.121 73.3318 117.3 74.1106C117.16 74.5305 117.16 74.9503 117.3 75.3702C117.592 75.5906 117.907 75.6263 118.245 75.4752C119.4 74.6879 120.659 74.1274 122.024 73.7957C124.654 73.4241 127.243 72.8636 129.791 72.1163C132.764 70.7097 135.703 69.2738 138.608 67.8127C138.466 68.5874 138.151 69.2864 137.664 69.912C135.124 72.3829 132.29 74.4465 129.162 76.105C126.235 77.5703 123.332 79.0755 120.449 80.6185C119.528 87.6133 118.617 94.6103 117.72 101.611C117.25 105.47 115.991 109.039 113.942 112.318C110.896 115.775 107.501 116.16 103.76 113.473C100.456 110.395 98.7049 106.583 98.5117 102.031C98.7573 99.9929 99.0722 97.9629 99.4564 95.9434C101.22 94.6922 103.143 93.8882 105.229 93.5292C104.083 96.4304 103.034 99.3694 102.081 102.346C102.23 103.331 102.788 103.681 103.76 103.396C107.696 93.8252 110.53 83.9228 112.262 73.6908C112.871 71.1947 114.095 69.0618 115.936 67.2879C117.756 65.8877 119.574 64.4895 121.394 63.0893C121.715 62.8772 122.064 62.7723 122.444 62.7744C122.507 63.7002 122.261 64.5399 121.709 65.2935C120.752 66.255 119.771 67.1661 118.77 68.0226C118.631 68.6209 118.877 68.9715 119.505 69.0723C122.356 68.2746 125.154 67.3299 127.902 66.2382C130.127 64.9514 132.367 63.7275 134.62 62.5645Z" fill="#F0C5A0"/>
<path fill-rule="evenodd" clip-rule="evenodd" d="M137.557 64.4529C138.625 64.4067 138.835 64.793 138.186 65.6075C135.844 66.8146 133.534 68.0742 131.259 69.3863C130.35 69.7935 129.439 70.1777 128.53 70.5409C127.94 70.4401 127.658 70.0895 127.69 69.4912C131.135 68.0826 134.424 66.4032 137.557 64.4529Z" fill="#F0C5A0"/>
<path fill-rule="evenodd" clip-rule="evenodd" d="M63.2443 64.0312C63.9182 66.2229 65.1778 68.0766 67.0231 69.5944C68.3289 70.5181 69.6577 71.3914 71.0118 72.2185C69.8928 73.6167 68.7046 74.9455 67.4429 76.2072C63.9287 73.7237 61.863 70.3648 61.25 66.1306C61.8168 65.3202 62.4802 64.6212 63.2443 64.0312Z" fill="#8036AD"/>
<path fill-rule="evenodd" clip-rule="evenodd" d="M84.4434 64.0312C85.9192 64.6967 86.654 65.8157 86.6477 67.3901C86.0347 70.7889 84.4938 73.6587 82.0292 75.9973L77.9355 71.9036C80.6185 70.5496 82.6821 68.5552 84.1285 65.9206C84.3699 65.3139 84.4749 64.6841 84.4434 64.0312Z" fill="#8036AD"/>
<path fill-rule="evenodd" clip-rule="evenodd" d="M10.7591 64.034C11.116 64.0004 11.4666 64.034 11.8087 64.139C14.4833 65.9024 17.2123 67.5818 19.996 69.1773C20.6447 70.0296 20.4348 70.3802 19.3662 70.227C16.5679 68.4069 13.7674 66.5889 10.969 64.7688C10.7927 64.5567 10.7234 64.3111 10.7591 64.034Z" fill="#F0C5A0"/>
<path fill-rule="evenodd" clip-rule="evenodd" d="M98.2992 120.924C98.4923 121.825 98.633 122.734 98.7191 123.653C85.2247 128.431 71.51 129.13 57.5727 125.753C55.4713 125.089 53.372 124.354 51.2748 123.548C51.0607 123.439 50.9221 123.265 50.8549 123.024C51.4826 120.443 52.0767 117.853 52.6394 115.256C53.3699 111.65 53.6491 108.011 53.4791 104.34C52.717 99.9102 52.0515 95.466 51.4847 91.0091C51.5792 89.2877 51.7534 87.5726 52.0096 85.8659C52.5848 83.4412 52.9333 80.9913 53.0592 78.5183C52.1334 77.836 51.5036 78.0459 51.1698 79.1481C50.116 83.6385 49.4505 88.1877 49.1755 92.7936C46.9104 91.7124 44.6368 90.6628 42.3528 89.6446C41.7083 87.4508 41.1142 85.2466 40.5684 83.0318C41.2968 80.1537 42.1722 77.3196 43.1925 74.5296C44.8467 70.1442 47.9621 67.52 52.5344 66.6572C54.703 66.5523 56.8715 66.5166 59.0422 66.5523C59.989 71.6977 62.6488 75.722 67.0196 78.6233C68.0545 78.5414 68.9299 78.0879 69.6437 77.2587C70.3365 78.1887 70.9999 79.1334 71.638 80.0928C69.5702 90.2891 68.1007 100.576 67.2295 110.953C67.3177 111.41 67.4226 111.866 67.5444 112.317C69.818 114.452 72.0936 116.585 74.3671 118.72C75.316 119.215 76.1558 119.075 76.8863 118.3C78.9457 116.31 80.9401 114.246 82.8693 112.107C82.3466 101.552 80.8771 91.1246 78.4608 80.8275C78.4839 79.4462 78.9373 78.1866 79.8253 77.0488C80.3816 77.6072 81.0114 78.0606 81.7147 78.4133C81.9939 78.554 82.2752 78.554 82.5544 78.4133C86.3374 75.2896 88.4367 71.2673 88.8523 66.3423C91.3778 66.292 93.897 66.3969 96.4098 66.6572C99.458 67.2597 101.732 68.9035 103.233 71.5906C105.221 75.594 106.795 79.7569 107.956 84.0814C107.402 86.0905 106.808 88.0848 106.172 90.0645C103.984 90.879 101.885 91.8594 99.8737 93.0035C99.6805 88.1562 98.9122 83.3971 97.5644 78.7282C97.153 77.9011 96.5232 77.6912 95.6751 78.0984C95.5344 78.7282 95.5344 79.358 95.6751 79.9878C96.6701 83.9576 97.3335 87.982 97.6694 92.0588C96.9305 96.7339 96.3007 101.422 95.78 106.124C96.0445 111.181 96.8843 116.115 98.2992 120.924Z" fill="#8036AD"/>
<path fill-rule="evenodd" clip-rule="evenodd" d="M13.6971 62.7734C14.3584 62.8238 14.9882 62.9981 15.5865 63.2983C19.403 66.0232 23.6016 67.9482 28.1823 69.0713C29.022 69.0378 29.3369 68.6179 29.127 67.8118L25.978 64.6628C25.5036 64.0792 25.3986 63.4494 25.6632 62.7734C27.9325 64.3773 30.1704 66.0211 32.3809 67.7068C34.264 69.2393 35.5593 71.1623 36.2646 73.4799C38.0427 83.8525 41.0867 93.8242 45.3966 103.395C46.3329 103.647 46.8934 103.298 47.076 102.345C45.9277 99.2488 44.7374 96.1713 43.5072 93.1084C45.6338 93.6437 47.6618 94.4834 49.5952 95.6275C51.4531 101.174 50.7876 106.386 47.6009 111.267C44.9599 114.874 41.5654 115.888 37.4193 114.311C35.4879 113.146 34.1233 111.5 33.3256 109.378C32.5321 107.256 31.9023 105.087 31.4362 102.87C30.3677 95.8249 29.4566 88.7565 28.7071 81.6672C28.7008 80.8505 28.386 80.1872 27.7625 79.6728C22.8417 77.5987 18.2925 74.9389 14.117 71.6955C12.807 70.5262 11.6524 69.2309 10.6531 67.8118C10.4915 67.4129 10.5608 67.0623 10.8631 66.7621C13.0526 68.1183 15.1855 69.5542 17.2659 71.0657C19.9719 72.6884 22.911 73.5974 26.083 73.7948C27.6428 74.2083 29.0787 74.8738 30.3866 75.7891C31.1801 75.4154 31.3208 74.8549 30.8064 74.1097C29.9856 73.3308 29.0409 72.7367 27.9724 72.3253C26.1103 71.8235 24.2209 71.4729 22.3043 71.2756C22.235 71.2063 22.1636 71.135 22.0943 71.0657C22.9697 70.3981 23.1104 69.6277 22.5142 68.7565C19.4135 66.9427 16.4745 64.9483 13.6971 62.7734Z" fill="#F0C5A0"/>
<path fill-rule="evenodd" clip-rule="evenodd" d="M73.7394 72.6404C74.3734 72.6047 75.0032 72.6404 75.6288 72.7453L77.8331 74.9496C77.9737 75.2288 77.9737 75.5101 77.8331 75.7893C77.3523 76.5766 76.8968 77.3827 76.4685 78.2035C75.3433 78.3778 74.2223 78.3421 73.1096 78.0986C72.2972 77.2399 71.7724 76.2617 71.5352 75.1595C72.2363 74.2841 72.9711 73.4444 73.7394 72.6404Z" fill="white"/>
<path fill-rule="evenodd" clip-rule="evenodd" d="M73.7382 80.6172H76.2573C78.4028 90.5994 79.9437 100.676 80.8758 110.847C79.0599 112.768 77.2041 114.657 75.3126 116.515C73.4233 114.767 71.5339 113.016 69.6445 111.267C70.2932 100.957 71.6578 90.74 73.7382 80.6172Z" fill="white"/>
</g>
</svg>
