<svg width="757" height="385" viewBox="0 0 757 385" fill="none" xmlns="http://www.w3.org/2000/svg">
<mask id="mask0_1936_41922" style="mask-type:alpha" maskUnits="userSpaceOnUse" x="0" y="0" width="757" height="385">
<rect width="757" height="385" rx="12" fill="#8F27CE"/>
</mask>
<g mask="url(#mask0_1936_41922)">
<rect width="757" height="385" rx="12" fill="#8F27CE"/>
<path opacity="0.25" d="M572.604 100.65L593.653 147.785L570.085 158.31C565.397 160.404 560.069 160.549 555.274 158.715C550.478 156.88 546.608 153.216 544.515 148.528L533.99 124.96C533.293 123.398 533.244 121.622 533.856 120.024C534.467 118.425 535.689 117.135 537.251 116.437L572.604 100.65ZM619.74 79.6004C621.303 78.9026 623.079 78.854 624.677 79.4655C626.275 80.077 627.565 81.2984 628.263 82.8611L638.788 106.429C640.881 111.116 641.027 116.444 639.192 121.239C637.357 126.034 633.693 129.904 629.005 131.998L605.437 142.523L584.388 95.3877L619.74 79.6004ZM573.436 15.4759C576.915 13.9214 580.731 13.2724 584.528 13.5893C588.326 13.9062 591.981 15.1787 595.154 17.2883C598.327 19.398 600.915 22.2761 602.677 25.6549C604.438 29.0338 605.316 32.8033 605.229 36.6127L607.214 35.726C610.34 34.3303 613.891 34.2333 617.088 35.4563C620.285 36.6793 622.865 39.1221 624.261 42.2473L626.892 48.1392C628.287 51.2645 628.384 54.8162 627.161 58.0129C625.938 61.2097 623.495 63.7897 620.37 65.1854L579.126 83.6039L565.97 54.1445L554.186 59.4069L567.341 88.8663L526.097 107.285C522.972 108.681 519.42 108.778 516.223 107.555C513.026 106.332 510.446 103.889 509.051 100.764L506.42 94.8716C505.024 91.7464 504.927 88.1947 506.15 84.9979C507.373 81.8011 509.816 79.2211 512.941 77.8254L514.927 76.9387C512.385 74.7608 510.358 72.0449 508.995 68.9876C503.909 57.5986 509.019 44.2429 520.308 39.2015C530.569 34.407 542.695 36.9209 553.841 44.9609L555.281 46.0348C556.332 32.0397 562.172 20.9516 572.21 16.0376L573.436 15.4759ZM525.67 50.9405C523.326 51.9873 521.494 53.9223 520.577 56.3199C519.659 58.7175 519.732 61.3813 520.779 63.7252C521.825 66.0691 523.76 67.9012 526.158 68.8185C528.556 69.7357 531.22 69.663 533.564 68.6162L552.082 60.3463C542.704 51.072 532.653 47.681 525.67 50.9405ZM578.598 27.3043C571.593 30.2913 567.43 40.0373 568.073 53.2052L586.592 44.9353C588.93 43.8752 590.751 41.9298 591.655 39.527C592.559 37.1243 592.471 34.4609 591.411 32.1229C590.351 29.7849 588.406 27.9638 586.003 27.0601C583.6 26.1564 580.937 26.2443 578.598 27.3043Z" fill="white"/>
<path opacity="0.25" d="M674.247 61.0822L674.866 61.3307L732.036 88.8811C732.785 89.2417 733.439 89.7742 733.945 90.4352C734.452 91.0963 734.795 91.8674 734.949 92.6859C735.103 93.5044 735.062 94.3473 734.83 95.1461C734.598 95.9449 734.181 96.6772 733.613 97.2835L733.123 97.7365L688.128 135.045C679.672 142.061 666.981 136.218 666.509 125.439L666.502 124.622L667.31 66.02C667.32 65.2439 667.5 64.4799 667.838 63.7821C668.175 63.0843 668.662 62.4698 669.263 61.982C669.864 61.4943 670.565 61.1452 671.316 60.9596C672.067 60.7739 672.85 60.7562 673.609 60.9077L674.247 61.0822ZM726.856 66.9821C731.477 65.6271 738.034 64.4 744.588 65.7573C745.914 66.0242 747.089 66.7904 747.87 67.8983C748.651 69.0062 748.979 70.3712 748.788 71.7125C748.596 73.0537 747.898 74.2691 746.839 75.1082C745.779 75.9473 744.438 76.3463 743.092 76.223L742.477 76.1302C738.36 75.2751 733.736 76.0021 729.841 77.1468C728.235 77.6134 726.657 78.1755 725.117 78.83L723.598 79.5381C722.358 80.1631 720.921 80.2724 719.599 79.8425C718.277 79.4125 717.176 78.4779 716.534 77.2411C715.892 76.0042 715.762 74.5648 716.171 73.2345C716.58 71.9043 717.496 70.7905 718.72 70.1342C721.323 68.8222 724.047 67.7649 726.854 66.9771M732.044 49.5076C733.314 49.0642 734.705 49.124 735.935 49.6747C737.165 50.2254 738.139 51.2256 738.66 52.471C739.181 53.7164 739.208 55.113 738.736 56.3757C738.265 57.6385 737.33 58.672 736.123 59.2654L735.558 59.5035L732.032 60.743C730.762 61.1864 729.37 61.1266 728.14 60.5759C726.911 60.0252 725.936 59.025 725.415 57.7796C724.895 56.5342 724.867 55.1376 725.339 53.8749C725.81 52.6121 726.745 51.5786 727.952 50.9852L728.518 50.7472L732.044 49.5076ZM714.849 51.2451C716.009 51.8043 716.927 52.7682 717.43 53.9561C717.933 55.144 717.987 56.4741 717.582 57.6971L717.334 58.3122L713.914 65.4725C713.333 66.6839 712.313 67.6271 711.062 68.1105C709.811 68.5938 708.422 68.5811 707.178 68.075C705.933 67.5688 704.927 66.6071 704.363 65.3852C703.798 64.1632 703.718 62.7728 704.139 61.4961L704.387 60.881L707.804 53.7274C708.103 53.1001 708.523 52.5384 709.039 52.0744C709.555 51.6103 710.158 51.253 710.812 51.023C711.467 50.7929 712.16 50.6945 712.853 50.7335C713.546 50.7725 714.223 50.943 714.849 51.2451ZM692.715 29.4603C697.311 35.4031 698.705 43.1903 699.121 48.8283C699.415 52.3322 699.36 55.856 698.958 59.3475C698.785 60.7411 698.067 62.0077 696.962 62.8685C695.857 63.7294 694.455 64.1139 693.065 63.9377C691.675 63.7614 690.41 63.0387 689.549 61.9286C688.688 60.8185 688.301 59.4118 688.474 58.0182C688.791 55.2162 688.828 52.3889 688.585 49.5784C688.253 45.0227 687.235 40.31 685.063 36.9179L684.38 35.9451C683.943 35.3964 683.619 34.7664 683.427 34.0916C683.234 33.4169 683.178 32.7108 683.26 32.0145C683.342 31.3182 683.561 30.6455 683.904 30.0354C684.248 29.4252 684.709 28.8899 685.261 28.4605C685.813 28.031 686.445 27.716 687.12 27.5337C687.795 27.3513 688.5 27.3053 689.193 27.3983C689.886 27.4914 690.555 27.7215 691.159 28.0755C691.764 28.4295 692.293 28.9002 692.715 29.4603ZM723.966 32.1649C725.229 32.7739 726.2 33.8605 726.666 35.1858C727.132 36.5111 727.055 37.9665 726.45 39.2319L724.172 44.0032C723.88 44.6421 723.464 45.216 722.949 45.6916C722.433 46.1671 721.828 46.5347 721.169 46.7729C720.51 47.0112 719.81 47.1153 719.109 47.0791C718.409 47.043 717.722 46.8673 717.09 46.5625C716.457 46.2576 715.891 45.8295 715.425 45.3033C714.959 44.7772 714.601 44.1633 714.374 43.4977C714.146 42.832 714.053 42.1279 714.1 41.4264C714.146 40.7249 714.332 40.04 714.645 39.4117L716.924 34.6404C717.529 33.3752 718.61 32.4036 719.931 31.9393C721.251 31.4751 722.703 31.5562 723.966 32.1649Z" fill="white"/>
<path opacity="0.25" fill-rule="evenodd" clip-rule="evenodd" d="M462.853 95.4714C465.017 94.8257 467.272 94.5412 469.523 94.6412C470.898 94.7002 472.241 94.2121 473.257 93.2844C474.274 92.3567 474.879 91.0653 474.941 89.6943C475.004 88.3234 474.517 86.9851 473.588 85.9739C472.66 84.9628 471.365 84.3616 469.99 84.3026C466.456 84.1541 462.922 84.6174 459.544 85.6719C453.226 87.8773 447.667 91.834 443.521 97.0768C439.376 102.32 436.816 108.63 436.142 115.267L426.18 118.24C424.861 118.634 423.752 119.533 423.097 120.741C422.441 121.949 422.293 123.365 422.686 124.679C423.078 125.993 423.978 127.097 425.188 127.748C426.398 128.399 427.819 128.544 429.138 128.15L436.698 125.894C436.985 127.261 437.352 128.611 437.796 129.937C438.151 131.285 438.583 132.612 439.091 133.911L431.531 136.167C430.212 136.561 429.102 137.46 428.447 138.668C427.792 139.875 427.644 141.292 428.036 142.606C428.428 143.92 429.328 145.024 430.538 145.675C431.748 146.326 433.169 146.47 434.488 146.077L444.451 143.104C448.675 148.313 454.313 152.201 460.696 154.305C467.078 156.41 473.936 156.641 480.455 154.974C484.564 153.762 488.38 151.72 491.664 148.973C492.707 148.087 493.357 146.827 493.473 145.467C493.589 144.107 493.161 142.757 492.282 141.712C491.404 140.667 490.146 140.012 488.783 139.888C487.42 139.765 486.062 140.184 485.005 141.053C482.844 142.861 480.337 144.211 477.637 145.022C473.809 145.959 469.814 145.971 465.984 145.059C462.155 144.146 458.601 142.335 455.618 139.776L464.331 137.175C465.651 136.782 466.76 135.882 467.415 134.674C468.071 133.467 468.218 132.05 467.826 130.736C467.434 129.422 466.534 128.318 465.324 127.667C464.114 127.016 462.693 126.872 461.374 127.265L449.089 130.932C448.564 129.713 448.135 128.456 447.804 127.171L447.683 126.765C447.247 125.511 446.917 124.224 446.696 122.915L458.981 119.248C460.3 118.855 461.409 117.955 462.065 116.748C462.72 115.54 462.868 114.123 462.476 112.809C462.084 111.495 461.183 110.391 459.973 109.74C458.763 109.089 457.342 108.945 456.023 109.339L447.31 111.939C448.401 108.162 450.38 104.696 453.084 101.832C455.787 98.9678 459.137 96.7871 462.853 95.4714Z" fill="white"/>
</g>
</svg>
