<svg width="189" height="28" viewBox="0 0 189 28" fill="none" xmlns="http://www.w3.org/2000/svg">
<path d="M0.677979 17C0.888982 16.0335 1.00016 15.0297 1.00016 14C1.00016 12.9703 0.888982 11.9665 0.677979 11H175V17H0.677979Z" fill="#8F27CE"/>
<circle cx="175" cy="14" r="14" fill="#8F27CE"/>
<path d="M175.336 20C173.15 20 171.565 18.8833 171 17.4167L172.512 16.5833C173.004 17.7333 174.043 18.3667 175.281 18.3667C176.703 18.3667 177.941 17.5333 177.941 15.9833C177.941 14.1667 176.192 13.1667 174.061 13.7833L176.63 9.61667H171.711V8H179.563L176.703 12.4833C178.379 12.6667 180 13.9833 180 16.1C180 18.5 177.905 20 175.336 20Z" fill="white"/>
</svg>
