<svg width="189" height="28" viewBox="0 0 189 28" fill="none" xmlns="http://www.w3.org/2000/svg">
<path d="M0.677734 17C0.888738 16.0335 0.999914 15.0297 0.999914 14C0.999914 12.9703 0.888738 11.9665 0.677734 11H168.39C171.488 11 174 12.3431 174 14C174 15.6569 171.488 17 168.39 17H0.677734Z" fill="#8F27CE"/>
<circle cx="175" cy="14" r="14" fill="#8F27CE"/>
<path d="M174.94 15.0833C176.305 13.3667 176.978 12.6333 176.978 11.5333C176.978 10.2 176.011 9.73333 175.095 9.73333C174.127 9.73333 173.091 10.3 173.091 11.7667V12.0667H171.156V11.6C171.156 9.61667 172.555 8 175.13 8C177.514 8 179 9.41667 179 11.2833C179 12.9 177.911 14.05 176.944 15.2333L174.387 18.35H179V20H171L174.94 15.0833Z" fill="white"/>
</svg>
