<svg width="20" height="20" viewBox="0 0 20 20" fill="none" xmlns="http://www.w3.org/2000/svg">
<circle cx="10" cy="10" r="10" fill="#46A449"/>
<rect width="12" height="12" transform="translate(4 4)" fill="#46A449"/>
<path fill-rule="evenodd" clip-rule="evenodd" d="M14.7803 6.24645C14.921 6.40412 15 6.61794 15 6.84088C15 7.06383 14.921 7.27764 14.7803 7.43531L9.15573 13.7373C9.0814 13.8206 8.99315 13.8866 8.89603 13.9317C8.7989 13.9768 8.6948 14 8.58967 14C8.48454 14 8.38044 13.9768 8.28331 13.9317C8.18619 13.8866 8.09794 13.8206 8.02361 13.7373L5.22909 10.6067C5.15742 10.5292 5.10025 10.4364 5.06092 10.3338C5.0216 10.2312 5.00089 10.1209 5.00003 10.0093C4.99916 9.89764 5.01815 9.78693 5.05588 9.6836C5.09361 9.58027 5.14933 9.4864 5.21979 9.40746C5.29025 9.32851 5.37403 9.26608 5.46625 9.22381C5.55848 9.18153 5.65729 9.16026 5.75693 9.16123C5.85657 9.1622 5.95504 9.18539 6.04659 9.22946C6.13814 9.27352 6.22095 9.33757 6.29017 9.41788L8.58942 11.994L13.7187 6.24645C13.7884 6.16832 13.8711 6.10634 13.9622 6.06405C14.0533 6.02177 14.1509 6 14.2495 6C14.3481 6 14.4457 6.02177 14.5368 6.06405C14.6279 6.10634 14.7106 6.16832 14.7803 6.24645Z" fill="white"/>
</svg>
