<svg width="20" height="20" viewBox="0 0 20 20" fill="none" xmlns="http://www.w3.org/2000/svg">
<circle cx="10" cy="10" r="10" fill="#BB163A"/>
<rect width="13.3333" height="13.3333" transform="translate(3.33203 3.33398)" fill="#BB163A"/>
<path fill-rule="evenodd" clip-rule="evenodd" d="M4.58618 12.788L9.08986 4.97695C9.18469 4.81465 9.31818 4.68047 9.47745 4.58735C9.63671 4.49423 9.81639 4.44531 9.99915 4.44531C10.1819 4.44531 10.3616 4.49423 10.5208 4.58735C10.6801 4.68047 10.8136 4.81465 10.9084 4.97695L15.4121 12.788C15.5049 12.9551 15.554 13.1445 15.5545 13.3374C15.555 13.5303 15.5068 13.72 15.4149 13.8875C15.3229 14.0551 15.1904 14.1948 15.0304 14.2926C14.8704 14.3905 14.6885 14.4431 14.5028 14.4453H5.49547C5.30973 14.4433 5.12774 14.3908 4.96762 14.293C4.8075 14.1952 4.67484 14.0555 4.58286 13.8879C4.49088 13.7202 4.44278 13.5305 4.44336 13.3375C4.44395 13.1445 4.49319 12.9551 4.58618 12.788ZM9.99915 7.48475C10.1684 7.48475 10.3307 7.55459 10.4503 7.67891C10.57 7.80323 10.6372 7.97184 10.6372 8.14766V10.1364C10.6372 10.3122 10.57 10.4808 10.4503 10.6051C10.3307 10.7295 10.1684 10.7993 9.99915 10.7993C9.82991 10.7993 9.66761 10.7295 9.54794 10.6051C9.42828 10.4808 9.36105 10.3122 9.36105 10.1364V8.14766C9.36105 7.97184 9.42828 7.80323 9.54794 7.67891C9.66761 7.55459 9.82991 7.48475 9.99915 7.48475ZM9.36105 12.1251C9.36105 11.9493 9.42828 11.7807 9.54794 11.6564C9.66761 11.5321 9.82991 11.4622 9.99915 11.4622H10.0043C10.1735 11.4622 10.3358 11.5321 10.4555 11.6564C10.5751 11.7807 10.6423 11.9493 10.6423 12.1251C10.6423 12.3009 10.5751 12.4696 10.4555 12.5939C10.3358 12.7182 10.1735 12.788 10.0043 12.788H9.99915C9.82991 12.788 9.66761 12.7182 9.54794 12.5939C9.42828 12.4696 9.36105 12.3009 9.36105 12.1251Z" fill="white"/>
</svg>
