<svg width="40" height="24" viewBox="0 0 40 24" fill="none" xmlns="http://www.w3.org/2000/svg">
  <rect width="40" height="24" rx="4" fill="white"/>
  <path d="M16 8H24V16H16V8Z" fill="#FF5F00"/>
  <path d="M16.5714 12C16.5714 10.2343 17.3686 8.61428 18.6857 7.42857C17.4286 6.42857 15.8857 5.85714 14.2286 5.85714C10.2 5.85714 7 8.62857 7 12C7 15.3714 10.2 18.1429 14.2286 18.1429C15.8857 18.1429 17.4286 17.5714 18.6857 16.5714C17.3686 15.3857 16.5714 13.7657 16.5714 12Z" fill="#EB001B"/>
  <path d="M33 12C33 15.3714 29.8 18.1429 25.7714 18.1429C24.1143 18.1429 22.5714 17.5714 21.3143 16.5714C22.6314 15.3857 23.4286 13.7657 23.4286 12C23.4286 10.2343 22.6314 8.61428 21.3143 7.42857C22.5714 6.42857 24.1143 5.85714 25.7714 5.85714C29.8 5.85714 33 8.62857 33 12Z" fill="#F79E1B"/>
</svg> 