<svg width="40" height="24" viewBox="0 0 40 24" fill="none" xmlns="http://www.w3.org/2000/svg">
  <rect width="40" height="24" rx="4" fill="white"/>
  <path d="M16.4745 8.85692L12.5714 15.1429H10.2857L8.45957 10.4251C8.34247 10.0477 8.24566 9.88752 7.92309 9.74285C7.39309 9.50285 6.51461 9.27885 5.85714 9.14285L5.92938 8.85692H9.58652C10.0354 8.85692 10.4468 9.17143 10.5539 9.63771L11.4794 13.4857L13.8794 8.85692H16.4745ZM26.2794 12.7429C26.2862 10.6937 23.6128 10.5931 23.6279 9.71429C23.6347 9.45715 23.8868 9.18286 24.4354 9.11429C24.7434 9.07886 25.4662 9.05066 26.2862 9.40571L26.6868 7.62857C26.1891 7.44 25.5654 7.25714 24.7979 7.25714C22.3911 7.25714 20.6974 8.55429 20.6845 10.4C20.6702 11.7474 21.8857 12.5006 22.8039 12.9417C23.7514 13.3954 24.0577 13.6766 24.054 14.0537C24.0482 14.634 23.3514 14.8897 22.701 14.9006C21.5805 14.92 20.9108 14.6291 20.3677 14.4L19.9542 16.2474C20.5008 16.4749 21.5343 16.6754 22.6057 16.6857C25.1552 16.6857 26.8334 15.4051 26.8397 13.4343C26.8432 12.3634 26.0762 11.5977 24.816 11.0046C24.0337 10.6183 23.6057 10.3743 23.6122 10.0023C23.6177 9.68 23.9828 9.33714 24.7382 9.33714C25.3494 9.32971 25.7994 9.45714 26.151 9.59429L26.2794 12.7429ZM34.2857 15.1429H36.5714L34.3714 8.85692H32.28C31.891 8.85692 31.5734 9.09886 31.4357 9.46286L27.8571 15.1429H30.4571L30.9214 13.9029H34.0168L34.2857 15.1429ZM31.6834 12.1429L32.8879 9.29715L33.6 12.1429H31.6834Z" fill="#172B85"/>
</svg> 