<svg width="228" height="85" viewBox="0 0 228 85" fill="none" xmlns="http://www.w3.org/2000/svg">
<path fill-rule="evenodd" clip-rule="evenodd" d="M53.3275 56.0207C55.6839 54.6395 57.6848 52.6948 59.1334 50.336C61.324 46.7689 62.0921 42.514 61.2863 38.4107C60.4805 34.3074 58.1592 30.6539 54.7805 28.1708C54.4591 27.9346 54.1303 27.7106 53.7949 27.499C53.8498 27.2216 53.8997 26.9428 53.9444 26.6629C54.6214 22.4284 54.0981 18.0899 52.4335 14.1354C50.7688 10.1808 48.0287 6.76718 44.5216 4.27845C41.0145 1.78972 36.8793 0.324632 32.5814 0.0480114C28.2835 -0.228624 23.9934 0.694205 20.1935 2.71264C16.3937 4.73108 13.235 7.76507 11.0727 11.4733C8.91044 15.1815 7.8304 19.4169 7.95408 23.7029C8.07777 27.9889 9.478 32.386 11.8506 35.9645H14.196L14.4868 33.9505C12.4477 30.8748 11.311 27.2937 11.2047 23.6099C11.0983 19.9261 12.0266 16.2859 13.8851 13.0987C15.7436 9.9115 18.4584 7.30382 21.7243 5.56899C24.9903 3.83416 28.6776 3.041 32.3716 3.27875C36.0656 3.51652 39.6197 4.77574 42.6341 6.91479C45.6485 9.05384 48.0035 11.9878 49.4343 15.3867C50.8433 18.7341 51.3009 22.4015 50.7587 25.9883C48.3172 25.0673 45.6731 24.7183 43.0349 24.9976C39.5689 25.3645 36.3219 26.7938 33.7293 29.0615C30.4376 28.5183 27.0531 28.9635 24.0101 30.347C20.7931 31.8097 18.1222 34.2464 16.3785 37.3096C14.6347 40.3728 13.9072 43.906 14.2997 47.4052C14.5485 49.6234 15.2393 51.756 16.3179 53.6838L15.307 54.7676H9.4066C8.30204 54.7676 7.4066 55.663 7.4066 56.7676V61.5269H2C0.895432 61.5269 0 62.4223 0 63.5269V74.766C0 75.8705 0.89543 76.766 2 76.766H11.1871C11.6928 76.766 12.177 76.5769 12.5473 76.2324C17.1742 71.9284 25.8235 63.924 27.5279 62.5101C31.6227 63.1711 33.237 62.6469 34.6836 62.1771C34.7485 62.156 34.8131 62.135 34.8775 62.1143C34.9788 62.0816 35.0798 62.0496 35.1814 62.0185L38.8289 66.7295C39.3738 67.4332 39.3881 68.4124 38.8639 69.1318L36.1187 72.8989C35.5701 73.6518 35.6138 74.6837 36.2243 75.3874L43.0728 83.282C43.8631 84.1931 45.2739 84.2026 46.0765 83.3023L52.8205 75.7372C53.1471 75.3708 53.3275 74.8971 53.3275 74.4063V56.0207ZM52.6497 31.4147C51.7725 33.6535 50.5456 35.7503 49.0066 37.6244C49.0069 37.6446 49.007 37.6648 49.007 37.6851C49.007 40.2643 46.9069 42.3551 44.3162 42.3551C41.7255 42.3551 39.6253 40.2643 39.6253 37.6851C39.6253 35.1059 41.7255 33.015 44.3162 33.015C45.5402 33.015 46.6547 33.4818 47.4899 34.2462C48.4481 32.8562 49.2228 31.3516 49.7968 29.7699C47.8069 28.9398 45.6237 28.6132 43.4457 28.8437C40.236 29.1835 37.2708 30.7085 35.1351 33.1179C32.9994 35.5273 31.8484 38.6462 31.909 41.859C31.9696 45.0719 33.2375 48.1454 35.4626 50.4733C37.6877 52.8012 40.4788 54.671 43.699 54.8905V56.9797L42.6087 58.1873L39.8722 61.5269L44.6811 67.8461L40.2165 73.9727L44.6036 79.0299L49.3774 73.6749V57.4176L49.2539 53.9073C52.34 52.4326 54.1351 51.0601 55.8187 48.3185C57.5024 45.5769 58.0928 42.3066 57.4734 39.1529C56.8683 36.0711 55.1509 33.3194 52.6497 31.4147ZM21.4383 54.1933C19.6094 52.1913 18.4624 49.6654 18.1607 46.976C17.8591 44.2866 18.4182 41.571 19.7585 39.2166C21.0987 36.8623 23.1515 34.9895 25.624 33.8653C27.1992 33.1491 28.8934 32.7601 30.6046 32.7099C28.8703 35.4513 27.9628 38.6538 28.0246 41.9316C28.1035 46.1119 29.7532 50.1109 32.6482 53.1396C34.0321 54.5874 35.6524 55.7632 37.4246 56.6275C37.4246 56.6275 37.033 57.1026 36.7861 57.3484C36.5392 57.5942 36.0455 57.9629 35.5517 58.2087C35.0579 58.4545 33.5766 58.8232 32.9594 58.8232C32.3422 58.8232 32.4656 58.8232 31.8484 58.8232C31.2312 58.8232 30.1734 58.9531 28.1602 58.6281L26.3825 58.3411L24.999 59.4889C23.2592 60.9323 15.1151 68.4648 10.4157 72.8333H3.95019V65.4596H11.3568V58.7003H17.0809L18.3931 57.2255L21.4383 54.1933Z" fill="#771FAC"/>
<path d="M73.6953 64.5858V19.9883H84.7476V37.3876L98.3746 19.9883H110.62L94.3556 40.1514L112.002 64.5858H99.8818L87.8875 48.1287L84.7476 52.0231V64.5858H73.6953Z" fill="#771FAC"/>
<path d="M124.798 65.214C117.514 65.214 109.35 59.6864 109.35 48.2543C109.35 36.8223 117.514 31.2947 124.798 31.2947C130.513 31.2947 133.59 34.4354 133.841 35.0007H134.029V31.9228H144.893V64.5858H134.029V61.508H133.841C133.59 62.0733 130.513 65.214 124.798 65.214ZM120.025 48.2543C120.025 52.8397 123.354 55.6035 127.122 55.6035C131.015 55.6035 134.28 52.9025 134.28 48.2543C134.28 43.6061 131.015 40.9052 127.122 40.9052C123.354 40.9052 120.025 43.669 120.025 48.2543Z" fill="#771FAC"/>
<path d="M164.292 65.214C157.007 65.214 148.844 59.6864 148.844 48.2543C148.844 36.8223 157.007 31.2947 164.292 31.2947C170.006 31.2947 173.083 34.4354 173.334 35.0007H173.523V31.9228H184.387V64.5858H173.523V61.508H173.334C173.083 62.0733 170.006 65.214 164.292 65.214ZM159.519 48.2543C159.519 52.8397 162.847 55.6035 166.615 55.6035C170.509 55.6035 173.774 52.9025 173.774 48.2543C173.774 43.6061 170.509 40.9052 166.615 40.9052C162.847 40.9052 159.519 43.669 159.519 48.2543Z" fill="#771FAC"/>
<path d="M189.907 64.5858V31.9228H200.771V40.8423C201.839 35.4404 204.978 31.2947 210.756 31.2947C211.509 31.2947 212.326 31.3575 213.205 31.6088V41.973C212.389 41.7846 211.698 41.7217 210.819 41.7217C204.288 41.7217 200.771 45.9931 200.771 51.8975V64.5858H189.907Z" fill="#771FAC"/>
<path d="M217.136 64.5858V31.9228H228V64.5858H217.136ZM217.136 29.3475V19.9883H228V29.3475H217.136Z" fill="#771FAC"/>
</svg>
