<svg width="155" height="142" viewBox="0 0 155 142" fill="none" xmlns="http://www.w3.org/2000/svg">
<path d="M0.695312 140.586V95.9883H11.7476V113.388L25.3746 95.9883H37.6201L21.3556 116.151L39.0017 140.586H26.8818L14.8875 124.129L11.7476 128.023V140.586H0.695312Z" fill="white"/>
<path d="M51.7981 141.214C44.5136 141.214 36.3499 135.686 36.3499 124.254C36.3499 112.822 44.5136 107.295 51.7981 107.295C57.5126 107.295 60.5897 110.435 60.8409 111.001H61.0293V107.923H71.8932V140.586H61.0293V137.508H60.8409C60.5897 138.073 57.5126 141.214 51.7981 141.214ZM47.0255 124.254C47.0255 128.84 50.3537 131.604 54.1216 131.604C58.015 131.604 61.2805 128.903 61.2805 124.254C61.2805 119.606 58.015 116.905 54.1216 116.905C50.3537 116.905 47.0255 119.669 47.0255 124.254Z" fill="white"/>
<path d="M91.2917 141.214C84.0072 141.214 75.8436 135.686 75.8436 124.254C75.8436 112.822 84.0072 107.295 91.2917 107.295C97.0062 107.295 100.083 110.435 100.334 111.001H100.523V107.923H111.387V140.586H100.523V137.508H100.334C100.083 138.073 97.0062 141.214 91.2917 141.214ZM86.5191 124.254C86.5191 128.84 89.8474 131.604 93.6152 131.604C97.5086 131.604 100.774 128.903 100.774 124.254C100.774 119.606 97.5086 116.905 93.6152 116.905C89.8474 116.905 86.5191 119.669 86.5191 124.254Z" fill="white"/>
<path d="M116.907 140.586V107.923H127.771V116.842C128.839 111.44 131.978 107.295 137.756 107.295C138.509 107.295 139.326 107.358 140.205 107.609V117.973C139.389 117.785 138.698 117.722 137.819 117.722C131.288 117.722 127.771 121.993 127.771 127.898V140.586H116.907Z" fill="white"/>
<path d="M144.136 140.586V107.923H155V140.586H144.136ZM144.136 105.347V95.9883H155V105.347H144.136Z" fill="white"/>
<path fill-rule="evenodd" clip-rule="evenodd" d="M100.328 56.0207C102.684 54.6395 104.685 52.6948 106.133 50.336C108.324 46.7689 109.092 42.514 108.286 38.4107C107.48 34.3074 105.159 30.6539 101.78 28.1708C101.459 27.9346 101.13 27.7106 100.795 27.499C100.85 27.2216 100.9 26.9428 100.944 26.6629C101.621 22.4284 101.098 18.0899 99.4335 14.1354C97.7688 10.1808 95.0287 6.76718 91.5216 4.27845C88.0145 1.78972 83.8793 0.324632 79.5814 0.0480114C75.2835 -0.228624 70.9934 0.694205 67.1935 2.71264C63.3937 4.73108 60.235 7.76507 58.0727 11.4733C55.9104 15.1815 54.8304 19.4169 54.9541 23.7029C55.0778 27.9889 56.478 32.386 58.8506 35.9645H61.196L61.4868 33.9505C59.4477 30.8748 58.311 27.2937 58.2047 23.6099C58.0983 19.9261 59.0266 16.2859 60.8851 13.0987C62.7436 9.9115 65.4584 7.30382 68.7243 5.56899C71.9903 3.83416 75.6776 3.041 79.3716 3.27875C83.0656 3.51652 86.6197 4.77574 89.6341 6.91479C92.6485 9.05384 95.0035 11.9878 96.4343 15.3867C97.8433 18.7341 98.3009 22.4015 97.7587 25.9883C95.3172 25.0673 92.6731 24.7183 90.0349 24.9976C86.5689 25.3645 83.3219 26.7938 80.7293 29.0615C77.4376 28.5183 74.0531 28.9635 71.0101 30.347C67.7931 31.8097 65.1222 34.2464 63.3785 37.3096C61.6347 40.3728 60.9072 43.906 61.2997 47.4052C61.5485 49.6234 62.2393 51.756 63.3179 53.6838L62.307 54.7676H56.4066C55.302 54.7676 54.4066 55.663 54.4066 56.7676V61.5269H49C47.8954 61.5269 47 62.4223 47 63.5269V74.766C47 75.8705 47.8954 76.766 49 76.766H58.1871C58.6928 76.766 59.177 76.5769 59.5473 76.2324C64.1742 71.9284 72.8235 63.924 74.5279 62.5101C78.6227 63.1711 80.237 62.6469 81.6836 62.1771C81.7485 62.156 81.8131 62.135 81.8775 62.1143C81.9788 62.0816 82.0798 62.0496 82.1814 62.0185L85.8289 66.7295C86.3738 67.4332 86.3881 68.4124 85.8639 69.1318L83.1187 72.8989C82.5701 73.6518 82.6138 74.6837 83.2243 75.3874L90.0728 83.282C90.8631 84.1931 92.2739 84.2026 93.0765 83.3023L99.8205 75.7372C100.147 75.3708 100.328 74.8971 100.328 74.4063V56.0207ZM99.6497 31.4147C98.7725 33.6535 97.5456 35.7503 96.0066 37.6244C96.0069 37.6446 96.007 37.6648 96.007 37.6851C96.007 40.2643 93.9069 42.3551 91.3162 42.3551C88.7255 42.3551 86.6253 40.2643 86.6253 37.6851C86.6253 35.1059 88.7255 33.015 91.3162 33.015C92.5402 33.015 93.6547 33.4818 94.4899 34.2462C95.4481 32.8562 96.2228 31.3516 96.7968 29.7699C94.8069 28.9398 92.6237 28.6132 90.4457 28.8437C87.236 29.1835 84.2708 30.7085 82.1351 33.1179C79.9994 35.5273 78.8484 38.6462 78.909 41.859C78.9696 45.0719 80.2375 48.1454 82.4626 50.4733C84.6877 52.8012 87.4788 54.671 90.699 54.8905V56.9797L89.6087 58.1873L86.8722 61.5269L91.6811 67.8461L87.2165 73.9727L91.6036 79.0299L96.3774 73.6749V57.4176L96.2539 53.9073C99.34 52.4326 101.135 51.0601 102.819 48.3185C104.502 45.5769 105.093 42.3066 104.473 39.1529C103.868 36.0711 102.151 33.3194 99.6497 31.4147ZM68.4383 54.1933C66.6094 52.1913 65.4624 49.6654 65.1607 46.976C64.8591 44.2866 65.4182 41.571 66.7585 39.2166C68.0987 36.8623 70.1515 34.9895 72.624 33.8653C74.1992 33.1491 75.8934 32.7601 77.6046 32.7099C75.8703 35.4513 74.9628 38.6538 75.0246 41.9316C75.1035 46.1119 76.7532 50.1109 79.6482 53.1396C81.0321 54.5874 82.6524 55.7632 84.4246 56.6275C84.4246 56.6275 84.033 57.1026 83.7861 57.3484C83.5392 57.5942 83.0455 57.9629 82.5517 58.2087C82.0579 58.4545 80.5766 58.8232 79.9594 58.8232C79.3422 58.8232 79.4656 58.8232 78.8484 58.8232C78.2312 58.8232 77.1734 58.9531 75.1602 58.6281L73.3825 58.3411L71.999 59.4889C70.2592 60.9323 62.1151 68.4648 57.4157 72.8333H50.9502V65.4596H58.3568V58.7003H64.0809L65.3931 57.2255L68.4383 54.1933Z" fill="white"/>
</svg>
