<svg width="250" height="250" viewBox="0 0 250 250" fill="none" xmlns="http://www.w3.org/2000/svg">
<g clip-path="url(#clip0_3349_19341)">
<path fill-rule="evenodd" clip-rule="evenodd" d="M147.817 130.585C148.045 130.278 148.087 129.943 147.942 129.586C146.696 126.926 145.511 124.247 144.386 121.55C144.162 121.014 143.941 120.478 143.721 119.939C143.52 119.448 143.318 118.954 143.124 118.46C142.57 117.085 142.038 115.706 141.521 114.319C141.316 113.779 141.118 113.24 140.921 112.7C140.909 112.677 140.902 112.654 140.894 112.628C140.636 111.925 140.385 111.218 140.134 110.511C139.959 110.017 139.785 109.52 139.617 109.022C139.56 108.862 139.503 108.699 139.45 108.539C139.336 108.209 139.226 107.882 139.116 107.551C138.926 106.993 138.74 106.43 138.561 105.868C138.417 105.439 138.28 105.009 138.147 104.58C138.037 104.249 137.934 103.919 137.832 103.588C137.657 103.037 137.486 102.483 137.319 101.928C137.167 101.43 137.015 100.928 136.87 100.423C136.847 100.355 136.828 100.286 136.806 100.218C136.65 99.6783 136.49 99.1387 136.338 98.5954C136.183 98.0596 136.031 97.5163 135.882 96.9767C135.723 96.4029 135.567 95.8254 135.411 95.2478C135.069 93.3327 134.78 91.4101 134.533 89.4836C134.545 89.001 134.628 88.5413 134.784 88.1043C134.659 87.9789 134.533 87.8535 134.408 87.7281C134.359 86.8276 134.233 85.9537 134.032 85.0987C134.051 78.1756 134.051 71.3246 134.032 64.5459C133.584 63.4516 133.5 62.4067 133.785 61.4111C133.599 58.6069 133.348 55.8521 133.033 53.1429C132.337 53.0669 131.71 52.8161 131.152 52.3905C131.049 52.5045 130.924 52.5881 130.776 52.6413C130.217 52.3715 129.632 52.2044 129.02 52.1398C129.043 51.4748 128.876 50.8896 128.519 50.3843C125.76 48.7542 123.169 46.8733 120.752 44.7455C116.782 41.1091 112.982 37.3094 109.346 33.3424C105.033 28.3116 102.111 22.5436 100.576 16.046C98.8665 22.5588 95.7736 28.323 91.3014 33.3424C81.677 43.465 70.3162 50.9846 57.2151 55.8977C56.7401 60.313 56.3222 64.7397 55.965 69.1816C54.7149 65.8416 52.4998 63.3794 49.3233 61.7873C48.0846 61.5251 46.9143 61.6923 45.8124 62.2889C42.9209 64.9563 41.7089 68.2545 42.18 72.191C42.7955 76.7659 44.8435 80.5276 48.3202 83.4686C48.1112 83.6738 48.1948 83.8828 48.571 84.0956C48.3544 84.2666 48.1872 84.4755 48.0694 84.7225C48.305 84.7187 48.4722 84.8441 48.571 85.0987C47.1423 91.0339 45.5123 96.9235 43.6847 102.767C42.7119 104.77 41.8342 106.814 41.0515 108.908C40.7627 109.341 40.7627 109.759 41.0515 110.162C40.8501 110.238 40.683 110.363 40.55 110.538C40.1852 111.336 39.8242 112.138 39.4671 112.943C39.2429 113.441 39.0187 113.943 38.7983 114.444C38.122 115.964 37.4533 117.491 36.7883 119.03C36.454 119.802 36.1234 120.573 35.7928 121.348C35.7624 121.413 35.7359 121.481 35.7055 121.55C35.5117 122.006 35.3179 122.462 35.1241 122.921C34.8771 123.499 34.634 124.076 34.3946 124.658C33.6385 126.459 32.8899 128.268 32.1528 130.088C31.9742 129.848 31.7653 129.806 31.5259 129.962C31.7425 130.133 31.9096 130.342 32.0274 130.585C31.6513 132.242 31.2371 133.789 30.7774 135.225C30.3708 136.129 30.12 137.003 30.025 137.854C23.3529 141.559 18.4666 146.905 15.3623 153.897C13.4245 159.194 12.296 164.623 11.9806 170.186C11.1447 169.141 10.3506 168.055 9.59829 166.93C5.21353 158.874 3.5417 150.272 4.5866 141.114C5.39971 134.332 7.11714 127.812 9.75407 121.55C10.0998 120.714 10.4684 119.882 10.8522 119.057C14.5682 111.792 18.4096 104.61 22.3802 97.5049C25.2907 91.4329 27.7111 85.1671 29.6489 78.7075C32.8975 66.5446 35.9866 54.3474 38.9199 42.1122C41.1541 33.8896 44.665 26.2863 49.4487 19.3062C62.0938 2.68615 78.5955 -3.20345 98.9463 1.63742C106.69 1.34864 113.624 3.52209 119.749 8.15397C125.886 13.7928 130.437 20.5183 133.409 28.3268C136.433 36.4354 138.436 44.7911 139.424 53.3899C140.404 63.7632 141.491 74.1213 142.68 84.4717C143.603 91.2505 145.442 97.767 148.193 104.021C151.259 109.767 154.162 115.611 156.887 121.55C157.08 121.971 157.274 122.393 157.468 122.819C159.227 127.344 160.352 132.025 160.85 136.851C157.046 133.697 152.703 131.608 147.817 130.585Z" fill="#111B2D"/>
<path fill-rule="evenodd" clip-rule="evenodd" d="M69.3734 12.2883C70.6121 12.0679 71.657 12.4023 72.5081 13.2914C72.9678 15.0469 72.5917 16.6352 71.3796 18.0525C72.1927 18.1285 73.0286 18.1703 73.8873 18.1779C74.9702 18.9037 75.1792 19.8612 74.5143 21.0619C73.0286 23.1404 71.0224 24.3943 68.4995 24.8199C66.7327 24.6869 66.1475 23.7673 66.7441 22.0612C66.9568 21.5369 67.124 21.0353 67.2456 20.5566C66.2235 20.8415 65.1786 20.8795 64.1109 20.6819C62.6139 19.8308 62.2377 18.6187 62.9824 17.0494C64.6619 14.8227 66.7934 13.2345 69.3734 12.2883Z" fill="#243042"/>
<path fill-rule="evenodd" clip-rule="evenodd" d="M110.475 17.8018C115.688 23.8927 121.368 29.5316 127.516 34.7182C126.361 34.4332 125.274 33.9317 124.26 33.2135C119.643 30.1015 115.676 26.3018 112.355 21.8105C111.523 20.5642 110.896 19.2267 110.475 17.8018Z" fill="#263143"/>
<path fill-rule="evenodd" clip-rule="evenodd" d="M89.1742 20.5601C89.444 20.75 89.4858 20.997 89.2996 21.3124C80.9899 32.5406 70.3813 40.8963 57.4702 46.3755C57.2993 46.1665 57.341 45.9993 57.5956 45.8739C65.0543 41.6334 71.9886 36.6596 78.3985 30.9599C81.9132 27.373 85.5038 23.9076 89.1742 20.5601Z" fill="#263244"/>
<path fill-rule="evenodd" clip-rule="evenodd" d="M128.523 50.3843C128.474 55.9015 128.307 61.4149 128.022 66.9245C127.699 72.6507 127.03 78.3313 126.016 83.9663C122.683 96.9007 114.997 106.176 102.96 111.788C94.4295 114.87 86.1577 114.243 78.1481 109.907C74.8311 107.958 71.6546 105.826 68.6225 103.516C64.3213 99.5111 60.9359 94.8298 58.4737 89.4798C57.938 88.1613 57.4782 86.8238 57.0944 85.471C53.8496 86.1436 50.9277 85.471 48.3211 83.4648C44.8445 80.5238 42.7965 76.7658 42.181 72.1872C41.7098 68.2544 42.9219 64.9524 45.8134 62.2888C46.9153 61.6923 48.0856 61.5251 49.3204 61.7873C52.4969 63.3794 54.7121 65.8416 55.9622 69.1816C56.3231 64.7397 56.7373 60.313 57.216 55.8977C70.3133 50.9846 81.678 43.4649 91.3024 33.3424C95.7745 28.3268 98.8674 22.5588 100.577 16.0498C102.112 22.5474 105.038 28.3116 109.351 33.3424C112.983 37.3093 116.786 41.1129 120.753 44.7454C123.174 46.8733 125.761 48.7542 128.523 50.3843Z" fill="#F9CFA4"/>
<path fill-rule="evenodd" clip-rule="evenodd" d="M84.6643 65.1728C81.5106 61.1412 77.5818 60.1799 72.8854 62.2887C71.6848 62.9461 70.6817 63.8238 69.8761 64.922C69.5722 65.1044 69.2378 65.188 68.873 65.1728C69.0364 63.7061 69.7052 62.4939 70.8792 61.5402C74.5725 59.021 78.4139 58.7702 82.4073 60.7878C83.6574 61.8252 84.4895 63.1171 84.915 64.6712C84.9036 64.8992 84.82 65.0664 84.6643 65.1728Z" fill="#121316"/>
<path fill-rule="evenodd" clip-rule="evenodd" d="M121.004 65.1727C116.33 59.7733 111.736 59.8569 107.219 65.4235C107.903 62.6877 109.658 60.8068 112.481 59.7847C116.235 58.6638 119.199 59.7087 121.38 62.9195C121.859 63.5958 122.068 64.3482 122.007 65.1765H121.004V65.1727Z" fill="#111216"/>
<path fill-rule="evenodd" clip-rule="evenodd" d="M77.3957 48.3782C80.2075 48.1958 82.966 48.4884 85.6675 49.256C86.7048 49.6663 87.4571 50.3769 87.9245 51.3876C87.8067 51.6346 87.6395 51.8398 87.4229 52.0146C84.0907 51.7676 80.747 51.684 77.3995 51.7638C73.8089 52.3261 70.3019 53.2039 66.8746 54.397C66.7074 54.3134 66.5402 54.2298 66.373 54.1462C67.2546 52.7213 68.4248 51.5928 69.8801 50.7644C72.2967 49.5827 74.8044 48.7886 77.3995 48.382L77.3957 48.3782Z" fill="#11151F"/>
<path fill-rule="evenodd" clip-rule="evenodd" d="M111.227 48.1272C115.487 47.7928 119.412 48.7542 123.006 51.0112C123.72 51.6838 124.389 52.3943 125.012 53.1429C124.803 53.2265 124.594 53.3101 124.385 53.3937C121.038 52.1169 117.569 51.452 113.986 51.3874C111.47 51.7104 108.967 52.003 106.466 52.2651C105.999 51.224 106.25 50.3881 107.219 49.7573C108.533 49.0848 109.871 48.5414 111.227 48.1272Z" fill="#11151D"/>
<path fill-rule="evenodd" clip-rule="evenodd" d="M121.004 65.1729C121.49 69.3412 119.902 72.3924 116.243 74.3227C111.33 75.3524 108.362 73.3879 107.344 68.4331C107.219 67.4337 107.177 66.4306 107.219 65.4237C111.733 59.8571 116.33 59.7735 121.004 65.1729Z" fill="#F7F6F5"/>
<path fill-rule="evenodd" clip-rule="evenodd" d="M112.732 62.6649C115.639 63.1095 117.06 64.8232 116.991 67.8022C117.105 69.8008 116.437 71.4727 114.985 72.814C112.386 73.916 110.589 73.1218 109.597 70.4316C108.473 66.9016 109.518 64.3102 112.732 62.6611V62.6649Z" fill="#121313"/>
<path fill-rule="evenodd" clip-rule="evenodd" d="M84.6632 65.1729C85.2445 72.2367 82.0718 75.2841 75.1375 74.3227C71.0111 72.5444 69.2557 69.4097 69.8751 64.9222C70.6806 63.824 71.6837 62.9463 72.8844 62.2889C77.5845 60.1801 81.5095 61.1376 84.6632 65.1729Z" fill="#F8F7F7"/>
<path fill-rule="evenodd" clip-rule="evenodd" d="M76.893 62.665C79.7503 62.8094 81.3803 64.3103 81.7793 67.1753C82.1934 69.8959 81.2321 71.944 78.8954 73.3157C75.9697 73.6501 74.256 72.3582 73.7583 69.4324C73.1883 66.3964 74.2332 64.1393 76.893 62.665Z" fill="#131313"/>
<path fill-rule="evenodd" clip-rule="evenodd" d="M46.8157 66.6737C48.7725 66.9131 50.2354 67.9124 51.2005 69.6831C52.8419 72.8939 53.636 76.2795 53.5828 79.8322C51.9984 79.8132 50.7863 79.1027 49.9504 77.7006C48.7953 75.0256 48.8371 72.3505 50.0758 69.6793C49.0955 68.49 47.8454 67.9466 46.318 68.0492L45.9418 68.4254C45.7746 68.091 45.7746 67.7566 45.9418 67.4223C46.3218 67.2551 46.6143 67.0043 46.8195 66.6699L46.8157 66.6737Z" fill="#EBA36D"/>
<path fill-rule="evenodd" clip-rule="evenodd" d="M126.016 83.97C127.026 78.335 127.695 72.6544 128.022 66.9282C129.899 63.421 131.362 63.5882 132.407 67.4297C133.037 71.8298 132.369 76.0057 130.4 79.9613C129.367 81.7889 127.904 83.1265 126.016 83.97Z" fill="#ECA56F"/>
<path fill-rule="evenodd" clip-rule="evenodd" d="M101.705 58.4057C101.986 58.854 102.027 59.3556 101.83 59.9104C100.014 64.4168 99.7629 69.0145 101.078 73.6958C101.91 75.6945 102.746 77.6969 103.585 79.7108C104.011 82.9482 102.635 84.9544 99.4514 85.7258C98.5546 85.7448 98.2621 85.3268 98.5736 84.4719C99.3678 84.0121 100.162 83.5523 100.956 83.0926C101.708 82.5074 102.21 81.7551 102.461 80.8355C100.291 76.709 99.1208 72.3241 98.9536 67.677C98.9194 64.2763 99.8389 61.1833 101.712 58.4019L101.705 58.4057Z" fill="#ECA16B"/>
<path fill-rule="evenodd" clip-rule="evenodd" d="M85.4117 91.7407C87.7029 92.5235 90.0434 93.1504 92.4296 93.6216C95.1045 93.7888 97.7757 93.7888 100.451 93.6216C101.796 93.3518 103.133 93.0592 104.459 92.7439C104.41 94.1726 103.657 95.0503 102.202 95.3771C97.4527 96.3802 92.7754 96.1294 88.1664 94.6247C86.8518 94.1802 85.7651 93.4278 84.9102 92.3677C85.1305 92.1891 85.2977 91.9801 85.4117 91.7407Z" fill="#C94E30"/>
<path fill-rule="evenodd" clip-rule="evenodd" d="M48.3204 83.4686C50.9232 85.4787 53.8489 86.1475 57.0937 85.4749C57.4775 86.8314 57.9373 88.1689 58.473 89.4836C60.939 94.8337 64.3206 99.5111 68.6218 103.52C68.6598 106.199 68.5762 108.874 68.371 111.541C68.2 113.373 68.1164 115.212 68.1202 117.055C67.3983 116.979 66.7296 117.062 66.114 117.305C63.5607 121.113 60.4716 124.453 56.8392 127.329C51.5919 129.233 46.3294 131.11 41.048 132.968C37.3357 134.53 33.6615 136.16 30.0215 137.854C30.1165 137.003 30.3672 136.125 30.7738 135.221C31.2336 133.785 31.6515 132.238 32.0277 130.585C31.9099 130.338 31.7427 130.133 31.5261 129.958C31.7655 129.803 31.9745 129.844 32.1531 130.084C34.847 123.453 37.6473 116.937 40.5502 110.534C40.6832 110.359 40.8504 110.234 41.0518 110.158C40.763 109.755 40.763 109.337 41.0518 108.904C41.8345 106.81 42.7122 104.766 43.6849 102.764C45.5125 96.9197 47.1426 91.0301 48.5712 85.0949C48.4724 84.8403 48.3052 84.715 48.0697 84.7188C48.1875 84.4718 48.3546 84.2666 48.5712 84.0918C48.195 83.8828 48.1115 83.6738 48.3204 83.4648V83.4686Z" fill="#0E1624"/>
<path fill-rule="evenodd" clip-rule="evenodd" d="M220.903 121.55C219.695 128.849 215.466 134.997 208.22 139.986C200.184 144.253 191.912 144.755 183.409 141.491C174.423 137.049 169.335 130.403 168.146 121.55C167.834 119.277 167.785 116.861 167.994 114.296C170.148 112.134 171.987 112.385 173.507 115.048C173.534 117.389 173.784 119.558 174.263 121.55C176.144 129.423 181.532 134.567 190.427 136.976C199.846 138.261 207.156 134.959 212.354 127.078C213.243 125.193 213.908 123.351 214.349 121.55C216.283 113.661 213.904 106.605 207.217 100.385C200.279 95.2591 192.843 94.427 184.913 97.8809C183.359 98.6979 181.938 99.701 180.65 100.887C181.779 101.681 182.74 102.642 183.534 103.771C183.698 104.652 183.405 105.363 182.656 105.898C179.077 106.301 175.487 106.468 171.881 106.4C171.337 106.191 170.961 105.815 170.752 105.271C170.737 102.175 170.904 99.0854 171.254 96C171.25 94.161 172.128 93.4504 173.883 93.8684C174.776 94.5219 175.612 95.2325 176.391 96C180.878 92.5841 185.89 90.4144 191.43 89.4835C205.477 89.0047 215.041 95.2705 220.124 108.281C221.321 113.061 221.58 117.484 220.903 121.55Z" fill="#327CAD"/>
<path fill-rule="evenodd" clip-rule="evenodd" d="M68.622 103.52C71.6541 105.83 74.8267 107.962 78.1476 109.911C86.1572 114.247 94.429 114.87 102.959 111.792C102.883 114.269 103.05 116.694 103.461 119.061V122.317C98.0044 123.731 92.5748 123.605 87.1717 121.941C80.0778 119.901 73.8123 116.432 68.375 111.541C68.5802 108.874 68.6638 106.199 68.6258 103.52H68.622Z" fill="#ECA56E"/>
<path fill-rule="evenodd" clip-rule="evenodd" d="M66.1133 117.305C66.725 117.062 67.3938 116.978 68.1195 117.054C67.9067 117.955 67.8231 118.875 67.8687 119.813C67.2836 118.977 66.6984 118.141 66.1133 117.305Z" fill="#AFC6DA"/>
<path fill-rule="evenodd" clip-rule="evenodd" d="M103.461 119.057C104.019 118.985 104.521 119.068 104.965 119.308C104.627 120.915 104.209 122.503 103.712 124.069C103.468 123.541 103.385 122.955 103.461 122.313V119.057Z" fill="#BCCDDA"/>
<path fill-rule="evenodd" clip-rule="evenodd" d="M128.523 50.3843C128.88 50.8896 129.047 51.4748 129.025 52.1398C129.636 52.2044 130.221 52.3715 130.78 52.6413C130.928 52.5881 131.054 52.5045 131.156 52.3905C131.715 52.8161 132.342 53.0669 133.037 53.1429C133.356 55.8521 133.607 58.6107 133.789 61.4149C133.508 62.4105 133.592 63.4554 134.04 64.5497C134.059 71.3284 134.059 78.1794 134.04 85.1025C134.238 85.9574 134.363 86.8352 134.416 87.7357L134.792 88.1119C134.637 88.5489 134.553 89.0086 134.542 89.4912C134.785 91.4215 135.077 93.3403 135.419 95.2554C138.565 107.031 142.745 118.476 147.95 129.594C148.095 129.951 148.053 130.285 147.825 130.597C143.307 129.981 138.881 130.357 134.542 131.725C132.494 132.626 130.487 133.583 128.527 134.609C123.242 132.402 117.979 130.148 112.736 127.842C109.776 125.3 107.184 122.462 104.965 119.319C104.525 119.08 104.023 118.996 103.461 119.068C103.05 116.701 102.883 114.277 102.959 111.799C115 106.187 122.683 96.9159 126.015 83.9778C127.907 83.1342 129.367 81.7967 130.4 79.9691C132.368 76.0135 133.037 71.8376 132.406 67.4375C131.358 63.596 129.898 63.4288 128.021 66.9359C128.306 61.4263 128.474 55.9129 128.523 50.3957V50.3843Z" fill="#0E1624"/>
<path fill-rule="evenodd" clip-rule="evenodd" d="M66.1147 117.305C66.6999 118.141 67.285 118.977 67.8701 119.813C68.9644 122.085 70.2601 124.255 71.7533 126.33C77.4034 133.443 83.9615 139.541 91.4278 144.625C89.5165 147.038 87.5104 149.379 85.413 151.643C83.0838 154.018 80.785 156.439 78.5205 158.912C69.1354 149.941 62.2847 139.332 57.9683 127.082C57.5922 127.473 57.216 127.557 56.8398 127.333C60.4685 124.456 63.5614 121.116 66.1147 117.309V117.305Z" fill="#FCF9F5"/>
<path fill-rule="evenodd" clip-rule="evenodd" d="M104.961 119.308C107.18 122.45 109.772 125.288 112.731 127.83C112.07 138.329 109.228 148.189 104.209 157.404C102.032 155.059 99.7747 152.802 97.4418 150.636C95.3444 148.79 93.4218 146.784 91.6777 144.621C97.0162 139.15 100.987 132.8 103.582 125.573C103.707 125.079 103.749 124.578 103.707 124.069C104.205 122.503 104.623 120.915 104.961 119.308Z" fill="#FCF9F5"/>
<path fill-rule="evenodd" clip-rule="evenodd" d="M68.371 111.537C73.8083 116.431 80.0739 119.897 87.1677 121.937C92.5708 123.601 98.0043 123.727 103.457 122.313C103.381 122.955 103.464 123.54 103.707 124.069C103.749 124.578 103.707 125.079 103.582 125.573C100.987 132.8 97.0164 139.15 91.6779 144.621H91.4271C83.9609 139.537 77.4027 133.439 71.7527 126.326C70.2595 124.255 68.9638 122.081 67.8695 119.809C67.8239 118.874 67.9075 117.955 68.1203 117.051C68.1165 115.208 68.2001 113.369 68.371 111.537Z" fill="#F9CEA3"/>
<path fill-rule="evenodd" clip-rule="evenodd" d="M112.73 127.831C117.974 130.137 123.236 132.39 128.522 134.598C117.476 142.707 113.844 153.403 117.621 166.679C119.923 172.96 123.894 177.888 129.525 181.468C125.159 181.126 120.816 180.582 116.492 179.838C112.259 179.214 108.251 179.883 104.462 181.844C102.346 183.166 100.344 184.629 98.4477 186.229C98.2463 176.228 97.1596 166.33 95.1914 156.53C96.2667 154.676 97.019 152.711 97.4484 150.64C99.7813 152.806 102.038 155.063 104.215 157.408C109.235 148.19 112.077 138.333 112.738 127.834L112.73 127.831Z" fill="#D4DEE6"/>
<path fill-rule="evenodd" clip-rule="evenodd" d="M243.556 154.9C241.477 155.899 239.471 157.111 237.541 158.533C232.408 163.503 226.974 168.1 221.252 172.318C221.062 172.751 220.937 173.211 220.876 173.697C220.127 172.535 219.375 171.364 218.619 170.186C217.327 168.936 216.115 167.686 214.986 166.428C215.568 166.364 216.069 166.531 216.491 166.93C224.136 162.081 231.321 156.61 238.042 150.511C239.194 149.728 240.364 149.018 241.553 148.383C242.119 148.201 242.705 148.117 243.305 148.133C242.511 148.361 241.758 148.737 241.052 149.261C235.956 153.521 230.857 157.78 225.762 162.043C223.042 163.97 220.283 165.851 217.49 167.682C218.6 168.913 219.557 170.251 220.374 171.691C222.673 169.894 224.968 168.1 227.267 166.303C230.785 163.035 234.376 159.859 238.042 156.777C239.133 155.983 240.299 155.314 241.553 154.775C242.226 154.664 242.894 154.706 243.556 154.9Z" fill="#EDA269"/>
<path fill-rule="evenodd" clip-rule="evenodd" d="M245.562 150.386C245.132 152.012 244.464 153.517 243.556 154.9C242.894 154.706 242.226 154.665 241.553 154.775C240.299 155.314 239.133 155.983 238.042 156.777C234.376 159.859 230.785 163.035 227.267 166.303C224.968 168.1 222.673 169.894 220.374 171.691C219.557 170.251 218.6 168.914 217.49 167.682C220.283 165.851 223.041 163.97 225.762 162.044C230.857 157.78 235.956 153.521 241.052 149.261C241.758 148.737 242.511 148.361 243.305 148.133C244.642 148.3 245.395 149.049 245.562 150.386Z" fill="#FAD0A5"/>
<path fill-rule="evenodd" clip-rule="evenodd" d="M244.558 157.028C244.372 157.78 244.08 158.491 243.681 159.16C241.272 162.488 238.764 165.748 236.165 168.932C232.445 173.405 228.307 177.459 223.756 181.092C218.231 184.185 212.569 186.981 206.771 189.481C203.781 190.777 200.756 191.989 197.694 193.122C196.615 195.063 195.783 197.111 195.186 199.262C194.859 199.745 194.525 200.246 194.183 200.763C187.72 198.643 182.081 195.219 177.267 190.488C177.233 189.88 177.358 189.295 177.643 188.733C179.076 186.453 180.455 184.112 181.777 181.715C182.028 179.678 182.48 177.771 183.126 175.992C184.844 171.285 187.944 167.47 192.428 164.548C198.727 161.61 204.826 158.35 210.727 154.775C211.954 154.053 213.25 153.509 214.61 153.145C215.613 153.228 216.449 153.646 217.118 154.398C217.346 155.823 217.095 157.157 216.365 158.407C213.93 161.398 210.962 163.696 207.467 165.3C207.155 165.589 206.904 165.923 206.714 166.303C208.075 166.045 209.412 165.627 210.727 165.049C218.949 161.189 226.301 156.093 232.78 149.759C234.508 148.285 236.431 147.114 238.544 146.252C240.588 145.587 241.591 146.297 241.553 148.383C240.364 149.018 239.193 149.729 238.042 150.511C231.321 156.61 224.135 162.082 216.491 166.93C216.069 166.531 215.567 166.364 214.986 166.428C216.115 167.686 217.327 168.936 218.618 170.186C219.375 171.364 220.127 172.535 220.875 173.697C220.936 173.211 221.062 172.751 221.252 172.318C226.974 168.1 232.407 163.503 237.541 158.533C239.471 157.111 241.477 155.899 243.555 154.9C244.034 155.512 244.368 156.222 244.558 157.028Z" fill="#FACFA5"/>
<path fill-rule="evenodd" clip-rule="evenodd" d="M166.363 170.586C163.407 175.863 158.646 179.994 152.08 182.969C149.135 183.957 146.13 184.626 143.056 184.975C142.813 183.372 141.893 182.327 140.301 181.84C136.73 181.164 133.135 181.039 129.522 181.464C123.891 177.889 119.92 172.96 117.618 166.679C117.53 166.375 117.447 166.071 117.371 165.771C117.367 165.76 117.363 165.748 117.363 165.737C117.283 165.437 117.207 165.14 117.139 164.84C117.135 164.825 117.131 164.81 117.127 164.795C117.059 164.506 116.998 164.221 116.937 163.936C116.873 163.632 116.816 163.332 116.759 163.035C116.664 162.519 116.576 162.006 116.504 161.497C115.824 156.747 116.2 152.362 117.633 148.349H117.637C117.811 147.852 118.005 147.361 118.21 146.879C118.317 146.636 118.427 146.396 118.541 146.153C119.327 144.481 120.311 142.878 121.489 141.339C121.66 141.119 121.835 140.898 122.01 140.682C122.363 140.248 122.736 139.819 123.119 139.397C123.507 138.975 123.906 138.558 124.324 138.147C125.578 136.912 126.976 135.73 128.519 134.598C130.483 133.576 132.485 132.615 134.533 131.714C138.873 130.346 143.303 129.974 147.817 130.586C152.703 131.608 157.046 133.698 160.85 136.851C166.009 141.654 169.057 147.586 169.999 154.649C170.086 160.794 168.878 166.106 166.363 170.586Z" fill="#F8C431"/>
<path fill-rule="evenodd" clip-rule="evenodd" d="M140.05 135.601C151.114 135.05 158.839 139.811 163.231 149.888C165.716 158.289 164.17 165.847 158.596 172.569C151.175 179.416 142.736 181.004 133.283 177.33C124.316 172.223 120.433 164.494 121.629 154.147C123.643 143.824 129.783 137.641 140.05 135.601Z" fill="#EF9F1D"/>
<path fill-rule="evenodd" clip-rule="evenodd" d="M140.051 137.102C150.359 136.445 157.586 140.788 161.731 150.135C164.752 160.33 162.035 168.556 153.585 174.822C148.296 177.778 142.699 178.53 136.794 177.079C128.492 174.222 123.853 168.416 122.884 159.661C122.375 150.944 125.76 144.219 133.033 139.484C135.309 138.405 137.645 137.611 140.051 137.102Z" fill="#F9C531"/>
<path fill-rule="evenodd" clip-rule="evenodd" d="M142.058 141.867C143.008 141.696 143.802 141.947 144.44 142.619C144.752 143.512 144.877 144.432 144.816 145.378C146.469 145.374 147.974 145.834 149.326 146.757C150.155 147.707 150.28 148.752 149.703 149.892C149.342 150.196 148.924 150.363 148.449 150.394C147.43 149.907 146.385 149.447 145.314 149.014C143.604 148.665 142.016 148.912 140.553 149.767C139.235 151.841 139.653 153.43 141.807 154.528C144.136 155.174 146.393 156.01 148.574 157.035C152.005 160.094 152.465 163.563 149.953 167.435C148.43 169.054 146.553 169.886 144.315 169.943C144.356 170.95 144.315 171.953 144.189 172.953C143.308 173.849 142.346 173.933 141.305 173.203C140.914 172.155 140.747 171.068 140.804 169.947C138.733 169.799 136.852 169.13 135.165 167.941C134.018 166.022 134.477 164.684 136.544 163.932C137.247 164.327 137.916 164.787 138.551 165.311C140.891 166.482 143.232 166.482 145.569 165.311C147.335 162.739 146.75 160.9 143.813 159.798C140.948 159.346 138.482 158.137 136.419 156.165C134.261 152.483 134.8 149.269 138.049 146.518C138.976 145.929 139.979 145.553 141.058 145.389C141.017 144.55 141.058 143.714 141.184 142.881C141.359 142.418 141.647 142.084 142.062 141.878L142.058 141.867Z" fill="#FDF5ED"/>
<path fill-rule="evenodd" clip-rule="evenodd" d="M91.4268 144.622H91.6776C93.4216 146.784 95.3442 148.79 97.4416 150.637C97.0122 152.707 96.2599 154.672 95.1846 156.526C97.1528 166.326 98.2395 176.228 98.4409 186.225C95.2264 188.71 91.9701 191.13 88.6683 193.494C88.4517 193.197 88.2009 192.905 87.916 192.616C87.6804 192.441 87.5132 192.483 87.4144 192.742C87.1788 192.476 87.0952 192.141 87.1636 191.738C87.0306 179.94 87.3232 168.161 88.0413 156.401C86.7685 155.021 85.8908 153.437 85.4082 151.64C87.5056 149.375 89.5118 147.034 91.423 144.622H91.4268Z" fill="#583B79"/>
<path fill-rule="evenodd" clip-rule="evenodd" d="M203.71 173.697C207.057 173.538 210.313 173.998 213.482 175.077L213.984 175.578C212.225 175.46 210.469 175.21 208.721 174.826C202.991 174.286 197.687 175.495 192.805 178.458C192.854 177.896 193.147 177.436 193.682 177.079C196.817 175.267 200.161 174.142 203.706 173.697H203.71Z" fill="#EDA168"/>
<path fill-rule="evenodd" clip-rule="evenodd" d="M152.08 182.969C152.631 184.595 152.966 186.263 153.083 187.981C148.904 189.276 144.644 190.238 140.301 190.865C138.102 191.093 135.928 190.967 133.785 190.488C135.594 190.234 137.429 189.945 139.298 189.611C141.62 188.919 142.874 187.373 143.056 184.975C146.13 184.625 149.136 183.957 152.08 182.969Z" fill="#C1D3E1"/>
<path fill-rule="evenodd" clip-rule="evenodd" d="M165.114 186.479C163.214 186.361 161.291 186.57 159.35 187.106C153.57 189.447 147.639 191.286 141.556 192.62C139.215 192.787 136.879 192.787 134.538 192.62C131.78 191.852 128.979 191.309 126.141 190.99C124.275 191.05 122.44 191.301 120.628 191.742C120.335 191.658 120.043 191.575 119.75 191.491C119.803 191.343 119.887 191.218 120.001 191.115C120.81 190.788 121.646 190.537 122.509 190.363C126.274 190.169 130.032 190.211 133.786 190.488C135.929 190.967 138.102 191.092 140.302 190.864C144.645 190.237 148.904 189.276 153.084 187.98C155.892 186.977 158.772 186.225 161.732 185.723C162.895 185.864 164.023 186.115 165.114 186.475V186.479Z" fill="#EDA46C"/>
<path fill-rule="evenodd" clip-rule="evenodd" d="M174.635 187.482C175.711 187.771 176.714 188.189 177.645 188.736C177.36 189.299 177.234 189.884 177.269 190.492C182.086 195.222 187.725 198.646 194.184 200.766C194.526 200.25 194.857 199.748 195.188 199.262C196.305 199.911 196.806 200.831 196.692 202.02C194.944 202.168 193.273 201.876 191.68 201.142C185.358 198.547 179.886 194.744 175.266 189.739C174.787 189.063 174.578 188.311 174.639 187.482H174.635Z" fill="#A7BFD2"/>
<path fill-rule="evenodd" clip-rule="evenodd" d="M129.525 181.468C133.139 181.038 136.733 181.164 140.301 181.844C141.893 182.327 142.813 183.371 143.06 184.979C142.877 187.376 141.623 188.923 139.302 189.614C137.432 189.945 135.597 190.238 133.789 190.492C130.034 190.215 126.277 190.173 122.511 190.367C121.649 190.542 120.813 190.792 120.004 191.119C119.89 191.222 119.806 191.347 119.753 191.495C120.045 191.579 120.338 191.663 120.63 191.746C122.443 191.305 124.282 191.055 126.144 190.994C128.982 191.309 131.779 191.853 134.541 192.624C136.881 192.791 139.218 192.791 141.559 192.624C147.646 191.29 153.577 189.451 159.352 187.11C161.294 186.575 163.217 186.366 165.116 186.483C166.366 187.498 166.659 188.748 165.994 190.241C163.49 192.183 160.773 193.771 157.848 195.003C157.832 194.866 157.749 194.782 157.597 194.752C149.872 197.48 142.018 199.779 134.039 201.644C132.063 202.549 132.231 202.883 134.541 202.648C138.492 201.884 142.421 201.006 146.32 200.014C144.921 200.649 143.504 201.234 142.06 201.77H141.559C138.599 202.659 135.593 203.37 132.535 203.901C125.099 203.78 117.663 203.613 110.227 203.4C106.933 204.737 104.011 206.615 101.454 209.039C100.914 209.35 100.413 209.726 99.9491 210.167C99.7402 210.338 99.573 210.296 99.4476 210.042C96.0241 205.03 92.7223 199.935 89.5496 194.752C89.2874 194.448 88.9948 194.197 88.6719 193.999V193.498C91.9737 191.134 95.2338 188.714 98.4445 186.229C100.34 184.629 102.343 183.166 104.459 181.844C108.248 179.883 112.256 179.215 116.489 179.838C120.813 180.582 125.156 181.122 129.522 181.468H129.525Z" fill="#FACFA4"/>
<path fill-rule="evenodd" clip-rule="evenodd" d="M87.1677 191.742C87.0993 192.141 87.1829 192.476 87.4184 192.746C87.5666 192.909 87.7338 193.076 87.92 193.247C84.1166 195.611 80.1916 197.78 76.1412 199.764C76.0576 199.931 75.974 200.098 75.8904 200.265C79.2607 208.142 83.8582 215.198 89.6754 221.445C89.5082 221.612 89.3411 221.612 89.1739 221.445C86.7915 219.481 84.6599 217.265 82.7829 214.803C79.728 210.49 76.9695 205.98 74.5112 201.268C74.3706 201.139 74.2034 201.056 74.0096 201.018C62.531 206.694 51.2119 212.668 40.0486 218.937C36.7696 221.05 33.6387 223.345 30.6484 225.83C30.5116 225.097 30.6788 224.432 31.1499 223.824C33.9541 220.522 37.3357 217.972 41.2987 216.179C40.2614 215.78 39.1747 215.696 38.0424 215.928C35.0673 216.505 32.2252 217.467 29.5199 218.812C29.1437 218.823 28.893 218.656 28.7676 218.31C29.5845 216.938 30.7548 215.977 32.2746 215.426C33.5969 214.959 34.9344 214.541 36.2832 214.172C39.0455 214.051 41.8041 214.051 44.555 214.172C45.1401 213.88 45.7253 213.587 46.3104 213.295C46.2914 198.97 44.5778 184.85 41.1733 170.939C39.3419 164.354 36.5036 158.255 32.6508 152.643C31.7351 151.477 30.732 150.39 29.6415 149.387C29.3451 148.999 29.2615 148.581 29.3907 148.133C32.324 150.23 34.7444 152.822 36.6594 155.903C41.4469 164.852 44.4524 174.374 45.6835 184.477C46.8006 193.737 47.8037 203.012 48.6928 212.299C59.1683 206.843 69.6515 201.371 80.146 195.884C82.3916 194.9 84.6485 193.939 86.9131 193C86.8409 192.521 86.9245 192.103 87.1639 191.746L87.1677 191.742Z" fill="#ADC4D7"/>
<path fill-rule="evenodd" clip-rule="evenodd" d="M157.845 194.999C156.708 195.523 155.626 196.108 154.588 196.754C151.807 197.792 149.052 198.878 146.317 200.011C142.418 200.999 138.489 201.876 134.538 202.644C132.228 202.879 132.06 202.545 134.036 201.641C142.019 199.775 149.873 197.476 157.594 194.748C157.746 194.778 157.829 194.862 157.845 194.999Z" fill="#EDA36B"/>
<path fill-rule="evenodd" clip-rule="evenodd" d="M88.6718 193.999C88.9947 194.197 89.2873 194.447 89.5495 194.751C92.726 199.934 96.024 205.03 99.4475 210.042C99.5729 210.296 99.7401 210.338 99.949 210.167C100.413 209.726 100.914 209.35 101.454 209.038C101.864 210.148 101.989 211.318 101.83 212.546C101.727 212.66 101.602 212.743 101.454 212.796C100.299 212.017 99.2537 211.098 98.319 210.038C95.9784 206.531 93.6417 203.02 91.3011 199.512C90.2144 197.761 89.3405 195.922 88.668 193.999H88.6718Z" fill="#A6BDD0"/>
<path fill-rule="evenodd" clip-rule="evenodd" d="M141.551 201.766C141.308 201.971 141.099 202.222 140.924 202.518C139.719 211.63 138.466 220.738 137.166 229.838C137.041 231.757 136.999 233.68 137.041 235.602C136.87 239.585 136.775 243.586 136.763 247.61C125.999 248.997 114.524 249.817 102.593 249.973C102.13 237.989 101.453 226.012 100.576 214.047C95.849 218.249 91.1717 222.512 86.5399 226.829C86.4146 228.166 86.3728 229.5 86.4146 230.841C86.2056 229.633 86.0802 228.379 86.0384 227.08C78.1618 234.903 69.5861 241.754 60.3036 247.632C45.2039 245.695 31.4949 242.64 19.8947 238.73C18.9638 236.248 18.2038 233.703 17.6187 231.092C13.7773 213.119 11.8661 195.002 11.8889 176.745C11.8889 174.56 11.9231 172.375 11.9801 170.186C12.2954 164.623 13.4239 159.194 15.3617 153.897C18.466 146.905 23.3523 141.559 30.0244 137.854C33.6645 136.159 37.3387 134.529 41.0509 132.968C46.3286 131.11 51.5911 129.233 56.8421 127.329C57.2145 127.553 57.5907 127.469 57.9668 127.078C62.2832 139.328 69.1339 149.937 78.5189 158.909C80.7835 156.435 83.0823 154.014 85.4115 151.64C85.894 153.437 86.7717 155.025 88.0446 156.401C87.9724 157.571 87.904 158.741 87.8432 159.915C87.7938 160.839 87.7482 161.762 87.7064 162.685C87.6646 163.495 87.6266 164.304 87.5962 165.114C87.5544 166.033 87.5164 166.953 87.4822 167.872C87.4557 168.628 87.429 169.384 87.4062 170.141C87.3873 170.593 87.3721 171.045 87.3607 171.497C87.3493 171.767 87.3417 172.033 87.3379 172.299C87.3113 173.207 87.2847 174.115 87.2657 175.023C87.2391 176.14 87.2163 177.257 87.2011 178.371C87.1935 178.614 87.1897 178.853 87.1897 179.093C87.1707 180.225 87.1593 181.354 87.1517 182.482C87.1403 183.721 87.1365 184.96 87.1365 186.198C87.1365 188.049 87.1441 189.895 87.1669 191.742C86.9275 192.095 86.8439 192.513 86.9161 192.996C84.6515 193.931 82.3946 194.892 80.149 195.876C69.6544 201.367 59.1713 206.838 48.6958 212.295C47.8066 203.008 46.8036 193.733 45.6865 184.473C45.5459 183.322 45.3825 182.182 45.1963 181.046C45.1583 180.799 45.1165 180.556 45.0709 180.309C45.0101 179.933 44.9417 179.556 44.8695 179.184C44.805 178.834 44.7366 178.485 44.6682 178.139C44.5998 177.789 44.5276 177.444 44.4516 177.098C44.3794 176.76 44.3034 176.422 44.2274 176.087C44.1628 175.806 44.0982 175.525 44.0336 175.247C43.9538 174.917 43.874 174.586 43.7905 174.259C43.7145 173.956 43.6347 173.652 43.5549 173.351C43.4751 173.047 43.3953 172.747 43.3079 172.447C43.2357 172.181 43.1597 171.915 43.0837 171.649C42.9773 171.277 42.8671 170.904 42.7532 170.536C42.6734 170.274 42.5936 170.011 42.51 169.753C42.3238 169.156 42.1262 168.564 41.9248 167.975C41.9172 167.956 41.9134 167.937 41.9058 167.918C41.8109 167.64 41.7159 167.367 41.6171 167.089C41.5145 166.797 41.4081 166.504 41.2979 166.208C41.2219 166.003 41.1459 165.794 41.0661 165.588C40.9939 165.391 40.9179 165.19 40.8382 164.992C39.9338 162.644 38.9155 160.333 37.7795 158.057C37.6655 157.826 37.5477 157.598 37.4299 157.366C37.1829 156.876 36.9283 156.386 36.6662 155.899C34.7512 152.818 32.327 150.23 29.3975 148.132C29.2683 148.581 29.3481 148.999 29.6483 149.383C30.735 150.39 31.7381 151.476 32.6538 152.643C32.8932 152.992 33.1325 153.346 33.3643 153.703C33.5467 153.976 33.7215 154.25 33.8963 154.527C34.0026 154.691 34.1052 154.858 34.204 155.021C34.3674 155.284 34.5308 155.546 34.6866 155.808C34.7094 155.846 34.7322 155.884 34.755 155.922C34.9108 156.184 35.0665 156.443 35.2147 156.709C35.5681 157.309 35.9025 157.917 36.2254 158.532C36.347 158.753 36.4648 158.977 36.5788 159.201C36.746 159.52 36.9093 159.843 37.0689 160.17C37.2285 160.497 37.3881 160.82 37.5401 161.15C37.6959 161.477 37.8479 161.804 37.996 162.138C38.11 162.385 38.2202 162.636 38.3266 162.887C38.4026 163.054 38.4748 163.221 38.5432 163.388C38.642 163.624 38.7408 163.86 38.8396 164.099C38.8548 164.133 38.8662 164.164 38.8776 164.198C39.0067 164.513 39.1359 164.832 39.2575 165.152C39.5197 165.828 39.7705 166.512 40.0098 167.203C40.1276 167.545 40.2454 167.891 40.3594 168.241C40.4088 168.389 40.4544 168.537 40.5038 168.685C40.5722 168.902 40.6406 169.122 40.709 169.343C40.7318 169.422 40.7584 169.502 40.7812 169.582C40.8306 169.738 40.8761 169.894 40.9217 170.049C41.0091 170.346 41.0927 170.642 41.1763 170.939C44.5808 184.853 46.2944 198.973 46.3134 213.298C45.7283 213.587 45.1431 213.879 44.558 214.172C41.8071 214.05 39.0523 214.05 36.29 214.172C34.9373 214.541 33.5999 214.959 32.2776 215.426C30.7578 215.977 29.5875 216.938 28.7706 218.31C28.896 218.656 29.1467 218.823 29.5229 218.811C32.2282 217.466 35.0665 216.505 38.0416 215.927C39.1777 215.696 40.2606 215.779 41.3017 216.178C37.3387 217.972 33.9532 220.521 31.1529 223.823C30.678 224.427 30.5108 225.096 30.6514 225.83C33.6379 223.345 36.7688 221.046 40.0478 218.937C51.2111 212.663 62.5302 206.69 74.0088 201.013C74.2026 201.051 74.3698 201.135 74.5104 201.264C76.9687 205.976 79.7234 210.486 82.7783 214.799C84.6591 217.261 86.7869 219.476 89.1693 221.441C89.3365 221.608 89.5036 221.608 89.6708 221.441C83.8536 215.198 79.2599 208.138 75.8896 200.265C75.9732 200.098 76.0568 199.931 76.1404 199.763C80.187 197.78 84.1158 195.606 87.9192 193.247C87.733 193.076 87.5658 192.909 87.4176 192.745C87.5164 192.487 87.6836 192.445 87.9192 192.62C88.2042 192.905 88.4549 193.197 88.6715 193.498V193.999C89.3403 195.922 90.218 197.761 91.3009 199.513C93.6414 203.02 95.9782 206.531 98.3187 210.038C99.2535 211.098 100.295 212.018 101.453 212.796C101.598 212.743 101.723 212.66 101.83 212.546C101.985 211.315 101.86 210.144 101.453 209.035C104.007 206.61 106.929 204.733 110.223 203.396C117.659 203.609 125.095 203.776 132.531 203.897C135.585 203.366 138.595 202.655 141.551 201.766Z" fill="#D3DEE6"/>
<path fill-rule="evenodd" clip-rule="evenodd" d="M196.692 202.016C192.099 212.872 186.711 223.314 180.525 233.345C179.359 235.283 178.078 237.111 176.684 238.836C167.014 242.069 155.896 244.714 143.737 246.614C140.77 244.061 138.619 240.641 137.293 236.355C137.741 235.348 138.034 234.261 138.171 233.095C139.672 223.075 141.134 213.047 142.555 203.02C142.54 202.484 142.373 202.066 142.054 201.766C143.498 201.23 144.919 200.645 146.317 200.014C149.049 198.878 151.808 197.791 154.585 196.754C155.459 200.318 156.253 203.909 156.967 207.53C157.024 207.936 157.233 208.187 157.594 208.282C155.227 209.931 152.887 211.641 150.576 213.419C148.692 214.993 147.271 216.87 146.317 219.062C146.887 219.032 147.389 218.826 147.818 218.435C148.886 217.504 149.93 216.543 150.953 215.551C150.523 216.661 149.855 217.664 148.946 218.56C147.461 220.654 146.416 222.953 145.816 225.453C145.736 226.475 146.028 226.684 146.693 226.08C148.023 223.246 149.611 220.574 151.454 218.059C155.63 213.047 159.806 208.031 163.985 203.02C165.194 201.519 166.071 199.847 166.615 198.008C169.195 194.425 171.869 190.917 174.636 187.482C174.575 188.307 174.784 189.059 175.263 189.736C179.883 194.744 185.354 198.543 191.677 201.139C193.273 201.872 194.941 202.165 196.692 202.016Z" fill="#D3DEE6"/>
<path fill-rule="evenodd" clip-rule="evenodd" d="M166.617 198.008C166.074 199.847 165.196 201.519 163.984 203.02C159.808 208.032 155.629 213.043 151.453 218.059C149.61 220.574 148.022 223.249 146.692 226.08C146.031 226.684 145.738 226.475 145.814 225.453C146.415 222.953 147.46 220.658 148.949 218.561C149.857 217.664 150.526 216.661 150.955 215.551C149.933 216.543 148.892 217.5 147.821 218.435C147.391 218.827 146.89 219.036 146.316 219.062C147.27 216.874 148.691 214.993 150.575 213.423C152.886 211.645 155.226 209.931 157.593 208.286C160.606 204.855 163.616 201.428 166.617 198.012V198.008Z" fill="#ACC4D6"/>
<path fill-rule="evenodd" clip-rule="evenodd" d="M172.883 204.524C175.961 206.565 179.05 208.613 182.158 210.665C183.936 211.565 185.771 212.314 187.671 212.922C187.519 213.138 187.31 213.264 187.044 213.298C182.215 211.949 177.914 209.65 174.137 206.405C173.559 205.873 173.141 205.246 172.883 204.524Z" fill="#AAC2D5"/>
<path fill-rule="evenodd" clip-rule="evenodd" d="M141.555 201.766H142.057C142.376 202.066 142.543 202.484 142.558 203.02C141.137 213.047 139.674 223.075 138.173 233.095C138.04 234.261 137.748 235.344 137.296 236.351C137.144 236.127 137.06 235.876 137.045 235.599C137.003 233.676 137.045 231.754 137.17 229.835C138.47 220.734 139.724 211.626 140.928 202.515C141.103 202.214 141.312 201.964 141.555 201.762V201.766Z" fill="#ADC4D7"/>
<path fill-rule="evenodd" clip-rule="evenodd" d="M102.593 249.973C101.218 249.992 99.8345 250 98.4477 250C94.2225 250 90.0467 249.916 85.9355 249.753C86.0001 243.601 86.1559 237.468 86.4143 231.343V230.842C86.3725 229.5 86.4143 228.167 86.5397 226.829C91.1714 222.513 95.8487 218.249 100.575 214.047C101.453 226.012 102.13 237.989 102.593 249.973Z" fill="#422964"/>
<path fill-rule="evenodd" clip-rule="evenodd" d="M86.4145 231.343C86.1561 237.468 86.0003 243.601 85.9357 249.753C78.2453 249.449 70.7752 248.868 63.6016 248.036C70.6423 243.62 77.3296 238.681 83.6559 233.22C84.5033 232.468 85.4228 231.841 86.4145 231.343Z" fill="#D3DDE6"/>
<path fill-rule="evenodd" clip-rule="evenodd" d="M86.4157 230.842V231.343C85.424 231.841 84.5044 232.468 83.6571 233.22C77.3308 238.681 70.6434 243.62 63.6028 248.036C62.4971 247.906 61.3952 247.773 60.3047 247.633C69.5872 241.755 78.1629 234.904 86.0395 227.08C86.0813 228.38 86.2067 229.634 86.4157 230.842Z" fill="#AEC5D7"/>
</g>
<defs>
<clipPath id="clip0_3349_19341">
<rect width="250" height="250" fill="white"/>
</clipPath>
</defs>
</svg>
