<svg width="250" height="250" viewBox="0 0 250 250" fill="none" xmlns="http://www.w3.org/2000/svg">
<g clip-path="url(#clip0_3349_17054)">
<path fill-rule="evenodd" clip-rule="evenodd" d="M163.96 130.719C162.228 130.679 160.499 130.555 158.779 130.35C158.701 130.151 158.58 129.987 158.41 129.857C158.208 129.413 158.009 128.966 157.817 128.522C157.562 127.947 157.317 127.373 157.078 126.796C156.923 126.426 156.771 126.057 156.622 125.688C156.516 125.427 156.411 125.166 156.308 124.905C156.134 124.468 155.964 124.027 155.796 123.589C155.675 123.276 155.557 122.962 155.442 122.649C155.035 121.556 154.644 120.46 154.275 119.361C154.157 119.007 154.039 118.651 153.924 118.297C153.809 117.94 153.694 117.586 153.583 117.229C153.486 116.918 153.39 116.608 153.294 116.298C152.956 115.18 152.633 114.063 152.332 112.936C152.273 112.722 152.217 112.51 152.161 112.293C152.087 112.017 152.015 111.741 151.947 111.461C151.872 111.176 151.801 110.887 151.73 110.595C151.652 110.279 151.574 109.965 151.503 109.648C151.491 109.605 151.478 109.558 151.469 109.512C151.407 109.245 151.345 108.975 151.286 108.708C151.174 108.233 151.068 107.755 150.969 107.277C150.904 106.966 150.839 106.656 150.777 106.346C150.739 106.172 150.702 105.995 150.671 105.821C150.6 105.473 150.534 105.129 150.469 104.784C150.193 103.328 149.948 101.863 149.734 100.395C149.693 100.128 149.656 99.8641 149.622 99.5972C149.386 97.9333 149.19 96.2602 149.035 94.5778C148.585 89.3162 148.296 84.0546 148.172 78.79C148.495 77.0144 148.495 75.245 148.172 73.485C148.337 73.0752 148.498 72.6624 148.663 72.2526C148.498 70.3591 148.337 68.4687 148.172 66.5782C148.253 66.4944 148.337 66.4137 148.417 66.3299C148.237 65.3303 147.992 64.3432 147.679 63.3716C147.79 63.2692 147.871 63.145 147.924 62.9991C147.325 61.9251 146.955 60.7734 146.813 59.5473C146.269 58.5136 145.732 57.483 145.211 56.4618C145.499 56.0023 145.375 55.6329 144.841 55.3536C144.758 55.6826 144.677 56.0117 144.593 56.3407C144.565 55.487 144.441 54.829 144.224 54.3664C142.498 53.2645 140.815 52.1159 139.173 50.9177C138.916 50.7315 138.661 50.5452 138.406 50.3528C137.736 49.8561 137.072 49.347 136.414 48.8317C136.156 48.6331 135.901 48.4282 135.647 48.2264C135.268 47.9222 134.893 47.6149 134.517 47.3045C133.859 46.7612 133.21 46.2118 132.568 45.6531C132.512 45.6034 132.456 45.5537 132.4 45.5041C132.096 45.2402 131.795 44.9733 131.497 44.7032C131.183 44.4207 130.87 44.1382 130.559 43.8527C130.544 43.8371 130.528 43.8247 130.513 43.8092C130.187 43.5081 129.864 43.207 129.544 42.9028C129.29 42.6607 129.038 42.4216 128.79 42.1795C126.946 40.3915 125.17 38.529 123.46 36.5889C123.01 36.0767 122.563 35.5614 122.122 35.0399C121.818 34.683 121.52 34.3198 121.222 33.9566C120.868 33.5251 120.517 33.0936 120.17 32.6559C116.618 28.009 114.151 22.8282 112.769 17.1134C112.657 17.5169 112.539 17.9174 112.418 18.3147C112.363 18.4979 112.304 18.6841 112.245 18.8673C112.099 19.3174 111.947 19.7644 111.788 20.2083C111.736 20.3604 111.68 20.5094 111.624 20.6584C111.481 21.0464 111.332 21.4282 111.18 21.8038C110.932 22.4215 110.668 23.0299 110.388 23.629C110.28 23.8712 110.165 24.1071 110.05 24.343C109.966 24.5168 109.879 24.6907 109.792 24.8645C109.693 25.0663 109.587 25.268 109.482 25.4667C108.976 26.4352 108.433 27.3758 107.852 28.2977C107.638 28.6392 107.415 28.9806 107.188 29.3159C106.999 29.5983 106.803 29.8777 106.604 30.154C106.452 30.3744 106.294 30.5917 106.133 30.809C105.285 31.9575 104.372 33.0657 103.395 34.1366C92.7008 45.9418 79.9551 54.8228 65.1545 60.7796C64.5181 65.0323 64.1053 69.3099 63.9221 73.6091C63.3168 72.7679 62.727 71.9143 62.1497 71.0513C61.5723 70.1852 61.0135 69.313 60.4672 68.4283C57.7417 66.2988 55.1932 66.5472 52.8216 69.1671C51.8966 70.5267 51.2385 72.0074 50.8474 73.6091C49.8913 80.6525 52.235 86.2431 57.8783 90.384C58.4402 90.9956 59.2628 91.4084 60.3461 91.6164C60.2499 92.5911 60.1413 93.5627 60.0233 94.5312C59.9892 94.8354 59.9488 95.1365 59.9116 95.4407C59.8433 95.9622 59.775 96.4806 59.7005 97.0021C59.6539 97.3373 59.6073 97.6726 59.5546 98.0079C59.4677 98.6163 59.3714 99.2247 59.2721 99.8331C59.2193 100.168 59.1634 100.504 59.1045 100.839C59.0486 101.171 58.9896 101.506 58.9306 101.841C58.8779 102.146 58.822 102.45 58.7661 102.754C58.6947 103.13 58.6233 103.508 58.5488 103.887C58.434 104.483 58.3129 105.082 58.1887 105.678C58.1422 105.899 58.0956 106.116 58.0491 106.336C57.7666 107.662 57.4624 108.984 57.1364 110.303C56.9222 111.182 56.6956 112.06 56.4597 112.936C56.3045 113.519 56.1462 114.1 55.9817 114.68C55.8172 115.261 55.6526 115.841 55.4788 116.419C55.3112 116.993 55.1374 117.564 54.9604 118.138C54.7338 118.862 54.5041 119.585 54.2651 120.305C54.1223 120.743 53.9764 121.177 53.8274 121.615C53.6442 122.152 53.458 122.689 53.2686 123.223C53.2314 123.332 53.1941 123.44 53.1538 123.546C52.9769 124.046 52.7968 124.545 52.6106 125.042C52.6044 125.061 52.5981 125.076 52.5919 125.092C52.384 125.654 52.1729 126.215 51.9587 126.774C52.1636 127.078 52.0829 127.367 51.7104 127.637C51.3968 127.5 51.0678 127.42 50.7232 127.389C50.1086 127.358 49.7827 127.522 49.7361 127.882C48.9818 128.351 48.4479 129.009 48.1344 129.857C47.8146 131.235 47.6936 132.632 47.765 134.05H47.5166C47.0852 133.315 46.5078 132.697 45.7907 132.2C44.4187 131.809 43.3074 132.182 42.46 133.311C41.985 134.162 41.656 135.065 41.4728 136.025C41.3487 139.231 41.3083 142.438 41.3487 145.644H41.1034C40.0977 142.888 38.4959 142.478 36.292 144.412C35.9443 145.29 35.6991 146.194 35.5532 147.125C35.429 149.015 35.3887 150.906 35.429 152.799C33.818 154.06 32.4428 155.534 31.3005 157.217C30.9715 157.701 30.661 158.201 30.3724 158.719C28.1901 162.596 26.4239 166.625 25.0673 170.81C23.7388 167.988 22.7175 165.067 22.0066 162.053C21.5379 160.079 21.2027 158.064 20.9978 156.006C20.2062 146.209 21.4386 136.67 24.6979 127.389C26.4859 122.54 28.3515 117.722 30.2916 112.936C31.4402 110.095 32.6198 107.264 33.8242 104.446C37.4343 94.2084 40.3119 83.7628 42.46 73.1156C44.2945 62.9743 46.5978 52.9416 49.3667 43.0176C51.2789 36.3778 53.9112 30.0453 57.2606 24.0233C67.4267 6.50028 82.6806 -1.43396 103.025 0.214351C106.638 0.487518 109.926 1.63916 112.893 3.66928C123.357 2.44314 132.363 5.44486 139.906 12.6745C144 17.3214 147.287 22.5022 149.774 28.217C153.797 38.619 156.181 49.3936 156.929 60.5344C157.466 70.8216 158.124 81.0995 158.903 91.3712C159.816 98.8398 161.719 106.026 164.618 112.936C164.842 113.479 165.077 114.022 165.316 114.562C168.141 120.128 170.895 125.719 173.58 131.337C168.768 131.244 164 131.08 159.273 130.844C160.837 130.884 162.399 130.844 163.96 130.719Z" fill="#101C2E"/>
<path fill-rule="evenodd" clip-rule="evenodd" d="M79.3389 16.8651C80.3694 16.7037 81.071 17.1135 81.4373 18.0975C81.3845 19.6185 81.0958 21.0992 80.5743 22.5395C81.9929 22.4681 83.3898 22.5923 84.768 22.9089C85.6962 24.0357 85.7365 25.2277 84.8922 26.4849C83.5015 28.0215 81.816 29.0924 79.8355 29.6915C77.2342 28.9155 76.3278 27.2299 77.1225 24.6349C71.8237 24.9732 71.0849 23.2473 74.903 19.454C76.2937 18.3893 77.7744 17.5263 79.3451 16.8651H79.3389Z" fill="#29344B"/>
<path fill-rule="evenodd" clip-rule="evenodd" d="M144.221 54.3634C135.017 48.4934 126.999 41.2545 120.167 32.6529C116.615 28.006 114.148 22.8251 112.766 17.1104C110.981 23.5577 107.855 29.2321 103.392 34.1336C92.6979 45.9387 79.9522 54.8197 65.1547 60.7766C64.5152 65.0293 64.1024 69.3068 63.9223 73.6061C62.7117 71.9205 61.56 70.1946 60.4674 68.4252C57.7419 66.2958 55.1903 66.5441 52.8187 69.164C51.8937 70.5236 51.2356 72.0043 50.8445 73.6061C49.8884 80.6494 52.232 86.24 57.8754 90.381C59.3499 91.1415 60.9113 91.635 62.5627 91.8616C63.4815 91.784 64.3848 91.8616 65.2757 92.1069C68.3457 101.332 73.6911 108.9 81.3118 114.804C85.7725 118.064 90.705 120.408 96.1125 121.835C104.137 123.695 111.782 122.751 119.055 118.998C119.952 118.548 120.859 118.098 121.768 117.642C134.747 109.251 141.902 97.2877 143.231 81.7483C143.724 78.5976 144.01 75.391 144.093 72.1285C144.218 66.2089 144.258 60.2861 144.218 54.3665L144.221 54.3634ZM90.4412 81.1306C88.619 82.3567 86.6448 82.7261 84.5215 82.2419C83.4444 81.9904 82.4573 81.5403 81.5602 80.8853C79.1079 78.2592 78.0369 75.1768 78.3536 71.6349C78.2015 71.6629 78.0773 71.7436 77.9842 71.8802C78.7261 66.3703 81.8923 63.7007 87.4829 63.8621C90.6274 64.4954 92.5986 66.3454 93.4025 69.4124C93.4212 70.0798 93.505 70.7378 93.6478 71.3866C94.4673 75.2978 93.3994 78.5479 90.4412 81.1306ZM109.436 91.6164C109.398 91.3588 109.442 91.1104 109.56 90.8776C110.298 90.2196 111.04 89.5615 111.779 88.9034C112.459 88.2018 112.707 87.3823 112.518 86.4356C109.74 83.6387 108.672 80.2676 109.311 76.3222C109.616 75.8162 109.985 75.7355 110.423 76.077C110.379 76.3222 110.463 76.4867 110.668 76.5706C110.444 78.9732 110.817 81.2765 111.779 83.4773C113.027 84.3713 113.809 85.5633 114.123 87.0533C113.719 89.8005 112.158 91.3215 109.436 91.6164ZM124.484 82.2419C122.448 81.3137 120.927 79.833 119.921 77.7998C119.148 75.0123 119.108 72.2154 119.797 69.4124C119.611 68.7574 119.732 68.0993 120.167 67.4381C122.886 63.6821 126.381 62.7353 130.652 64.6009C133.424 66.4075 134.66 68.8319 134.353 71.8771C134.458 74.8415 133.719 77.5546 132.133 80.0193C129.97 81.9997 127.418 82.7416 124.484 82.2387V82.2419Z" fill="#FACAA0"/>
<path fill-rule="evenodd" clip-rule="evenodd" d="M121.277 18.1005C121.597 17.818 121.883 17.9018 122.14 18.3457C128.038 25.0662 134.206 31.5633 140.644 37.8337C140.815 38.0385 140.771 38.2031 140.52 38.3272C132.819 32.7646 126.402 26.0223 121.277 18.0974V18.1005Z" fill="#2B364E"/>
<path fill-rule="evenodd" clip-rule="evenodd" d="M98.3367 24.5138C98.4826 24.5728 98.5664 24.6938 98.582 24.8832C97.7532 26.696 96.7257 28.3816 95.4995 29.9399C88.2451 38.349 79.8142 45.2993 70.213 50.7874C69.3625 51.34 68.4561 51.669 67.5 51.7745C79.1561 44.2935 89.434 35.2076 98.3367 24.5138Z" fill="#2B354D"/>
<path fill-rule="evenodd" clip-rule="evenodd" d="M117.084 49.1824C117.664 49.1421 118.241 49.1824 118.809 49.3066C121.414 50.9798 124.127 52.4573 126.952 53.7487C130.034 54.8041 133.16 55.7074 136.326 56.4617C136.95 56.977 136.95 57.4706 136.326 57.9424C129.609 59.2182 123.649 57.6972 118.44 53.3793C117.85 52.7057 117.357 51.9669 116.959 51.1598C116.782 50.48 116.823 49.8219 117.084 49.1855V49.1824Z" fill="#11192A"/>
<path fill-rule="evenodd" clip-rule="evenodd" d="M95.6248 49.4308C96.1153 49.4029 96.525 49.5674 96.8572 49.9244C97.121 50.6477 97.1645 51.3896 96.9814 52.1439C95.9415 53.9257 94.5011 55.2822 92.6635 56.2134C87.2591 59.1562 81.504 60.2675 75.395 59.5442C75.3609 59.1438 75.5254 58.8551 75.8886 58.6812C79.7284 57.5172 83.5124 56.201 87.2374 54.7327C90.1739 53.1434 92.9708 51.3771 95.6248 49.4277V49.4308Z" fill="#11192A"/>
<path fill-rule="evenodd" clip-rule="evenodd" d="M134.352 71.8801C132.347 67.3015 128.895 65.3707 123.991 66.0816C122.262 66.7831 120.865 67.8944 119.797 69.4123C119.607 68.7574 119.732 68.0993 120.166 67.4381C122.885 63.6821 126.381 62.7353 130.652 64.6009C133.424 66.4044 134.66 68.8319 134.352 71.877V71.8801Z" fill="#1A1413"/>
<path fill-rule="evenodd" clip-rule="evenodd" d="M93.3988 69.4123C88.4446 64.6102 83.717 64.8554 79.2128 70.1511C78.8621 70.6198 78.5734 71.1134 78.3499 71.6318C78.1978 71.6597 78.0736 71.7404 77.9805 71.877C78.7224 66.3671 81.8886 63.6944 87.4792 63.859C90.6206 64.4922 92.5949 66.3454 93.3988 69.4092V69.4123Z" fill="#1A1513"/>
<path fill-rule="evenodd" clip-rule="evenodd" d="M134.352 71.8801C134.457 74.8477 133.719 77.5607 132.132 80.0223C129.969 82.0028 127.417 82.7447 124.484 82.2418C122.447 81.3167 120.926 79.8361 119.921 77.7997C119.148 75.0122 119.107 72.2153 119.797 69.4123C120.864 67.8944 122.261 66.7831 123.99 66.0815C128.895 65.3676 132.347 67.3015 134.352 71.8801Z" fill="#FBF8F5"/>
<path fill-rule="evenodd" clip-rule="evenodd" d="M124.239 67.6865C126.763 67.3667 128.368 68.4346 129.051 70.8931C130.227 74.1338 129.612 76.971 127.201 79.4047C124.224 80.4042 122.209 79.3767 121.157 76.3223C120.412 72.7618 121.439 69.8811 124.239 67.6865Z" fill="#10110F"/>
<path fill-rule="evenodd" clip-rule="evenodd" d="M93.4 69.4123C93.4187 70.0797 93.4994 70.7378 93.6453 71.3866C94.4648 75.3009 93.3969 78.5479 90.4387 81.1305C88.6134 82.3567 86.6423 82.7261 84.519 82.2418C83.4419 81.9904 82.4548 81.5372 81.5577 80.8853C79.1054 78.2623 78.0344 75.1767 78.3511 71.6349C78.5746 71.1196 78.8633 70.626 79.214 70.1542C83.7151 64.8585 88.4458 64.6102 93.4 69.4154V69.4123Z" fill="#FBF8F5"/>
<path fill-rule="evenodd" clip-rule="evenodd" d="M86.25 67.6863C88.187 67.4815 89.6243 68.2234 90.5679 69.9058C92.0362 72.6157 92.0362 75.3288 90.5679 78.048C88.5502 80.5779 86.4115 80.6617 84.1547 78.2932C82.4661 75.5554 82.3854 72.7585 83.9095 69.9058C84.5024 68.9404 85.2846 68.2016 86.2531 67.6863H86.25Z" fill="#10100F"/>
<path fill-rule="evenodd" clip-rule="evenodd" d="M57.6332 73.8544C58.6669 73.8978 59.5329 74.3107 60.2221 75.0867C62.0007 77.9394 62.8637 81.0622 62.8109 84.4613C62.7985 84.8555 62.7147 85.2249 62.5657 85.5726C59.8651 85.5105 57.9343 84.2378 56.7671 81.7483C55.4075 78.9017 55.6962 76.2694 57.6301 73.8544H57.6332Z" fill="#EF9D6A"/>
<path fill-rule="evenodd" clip-rule="evenodd" d="M110.424 76.0739C110.38 76.3191 110.464 76.4836 110.669 76.5674C110.449 78.9701 110.818 81.2733 111.78 83.4742C113.028 84.3713 113.81 85.5633 114.124 87.0502C113.72 89.7974 112.159 91.3184 109.437 91.6133C109.399 91.3526 109.44 91.1073 109.561 90.8745C110.3 90.2164 111.041 89.5584 111.78 88.9003C112.46 88.1987 112.708 87.3792 112.519 86.4325C109.741 83.6356 108.673 80.2645 109.312 76.3191C109.614 75.8131 109.986 75.7324 110.424 76.0739Z" fill="#EE9B68"/>
<path fill-rule="evenodd" clip-rule="evenodd" d="M104.012 99.0167C107.222 98.6473 110.267 99.1812 113.141 100.622C115.23 101.832 116.134 103.598 115.854 105.927C115.212 106.212 114.554 106.253 113.88 106.051C110.403 104.291 106.784 103.881 103.025 104.818C101.488 105.464 99.9269 106.038 98.3376 106.544C96.7327 106.762 96.1957 106.06 96.7327 104.446C98.35 101.553 100.777 99.7431 104.009 99.0198L104.012 99.0167Z" fill="#CE412B"/>
<path fill-rule="evenodd" clip-rule="evenodd" d="M57.8766 90.384C59.3511 91.1446 60.9125 91.6381 62.5639 91.8647C63.4827 91.784 64.3891 91.8647 65.2769 92.1099C68.3469 101.336 73.6923 108.903 81.313 114.808V120.482C81.2416 123.096 80.8319 125.644 80.0806 128.131C79.8944 127.876 79.733 127.587 79.5871 127.268C79.3419 127.103 79.0935 127.103 78.8483 127.268C75.9397 130.878 72.8138 134.289 69.4737 137.505C66.8445 138.3 64.296 139.287 61.8251 140.467C61.7568 137.586 61.0583 134.873 59.7267 132.324C58.5999 130.633 57.1626 130.263 55.4088 131.213C55.1418 131.542 54.9773 131.911 54.9152 132.324C54.7507 132.653 54.5862 132.982 54.4217 133.311C54.5582 131.297 53.9002 129.611 52.4474 128.255C51.5689 127.951 50.6656 127.826 49.7344 127.885C49.7778 127.525 50.1069 127.361 50.7215 127.392C51.0661 127.423 51.3951 127.504 51.7086 127.637C52.078 127.367 52.1618 127.081 51.9539 126.774C56.3587 115.329 59.1524 103.611 60.3413 91.6195C59.2579 91.4084 58.4353 90.9987 57.8735 90.3871L57.8766 90.384Z" fill="#0E1726"/>
<path fill-rule="evenodd" clip-rule="evenodd" d="M233.65 126.153C231.169 137.037 224.387 143.204 213.299 144.654C203.132 145.086 195.729 140.808 191.095 131.828C188.242 124.983 188.149 118.685 190.815 112.933C192.044 110.272 193.867 107.73 196.275 105.306C204.368 99.0074 213.084 98.0234 222.425 102.348C226.932 105.237 230.108 108.764 231.952 112.933C233.662 116.791 234.227 121.199 233.65 126.153Z" fill="#E43B28"/>
<path fill-rule="evenodd" clip-rule="evenodd" d="M201.949 109.378C202.669 109.369 203.327 109.574 203.923 109.996C206.434 112.548 208.983 115.056 211.572 117.521C214.241 114.975 216.874 112.383 219.466 109.751C220.319 109.549 221.142 109.633 221.933 109.996C223.054 110.865 223.874 111.933 224.401 113.203C224.37 113.603 224.246 113.976 224.032 114.314C221.359 116.987 218.686 119.659 216.014 122.332C218.776 125.011 221.449 127.767 224.032 130.595C224.218 131.288 224.137 131.946 223.787 132.57C222.899 133.789 221.747 134.612 220.332 135.037C219.931 135.006 219.559 134.882 219.22 134.668L211.451 126.898L203.681 134.668C202.933 135.124 202.191 135.124 201.461 134.668C200.21 133.709 199.304 132.517 198.748 131.092C198.801 130.738 198.925 130.409 199.118 130.105C201.753 127.51 204.342 124.881 206.888 122.211C204.171 119.451 201.499 116.658 198.869 113.824C198.705 113.33 198.705 112.836 198.869 112.343C199.708 111.132 200.738 110.145 201.952 109.381L201.949 109.378Z" fill="#FCF9F6"/>
<path fill-rule="evenodd" clip-rule="evenodd" d="M159.271 130.841C152.116 130.676 144.964 130.633 137.809 130.716C136.793 131.154 136.014 131.856 135.465 132.815C135.213 134.736 135.005 136.627 134.847 138.489C132.982 137.977 131.172 137.319 129.421 136.515C126.565 133.637 123.852 130.636 121.279 127.51C119.86 126.994 119.283 127.528 119.553 129.115H119.308C119.146 125.747 119.066 122.372 119.062 119.001C119.96 118.551 120.866 118.101 121.776 117.645C134.754 109.254 141.909 97.2907 143.238 81.7513C143.731 78.6006 144.017 75.394 144.101 72.1315C144.225 66.2119 144.265 60.2891 144.225 54.3695C144.442 54.832 144.566 55.4901 144.594 56.3438C144.675 56.0147 144.759 55.6857 144.839 55.3566C145.373 55.636 145.498 56.0054 145.209 56.4679C145.733 57.4892 146.267 58.5167 146.814 59.5504C146.956 60.7765 147.326 61.9281 147.925 63.0053C147.872 63.1512 147.792 63.2722 147.68 63.3747C147.993 64.3463 148.242 65.3334 148.419 66.3361L148.173 66.5813C148.338 68.4717 148.502 70.3653 148.667 72.2557C148.502 72.6654 148.338 73.0783 148.173 73.488C148.499 75.2481 148.499 77.0175 148.173 78.7931C148.297 84.0577 148.586 89.3193 149.036 94.5808C150.176 106.808 153.298 118.567 158.411 129.86C158.582 129.99 158.706 130.155 158.78 130.353C160.5 130.558 162.229 130.682 163.961 130.723C162.4 130.847 160.838 130.887 159.274 130.847L159.271 130.841Z" fill="#0E1726"/>
<path fill-rule="evenodd" clip-rule="evenodd" d="M81.3118 120.479C91.9343 131.34 104.599 134.876 119.304 131.086V129.112H119.549C119.589 130.182 119.549 131.253 119.425 132.318C115.96 140.715 110.78 147.87 103.882 153.78C94.1786 147.696 86.2847 139.799 80.1974 130.096C80.0764 129.444 80.0329 128.786 80.0733 128.121C80.8245 125.635 81.2373 123.086 81.3056 120.473L81.3118 120.479Z" fill="#FAC99F"/>
<path fill-rule="evenodd" clip-rule="evenodd" d="M80.0788 128.128C80.0384 128.792 80.0788 129.45 80.2029 130.102C86.2871 139.805 94.1841 147.699 103.888 153.787C110.785 147.876 115.966 140.721 119.43 132.324C119.554 131.26 119.595 130.189 119.554 129.118C119.287 127.532 119.862 126.998 121.28 127.513C123.851 130.639 126.567 133.641 129.423 136.518C129.509 138.558 129.305 140.612 128.805 142.686C126.796 151.797 123.301 160.265 118.319 168.097C116.193 165.312 113.809 162.764 111.164 160.448C108.851 158.26 106.427 156.202 103.888 154.28C101.904 156.552 99.9702 158.853 98.0891 161.187C96.1242 163.524 94.1903 165.911 92.2905 168.342C92.0174 168.792 91.6449 169 91.1792 168.96C86.8272 164.856 82.9222 160.374 79.461 155.516C75.7423 149.726 72.4146 143.723 69.4688 137.505C72.8088 134.289 75.9347 130.875 78.8433 127.268C79.0885 127.103 79.3369 127.103 79.5821 127.268C79.7249 127.587 79.8894 127.876 80.0757 128.131L80.0788 128.128Z" fill="#FBF8F5"/>
<path fill-rule="evenodd" clip-rule="evenodd" d="M81.3117 114.807C85.7724 118.067 90.7049 120.411 96.1123 121.838C104.137 123.701 111.785 122.754 119.055 119.001C119.058 122.375 119.139 125.747 119.3 129.115V131.089C104.596 134.876 91.931 131.34 81.3086 120.482V114.807H81.3117Z" fill="#EF9D6A"/>
<path fill-rule="evenodd" clip-rule="evenodd" d="M212.062 156.496C212.204 158.427 212.369 160.318 212.555 162.171C212.521 162.674 212.49 163.173 212.462 163.676C212.27 166.871 212.136 170.071 212.062 173.271C208.948 172.467 205.822 171.685 202.687 170.928C201.455 170.763 200.222 170.763 198.987 170.928C198.916 170.974 198.844 171.024 198.776 171.074C198.639 171.173 198.512 171.275 198.394 171.378C198.276 171.483 198.167 171.589 198.068 171.701C198.018 171.756 197.969 171.812 197.925 171.868C197.835 171.983 197.755 172.098 197.68 172.216C197.643 172.275 197.609 172.334 197.578 172.396C197.481 172.579 197.407 172.765 197.354 172.961C197.143 173.712 197.236 174.556 197.63 175.494C197.661 175.559 197.699 175.621 197.733 175.683C197.804 175.807 197.882 175.925 197.969 176.034C198.087 176.183 198.22 176.323 198.363 176.447C198.394 176.472 198.425 176.5 198.459 176.524C198.493 176.556 198.531 176.58 198.568 176.608C198.624 176.649 198.683 176.689 198.742 176.726C198.822 176.891 198.906 177.055 198.987 177.22C197.699 176.776 196.383 176.407 195.042 176.109C194.948 176.099 194.855 176.093 194.765 176.087C194.231 176.05 193.744 176.046 193.306 176.084C193.176 176.093 193.049 176.105 192.928 176.127C192.903 176.127 192.884 176.13 192.862 176.136C192.807 176.143 192.751 176.152 192.698 176.164C192.633 176.174 192.571 176.186 192.509 176.202C192.446 176.214 192.384 176.23 192.325 176.245C192.266 176.258 192.207 176.276 192.152 176.295C192.04 176.326 191.931 176.366 191.829 176.41C191.723 176.453 191.624 176.497 191.531 176.549C191.344 176.649 191.177 176.763 191.028 176.897C190.991 176.931 190.953 176.965 190.922 176.999C190.863 177.058 190.807 177.124 190.752 177.189C190.745 177.198 190.736 177.207 190.73 177.22C190.686 177.279 190.643 177.338 190.606 177.4C190.565 177.462 190.531 177.527 190.497 177.592C190.494 177.595 190.494 177.599 190.494 177.599C190.485 177.617 190.475 177.639 190.466 177.657C190.398 177.803 190.345 177.955 190.301 178.12C190.301 178.126 190.298 178.136 190.295 178.145C190.274 178.229 190.258 178.319 190.242 178.409V178.421C190.227 178.517 190.215 178.614 190.208 178.713C190.199 178.818 190.196 178.921 190.196 179.03C190.196 179.768 190.373 180.647 190.724 181.662C191.074 182.14 191.531 182.466 192.08 182.646C192.08 182.81 191.996 182.894 191.832 182.894C191.273 183.096 190.696 183.261 190.106 183.388C182.87 183.164 175.634 183 168.395 182.894C168.296 182.891 168.197 182.885 168.097 182.882H168.091C157.463 182.416 146.787 181.969 136.078 181.538C134.97 181.084 134.188 180.302 133.734 179.194C133.694 177.549 133.654 175.904 133.613 174.258C134.032 163.409 134.411 152.563 134.746 141.714C134.78 140.64 134.815 139.563 134.846 138.489C135.004 136.627 135.209 134.733 135.463 132.815C136.01 131.856 136.792 131.157 137.807 130.716C144.959 130.633 152.114 130.673 159.269 130.841C163.997 131.076 168.765 131.241 173.576 131.334C174.436 131.536 175.339 131.66 176.292 131.704C181.06 131.877 185.828 132.002 190.599 132.073C193.011 139.691 198.357 144.583 206.636 146.752C208.597 147.066 210.572 147.271 212.555 147.37C212.515 146.706 212.558 146.048 212.679 145.396C212.844 148.115 212.76 150.828 212.434 153.535C212.384 154.007 212.176 154.376 211.816 154.646C211.981 154.73 212.145 154.811 212.31 154.895C211.841 155.115 211.431 155.404 211.075 155.758C211.323 156.416 211.568 156.416 211.816 155.758C211.897 156.003 211.981 156.251 212.062 156.496Z" fill="#1F3A5A"/>
<path fill-rule="evenodd" clip-rule="evenodd" d="M49.736 127.882C50.6672 127.823 51.5706 127.947 52.449 128.252C53.9018 129.608 54.5599 131.294 54.4233 133.308C55.0224 141.953 55.6805 150.586 56.3975 159.213C54.265 159.374 52.1666 159.703 50.1054 160.2C49.8788 151.701 49.3045 143.232 48.3795 134.789C48.1684 134.525 47.9635 134.277 47.7618 134.05C47.6904 132.632 47.8145 131.235 48.1312 129.857C48.4447 129.009 48.9817 128.351 49.736 127.882Z" fill="#FACAA0"/>
<path fill-rule="evenodd" clip-rule="evenodd" d="M47.5151 134.05C48.288 142.832 48.6978 151.629 48.7474 160.448C46.975 160.873 45.249 161.451 43.5666 162.174C43.0482 157.412 42.595 152.641 42.2101 147.864C42.179 146.992 41.8934 146.25 41.3471 145.644C41.3068 142.438 41.3471 139.228 41.4713 136.025C41.6544 135.065 41.9835 134.162 42.4584 133.311C43.3058 132.182 44.4171 131.812 45.7892 132.2C46.5062 132.697 47.0836 133.315 47.5151 134.05Z" fill="#FBCBA1"/>
<path fill-rule="evenodd" clip-rule="evenodd" d="M149.896 141.202C147.925 141.031 145.951 140.991 143.976 141.078C142.57 141.96 141.996 143.232 142.251 144.902C141.62 142.388 142.608 140.907 145.212 140.46C147.099 140.699 148.99 140.904 150.886 141.078C150.567 141.199 150.238 141.239 149.899 141.202H149.896Z" fill="#172464"/>
<path fill-rule="evenodd" clip-rule="evenodd" d="M213.299 144.657C212.936 150.49 212.687 156.329 212.557 162.174C212.371 160.321 212.206 158.43 212.064 156.499C211.983 156.254 211.899 156.006 211.818 155.761C211.57 156.419 211.325 156.419 211.076 155.761C211.433 155.407 211.843 155.118 212.312 154.898C212.147 154.814 211.983 154.733 211.818 154.649C212.178 154.379 212.386 154.01 212.436 153.538C212.762 150.831 212.846 148.118 212.681 145.399C212.56 146.051 212.517 146.709 212.557 147.373C210.574 147.274 208.599 147.069 206.637 146.756C198.359 144.586 193.013 139.694 190.601 132.076C185.83 132.005 181.062 131.88 176.294 131.707C175.341 131.663 174.438 131.539 173.578 131.337C179.42 131.44 185.259 131.604 191.095 131.831C195.729 140.811 203.133 145.089 213.299 144.657Z" fill="#172B45"/>
<path fill-rule="evenodd" clip-rule="evenodd" d="M149.897 141.202C151.828 141.407 153.802 141.531 155.817 141.572C156.258 141.764 156.627 142.053 156.928 142.435C157.329 145.536 157.412 148.662 157.173 151.809C156.99 152.567 156.54 153.101 155.817 153.414C153.672 153.579 151.536 153.538 149.404 153.29C147.51 153.234 145.617 153.113 143.729 152.92C143.205 152.644 142.755 152.275 142.373 151.809C142.016 149.698 141.895 147.56 142.003 145.396C142.211 145.312 142.292 145.148 142.249 144.902C141.994 143.232 142.568 141.96 143.974 141.078C145.949 140.991 147.923 141.032 149.894 141.202H149.897Z" fill="#F3C23F"/>
<path fill-rule="evenodd" clip-rule="evenodd" d="M148.169 141.451C148.414 141.429 148.619 141.513 148.786 141.696C148.827 142.189 148.867 142.683 148.911 143.177C148.519 145.3 148.395 147.439 148.541 149.59C148.591 148.82 148.755 148.078 149.035 147.37C149.401 147.743 149.854 147.948 150.391 147.988C150.506 148.413 150.546 148.866 150.515 149.345C150.68 149.674 150.844 149.674 151.009 149.345C151.09 146.877 151.173 144.412 151.254 141.944C151.357 141.832 151.481 141.749 151.624 141.699C152.005 142.903 152.17 144.136 152.117 145.399C153.769 145.371 155.414 145.455 157.05 145.644V146.631C155.318 146.517 153.592 146.352 151.869 146.138V148.606C153.57 148.835 155.255 148.835 156.925 148.606C157.047 148.925 157.087 149.254 157.05 149.593H151.869C151.909 150.664 151.869 151.735 151.745 152.799C150.332 153.11 148.932 153.029 147.551 152.554C147.427 151.489 147.386 150.419 147.427 149.348H142.494C142.457 149.009 142.494 148.68 142.618 148.36C144.198 148.603 145.803 148.683 147.43 148.606C147.604 147.796 147.688 146.973 147.675 146.138C146.076 146.035 144.515 145.831 142.988 145.52C143.574 145.014 144.273 144.809 145.086 144.902C146.036 144.965 146.983 145.048 147.923 145.148C147.951 143.909 148.035 142.677 148.169 141.448V141.451Z" fill="#F0B932"/>
<path fill-rule="evenodd" clip-rule="evenodd" d="M142.003 145.396C141.894 147.56 142.018 149.698 142.372 151.809C142.754 152.272 143.204 152.641 143.729 152.92C145.616 153.113 147.506 153.234 149.403 153.29C142.63 154.74 140.165 152.11 142.003 145.396Z" fill="#242665"/>
<path fill-rule="evenodd" clip-rule="evenodd" d="M54.9156 132.321C55.4836 135.248 55.8561 138.21 56.0269 141.202C56.5391 147.28 56.9116 153.364 57.1382 159.458C57.6379 159.417 58.1315 159.458 58.6189 159.582C58.7306 159.684 58.8144 159.809 58.8641 159.951C52.8296 160.144 47.0714 161.5 41.5956 164.021C41.1611 164.216 40.7513 164.176 40.3633 163.897C40.8848 163.428 41.4622 163.018 42.0892 162.664C42.1699 162.13 42.2537 161.597 42.3344 161.06C41.9092 155.919 41.4963 150.779 41.1021 145.641H41.3473C41.8936 146.246 42.1823 146.988 42.2103 147.861C42.5952 152.638 43.0484 157.406 43.5668 162.171C45.2492 161.448 46.9751 160.87 48.7476 160.445C48.698 151.629 48.2851 142.829 47.5153 134.047H47.7605C47.9623 134.277 48.1671 134.522 48.3782 134.786C49.3033 143.229 49.8806 151.697 50.1041 160.197C52.1653 159.7 54.2606 159.371 56.3963 159.209C55.6823 150.586 55.0242 141.95 54.422 133.305C54.5865 132.976 54.7511 132.647 54.9156 132.318V132.321Z" fill="#EE9965"/>
<path fill-rule="evenodd" clip-rule="evenodd" d="M152.859 160.445C157.426 160.187 162.032 160.228 166.676 160.569C165.692 160.693 164.705 160.734 163.715 160.693C160.098 160.597 156.479 160.513 152.859 160.448V160.445Z" fill="#152263"/>
<path fill-rule="evenodd" clip-rule="evenodd" d="M204.661 164.639C204.757 163.791 204.593 163.012 204.168 162.295C203.935 162.177 203.686 162.134 203.429 162.171C203.165 161.941 202.836 161.857 202.442 161.926C196.519 161.789 190.599 161.625 184.68 161.432C190.646 161.199 196.649 161.28 202.69 161.677C203.1 161.637 203.513 161.597 203.922 161.553L203.677 161.308C204.363 160.752 204.528 160.873 204.171 161.677C204.729 162.261 204.978 162.962 204.909 163.776C204.941 164.285 204.857 164.574 204.664 164.639H204.661Z" fill="#1F2561"/>
<path fill-rule="evenodd" clip-rule="evenodd" d="M152.857 160.445C156.477 160.513 160.093 160.594 163.712 160.69C164.898 160.932 166.13 161.016 167.412 160.935C170.371 160.15 171.479 161.221 170.743 164.142C169.433 164.589 168.077 164.754 166.674 164.636C163.095 164.431 159.478 164.266 155.818 164.142C151.37 164.102 146.931 163.937 142.495 163.648C141.946 162.59 141.865 161.479 142.25 160.318C145.789 160.2 149.325 160.24 152.857 160.442V160.445Z" fill="#F3C241"/>
<path fill-rule="evenodd" clip-rule="evenodd" d="M167.412 160.938C170.383 159.778 171.659 160.765 171.237 163.9C171.113 164.353 170.827 164.639 170.374 164.763C166.404 164.993 165.171 164.949 166.674 164.639C168.08 164.757 169.436 164.592 170.743 164.145C171.479 161.224 170.371 160.153 167.412 160.938Z" fill="#122163"/>
<path fill-rule="evenodd" clip-rule="evenodd" d="M184.682 161.432C190.601 161.625 196.524 161.789 202.444 161.926C202.475 162.109 202.434 162.273 202.319 162.419C196.127 162.037 189.918 161.957 183.694 162.174C184.039 162.466 183.999 162.63 183.57 162.668C183.508 162.413 183.303 162.165 182.953 161.929C182.872 161.969 182.788 162.009 182.707 162.053C182.99 162.661 183.238 163.279 183.446 163.903C182.934 163.953 182.44 163.993 181.965 164.027C182.294 163.782 182.294 163.534 181.965 163.288C182.254 163.186 182.502 163.021 182.704 162.795C182.372 162.475 182.043 162.351 181.717 162.425C181.962 162.261 182.211 162.096 182.456 161.932C180.159 161.687 177.856 161.603 175.549 161.687C175.484 162.609 175.568 163.515 175.794 164.4C178.073 164.722 178.073 164.887 175.794 164.893C175.642 164.865 175.518 164.785 175.425 164.648C175.385 164.114 175.344 163.58 175.301 163.043C175.319 162.394 175.484 161.82 175.794 161.317C178.756 161.277 181.714 161.317 184.675 161.441L184.682 161.432Z" fill="#F5CF3D"/>
<path fill-rule="evenodd" clip-rule="evenodd" d="M202.445 161.926C202.839 161.86 203.168 161.941 203.432 162.171C203.172 162.134 202.926 162.174 202.694 162.295C203.172 162.357 203.622 162.481 204.05 162.664C204.215 163.323 204.215 163.981 204.05 164.639C203.972 165.024 203.768 165.312 203.432 165.502C196.072 165.418 188.712 165.21 181.352 164.884C180.281 164.884 179.251 164.968 178.27 165.129C177.398 165.207 176.575 165.123 175.802 164.884C178.081 164.878 178.081 164.713 175.802 164.39C175.572 163.503 175.492 162.599 175.557 161.677C177.866 161.597 180.167 161.677 182.464 161.923C182.218 162.087 181.97 162.252 181.725 162.416C182.051 162.345 182.38 162.466 182.712 162.785C182.507 163.012 182.262 163.177 181.973 163.279C182.302 163.524 182.302 163.773 181.973 164.018C182.448 163.984 182.942 163.943 183.454 163.894C183.246 163.267 182.998 162.652 182.715 162.044C182.796 162.003 182.88 161.963 182.96 161.919C183.308 162.158 183.516 162.404 183.578 162.658C184.003 162.621 184.047 162.456 183.702 162.165C189.929 161.947 196.138 162.031 202.327 162.41C202.442 162.264 202.482 162.099 202.451 161.916L202.445 161.926Z" fill="#F4C042"/>
<path fill-rule="evenodd" clip-rule="evenodd" d="M142.496 163.652C146.929 163.94 151.371 164.105 155.819 164.145C153.15 164.35 150.433 164.474 147.677 164.515C147.407 164.85 147.078 164.934 146.69 164.76C147.348 164.595 147.348 164.431 146.69 164.266C145.457 164.186 144.222 164.102 142.99 164.021C142.763 163.953 142.599 163.829 142.496 163.652Z" fill="#142562"/>
<path fill-rule="evenodd" clip-rule="evenodd" d="M180.734 165.381C184.186 165.477 187.641 165.561 191.096 165.626C190.112 165.79 189.085 165.871 188.014 165.871C184.919 165.821 182.491 165.657 180.737 165.377L180.734 165.381Z" fill="#031966"/>
<path fill-rule="evenodd" clip-rule="evenodd" d="M203.432 162.174C203.693 162.137 203.938 162.177 204.171 162.298C204.596 163.015 204.76 163.794 204.664 164.642C204.456 164.726 204.376 164.89 204.419 165.135C204.183 165.657 203.773 165.942 203.187 165.998C199.98 166.017 196.773 165.973 193.567 165.874C192.797 165.632 191.974 165.551 191.099 165.629C187.644 165.561 184.192 165.48 180.737 165.384C179.968 165.142 179.145 165.061 178.27 165.138C179.254 164.974 180.281 164.893 181.352 164.893C188.712 165.219 196.072 165.424 203.432 165.511C203.764 165.322 203.969 165.033 204.05 164.648C204.214 163.99 204.214 163.332 204.05 162.674C203.621 162.488 203.171 162.366 202.693 162.304C202.926 162.186 203.174 162.143 203.432 162.18V162.174Z" fill="#E8CC3F"/>
<path fill-rule="evenodd" clip-rule="evenodd" d="M204.416 165.132C204.602 165.666 204.357 166.036 203.677 166.243C199.645 166.396 195.616 166.312 191.59 165.998C192.242 165.877 192.9 165.834 193.564 165.874C196.774 165.973 199.98 166.014 203.184 165.998C203.771 165.942 204.183 165.657 204.416 165.135V165.132Z" fill="#0B1F62"/>
<path fill-rule="evenodd" clip-rule="evenodd" d="M114.867 250H97.1016C97.1047 249.95 97.1078 249.901 97.1078 249.851C98.5388 222.522 99.8518 195.19 101.05 167.848C101.01 167.355 100.966 166.861 100.926 166.368C99.9791 164.636 99.0323 162.906 98.0887 161.187C99.9698 158.852 101.904 156.552 103.887 154.28C106.426 156.202 108.851 158.26 111.163 160.448C110.564 162.64 109.906 164.819 109.192 166.985C110.263 176.956 111.126 186.945 111.781 196.959C112.771 214.644 113.802 232.325 114.867 250Z" fill="#52216C"/>
<path fill-rule="evenodd" clip-rule="evenodd" d="M155.321 169.82H148.414C147.476 169.577 146.489 169.494 145.452 169.574C144.236 169.5 143.044 169.58 141.876 169.82C141.712 170.723 141.712 171.629 141.876 172.533L142.246 172.902C149.23 173.281 156.221 173.566 163.214 173.765C160.663 173.858 158.114 174.106 155.566 174.504C155.336 174.05 155.051 173.97 154.703 174.258C153.945 173.942 153.126 173.777 152.235 173.765C148.811 173.669 145.4 173.464 141.998 173.147C141.181 172.042 141.06 170.85 141.628 169.571C141.892 169.4 142.181 169.276 142.491 169.202C147.672 169.251 152.853 169.416 158.034 169.695C157.133 169.819 156.227 169.86 155.321 169.82Z" fill="#1B2661"/>
<path fill-rule="evenodd" clip-rule="evenodd" d="M159.516 170.068C160.127 169.903 160.785 169.823 161.49 169.823C164.43 169.661 165.336 170.934 164.203 173.647C163.896 173.83 163.647 173.79 163.464 173.523C164.116 173.34 164.445 172.886 164.451 172.166C164.395 171.499 164.147 170.925 163.712 170.44C162.344 170.093 160.947 169.972 159.519 170.071L159.516 170.068Z" fill="#0C1E63"/>
<path fill-rule="evenodd" clip-rule="evenodd" d="M145.454 169.574C146.49 169.497 147.477 169.577 148.415 169.819C152.193 170.192 157.125 170.478 163.216 170.682C163.787 171.002 164.032 171.496 163.954 172.163C163.911 172.573 163.746 172.902 163.461 173.15C156.38 173.222 149.306 173.017 142.244 172.533C142.16 171.878 142.325 171.3 142.737 170.807L142.244 170.313C143.222 170.108 144.209 169.987 145.205 169.944C145.342 169.851 145.426 169.726 145.45 169.574H145.454Z" fill="#F4C141"/>
<path fill-rule="evenodd" clip-rule="evenodd" d="M145.454 169.574C145.426 169.726 145.345 169.851 145.209 169.944C144.212 169.987 143.225 170.108 142.247 170.313L142.741 170.807C142.328 171.303 142.164 171.878 142.247 172.533C149.309 173.014 156.381 173.219 163.464 173.15C163.75 172.902 163.915 172.573 163.958 172.163C164.036 171.496 163.79 171.002 163.219 170.682C157.129 170.478 152.193 170.189 148.419 169.819H155.325C156.676 170.065 158.076 170.145 159.519 170.065C160.947 169.965 162.344 170.09 163.713 170.434C164.15 170.918 164.396 171.496 164.452 172.16C164.445 172.88 164.116 173.333 163.464 173.517C163.3 173.517 163.219 173.597 163.219 173.762C156.226 173.563 149.235 173.278 142.251 172.899L141.881 172.529C141.717 171.626 141.717 170.72 141.881 169.816C143.048 169.577 144.243 169.494 145.457 169.571L145.454 169.574Z" fill="#EDCF3C"/>
<path fill-rule="evenodd" clip-rule="evenodd" d="M168.396 182.894C175.635 183 182.871 183.164 190.107 183.388C189.402 184.685 189.194 186.085 189.489 187.582C190.312 188.693 191.259 189.68 192.326 190.543V191.036C190.154 191.592 189.374 192.992 189.983 195.23C190.147 195.559 190.312 195.888 190.476 196.217C191.963 197.71 193.484 199.107 195.039 200.411V201.398C193.683 204.353 192.86 207.479 192.572 210.773C191.814 210.285 190.992 210.081 190.104 210.155C187.347 212.707 184.634 215.296 181.962 217.925C178.386 206.498 174.726 195.069 170.982 183.633C169.865 183.202 168.673 182.997 167.406 183.015C167.726 182.894 168.055 182.854 168.393 182.891L168.396 182.894Z" fill="#FCFAF7"/>
<path fill-rule="evenodd" clip-rule="evenodd" d="M61.8233 140.463C62.3821 149.928 63.0371 159.383 63.7976 168.835C62.1648 169.199 60.6841 169.897 59.3555 170.934C56.1334 173.392 53.706 176.478 52.0794 180.184C51.6727 181.324 51.6324 182.475 51.9552 183.639C53.5073 178.505 56.4687 174.352 60.8362 171.182C61.755 170.558 62.7422 170.065 63.7976 169.702C64.0056 169.453 64.0863 169.165 64.0428 168.839C65.6477 164.235 68.1962 160.246 71.6915 156.875C72.9766 155.624 74.4542 155.295 76.1335 155.888C77.2355 156.652 77.6049 157.679 77.2448 158.97C76.0932 162.096 74.9415 165.219 73.7899 168.345C72.6569 172.688 71.589 177.046 70.5833 181.42C68.7022 188.233 64.8375 193.579 58.9892 197.456C58.6447 198.859 58.2753 200.259 57.878 201.65C57.7476 202.736 57.133 203.146 56.0279 202.882C50.2666 202.277 44.797 200.675 39.6224 198.07C38.7781 197.651 38.0393 197.117 37.4029 196.466V195.727C37.9151 195.047 38.328 194.308 38.6353 193.507C37.0273 189.373 35.9998 185.098 35.5528 180.678C35.1214 171.381 35.081 162.087 35.4287 152.799C35.3883 150.906 35.4287 149.015 35.5528 147.125C35.6987 146.194 35.9471 145.287 36.2916 144.412C38.4956 142.478 40.0973 142.888 41.1031 145.644C41.4973 150.782 41.9102 155.922 42.3354 161.063C42.2547 161.597 42.1709 162.131 42.0902 162.668C41.4632 163.021 40.8858 163.431 40.3643 163.9C40.7523 164.179 41.1652 164.22 41.5966 164.024C47.0755 161.503 52.8306 160.147 58.8651 159.954C58.8123 159.809 58.7316 159.688 58.6198 159.585C58.1325 159.464 57.6389 159.421 57.1392 159.461C56.9126 153.367 56.5432 147.283 56.0279 141.205C55.8571 138.213 55.4877 135.252 54.9166 132.324C54.9787 131.911 55.1432 131.542 55.4101 131.213C57.164 130.26 58.6012 130.629 59.728 132.324C61.0566 134.87 61.755 137.583 61.8264 140.467L61.8233 140.463Z" fill="#FACCA2"/>
<path fill-rule="evenodd" clip-rule="evenodd" d="M63.7956 168.832H64.0408C64.0843 169.158 64.0005 169.447 63.7956 169.695C62.7402 170.058 61.7531 170.552 60.8342 171.176C56.4667 174.348 53.5053 178.499 51.9532 183.633C51.6304 182.469 51.6708 181.317 52.0774 180.178C53.7071 176.472 56.1314 173.386 59.3536 170.928C60.6821 169.894 62.1628 169.196 63.7956 168.829V168.832Z" fill="#ED9966"/>
<path fill-rule="evenodd" clip-rule="evenodd" d="M192.08 182.649C197.146 184.359 202.163 186.21 207.129 188.199C210.407 190.571 213.614 193.039 216.749 195.6C217.432 196.655 217.187 196.9 216.01 196.338C213.012 193.976 209.97 191.673 206.881 189.432C202.315 187.526 197.711 185.716 193.064 184.006C192.521 183.748 192.108 183.379 191.832 182.894C191.997 182.894 192.077 182.814 192.077 182.649H192.08Z" fill="#ED9865"/>
<path fill-rule="evenodd" clip-rule="evenodd" d="M226.005 195.479C226.045 199.101 224.853 202.227 222.429 204.853C221.2 206.979 219.843 209.034 218.359 211.021C215.407 214.547 212.368 218.002 209.23 221.383C208.798 221.932 208.429 222.51 208.119 223.109C207.042 224.226 206.011 225.378 205.036 226.564C199.166 223.9 194.848 219.663 192.086 213.858C192.309 212.84 192.474 211.81 192.579 210.776C192.868 207.482 193.691 204.356 195.047 201.401C196.903 203.136 198.753 204.943 200.597 206.827C200.762 207.156 200.762 207.485 200.597 207.814C198.865 209.227 198.207 211.04 198.623 213.241C198.701 213.439 198.822 213.604 198.992 213.734C199.374 211.692 200.361 210.006 201.954 208.677C202.395 208.55 202.807 208.631 203.186 208.923C203.816 209.547 204.518 210.084 205.285 210.527C205.499 210.378 205.623 210.174 205.654 209.91C202.77 206.616 199.647 203.571 196.279 200.78C195.901 200.532 195.491 200.408 195.047 200.411C193.492 199.107 191.971 197.71 190.484 196.217C190.319 195.888 190.155 195.559 189.99 195.23C189.382 192.989 190.164 191.595 192.334 191.036C192.616 191.356 192.942 191.645 193.321 191.899C196.522 193.461 199.728 195.022 202.941 196.587C206.207 199.318 209.581 201.907 213.054 204.356C213.278 204.037 213.237 203.711 212.93 203.369C211.608 202.252 210.332 201.1 209.106 199.914C207.104 198.455 205.129 196.937 203.186 195.351C199.626 193.579 196.006 191.974 192.331 190.54C191.263 189.677 190.316 188.69 189.494 187.578C189.199 186.082 189.404 184.682 190.111 183.385C190.701 183.257 191.279 183.093 191.837 182.891C192.117 183.372 192.526 183.742 193.07 184.002C197.717 185.716 202.317 187.526 206.886 189.429C209.972 191.67 213.017 193.973 216.016 196.335C217.192 196.897 217.44 196.652 216.754 195.596C213.616 193.036 210.41 190.568 207.135 188.196C202.165 186.206 197.152 184.356 192.086 182.646C191.536 182.466 191.083 182.137 190.729 181.659C189.314 177.568 190.751 175.714 195.047 176.109C196.388 176.403 197.704 176.776 198.996 177.22C203.152 179.057 207.346 180.827 211.577 182.525C214.575 185.132 217.701 187.557 220.951 189.801C221.476 189.528 221.476 189.158 220.951 188.69C218.074 186.303 215.196 183.922 212.315 181.535C207.864 179.709 203.344 178.105 198.747 176.723C198.266 176.422 197.897 176.012 197.636 175.491C196.832 173.576 197.282 172.058 198.992 170.928C200.225 170.763 201.46 170.763 202.693 170.928C205.828 171.685 208.951 172.467 212.067 173.271C215.271 174.156 217.943 175.882 220.085 178.452C222.665 181.854 225.049 185.39 227.24 189.059C227.752 191.362 227.34 193.501 226.008 195.472L226.005 195.479Z" fill="#FAC79D"/>
<path fill-rule="evenodd" clip-rule="evenodd" d="M198.742 176.729C203.336 178.111 207.859 179.716 212.31 181.541C215.188 183.925 218.066 186.309 220.946 188.696C221.471 189.162 221.471 189.531 220.946 189.807C217.696 187.563 214.573 185.139 211.572 182.531C207.341 180.833 203.147 179.067 198.991 177.226C198.91 177.062 198.826 176.897 198.745 176.732L198.742 176.729Z" fill="#ED9865"/>
<path fill-rule="evenodd" clip-rule="evenodd" d="M37.4014 195.724V196.463C36.318 196.252 35.4954 195.674 34.9336 194.737C35.2037 194.467 35.5327 194.423 35.9207 194.613C36.4546 194.942 36.9482 195.311 37.4014 195.724Z" fill="#24102A"/>
<path fill-rule="evenodd" clip-rule="evenodd" d="M34.933 194.737C35.4949 195.677 36.3175 196.251 37.4008 196.462C38.0372 197.111 38.776 197.648 39.6203 198.067C44.7949 200.669 50.2645 202.273 56.0258 202.879C57.1309 203.143 57.7455 202.733 57.8759 201.646C59.2479 201.622 59.9867 202.28 60.0953 203.621C59.4062 208.057 58.4998 212.415 57.3823 216.695C57.0129 216.816 56.6839 216.981 56.3952 217.189C48.3585 217.484 40.9582 215.469 34.1911 211.145C32.5149 209.922 30.9535 208.563 29.5038 207.076C29.2245 206.523 29.1003 205.946 29.1344 205.35C30.9473 201.718 32.8812 198.182 34.933 194.743V194.737Z" fill="#52216B"/>
<path fill-rule="evenodd" clip-rule="evenodd" d="M192.328 190.543C196.003 191.977 199.623 193.579 203.183 195.354C205.127 196.941 207.101 198.462 209.103 199.917C210.329 201.103 211.605 202.252 212.927 203.372C213.235 203.711 213.275 204.04 213.051 204.359C209.575 201.91 206.204 199.321 202.938 196.59C199.722 195.025 196.516 193.464 193.318 191.902C192.943 191.648 192.614 191.359 192.331 191.04V190.546L192.328 190.543Z" fill="#ED9966"/>
<path fill-rule="evenodd" clip-rule="evenodd" d="M195.043 200.411C195.49 200.411 195.9 200.532 196.275 200.78C199.64 203.571 202.766 206.613 205.65 209.91C205.619 210.17 205.495 210.375 205.28 210.527C204.514 210.084 203.815 209.547 203.182 208.923C202.8 208.631 202.391 208.547 201.95 208.677C200.36 210.006 199.373 211.692 198.988 213.734C198.818 213.604 198.693 213.439 198.619 213.241C198.203 211.037 198.861 209.227 200.593 207.814C200.758 207.485 200.758 207.156 200.593 206.827C198.749 204.943 196.899 203.133 195.043 201.401V200.414V200.411Z" fill="#EE9B68"/>
<path fill-rule="evenodd" clip-rule="evenodd" d="M195.72 236.441C183.977 241.308 170.117 245.114 154.851 247.538C154.462 247.6 154.071 247.659 153.68 247.718C146.879 248.765 139.805 249.534 132.516 250H114.866C113.801 232.325 112.771 214.644 111.78 196.959C111.125 186.945 110.262 176.956 109.191 166.985C109.905 164.819 110.563 162.64 111.163 160.448C113.807 162.761 116.191 165.312 118.318 168.094C123.3 160.265 126.795 151.794 128.804 142.686C128.909 142.245 129.002 141.808 129.08 141.37C129.111 141.205 129.139 141.041 129.164 140.876C129.182 140.771 129.198 140.665 129.213 140.56C129.238 140.392 129.26 140.224 129.278 140.057C129.306 139.84 129.328 139.619 129.35 139.402C129.368 139.185 129.387 138.97 129.399 138.753V138.744C129.412 138.573 129.418 138.399 129.424 138.228C129.427 138.145 129.431 138.061 129.434 137.977C129.443 137.49 129.44 137.005 129.418 136.518C131.172 137.322 132.979 137.977 134.847 138.492C134.816 139.566 134.782 140.643 134.748 141.718C134.413 152.567 134.034 163.413 133.615 174.262C133.655 175.907 133.696 177.552 133.736 179.197C134.189 180.305 134.971 181.088 136.08 181.541C146.789 181.972 157.464 182.419 168.093 182.885C168.046 182.885 167.997 182.888 167.95 182.894C167.919 182.894 167.888 182.9 167.857 182.907C167.823 182.91 167.789 182.916 167.751 182.922C167.64 182.944 167.525 182.978 167.413 183.021C168.68 183 169.872 183.208 170.989 183.636C174.733 195.072 178.392 206.504 181.965 217.928C181.726 218.254 181.478 218.583 181.227 218.915C183.974 225.896 188.416 231.53 194.55 235.814C194.938 236.034 195.329 236.242 195.72 236.441Z" fill="#D3DFE7"/>
<path fill-rule="evenodd" clip-rule="evenodd" d="M209.474 229.031C209.096 229.469 208.72 229.907 208.341 230.344C204.477 232.524 200.258 234.563 195.72 236.441C195.329 236.242 194.938 236.034 194.55 235.814C188.416 231.53 183.974 225.896 181.227 218.915C181.478 218.583 181.726 218.254 181.965 217.928C184.638 215.299 187.351 212.71 190.108 210.158C190.995 210.084 191.818 210.288 192.575 210.776C192.523 211.294 192.454 211.809 192.37 212.322C192.33 212.579 192.284 212.834 192.237 213.091C192.187 213.349 192.138 213.604 192.082 213.858C194.845 219.663 199.162 223.897 205.032 226.564C206.01 225.381 207.038 224.229 208.118 223.109C209.717 224.825 210.17 226.799 209.474 229.031Z" fill="#51216B"/>
<path fill-rule="evenodd" clip-rule="evenodd" d="M159.887 206.334C158.5 215.615 157.187 224.909 155.939 234.212C155.585 238.654 155.219 243.099 154.849 247.538C154.461 247.6 154.07 247.659 153.679 247.718C153.455 247.306 153.263 246.874 153.102 246.424C153.3 243.757 153.421 241.085 153.471 238.406C155.091 227.166 156.491 215.901 157.665 204.608C158.093 197.701 158.137 190.794 157.789 183.884C158.034 183.875 158.199 183.999 158.282 184.254C159.884 191.53 160.421 198.89 159.887 206.334Z" fill="#AFC4D5"/>
<path fill-rule="evenodd" clip-rule="evenodd" d="M57.3846 216.695C56.1616 225.294 54.8982 233.883 53.6006 242.463C52.4149 242.131 51.2446 241.786 50.0898 241.436C52.3217 233.532 54.178 225.533 55.6587 217.434C56.0778 217.475 56.4875 217.434 56.8911 217.313C56.7452 217.198 56.5806 217.155 56.3975 217.189C56.6862 216.981 57.0152 216.816 57.3846 216.695Z" fill="#AFC4D5"/>
<path fill-rule="evenodd" clip-rule="evenodd" d="M178.264 217.186C180.002 217.074 180.331 217.652 179.251 218.912C174.048 221.364 169.28 224.447 164.941 228.162C164.202 228.724 163.625 228.6 163.215 227.793C164.559 225.667 166.285 223.9 168.396 222.488C171.528 220.389 174.815 218.62 178.264 217.183V217.186Z" fill="#AFC4D5"/>
<path fill-rule="evenodd" clip-rule="evenodd" d="M56.8893 217.313C56.4858 217.434 56.076 217.475 55.657 217.434C54.1763 225.533 52.32 233.532 50.0881 241.436C38.2861 237.838 27.9616 233.303 19.6146 228.066C19.2979 227.864 18.9875 227.665 18.6771 227.464C17.9104 226.97 17.1623 226.467 16.4297 225.958V211.021C18.1152 201.994 19.8815 192.945 21.7347 183.884C22.7311 179.486 23.8424 175.128 25.0655 170.81C26.422 166.625 28.1882 162.596 30.3705 158.719C30.6592 158.201 30.9696 157.701 31.2986 157.217C32.4409 155.534 33.8161 154.06 35.4271 152.799C35.4085 153.24 35.3961 153.678 35.3806 154.115C35.3651 154.556 35.3526 154.994 35.3402 155.432C35.3154 156.257 35.2937 157.08 35.275 157.903C35.2564 158.675 35.244 159.448 35.2316 160.221C35.2285 160.349 35.2285 160.473 35.2254 160.597C35.2161 161.277 35.2068 161.957 35.2036 162.636C35.2036 162.761 35.2005 162.888 35.2005 163.015C35.1943 163.766 35.1912 164.521 35.1912 165.275C35.1912 170.406 35.3123 175.54 35.5513 180.678C35.9983 185.095 37.0258 189.369 38.6337 193.504C38.3233 194.308 37.9136 195.047 37.4014 195.727C36.9451 195.314 36.4515 194.945 35.9207 194.615C35.5327 194.426 35.2036 194.466 34.9336 194.74C32.8817 198.179 30.9509 201.718 29.135 205.347C29.1009 205.946 29.225 206.52 29.5044 207.072C30.9541 208.562 32.5154 209.919 34.1917 211.145C40.9588 215.466 48.3591 217.481 56.3958 217.189C56.5789 217.155 56.7434 217.198 56.8893 217.313Z" fill="#D3DFE7"/>
<path fill-rule="evenodd" clip-rule="evenodd" d="M29.7514 207.69C26.2841 214.417 22.913 221.203 19.635 228.044C19.6288 228.05 19.6194 228.06 19.6132 228.066C19.2966 227.864 18.9862 227.666 18.6758 227.464C18.6882 227.333 18.7223 227.197 18.772 227.057C21.6961 219.98 25.0672 213.154 28.8885 206.579C29.0623 206.796 29.2672 206.961 29.5031 207.073C29.4845 207.321 29.5652 207.526 29.7514 207.69Z" fill="#AEC3D4"/>
<path fill-rule="evenodd" clip-rule="evenodd" d="M101.048 167.845C99.8497 195.187 98.5366 222.519 97.1056 249.848C81.3644 248.702 66.6507 246.145 53.5977 242.46C54.8952 233.88 56.1586 225.291 57.3816 216.692C58.5022 212.412 59.4055 208.053 60.0947 203.618C59.986 202.277 59.2472 201.619 57.8752 201.643C58.2694 200.25 58.6419 198.853 58.9865 197.45C64.8347 193.573 68.6994 188.227 70.5805 181.414C71.5863 177.04 72.6572 172.682 73.7871 168.339C74.9388 165.213 76.0904 162.09 77.2421 158.964C77.6021 157.673 77.2327 156.645 76.1308 155.882C74.4545 155.286 72.9738 155.615 71.6918 156.866C68.1965 160.24 65.6449 164.229 64.0432 168.832H63.7948C63.6644 167.215 63.5372 165.595 63.4161 163.974C63.382 163.571 63.354 163.167 63.323 162.761C63.2081 161.24 63.0933 159.719 62.9846 158.198C62.9598 157.828 62.9319 157.459 62.907 157.086C62.7922 155.516 62.6835 153.945 62.578 152.374C62.4538 150.546 62.3328 148.717 62.2179 146.886C62.0813 144.744 61.951 142.602 61.8237 140.46C64.2915 139.281 66.8431 138.294 69.4692 137.502C69.7145 138.02 69.9628 138.539 70.2173 139.054C70.2825 139.194 70.3508 139.334 70.4222 139.473C70.6674 139.976 70.9158 140.476 71.1672 140.976C71.1889 141.019 71.2138 141.066 71.2355 141.109C71.5366 141.705 71.8408 142.301 72.1512 142.894C72.4585 143.487 72.7721 144.08 73.0887 144.67C73.337 145.132 73.5853 145.592 73.8368 146.051C74.0882 146.51 74.3428 146.967 74.6004 147.423C74.8549 147.879 75.1157 148.336 75.3764 148.789C75.6124 149.202 75.8514 149.611 76.0904 150.021C77.1769 151.871 78.3006 153.703 79.4615 155.509C82.9227 160.37 86.8277 164.85 91.1797 168.957C91.6454 168.997 92.0148 168.789 92.291 168.339C94.1877 165.908 96.1216 163.521 98.0865 161.184C99.0302 162.903 99.9769 164.632 100.924 166.365C100.964 166.858 101.008 167.352 101.048 167.845Z" fill="#D3DFE7"/>
</g>
<defs>
<clipPath id="clip0_3349_17054">
<rect width="250" height="250" fill="white"/>
</clipPath>
</defs>
</svg>
