<svg width="250" height="250" viewBox="0 0 250 250" fill="none" xmlns="http://www.w3.org/2000/svg">
<g clip-path="url(#clip0_3349_15078)">
<path fill-rule="evenodd" clip-rule="evenodd" d="M183.463 72.1534C183.056 70.2591 182.153 68.6485 180.755 67.3252C178.853 65.807 177.089 65.9232 175.454 67.6774C174.685 71.1447 173.666 74.5231 172.391 77.8058C172.664 74.0444 172.941 70.2762 173.215 66.5011C173.133 63.8237 172.938 61.1531 172.627 58.4928C171.532 57.7679 170.394 57.1387 169.211 56.6087C165.685 54.2595 162.153 51.9035 158.614 49.5407C154.162 46.1144 149.843 42.5035 145.658 38.7079C141.763 35.1449 138.425 31.1407 135.649 26.6955C134.678 24.8319 133.775 22.9478 132.941 21.0397C132.264 18.9641 131.754 16.8441 131.409 14.683C130.766 20.3011 129.039 25.5602 126.225 30.4637C123.257 35.0833 119.684 39.2038 115.508 42.8284C111.214 46.0666 106.895 49.2466 102.556 52.3686C98.3667 54.8169 94.1266 57.2105 89.8353 59.5528C89.613 60.1922 89.5343 60.859 89.5993 61.5532C89.5309 65.995 89.6096 70.43 89.8353 74.8616C89.8113 75.2583 89.654 75.5318 89.3634 75.6857C89.0419 72.1739 87.4724 69.3871 84.6548 67.3252C83.7042 67.1816 82.7604 67.2226 81.8269 67.4414C80.3737 68.5357 79.3137 69.9479 78.6469 71.6815C76.8517 78.7085 78.5409 84.7541 83.711 89.8182C86.3098 91.6647 89.2163 92.7247 92.4272 92.9983C95.956 103.472 102.08 112.068 110.8 118.791C123.862 127.849 137.129 128.16 150.605 119.731C159.913 112.742 166.472 103.715 170.271 92.6461C170.753 92.4273 171.262 92.3486 171.803 92.4102C174.894 91.7844 177.445 90.2149 179.459 87.6982C182.673 83.0204 184.006 77.8365 183.463 72.1534ZM152.49 55.3127C150.455 55.7504 148.414 56.065 146.365 56.2531C146.15 56.1676 145.952 56.0479 145.777 55.9009C145.914 54.1809 146.82 52.9636 148.485 52.2489C151.905 51.2812 155.358 51.1649 158.85 51.8967C160.744 52.4917 162.55 53.2747 164.266 54.2527C165.114 54.9844 165.938 55.7675 166.738 56.6087C167.043 56.9746 167.2 57.3678 167.21 57.785C162.543 55.5897 157.636 54.7656 152.49 55.3127Z" fill="#FECBA4"/>
<path fill-rule="evenodd" clip-rule="evenodd" d="M174.395 18.4512C180.69 26.5723 184.615 35.7604 186.171 46.0084C186.205 46.2546 186.168 46.4905 186.055 46.7162C184.424 36.3177 180.539 26.8972 174.395 18.4512Z" fill="#101219"/>
<path fill-rule="evenodd" clip-rule="evenodd" d="M55.9176 109.367C55.5688 112.209 55.1756 115.037 54.7413 117.847C53.1239 117.977 51.5544 118.33 50.0293 118.907C49.4036 119.376 49.5198 119.571 50.3815 119.496C52.8504 119.123 55.3226 118.771 57.8017 118.436C56.7827 118.357 55.7603 118.278 54.7413 118.2C55.4423 118.083 56.1501 118.042 56.8614 118.083C62.1273 118.008 67.3864 118.124 72.642 118.436C74.3518 118.507 75.8461 119.095 77.1181 120.203C78.096 122.587 78.0584 124.943 77.0018 127.268C76.7009 127.593 76.3487 127.829 75.9418 127.976C76.0786 127.678 76.0786 127.442 75.9418 127.268C70.2211 127.463 64.4901 127.579 58.7489 127.62C58.424 128.219 58.5813 128.69 59.2208 129.032C64.3157 129.408 69.4175 129.487 74.5296 129.268C75.2477 129.227 75.9555 129.108 76.6496 128.916C76.5265 128.752 76.3692 128.636 76.1777 128.564C76.2325 128.472 76.3111 128.431 76.4137 128.448C77.2583 128.458 77.8464 128.851 78.1815 129.624C79.3407 131.843 79.498 134.12 78.6534 136.456C78.161 137.068 77.5729 137.536 76.8856 137.868C76.8172 137.485 76.5812 137.249 76.1777 137.16C75.6375 137.625 75.0083 137.902 74.2936 137.984C69.6603 138.063 65.0304 138.142 60.397 138.22C59.8089 138.641 59.8089 139.034 60.397 139.397C65.5023 140.163 70.6075 140.163 75.7059 139.397C75.528 139.239 75.4494 139.041 75.4699 138.809C77.142 139.851 77.8498 141.383 77.59 143.401C77.8875 145.514 77.101 147.046 75.234 147.993C74.7963 147.853 74.3654 147.696 73.938 147.521C72.7446 147.863 71.5273 148.14 70.2861 148.345C67.4582 148.424 64.6337 148.503 61.8059 148.581C61.4502 148.78 61.334 149.053 61.4537 149.405C61.8606 149.583 62.2948 149.699 62.7496 149.758C66.4392 149.73 70.1322 149.611 73.8183 149.405C74.1705 149.911 74.4031 150.459 74.5262 151.054C74.7895 153.707 73.7705 155.707 71.4658 157.061C68.5216 158.286 65.4578 158.952 62.2812 159.065C62.1033 158.812 61.8674 158.775 61.5733 158.949C60.4962 160.813 59.0806 162.382 57.3332 163.661C57.3879 163.753 57.4666 163.794 57.5692 163.777C56.4681 164.666 55.3294 165.528 54.1532 166.369C54.0814 167.193 53.8864 167.98 53.565 168.725C53.5719 168.961 53.4556 169.118 53.2128 169.197C48.6957 168.315 44.1787 167.412 39.6684 166.489C36.6457 165.651 33.7391 164.512 30.9523 163.073C30.7437 162.878 30.6651 162.642 30.7164 162.365C32.1354 158.693 33.3527 154.924 34.3683 151.06C35.6232 145.093 36.8816 139.127 38.1365 133.16C39.7539 127.285 41.3234 121.397 42.8485 115.495C44.4044 107.699 44.7942 99.8475 44.0248 91.9417C44.377 91.275 44.8899 90.7655 45.5567 90.4098C48.2854 89.6541 50.5217 90.3996 52.2691 92.6461C55.6338 97.7308 56.8511 103.305 55.921 109.371L55.9176 109.367Z" fill="#FECBA4"/>
<path fill-rule="evenodd" clip-rule="evenodd" d="M115.078 1.15573C122.105 -0.526632 139.934 -0.0923638 144.327 0.697526C148.721 1.48742 154.873 3.62114 157.906 4.90343C164.564 8.03221 170.062 12.5459 174.395 18.4478C180.536 26.8904 184.424 36.3144 186.055 46.7129C186.168 46.4906 186.209 46.2547 186.171 46.005C188.161 59.7546 190.794 73.4152 194.063 86.9904C196.788 98.7225 201.894 109.244 209.372 118.552C212.525 122.252 215.585 126.02 218.557 129.856C219.504 131.125 220.328 132.459 221.029 133.861C225.307 141.011 228.213 148.393 229.745 156.001C229.936 156.422 230.053 156.894 230.097 157.414C231.345 169.45 228.716 180.522 222.205 190.623C221.227 183.566 219.223 176.812 216.197 170.366C212.979 164.714 208.466 160.436 202.653 157.53C200.198 156.302 197.763 155.085 195.352 153.878C194.61 153.43 193.902 152.921 193.232 152.346C193.677 152.295 194.07 152.137 194.409 151.874C194.186 151.727 193.988 151.768 193.82 151.99C193.437 151.587 193.082 151.197 192.76 150.814C192.008 151.142 192.008 151.614 192.76 152.226L192.524 152.462C191.122 151.85 189.707 151.262 188.284 150.694C189.491 150.435 189.491 150.12 188.284 149.751C188.425 149.31 188.267 148.916 187.812 148.574C188.401 148.28 188.36 148.007 187.696 147.75C187.525 147.371 187.566 147.019 187.812 146.69C187.46 146.495 187.183 146.218 186.988 145.866C183.907 138.921 180.454 132.168 176.624 125.609C174.75 120.689 172.75 115.861 170.616 111.125C170.739 110.991 170.818 110.834 170.852 110.653C169.792 107.791 168.968 104.847 168.38 101.82C168.134 101.444 167.86 101.092 167.556 100.76C167.792 100.566 168.028 100.367 168.264 100.172C168.024 99.7175 167.983 99.2457 168.147 98.7601C168.999 96.8247 169.782 94.8619 170.503 92.8718C171.071 92.6906 171.659 92.5709 172.271 92.5196C172.131 92.4102 171.974 92.3726 171.799 92.4034C174.89 91.7776 177.441 90.2081 179.455 87.6914C182.67 83.0136 184.003 77.8297 183.459 72.1466C183.053 70.2523 182.15 68.6417 180.751 67.3184C178.854 65.8002 177.086 65.9164 175.451 67.6706C174.682 71.1379 173.663 74.5163 172.391 77.799C172.664 74.0376 172.938 70.2694 173.215 66.4943C173.133 63.8169 172.938 61.1463 172.627 58.486C171.533 57.7611 170.394 57.1353 169.211 56.6019C165.682 54.2527 162.15 51.9001 158.61 49.5373C154.162 46.111 149.843 42.5001 145.654 38.7011C141.759 35.1381 138.422 31.1339 135.642 26.6887C134.671 24.8285 133.768 22.941 132.934 21.0363C132.26 18.9573 131.747 16.8407 131.402 14.6762C130.759 20.2943 129.032 25.5568 126.222 30.4569C123.25 35.0765 119.68 39.2004 115.505 42.8215C111.21 46.0598 106.892 49.2398 102.549 52.3618C98.36 54.8101 94.1199 57.2037 89.8285 59.546C89.6063 60.1854 89.5276 60.8522 89.5926 61.5498C89.4011 60.9685 89.2814 60.3393 89.2404 59.6657C88.4334 60.0794 87.688 60.5889 87.0041 61.1976C87.1203 61.6661 87.3563 62.0593 87.7119 62.3739C87.5272 63.3108 87.5272 64.2135 87.7119 65.0821C87.6298 65.3625 87.5136 65.3625 87.3597 65.0821C87.2776 65.4856 87.1614 65.8788 87.0075 66.2584C87.0896 66.5388 87.2058 66.5388 87.3597 66.2584C87.476 66.6448 87.5136 67.0346 87.476 67.4346C86.3339 67.5885 85.5884 67.1166 85.2396 66.0224C85.1234 66.3268 85.0858 66.6413 85.1234 66.9662C83.9095 66.5148 82.8084 66.6721 81.827 67.4381C80.3738 68.5323 79.3138 69.9445 78.647 71.6782C76.8518 78.7051 78.5375 84.7507 83.7112 89.8148C84.9456 91.0629 86.4364 91.9657 88.1872 92.523C87.9136 92.6393 87.7153 92.8376 87.5991 93.1112C86.1766 101.208 83.6257 108.902 79.9429 116.192C79.8745 117.827 79.2043 119.239 77.9391 120.432C77.6998 120.234 77.4262 120.156 77.1151 120.197C75.843 119.092 74.3522 118.5 72.639 118.429C67.3834 118.118 62.1243 117.998 56.8583 118.076C56.2018 117.847 55.494 117.769 54.7383 117.841C55.1725 115.03 55.5658 112.202 55.9146 109.36C56.5369 108.54 57.125 107.675 57.6824 106.768C62.4559 98.107 65.8309 88.919 67.8108 79.2112C69.3359 70.7241 70.9088 62.2474 72.5228 53.774C73.2716 50.5461 74.0547 47.3284 74.8788 44.1175C77.669 33.4318 82.6135 23.9326 89.7191 15.6165C96.175 8.49042 108.051 2.83467 115.078 1.14889V1.15573Z" fill="#0C192C"/>
<path fill-rule="evenodd" clip-rule="evenodd" d="M175.806 74.0376C176.791 73.8837 177.457 74.277 177.81 75.2139C178.1 79.3001 176.726 82.7161 173.689 85.4585C173.176 85.7423 172.626 85.8586 172.041 85.8107C172.195 83.1299 172.468 80.4593 172.865 77.8024C173.641 76.3628 174.623 75.1045 175.809 74.0342L175.806 74.0376Z" fill="#F9A56E"/>
<path fill-rule="evenodd" clip-rule="evenodd" d="M134.352 71.4456C134.622 71.5139 134.78 71.7089 134.824 72.0337C135.197 74.8069 135.395 77.5937 135.412 80.3942C135.498 80.89 135.655 81.3619 135.884 81.8064C136.763 83.0785 137.549 84.4155 138.24 85.8106C139.04 87.7699 138.609 89.3805 136.944 90.6388C135.228 91.7741 133.344 92.246 131.292 92.0511C130.94 91.7775 130.981 91.5826 131.408 91.4629C133.515 91.0765 135.084 89.9755 136.12 88.1666C136.277 87.6161 136.277 87.069 136.12 86.5184C135.231 85.2874 134.523 83.9538 134 82.5143C133.894 78.8179 134.01 75.1283 134.352 71.4456Z" fill="#F6A16A"/>
<path fill-rule="evenodd" clip-rule="evenodd" d="M148.721 69.7975C147.722 72.28 147.838 74.7146 149.073 77.098C149.818 78.0417 150.721 78.7495 151.781 79.218C148.919 78.5546 146.84 76.9031 145.541 74.2701C145.322 72.6253 145.91 71.3294 147.308 70.3822C147.739 70.1086 148.174 69.8317 148.604 69.5581C148.697 69.6128 148.738 69.6915 148.721 69.794V69.7975Z" fill="#F8F7F4"/>
<path fill-rule="evenodd" clip-rule="evenodd" d="M84.4183 73.8015C86.5828 73.846 88.1113 74.865 89.0106 76.8619C89.9612 79.7513 90.3169 82.6955 90.0707 85.6943C89.079 85.9337 88.2139 85.6977 87.4787 84.9865C84.2269 82.2885 82.9309 78.876 83.5908 74.7419C83.9157 74.458 84.1892 74.1435 84.4149 73.7981L84.4183 73.8015Z" fill="#F9A56E"/>
<path fill-rule="evenodd" clip-rule="evenodd" d="M108.68 68.6211C106.608 71.5037 106.492 74.4854 108.328 77.5732C110.951 80.2027 113.382 80.0454 115.628 77.1013C116.675 74.7556 116.716 72.403 115.745 70.0367V69.8008C117.078 70.6249 118.138 71.7259 118.925 73.0971C119.15 74.1059 118.997 75.0462 118.453 75.925C115.054 79.8368 110.933 80.8182 106.088 78.8691C104.03 77.9527 102.696 76.4208 102.084 74.2768C102.412 72.6492 103.277 71.3532 104.676 70.3889C105.921 69.5956 107.254 69.0075 108.68 68.6211Z" fill="#F9F8F5"/>
<path fill-rule="evenodd" clip-rule="evenodd" d="M156.494 68.6211C158.969 69.2092 160.812 70.6249 162.03 72.8612C162.146 74.7863 161.401 76.3182 159.793 77.4535C157.318 79.0743 154.647 79.6624 151.785 79.2213C156.087 78.7221 158.012 76.2875 157.557 71.9209C157.284 70.8198 156.853 69.8008 156.261 68.8605C156.261 68.7032 156.34 68.6245 156.497 68.6245L156.494 68.6211Z" fill="#F9F8F4"/>
<path fill-rule="evenodd" clip-rule="evenodd" d="M156.258 68.8537C156.846 69.7941 157.28 70.8165 157.554 71.9141C158.008 76.2842 156.087 78.7154 151.782 79.2146C150.722 78.7462 149.819 78.0384 149.073 77.0946C147.839 74.7078 147.723 72.2766 148.721 69.7941C149.049 69.4658 149.285 69.0726 149.429 68.6178C151.809 66.3747 154.083 66.4533 156.261 68.8537H156.258Z" fill="#020B07"/>
<path fill-rule="evenodd" clip-rule="evenodd" d="M110.8 67.2055C113.032 67.1679 114.681 68.1117 115.747 70.0334C116.715 72.3997 116.678 74.7557 115.631 77.098C113.385 80.0421 110.95 80.1994 108.331 77.5699C106.494 74.4855 106.614 71.5004 108.683 68.6178C109.357 68.0843 110.064 67.6125 110.803 67.2055H110.8Z" fill="#020A06"/>
<path fill-rule="evenodd" clip-rule="evenodd" d="M117.864 68.3852C117.874 68.6417 117.953 68.8742 118.1 69.093C117.984 69.1717 117.864 69.2503 117.748 69.329C113.159 65.7864 108.488 65.6291 103.731 68.8571C102.757 69.7119 101.817 70.6147 100.904 71.5653C100.671 71.7055 100.514 71.6268 100.432 71.3293C102.911 65.3009 107.308 63.1808 113.62 64.9692C115.357 65.7249 116.77 66.8636 117.861 68.3852H117.864Z" fill="#090D09"/>
<path fill-rule="evenodd" clip-rule="evenodd" d="M152.49 66.5011C150.52 66.7781 148.793 67.5645 147.309 68.8571C146.41 69.2024 146.215 68.9665 146.721 68.1493C150.63 63.345 155.225 62.5995 160.501 65.913C162.146 67.2431 163.322 68.8913 164.034 70.8609C163.955 70.9771 163.876 71.0968 163.798 71.2131C161.671 68.6964 159 67.0892 155.789 66.3848C154.647 66.1933 153.546 66.231 152.493 66.5011H152.49Z" fill="#090C09"/>
<path fill-rule="evenodd" clip-rule="evenodd" d="M89.5981 61.5532C89.5297 65.995 89.6083 70.43 89.834 74.8616C89.8101 75.2583 89.6528 75.5318 89.3621 75.6857C89.0407 72.1739 87.4712 69.3871 84.6501 67.3252C83.6995 67.1816 82.7558 67.2226 81.8223 67.4414C82.8036 66.6755 83.9047 66.5182 85.1186 66.9696C85.081 66.6447 85.1186 66.3335 85.2349 66.0258C85.5836 67.12 86.3291 67.5919 87.4712 67.438C87.5088 67.038 87.4712 66.6447 87.3549 66.2617C87.201 66.5421 87.0848 66.5421 87.0027 66.2617C87.1566 65.8822 87.2728 65.4889 87.3549 65.0855C87.5088 65.3658 87.6251 65.3658 87.7071 65.0855C87.5225 64.2169 87.5225 63.3142 87.7071 62.3773C87.3515 62.0627 87.119 61.6694 86.9993 61.201C87.6866 60.5923 88.432 60.0828 89.2356 59.6691C89.2801 60.3427 89.3963 60.9719 89.5878 61.5532H89.5981Z" fill="#0D1321"/>
<path fill-rule="evenodd" clip-rule="evenodd" d="M158.85 51.8966C160.744 52.4916 162.55 53.2747 164.266 54.2526C165.114 54.9844 165.938 55.7674 166.738 56.6086C167.043 56.9745 167.2 57.3677 167.21 57.7849C162.543 55.5896 157.636 54.7655 152.49 55.3127C150.455 55.7503 148.414 56.0649 146.365 56.2564C146.15 56.1675 145.952 56.0513 145.777 55.9042C145.918 54.1842 146.82 52.9669 148.486 52.2523C151.905 51.2846 155.359 51.1683 158.85 51.9001V51.8966Z" fill="#0D1320"/>
<path fill-rule="evenodd" clip-rule="evenodd" d="M109.856 51.4249C113.85 51.0658 117.423 52.0882 120.572 54.4853C120.955 55.0631 120.996 55.6513 120.689 56.2531C118.794 56.1745 116.91 55.9385 115.036 55.5453C109.254 55.3264 103.68 56.3078 98.3117 58.4894C98.1544 58.4108 97.9971 58.3321 97.8398 58.2535C99.5769 55.9283 101.776 54.1604 104.436 52.9533C106.224 52.2626 108.03 51.7531 109.852 51.4214L109.856 51.4249Z" fill="#0C1320"/>
<path fill-rule="evenodd" clip-rule="evenodd" d="M117.865 25.7517C111.279 35.4355 102.877 43.3242 92.6634 49.4245C92.0616 49.8074 91.4324 50.0434 90.7793 50.1323C96.0315 45.9024 101.212 41.5837 106.324 37.176C110.188 33.3634 114.035 29.5575 117.865 25.7517Z" fill="#1F2E44"/>
<path fill-rule="evenodd" clip-rule="evenodd" d="M151.074 26.928C155.731 30.3645 160.365 33.8592 164.971 37.4085C168.472 39.7474 172.083 41.9085 175.807 43.885C175.728 43.9636 175.65 44.0422 175.571 44.1209C167.949 41.3717 161.196 37.2513 155.314 31.7562C153.67 30.3132 152.257 28.7027 151.074 26.928Z" fill="#1F2E44"/>
<path fill-rule="evenodd" clip-rule="evenodd" d="M146.129 10.6754C152.629 16.868 159.694 22.3254 167.326 27.0442C166.697 27.2015 166.071 27.2015 165.442 27.0442C157.741 23.0777 151.306 17.6203 146.129 10.6754Z" fill="#1F2D43"/>
<path fill-rule="evenodd" clip-rule="evenodd" d="M102.083 15.6233C103.105 15.5857 104.127 15.6233 105.143 15.7396C106.371 16.0234 106.801 16.7722 106.439 17.9759C105.341 19.0735 104.24 20.1746 103.143 21.2722C103.03 21.4945 102.989 21.7304 103.026 21.98C104.606 21.7031 106.176 21.4261 107.738 21.156C108.309 21.6278 108.504 22.216 108.326 22.9238C107.824 23.6624 107.236 24.3292 106.559 24.9276C105.461 25.8714 104.36 26.8117 103.262 27.7555C102.746 28.0803 102.195 28.159 101.614 27.9914C101.016 27.4716 100.506 26.8835 100.082 26.2236C100.007 25.5568 100.123 24.9276 100.434 24.3394C99.0769 23.8129 97.9382 22.9512 97.0184 21.7475C96.8611 21.2756 96.8611 20.8038 97.0184 20.3353C98.3041 18.3041 99.9899 16.7346 102.083 15.6233Z" fill="#1E2D42"/>
<path fill-rule="evenodd" clip-rule="evenodd" d="M83.7103 89.8181C86.3091 91.6646 89.2156 92.7246 92.4264 92.9982C95.9553 103.472 102.079 112.068 110.799 118.791V126.563C110.56 128.328 110.402 130.133 110.327 131.98C109.274 132.233 108.409 132.78 107.735 133.628C104.053 136.606 100.678 139.903 97.6069 143.52H97.3709C89.6293 145.654 82.0143 148.167 74.5223 151.057C74.4026 150.462 74.1667 149.915 73.8145 149.409C74.2145 148.851 74.683 148.383 75.2267 147.996C77.0937 147.049 77.8802 145.517 77.5827 143.404C77.8425 141.387 77.1347 139.855 75.4626 138.812C75.8627 138.412 76.3346 138.101 76.8748 137.868C77.5622 137.536 78.1503 137.064 78.6427 136.456C79.4873 134.12 79.33 131.843 78.1708 129.624C77.8391 128.848 77.251 128.458 76.403 128.447L75.9311 127.976C76.338 127.829 76.6902 127.596 76.9911 127.268C78.0477 124.943 78.0887 122.587 77.1074 120.203C77.4185 120.162 77.6921 120.241 77.9315 120.439C79.1966 119.246 79.8634 117.834 79.9352 116.199C83.618 108.905 86.1689 101.212 87.5914 93.1179C87.7076 92.8443 87.9059 92.646 88.1795 92.5297C86.4287 91.9724 84.9379 91.0696 83.7035 89.8215L83.7103 89.8181Z" fill="#0B1523"/>
<path fill-rule="evenodd" clip-rule="evenodd" d="M119.748 99.4746C124.73 102.19 130.068 103.171 135.765 102.419C139.228 102.101 142.487 101.119 145.541 99.4746C145.267 100.466 144.676 101.29 143.773 101.947C135.446 108.673 127.397 108.321 119.632 100.887C119.471 100.391 119.512 99.9226 119.748 99.4746Z" fill="#E3211B"/>
<path fill-rule="evenodd" clip-rule="evenodd" d="M171.802 92.4102C171.976 92.3794 172.134 92.417 172.274 92.5264C171.662 92.5811 171.074 92.6974 170.506 92.8786C169.785 94.8687 169.002 96.8315 168.15 98.7669C167.989 99.2524 168.027 99.7243 168.266 100.179C168.03 100.374 167.794 100.572 167.559 100.767C167.863 101.099 168.136 101.451 168.383 101.827C168.971 104.853 169.798 107.798 170.855 110.66C170.821 110.841 170.742 110.998 170.619 111.132C172.749 115.867 174.753 120.696 176.627 125.616C180.457 132.175 183.91 138.928 186.991 145.873C187.186 146.225 187.463 146.502 187.815 146.697C187.566 147.025 187.528 147.378 187.699 147.757C188.366 148.014 188.403 148.287 187.815 148.581C188.267 148.927 188.424 149.316 188.287 149.757C189.494 150.127 189.494 150.438 188.287 150.701C189.71 151.265 191.122 151.857 192.527 152.469L192.763 152.233C192.011 151.618 192.011 151.149 192.763 150.821C193.085 151.204 193.44 151.597 193.823 151.997C193.991 151.772 194.189 151.734 194.411 151.881C194.069 152.144 193.676 152.302 193.235 152.353C193.905 152.927 194.61 153.437 195.355 153.885C185.008 149.675 174.408 146.222 163.558 143.52H163.322C160.35 139.845 157.054 136.466 153.429 133.392C152.681 132.742 151.819 132.271 150.838 131.98C150.684 127.9 150.605 123.818 150.602 119.731C159.913 112.742 166.468 103.715 170.27 92.6461C170.752 92.4273 171.262 92.3486 171.802 92.4102Z" fill="#0B1523"/>
<path fill-rule="evenodd" clip-rule="evenodd" d="M54.7379 117.847C55.4936 117.776 56.2014 117.854 56.8579 118.083C56.1467 118.046 55.4388 118.083 54.7379 118.2C55.7569 118.278 56.7793 118.357 57.7983 118.436C55.3226 118.771 52.8469 119.123 50.3781 119.496C49.5164 119.571 49.3967 119.373 50.0259 118.908C51.5475 118.33 53.117 117.977 54.7379 117.847Z" fill="#F6A26C"/>
<path fill-rule="evenodd" clip-rule="evenodd" d="M110.799 126.563C118.722 133.17 127.869 136.702 138.24 137.164C142.788 137.352 147.065 136.408 151.076 134.336C151.47 134.808 151.863 135.28 152.253 135.748C151.206 138.309 149.914 140.744 148.365 143.049C143.417 150.195 137.371 156.241 130.228 161.185C120.613 154.9 113.35 146.577 108.439 136.217C109.294 134.91 109.923 133.495 110.324 131.976C110.399 130.13 110.556 128.324 110.795 126.56L110.799 126.563Z" fill="#FECBA4"/>
<path fill-rule="evenodd" clip-rule="evenodd" d="M75.9391 127.976L76.411 128.448C76.3084 128.434 76.2298 128.471 76.175 128.564C76.3665 128.636 76.5238 128.755 76.6469 128.916C75.9528 129.111 75.245 129.227 74.5269 129.268C69.4148 129.487 64.313 129.408 59.2181 129.032C58.5786 128.687 58.4213 128.218 58.7462 127.62C64.4874 127.579 70.2184 127.459 75.9391 127.268C76.0759 127.439 76.0759 127.675 75.9391 127.976Z" fill="#F9A36C"/>
<path fill-rule="evenodd" clip-rule="evenodd" d="M110.799 118.791C123.861 127.849 137.132 128.164 150.604 119.735C150.608 123.818 150.687 127.9 150.84 131.983C151.035 132.753 151.114 133.536 151.076 134.339C147.065 136.411 142.784 137.355 138.24 137.167C127.869 136.709 118.722 133.177 110.799 126.567V118.794V118.791Z" fill="#ED9B6D"/>
<path fill-rule="evenodd" clip-rule="evenodd" d="M110.328 131.98C109.927 133.498 109.298 134.914 108.443 136.22C107.866 135.427 107.63 134.565 107.736 133.628C108.409 132.78 109.271 132.233 110.328 131.98Z" fill="#BFD0DD"/>
<path fill-rule="evenodd" clip-rule="evenodd" d="M150.842 131.98C151.82 132.274 152.685 132.742 153.434 133.392C153.041 134.178 152.647 134.961 152.257 135.748C151.864 135.276 151.471 134.804 151.081 134.336C151.119 133.536 151.04 132.749 150.845 131.98H150.842Z" fill="#BDCDD8"/>
<path fill-rule="evenodd" clip-rule="evenodd" d="M153.429 133.392C157.053 136.466 160.35 139.845 163.321 143.52C160.664 155.506 155.757 166.499 148.6 176.497C148.132 177.257 147.544 177.373 146.833 176.85C144.176 174.073 141.427 171.444 138.588 168.958C136.143 166.239 133.514 163.726 130.696 161.421C130.204 161.599 129.773 161.873 129.4 162.245C127.198 164.413 125.078 166.649 123.04 168.958C120.072 171.847 117.09 174.75 114.088 177.674C105.765 167.699 100.267 156.313 97.5996 143.52C100.667 139.903 104.045 136.603 107.728 133.628C107.619 134.562 107.854 135.427 108.436 136.22C113.346 146.581 120.606 154.904 130.224 161.189C137.368 156.244 143.413 150.199 148.361 143.052C149.907 140.744 151.203 138.309 152.249 135.751C152.642 134.965 153.035 134.182 153.425 133.396L153.429 133.392Z" fill="#FDFBF8"/>
<path fill-rule="evenodd" clip-rule="evenodd" d="M76.8793 137.868C76.3391 138.097 75.8672 138.412 75.4671 138.812C75.4466 139.048 75.5252 139.243 75.703 139.4C70.6012 140.166 65.4994 140.166 60.3942 139.4C59.8061 139.034 59.8061 138.641 60.3942 138.224C65.0276 138.145 69.6575 138.066 74.2908 137.988C75.0055 137.906 75.6347 137.629 76.1749 137.164C76.5784 137.252 76.8144 137.488 76.8828 137.871L76.8793 137.868Z" fill="#F8A36C"/>
<path fill-rule="evenodd" clip-rule="evenodd" d="M97.3719 143.521C97.3788 146.259 97.813 148.927 98.6679 151.529C101.564 161.558 106.194 170.667 112.564 178.85C112.968 179.332 113.436 179.725 113.977 180.026C114.155 179.879 114.349 179.76 114.565 179.674C117.67 176.61 120.73 173.509 123.749 170.37C124.587 171.652 125.374 172.986 126.105 174.374C124.789 197.13 123.684 226.934 122.642 249.718C110 249.718 98.1584 246.808 84.6482 242.681C78.0966 239.955 71.6578 236.97 65.3353 233.729C63.9265 216.006 62.6681 198.262 61.567 180.498H60.8592C60.9652 197.698 61.2764 214.891 61.803 232.08C57.9424 230.073 54.3281 227.717 50.9668 225.016C52.297 212.159 53.7126 199.285 55.2069 186.387C55.0325 186.226 54.8752 186.069 54.735 185.915C55.1283 185.716 55.4052 185.402 55.5591 184.971C56.137 180.286 56.8072 175.615 57.5629 170.955C57.5766 170.551 57.4193 170.237 57.091 170.011C55.9489 169.46 54.7726 169.029 53.5587 168.715C53.8802 167.969 54.0751 167.186 54.1469 166.359C55.3232 165.518 56.4618 164.656 57.5629 163.767C59.6864 162.741 61.2593 161.172 62.2749 159.055C65.4549 158.942 68.5153 158.275 71.4595 157.051C73.7642 155.701 74.7832 153.697 74.5199 151.043C82.0118 148.154 89.6269 145.641 97.3685 143.507L97.3719 143.521Z" fill="#D3DFE6"/>
<path fill-rule="evenodd" clip-rule="evenodd" d="M163.558 143.521C174.408 146.222 185.009 149.675 195.356 153.885C197.766 155.092 200.201 156.309 202.656 157.537C208.469 160.443 212.983 164.724 216.201 170.373C219.227 176.819 221.227 183.572 222.209 190.63C222.927 193.92 223.515 197.219 223.976 200.522C216.197 210.541 207.05 219.022 196.535 225.96C198.662 209.707 201.015 193.496 203.6 177.322C203.542 175.964 203.265 175.926 202.776 177.205C199.059 193.684 196.429 210.326 194.884 227.139C193.335 228.466 191.687 229.683 189.936 230.791C181.945 235.65 173.547 239.613 164.735 242.688C156.326 245.707 146.714 249.68 137.762 249.68C137.126 227.615 136.463 198.56 135.529 176.501C135.57 175.714 135.608 174.931 135.646 174.145C136.179 173.003 136.767 171.902 137.413 170.849C140.498 174.207 143.794 177.387 147.306 180.389C148.044 180.368 148.636 180.016 149.074 179.329C156.357 169.081 161.264 157.773 163.794 145.411C163.753 144.888 163.596 144.42 163.322 143.999C163.408 143.839 163.487 143.681 163.558 143.527V143.521Z" fill="#D3DFE6"/>
<path fill-rule="evenodd" clip-rule="evenodd" d="M75.2301 147.997C74.6864 148.383 74.2145 148.855 73.8179 149.409C70.1283 149.617 66.4387 149.734 62.7492 149.761C62.2944 149.703 61.8635 149.583 61.4532 149.409C61.3335 149.057 61.4532 148.783 61.8054 148.585C64.6333 148.506 67.4577 148.427 70.2856 148.349C71.5268 148.144 72.7442 147.867 73.9375 147.525C74.365 147.699 74.7958 147.856 75.2335 147.997H75.2301Z" fill="#F8A46D"/>
<path fill-rule="evenodd" clip-rule="evenodd" d="M62.278 159.065C61.2624 161.178 59.6929 162.751 57.566 163.777C57.4634 163.791 57.3848 163.753 57.3301 163.661C59.0774 162.385 60.4931 160.812 61.5702 158.949C61.8642 158.774 62.1002 158.816 62.278 159.065Z" fill="#F79B63"/>
<path fill-rule="evenodd" clip-rule="evenodd" d="M30.7134 162.365C30.6621 162.642 30.7408 162.878 30.9493 163.073C33.7362 164.512 36.6393 165.651 39.6655 166.489C44.1757 167.412 48.6928 168.318 53.2099 169.197C53.4526 169.118 53.5689 168.961 53.5621 168.725C54.776 169.04 55.9557 169.471 57.0943 170.021C57.4226 170.247 57.5799 170.561 57.5662 170.965C56.8105 175.622 56.1437 180.296 55.5624 184.981C55.4086 185.412 55.1316 185.723 54.7383 185.925H50.7342C41.9223 184.998 33.5208 182.642 25.533 178.86C24.4524 178.361 23.5086 177.694 22.7051 176.857C24.2985 171.915 25.9877 167.009 27.7693 162.136C28.1796 161.989 28.6104 161.91 29.0652 161.9C29.7012 161.855 30.2518 162.013 30.7134 162.372V162.365Z" fill="#512572"/>
<path fill-rule="evenodd" clip-rule="evenodd" d="M138.593 168.958C138.087 169.498 137.694 170.127 137.417 170.842C136.77 171.898 136.182 172.996 135.649 174.138C135.608 174.924 135.57 175.708 135.533 176.494C136.47 198.553 137.133 227.608 137.766 249.673C131.754 250.152 127.083 250.063 122.07 249.673C123.11 226.89 124.796 197.13 126.112 174.374C125.38 172.986 124.594 171.652 123.756 170.37C123.527 169.901 123.291 169.433 123.048 168.958C125.086 166.649 127.206 164.413 129.408 162.245C129.781 161.873 130.212 161.599 130.704 161.421C133.522 163.726 136.152 166.239 138.596 168.958H138.593Z" fill="#512572"/>
<path fill-rule="evenodd" clip-rule="evenodd" d="M97.3711 143.521H97.607C100.274 156.313 105.769 167.699 114.096 177.674C117.094 174.754 120.08 171.847 123.048 168.958C123.29 169.433 123.526 169.905 123.755 170.37C120.736 173.509 117.672 176.61 114.571 179.674C114.355 179.763 114.157 179.879 113.983 180.026C113.442 179.722 112.971 179.329 112.57 178.85C106.2 170.667 101.57 161.558 98.6739 151.529C97.819 148.927 97.3882 146.259 97.3779 143.521H97.3711Z" fill="#B3C8D6"/>
<path fill-rule="evenodd" clip-rule="evenodd" d="M163.321 143.521H163.557C163.485 143.674 163.407 143.832 163.321 143.992C163.595 144.413 163.752 144.885 163.793 145.405C161.263 157.769 156.352 169.074 149.072 179.322C148.635 180.009 148.047 180.362 147.305 180.382C143.793 177.38 140.496 174.2 137.412 170.842C137.689 170.127 138.082 169.498 138.588 168.958C141.427 171.444 144.176 174.073 146.833 176.85C147.54 177.373 148.132 177.257 148.601 176.498C155.757 166.499 160.668 155.509 163.321 143.521Z" fill="#B5C9D7"/>
<path fill-rule="evenodd" clip-rule="evenodd" d="M25.5326 178.853C33.5204 182.639 41.9219 184.991 50.7338 185.918C51.9477 186.113 53.2026 186.229 54.502 186.27C54.1327 186.345 53.8592 186.54 53.6779 186.858C52.0947 199.244 50.7235 211.646 49.5575 224.072C37.8938 215.117 27.9604 204.516 19.7605 192.275C19.6033 191.803 19.6033 191.331 19.7605 190.863C21.0668 186.674 22.438 182.512 23.881 178.378L25.2932 179.086C25.4368 179.055 25.5155 178.98 25.5291 178.85L25.5326 178.853Z" fill="#D3DFE6"/>
<path fill-rule="evenodd" clip-rule="evenodd" d="M196.535 225.96C196.053 226.442 195.502 226.835 194.887 227.136C196.429 210.322 199.062 193.68 202.779 177.202C203.268 175.923 203.545 175.964 203.603 177.318C201.018 193.492 198.662 209.707 196.538 225.956L196.535 225.96Z" fill="#B1C6D4"/>
<path fill-rule="evenodd" clip-rule="evenodd" d="M65.3374 233.732C64.1303 233.246 62.954 232.696 61.8051 232.084C61.2819 214.894 60.9673 197.698 60.8613 180.502H61.5692C62.6702 198.269 63.9286 216.013 65.3374 233.732Z" fill="#B3C7D5"/>
<path fill-rule="evenodd" clip-rule="evenodd" d="M50.7329 185.918H54.7371C54.8773 186.072 55.0346 186.229 55.209 186.39C53.7147 199.285 52.3024 212.162 50.9689 225.019C50.432 224.797 49.9636 224.482 49.5566 224.075C50.7227 211.649 52.0973 199.243 53.6771 186.862C53.8583 186.544 54.1353 186.349 54.5011 186.274C53.2018 186.233 51.9468 186.116 50.7329 185.921V185.918Z" fill="#B1C6D4"/>
</g>
<defs>
<clipPath id="clip0_3349_15078">
<rect width="250" height="250" fill="white"/>
</clipPath>
</defs>
</svg>
