<svg width="250" height="250" viewBox="0 0 250 250" fill="none" xmlns="http://www.w3.org/2000/svg">
<path fill-rule="evenodd" clip-rule="evenodd" d="M109.807 8.92871C121.443 8.92871 133.079 8.92871 144.716 8.92871C157.39 11.0144 167.326 17.3614 174.524 27.9698C175.305 29.3062 176.023 30.6662 176.677 32.05C178.588 35.8967 180.137 39.9015 181.324 44.064C182.489 48.8929 183.585 53.5777 184.611 58.1181C185.916 64.8636 187.087 71.664 188.125 78.5192C188.696 81.5608 189.339 84.5831 190.051 87.5864C189.799 87.9141 189.761 88.292 189.938 88.7198C191.789 95.5958 194.245 102.245 197.305 108.668C198.211 110.323 199.194 111.91 200.252 113.428C204.847 119.964 209.72 126.311 214.873 132.469C218.186 136.901 220.982 141.661 223.26 146.75C228.348 159.274 228.196 171.742 222.807 184.152C221.665 186.593 220.191 188.784 218.386 190.725C218.103 188.497 217.65 186.306 217.026 184.152C219.815 171.24 218.417 158.697 212.833 146.523C209.073 138.471 203.936 131.444 197.419 125.442C197.381 125.517 197.343 125.593 197.305 125.668C206.283 138.358 210.892 152.374 211.133 167.717C210.925 167.802 210.736 167.916 210.566 168.057C210.117 167.514 209.626 167.06 209.092 166.697C207.811 165.717 206.602 164.66 205.466 163.524C202.188 161.054 198.637 158.976 194.812 157.29C191.815 155.981 188.793 154.734 185.745 153.55C185.607 153.578 185.531 153.654 185.518 153.777C185.293 153.816 185.142 153.74 185.064 153.55C185.213 153.223 185.289 152.845 185.291 152.417C184.453 147.779 183.433 143.169 182.231 138.589C179.943 132.804 177.526 127.061 174.977 121.362C172.315 114.113 170.766 106.632 170.33 98.9203C170.406 98.3158 170.482 97.7114 170.557 97.1069C171.504 96.8231 172.335 96.3697 173.051 95.7468C178.752 91.0636 181.284 85.019 180.644 77.6125C180.277 76.2753 179.786 74.9907 179.171 73.7589C178.312 72.3005 177.028 71.4693 175.317 71.2655C176.114 68.0933 175.132 65.7132 172.37 64.1251C171.602 63.5899 170.771 63.1744 169.877 62.8783C169.744 62.9257 169.631 63.0014 169.537 63.105C169.474 62.8974 169.361 62.7464 169.197 62.6517C160.834 58.478 152.976 53.529 145.622 47.8042C141.874 44.7359 138.511 41.2978 135.535 37.4903C131.84 32.5251 130.103 26.9337 130.321 20.716C129.094 33.2947 123.313 43.1174 112.981 50.1843C108.946 48.1943 104.715 46.9854 100.287 46.5574C101.203 46.6803 102.034 46.4915 102.78 45.9907C109.902 41.1362 115.984 35.2047 121.028 28.1964C121.374 27.5666 121.676 26.9622 121.934 26.383C115.146 33.8172 107.779 40.5421 99.8331 46.5574C86.8644 46.5595 77.306 52.2265 71.1582 63.5584C67.3299 72.0722 67.1032 80.686 70.4782 89.3998C72.5319 93.871 75.4411 97.6867 79.2054 100.847C80.7964 101.986 82.3832 103.12 83.9656 104.247C82.5233 107.397 81.0498 110.532 79.5454 113.654C78.9784 113.9 78.5629 114.127 78.2986 114.335C73.9332 115.454 69.6263 116.852 65.3779 118.528C63.326 119.419 61.8526 120.892 60.9577 122.948C59.2331 126.094 57.7597 129.344 56.5374 132.696C54.3638 138.31 52.3237 143.977 50.4171 149.696C49.2921 152.402 48.1587 155.122 47.0169 157.857C45.4175 157.374 43.8307 156.845 42.2567 156.27C41.9101 156.277 41.6455 156.428 41.4633 156.723C39.4576 160.584 37.4551 164.438 35.4563 168.284C35.6338 168.689 35.9359 168.916 36.363 168.964C34.6366 172.496 32.7477 175.896 30.696 179.165C28.9264 172.23 28.8886 165.279 30.5827 158.31C32.4841 151.093 35.3554 144.292 39.1965 137.909C43.4209 131.159 47.7656 124.51 52.2305 117.961C54.855 113.921 57.0085 109.614 58.6909 105.041C60.4404 100.095 61.9138 95.0702 63.1111 89.9665C63.1048 89.7239 63.0293 89.5351 62.8845 89.3998C64.3463 81.9858 65.7064 74.5811 66.9647 67.1852C67.7825 64.1734 68.5759 60.8489 69.3448 57.2114C70.7223 52.0209 72.4603 46.9584 74.5584 42.0239C76.3576 38.4999 78.2089 35.0242 80.1121 31.5966C87.135 20.266 97.0332 12.71 109.807 8.92871Z" fill="#0A1529"/>
<path fill-rule="evenodd" clip-rule="evenodd" d="M100.06 21.8496C100.854 21.7742 101.383 22.1142 101.647 22.8697C101.015 23.8674 100.411 24.8874 99.8332 25.9299C103.981 26.7791 104.51 28.6303 101.42 31.4835C102.849 31.3873 104.285 31.3873 105.727 31.4835C106.374 32.2995 106.223 32.9796 105.273 33.5236C102.842 35.0192 100.197 35.6993 97.3397 35.5637C96.168 34.2988 96.1302 32.9764 97.2264 31.5968C97.9651 31.0177 98.4942 30.3377 98.8131 29.5567C97.2604 30.2298 95.6358 30.4943 93.9395 30.3501C92.9109 29.9618 92.5708 29.244 92.9195 28.1966C94.4886 25.1535 96.8687 23.0378 100.06 21.8496Z" fill="#21314D"/>
<path fill-rule="evenodd" clip-rule="evenodd" d="M154.461 26.6095C155.284 26.5325 156.04 26.7214 156.728 27.1762C158.197 28.0825 159.519 29.1781 160.695 30.463C161.485 31.4554 161.448 32.4 160.582 33.2965C158.102 33.8798 155.948 33.3131 154.121 31.5964C154.042 30.5346 153.929 29.4768 153.781 28.4229C153.886 27.7617 154.113 27.1572 154.461 26.6095Z" fill="#21314D"/>
<path fill-rule="evenodd" clip-rule="evenodd" d="M139.955 22.5293C143.453 27.0478 147.458 31.0902 151.969 34.6566C157.852 39.2618 164.048 43.4178 170.557 47.124C160.093 43.7977 151.291 37.9419 144.149 29.5563C142.517 27.3514 141.12 25.0091 139.955 22.5293Z" fill="#22314E"/>
<path fill-rule="evenodd" clip-rule="evenodd" d="M100.285 46.5573C100.134 46.5573 99.9832 46.5573 99.832 46.5573C107.778 40.5419 115.145 33.817 121.933 26.3828C121.675 26.962 121.373 27.5664 121.027 28.1962C115.983 35.2045 109.9 41.136 102.779 45.9906C102.033 46.4913 101.202 46.6801 100.285 46.5573Z" fill="#22324F"/>
<path fill-rule="evenodd" clip-rule="evenodd" d="M176.676 32.0498C177.639 33.4468 178.433 34.9581 179.056 36.5834C181.784 43.5347 183.635 50.713 184.61 58.1179C183.583 53.5775 182.487 48.8927 181.323 44.0638C180.135 39.9013 178.586 35.8965 176.676 32.0498Z" fill="#101116"/>
<path fill-rule="evenodd" clip-rule="evenodd" d="M99.8324 46.5576C99.9836 46.5576 100.135 46.5576 100.286 46.5576C104.714 46.9856 108.945 48.1945 112.98 50.1845C125.826 58.0663 130.851 69.4758 128.054 84.413C125.388 94.1809 119.457 101.17 110.26 105.381C105.733 107.093 101.049 107.848 96.2055 107.648C96.9205 108.964 97.6005 110.287 98.2456 111.615C97.9532 111.488 97.7644 111.261 97.6789 110.934C97.6034 111.01 97.5277 111.086 97.4522 111.161C96.9581 109.872 96.4669 108.587 95.9788 107.308C94.4292 107.326 92.918 107.1 91.4452 106.628C90.4791 108.959 89.5346 111.301 88.6118 113.655C87.9805 115.031 87.2626 116.353 86.4583 117.622C86.7582 117.806 86.9092 118.071 86.9117 118.415C85.7486 117.365 84.6152 116.27 83.5115 115.128C81.8907 114.113 80.1528 113.848 78.2979 114.335C78.5622 114.127 78.9777 113.9 79.5446 113.655C81.0491 110.533 82.5225 107.397 83.9648 104.247C82.3824 103.12 80.7956 101.987 79.2046 100.847C75.4403 97.6869 72.5311 93.8712 70.4774 89.4C67.1024 80.6862 67.3291 72.0724 71.1575 63.5585C77.3052 52.2266 86.8636 46.5597 99.8324 46.5576Z" fill="#030505"/>
<path fill-rule="evenodd" clip-rule="evenodd" d="M80.1122 31.5967C78.209 35.0243 76.3577 38.5 74.5586 42.0239C72.4605 46.9585 70.7225 52.0209 69.345 57.2114C68.5761 60.8489 67.7827 64.1734 66.9648 67.1853C67.5819 63.13 68.4507 59.1253 69.5717 55.1713C71.8067 46.6999 75.3202 38.8418 80.1122 31.5967Z" fill="#0E1016"/>
<path fill-rule="evenodd" clip-rule="evenodd" d="M112.753 56.7582C112.654 56.7435 112.578 56.7811 112.526 56.8715C113.786 57.9152 114.39 59.2374 114.34 60.8384C103.347 53.6246 92.8821 54.3046 82.9447 62.8785C81.2505 65.2389 80.2683 67.8836 79.9979 70.8123C79.3446 76.5332 79.6468 82.2002 80.9046 87.8132C81.5974 90.3106 82.6174 92.6528 83.9648 94.8403C83.8492 95.5292 83.698 96.2092 83.5114 96.8804C78.2178 92.7956 75.0064 87.431 73.8776 80.7862C72.8281 70.004 76.7949 61.6545 85.7782 55.7381C92.7681 52.0594 100.022 51.4548 107.539 53.9247C109.368 54.7398 111.105 55.6842 112.753 56.7582Z" fill="#31596D"/>
<path fill-rule="evenodd" clip-rule="evenodd" d="M114.339 60.8383C118.204 63.8831 120.282 67.8876 120.573 72.8523C121.398 79.8291 119.811 86.1761 115.812 91.8934C108.543 99.7462 99.8157 101.975 89.631 98.5804C87.3993 97.8167 85.5104 96.57 83.964 94.8402C82.6166 92.6527 81.5966 90.3105 80.9038 87.8131C79.646 82.2001 79.3438 76.5331 79.9971 70.8122C80.2675 67.8835 81.2497 65.2389 82.9439 62.8784C92.8813 54.3045 103.346 53.6245 114.339 60.8383Z" fill="#F2D1B1"/>
<path fill-rule="evenodd" clip-rule="evenodd" d="M96.6579 57.8916C101.95 57.2893 106.634 58.6494 110.712 61.9718C111.246 62.5435 111.737 63.1478 112.185 63.7852C112.546 64.2726 112.697 64.8014 112.639 65.372C108.474 63.0773 104.016 61.7927 99.2647 61.5184C94.3181 61.8827 89.86 63.5449 85.8906 66.5054C86.1191 64.3039 87.1392 62.5283 88.9508 61.1784C91.2944 59.5144 93.8636 58.4188 96.6579 57.8916Z" fill="#1C3D4F"/>
<path fill-rule="evenodd" clip-rule="evenodd" d="M169.195 62.6519C169.359 62.7466 169.472 62.8976 169.535 63.1052C169.629 63.0016 169.743 62.9259 169.875 62.8785C170.77 63.1746 171.601 63.5901 172.369 64.1253C175.13 65.7134 176.113 68.0935 175.316 71.2657C177.026 71.4694 178.311 72.3007 179.169 73.7591C175.788 70.5988 173.144 71.1278 171.235 75.3459C171.037 75.3162 170.886 75.3917 170.782 75.5726C170.269 76.6967 169.778 77.8301 169.309 78.9727C169.271 78.7839 169.233 78.5949 169.195 78.406C169.534 75.6227 169.685 72.827 169.649 70.0189C169.652 68.0747 169.577 66.2989 169.422 64.692C169.201 64.0602 169.125 63.3802 169.195 62.6519Z" fill="#0A1222"/>
<path fill-rule="evenodd" clip-rule="evenodd" d="M171.236 75.3458C170.452 77.0266 169.697 78.7267 168.969 80.4461C168.89 80.731 168.738 80.8067 168.516 80.6728C168.978 78.3255 169.242 75.9454 169.309 73.5324C169.422 70.5865 169.46 67.6396 169.422 64.6919C169.577 66.2988 169.652 68.0746 169.649 70.0189C169.686 72.827 169.535 75.6226 169.196 78.406C169.234 78.5948 169.271 78.7839 169.309 78.9727C169.778 77.83 170.269 76.6966 170.782 75.5725C170.886 75.3916 171.037 75.3161 171.236 75.3458Z" fill="#0F0C0F"/>
<path fill-rule="evenodd" clip-rule="evenodd" d="M110.487 74.8924C107.297 70.1534 103.066 68.9822 97.7925 71.3788C95.1698 72.7548 93.2052 74.757 91.8988 77.3858C91.5196 77.5769 91.2551 77.8791 91.1055 78.2925C91.7207 73.2489 94.4787 70.0376 99.3793 68.6587C104.948 67.7023 108.877 69.7803 111.167 74.8924C110.957 75.1331 110.73 75.1331 110.487 74.8924Z" fill="#264D63"/>
<path fill-rule="evenodd" clip-rule="evenodd" d="M110.486 74.8924C111.855 79.0846 110.948 82.6736 107.766 85.6596C102.554 88.3725 97.9066 87.5791 93.8255 83.2795C92.5261 81.5347 91.8837 79.5701 91.8987 77.3858C93.205 74.757 95.1697 72.7548 97.7923 71.3788C103.065 68.9822 107.297 70.1534 110.486 74.8924Z" fill="#DFEEF3"/>
<path fill-rule="evenodd" clip-rule="evenodd" d="M102.327 72.1724C105.88 72.285 108.033 74.0985 108.787 77.6127C109.075 80.2263 108.281 82.4552 106.407 84.2997C101.947 86.2825 99.1137 84.8845 97.9066 80.1061C97.2678 76.2428 98.7412 73.5984 102.327 72.1724Z" fill="#1B4253"/>
<path fill-rule="evenodd" clip-rule="evenodd" d="M112.753 56.758C121.048 63.0064 124.411 71.3178 122.841 81.6927C120.279 93.0192 113.29 99.7062 101.873 101.754C95.0626 102.564 88.9423 100.94 83.5117 96.8802C83.6983 96.209 83.8495 95.529 83.9651 94.8401C85.5115 96.5699 87.4004 97.8166 89.6321 98.5803C99.8167 101.975 108.544 99.7461 115.813 91.8933C119.812 86.176 121.399 79.8289 120.574 72.8522C120.283 67.8875 118.205 63.883 114.34 60.8382C114.39 59.2372 113.786 57.915 112.527 56.8713C112.578 56.7809 112.654 56.7433 112.753 56.758Z" fill="#9CC2CE"/>
<path fill-rule="evenodd" clip-rule="evenodd" d="M62.8844 89.3999C63.0292 89.5352 63.1047 89.7241 63.1111 89.9666C61.9137 95.0703 60.4403 100.095 58.6908 105.041C57.0084 109.614 54.855 113.921 52.2305 117.961C57.2997 109.028 60.8508 99.5071 62.8844 89.3999Z" fill="#0D0F15"/>
<path fill-rule="evenodd" clip-rule="evenodd" d="M190.051 87.5864C192.208 96.7057 195.608 105.32 200.251 113.428C199.193 111.91 198.211 110.323 197.304 108.668C194.244 102.245 191.789 95.5959 189.937 88.7198C189.761 88.2921 189.798 87.9142 190.051 87.5864Z" fill="#0F1016"/>
<path fill-rule="evenodd" clip-rule="evenodd" d="M173.05 95.7466C172.335 96.3695 171.503 96.8229 170.556 97.1067C170.481 97.7112 170.405 98.3155 170.33 98.9201C170.765 106.632 172.314 114.112 174.977 121.361C177.525 127.061 179.943 132.803 182.23 138.589C183.432 143.169 184.452 147.778 185.29 152.416C185.288 152.845 185.213 153.223 185.064 153.55C177.101 150.845 169.092 148.276 161.036 145.843C160.958 145.653 160.807 145.577 160.582 145.616C157.415 142.524 154.242 139.426 151.062 136.322C150.353 136 149.598 135.774 148.795 135.642C148.236 131.767 148.009 127.838 148.115 123.855C157.51 117.323 163.63 108.483 166.476 97.3333C168.82 97.4079 171.011 96.8791 173.05 95.7466Z" fill="#091122"/>
<path fill-rule="evenodd" clip-rule="evenodd" d="M98.246 111.614C101.032 115.987 104.583 119.614 108.9 122.495C108.9 124.686 108.9 126.877 108.9 129.069C108.749 131.26 108.598 133.451 108.447 135.642C107.612 135.605 106.781 135.643 105.953 135.756C105.598 135.894 105.296 136.083 105.046 136.322C101.955 139.49 98.8567 142.663 95.7525 145.843C95.5277 145.804 95.3767 145.88 95.2992 146.07C89.9895 147.586 84.7001 149.173 79.4316 150.83C81.5259 147.625 83.566 144.376 85.552 141.083C88.9204 137.904 91.8294 134.352 94.2791 130.429C95.5064 128.638 96.0352 126.674 95.8659 124.535C95.7757 123.916 95.4356 123.5 94.8458 123.288C92.9857 122.939 91.3989 123.43 90.0856 124.762C89.9305 124.061 89.7038 123.381 89.4055 122.722C88.665 121.227 87.8337 119.792 86.9121 118.415C86.9096 118.071 86.7586 117.806 86.4587 117.621C87.263 116.353 87.9808 115.031 88.6121 113.654C89.535 111.301 90.4795 108.959 91.4456 106.627C92.9184 107.1 94.4296 107.326 95.9792 107.307C96.4673 108.587 96.9585 109.872 97.4526 111.161C97.5281 111.086 97.6038 111.01 97.6793 110.934C97.7648 111.261 97.9536 111.488 98.246 111.614Z" fill="#091122"/>
<path fill-rule="evenodd" clip-rule="evenodd" d="M169.196 62.6515C169.125 63.3798 169.201 64.0598 169.422 64.6916C169.46 67.6393 169.422 70.5861 169.309 73.5321C169.242 75.9451 168.978 78.3252 168.516 80.6724C168.739 80.8064 168.89 80.7307 168.969 80.4458C169.697 78.7264 170.452 77.0263 171.236 75.3455C173.144 71.1274 175.789 70.5984 179.17 73.7587C179.785 74.9905 180.276 76.2751 180.643 77.6123C181.283 85.0188 178.751 91.0634 173.049 95.7466C171.01 96.8791 168.819 97.4079 166.476 97.3334C163.629 108.483 157.509 117.324 148.115 123.855C137.318 131.513 126.06 132.231 114.339 126.008C112.481 124.891 110.668 123.72 108.899 122.495C104.582 119.613 101.031 115.987 98.2452 111.614C97.6001 110.286 96.92 108.964 96.2051 107.647C101.048 107.848 105.733 107.093 110.259 105.38C119.456 101.17 125.388 94.1805 128.053 84.4127C130.85 69.4754 125.826 58.066 112.979 50.1841C123.312 43.1172 129.092 33.2945 130.32 20.7158C130.101 26.9335 131.839 32.5249 135.534 37.4901C138.51 41.2976 141.873 44.7356 145.621 47.804C152.975 53.5288 160.833 58.4778 169.196 62.6515Z" fill="#F9CEAA"/>
<path fill-rule="evenodd" clip-rule="evenodd" d="M141.541 105.721C141.768 105.721 141.994 105.721 142.221 105.721C142.21 106.498 141.946 107.178 141.427 107.761C137.506 111.713 132.784 113.261 127.26 112.408C123.774 111.536 121.054 109.609 119.1 106.627C119.147 106.495 119.223 106.381 119.326 106.287C124.901 107.871 130.568 108.174 136.327 107.194C138.137 106.857 139.875 106.366 141.541 105.721Z" fill="#D33427"/>
<path fill-rule="evenodd" clip-rule="evenodd" d="M132.927 79.6523C133.156 83.1047 133.496 86.5803 133.947 90.0796C134.464 90.9743 135.069 91.8053 135.761 92.5731C136.403 93.5917 136.479 94.6497 135.988 95.7466C135.046 98.2008 133.27 99.2964 130.661 99.0334C130.252 98.889 129.95 98.6247 129.754 98.24C131.275 97.915 132.522 97.1595 133.494 95.9732C133.691 95.5015 133.804 95.0105 133.834 94.4998C133.184 93.3118 132.618 92.0651 132.134 90.7596C131.983 88.115 131.983 85.4705 132.134 82.8259C132.356 81.7523 132.62 80.6946 132.927 79.6523Z" fill="#E58D5F"/>
<path fill-rule="evenodd" clip-rule="evenodd" d="M173.277 78.2926C174.277 78.0927 175.07 78.3951 175.657 79.1993C176.844 83.7991 175.447 87.3881 171.464 89.9666C170.805 90.2653 170.125 90.341 169.424 90.1932C169.291 87.1319 169.556 84.0718 170.217 81.0127C171.281 80.1366 172.301 79.2299 173.277 78.2926Z" fill="#EB9A6F"/>
<path fill-rule="evenodd" clip-rule="evenodd" d="M160.13 75.7992C159.962 75.7695 159.811 75.8074 159.677 75.9126C160.132 80.7556 157.94 83.7024 153.103 84.753C147.452 86.2385 144.052 84.1607 142.902 78.5194C143.063 77.7716 143.139 77.0158 143.129 76.2526C146.677 71.9362 151.059 70.8406 156.276 72.9657C157.794 73.6168 159.078 74.5613 160.13 75.7992Z" fill="#F5F6F5"/>
<path fill-rule="evenodd" clip-rule="evenodd" d="M148.794 73.079C152.03 72.6474 154.108 74.0074 155.028 77.1592C155.725 80.4098 154.63 82.7899 151.741 84.2996C148.598 84.7085 146.596 83.3861 145.734 80.3327C145.089 77.1692 146.109 74.7512 148.794 73.079Z" fill="#030505"/>
<path fill-rule="evenodd" clip-rule="evenodd" d="M160.128 75.7989C159.076 74.561 157.792 73.6164 156.275 72.9654C151.057 70.8403 146.675 71.9358 143.127 76.2522C142.932 76.4705 142.78 76.4705 142.674 76.2522C146.547 70.1883 151.76 68.6394 158.315 71.6053C160.024 72.9273 161.044 74.6274 161.375 76.7056C161.05 76.2661 160.635 75.9639 160.128 75.7989Z" fill="#090808"/>
<path fill-rule="evenodd" clip-rule="evenodd" d="M149.249 58.1181C153.544 57.8887 157.549 58.833 161.263 60.9516C162.683 61.9179 163.779 63.1647 164.55 64.6918C164.701 64.9185 164.701 65.1452 164.55 65.3718C159.722 62.6447 154.546 61.6246 149.022 62.3117C146.229 62.8403 143.434 63.3313 140.635 63.7851C140.555 63.0905 140.743 62.486 141.202 61.9716C143.471 59.7978 146.154 58.5134 149.249 58.1181Z" fill="#0D1423"/>
<path fill-rule="evenodd" clip-rule="evenodd" d="M108.9 122.495C110.669 123.72 112.482 124.892 114.341 126.009C126.061 132.232 137.319 131.514 148.116 123.855C148.01 127.838 148.237 131.767 148.796 135.643C148.898 136.858 149.049 138.067 149.249 139.269C149.249 139.421 149.249 139.572 149.249 139.723C140.716 142.906 132.253 142.717 123.861 139.156C118.21 136.748 113.223 133.386 108.9 129.069C108.9 126.878 108.9 124.686 108.9 122.495Z" fill="#EA996E"/>
<path fill-rule="evenodd" clip-rule="evenodd" d="M217.026 184.152C215.777 177.653 213.132 171.835 209.092 166.697C209.625 167.06 210.117 167.514 210.565 168.058C210.735 167.916 210.924 167.802 211.132 167.718C210.892 152.374 206.283 138.358 197.305 125.669C197.343 125.593 197.38 125.517 197.418 125.442C203.935 131.444 209.073 138.471 212.832 146.523C218.416 158.697 219.814 171.24 217.026 184.152Z" fill="#081121"/>
<path fill-rule="evenodd" clip-rule="evenodd" d="M85.5508 141.082C86.2818 139.988 86.773 138.779 87.0242 137.456C87.0992 135.865 87.0992 134.278 87.0242 132.695C89.1087 130.49 90.1288 127.845 90.0844 124.762C91.3977 123.43 92.9845 122.939 94.8446 123.288C95.4344 123.5 95.7745 123.916 95.8647 124.535C96.034 126.674 95.5052 128.638 94.2779 130.428C91.8282 134.352 88.9192 137.903 85.5508 141.082Z" fill="#F9CFAC"/>
<path fill-rule="evenodd" clip-rule="evenodd" d="M86.9111 118.415C87.8328 119.792 88.6641 121.227 89.4046 122.722C89.6574 125.944 88.7883 128.816 86.7978 131.336C86.198 129.158 85.2913 127.118 84.0777 125.215C83.1485 124.392 82.1284 123.712 81.0175 123.175C80.9903 122.929 80.8391 122.778 80.5641 122.722C80.2583 122.8 79.956 122.876 79.6574 122.948C76.1972 123.166 72.7215 123.355 69.2302 123.515C69.047 123.585 68.8958 123.698 68.7768 123.855C72.3987 124.173 76.0256 124.438 79.6574 124.649C81.9113 124.962 83.5359 126.133 84.531 128.162C86.1534 131.434 86.531 134.834 85.6644 138.363C85.4262 139.147 84.9728 139.751 84.3043 140.176C84.1547 136.102 82.1522 133.495 78.2973 132.356C75.2349 131.593 72.1371 131.027 69.0035 130.656C68.7013 130.731 68.3989 130.807 68.0968 130.882C68.3867 131.255 68.7644 131.52 69.2302 131.676C73.0409 132.439 76.8189 133.346 80.5641 134.396C81.5939 135.435 82.2361 136.682 82.4909 138.136C82.6421 139.798 82.6421 141.461 82.4909 143.123C82.0815 144.546 81.326 145.755 80.2241 146.75C79.9435 144.657 78.9234 143.032 77.1639 141.876C74.5066 140.846 71.7864 140.015 69.0035 139.383C68.4985 139.197 68.0451 139.272 67.6434 139.609C68.6311 140.254 69.6887 140.783 70.8169 141.196C73.1683 141.804 75.4351 142.635 77.6173 143.69C78.9019 144.895 79.3176 146.369 78.864 148.11C78.6308 151.934 76.6283 153.672 72.857 153.323C73.2889 152.195 73.8179 151.099 74.4438 150.037C72.4529 149.048 70.3373 148.557 68.0968 148.563C67.1477 152.65 65.6364 156.504 63.5632 160.124C62.5053 161.257 61.4476 162.391 60.3897 163.524C55.8926 161.69 51.4345 159.801 47.0156 157.857C48.1574 155.123 49.2908 152.402 50.4158 149.697C50.7669 149.455 51.0312 149.002 51.2092 148.336C52.8964 143.301 54.7098 138.314 56.6495 133.376C56.8172 133.093 56.7794 132.866 56.5361 132.696C57.7584 129.344 59.2318 126.095 60.9564 122.948C61.8513 120.892 63.3247 119.419 65.3766 118.528C69.6251 116.852 73.932 115.454 78.2973 114.335C80.1523 113.848 81.8902 114.112 83.511 115.128C84.6147 116.27 85.7481 117.365 86.9111 118.415Z" fill="#F9CEAB"/>
<path fill-rule="evenodd" clip-rule="evenodd" d="M81.0183 123.175C81.0047 123.298 80.9292 123.374 80.7916 123.402C80.3754 123.282 79.9975 123.131 79.6582 122.948C79.9567 122.876 80.2591 122.8 80.5649 122.722C80.8399 122.778 80.9911 122.929 81.0183 123.175Z" fill="#0D0A0B"/>
<path fill-rule="evenodd" clip-rule="evenodd" d="M108.447 135.642C107.999 137.435 107.621 139.248 107.314 141.083C106.26 139.654 105.504 138.067 105.047 136.322C105.296 136.083 105.599 135.894 105.954 135.756C106.781 135.643 107.612 135.605 108.447 135.642Z" fill="#CADCE6"/>
<path fill-rule="evenodd" clip-rule="evenodd" d="M148.795 135.643C149.598 135.774 150.353 136.001 151.062 136.323C150.51 137.328 150.019 138.386 149.588 139.496C149.501 139.37 149.388 139.295 149.248 139.269C149.048 138.067 148.897 136.858 148.795 135.643Z" fill="#C7DAE3"/>
<path fill-rule="evenodd" clip-rule="evenodd" d="M105.046 136.322C105.503 138.067 106.259 139.654 107.313 141.083C109.383 145.828 112.141 150.135 115.586 154.003C119.631 158.014 123.901 161.716 128.394 165.111C126.284 166.993 124.168 168.882 122.047 170.777C118.323 173.857 114.696 177.069 111.166 180.411C111.015 180.563 110.864 180.563 110.713 180.411C105.02 172.339 100.751 163.536 97.9054 154.003C97.0438 151.312 96.3261 148.592 95.752 145.843C98.8561 142.663 101.954 139.49 105.046 136.322Z" fill="#FCF9F6"/>
<path fill-rule="evenodd" clip-rule="evenodd" d="M151.062 136.322C154.242 139.426 157.415 142.524 160.583 145.616C157.779 158.022 152.981 169.582 146.189 180.298C146.038 180.449 145.887 180.6 145.735 180.751C143.053 178.22 140.371 175.689 137.688 173.158C136.885 172.466 136.054 171.824 135.195 171.231C133.047 169.138 130.855 167.098 128.621 165.111C130.83 163.134 133.096 161.207 135.421 159.33C141.352 154.075 145.924 147.841 149.136 140.629C149.247 140.336 149.284 140.034 149.249 139.722C149.249 139.571 149.249 139.42 149.249 139.269C149.389 139.294 149.502 139.37 149.589 139.496C150.019 138.386 150.51 137.328 151.062 136.322Z" fill="#FCF9F6"/>
<path fill-rule="evenodd" clip-rule="evenodd" d="M56.5364 132.695C56.7796 132.866 56.8174 133.092 56.6497 133.375C54.71 138.313 52.8966 143.3 51.2094 148.336C51.0314 149.002 50.7671 149.455 50.416 149.696C52.3226 143.976 54.3627 138.309 56.5364 132.695Z" fill="#F0E3BF"/>
<path fill-rule="evenodd" clip-rule="evenodd" d="M72.8583 153.323C72.0527 154.857 71.1838 156.369 70.2515 157.857C68.4691 159.849 66.2399 160.605 63.5645 160.124C65.6377 156.504 67.1489 152.65 68.098 148.563C70.3385 148.557 72.4541 149.048 74.445 150.036C73.8192 151.099 73.2901 152.195 72.8583 153.323Z" fill="#060606"/>
<path fill-rule="evenodd" clip-rule="evenodd" d="M89.4056 122.722C89.7039 123.381 89.9305 124.061 90.0856 124.762C90.13 127.846 89.11 130.49 87.0254 132.696C87.1005 134.278 87.1005 135.865 87.0254 137.456C86.7743 138.779 86.283 139.989 85.552 141.083C83.5661 144.376 81.526 147.625 79.4317 150.83C77.9492 153.713 75.9846 156.245 73.538 158.424C70.6039 160.87 67.5816 163.174 64.4708 165.337C63.0367 164.861 61.6766 164.256 60.3906 163.524C61.4485 162.391 62.5062 161.257 63.5641 160.124C66.2396 160.605 68.4688 159.849 70.2512 157.857C71.1835 156.369 72.0524 154.857 72.858 153.323C76.6292 153.672 78.6317 151.934 78.865 148.11C79.3186 146.369 78.9028 144.895 77.6182 143.689C75.436 142.635 73.1692 141.804 70.8179 141.196C69.6897 140.783 68.632 140.254 67.6444 139.609C68.046 139.272 68.4994 139.197 69.0044 139.383C71.7874 140.015 74.5075 140.846 77.1649 141.876C78.9244 143.032 79.9444 144.657 80.225 146.75C81.3269 145.755 82.0825 144.545 82.4918 143.123C82.643 141.461 82.643 139.798 82.4918 138.136C82.2371 136.682 81.5949 135.435 80.5651 134.396C76.8199 133.346 73.0418 132.439 69.2311 131.676C68.7653 131.52 68.3876 131.255 68.0977 130.882C68.3999 130.807 68.7023 130.731 69.0044 130.655C72.138 131.027 75.2358 131.593 78.2983 132.356C82.1532 133.495 84.1557 136.102 84.3053 140.176C84.9737 139.751 85.4271 139.147 85.6653 138.363C86.5319 134.834 86.1543 131.434 84.5319 128.162C83.5368 126.133 81.9122 124.962 79.6583 124.648C76.0265 124.438 72.3996 124.173 68.7778 123.855C68.8968 123.698 69.048 123.585 69.2311 123.515C72.7224 123.355 76.1981 123.166 79.6583 122.948C79.9977 123.131 80.3756 123.282 80.7917 123.402C80.9293 123.374 81.0048 123.298 81.0184 123.175C82.1294 123.712 83.1494 124.392 84.0786 125.215C85.2922 127.118 86.1989 129.158 86.7987 131.335C88.7892 128.816 89.6583 125.944 89.4056 122.722Z" fill="#E99568"/>
<path fill-rule="evenodd" clip-rule="evenodd" d="M108.899 129.069C113.222 133.386 118.209 136.748 123.86 139.156C132.252 142.717 140.715 142.906 149.248 139.723C149.284 140.034 149.246 140.336 149.135 140.629C145.923 147.842 141.351 154.075 135.421 159.331C133.096 161.208 130.829 163.134 128.62 165.111C128.545 165.111 128.469 165.111 128.394 165.111C123.9 161.716 119.631 158.014 115.586 154.004C112.141 150.135 109.383 145.828 107.312 141.083C107.62 139.249 107.998 137.435 108.446 135.643C108.597 133.451 108.748 131.26 108.899 129.069Z" fill="#F9CEAA"/>
<path fill-rule="evenodd" clip-rule="evenodd" d="M160.582 145.616C160.807 145.577 160.958 145.653 161.035 145.843C158.833 157.321 155.017 168.277 149.588 178.712C148.586 180.337 147.528 181.924 146.414 183.472C146.252 183.687 146.063 183.725 145.848 183.585C141.716 180.505 137.938 177.067 134.514 173.271C134.785 172.608 135.012 171.928 135.194 171.231C136.053 171.825 136.884 172.467 137.687 173.158C140.369 175.689 143.052 178.22 145.734 180.752C145.885 180.6 146.036 180.449 146.188 180.298C152.98 169.583 157.778 158.022 160.582 145.616Z" fill="#AFCBD8"/>
<path fill-rule="evenodd" clip-rule="evenodd" d="M47.0157 157.857C51.4346 159.801 55.8927 161.69 60.3898 163.524C61.6757 164.256 63.0358 164.861 64.47 165.337C65.8731 165.996 67.3087 166.638 68.7769 167.264C69.0725 167.446 69.2237 167.711 69.2303 168.057C67.9942 172.369 66.6341 176.6 65.15 180.751C64.6693 180.791 64.2159 180.715 63.79 180.525C54.2096 177.685 45.0667 173.831 36.3618 168.964C35.9347 168.916 35.6326 168.689 35.4551 168.284C37.4539 164.437 39.4564 160.584 41.4621 156.723C41.6443 156.428 41.9089 156.277 42.2555 156.27C43.8295 156.845 45.4163 157.374 47.0157 157.857Z" fill="#55236A"/>
<path fill-rule="evenodd" clip-rule="evenodd" d="M185.518 153.776C185.531 153.653 185.607 153.578 185.744 153.55C188.793 154.734 191.815 155.981 194.811 157.29C198.637 158.975 202.188 161.053 205.465 163.524C199.191 159.555 192.542 156.306 185.518 153.776Z" fill="#0E1017"/>
<path fill-rule="evenodd" clip-rule="evenodd" d="M161.036 145.843C169.092 148.276 177.102 150.845 185.064 153.55C185.141 153.74 185.292 153.816 185.517 153.777C192.541 156.307 199.191 159.556 205.465 163.524C206.601 164.659 207.81 165.717 209.092 166.697C213.132 171.834 215.777 177.652 217.026 184.152C217.649 186.306 218.103 188.497 218.386 190.725C219.011 192.963 219.54 195.23 219.973 197.526C212.881 207.715 204.267 216.404 194.131 223.594C194.246 217.445 194.737 211.325 195.605 205.233C196.769 197.79 198.129 190.385 199.685 183.018C200.059 181.066 200.286 179.102 200.365 177.124C194.398 192.805 191.413 208.974 191.411 225.634C182.442 232.019 172.77 237.158 162.396 241.048C153.329 241.048 144.262 241.048 135.195 241.048C134.819 220.369 134.063 199.703 132.928 179.051C132.958 176.988 133.487 175.061 134.514 173.271C137.939 177.067 141.717 180.505 145.848 183.585C146.064 183.725 146.252 183.687 146.415 183.472C147.529 181.924 148.587 180.337 149.589 178.711C155.018 168.277 158.834 157.321 161.036 145.843Z" fill="#CEDEE6"/>
<path fill-rule="evenodd" clip-rule="evenodd" d="M95.2988 146.07C95.3764 145.88 95.5273 145.804 95.7522 145.843C96.3264 148.592 97.044 151.312 97.9056 154.003C100.751 163.536 105.02 172.339 110.713 180.412C110.864 180.563 111.015 180.563 111.166 180.412C114.697 177.069 118.324 173.858 122.047 170.778C122.181 171.708 122.407 172.614 122.727 173.498C122.577 173.774 122.426 174.076 122.274 174.405C118.957 177.271 115.556 180.029 112.073 182.678C111.604 183.103 111.075 183.33 110.486 183.358C108.837 181.534 107.439 179.532 106.293 177.351C101.048 167.392 97.3829 156.965 95.2988 146.07Z" fill="#B0CCD8"/>
<path fill-rule="evenodd" clip-rule="evenodd" d="M128.395 165.111C128.47 165.111 128.546 165.111 128.621 165.111C130.856 167.098 133.047 169.138 135.195 171.231C135.013 171.928 134.787 172.608 134.515 173.271C133.488 175.062 132.959 176.988 132.928 179.052C134.064 199.703 134.819 220.369 135.195 241.048C130.284 241.048 125.372 241.048 120.461 241.048C121.559 220.036 122.767 199.031 124.088 178.032C123.678 176.501 123.225 174.989 122.728 173.498C122.408 172.615 122.181 171.708 122.048 170.778C124.169 168.882 126.285 166.993 128.395 165.111Z" fill="#54236A"/>
<path fill-rule="evenodd" clip-rule="evenodd" d="M194.13 223.594C193.313 224.381 192.407 225.061 191.41 225.634C191.412 208.975 194.397 192.805 200.364 177.125C200.285 179.102 200.058 181.066 199.684 183.018C198.129 190.385 196.769 197.79 195.604 205.233C194.737 211.325 194.245 217.445 194.13 223.594Z" fill="#ABC4D1"/>
<path fill-rule="evenodd" clip-rule="evenodd" d="M36.3622 168.964C45.0672 173.831 54.21 177.685 63.7904 180.525C60.0633 195.508 56.5877 210.544 53.3632 225.634C41.2585 217.458 31.2091 207.258 23.2148 195.032C25.5737 189.748 28.1427 184.572 30.9219 179.505C30.7959 179.418 30.7204 179.305 30.6953 179.165C32.7469 175.896 34.6358 172.496 36.3622 168.964Z" fill="#CEDEE6"/>
<path fill-rule="evenodd" clip-rule="evenodd" d="M63.7905 180.525C64.2165 180.716 64.6698 180.791 65.1506 180.752C62.3196 196.419 59.4483 212.059 56.5368 227.674C55.402 227.107 54.3441 226.427 53.3633 225.634C56.5878 210.544 60.0635 195.508 63.7905 180.525Z" fill="#9EB8C7"/>
<path fill-rule="evenodd" clip-rule="evenodd" d="M95.2992 146.069C97.3833 156.965 101.048 167.392 106.293 177.351C107.44 179.532 108.838 181.534 110.487 183.358C111.076 183.329 111.604 183.103 112.073 182.678C115.557 180.029 118.957 177.271 122.274 174.404C122.426 174.076 122.578 173.774 122.727 173.498C123.224 174.989 123.678 176.5 124.087 178.031C122.767 199.03 121.558 220.036 120.461 241.048C107.767 241.048 95.0726 241.048 82.3785 241.048C77.0289 238.94 71.8153 236.521 66.7377 233.794C65.9849 223.98 65.3425 214.157 64.8109 204.326C64.7467 202.713 64.5201 201.126 64.1309 199.566C63.9568 210.524 63.9946 221.48 64.2442 232.434C61.554 231.025 58.985 229.439 56.5371 227.674C59.4486 212.059 62.3199 196.418 65.1509 180.751C66.635 176.6 67.9951 172.369 69.2311 168.057C69.2246 167.711 69.0734 167.446 68.7778 167.264C67.3096 166.638 65.874 165.996 64.4709 165.337C67.5816 163.174 70.6039 160.869 73.538 158.423C75.9846 156.244 77.9492 153.713 79.4317 150.83C84.7002 149.173 89.9895 147.586 95.2992 146.069Z" fill="#CEDEE5"/>
<path fill-rule="evenodd" clip-rule="evenodd" d="M66.7375 233.794C65.7957 233.513 64.9644 233.06 64.244 232.434C63.9945 221.48 63.9566 210.524 64.1307 199.566C64.5199 201.127 64.7466 202.713 64.8107 204.326C65.3423 214.157 65.9847 223.98 66.7375 233.794Z" fill="#A8C2CF"/>
</svg>
