<svg width="250" height="250" viewBox="0 0 250 250" fill="none" xmlns="http://www.w3.org/2000/svg">
<g clip-path="url(#clip0_3349_4276)">
<path fill-rule="evenodd" clip-rule="evenodd" d="M225.341 170.62C225.335 170.705 225.327 170.788 225.318 170.873C224.513 179.093 221.401 186.257 215.992 192.357C215.485 185.688 214.027 179.236 211.625 172.999C211.209 172.026 210.748 171.092 210.244 170.202C210.076 169.906 209.902 169.612 209.723 169.325C209.364 168.747 208.986 168.186 208.59 167.646C208.391 167.372 208.186 167.108 207.978 166.846C207.351 166.06 206.68 165.312 205.962 164.606C204.527 163.191 202.913 161.936 201.117 160.84C197.023 158.335 192.815 156.09 188.482 154.097C187.973 153.861 187.46 153.631 186.948 153.403C188.354 151.251 189.809 149.128 191.318 147.03C191.805 146.29 192.172 145.521 192.414 144.722C192.499 144.437 192.57 144.15 192.624 143.859C192.636 143.805 192.644 143.754 192.653 143.703C192.661 143.663 192.667 143.626 192.673 143.586C192.681 143.529 192.687 143.475 192.696 143.418C192.718 143.27 192.733 143.122 192.744 142.971C192.75 142.906 192.755 142.84 192.758 142.775C192.77 142.598 192.775 142.416 192.775 142.234C192.775 142.092 192.772 141.952 192.764 141.81V141.799C192.758 141.656 192.747 141.508 192.733 141.363C192.522 140.626 192.092 140.074 191.434 139.712C191.198 139.553 190.962 139.396 190.726 139.24C191.696 137.834 192.522 136.339 193.205 134.754C193.365 133.732 193.365 132.708 193.205 131.686C192.753 130.798 192.163 130.012 191.434 129.323C192.237 127.84 192.59 126.269 192.496 124.601C192.189 123.266 191.403 122.401 190.136 122.006C189.752 122.034 189.396 122.151 189.074 122.358C187.987 123.326 187.042 124.391 186.239 125.546V125.31C186.444 124.786 186.524 124.237 186.475 123.659C185.496 122.387 184.314 122.188 182.934 123.067C182.265 123.54 181.635 124.052 181.046 124.601C180.101 124.761 179.196 124.761 178.33 124.601C178.094 124.838 177.858 125.074 177.621 125.31C177.616 125.247 177.61 125.188 177.601 125.128C177.596 125.082 177.59 125.037 177.581 124.991C177.579 124.96 177.573 124.926 177.564 124.895C177.559 124.863 177.553 124.835 177.547 124.803C177.53 124.721 177.51 124.641 177.487 124.561C177.479 124.522 177.468 124.482 177.453 124.442C177.442 124.402 177.428 124.362 177.413 124.325C177.396 124.271 177.376 124.217 177.354 124.166C177.328 124.095 177.297 124.024 177.26 123.952C177.228 123.881 177.194 123.81 177.154 123.742C177.115 123.673 177.075 123.605 177.032 123.54C177.109 123.463 177.189 123.383 177.265 123.303C176.591 122.595 176.278 121.809 176.323 120.944C176.295 120.827 176.26 120.713 176.221 120.602C176.206 120.56 176.189 120.517 176.172 120.474C176.132 120.372 176.09 120.275 176.038 120.178C176.013 120.124 175.984 120.07 175.953 120.019C175.933 119.982 175.91 119.945 175.887 119.911C175.87 119.882 175.853 119.854 175.833 119.825C175.768 119.723 175.694 119.623 175.614 119.526C175.927 119.091 175.89 118.974 175.495 119.173C175.483 119.111 175.472 119.051 175.46 118.988C175.455 118.954 175.446 118.917 175.438 118.883C175.421 118.801 175.401 118.718 175.378 118.638C175.361 118.57 175.341 118.502 175.324 118.436C175.261 118.226 175.187 118.024 175.105 117.824C175.045 117.682 174.976 117.543 174.905 117.403C175.068 117.207 175.073 117.03 174.917 116.871C174.908 116.859 174.9 116.851 174.888 116.842C174.868 116.822 174.848 116.805 174.826 116.791C174.803 116.774 174.78 116.76 174.754 116.743C174.729 116.726 174.7 116.711 174.669 116.694C174.777 116.595 174.857 116.478 174.905 116.339C174.826 116.205 174.746 116.068 174.669 115.932C174.515 115.658 174.367 115.379 174.225 115.098C174.154 114.958 174.083 114.816 174.014 114.674C173.878 114.389 173.744 114.101 173.616 113.808C173.488 113.515 173.368 113.216 173.251 112.917C173.331 112.838 173.411 112.758 173.488 112.681C171.859 107.546 170.757 102.352 170.182 97.0978C170.026 96.6281 169.869 96.1556 169.71 95.6832C169.789 95.6035 169.869 95.5238 169.946 95.4469C169.761 94.9118 169.602 94.3596 169.473 93.7932C169.465 93.7733 169.456 93.7534 169.445 93.7335C169.434 93.7135 169.425 93.6964 169.414 93.6765C169.399 93.6509 169.382 93.6253 169.362 93.6025C169.325 93.5513 169.283 93.5029 169.234 93.4631C169.217 93.4488 169.203 93.4374 169.186 93.4261C169.163 93.409 169.14 93.3947 169.118 93.3805C169.1 93.3691 169.081 93.3577 169.061 93.3492C169.041 93.3378 169.021 93.3293 169.001 93.3207C169.018 93.315 169.032 93.3094 169.049 93.3037C169.066 93.298 169.083 93.2923 169.098 93.2866C169.189 93.2496 169.268 93.2012 169.337 93.1386C169.357 93.1215 169.374 93.1044 169.388 93.0845C169.422 93.0503 169.448 93.0105 169.473 92.9678C173.758 90.8872 176.827 87.6595 178.683 83.2876C179.366 81.4546 179.839 79.5647 180.101 77.6235C180.83 73.986 179.964 70.801 177.502 68.06C176.297 67.0752 174.959 66.802 173.488 67.2346C173.095 67.2944 172.739 67.4509 172.426 67.7071C171.683 70.2061 171.014 72.7251 170.419 75.2611C169.918 76.4195 169.408 77.6007 168.884 78.8019C168.776 78.6624 168.736 78.5059 168.765 78.3294C169.408 71.245 169.368 64.1635 168.648 57.0848C162.305 52.5877 155.811 48.3382 149.166 44.3363C146.852 42.3752 144.489 40.4483 142.083 38.5498C139.894 36.4834 137.85 34.3174 135.943 32.0603C134.775 30.1049 133.517 28.215 132.165 26.3934C131.419 24.7454 130.673 23.0917 129.921 21.4351C129.321 19.9152 128.925 18.3412 128.743 16.7132C127.22 22.2719 124.82 27.3867 121.54 32.0603C116.658 37.8411 111.066 42.7993 104.775 46.9321C99.9862 49.7983 95.1834 52.6702 90.3693 55.5478C88.18 56.7603 85.9794 57.9017 83.7588 58.9719C83.5282 59.9481 83.4456 60.9728 83.5225 62.0401C83.1894 66.9215 83.2663 71.7972 83.7588 76.6786C83.2976 76.0638 82.9047 75.2753 82.5773 74.3161C81.8827 72.301 81.0571 70.3314 80.0977 68.4158C78.0821 66.765 75.9184 66.5686 73.6039 67.8238C72.2288 68.9651 71.4431 70.4196 71.2438 72.1928C71.0559 72.4547 70.9392 72.7678 70.888 73.1378C70.7712 74.6321 70.7314 76.1264 70.7712 77.6235C71.5427 82.707 73.7462 87.0362 77.3817 90.6082C77.6095 91.0836 77.9227 91.5162 78.3269 91.9061C78.0821 92.2619 78.1219 92.6149 78.4465 92.9678C79.1127 92.7116 79.1525 92.4356 78.5632 92.1424C78.9846 92.02 79.3803 92.0968 79.7447 92.3786C79.6792 92.7942 79.6052 93.204 79.5255 93.6139C79.5084 93.6964 79.4913 93.779 79.4771 93.8615C79.423 94.1376 79.3632 94.4137 79.3034 94.687C79.2977 94.724 79.2892 94.7638 79.2806 94.8008C79.2151 95.0854 79.1497 95.3672 79.0813 95.649C79.0472 95.7913 79.013 95.9308 78.976 96.0702C78.976 96.0845 78.9703 96.0959 78.9646 96.1072C78.9675 96.1101 78.9646 96.1101 78.9646 96.1101C78.9134 96.3065 78.8621 96.5029 78.808 96.6993C78.7312 96.9924 78.6486 97.2828 78.5632 97.5702C78.6714 97.6699 78.7511 97.7866 78.7995 97.926C77.5298 104.481 75.6793 111.01 73.2509 117.52C72.152 119.233 71.3264 121.08 70.7712 123.067C70.8509 123.147 70.9278 123.227 71.0075 123.303C70.6687 123.673 70.3157 124.026 69.9456 124.365C69.6752 125.108 69.5186 125.817 69.473 126.491C68.5279 125.546 67.5827 124.601 66.6375 123.659C66.5237 123.434 66.4866 123.198 66.5208 122.951C66.3728 122.936 66.2247 122.911 66.0824 122.879C65.94 122.845 65.8005 122.805 65.661 122.757C65.5244 122.706 65.3877 122.649 65.2568 122.583C65.123 122.518 64.9949 122.441 64.8668 122.358C63.8903 122.162 63.2611 122.199 62.9793 122.478C61.8433 123.204 61.4875 124.228 61.9174 125.546C61.8149 125.41 61.7124 125.276 61.6042 125.142C61.57 125.097 61.5359 125.051 61.4989 125.008C61.4277 124.92 61.3537 124.832 61.2768 124.744C61.2455 124.704 61.2113 124.664 61.1743 124.624C61.0633 124.493 60.9494 124.365 60.8327 124.24C60.5765 123.964 60.3117 123.699 60.0356 123.443C59.7509 123.181 59.4576 122.928 59.153 122.686C59.0135 122.575 58.874 122.464 58.7288 122.358C57.2314 122.04 56.2463 122.632 55.7766 124.132C55.5488 126.016 55.9047 127.789 56.8385 129.443C56.6819 129.588 56.5339 129.736 56.3972 129.887C56.3289 129.964 56.2606 130.035 56.1979 130.112C56.1353 130.189 56.0727 130.265 56.0157 130.342C55.9559 130.419 55.899 130.493 55.8449 130.573C55.8392 130.581 55.8307 130.59 55.825 130.601C55.7766 130.67 55.731 130.738 55.6912 130.806C55.6399 130.886 55.5915 130.963 55.5517 131.042C55.5061 131.119 55.4634 131.199 55.4264 131.279C55.3467 131.441 55.2784 131.6 55.2186 131.765C55.1873 131.848 55.1617 131.928 55.1389 132.01C55.1104 132.101 55.0876 132.192 55.0649 132.283C55.0506 132.349 55.0364 132.414 55.025 132.48C55.025 132.5 55.0165 132.523 55.0136 132.542C55.0051 132.599 54.9965 132.656 54.9908 132.713C54.9851 132.742 54.9823 132.767 54.9795 132.796C54.9709 132.87 54.9652 132.947 54.9624 133.021C54.9567 133.106 54.9538 133.191 54.9538 133.28C54.9538 133.359 54.9567 133.439 54.9624 133.519C54.9595 133.553 54.9624 133.59 54.9681 133.627C54.9709 133.672 54.9738 133.715 54.9795 133.761C54.9823 133.795 54.9851 133.829 54.9908 133.863C55.0022 133.96 55.0165 134.057 55.0335 134.153C55.0535 134.256 55.0734 134.361 55.1019 134.467C55.1161 134.535 55.1332 134.6 55.1531 134.669C55.156 134.674 55.156 134.683 55.1588 134.691C55.1816 134.768 55.2072 134.848 55.2328 134.928C55.2442 134.97 55.2585 135.013 55.2755 135.053C55.2841 135.081 55.2955 135.113 55.3068 135.144C55.3125 135.158 55.3182 135.172 55.3239 135.187C55.3496 135.258 55.378 135.326 55.4065 135.397C55.4293 135.451 55.452 135.503 55.4748 135.557C55.4976 135.611 55.5232 135.665 55.5488 135.719C55.5802 135.787 55.6115 135.856 55.6456 135.921C55.6883 136.004 55.731 136.086 55.7766 136.171C56.5766 137.245 57.3253 138.346 58.0199 139.476C57.7808 139.445 57.5531 139.445 57.3367 139.473C57.2171 139.487 57.1004 139.513 56.9894 139.55C56.941 139.564 56.8926 139.581 56.847 139.598C56.7645 139.63 56.6819 139.67 56.6022 139.712H56.1296C55.1332 141.167 54.9368 142.741 55.5403 144.434C56.0328 145.493 56.5823 146.518 57.1943 147.502C58.9452 149.828 60.6391 152.19 62.2704 154.584C48.9696 158.241 40.5086 166.74 36.8874 180.081C35.7201 184.188 34.8945 188.358 34.4077 192.593C28.4036 186.092 25.0983 178.379 24.4891 169.459C24.3838 160.581 26.035 152.082 29.4484 143.962C29.42 143.817 29.3402 143.74 29.2121 143.725C30.5616 140.637 32.096 137.646 33.8156 134.754C37.3998 129.477 41.0979 124.283 44.9156 119.173C47.048 115.852 49.055 112.468 50.9368 109.021C50.9739 108.631 51.1333 108.315 51.4094 108.076C54.5069 102.01 56.867 95.6348 58.4925 88.9546C58.484 88.7382 58.4014 88.5817 58.2562 88.4821C59.9758 80.7544 61.627 73.0439 63.2155 65.3475C64.1351 60.0335 65.2397 54.7594 66.5208 49.5279C66.777 49.4994 66.9336 49.3429 66.9934 49.0554C68.5165 42.324 70.7228 35.8316 73.6039 29.5812C73.4644 29.4702 73.3078 29.4303 73.1313 29.4616C76.001 23.1685 80.0151 17.698 85.1737 13.0557C90.0761 9.22745 96.2994 4.77872 105.666 1.91821C115.032 -0.942302 143.114 -0.427126 150.294 2.29676C157.474 5.02065 161.736 8.03201 165.223 11.1658C173.909 20.1486 179.537 30.8136 182.108 43.1551C183.705 51.7935 185.163 60.4462 186.475 69.1245C187.722 75.3949 189.02 81.6937 190.373 88.0096C191.127 90.7107 191.955 93.3862 192.852 96.0361C194.6 101.191 196.926 106.066 199.819 110.674C204.513 117.574 209.396 124.339 214.457 130.977C217.216 134.765 219.462 138.699 221.199 142.775C224.883 151.416 226.263 160.698 225.341 170.62Z" fill="#09162A"/>
<path fill-rule="evenodd" clip-rule="evenodd" d="M97.2197 14.5899C99.147 14.0576 100.326 14.7265 100.761 16.5965C100.602 17.7862 100.206 18.8877 99.5798 19.901C100.682 19.9807 101.783 20.0576 102.885 20.1373C103.378 20.3251 103.81 20.5984 104.183 20.9627C104.531 22.2777 104.254 23.419 103.358 24.3867C100.741 26.7292 97.7093 27.6343 94.2674 27.1021C94.2361 25.8896 94.4325 24.7112 94.8567 23.5613C93.5158 23.7321 92.1778 23.8516 90.8426 23.9143L90.4896 23.5613C90.1565 21.8052 90.5494 20.2312 91.6711 18.8394C93.2682 17.0433 95.1187 15.6259 97.2197 14.5899Z" fill="#212F49"/>
<path fill-rule="evenodd" clip-rule="evenodd" d="M177.504 68.06C176.3 67.0723 174.962 66.7991 173.49 67.2345C173.095 67.2943 172.742 67.4509 172.428 67.707C171.685 70.2061 171.016 72.725 170.421 75.261C170.404 75.3635 170.444 75.4432 170.538 75.4973C171.404 73.8806 172.665 73.4081 174.316 74.0798C174.988 74.9963 175.264 76.0182 175.142 77.1481C175.05 82.7724 172.374 86.4697 167.113 88.2429C167.535 84.8843 168.087 81.5798 168.767 78.3265C169.411 71.2421 169.371 64.1605 168.651 57.079C162.308 52.5847 155.814 48.3352 149.169 44.3305C146.852 42.3723 144.492 40.4425 142.086 38.5469C139.897 36.4776 137.853 34.3145 135.945 32.0545C134.775 30.0991 133.517 28.2121 132.167 26.3876C131.422 24.7396 130.676 23.0859 129.924 21.4294C129.321 19.9095 128.928 18.3355 128.743 16.7074C127.222 22.2633 124.82 27.3809 121.54 32.0517C116.658 37.8325 111.066 42.7907 104.775 46.9235C99.9861 49.7897 95.1862 52.6616 90.3693 55.5392C88.18 56.7517 85.9765 57.893 83.7587 58.9632C83.5281 59.9395 83.4484 60.9642 83.5224 62.0315C83.1894 66.9101 83.2662 71.7886 83.7587 76.6671C83.2975 76.0523 82.9075 75.2639 82.5773 74.3075C81.8826 72.2924 81.057 70.3227 80.0976 68.4044C78.082 66.7535 75.9184 66.5571 73.6038 67.8152C72.2259 68.9565 71.4402 70.411 71.2438 72.1814C71.0559 72.4432 70.9391 72.7563 70.8907 73.1263C70.774 74.6206 70.7313 76.1149 70.774 77.6121C71.5455 82.6984 73.749 87.0247 77.3845 90.5968C79.8243 92.4042 82.5773 93.3463 85.6491 93.4288C86.6911 96.0929 87.9494 98.6119 89.4269 100.983C93.1735 107.803 98.1328 113.626 104.302 118.453C108.031 121.103 112.046 123.269 116.344 124.946C121.44 126.887 126.636 127.203 131.928 125.891C137.537 124.228 142.732 121.749 147.512 118.453C156.665 112.371 162.726 104.028 165.695 93.4288C166.982 93.463 168.241 93.3036 169.473 92.9563C173.758 90.8757 176.827 87.648 178.683 83.2762C179.366 81.4432 179.839 79.5532 180.101 77.6092C180.83 73.9745 179.964 70.7867 177.504 68.0486V68.06Z" fill="#FDCCA3"/>
<path fill-rule="evenodd" clip-rule="evenodd" d="M143.266 17.1857C143.442 16.9324 143.678 16.8925 143.975 17.069C144.979 17.5244 145.925 18.0766 146.807 18.7227C153.694 24.1534 160.543 29.6239 167.35 35.1315C167.234 35.2112 167.114 35.288 166.997 35.3677C163.783 33.8022 160.751 31.955 157.907 29.8203C152.868 25.7701 147.989 21.5604 143.268 17.1914L143.266 17.1857Z" fill="#22314B"/>
<path fill-rule="evenodd" clip-rule="evenodd" d="M115.402 22.6163C115.686 23.0717 115.646 23.5442 115.285 24.0338C110.542 29.7206 105.463 35.1115 100.054 40.2063C97.5999 42.1076 95.0833 43.9179 92.4983 45.637C90.756 46.7812 88.9482 47.7262 87.0664 48.4691C92.4983 43.9833 97.9273 39.4976 103.359 35.0119C107.362 30.8136 111.376 26.6837 115.402 22.6163Z" fill="#23324C"/>
<path fill-rule="evenodd" clip-rule="evenodd" d="M73.1339 29.4617C73.3076 29.4303 73.467 29.4702 73.6065 29.5784C70.7226 35.8288 68.5191 42.3211 66.996 49.0554C66.9391 49.3429 66.7797 49.4995 66.5234 49.5279C68.112 42.6257 70.3155 35.9369 73.1339 29.4617Z" fill="#0F1218"/>
<path fill-rule="evenodd" clip-rule="evenodd" d="M99.0159 55.8792C102.979 54.9492 107.01 54.2098 111.11 53.6636C112.822 53.5176 114.533 53.5476 116.24 53.7536C117.186 54.7775 117.291 55.8802 116.559 57.0633C115.686 57.7907 114.695 58.2776 113.583 58.5212C111.78 58.6703 109.981 58.8478 108.191 59.0464C101.927 59.5406 95.8352 60.8555 89.9201 62.9953C92.0058 59.435 95.0364 57.0645 99.0133 55.8803L99.0159 55.8792Z" fill="#0D1220"/>
<path fill-rule="evenodd" clip-rule="evenodd" d="M136.968 53.5482C137.114 53.0429 137.431 52.7576 137.911 52.6949C145.513 53.1256 152.692 55.1078 159.454 58.6352C160.305 59.4032 161.157 60.1687 162.007 60.9367C164.436 64.0515 164.138 64.3875 161.12 61.9474C159.753 61.3988 158.36 60.9358 156.938 60.5571C151.394 59.4381 145.823 58.4645 140.228 57.6374C139.31 57.3626 138.461 56.9472 137.684 56.3924C136.849 55.5911 136.613 54.6422 136.971 53.5469L136.968 53.5482Z" fill="#0C1221"/>
<path fill-rule="evenodd" clip-rule="evenodd" d="M136.654 58.7357C136.25 59.0032 136.093 59.396 136.182 59.9169C136.025 60.3581 135.869 60.8305 135.709 61.3343C135.259 59.766 135.535 58.3486 136.535 57.0848C136.651 57.6313 136.691 58.1807 136.651 58.7385L136.654 58.7357Z" fill="#F19A60"/>
<path fill-rule="evenodd" clip-rule="evenodd" d="M120.594 57.0848C121.106 58.9235 121.186 60.8135 120.83 62.7518H119.648C119.765 60.8277 120.081 58.9378 120.594 57.0848Z" fill="#F29459"/>
<path fill-rule="evenodd" clip-rule="evenodd" d="M133.821 57.3182C134.726 58.9292 134.962 60.6598 134.53 62.5127C134.333 62.2765 134.137 62.0402 133.94 61.804C133.824 60.3097 133.784 58.8154 133.824 57.3182H133.821Z" fill="#F2965D"/>
<path fill-rule="evenodd" clip-rule="evenodd" d="M113.04 70.7754C111.717 68.7802 109.906 67.4823 107.609 66.8789C110.888 69.395 111.557 72.5031 109.616 76.2033C107.808 78.8104 105.485 79.3996 102.649 77.9736C99.7454 75.0249 99.3127 71.7574 101.351 68.1768C102.123 67.377 103.028 66.7878 104.067 66.4064C102.962 66.3665 101.861 66.4462 100.762 66.6426C98.7091 67.1834 96.6622 67.6957 94.621 68.1768C94.1939 67.9462 93.8779 67.5904 93.6758 67.1151C98.5497 64.6502 103.586 64.2574 108.787 65.9339C111.002 66.7308 112.616 68.1881 113.627 70.3001C113.781 71.208 113.584 71.3646 113.038 70.7726L113.04 70.7754Z" fill="#040403"/>
<path fill-rule="evenodd" clip-rule="evenodd" d="M157.199 67.7071C154.682 66.7706 152.086 66.338 149.407 66.4092C151.855 67.6046 153.116 69.5714 153.185 72.3123C153.193 75.5286 151.699 77.652 148.698 78.6852C145.561 78.8559 143.633 77.4015 142.913 74.319C142.258 71.2621 143.164 68.7858 145.629 66.8816C143.144 67.3 141.413 68.6776 140.434 71.0144C140.163 70.9461 140.004 70.7497 139.961 70.4253C140.721 68.171 142.216 66.597 144.448 65.7033C149.643 64.0781 154.679 64.4708 159.559 66.8845C158.953 67.6217 158.164 67.8949 157.199 67.7099V67.7071Z" fill="#050404"/>
<path fill-rule="evenodd" clip-rule="evenodd" d="M157.199 67.7071C157.367 67.9206 157.603 68.0003 157.908 67.9433C159.346 72.5885 158.008 76.2488 153.894 78.9214C150.691 80.5239 147.465 80.6036 144.211 79.1577C143.192 78.3749 142.444 77.393 141.968 76.2061C141.336 74.5068 140.824 72.7735 140.434 71.0116C141.41 68.6748 143.144 67.2972 145.629 66.8788C143.164 68.7801 142.258 71.2592 142.913 74.3162C143.634 77.3987 145.561 78.856 148.698 78.6823C151.699 77.6491 153.193 75.523 153.185 72.3095C153.114 69.5714 151.855 67.6046 149.407 66.4063C152.086 66.3352 154.682 66.7678 157.199 67.7042V67.7071Z" fill="#FCFBFB"/>
<path fill-rule="evenodd" clip-rule="evenodd" d="M113.04 70.7753C111.784 79.8237 106.984 82.4593 98.6343 78.6851C95.0159 76.0637 93.6779 72.5628 94.6202 68.1795C96.6614 67.6985 98.7083 67.1862 100.761 66.6454C101.863 66.449 102.964 66.3693 104.066 66.4091C103.027 66.7905 102.122 67.3797 101.35 68.1795C99.3147 71.763 99.7475 75.0277 102.648 77.9764C105.484 79.4024 107.804 78.8132 109.615 76.206C111.556 72.5059 110.887 69.3977 107.608 66.8816C109.905 67.4822 111.713 68.7801 113.04 70.7782V70.7753Z" fill="#FBFBFA"/>
<path fill-rule="evenodd" clip-rule="evenodd" d="M168.766 78.3294C168.735 78.5031 168.775 78.6624 168.883 78.8019C169.407 77.6008 169.919 76.4196 170.417 75.2611C170.403 75.3636 170.44 75.4433 170.534 75.4974C171.403 73.8807 172.661 73.4082 174.312 74.0799C174.984 74.9936 175.26 76.0183 175.138 77.1482C175.047 82.7725 172.37 86.4698 167.109 88.243C167.534 84.8844 168.083 81.5799 168.763 78.3266L168.766 78.3294Z" fill="#F2A474"/>
<path fill-rule="evenodd" clip-rule="evenodd" d="M78.3291 73.1379C78.9155 73.0895 79.4678 73.2091 79.9831 73.4909C81.2044 74.8685 82.4229 76.2461 83.6442 77.6237C83.9915 81.1132 84.504 84.5743 85.1787 88.0126C85.099 88.1691 85.0221 88.3285 84.9424 88.485C81.3126 87.1758 78.5967 84.8162 76.7946 81.4035C75.6928 78.3324 76.2053 75.5772 78.3291 73.1408V73.1379Z" fill="#F3A777"/>
<path fill-rule="evenodd" clip-rule="evenodd" d="M128.625 71.248H129.571C129.499 75.4263 129.616 79.5961 129.924 83.7602C130.373 84.893 131.003 85.9177 131.814 86.8285C132.306 91.2943 130.299 93.3806 125.793 93.0846C125.554 92.837 125.514 92.5609 125.676 92.2592L126.502 91.4338C127.512 91.0865 128.457 90.614 129.334 90.0163C129.83 89.578 130.063 89.0287 130.043 88.3626C129.764 86.9793 129.255 85.6814 128.509 84.4661C128.42 80.06 128.46 75.6512 128.625 71.2451V71.248Z" fill="#F19258"/>
<path fill-rule="evenodd" clip-rule="evenodd" d="M58.257 88.4822C58.405 88.5818 58.4819 88.7383 58.4933 88.9547C56.8705 95.6377 54.5076 102.011 51.4102 108.076C54.2941 101.757 56.5773 95.225 58.257 88.4822Z" fill="#10131B"/>
<path fill-rule="evenodd" clip-rule="evenodd" d="M123.669 101.703C128.045 101.171 132.215 101.84 136.184 103.71C138.18 104.862 138.06 105.531 135.831 105.716C130.368 104.521 124.896 104.484 119.419 105.6C118.317 105.756 117.215 105.756 116.113 105.6C115.789 104.999 115.945 104.527 116.586 104.182C118.858 103.004 121.218 102.178 123.669 101.703Z" fill="#C52A29"/>
<path fill-rule="evenodd" clip-rule="evenodd" d="M169.477 92.9678C169.377 93.1386 169.221 93.2552 169.004 93.3207C169.224 93.4118 169.38 93.5712 169.477 93.7932C169.605 94.3596 169.762 94.9118 169.949 95.4469L169.713 95.6831C169.87 96.1556 170.029 96.6281 170.186 97.1006C170.761 102.355 171.863 107.546 173.491 112.681L173.255 112.917C173.719 114.121 174.271 115.263 174.909 116.341C174.86 116.481 174.781 116.598 174.673 116.694C175.057 116.896 175.134 117.133 174.909 117.403C175.196 117.958 175.393 118.547 175.498 119.173C175.891 118.974 175.931 119.094 175.615 119.526C175.956 119.942 176.193 120.414 176.324 120.944C176.278 121.809 176.594 122.598 177.269 123.303L177.033 123.54C177.377 124.075 177.573 124.664 177.622 125.31L178.331 124.601C179.196 124.758 180.102 124.758 181.047 124.601C179.857 125.791 178.755 127.049 177.741 128.378C174.095 131.467 170.633 134.771 167.35 138.295C165.619 140.262 163.886 142.228 162.155 144.198C161.602 144.041 161.053 143.882 160.501 143.725C159.889 143.577 159.339 143.301 158.847 142.9C156.583 140.64 154.499 138.241 152.589 135.699C151.621 134.612 150.559 133.67 149.401 132.867C148.914 132.87 148.441 132.949 147.983 133.103H147.746C147.547 128.227 147.47 123.349 147.51 118.468C156.663 112.385 162.724 104.043 165.693 93.4431C166.98 93.4744 168.238 93.3179 169.471 92.9706L169.477 92.9678Z" fill="#0B1424"/>
<path fill-rule="evenodd" clip-rule="evenodd" d="M104.301 118.465C108.03 121.118 112.044 123.281 116.343 124.957C121.439 126.898 126.635 127.214 131.927 125.902C137.536 124.24 142.731 121.761 147.511 118.465C147.471 123.346 147.548 128.225 147.747 133.1V134.282C146.677 134.58 145.655 135.013 144.678 135.58C143.301 136.117 141.886 136.51 140.428 136.761C132.605 137.606 125.049 136.581 117.758 133.692C113.36 131.868 109.146 129.702 105.126 127.2C105.078 127.567 104.958 127.883 104.773 128.145C104.839 124.906 104.682 121.678 104.301 118.465Z" fill="#EE9C6D"/>
<path fill-rule="evenodd" clip-rule="evenodd" d="M175.027 156.238C174.796 156.537 174.716 156.85 174.79 157.183C179.858 152.353 184.501 147.158 188.723 141.602L190.494 139.832C190.799 139.715 191.115 139.675 191.439 139.715C192.097 140.077 192.527 140.629 192.737 141.369C192.931 143.424 192.458 145.314 191.32 147.036C189.811 149.133 188.356 151.257 186.952 153.409C185.546 154.8 184.248 156.295 183.055 157.894C178.901 165.181 174.338 172.185 169.359 178.905C166.085 182.654 162.267 185.682 157.905 187.994C156.271 188.668 154.617 189.3 152.946 189.884C150.711 192.357 148.508 194.836 146.336 197.321C140.309 192.636 134.561 187.598 129.098 182.213C130.026 181.476 130.891 180.69 131.694 179.853C133.957 177.983 136.084 175.94 138.068 173.714C140.314 171.665 142.398 169.459 144.326 167.105C149.069 161.381 153.675 155.555 158.139 149.634C159.144 148.351 160.209 147.093 161.327 145.857C161.609 145.294 161.885 144.744 162.153 144.204C163.884 142.237 165.618 140.267 167.349 138.3C170.628 134.777 174.093 131.472 177.74 128.384C178.753 127.055 179.855 125.797 181.045 124.607C181.634 124.058 182.266 123.545 182.935 123.073C184.316 122.193 185.498 122.39 186.477 123.662C186.525 124.24 186.446 124.789 186.241 125.316C183.972 127.095 181.965 129.144 180.22 131.455C175.727 135.71 171.32 140.04 166.996 144.44C166.284 145.151 165.771 145.977 165.461 146.919C165.501 147.115 165.538 147.315 165.578 147.508C170.765 142.086 176.037 136.732 181.398 131.455C182.736 129.961 184.074 128.464 185.412 126.969C185.748 126.52 186.024 126.047 186.238 125.552C187.041 124.396 187.986 123.332 189.071 122.364C189.395 122.156 189.748 122.04 190.132 122.011C191.399 122.407 192.188 123.272 192.493 124.607C192.586 126.275 192.233 127.846 191.431 129.329C192.157 130.015 192.749 130.803 193.201 131.689C193.361 132.71 193.361 133.735 193.201 134.757C192.518 136.342 191.693 137.837 190.722 139.243C189.685 139.635 188.78 140.264 188.006 141.133C183.764 146.239 179.437 151.274 175.018 156.241L175.027 156.238Z" fill="#FDCCA3"/>
<path fill-rule="evenodd" clip-rule="evenodd" d="M62.9813 122.478C64.0347 122.396 64.9798 122.672 65.814 123.303C70.8985 128.464 76.0543 133.542 81.2812 138.531C83.2142 140.831 85.1416 143.111 87.0661 145.376C87.4533 145.968 87.8091 146.597 88.128 147.266C90.7329 150.537 93.3692 153.764 96.0396 156.946C101.027 163.823 106.616 170.199 112.805 176.068C112.885 176.304 113.041 176.461 113.278 176.54C114.231 177.73 115.333 178.752 116.583 179.609C111.541 184.609 106.345 189.448 100.999 194.127C100.626 194.386 100.233 194.583 99.8174 194.717C98.4651 192.852 96.9705 191.082 95.3307 189.405C89.7308 187.888 84.9708 185.014 81.0449 180.79C75.391 173.64 70.1953 166.163 65.4609 158.361C64.4503 157.04 63.3884 155.782 62.2724 154.584C60.6411 152.188 58.9472 149.828 57.1964 147.503C56.5843 146.518 56.0348 145.493 55.5423 144.434C54.9388 142.741 55.1352 141.167 56.1316 139.712H56.6042C57.6547 139.63 58.4803 140.023 59.0839 140.893C61.444 143.726 63.8069 146.56 66.167 149.392C68.6922 152.153 71.2886 154.829 73.959 157.419C73.6657 156.363 73.1134 155.418 72.3049 154.587C68.7434 150.87 65.3613 147.016 62.15 143.02C61.0084 141.878 59.8668 140.737 58.7252 139.596C58.5003 139.482 58.264 139.442 58.0163 139.479C57.3216 138.349 56.5729 137.247 55.7729 136.174C54.3922 133.633 54.748 131.39 56.8348 129.446C55.901 127.792 55.5452 126.022 55.7729 124.135C56.2427 122.635 57.2277 122.045 58.7252 122.364C59.9465 123.269 61.0084 124.331 61.9137 125.552C61.4867 124.231 61.8397 123.21 62.9756 122.484L62.9813 122.478Z" fill="#FDCCA3"/>
<path fill-rule="evenodd" clip-rule="evenodd" d="M77.3858 90.6084C79.8256 92.4158 82.5786 93.3608 85.6504 93.4404C86.6923 96.1046 87.9507 98.6207 89.4282 100.994C93.1776 107.814 98.134 113.638 104.303 118.465C104.685 121.678 104.841 124.903 104.776 128.145C104.651 129.722 104.491 131.296 104.303 132.867C103.355 132.827 102.41 132.867 101.471 132.984C98.1369 136.784 94.6751 140.444 91.0794 143.962C89.7414 144.434 88.4033 144.907 87.0653 145.379C85.1408 143.114 83.2134 140.831 81.2804 138.534C76.0535 133.545 70.8977 128.467 65.8131 123.306C64.979 122.675 64.0338 122.398 62.9805 122.481C63.2623 122.202 63.8915 122.165 64.8708 122.364C65.3776 122.697 65.9299 122.894 66.5249 122.954C66.4907 123.201 66.5277 123.437 66.6416 123.662L69.4743 126.494C69.5198 125.82 69.6764 125.114 69.9468 124.371C70.3169 124.032 70.6728 123.676 71.0087 123.309L70.7724 123.073C71.3276 121.086 72.156 119.236 73.2521 117.526C75.6834 111.016 77.531 104.487 78.8007 97.9319C78.7523 97.7924 78.6726 97.6757 78.5644 97.5789C79.0655 95.8854 79.4612 94.1549 79.7459 92.3845C79.3815 92.1055 78.9886 92.0258 78.5644 92.1482C79.1537 92.4442 79.1139 92.7175 78.4477 92.9737C78.126 92.6207 78.0861 92.2678 78.331 91.912C77.9267 91.5221 77.6136 91.0894 77.3858 90.6141V90.6084Z" fill="#0B1425"/>
<path fill-rule="evenodd" clip-rule="evenodd" d="M147.752 133.1H147.988C147.914 134.094 147.991 135.036 148.224 135.932C147.868 137.751 147.12 139.402 145.981 140.891C140.683 148.863 133.993 155.395 125.91 160.484C119.197 156.056 113.293 150.705 108.2 144.431C106.534 142.214 104.96 139.932 103.477 137.586C103.721 136.018 103.998 134.444 104.302 132.864C104.49 131.293 104.649 129.719 104.775 128.142C104.963 127.88 105.079 127.564 105.128 127.197C109.15 129.699 113.361 131.865 117.759 133.69C125.048 136.579 132.606 137.603 140.429 136.758C141.887 136.507 143.302 136.115 144.68 135.577C145.656 135.01 146.678 134.578 147.749 134.279V133.098L147.752 133.1Z" fill="#FDCCA3"/>
<path fill-rule="evenodd" clip-rule="evenodd" d="M104.302 132.864C103.997 134.444 103.721 136.018 103.476 137.586C104.96 139.934 106.534 142.214 108.199 144.431C113.293 150.705 119.197 156.056 125.91 160.484C133.992 155.392 140.683 148.863 145.981 140.891C147.119 139.405 147.865 137.751 148.224 135.932C148.509 134.868 148.904 133.843 149.405 132.864C150.564 133.667 151.626 134.612 152.594 135.696C154.504 138.235 156.588 140.637 158.852 142.897C159.341 143.299 159.893 143.575 160.506 143.723C160.338 143.936 160.101 144.016 159.797 143.959C159.373 145.832 158.743 147.642 157.906 149.39C157.935 149.532 158.015 149.612 158.143 149.626C153.679 155.546 149.075 161.37 144.329 167.096C142.405 169.453 140.318 171.656 138.072 173.705C136.814 172.288 135.476 170.95 134.058 169.692C131.695 166.817 129.059 164.222 126.146 161.902C123.308 164.387 120.669 167.062 118.235 169.928C116.256 171.827 114.446 173.873 112.803 176.068C106.614 170.196 101.025 163.823 96.0374 156.947C94.3378 152.634 92.6838 148.308 91.0781 143.962C94.6709 140.444 98.1356 136.784 101.469 132.984C102.412 132.867 103.354 132.827 104.302 132.867V132.864Z" fill="#FDFBF8"/>
<path fill-rule="evenodd" clip-rule="evenodd" d="M149.406 132.864C148.905 133.846 148.512 134.868 148.224 135.932C147.991 135.036 147.914 134.091 147.988 133.1C148.444 132.947 148.916 132.867 149.406 132.864Z" fill="#C1BAB8"/>
<path fill-rule="evenodd" clip-rule="evenodd" d="M62.5054 125.31C68.7857 132.181 75.2795 138.87 81.9868 145.376C82.2231 145.769 82.4594 146.162 82.6957 146.558C82.8807 146.899 82.8408 147.212 82.5789 147.502C77.6367 142.208 72.5607 137.014 67.348 131.922C65.8619 130.043 64.2876 128.233 62.625 126.491C62.3801 126.067 62.3403 125.674 62.5083 125.31H62.5054Z" fill="#F18A47"/>
<path fill-rule="evenodd" clip-rule="evenodd" d="M57.3125 129.323C58.3488 129.528 59.1744 130.078 59.7922 130.977C64.8853 136.934 70.2374 142.681 75.8487 148.211C76.4779 148.997 77.107 149.785 77.739 150.571C77.9696 150.867 78.0494 151.183 77.9753 151.516C74.5249 148.066 71.0602 144.602 67.5841 141.127C64.1052 137.219 60.6804 133.282 57.3125 129.323Z" fill="#F18C4A"/>
<path fill-rule="evenodd" clip-rule="evenodd" d="M56.6055 139.712C57.0211 139.484 57.4937 139.408 58.0232 139.476C58.2709 139.442 58.5072 139.479 58.7321 139.593C59.8737 140.734 61.0153 141.875 62.1569 143.017C65.3654 147.013 68.7504 150.87 72.3118 154.584C73.1204 155.418 73.6698 156.36 73.9659 157.416C71.2955 154.826 68.6991 152.15 66.1739 149.39C63.8138 146.557 61.4509 143.723 59.0908 140.891C58.4873 140.022 57.6617 139.627 56.6112 139.709L56.6055 139.712Z" fill="#F18D4B"/>
<path fill-rule="evenodd" clip-rule="evenodd" d="M186.242 125.31V125.546C186.025 126.042 185.752 126.514 185.416 126.964C184.078 128.458 182.74 129.955 181.402 131.449C176.044 136.729 170.769 142.08 165.582 147.502C165.542 147.306 165.502 147.11 165.465 146.913C165.775 145.971 166.288 145.146 166.999 144.434C171.324 140.034 175.731 135.705 180.223 131.449C181.968 129.138 183.975 127.092 186.244 125.31H186.242Z" fill="#F18A48"/>
<path fill-rule="evenodd" clip-rule="evenodd" d="M190.255 129.323C190.605 129.261 190.918 129.341 191.2 129.56C187.112 134.239 182.978 138.881 178.802 143.489C176.194 146.216 173.478 148.812 170.654 151.28C170.412 151.16 170.372 151.004 170.537 150.807C173.436 147.437 176.505 144.212 179.747 141.127C183.212 137.154 186.714 133.217 190.255 129.323Z" fill="#F18D4C"/>
<path fill-rule="evenodd" clip-rule="evenodd" d="M91.0805 143.962C92.6862 148.308 94.3402 152.634 96.0398 156.947C93.3723 153.764 90.7332 150.54 88.1283 147.266C87.8095 146.597 87.4536 145.968 87.0664 145.376C88.4045 144.904 89.7425 144.431 91.0805 143.959V143.962Z" fill="#D1DFE7"/>
<path fill-rule="evenodd" clip-rule="evenodd" d="M160.503 143.726C161.055 143.882 161.604 144.042 162.157 144.198L161.331 145.852C160.212 147.087 159.15 148.345 158.143 149.629C158.014 149.615 157.935 149.535 157.906 149.393C158.74 147.648 159.37 145.838 159.797 143.962C160.101 144.019 160.338 143.939 160.505 143.726H160.503Z" fill="#D0DEE7"/>
<path fill-rule="evenodd" clip-rule="evenodd" d="M190.729 139.24C190.965 139.396 191.201 139.556 191.438 139.712C191.113 139.675 190.797 139.712 190.492 139.829C189.903 140.418 189.311 141.01 188.722 141.599C184.503 147.158 179.859 152.35 174.789 157.18C174.715 156.847 174.792 156.534 175.025 156.235C179.444 151.268 183.771 146.233 188.013 141.127C188.787 140.259 189.692 139.63 190.729 139.237V139.24Z" fill="#F18C4A"/>
<path fill-rule="evenodd" clip-rule="evenodd" d="M29.2124 143.726C29.3406 143.74 29.4203 143.82 29.4487 143.962C26.0381 152.082 24.3841 160.581 24.4894 169.459C23.94 160.482 25.5143 151.903 29.2124 143.726Z" fill="#11141C"/>
<path fill-rule="evenodd" clip-rule="evenodd" d="M118.234 169.931C119.486 171.647 120.628 173.458 121.659 175.362C121.852 176.429 121.812 177.451 121.542 178.43C121.616 177.781 121.536 177.152 121.306 176.54C120.079 175.413 118.897 174.232 117.764 172.999C116.332 174.274 114.837 175.456 113.277 176.54C113.041 176.46 112.884 176.304 112.805 176.068C114.447 173.876 116.258 171.83 118.237 169.928L118.234 169.931Z" fill="#B3CCDA"/>
<path fill-rule="evenodd" clip-rule="evenodd" d="M121.542 178.427C121.619 179.384 121.542 180.329 121.306 181.259C120.315 180.465 119.293 179.72 118.237 179.016C117.596 178.942 117.047 179.139 116.583 179.606C115.333 178.749 114.231 177.727 113.277 176.537C114.837 175.453 116.332 174.272 117.764 172.997C118.9 174.232 120.079 175.41 121.306 176.537C121.536 177.146 121.616 177.778 121.542 178.427Z" fill="#D2DFE8"/>
<path fill-rule="evenodd" clip-rule="evenodd" d="M102.176 199.205C101.983 199.401 101.786 199.322 101.587 198.969C90.9027 205.589 80.1584 212.119 69.3544 218.563C68.2299 212.973 67.0883 207.385 65.9325 201.801C63.9282 193.47 60.9361 185.52 56.959 177.958C55.8686 176.162 54.69 174.428 53.4175 172.763C53.1185 172.234 52.6858 171.918 52.1164 171.818C53.9384 174.747 55.7092 177.736 57.4316 180.79C58.5049 183.098 59.4501 185.458 60.2643 187.871C61.6792 192.901 63.0969 197.936 64.5147 202.982C65.514 208.407 66.499 213.838 67.4669 219.271C67.3872 219.584 67.3075 219.9 67.2306 220.216C62.2543 223.242 57.5426 226.601 53.0872 230.298C43.2113 224.463 35.8264 218.096 32.0742 212.349C32.5867 205.734 33.3639 199.151 34.4087 192.593C34.8955 188.358 35.7211 184.188 36.8883 180.081C40.5096 166.74 48.9706 158.241 62.2713 154.584C63.3845 155.782 64.4492 157.043 65.4599 158.361C70.1943 166.163 75.3899 173.64 81.0438 180.79C84.9697 185.016 89.7326 187.888 95.3296 189.405C96.9694 191.082 98.464 192.852 99.8163 194.719C99.7907 194.865 99.711 194.981 99.58 195.072C100.36 196.515 101.226 197.893 102.176 199.205Z" fill="#D2DFE7"/>
<path fill-rule="evenodd" clip-rule="evenodd" d="M134.055 169.695C135.473 170.953 136.811 172.291 138.069 173.708C136.082 175.931 133.959 177.977 131.695 179.848C131.63 178.225 131.473 176.611 131.223 175.009C132.139 173.216 133.082 171.445 134.055 169.698V169.695Z" fill="#CBDBE4"/>
<path fill-rule="evenodd" clip-rule="evenodd" d="M134.054 169.695C133.081 171.445 132.136 173.216 131.222 175.006C131.472 176.609 131.629 178.222 131.694 179.845C130.892 180.682 130.026 181.47 129.098 182.204C134.561 187.592 140.309 192.627 146.336 197.312C146.678 197.682 147.071 197.996 147.517 198.257C147.757 198.582 147.993 198.895 148.226 199.202C144.605 204.317 140.984 209.432 137.365 214.547C137.22 214.572 137.101 214.652 137.012 214.783C136.523 214.336 136.09 213.864 135.714 213.365C133.38 211.094 130.94 208.931 128.395 206.873C123.552 201.832 118.67 196.837 113.756 191.882C110.01 194.344 106.309 196.863 102.659 199.436C102.502 199.356 102.343 199.279 102.186 199.199C101.235 197.887 100.37 196.513 99.5898 195.067C99.7208 194.976 99.8005 194.859 99.8261 194.714C100.242 194.58 100.635 194.381 101.008 194.125C106.354 189.445 111.55 184.607 116.592 179.606C117.056 179.136 117.605 178.94 118.246 179.017C119.302 179.72 120.324 180.465 121.315 181.259C121.548 180.329 121.628 179.384 121.551 178.427C121.821 177.448 121.861 176.426 121.668 175.359C120.64 173.455 119.498 171.645 118.243 169.928C120.677 167.062 123.313 164.387 126.154 161.902C129.064 164.222 131.7 166.817 134.066 169.692L134.054 169.695Z" fill="#572567"/>
<path fill-rule="evenodd" clip-rule="evenodd" d="M126.736 181.735C127.012 181.683 127.248 181.76 127.444 181.971C123.083 185.292 118.517 188.324 113.748 191.059C113.512 191.216 113.275 191.216 113.039 191.059C117.21 187.313 121.773 184.205 126.736 181.735Z" fill="#371B4D"/>
<path fill-rule="evenodd" clip-rule="evenodd" d="M216.982 202.592C216.757 202.917 216.529 203.241 216.299 203.566C209.315 213.371 201.594 221.349 193.387 227.748C192.994 227.332 192.592 226.916 192.188 226.504C192.151 226.467 192.114 226.43 192.08 226.396C191.858 226.171 191.636 225.946 191.408 225.724C191.183 225.499 190.955 225.277 190.728 225.055C188.558 223.475 186.352 221.938 184.117 220.45C184.037 220.137 183.958 219.821 183.881 219.508C184.94 214.014 185.925 208.504 186.833 202.982C188.331 197.301 189.905 191.637 191.556 185.984C193.68 180.784 196.279 175.906 199.348 171.346C197.133 173.492 195.323 175.931 193.916 178.664C190.005 186.249 187.092 194.199 185.179 202.51C184.097 207.997 183.112 213.508 182.227 219.035C172.152 212.659 162 206.403 151.768 200.267C150.435 199.404 149.018 198.736 147.517 198.26C147.07 197.998 146.678 197.685 146.336 197.315C148.508 194.83 150.712 192.351 152.946 189.878C154.618 189.294 156.272 188.665 157.906 187.991C158.131 187.871 158.356 187.749 158.578 187.626C158.694 187.561 158.811 187.496 158.925 187.43C159.039 187.367 159.153 187.302 159.264 187.237C159.415 187.151 159.566 187.063 159.714 186.972C159.91 186.855 160.106 186.736 160.303 186.616C160.548 186.462 160.793 186.306 161.035 186.149C161.237 186.018 161.439 185.885 161.638 185.745C161.746 185.674 161.854 185.6 161.963 185.526C162.17 185.381 162.378 185.236 162.583 185.088C162.768 184.954 162.953 184.817 163.136 184.681C163.284 184.572 163.429 184.461 163.577 184.345C163.594 184.333 163.614 184.319 163.631 184.305C163.668 184.276 163.708 184.248 163.745 184.217C163.768 184.2 163.787 184.182 163.81 184.165C163.941 184.066 164.072 183.96 164.2 183.858C164.2 183.858 164.202 183.856 164.206 183.852C164.226 183.835 164.249 183.818 164.271 183.798C164.61 183.528 164.943 183.249 165.274 182.964C165.393 182.865 165.507 182.762 165.624 182.66C165.632 182.651 165.644 182.643 165.652 182.634C165.675 182.614 165.698 182.594 165.721 182.571C165.88 182.435 166.037 182.293 166.193 182.147C166.398 181.96 166.6 181.772 166.802 181.578C166.948 181.436 167.096 181.294 167.241 181.151C167.315 181.077 167.389 181.006 167.46 180.932C167.639 180.753 167.819 180.571 167.995 180.386C168.083 180.294 168.169 180.206 168.254 180.115C168.257 180.109 168.263 180.104 168.268 180.098C168.374 179.987 168.482 179.873 168.584 179.759C168.59 179.754 168.593 179.751 168.599 179.745C168.656 179.685 168.71 179.623 168.767 179.56C168.798 179.526 168.832 179.489 168.863 179.455C169.031 179.273 169.197 179.085 169.359 178.9C174.335 172.18 178.902 165.175 183.055 157.889C183.354 157.487 183.656 157.094 183.969 156.707C184.143 156.491 184.322 156.275 184.502 156.061C184.641 155.896 184.781 155.731 184.923 155.569C185.085 155.381 185.247 155.199 185.413 155.014C185.578 154.829 185.746 154.647 185.914 154.467C186.25 154.106 186.597 153.75 186.947 153.403C187.459 153.631 187.972 153.861 188.482 154.097C192.815 156.09 197.022 158.335 201.116 160.84C202.912 161.936 204.527 163.191 205.961 164.606C206.679 165.312 207.351 166.06 207.977 166.846C208.185 167.108 208.39 167.372 208.589 167.646C208.985 168.186 209.364 168.747 209.722 169.325C209.899 169.612 210.072 169.906 210.243 170.202C210.747 171.092 211.208 172.026 211.624 172.999C214.027 179.236 215.484 185.688 215.991 192.357C216.398 195.761 216.728 199.174 216.979 202.592H216.982Z" fill="#D1DFE7"/>
<path fill-rule="evenodd" clip-rule="evenodd" d="M192.186 226.504C192.591 226.916 192.992 227.332 193.385 227.748C192.87 228.149 192.354 228.545 191.836 228.934C177.252 219.536 162.872 209.822 148.694 199.794C148.532 199.541 148.415 199.268 148.341 198.969C148.247 199.023 148.207 199.1 148.222 199.205C147.988 198.898 147.755 198.585 147.516 198.26C149.016 198.735 150.434 199.404 151.766 200.267C161.998 206.403 172.15 212.659 182.225 219.035C183.11 213.508 184.095 207.997 185.177 202.51C187.09 194.198 190.003 186.249 193.914 178.663C195.321 175.931 197.131 173.492 199.346 171.346C196.277 175.905 193.678 180.784 191.554 185.984C189.903 191.637 188.329 197.301 186.831 202.982C185.923 208.504 184.938 214.014 183.879 219.508C183.956 219.821 184.036 220.137 184.115 220.45C186.35 221.938 188.557 223.475 190.726 225.055C190.954 225.277 191.181 225.499 191.406 225.724C191.634 225.946 191.856 226.171 192.078 226.396C192.112 226.43 192.149 226.467 192.186 226.504Z" fill="#AEC6D6"/>
<path fill-rule="evenodd" clip-rule="evenodd" d="M102.65 199.439C87.4216 209.691 72.464 220.356 57.7854 231.428C57.2075 231.57 56.6694 231.778 56.1712 232.06C55.1178 231.479 54.0901 230.893 53.088 230.298C57.5434 226.601 62.255 223.242 67.2314 220.216C67.3083 219.901 67.388 219.585 67.4677 219.272C66.4997 213.838 65.5147 208.407 64.5155 202.982C63.0977 197.936 61.6799 192.901 60.265 187.871C59.4508 185.458 58.5056 183.098 57.4324 180.79C55.71 177.736 53.9392 174.747 52.1172 171.818C52.6866 171.918 53.1193 172.234 53.4182 172.763C54.6908 174.428 55.8694 176.162 56.9598 177.958C60.9369 185.52 63.929 193.47 65.9332 201.801C67.0891 207.385 68.2307 212.973 69.3552 218.563C80.1592 212.119 90.9034 205.589 101.588 198.969C101.787 199.322 101.984 199.402 102.177 199.205C102.337 199.282 102.493 199.362 102.65 199.439Z" fill="#AEC6D6"/>
<path fill-rule="evenodd" clip-rule="evenodd" d="M135.711 213.368C136.089 213.866 136.522 214.336 137.009 214.786C137.1 214.655 137.217 214.575 137.362 214.549C134.515 218.224 131.523 221.805 128.388 225.291C128.03 225.214 127.714 225.251 127.443 225.408C126.891 224.935 126.341 224.463 125.789 223.99C129.106 220.438 132.414 216.898 135.708 213.368H135.711Z" fill="#AAC5D7"/>
<path fill-rule="evenodd" clip-rule="evenodd" d="M191.836 228.935C179.173 238.427 165.402 244.256 151.409 247.307C151.338 247.324 151.27 247.339 151.199 247.353C146.365 242.768 140.144 236.964 136.179 233.386C135.908 233.141 135.646 232.908 135.396 232.686C135.131 232.45 134.88 232.228 134.644 232.02C134.596 232.387 134.476 232.7 134.291 232.962C134.328 232.564 134.288 232.168 134.171 231.784C132.031 229.524 129.787 227.398 127.441 225.408C127.715 225.252 128.028 225.212 128.387 225.291C131.521 221.805 134.513 218.224 137.36 214.55C140.981 209.435 144.603 204.32 148.221 199.205C148.207 199.1 148.247 199.023 148.341 198.969C148.415 199.268 148.531 199.541 148.694 199.794C162.871 209.822 177.251 219.536 191.836 228.935Z" fill="#D1DFE7"/>
<path fill-rule="evenodd" clip-rule="evenodd" d="M135.705 213.368C132.411 216.898 129.106 220.441 125.789 223.993C124.064 225.912 122.213 227.722 120.24 229.421C120.121 230.443 120.081 231.465 120.121 232.492C119.927 231.67 119.808 230.805 119.768 229.894C119.682 229.976 119.591 230.059 119.503 230.141C115.096 234.294 107.566 242.161 101.958 247.908C101.664 247.857 101.371 247.805 101.078 247.754C84.0477 244.697 68.4467 238.831 56.168 232.06C56.6662 231.778 57.2042 231.57 57.7822 231.428C72.4608 220.356 87.4184 209.691 102.647 199.439C106.299 196.866 109.997 194.347 113.747 191.885C118.663 196.84 123.543 201.838 128.385 206.876C130.931 208.934 133.373 211.097 135.705 213.368Z" fill="#D1DFE7"/>
<path fill-rule="evenodd" clip-rule="evenodd" d="M125.791 223.993C126.343 224.466 126.892 224.938 127.445 225.411C129.791 227.4 132.034 229.526 134.175 231.784C134.292 232.171 134.331 232.563 134.292 232.965C134.565 235.236 134.724 237.519 134.764 239.81C134.801 240.211 134.764 240.607 134.647 240.991C134.357 238.637 134.161 236.275 134.058 233.91C133.261 233.56 132.475 233.127 131.698 232.612C131.023 232.549 130.394 232.353 129.808 232.023C128.84 232.196 127.858 231.96 126.855 231.314C125.66 231.576 124.675 232.168 123.903 233.084C122.602 233.369 121.657 234.078 121.071 235.208C121.261 235.282 121.418 235.398 121.543 235.561C121.315 236.221 120.883 236.693 120.245 236.978C120.048 239.73 119.892 242.483 119.772 245.241C119.656 244.694 119.616 244.145 119.656 243.587V238.156C119.878 236.309 120.034 234.419 120.128 232.489C120.088 231.465 120.128 230.44 120.245 229.421C122.221 227.722 124.071 225.912 125.794 223.99L125.791 223.993Z" fill="#461E5A"/>
<path fill-rule="evenodd" clip-rule="evenodd" d="M119.648 238.157C119.723 237.508 119.648 236.879 119.412 236.269C119.315 236.369 119.213 236.474 119.105 236.585C118.886 236.81 118.638 237.066 118.37 237.345C118.288 237.431 118.205 237.516 118.12 237.604C118.037 237.69 117.952 237.775 117.866 237.866C115.202 240.644 110.869 245.201 107.472 248.756C107.43 248.75 107.384 248.745 107.338 248.736C105.531 248.494 103.737 248.215 101.958 247.908C101.665 247.857 101.371 247.805 101.078 247.754C106.966 242.033 115.093 234.271 119.503 230.141C119.592 230.059 119.683 229.976 119.768 229.894C119.808 230.805 119.927 231.67 120.121 232.492C120.027 234.419 119.871 236.309 119.648 238.157Z" fill="#ACC6D7"/>
<path fill-rule="evenodd" clip-rule="evenodd" d="M135.122 249.658C135.031 249.664 134.94 249.673 134.849 249.678C129.625 250.054 124.418 250.091 119.273 249.841C119.365 247.441 119.481 245.093 119.578 244.08C119.578 244.043 119.584 244.009 119.589 243.977C119.595 243.917 119.601 243.863 119.607 243.818C119.612 243.787 119.615 243.758 119.621 243.732C119.624 243.71 119.626 243.687 119.632 243.67C119.638 243.633 119.646 243.607 119.652 243.587C119.615 244.145 119.652 244.694 119.772 245.241C119.888 242.483 120.048 239.728 120.244 236.975C120.879 236.694 121.312 236.221 121.542 235.561C121.417 235.396 121.261 235.279 121.07 235.205C121.656 234.075 122.601 233.366 123.903 233.082C124.674 232.162 125.659 231.573 126.855 231.311C127.854 231.957 128.839 232.194 129.807 232.02C130.393 232.35 131.023 232.547 131.694 232.609C132.475 233.124 133.26 233.557 134.057 233.907C134.16 236.275 134.359 238.635 134.647 240.991C134.763 240.604 134.803 240.212 134.766 239.81C134.772 239.85 134.778 239.893 134.783 239.941C134.789 239.987 134.795 240.038 134.798 240.095C134.8 240.143 134.806 240.197 134.809 240.251C134.946 241.831 135.048 245.91 135.122 249.658Z" fill="#572667"/>
<path fill-rule="evenodd" clip-rule="evenodd" d="M119.65 238.156V243.587C119.644 243.607 119.636 243.633 119.63 243.67C119.624 243.687 119.621 243.709 119.619 243.732C119.613 243.758 119.61 243.786 119.604 243.818C119.599 243.863 119.593 243.917 119.587 243.977C119.582 244.008 119.579 244.042 119.576 244.079C119.459 245.124 119.325 247.552 119.229 249.838C115.266 249.641 111.34 249.274 107.474 248.756C107.431 248.75 107.385 248.745 107.34 248.736C110.813 245.15 115.192 240.616 117.868 237.866C117.953 237.775 118.039 237.69 118.121 237.604C118.206 237.516 118.289 237.431 118.372 237.345C118.639 237.066 118.887 236.81 119.106 236.585C119.214 236.474 119.317 236.369 119.414 236.269C119.647 236.878 119.724 237.507 119.65 238.156Z" fill="#CEDDE6"/>
<path fill-rule="evenodd" clip-rule="evenodd" d="M151.411 247.307C151.34 247.324 151.272 247.338 151.201 247.353C145.857 248.511 140.479 249.26 135.121 249.658C135.03 249.664 134.939 249.672 134.848 249.678C134.888 245.924 134.914 241.834 134.808 240.251C134.805 240.197 134.8 240.143 134.797 240.095C134.794 240.038 134.788 239.987 134.783 239.941C134.777 239.893 134.771 239.85 134.766 239.81C134.726 237.519 134.566 235.236 134.293 232.962C134.478 232.7 134.598 232.387 134.646 232.02C134.882 232.228 135.133 232.45 135.398 232.686C135.648 232.908 135.91 233.141 136.18 233.386C140.26 237.024 146.617 242.819 151.411 247.307Z" fill="#ADC7D8"/>
</g>
<defs>
<clipPath id="clip0_3349_4276">
<rect width="250" height="250" fill="white"/>
</clipPath>
</defs>
</svg>
