<svg width="24" height="24" viewBox="0 0 24 24" fill="none" xmlns="http://www.w3.org/2000/svg">
<path d="M14.7686 18.6577L7.9548 15.1375C7.30075 15.7525 6.46912 16.1703 5.56476 16.3382C4.66041 16.5061 3.7238 16.4167 2.87304 16.0811C2.02227 15.7456 1.29542 15.1789 0.784133 14.4527C0.272843 13.7264 0 12.873 0 12C0 11.127 0.272843 10.2736 0.784133 9.54735C1.29542 8.82106 2.02227 8.25442 2.87304 7.91887C3.7238 7.58331 4.66041 7.49386 5.56476 7.6618C6.46912 7.82973 7.30075 8.24752 7.9548 8.86251L14.7686 5.34231C14.5349 4.30373 14.7037 3.22017 15.2441 2.28977C15.7845 1.35938 16.6604 0.644334 17.7116 0.275392C18.7628 -0.0935509 19.9191 -0.0917338 20.969 0.280511C22.0189 0.652755 22.8923 1.37055 23.4294 2.30264C23.9666 3.23472 24.1315 4.31881 23.8942 5.35666C23.6569 6.3945 23.0331 7.31674 22.1369 7.95474C21.2408 8.59274 20.1321 8.90385 19.0137 8.83119C17.8953 8.75852 16.8418 8.30694 16.046 7.55902L9.23222 11.0792C9.3685 11.6859 9.3685 12.3129 9.23222 12.9195L16.046 16.441C16.8418 15.6931 17.8953 15.2415 19.0137 15.1688C20.1321 15.0962 21.2408 15.4073 22.1369 16.0453C23.0331 16.6833 23.6569 17.6055 23.8942 18.6433C24.1315 19.6812 23.9666 20.7653 23.4294 21.6974C22.8923 22.6294 22.0189 23.3472 20.969 23.7195C19.9191 24.0917 18.7628 24.0935 17.7116 23.7246C16.6604 23.3557 15.7845 22.6406 15.2441 21.7102C14.7037 20.7798 14.5349 19.6963 14.7686 18.6577Z" fill="#CFABE5"/>
</svg>
