<svg width="57" height="56" viewBox="0 0 57 56" fill="none" xmlns="http://www.w3.org/2000/svg">
<g clip-path="url(#clip0_4338_19839)">
<path d="M2.02805 27.6653C2.02673 32.3704 3.26573 36.9646 5.62167 41.014L1.80273 54.8494L16.0722 51.1369C20.019 53.2688 24.441 54.3859 28.9347 54.3862H28.9465C43.7811 54.3862 55.8567 42.4085 55.8631 27.6864C55.8659 20.5525 53.0686 13.8442 47.9861 8.79725C42.9046 3.75073 36.1463 0.970053 28.9455 0.966797C14.1092 0.966797 2.03439 12.9439 2.02827 27.6653" fill="#07B60D"/>
<path d="M1.06805 27.6562C1.06652 32.5306 2.34992 37.2891 4.78986 41.4834L0.833984 55.8149L15.6151 51.9693C19.6878 54.1726 24.2733 55.3343 28.9392 55.336H28.9512C44.318 55.336 56.8274 42.9275 56.834 27.6783C56.8366 20.2881 53.9386 13.3386 48.6746 8.11088C43.41 2.88378 36.41 0.00303876 28.9512 0C13.5819 0 1.07417 12.4068 1.06805 27.6562ZM9.87077 40.7611L9.31886 39.8918C6.9988 36.2313 5.77423 32.0014 5.77598 27.6579C5.7808 14.983 16.1767 4.67101 28.96 4.67101C35.1506 4.67361 40.9685 7.06816 45.3444 11.4127C49.72 15.7577 52.1278 21.5335 52.1263 27.6766C52.1206 40.3515 41.7245 50.6648 28.9512 50.6648H28.942C24.783 50.6626 20.7039 49.5544 17.1466 47.46L16.3 46.9619L7.52861 49.2438L9.87077 40.7611Z" fill="white"/>
<path d="M21.9823 16.0943C21.4603 14.9433 20.911 14.9201 20.4147 14.8999C20.0083 14.8825 19.5436 14.8838 19.0795 14.8838C18.6148 14.8838 17.8599 15.0572 17.2218 15.7486C16.5831 16.4405 14.7832 18.1127 14.7832 21.5137C14.7832 24.9148 17.2798 28.2018 17.6278 28.6635C17.9763 29.1243 22.4475 36.327 29.5289 39.098C35.4142 41.4007 36.6118 40.9427 37.8891 40.8272C39.1666 40.7122 42.0112 39.1555 42.5916 37.5412C43.1724 35.9272 43.1724 34.5437 42.9982 34.2546C42.8241 33.9666 42.3595 33.7936 41.6628 33.448C40.966 33.1025 37.5406 31.4299 36.9021 31.1991C36.2634 30.9686 35.799 30.8536 35.3343 31.5458C34.8697 32.2369 33.5355 33.7936 33.1289 34.2546C32.7227 34.7167 32.316 34.7742 31.6195 34.4285C30.9224 34.0816 28.6786 33.3525 26.0167 30.9977C23.9455 29.1653 22.5473 26.9025 22.1409 26.2104C21.7344 25.5193 22.0973 25.1446 22.4467 24.8002C22.7597 24.4904 23.1436 23.9929 23.4923 23.5894C23.8397 23.1857 23.9556 22.8977 24.1879 22.4366C24.4205 21.9752 24.3041 21.5715 24.1302 21.2257C23.9556 20.8799 22.6018 17.4611 21.9823 16.0943Z" fill="white"/>
</g>
<defs>
<clipPath id="clip0_4338_19839">
<rect width="56" height="56" fill="white" transform="translate(0.833984)"/>
</clipPath>
</defs>
</svg>
