<svg width="57" height="56" viewBox="0 0 57 56" fill="none" xmlns="http://www.w3.org/2000/svg">
<path d="M25.1962 25.0302C25.9838 24.2425 27.0521 23.8 28.166 23.8C29.2799 23.8 30.3482 24.2425 31.1359 25.0302C31.9235 25.8178 32.366 26.8861 32.366 28C32.366 29.1139 31.9235 30.1822 31.1359 30.9698C30.3482 31.7575 29.2799 32.2 28.166 32.2C27.0521 32.2 25.9838 31.7575 25.1962 30.9698C24.4085 30.1822 23.966 29.1139 23.966 28C23.966 26.8861 24.4085 25.8178 25.1962 25.0302Z" fill="url(#paint0_linear_4338_19845)"/>
<path fill-rule="evenodd" clip-rule="evenodd" d="M18.4422 18.2762C19.3874 17.331 20.6693 16.8 22.006 16.8H34.326C37.112 16.8 39.366 19.054 39.366 21.84V34.16C39.366 35.4967 38.835 36.7786 37.8898 37.7238C36.9447 38.669 35.6627 39.2 34.326 39.2H22.006C19.22 39.2 16.966 36.946 16.966 34.16V21.84C16.966 20.5033 17.497 19.2214 18.4422 18.2762ZM36.7535 19.4126C36.4253 19.0844 35.9801 18.9 35.516 18.9C35.0519 18.9 34.6068 19.0844 34.2786 19.4126C33.9504 19.7408 33.766 20.1859 33.766 20.65C33.766 21.1141 33.9504 21.5592 34.2786 21.8874C34.6068 22.2156 35.0519 22.4 35.516 22.4C35.9801 22.4 36.4253 22.2156 36.7535 21.8874C37.0816 21.5592 37.266 21.1141 37.266 20.65C37.266 20.1859 37.0816 19.7408 36.7535 19.4126ZM33.1158 23.0503C31.803 21.7375 30.0225 21 28.166 21C26.3095 21 24.529 21.7375 23.2163 23.0503C21.9035 24.363 21.166 26.1435 21.166 28C21.166 29.8565 21.9035 31.637 23.2163 32.9497C24.529 34.2625 26.3095 35 28.166 35C30.0225 35 31.803 34.2625 33.1158 32.9497C34.4285 31.637 35.166 29.8565 35.166 28C35.166 26.1435 34.4285 24.363 33.1158 23.0503Z" fill="url(#paint1_linear_4338_19845)"/>
<path fill-rule="evenodd" clip-rule="evenodd" d="M28.166 56C43.63 56 56.166 43.464 56.166 28C56.166 12.536 43.63 0 28.166 0C12.702 0 0.166016 12.536 0.166016 28C0.166016 43.464 12.702 56 28.166 56ZM42.166 22.12C42.166 17.64 38.526 14 34.046 14H22.286C20.1325 14 18.0671 14.8555 16.5443 16.3783C15.0215 17.9011 14.166 19.9664 14.166 22.12V33.88C14.166 38.36 17.806 42 22.286 42H34.046C36.1996 42 38.2649 41.1445 39.7877 39.6217C41.3105 38.0989 42.166 36.0336 42.166 33.88V22.12Z" fill="url(#paint2_linear_4338_19845)"/>
<defs>
<linearGradient id="paint0_linear_4338_19845" x1="28.166" y1="0" x2="28.166" y2="56" gradientUnits="userSpaceOnUse">
<stop stop-color="#F09D53"/>
<stop offset="1" stop-color="#AA04D3"/>
</linearGradient>
<linearGradient id="paint1_linear_4338_19845" x1="28.166" y1="0" x2="28.166" y2="56" gradientUnits="userSpaceOnUse">
<stop stop-color="#F09D53"/>
<stop offset="1" stop-color="#AA04D3"/>
</linearGradient>
<linearGradient id="paint2_linear_4338_19845" x1="28.166" y1="0" x2="28.166" y2="56" gradientUnits="userSpaceOnUse">
<stop stop-color="#F09D53"/>
<stop offset="1" stop-color="#AA04D3"/>
</linearGradient>
</defs>
</svg>
