<svg width="136" height="114" viewBox="0 0 136 114" fill="none" xmlns="http://www.w3.org/2000/svg">
<path d="M103.937 0.168945L136 55.2569L32.9741 113.47L0.911133 57.7573L103.937 0.168945Z" fill="#3F7F40"/>
<path d="M102.075 4.51904L131.651 54.02L34.8365 109.108L5.27393 58.3698L102.075 4.51904Z" fill="#92CD8B"/>
<path d="M100.83 8.87158L127.918 52.7596L35.4665 105.36L9.00342 59.6098L100.83 8.87158Z" fill="#4E964E"/>
<path d="M98.9681 12.6102C101.625 12.5841 120.73 47.942 124.181 52.1355L37.3295 100.386L13.979 61.4731L98.955 12.5972L98.9681 12.6102Z" fill="#92CD8B"/>
<path d="M58.8132 38.7586L60.0634 40.0089C46.5975 45.0749 50.9472 71.4467 68.1508 73.6216L69.0885 76.109C60.415 75.575 51.7677 73.5955 43.2505 71.7463C46.1286 65.6124 37.5855 62.5389 35.1632 67.0709C32.7408 71.603 38.445 75.5881 42.6384 72.9834L68.7889 79.8336C64.9601 81.9303 39.9036 97.2325 37.9761 96.6465L18.3633 63.3463L18.6758 61.7835C32.0767 54.1389 45.4254 46.4032 58.8262 38.7456L58.8132 38.7586Z" fill="#4E964E"/>
<path d="M43.2527 71.749C43.1355 72.0095 42.6927 72.9602 42.6276 72.9992C38.4342 75.6039 32.73 71.6188 35.1523 67.0867C37.5746 62.5547 46.1178 65.6281 43.2397 71.762L43.2527 71.749Z" fill="#92CD8B"/>
<path d="M68.7726 79.8495L42.6221 72.9993C42.6221 72.9993 43.13 72.0096 43.2472 71.7491C51.7513 73.5854 60.4117 75.5779 69.0851 76.1118L68.1474 73.6244C95.8607 77.1277 85.9761 30.2574 60.0601 40.0117L58.8098 38.7615C72.1195 31.1559 85.0905 22.9644 98.9602 16.3486L120.435 50.899C103.544 61.1613 86.0933 70.3817 68.7595 79.8495H68.7726Z" fill="#4E964E"/>
<path d="M94.5989 34.4003C103.663 31.8087 101.241 46.4337 93.9738 42.4877C90.692 40.7165 91.6166 35.2468 94.5989 34.4003Z" fill="#92CD8B"/>
<path d="M68.152 73.6132C50.9484 71.4383 46.5856 45.0664 60.0646 40.0004C85.9806 30.2461 95.8652 77.1294 68.152 73.6132Z" fill="#92CD8B"/>
<path d="M62.245 44.9796C63.8729 44.2372 66.9464 53.4446 68.4701 54.3171C71.0877 55.8278 80.9463 55.1246 79.3705 62.105C77.5993 69.9058 74.4868 58.9794 74.083 58.6799C67.7278 54.0958 75.2421 66.5329 74.7082 66.7673C71.4394 65.5431 70.2803 57.9636 67.858 56.8046C65.3055 55.5804 55.0041 56.6223 57.5827 49.0167C59.6013 43.0521 61.685 55.4632 65.6701 53.3795L62.245 44.9796Z" fill="#4E964E"/>
<path d="M67.2152 63.659C68.4524 62.6302 71.9426 67.4748 70.9528 68.0218C68.6738 69.259 65.6003 66.0292 67.2152 63.659Z" fill="#4E964E"/>
<path d="M65.9658 45.5885C71.2011 44.221 70.2244 49.1308 67.8281 48.701C67.4114 48.6229 65.5751 46.3959 65.9658 45.5885Z" fill="#4E964E"/>
</svg>
