<svg width="151" height="125" viewBox="0 0 151 125" fill="none" xmlns="http://www.w3.org/2000/svg">
<path d="M112.037 0.0507812L150.326 62.627L37.3367 124.565L0.298828 63.8642L112.037 0.0507812Z" fill="#4E964E"/>
<path d="M110.173 5.0459L144.724 61.384L38.5851 119.598L5.89697 64.4966L110.173 5.0459Z" fill="#92CD8B"/>
<path d="M108.92 9.39648L140.983 60.1216L39.1945 115.848L9.00684 66.3467L108.92 9.39648Z" fill="#4E964E"/>
<path d="M107.681 14.373L135.381 58.8862L41.0675 110.862L14.6045 66.9735L107.681 14.373Z" fill="#92CD8B"/>
<path d="M106.432 18.7393L131.645 57.6394L42.3059 107.14L18.3433 68.2272L106.432 18.7393Z" fill="#4E964E"/>
<path d="M102.698 36.7919C109.587 35.5026 111.449 45.869 106.435 47.3797C98.2306 49.828 97.1757 37.8337 102.698 36.7919Z" fill="#92CD8B"/>
<path d="M40.4531 71.0288C47.3554 69.7786 48.3061 80.0929 42.9405 80.9915C36.1294 82.1245 34.9964 72.0185 40.4531 71.0288Z" fill="#92CD8B"/>
<path d="M67.8255 43.0135C96.8801 38.1559 102.819 86.2634 72.8003 82.2392C51.8981 79.4392 50.5437 45.9046 67.8255 43.0135Z" fill="#92CD8B"/>
<path d="M66.5929 49.8618C69.2235 51.2423 73.2086 60.3715 74.6802 61.0617C75.6961 61.5436 80.8532 61.4524 82.7676 62.3119C91.7406 66.31 83.1062 79.2941 80.9053 65.4245L76.8551 65.1119L81.5304 74.7621C78.1053 73.6291 75.6309 64.7082 73.443 63.5622C69.9398 61.7259 55.1065 63.1975 64.1054 52.9743L67.218 59.8245C75.8914 61.1529 66.2933 54.2115 66.5929 49.8618Z" fill="#4E964E"/>
<path d="M73.4437 70.4062C74.4595 70.315 77.546 74.6778 77.1814 76.0061C71.9981 78.194 70.4744 70.6536 73.4437 70.4062Z" fill="#4E964E"/>
<path d="M70.9375 49.8631C74.9487 47.4929 76.2249 54.1477 73.425 54.2259C72.7087 54.2389 69.6352 50.6315 70.9375 49.8631Z" fill="#4E964E"/>
</svg>
