<svg width="141" height="52" viewBox="0 0 141 52" fill="none" xmlns="http://www.w3.org/2000/svg">
<path d="M140.081 45.3092C140.381 46.859 140.238 48.7213 140.706 50.2841C140.498 50.2841 141.631 51.378 137.594 51.5343L126.081 4.84631L5.92982 34.7344C4.06751 36.766 9.14654 47.7315 8.72979 50.9222C4.43216 50.8701 4.79681 49.685 4.36704 49.672C4.78378 47.966 4.04146 46.6897 3.74193 45.3092C2.89542 41.4413 1.99683 37.5214 0.629395 33.7968L129.181 0.496582C132.879 15.3299 137.203 30.3066 140.081 45.3223V45.3092Z" fill="#4E964E"/>
<path d="M137.589 51.5384C136.352 51.5775 135.088 51.4993 133.851 51.5384L123.576 9.20014L7.78701 37.8381L11.2121 50.9133C10.4047 50.9133 9.57118 50.9133 8.72468 50.9133C9.14142 47.7226 4.06239 36.7571 5.9247 34.7255L126.076 4.8374L137.589 51.5254V51.5384Z" fill="#92CD8B"/>
<path d="M130.119 50.9086C129.038 50.9347 128.009 50.8826 127.006 50.9086L118.606 17.2959L17.755 42.1961C14.7466 43.4594 17.8071 48.3821 18.0675 50.9086C17.2601 50.9086 16.4266 50.9086 15.5801 50.9086C15.515 48.291 11.6211 41.4408 14.0173 39.7087L120.469 12.9331L130.119 50.9086Z" fill="#92CD8B"/>
<path d="M133.856 51.5277C132.371 51.5798 130.313 50.9026 130.118 50.9026L120.468 12.9271L14.0166 39.7027C11.6073 41.4348 15.5142 48.2849 15.5793 50.9026C14.1598 50.8896 12.6882 50.9156 11.2166 50.9026L7.7915 37.8274L123.58 9.18945L133.856 51.5277Z" fill="#4E964E"/>
<path d="M127.017 50.9072C114.983 51.1676 102.963 51.4411 90.9035 51.5323C87.1268 27.6608 56.3141 24.9781 54.1783 51.5323C42.1449 51.4151 30.0724 51.0504 18.0651 50.9072C17.8046 48.3807 14.7442 43.4579 17.7525 42.1947L118.604 17.2944L127.004 50.9072H127.017Z" fill="#4E964E"/>
<path d="M108.031 37.2067C114.243 36.4904 116.197 45.815 110.518 47.1694C102.626 49.0577 101.949 37.9099 108.031 37.2067Z" fill="#92CD8B"/>
<path d="M90.8996 51.5336C85.7164 51.5727 80.5201 51.5206 75.3369 51.5336C71.1044 48.4472 73.11 41.8835 69.4244 37.8333L70.9872 48.1086C64.3454 47.5486 69.2551 43.7068 66.3119 40.3207C57.4431 44.0974 64.0979 49.8406 70.3621 51.5206C64.9705 51.5206 59.5659 51.5727 54.1743 51.5206C56.3231 24.9664 87.1229 27.6492 90.8996 51.5206V51.5336Z" fill="#92CD8B"/>
<path d="M75.3226 51.5359C73.6687 51.5359 72.0017 51.5359 70.3478 51.5359C64.0837 49.8429 57.4288 44.0997 66.2976 40.3361C69.2278 43.7221 64.3311 47.5639 70.9729 48.1239L69.4101 37.8486C73.0957 41.8858 71.0901 48.4625 75.3226 51.549V51.5359Z" fill="#4E964E"/>
<path d="M73.7696 39.7068C74.8895 38.8603 78.0672 41.3607 77.8198 42.5068C76.9863 46.2965 71.2952 41.5951 73.7696 39.7068Z" fill="#4E964E"/>
</svg>
