<svg width="125" height="113" viewBox="0 0 125 113" fill="none" xmlns="http://www.w3.org/2000/svg">
<path d="M85.0409 0.599121L124.579 47.5997L39.6031 112.65L0.689941 64.3995L85.0409 0.599121Z" fill="#4E964E"/>
<path d="M85.0389 4.32422L120.214 47.6001L39.6012 107.676L5.05078 65.0251L85.0389 4.32422Z" fill="#92CD8B"/>
<path d="M83.8193 8.69043L115.882 46.9785L39.6188 104.567L8.79297 65.6537L83.8193 8.69043Z" fill="#4E964E"/>
<path d="M83.1923 12.4346L112.143 46.985L40.2289 99.5855L13.1538 66.2853L83.1923 12.4346Z" fill="#92CD8B"/>
<path d="M72.2988 72.8118L71.0486 70.9495C88.4735 62.4714 69.3686 30.8773 51.7483 42.3116L50.498 41.0614C54.4831 38.014 82.0531 15.4579 84.4233 16.1611L109.011 45.7367C97.5637 55.8426 84.5796 63.8779 72.2858 72.8118H72.2988Z" fill="#4E964E"/>
<path d="M82.5777 32.9523C89.0762 30.8034 90.5999 40.2192 85.6902 41.0396C80.494 41.9252 78.4363 34.3197 82.5777 32.9523Z" fill="#92CD8B"/>
<path d="M51.7595 42.2968C36.9913 51.8818 52.4367 79.9857 71.0598 70.9347L72.31 72.797C61.7483 80.4806 51.6814 89.0629 40.8722 96.46L17.5217 68.7598C16.6752 66.8324 16.8445 67.4054 17.8342 65.9598C20.2044 62.4957 45.1828 45.1358 50.5223 41.0596L51.7725 42.3098L51.7595 42.2968Z" fill="#4E964E"/>
<path d="M35.2621 67.8189C41.2006 66.6599 43.1801 74.8644 38.3746 75.9063C32.5663 77.1826 30.0268 68.8347 35.2621 67.8189Z" fill="#92CD8B"/>
<path d="M71.0528 70.9366C52.4297 79.9877 36.9842 51.8838 51.7525 42.2987C69.3728 30.8644 88.4777 62.4586 71.0528 70.9366Z" fill="#92CD8B"/>
<path d="M55.1723 46.033C57.3081 46.6451 60.9025 54.5372 61.3974 54.7455C63.2337 55.566 71.0996 54.2116 72.2978 57.5455C72.5973 58.366 72.5452 62.325 71.3601 62.8329C68.6643 63.992 68.2866 56.5557 64.1974 58.1576L68.2476 65.9454C66.0076 64.8254 63.2988 57.832 61.3974 57.2329C59.1183 56.5167 50.3928 58.5222 50.497 52.5576C50.6663 44.0275 58.4802 58.8999 59.8346 53.8079L55.1593 46.02L55.1723 46.033Z" fill="#4E964E"/>
<path d="M61.4021 63.471C63.2514 62.7417 64.124 66.284 65.4523 66.8961C62.991 68.6542 62.1965 67.5733 60.4775 65.6459C60.2952 64.8514 60.6598 63.7705 61.4151 63.471H61.4021Z" fill="#4E964E"/>
<path d="M58.9162 46.037C62.771 45.0082 62.1329 49.7226 59.5413 49.1496C59.385 49.1105 57.3534 46.4538 58.9162 46.037Z" fill="#5BA759"/>
</svg>
