<svg width="145" height="126" viewBox="0 0 145 126" fill="none" xmlns="http://www.w3.org/2000/svg">
<path d="M46.3635 3.80469C79.8981 24.2641 111.01 48.9169 144.102 70.1055L103.952 125.819C69.4406 102.195 33.7311 79.5213 0.925781 53.9178L5.28853 48.6304C4.32482 50.3624 3.96017 52.6024 2.176 53.9178L5.60109 56.0926C3.3611 52.7196 6.16108 53.488 6.53875 52.9801C5.3276 54.5429 6.36945 55.1159 7.47642 56.0926C17.4782 64.8833 34.0957 75.5753 45.4519 83.4803C64.2313 96.5555 83.7921 108.602 102.728 121.456L139.14 70.7176L45.7384 6.29211L44.4882 4.11724L46.3505 3.80469H46.3635Z" fill="#4E964E"/>
<path d="M46.3671 3.79998L44.5048 4.11253L45.755 6.2874L42.3299 4.42509C30.4007 20.2612 18.2892 36.7485 6.52926 52.9884C6.16461 53.4963 3.35162 52.7279 5.5916 56.1009L2.1665 53.9261C3.95068 52.6107 4.31532 50.3708 5.27904 48.6387C8.05297 43.6248 36.7299 3.21394 39.5169 1.01302C40.2592 0.426983 40.4025 -0.224174 41.6918 0.0753582C42.1476 0.127451 45.6899 3.40928 46.3671 3.813V3.79998Z" fill="#3F7F40"/>
<path d="M45.7382 6.292L139.114 70.7305L102.701 121.469C83.7658 108.615 64.2181 96.5685 45.4257 83.4932C34.0695 75.5882 17.452 64.8962 7.45018 56.1055C6.34321 55.1288 5.30136 54.5558 6.51251 52.993C18.2724 36.7531 30.3839 20.2658 42.3131 4.42969L45.7382 6.292Z" fill="#92CD8B"/>
<path d="M42.3093 8.15527L134.761 71.3436L102.073 116.482L9.63428 53.2935L42.3093 8.15527Z" fill="#4E964E"/>
<path d="M44.1824 12.5293L130.396 71.98L100.833 112.755L15.2319 53.3048L44.1824 12.5293Z" fill="#92CD8B"/>
<path d="M46.9847 44.9093C46.3205 52.8534 49.6545 63.1938 54.46 69.8095C55.1112 72.7658 56.8693 76.79 59.4348 78.522V81.6346C56.4004 79.5378 53.5223 76.7639 50.7224 74.7844C49.2507 66.671 44.7708 58.7268 43.2471 50.1967C42.8694 48.0479 43.3513 45.7949 43.2471 44.2842C44.6666 45.1046 45.3829 45.326 46.9847 44.9093Z" fill="#3F7F40"/>
<path d="M59.4293 81.6217V78.5092C71.1632 86.4142 90.6458 75.8785 89.3175 60.1465C87.1556 34.7514 48.2946 41.9402 54.4545 69.7967C49.649 63.1809 46.315 52.8405 46.9792 44.8964C54.2201 43.0081 50.1829 34.1653 44.8043 35.5588C40.09 36.77 43.1113 42.396 43.2416 44.2713C43.3458 45.795 42.8639 48.035 43.2416 50.1838C44.7653 58.714 49.2452 66.6581 50.7169 74.7715C39.9858 67.166 28.4212 60.6023 18.3413 52.0461L44.1792 16.8706L125.73 72.2711L100.205 108.996C86.5566 99.9453 72.9083 90.8811 59.4293 81.6087V81.6217Z" fill="#4E964E"/>
<path d="M100.826 77.8886C110.398 75.1538 108.001 90.7946 100.2 86.6011C96.8796 84.8169 97.7131 78.7742 100.826 77.8886Z" fill="#92CD8B"/>
<path d="M46.9765 44.8955C45.3747 45.3122 44.6584 45.0908 43.2389 44.2704C43.1087 42.395 40.0743 36.769 44.8017 35.5579C50.1933 34.1644 54.2304 43.0071 46.9765 44.8955Z" fill="#92CD8B"/>
<path d="M59.4294 78.5136C56.8508 76.7815 55.1057 72.7573 54.4545 69.8011C48.2946 41.9446 87.1557 34.7558 89.3175 60.1509C90.6589 75.8829 71.1632 86.4186 59.4294 78.5136Z" fill="#92CD8B"/>
<path d="M71.5662 49.8808C77.648 49.1515 69.5215 55.9756 73.4285 59.2184L79.341 53.931C78.6117 55.6631 73.2331 60.9765 73.1159 62.0184C72.8555 64.2844 78.0517 71.8378 72.8034 74.7811C63.036 80.2638 71.8527 69.4676 71.8657 68.8685C72.0871 63.1774 65.1197 72.2936 64.0779 73.5439C62.2025 72.5281 70.3681 65.1049 70.6155 63.8937C71.0974 61.4974 65.263 50.6361 71.5532 49.8808H71.5662Z" fill="#4E964E"/>
<path d="M62.2342 64.1949C62.8853 64.0907 63.7058 64.8851 64.409 65.1326C62.3253 75.512 58.6137 64.7549 62.2342 64.1949Z" fill="#4E964E"/>
<path d="M80.901 55.4746C83.4536 55.4616 82.6982 63.0801 78.1011 59.5248C78.7653 58.8476 80.0545 55.4876 80.901 55.4746Z" fill="#4E964E"/>
</svg>
