<svg width="382" height="221" viewBox="0 0 382 221" fill="none" xmlns="http://www.w3.org/2000/svg">
<g opacity="0.5">
<path d="M20.7109 192.114C14.2023 203.948 58.9244 214.796 82.099 218.741H363.151L124.995 178.062C92.9455 177.815 27.2195 180.281 20.7109 192.114Z" fill="#50128C"/>
<path d="M28.1054 121.113L0 155.874H34.7619L63.6069 121.113H28.1054Z" fill="#50128C"/>
<path d="M45.1165 108.539H76.9199L124.995 113.716L87.2745 121.113L45.1165 108.539Z" fill="#50128C"/>
<path d="M59.9088 155.874L82.099 145.52L111.682 155.874H59.9088Z" fill="#50128C"/>
</g>
<path d="M163.533 208.856C165.773 213.062 167.492 214.338 163.846 218.818H98.4694C95.0313 214.99 96.2294 212.71 99.4071 209.481C120.752 208.231 142.162 208.947 163.533 208.856Z" fill="#86462D"/>
<path d="M330.997 15.8656C333.563 19.6944 323.248 18.5614 321.659 17.7279C321.334 15.0321 328.992 15.5661 330.997 15.8656Z" fill="#F0E6E0"/>
<path d="M192.776 16.4962C193.375 19.2311 184.48 18.606 183.751 18.3586C182.67 18.0069 182.918 16.5093 182.813 16.4962C185.822 14.7381 190.041 16.4962 192.776 16.4962Z" fill="#F0E6E0"/>
<path d="M203.379 4.66503C203.795 4.66503 203.444 5.85015 207.741 5.91526C208.588 5.91526 209.421 5.91526 210.229 5.91526C211.7 5.92829 213.172 5.90224 214.592 5.91526C215.438 5.91526 216.272 5.91526 217.079 5.91526C229.073 6.05852 241.159 6.42316 253.192 6.54037C258.571 6.59246 263.988 6.54037 269.38 6.54037C271.034 6.54037 272.701 6.54037 274.355 6.54037C279.538 6.52735 284.734 6.57944 289.918 6.54037C301.977 6.44921 313.984 6.17573 326.031 5.91526C327.033 5.88922 328.062 5.94131 329.143 5.91526C329.339 5.91526 331.396 6.57944 332.881 6.54037C334.118 6.5013 335.381 6.57944 336.619 6.54037C340.656 6.39712 339.523 5.30316 339.731 5.29014C347.91 4.92549 363.368 1.48739 367.119 10.265C370.791 28.4713 365.66 54.4265 367.744 73.4533C368.473 75.1072 378.801 74.6123 380.819 79.3658C380.611 78.91 371.117 79.2095 370.856 80.3035C372.992 83.7155 377.602 82.4653 380.819 81.5537C380.689 80.9286 381.014 79.7825 380.819 79.3788C381.965 82.0876 382.082 129.414 381.444 134.779C378.136 135.274 372.94 134.102 369.932 134.779C367.848 135.248 367.887 136.59 367.757 136.642C364.566 134.076 359.018 136.59 355.307 136.642C355.242 136.642 355.502 135.391 354.994 135.391C352.624 135.43 353.536 136.629 353.431 136.642C352.845 136.668 352.767 136.003 352.181 136.016C353.418 134.219 351.764 134.805 350.618 134.766C345.396 134.61 342.857 135.509 338.481 136.016C336.072 136.29 330.602 134.949 330.393 137.267C329.56 136.915 330.146 135.352 327.593 134.779C322.775 133.698 317.136 135.704 312.968 136.03C309.478 136.29 301.3 134.493 299.893 137.892C298.708 137.449 300.193 136.863 298.031 136.03C290.543 133.151 282.612 129.817 279.356 121.717C281.192 122.264 281.309 125.884 283.093 123.892C277.663 116.651 277.337 105.829 280.606 97.7415C279.759 97.3247 279.108 96.8168 278.119 96.8038C277.415 90.9043 293.46 84.4448 293.681 83.416C293.955 82.1788 291.91 81.0197 290.569 81.2411C285.75 81.6058 275.761 87.5313 274.381 92.7536C274.303 93.0271 275.618 92.2327 275.006 94.9285C266.059 106.597 267.335 121.001 276.256 133.842C293.486 158.664 329.469 146.656 355.32 148.467C356.349 153.468 357.56 149.144 357.807 149.092C361.193 148.284 364.345 148.402 367.77 148.467C366.389 169.72 368.799 192.42 367.77 213.83C366.975 215.861 365.66 217.359 364.032 218.805L82.9536 220.055C79.5806 217.841 79.2941 214.194 78.2783 210.717C79.6327 209.493 77.9527 209.246 80.4532 208.855C85.6234 208.048 94.0754 208.959 99.4409 209.48C96.2633 212.723 95.0782 214.989 98.5033 218.818H163.866C167.513 214.338 165.794 213.074 163.554 208.855C220.374 208.608 277.09 210.131 333.819 209.48C336.697 209.441 353.874 209.22 354.981 208.855C356.179 208.464 356.088 207.383 355.294 206.368C353.913 204.596 350.579 205.065 348.444 205.117C342.01 205.287 346.138 206.641 344.081 207.605C344.315 207.006 343.755 205.221 343.456 205.117C338.572 205.117 327.476 203.45 323.218 204.492C321.355 204.948 321.928 206.693 321.043 206.98C321.251 206.537 320.509 205.143 320.418 205.117C318.126 204.401 313.659 203.932 311.393 204.492C309.53 204.948 310.103 206.693 309.218 206.98C309.426 206.537 308.684 205.143 308.593 205.117H289.292C288.029 205.313 287.287 205.456 287.43 206.98C286.505 206.511 287.105 205 285.255 204.492C284.239 204.206 265.095 204.154 264.093 204.492C261.67 205.3 263.129 207.071 261.918 207.605C262.048 202.33 253.713 206.172 252.58 206.354C250.991 206.615 250.627 206.888 250.093 206.98C250.197 206.368 249.845 205.521 249.468 205.117C247.67 203.203 241.836 205.287 239.817 205.117C230.154 204.31 226.013 203.034 215.855 204.492L185.667 203.867C156.73 145.185 130.827 83.6895 114.392 19.9021L353.757 19.5895C354.669 24.7076 353.34 29.7216 353.444 34.8397C353.444 35.4518 355.307 35.8815 355.307 36.0899C355.424 40.2313 351.217 47.1465 355.619 51.34C357.99 51.9911 356.935 49.8684 357.182 49.4777C357.625 48.7614 357.794 48.8916 357.807 48.8526C359.995 42.9401 359.37 42.0675 357.182 35.7774C358.38 32.8992 357.638 29.4872 357.807 26.4397C357.976 23.1188 359.357 19.5896 357.807 16.1645C356.492 15.1356 353.015 15.917 351.582 15.8519C349.238 15.7477 347.636 16.0343 345.357 16.477C344.836 16.5812 344.693 15.6956 343.794 15.8519C343.273 15.9431 343.872 16.8938 342.857 17.1021C341.711 15.1747 333.428 14.8231 333.519 17.7272C332.295 17.4538 334.079 16.2947 331.032 15.8649C329.026 15.5784 321.368 15.0445 321.694 17.7272C320.092 16.9068 322.567 16.2035 319.207 15.8649C316.498 15.5915 312.487 15.6045 309.869 16.4901C309.049 16.3338 308.41 16.0082 307.382 15.8649C304.243 15.4482 301.13 16.0212 298.044 16.4901C296.208 16.7635 296.742 17.011 296.182 17.1152C295.036 15.1877 286.753 14.8361 286.844 17.7403C285.62 17.4668 287.404 16.3077 284.357 15.878C281.531 15.4742 278.431 15.904 275.644 16.5031C275.136 16.6073 274.98 15.7217 274.081 15.878C273.56 15.9691 274.159 16.9328 273.144 17.1282C272.414 15.0315 263.454 14.9924 263.806 17.7533C263.233 17.6621 263.702 17.3887 261.944 17.1282C261.866 17.1282 261.527 15.9691 261.006 15.878C257.998 15.3831 254.924 16.1384 251.981 16.5031C251.916 16.5031 252.202 15.4743 251.669 15.2529C250.822 15.7217 250.965 16.7114 250.106 17.1152C248.869 14.9924 244.05 15.9301 241.393 15.8649C240.182 15.8389 239.505 15.8259 238.281 15.8649C235.689 15.9431 229.633 14.7319 229.568 17.7272C228.331 17.4538 230.128 16.3077 227.081 15.8649C224.554 15.5003 220.244 15.6826 217.743 16.4901C216.923 16.3338 216.285 16.0082 215.256 15.8649C212.677 15.5263 208.445 15.6566 205.918 16.4901C205.111 16.3338 204.447 16.0082 203.431 15.8649C200.357 15.4482 197.167 16.5031 194.718 16.4901C194.08 16.4901 193.494 16.4901 192.856 16.4901C190.121 16.4901 185.902 14.7319 182.893 16.4901C181.956 16.2687 182.268 16.0603 180.406 15.8649C178.179 15.6305 172.605 15.2398 171.693 17.1152C171.238 17.024 171.381 16.8156 169.831 16.4901C166.666 15.8389 162.603 14.8752 159.868 17.1152C159.79 17.0891 160.285 15.6436 158.931 15.8649C158.449 15.9431 159.009 16.6854 157.993 17.1152C156.691 14.9403 151.143 15.6956 148.655 16.4901C148.447 16.3728 147.444 14.9012 146.481 14.6277L113.48 15.2529V4.66503C143.446 5.00364 173.504 4.22225 203.444 4.66503H203.379Z" fill="#86462D"/>
<path d="M355.593 166.527C358.341 164.209 358.589 176.32 356.843 177.727C354.395 178.378 355.151 166.905 355.593 166.527Z" fill="#F0E6E0"/>
<path d="M356.215 65.0413C358.52 64.4292 358.325 74.7436 356.84 76.2412C354.405 76.8924 354.874 65.3929 356.215 65.0413Z" fill="#F0E6E0"/>
<path d="M333.819 79.378C334.6 79.0654 349.85 79.0654 350.632 79.378C361.18 83.6626 323.544 83.5714 333.819 79.378Z" fill="#F0E6E0"/>
<path d="M305.18 79.3823C306.143 79.3823 318.607 79.8121 312.03 82.4949C311.262 82.8074 295.673 82.9898 295.53 82.1823C295.113 79.7991 303.278 79.3953 305.18 79.3823Z" fill="#F0E6E0"/>
<path d="M317.302 113.634C312.21 113.868 297.26 111.511 293.34 112.384C291.152 112.879 295.645 116.108 291.777 116.746C288.808 110.521 289.133 105.755 293.027 99.9335C294.525 100.311 295.111 99.3865 296.14 98.6833C304.11 98.0061 316.703 104.96 317.302 113.621V113.634Z" fill="#FEEA8E"/>
<path d="M317.303 113.64C317.615 118.12 314.828 117.937 313.878 121.727L320.415 116.127C314.854 128.186 297.377 128.486 291.777 116.752C295.632 116.114 291.152 112.884 293.34 112.389C297.26 111.517 312.224 113.861 317.303 113.64Z" fill="#FEEA8E"/>
<path d="M321.038 114.882C316.753 117.551 319.905 110.011 319.175 108.344C318.993 107.914 313.224 102.236 312.638 101.807C309.76 99.6577 303.469 96.8056 299.875 96.8317C307.077 92.7163 313.471 98.3944 318.55 102.744C317.795 101.728 313.041 95.8028 312.638 95.5814C311.596 95.0345 303.834 95.4121 302.362 93.094C315.581 90.242 325.14 102.249 321.038 114.882Z" fill="#FEEA8E"/>
<path d="M299.868 96.8166C303.463 96.7905 309.753 99.6426 312.631 101.791C313.217 102.221 318.986 107.899 319.169 108.329C319.898 109.996 316.76 117.536 321.031 114.867C320.719 115.83 320.51 115.896 320.406 116.117L313.868 121.717C314.819 117.914 317.606 118.109 317.293 113.629C316.694 104.969 304.101 98.0147 296.131 98.6919C297.655 97.6631 296.352 96.8426 299.868 96.8296V96.8166Z" fill="#FDF5CD"/>
<path d="M302.363 93.1001C303.835 95.4182 311.597 95.0406 312.639 95.5875C313.055 95.8089 317.796 101.734 318.551 102.75C313.472 98.4005 307.078 92.7224 299.876 96.8377C296.36 96.8638 297.662 97.6712 296.138 98.7C295.11 99.4033 294.524 100.315 293.026 99.9503C295.266 96.6033 298.365 93.9726 302.363 93.1001Z" fill="#E0B548"/>
<path d="M324.476 79.3798C325.609 79.4059 334.217 80.2915 328.839 82.4924C322.301 85.1621 306.074 78.95 324.476 79.3798Z" fill="#F0E6E0"/>
<path d="M290.538 81.2344C286.866 81.8204 277.476 91.6659 274.976 94.9347C275.601 92.2389 274.285 93.0334 274.35 92.7599C275.731 87.5376 285.72 81.612 290.538 81.2474V81.2344Z" fill="#5C2D1C"/>
<path d="M354.98 79.3738C356.347 79.5952 371.116 78.2799 368.368 81.5487C367.821 82.1869 350.448 83.424 354.98 79.3738Z" fill="#F0E6E0"/>
<path d="M380.813 79.3761C381.009 79.7798 380.683 80.9389 380.813 81.551C377.597 82.4756 372.986 83.7258 370.851 80.3007C371.111 79.2198 380.592 78.9203 380.813 79.3631V79.3761Z" fill="#F0E6E0"/>
<path d="M356.224 193.3C358.789 192.636 358.242 204.786 356.224 204.5V193.3Z" fill="#F0E6E0"/>
<path d="M355.595 153.448C358.434 151.052 358.499 163.515 356.845 164.036C354.28 164.844 355.165 153.826 355.595 153.448Z" fill="#F0E6E0"/>
<path d="M355.593 180.229C358.289 177.963 358.614 189.489 356.843 190.817C354.395 191.468 355.163 180.594 355.593 180.229Z" fill="#F0E6E0"/>
<path d="M355.593 51.9895C358.289 49.7235 358.614 61.249 356.843 62.5774C354.395 63.2285 355.163 52.3542 355.593 51.9895Z" fill="#F0E6E0"/>
<path d="M273.103 17.1241C273.103 17.1241 273.337 18.205 272.791 18.3743C270.446 19.0645 266.201 18.166 263.765 17.7492C263.414 14.9883 272.374 15.0274 273.103 17.1241Z" fill="#F0E6E0"/>
<path d="M296.145 17.1277C296.145 17.1277 296.367 18.2607 295.833 18.3779C293.254 18.9379 289.399 18.3258 286.808 17.7528C286.717 14.8487 294.999 15.2003 296.145 17.1277Z" fill="#F0E6E0"/>
<path d="M342.83 17.1277C342.83 17.1277 343.064 18.2086 342.517 18.3779C340.29 19.0291 335.823 18.2607 333.492 17.7528C333.401 14.8487 341.684 15.2003 342.83 17.1277Z" fill="#F0E6E0"/>
<path d="M261.892 207.618C261.345 207.852 251.721 208.217 252.554 206.367C253.687 206.185 262.022 202.33 261.892 207.618Z" fill="#F0E6E0"/>
<path d="M157.923 17.1191C157.858 17.1451 158.158 18.213 157.611 18.3693C157.011 18.5386 149.289 18.5516 148.898 18.3693C148.273 18.0698 148.729 16.5852 148.586 16.507C151.073 15.7126 156.621 14.9573 157.923 17.1321V17.1191Z" fill="#F0E6E0"/>
<path d="M180.322 15.8738C183.07 19.2598 173.355 18.6737 171.923 18.3612C171.389 18.244 171.675 17.124 171.61 17.1109C172.535 15.2356 178.096 15.6263 180.322 15.8607V15.8738Z" fill="#F0E6E0"/>
<path d="M202.739 0.307282C203.038 1.68774 203.781 2.96401 203.364 4.67004C173.437 4.22726 143.379 5.00865 113.4 4.67004V15.2579L146.401 14.6327C147.378 14.9062 148.38 16.3779 148.576 16.4951C148.719 16.5732 148.263 18.0579 148.888 18.3574C149.279 18.5397 157.002 18.5267 157.601 18.3574C158.148 18.2011 157.835 17.1462 157.913 17.1072C158.929 16.6904 158.356 15.9481 158.851 15.8569C160.205 15.6355 159.71 17.0681 159.789 17.1072C161.703 17.8625 168.553 20.4541 169.751 16.482C171.301 16.7946 171.158 17.016 171.614 17.1072C171.679 17.1072 171.392 18.2402 171.926 18.3574C173.359 18.6699 183.087 19.256 180.326 15.87C182.201 16.0653 181.876 16.2737 182.814 16.4951C182.918 16.5211 182.67 18.0058 183.751 18.3574C184.493 18.6048 193.388 19.2169 192.776 16.4951C193.414 16.4951 194 16.4951 194.639 16.4951C193.961 19.7248 206.477 19.1909 203.351 15.87C204.38 16.0132 205.031 16.3388 205.838 16.4951C205.943 16.5081 205.695 18.0188 206.776 18.3574C207.779 18.683 218.106 19.243 215.176 15.87C216.205 16.0132 216.856 16.3388 217.663 16.4951C217.768 16.5081 217.52 18.0188 218.601 18.3574C219.604 18.683 229.931 19.243 227.001 15.87C230.061 16.3127 228.264 17.4588 229.488 17.7323C231.533 18.1881 240.272 20.0504 238.201 15.87C239.425 15.8309 240.102 15.8439 241.313 15.87C238.318 19.256 248.893 18.6699 249.713 18.3574C250.273 18.149 249.948 17.1462 250.026 17.1072C250.872 16.7034 250.742 15.7006 251.589 15.2448C252.123 15.4662 251.836 16.4951 251.901 16.4951C251.901 19.4383 260.588 19.0346 261.864 17.1202C263.622 17.3676 263.153 17.6411 263.726 17.7453C266.162 18.149 270.407 19.0606 272.751 18.3704C273.298 18.2141 272.999 17.1332 273.064 17.1202C274.08 16.9378 273.481 15.9741 274.002 15.87C274.9 15.7137 275.043 16.5993 275.564 16.4951C273.728 19.5555 287.598 19.3471 284.277 15.87C287.337 16.3127 285.54 17.4718 286.764 17.7323C289.356 18.2923 293.211 18.9174 295.789 18.3574C296.323 18.2402 296.037 17.1202 296.102 17.1072C296.675 17.003 296.128 16.7555 297.964 16.482C297.743 19.5425 310.258 19.3471 307.302 15.8569C308.331 16.0002 308.982 16.3258 309.789 16.482C309.893 16.4951 309.646 18.0057 310.727 18.3443C311.73 18.6699 322.057 19.2299 319.127 15.8569C322.5 16.2085 320.012 16.8988 321.614 17.7192C323.216 18.5397 333.517 19.6727 330.952 15.8569C334.012 16.2997 332.215 17.4588 333.439 17.7192C335.77 18.2271 340.237 18.9955 342.464 18.3443C343.011 18.1881 342.712 17.1071 342.777 17.0941C343.793 16.8857 343.194 15.9481 343.715 15.8439C344.613 15.6876 344.743 16.5732 345.277 16.469C343.806 19.829 351.515 17.7974 353.065 18.3313L351.502 15.8439C352.935 15.909 356.412 15.1146 357.727 16.1565C359.277 19.5816 357.897 23.0978 357.727 26.4317C354.354 23.5276 354.914 33.7507 355.24 34.8317C355.566 35.9126 357.076 35.6651 357.102 35.7693C359.29 42.0595 359.902 42.919 357.727 48.8446C357.05 45.9274 359.329 39.5981 356.165 38.2568C355.123 38.5302 353.833 49.5478 357.102 49.4567C356.855 49.8474 357.91 51.9701 355.54 51.319C351.138 47.1255 355.344 40.1972 355.227 36.0688C355.227 35.8605 353.378 35.4307 353.365 34.8186C353.26 29.6875 354.589 24.6866 353.677 19.5685L114.312 19.8811C130.747 83.6684 156.65 145.164 185.587 203.846L215.775 204.471C214.303 204.68 211.842 203.833 210.8 205.096C209.85 204.94 208.691 205.2 207.688 205.096C204.497 204.758 200.864 203.755 197.725 205.096C196.358 205.135 195.212 204.823 193.987 205.721C184.845 203.442 177.917 205.266 168.775 205.096C162.94 204.992 155.296 203.664 149.474 203.846C147.325 203.911 135.24 204.237 134.537 204.471C133.313 204.875 134.016 206.594 132.974 206.959C133.117 206.216 132.713 205.656 132.349 205.096C131.086 203.104 93.2142 205.253 87.8357 205.096C86.5073 205.057 78.3027 204.719 77.873 204.471C76.9483 203.937 78.4851 199.692 76.3102 202.609C66.5298 151.089 66.7903 86.768 73.8228 34.8317C74.4479 30.2475 78.4981 1.90913 80.673 0.593793L202.687 0.28125L202.739 0.307282Z" fill="#703720"/>
<path d="M357.747 48.8751C357.747 48.8751 357.564 48.7839 357.122 49.5002C353.853 49.5914 355.142 38.5738 356.184 38.3003C359.336 39.6287 357.07 45.9709 357.747 48.8881V48.8751Z" fill="#F0E6E0"/>
<path d="M357.753 26.4689C357.596 29.5163 358.339 32.9284 357.128 35.8065C357.088 35.7023 355.578 35.9367 355.265 34.8688C354.953 33.8009 354.393 23.5647 357.753 26.4689Z" fill="#F0E6E0"/>
<path d="M319.152 15.8768C322.082 19.2498 311.754 18.6898 310.752 18.3642C309.671 18.0126 309.918 16.5149 309.814 16.5019C312.432 15.6293 316.443 15.6033 319.152 15.8768Z" fill="#F0E6E0"/>
<path d="M307.324 15.8673C310.28 19.3575 297.765 19.5529 297.986 16.4924C301.073 16.0236 304.185 15.4506 307.324 15.8673Z" fill="#F0E6E0"/>
<path d="M261.878 17.1276C260.615 19.042 251.916 19.4588 251.916 16.5025C254.859 16.1379 257.932 15.3825 260.941 15.8774C261.462 15.9686 261.8 17.1146 261.878 17.1276Z" fill="#F0E6E0"/>
<path d="M215.181 15.8738C218.111 19.2468 207.784 18.6868 206.781 18.3613C205.7 18.0096 205.947 16.512 205.843 16.4989C208.37 15.6655 212.602 15.5352 215.181 15.8738Z" fill="#F0E6E0"/>
<path d="M227.009 15.8753C229.94 19.2483 219.612 18.6883 218.61 18.3628C217.529 18.0111 217.776 16.5135 217.672 16.5004C220.172 15.693 224.483 15.5107 227.009 15.8753Z" fill="#F0E6E0"/>
<path d="M284.281 15.8766C287.602 19.3407 273.72 19.5621 275.569 16.5017C278.356 15.9026 281.468 15.4728 284.281 15.8766Z" fill="#F0E6E0"/>
<path d="M169.748 16.4933C168.55 20.4653 161.7 17.8737 159.785 17.1184C162.52 14.8914 166.57 15.8421 169.748 16.4933Z" fill="#F0E6E0"/>
<path d="M250.046 17.1262C249.968 17.1653 250.293 18.168 249.733 18.3764C248.9 18.6759 238.325 19.275 241.333 15.889C243.99 15.9541 248.809 15.0165 250.046 17.1392V17.1262Z" fill="#F0E6E0"/>
<path d="M203.359 15.8724C206.485 19.1933 193.956 19.7272 194.647 16.4975C197.095 16.5105 200.299 15.4557 203.359 15.8724Z" fill="#F0E6E0"/>
<path d="M238.219 15.8734C240.29 20.0668 231.551 18.1915 229.507 17.7357C229.572 14.7403 235.628 15.9515 238.219 15.8734Z" fill="#F0E6E0"/>
<path d="M351.53 15.8769L353.093 18.3643C351.543 17.8303 343.846 19.8489 345.305 16.502C347.584 16.0592 349.186 15.7857 351.53 15.8769Z" fill="#ECF1ED"/>
<path d="M79.7835 15.8734C80.9947 15.4437 90.3192 15.5609 90.0588 17.4362C89.1341 20.0018 74.3138 17.7878 79.7835 15.8734Z" fill="#F0E6E0"/>
<path d="M137.689 15.8746C138.497 15.5881 146.949 15.1844 146.714 17.4374C146.024 20.016 132.35 17.7369 137.689 15.8746Z" fill="#F0E6E0"/>
<path d="M115.268 15.8795C116.349 15.4237 125.817 15.5148 123.668 18.0543C122.613 19.3046 109.59 18.2757 115.268 15.8795Z" fill="#F0E6E0"/>
<path d="M104.066 15.8697C104.613 15.6353 112.844 15.1795 112.466 17.4325C111.867 19.6985 98.4924 18.2269 104.066 15.8697Z" fill="#F0E6E0"/>
<path d="M92.8588 15.8697C93.4057 15.6353 101.636 15.1795 101.259 17.4325C100.66 19.6985 87.2849 18.2269 92.8588 15.8697Z" fill="#F0E6E0"/>
<path d="M127.098 15.8696C128.4 15.505 136.982 15.557 134.886 18.0445C133.466 19.7244 121.159 17.5236 127.098 15.8696Z" fill="#F0E6E0"/>
<path d="M355.57 17.1292C357.914 17.051 358.682 23.211 356.82 24.6044C354.684 25.1774 354.723 17.1552 355.57 17.1292Z" fill="#F0E6E0"/>
<path d="M279.322 121.696C271.521 119.351 281.366 129.848 283.059 131.658C285.456 134.211 287.513 136.607 291.147 137.571L290.209 139.746C278.684 135.904 271.013 126.098 269.971 113.908L273.709 112.97C273.813 113.53 275.428 121.552 276.821 117.645C277.082 116.916 276.86 104.114 276.821 102.083C276.795 100.689 276.613 99.8168 274.959 99.908C275.154 98.215 275.454 98.0847 275.584 97.4205C276.717 97.8763 277.564 96.7954 278.072 96.7954C279.061 96.7954 279.713 97.3033 280.559 97.7331C277.29 105.82 277.629 116.643 283.046 123.884C281.275 125.876 281.145 122.256 279.309 121.709L279.322 121.696Z" fill="#5C2D1C"/>
<path d="M279.322 121.691C282.578 129.791 290.509 133.125 297.998 136.003C295.028 141.238 286.459 133.06 283.06 131.64C281.367 129.843 271.522 119.333 279.322 121.678V121.691Z" fill="#F0E6E0"/>
<path d="M278.062 96.7953C277.541 96.7953 276.695 97.8762 275.575 97.4204C275.64 97.0688 274.624 96.3395 274.95 94.933C277.45 91.6772 286.84 81.8187 290.512 81.2327C291.854 81.0243 293.898 82.1703 293.625 83.4075C293.404 84.4363 277.359 90.8958 278.062 96.7953Z" fill="#F0E6E0"/>
<path d="M367.724 136.645C367.607 136.684 366.773 138.338 366.161 138.507C364.572 138.963 355.782 139.184 355.261 136.645C358.972 136.592 364.533 134.079 367.711 136.645H367.724Z" fill="#F0E6E0"/>
<path d="M273.722 112.977C272.329 105.463 274.36 105.241 274.973 99.9019C276.626 99.8108 276.822 100.696 276.835 102.077C276.874 104.108 277.095 116.91 276.835 117.639C275.441 121.559 273.827 113.537 273.722 112.964V112.977Z" fill="#F0E6E0"/>
<path d="M274.963 94.9287C274.637 96.3352 275.653 97.0775 275.588 97.4161C275.458 98.0803 275.158 98.2106 274.963 99.9036C274.364 105.243 272.319 105.451 273.712 112.979L269.975 113.916C271.017 126.106 278.687 135.9 290.213 139.754L291.15 137.58C287.517 136.616 285.459 134.22 283.063 131.667C286.462 133.087 295.031 141.265 298.001 136.03C300.176 136.863 298.691 137.449 299.863 137.892C301.816 138.634 313.759 140.132 312.938 136.03C317.106 135.717 322.745 133.699 327.563 134.78C330.116 135.353 329.53 136.915 330.363 137.267C332.239 138.048 338.398 140.809 338.451 136.017C342.826 135.509 345.366 134.61 350.588 134.767C351.721 134.806 353.375 134.22 352.151 136.017C350.445 136.069 341.745 135.73 341.251 136.017C336.94 138.478 353.818 140.419 353.388 136.642C353.492 136.642 352.581 135.431 354.951 135.392C355.459 135.392 355.198 136.642 355.263 136.642C355.784 139.181 364.575 138.973 366.164 138.504C366.776 138.335 367.609 136.681 367.727 136.642C367.857 136.59 367.818 135.248 369.901 134.78C372.923 134.102 378.119 135.274 381.414 134.78C380.033 146.318 369.407 138.113 367.714 141.942C367.388 142.672 367.805 147.034 367.714 148.48C364.288 148.415 361.137 148.298 357.751 149.105L356.813 141.018C354.69 140.458 355.029 147.386 355.25 148.493C329.399 146.67 293.417 158.69 276.187 133.868C267.279 121.027 265.99 106.623 274.937 94.9547L274.963 94.9287Z" fill="#5C2D1C"/>
<path d="M357.759 149.094C357.512 149.146 356.301 153.47 355.272 148.469C355.051 147.375 354.712 140.434 356.835 140.994L357.773 149.081L357.759 149.094Z" fill="#F0E6E0"/>
<path d="M312.929 136.028C313.762 140.13 301.807 138.632 299.854 137.89C301.26 134.478 309.439 136.288 312.929 136.028Z" fill="#F0E6E0"/>
<path d="M352.16 136.024C352.746 136.011 352.824 136.662 353.41 136.649C353.84 140.426 336.948 138.486 341.272 136.024C341.767 135.738 350.453 136.076 352.173 136.024H352.16Z" fill="#F0E6E0"/>
<path d="M338.449 136.027C338.384 140.806 332.224 138.045 330.361 137.277C330.583 134.972 336.052 136.313 338.449 136.027Z" fill="#F0E6E0"/>
<path d="M371.769 135.399C373.292 135.021 381.406 134.722 380.169 137.574C378.931 140.426 363.251 137.535 371.769 135.399Z" fill="#F0E6E0"/>
<path d="M316.351 136.019C316.807 135.759 326.431 135.85 326.939 136.019C335.065 138.78 309.683 139.809 316.351 136.019Z" fill="#F0E6E0"/>
<path d="M132.398 205.117C131.043 205.443 122.383 204.075 123.06 206.68C125.495 208.308 130.457 207.904 133.023 206.993C134.065 206.628 133.361 204.909 134.586 204.505C135.289 204.271 147.374 203.958 149.523 203.88C155.344 203.685 162.989 205.026 168.823 205.13C177.966 205.287 184.894 203.476 194.036 205.755C194.14 205.782 193.893 207.279 194.974 207.618C200.834 209.506 210.497 204.753 197.774 205.13C200.912 203.789 204.546 204.792 207.737 205.13L206.174 207.618C209.964 208.243 221.437 206.901 210.849 205.13C211.904 203.867 214.352 204.714 215.824 204.505C225.995 203.047 230.123 204.323 239.787 205.13C241.805 205.3 247.639 203.216 249.437 205.13C246.363 205.56 242.157 203.867 240.099 206.693C240.373 208.712 248.72 207.227 250.062 207.006C250.596 206.915 250.96 206.641 252.549 206.381C251.716 208.217 261.353 207.865 261.887 207.631C263.098 207.097 261.652 205.326 264.062 204.518C265.064 204.18 284.208 204.232 285.224 204.518C287.087 205.026 286.488 206.55 287.399 207.006C287.464 207.045 287.816 208.139 288.337 208.256C296.828 210.079 302.649 203.021 289.275 205.143H308.575C307.351 204.675 299.993 204.701 299.237 206.706C299.485 208.516 307.663 207.501 309.2 207.019C310.098 206.732 309.512 204.987 311.375 204.531C313.641 203.971 318.121 204.44 320.4 205.156C319.71 204.896 310.789 204.44 311.062 206.719C311.544 208.542 319.436 207.54 321.025 207.032C321.924 206.745 321.337 205 323.2 204.544C327.458 203.502 338.554 205.169 343.438 205.169C342.266 204.74 332.55 204.766 334.725 207.344C335.025 207.709 343.529 207.904 344.063 207.657C346.121 206.693 341.979 205.339 348.426 205.169L346.863 207.657L355.263 206.407C356.057 207.435 356.148 208.516 354.95 208.894C353.843 209.246 336.666 209.48 333.788 209.519C277.059 210.183 220.343 208.647 163.523 208.894C142.152 208.985 120.742 208.269 99.397 209.519C94.0315 208.998 85.5794 208.087 80.4092 208.894C77.9088 209.285 79.5888 209.545 78.2344 210.756C77.453 208.074 76.893 205.404 76.3721 202.669C78.5339 199.765 76.9972 203.997 77.9348 204.531C78.3646 204.779 86.5692 205.117 87.8976 205.156C93.2761 205.313 131.134 203.164 132.411 205.156L132.398 205.117Z" fill="#5C2D1C"/>
<path d="M289.268 205.112C302.643 202.989 296.835 210.048 288.331 208.225C287.81 208.121 287.471 207.014 287.393 206.975C287.263 205.451 287.992 205.308 289.255 205.112H289.268Z" fill="#F0E6E0"/>
<path d="M320.395 205.114C320.486 205.153 321.229 206.546 321.02 206.976C319.431 207.484 311.539 208.487 311.057 206.664C310.784 204.398 319.705 204.84 320.395 205.101V205.114Z" fill="#F0E6E0"/>
<path d="M249.422 205.116C249.799 205.519 250.151 206.366 250.047 206.978C248.705 207.199 240.37 208.684 240.084 206.665C242.142 203.852 246.348 205.546 249.422 205.103V205.116Z" fill="#F0E6E0"/>
<path d="M308.571 205.116C308.663 205.155 309.405 206.549 309.197 206.978C307.66 207.46 299.481 208.476 299.234 206.666C299.989 204.66 307.347 204.647 308.571 205.103V205.116Z" fill="#ECF1ED"/>
<path d="M343.439 205.115C343.738 205.219 344.298 207.003 344.064 207.602C343.53 207.849 335.026 207.654 334.726 207.289C332.551 204.711 342.267 204.685 343.439 205.115Z" fill="#F0E6E0"/>
<path d="M348.401 205.109C350.537 205.056 353.871 204.588 355.251 206.359L346.852 207.609L348.414 205.122L348.401 205.109Z" fill="#F0E6E0"/>
<path d="M132.378 205.106C132.742 205.666 133.133 206.226 133.003 206.969C130.437 207.88 125.475 208.284 123.04 206.656C122.363 204.064 131.023 205.419 132.378 205.093V205.106Z" fill="#F0E6E0"/>
<path d="M197.763 205.106C210.487 204.728 200.823 209.494 194.963 207.593C193.882 207.241 194.13 205.757 194.025 205.731C195.237 204.832 196.396 205.145 197.763 205.106Z" fill="#F0E6E0"/>
<path d="M207.721 205.116C208.724 205.22 209.883 204.959 210.834 205.116C221.422 206.887 209.961 208.228 206.159 207.603L207.721 205.116Z" fill="#F0E6E0"/>
<path d="M183.112 205.116C184.258 204.791 192.71 204.543 192.137 206.679C190.848 209.362 177.056 206.809 183.112 205.116Z" fill="#F0E6E0"/>
<path d="M276.504 205.115C277.038 204.894 285.893 204.399 285.529 206.678C284.93 208.918 270.799 207.525 276.504 205.115Z" fill="#F0E6E0"/>
<path d="M135.801 205.118C136.986 204.702 147.027 204.689 144.826 207.293C143.511 208.856 130.423 206.994 135.801 205.118Z" fill="#ECF1ED"/>
<path d="M147.641 205.113C148.448 204.826 156.9 204.423 156.666 206.676C155.976 209.254 142.301 206.975 147.641 205.113Z" fill="#F0E6E0"/>
<path d="M323.82 205.113C324.628 204.826 333.08 204.423 332.846 206.676C332.155 209.254 318.481 206.975 323.82 205.113Z" fill="#F0E6E0"/>
<path d="M264.68 205.113C265.487 204.826 273.939 204.423 273.705 206.676C273.015 209.254 259.34 206.975 264.68 205.113Z" fill="#F0E6E0"/>
<path d="M229.194 205.117C229.741 204.753 240.511 204.57 238.219 207.292C237.425 208.243 224.831 207.982 229.194 205.117Z" fill="#F0E6E0"/>
<path d="M217.975 205.111C219.16 204.694 227.261 204.877 227 206.674C225.945 209.292 212.844 206.908 217.975 205.111Z" fill="#F0E6E0"/>
<path d="M159.468 205.119C160.549 204.663 170.017 204.755 167.868 207.294C166.814 208.544 153.79 207.515 159.468 205.119Z" fill="#F0E6E0"/>
<path d="M112.783 205.119C113.864 204.663 123.332 204.755 121.183 207.294C120.128 208.544 107.105 207.515 112.783 205.119Z" fill="#F0E6E0"/>
<path d="M171.289 205.119C172.37 204.663 181.838 204.755 179.689 207.294C178.634 208.544 165.611 207.515 171.289 205.119Z" fill="#F0E6E0"/>
<path d="M79.1547 205.114C79.7016 204.879 87.9323 204.424 87.5546 206.677C86.9555 208.943 73.5808 207.471 79.1547 205.114Z" fill="#F0E6E0"/>
<path d="M90.3578 205.114C90.9048 204.88 99.1354 204.424 98.7577 206.677C98.1587 208.943 84.7839 207.472 90.3578 205.114Z" fill="#F0E6E0"/>
<path d="M101.571 205.114C102.118 204.88 110.348 204.424 109.971 206.677C109.372 208.943 95.9968 207.472 101.571 205.114Z" fill="#F0E6E0"/>
</svg>
